<?xml version="1.0" standalone="no"?>
<!DOCTYPE svg PUBLIC "-//W3C//DTD SVG 1.1//EN" "http://www.w3.org/Graphics/SVG/1.1/DTD/svg11.dtd" >
<svg xmlns="http://www.w3.org/2000/svg" xmlns:xlink="http://www.w3.org/1999/xlink" version="1.1">
<metadata>
Created by FontForge 20160405 at Thu Mar 29 10:48:41 2018
 By www-data
2011 published by FontShop International GmbH
</metadata>
<defs>
<font id="SeroPro-Italic" horiz-adv-x="1000" >
  <font-face 
    font-family="SeroPro-Italic"
    font-weight="400"
    font-style="italic"
    font-stretch="normal"
    units-per-em="1000"
    panose-1="2 11 5 4 2 1 1 2 1 2"
    ascent="778"
    descent="-222"
    x-height="510"
    cap-height="720"
    bbox="-967 -222 2776 950"
    underline-thickness="67"
    underline-position="-101"
    slope="-10"
    stemh="70"
    stemv="86"
    unicode-range="U+000D-1F4AC"
  />
<missing-glyph horiz-adv-x="500" 
d="M-45 0l127 720h500l-127 -720h-500zM138 652l-103 -584h364l103 584h-364z" />
    <glyph glyph-name="f_b" unicode="fb" horiz-adv-x="895" 
d="M57 440l13 70h98l15 86c14 78 54 130 155 130c20 0 41 -2 66 -7l-12 -69c-16 5 -30 6 -42 6c-57 0 -74 -24 -84 -78l-12 -68h113l-13 -70h-113l-77 -440h-86l77 440h-98zM480 720h86l-49 -275c43 48 98 77 161 77c99 0 177 -70 177 -219c0 -172 -103 -315 -258 -315
c-56 0 -103 19 -151 72l-11 -60h-82zM653 447c-49 0 -100 -24 -149 -77l-44 -249c38 -40 79 -62 130 -62c114 0 179 110 179 235c0 110 -50 153 -116 153z" />
    <glyph glyph-name="f_f" unicode="ff" horiz-adv-x="639" 
d="M241 440l-77 -440h-86l77 440h-98l13 70h98l15 86c14 78 54 130 155 130c20 0 43 -2 68 -7l-12 -69c-16 5 -32 6 -44 6c-57 0 -74 -24 -84 -78l-12 -68h215l15 86c14 78 54 130 155 130c20 0 43 -2 68 -7l-12 -69c-16 5 -32 6 -44 6c-57 0 -74 -24 -84 -78l-12 -68h115
l-13 -70h-115l-77 -440h-86l77 440h-215z" />
    <glyph glyph-name="f_f_i" unicode="ffi" horiz-adv-x="873" 
d="M241 440l-77 -440h-86l77 440h-98l13 70h98l15 86c14 78 54 130 155 130c20 0 43 -2 68 -7l-12 -69c-16 5 -32 6 -44 6c-57 0 -74 -24 -84 -78l-12 -68h215l15 86c14 78 54 130 155 130c20 0 41 -2 66 -7l-12 -69c-16 5 -30 6 -42 6c-57 0 -74 -24 -84 -78l-12 -68h113
l-13 -70h-113l-77 -440h-86l77 440h-215zM660 0l90 510h86l-90 -510h-86zM817 705c32 0 54 -23 54 -53s-22 -53 -54 -53s-54 23 -54 53s22 53 54 53z" />
    <glyph glyph-name="f_f_l" unicode="ffl" horiz-adv-x="873" 
d="M660 0l127 720h86l-127 -720h-86zM241 440l-77 -440h-86l77 440h-98l13 70h98l15 86c14 78 54 130 155 130c20 0 43 -2 68 -7l-12 -69c-16 5 -32 6 -44 6c-57 0 -74 -24 -84 -78l-12 -68h215l15 86c14 78 54 130 155 130c20 0 41 -2 66 -7l-12 -69c-16 5 -30 6 -42 6
c-57 0 -74 -24 -84 -78l-12 -68h113l-13 -70h-113l-77 -440h-86l77 440h-215z" />
    <glyph glyph-name="f_h" unicode="fh" horiz-adv-x="890" 
d="M57 440l13 70h98l15 86c14 78 54 130 155 130c20 0 41 -2 66 -7l-12 -69c-16 5 -30 6 -42 6c-57 0 -74 -24 -84 -78l-12 -68h113l-13 -70h-113l-77 -440h-86l77 440h-98zM353 0l127 720h86l-52 -292c49 51 117 94 199 94c64 0 129 -26 129 -120c0 -12 -1 -30 -4 -45
l-63 -357h-86l62 351c2 11 4 19 4 31c0 49 -34 65 -76 65c-67 0 -125 -41 -177 -92l-63 -355h-86z" />
    <glyph glyph-name="f_i" unicode="fi" horiz-adv-x="572" 
d="M57 440l13 70h98l15 86c14 78 54 130 155 130c20 0 41 -2 66 -7l-12 -69c-16 5 -30 6 -42 6c-57 0 -74 -24 -84 -78l-12 -68h113l-13 -70h-113l-77 -440h-86l77 440h-98zM359 0l90 510h86l-90 -510h-86zM516 705c32 0 54 -23 54 -53s-22 -53 -54 -53s-54 23 -54 53
s22 53 54 53z" />
    <glyph glyph-name="f_j" unicode="fj" horiz-adv-x="572" 
d="M57 440l13 70h98l15 86c14 78 54 130 155 130c20 0 41 -2 66 -7l-12 -69c-16 5 -30 6 -42 6c-57 0 -74 -24 -84 -78l-12 -68h113l-13 -70h-113l-77 -440h-86l77 440h-98zM535 510l-105 -596c-14 -78 -54 -130 -155 -130c-20 0 -43 2 -68 7l12 69c16 -5 32 -6 44 -6
c57 0 74 24 84 78l102 578h86zM516 705c32 0 54 -23 54 -53s-22 -53 -54 -53s-54 23 -54 53s22 53 54 53z" />
    <glyph glyph-name="f_k" unicode="fk" horiz-adv-x="853" 
d="M57 440l13 70h98l15 86c14 78 54 130 155 130c20 0 41 -2 66 -7l-12 -69c-16 5 -30 6 -42 6c-57 0 -74 -24 -84 -78l-12 -68h113l-13 -70h-113l-77 -440h-86l77 440h-98zM695 0l-131 270l-91 -76l-34 -194h-86l127 720h86l-77 -434l254 224h107l-226 -190l157 -320h-86z
" />
    <glyph glyph-name="f_l" unicode="fl" horiz-adv-x="572" 
d="M57 440l13 70h98l15 86c14 78 54 130 155 130c20 0 41 -2 66 -7l-12 -69c-16 5 -30 6 -42 6c-57 0 -74 -24 -84 -78l-12 -68h113l-13 -70h-113l-77 -440h-86l77 440h-98zM359 0l127 720h86l-127 -720h-86z" />
    <glyph glyph-name="f_t" unicode="ft" horiz-adv-x="675" 
d="M241 440l-77 -440h-86l77 440h-98l13 70h98l15 86c14 78 54 130 155 130c20 0 41 -2 66 -7l-12 -69c-16 5 -30 6 -42 6c-57 0 -74 -24 -84 -78l-12 -68h214l30 170h86l-30 -170h128l-13 -70h-128l-51 -293c-3 -16 -5 -27 -5 -38c0 -33 17 -44 54 -44c27 0 47 6 66 12
l-12 -72c-21 -6 -46 -11 -79 -11c-68 0 -115 21 -115 100c0 16 2 36 5 54l51 292h-214z" />
    <glyph glyph-name=".notdef" horiz-adv-x="500" 
d="M-45 0l127 720h500l-127 -720h-500zM138 652l-103 -584h364l103 584h-364z" />
    <glyph glyph-name=".null" horiz-adv-x="0" 
 />
    <glyph glyph-name="CR" unicode="&#xd;" horiz-adv-x="220" 
 />
    <glyph glyph-name="space" unicode=" " horiz-adv-x="220" 
 />
    <glyph glyph-name="exclam" unicode="!" horiz-adv-x="319" 
d="M118 202l76 518h95l-106 -518h-65zM122 -12c-33 0 -56 24 -56 54s23 54 56 54s56 -24 56 -54s-23 -54 -56 -54z" />
    <glyph glyph-name="quotedbl" unicode="&#x22;" horiz-adv-x="404" 
d="M291 461l40 259h76l-53 -259h-63zM120 461l40 259h76l-53 -259h-63z" />
    <glyph glyph-name="numbersign" unicode="#" horiz-adv-x="572" 
d="M242 0l82 210h-147l-82 -210h-70l82 210h-92l12 67h106l49 126h-92l12 67h106l82 210h70l-82 -210h147l82 210h70l-82 -210h95l-12 -67h-109l-49 -126h95l-12 -67h-109l-82 -210h-70zM252 403l-49 -126h147l49 126h-147z" />
    <glyph glyph-name="dollar" unicode="$" horiz-adv-x="560" 
d="M191 -100l18 101c-70 5 -138 27 -193 62l38 72c53 -32 108 -55 168 -60l47 268c-79 33 -159 72 -159 175c0 112 93 193 225 201l15 81h58l-15 -82c63 -6 118 -28 165 -60l-39 -72c-44 30 -89 51 -139 56l-42 -238c81 -34 167 -74 167 -185c0 -120 -98 -207 -238 -218
l-18 -101h-58zM419 206c0 58 -43 88 -96 113l-43 -242c82 12 139 62 139 129zM197 528c0 -51 38 -78 87 -101l38 215c-75 -10 -125 -57 -125 -114z" />
    <glyph glyph-name="percent" unicode="%" horiz-adv-x="757" 
d="M73 0l568 720h80l-568 -720h-80zM245 450c68 0 100 67 100 130c0 54 -24 92 -75 92c-68 0 -100 -67 -100 -130c0 -54 24 -92 75 -92zM245 397c-88 0 -141 63 -141 148c0 91 62 181 166 181c88 0 141 -63 141 -148c0 -91 -62 -181 -166 -181zM524 47c68 0 100 67 100 130
c0 54 -24 92 -75 92c-68 0 -100 -67 -100 -130c0 -54 24 -92 75 -92zM524 -6c-88 0 -141 63 -141 148c0 91 62 181 166 181c88 0 141 -63 141 -148c0 -91 -62 -181 -166 -181z" />
    <glyph glyph-name="ampersand" unicode="&#x26;" horiz-adv-x="611" 
d="M156 521c0 103 88 171 206 171c113 0 177 -63 177 -142c0 -105 -111 -150 -221 -195l113 -185c33 33 66 74 100 123l55 -46c-38 -54 -77 -100 -116 -138l59 -93l-66 -46l-54 87c-62 -45 -128 -70 -200 -70c-118 0 -193 67 -193 173c0 118 94 176 195 219
c-24 42 -55 81 -55 142zM220 55c50 0 101 19 153 59l-127 209c-79 -36 -145 -79 -145 -159c0 -63 42 -109 119 -109zM237 520c0 -40 21 -70 48 -113c92 36 176 68 176 136c0 43 -33 81 -99 81c-68 0 -125 -39 -125 -104z" />
    <glyph glyph-name="quotesingle" unicode="'" horiz-adv-x="233" 
d="M120 461l40 259h76l-53 -259h-63z" />
    <glyph glyph-name="parenleft" unicode="(" horiz-adv-x="364" 
d="M126 203c0 -167 67 -283 132 -351l-50 -38c-73 69 -168 188 -168 388c0 278 182 431 329 530l35 -53c-144 -100 -278 -241 -278 -476z" />
    <glyph glyph-name="parenright" unicode=")" horiz-adv-x="364" 
d="M244 343c0 167 -67 283 -132 351l50 38c73 -69 168 -188 168 -388c0 -278 -182 -431 -329 -530l-35 53c144 100 278 241 278 476z" />
    <glyph glyph-name="asterisk" unicode="*" horiz-adv-x="425" 
d="M432 526l-138 12l79 -113l-52 -31l-59 125l-59 -125l-52 31l79 113l-138 -12v62l138 -12l-79 113l52 31l59 -125l59 125l52 -31l-79 -113l138 12v-62z" />
    <glyph glyph-name="plus" unicode="+" horiz-adv-x="572" 
d="M277 0h-72l39 219h-208l13 72h208l39 219h72l-39 -219h208l-13 -72h-208z" />
    <glyph glyph-name="comma" unicode="," horiz-adv-x="283" 
d="M96 104c40 0 69 -32 69 -85c0 -59 -36 -127 -156 -186l-36 45c82 37 115 79 126 115c-36 0 -59 24 -59 56c0 31 22 55 56 55z" />
    <glyph glyph-name="hyphen" unicode="-" horiz-adv-x="406" 
d="M66 278l12 67h281l-12 -67h-281z" />
    <glyph glyph-name="period" unicode="." horiz-adv-x="283" 
d="M161 46c0 -33 -23 -58 -58 -58c-34 0 -58 25 -58 58s24 58 58 58c35 0 58 -25 58 -58z" />
    <glyph glyph-name="slash" unicode="/" horiz-adv-x="574" 
d="M-28 -40l566 760h94l-566 -760h-94z" />
    <glyph glyph-name="zero" unicode="0" horiz-adv-x="627" 
d="M297 62c134 0 219 171 219 360c0 153 -56 234 -149 234c-134 0 -219 -171 -219 -360c0 -153 56 -234 149 -234zM292 -12c-137 0 -231 110 -231 309c0 226 122 435 311 435c137 0 231 -110 231 -309c0 -226 -122 -435 -311 -435z" />
    <glyph glyph-name="one" unicode="1" horiz-adv-x="363" 
d="M121 560l-17 75l172 85h68l-127 -720h-85l109 618z" />
    <glyph glyph-name="two" unicode="2" horiz-adv-x="563" 
d="M454 540c0 66 -38 114 -120 114c-78 0 -145 -44 -200 -110l-19 79c54 65 135 110 230 110c123 0 196 -76 196 -188c0 -127 -92 -247 -386 -470h323l-14 -75h-459l12 65c331 248 437 364 437 475z" />
    <glyph glyph-name="three" unicode="3" horiz-adv-x="547" 
d="M330 732c114 0 200 -58 200 -166c0 -96 -67 -165 -186 -198c91 -23 140 -81 140 -166c0 -133 -117 -214 -277 -214c-87 0 -161 24 -215 57l39 70c52 -31 109 -53 179 -53c111 0 185 56 185 143c0 83 -66 123 -181 123c-18 0 -37 -1 -65 -2l13 74c179 0 281 52 281 152
c0 69 -48 104 -122 104c-62 0 -122 -24 -182 -65l-12 76c59 40 129 65 203 65z" />
    <glyph glyph-name="four" unicode="4" horiz-adv-x="594" 
d="M13 152l13 73l404 495h114l-87 -493h110l-14 -75h-109l-27 -152h-85l27 152h-346zM115 227h257l71 402z" />
    <glyph glyph-name="five" unicode="5" horiz-adv-x="539" 
d="M410 235c0 97 -65 142 -174 142c-37 0 -93 -5 -159 -25l77 368h394l-13 -76h-313l-44 -203c32 6 60 8 82 8c138 0 236 -74 236 -213c0 -154 -119 -248 -286 -248c-85 0 -159 25 -214 57l39 71c50 -30 108 -53 178 -53c117 0 197 65 197 172z" />
    <glyph glyph-name="six" unicode="6" horiz-adv-x="585" 
d="M402 732c73 0 136 -23 181 -51l-39 -70c-43 26 -89 45 -146 45c-138 0 -225 -111 -246 -270c60 60 126 83 188 83c119 0 204 -85 204 -220c0 -156 -112 -261 -245 -261c-137 0 -238 113 -238 319c0 239 135 425 341 425zM323 396c-59 0 -114 -30 -176 -88v-2
c0 -167 63 -245 155 -245c89 0 158 72 158 181c0 96 -54 154 -137 154z" />
    <glyph glyph-name="seven" unicode="7" horiz-adv-x="536" 
d="M179 0h-104c140 256 264 459 384 642h-347l14 78h454l-13 -72c-121 -184 -246 -389 -388 -648z" />
    <glyph glyph-name="eight" unicode="8" horiz-adv-x="580" 
d="M535 195c0 -125 -115 -207 -270 -207c-146 0 -244 72 -244 189c0 121 106 167 219 205c-69 36 -122 84 -122 163c0 110 104 187 238 187c123 0 210 -65 210 -169c0 -100 -80 -149 -179 -185c79 -38 148 -87 148 -183zM203 547c0 -63 54 -99 119 -131
c86 31 159 66 159 142c0 65 -54 104 -130 104c-83 0 -148 -45 -148 -115zM449 190c0 78 -70 116 -144 154c-100 -36 -198 -72 -198 -166c0 -76 65 -122 160 -122c102 0 182 52 182 134z" />
    <glyph glyph-name="nine" unicode="9" horiz-adv-x="585" 
d="M220 -12c-73 0 -136 23 -181 51l39 68c43 -26 89 -45 146 -45c138 0 225 112 246 272c-60 -60 -127 -83 -189 -83c-118 0 -203 85 -203 220c0 156 112 261 245 261c137 0 238 -113 238 -319c0 -239 -135 -425 -341 -425zM299 322c59 0 114 29 176 87v3
c0 167 -63 245 -155 245c-89 0 -158 -72 -158 -181c0 -96 54 -154 137 -154z" />
    <glyph glyph-name="colon" unicode=":" horiz-adv-x="283" 
d="M161 46c0 -33 -23 -58 -58 -58c-34 0 -58 25 -58 58s24 58 58 58c35 0 58 -25 58 -58zM228 434c0 -33 -23 -58 -58 -58c-34 0 -58 25 -58 58s24 58 58 58c35 0 58 -25 58 -58z" />
    <glyph glyph-name="semicolon" unicode=";" horiz-adv-x="283" 
d="M96 104c40 0 69 -32 69 -85c0 -59 -36 -127 -156 -186l-36 45c82 37 115 79 126 115c-36 0 -59 24 -59 56c0 31 22 55 56 55zM227 434c0 -33 -23 -58 -58 -58c-34 0 -58 25 -58 58s24 58 58 58c35 0 58 -25 58 -58z" />
    <glyph glyph-name="less" unicode="&#x3c;" horiz-adv-x="572" 
d="M36 222l12 66l527 222l-14 -78l-440 -181l376 -183l-12 -68z" />
    <glyph glyph-name="equal" unicode="=" horiz-adv-x="572" 
d="M554 390l-12 -66h-488l12 66h488zM518 186l-12 -66h-488l12 66h488z" />
    <glyph glyph-name="greater" unicode="&#x3e;" horiz-adv-x="572" 
d="M536 288l-12 -66l-527 -222l14 78l440 181l-376 183l12 68z" />
    <glyph glyph-name="question" unicode="?" horiz-adv-x="424" 
d="M165 202h-69c-2 11 -3 21 -3 31c0 149 248 181 248 325c0 70 -58 102 -131 102c-26 0 -60 -4 -99 -13l12 71c32 9 69 14 103 14c113 0 200 -56 200 -164c0 -187 -262 -215 -262 -349c0 -8 0 -10 1 -17zM101 96c33 0 56 -24 56 -54s-23 -54 -56 -54s-56 24 -56 54
s23 54 56 54z" />
    <glyph glyph-name="at" unicode="@" horiz-adv-x="836" 
d="M418 -95c-206 0 -370 123 -370 353c0 226 159 391 389 391c206 0 347 -133 347 -334c0 -157 -86 -234 -180 -234c-65 0 -104 38 -111 90c-42 -49 -86 -90 -148 -90c-65 0 -113 44 -113 147c0 113 58 245 215 245c54 0 99 -16 123 -28l-22 -206c-1 -9 -2 -16 -2 -27
c0 -55 26 -77 62 -77c66 0 116 71 116 181c0 170 -120 277 -288 277c-194 0 -328 -142 -328 -335c0 -197 140 -297 308 -297c71 0 137 18 197 40l17 -56c-60 -23 -135 -40 -212 -40zM356 138c51 0 100 53 130 96l18 169c-19 8 -41 14 -67 14c-112 0 -144 -113 -144 -185
c0 -68 28 -94 63 -94z" />
    <glyph glyph-name="A" unicode="A" horiz-adv-x="677" 
d="M474 720l125 -720h-86l-33 195h-299l-101 -195h-93l384 720h103zM408 632l-190 -365h250z" />
    <glyph glyph-name="B" unicode="B" horiz-adv-x="648" 
d="M46 0l128 720h219c133 0 219 -56 219 -174c0 -87 -47 -152 -141 -181c77 -25 111 -82 111 -156c0 -121 -90 -209 -278 -209h-258zM147 72h157c129 0 192 53 192 142c0 81 -52 117 -146 117h-158zM205 401h138c121 0 183 50 183 135c0 77 -50 110 -139 110h-139z" />
    <glyph glyph-name="C" unicode="C" horiz-adv-x="606" 
d="M512 127l13 -76c-52 -36 -122 -63 -199 -63c-152 0 -262 100 -262 306c0 228 134 438 373 438c80 0 142 -23 194 -59l-39 -74c-49 35 -98 55 -161 55c-185 0 -279 -173 -279 -355c0 -162 75 -235 184 -235c66 0 126 27 176 63z" />
    <glyph glyph-name="D" unicode="D" horiz-adv-x="699" 
d="M174 720h213c171 0 284 -114 284 -308c0 -213 -135 -412 -384 -412h-240zM148 76h139c199 0 296 164 296 335c0 152 -78 230 -196 230h-139z" />
    <glyph glyph-name="E" unicode="E" horiz-adv-x="588" 
d="M47 0l127 720h444l-14 -78h-356l-41 -232h313l-13 -75h-313l-45 -258h359l-14 -77h-447z" />
    <glyph glyph-name="F" unicode="F" horiz-adv-x="544" 
d="M47 0l127 720h418l-14 -78h-330l-42 -242h294l-13 -75h-295l-57 -325h-88z" />
    <glyph glyph-name="G" unicode="G" horiz-adv-x="677" 
d="M353 61c48 0 94 11 137 30l37 214h-156l13 72h238l-56 -326c-65 -39 -139 -63 -223 -63c-171 0 -280 99 -280 308c0 234 137 436 387 436c93 0 163 -28 222 -71l-40 -75c-55 40 -111 68 -190 68c-191 0 -291 -162 -291 -352c0 -169 79 -241 202 -241z" />
    <glyph glyph-name="H" unicode="H" horiz-adv-x="706" 
d="M47 0l127 720h88l-54 -308h346l54 308h88l-127 -720h-88l59 335h-346l-59 -335h-88z" />
    <glyph glyph-name="I" unicode="I" horiz-adv-x="289" 
d="M55 0l127 720h88l-127 -720h-88z" />
    <glyph glyph-name="J" unicode="J" horiz-adv-x="406" 
d="M-15 3l13 78c25 -6 57 -11 86 -11c95 0 127 51 143 140l90 510h87l-92 -526c-22 -123 -71 -200 -228 -200c-31 0 -70 3 -99 9z" />
    <glyph glyph-name="K" unicode="K" horiz-adv-x="650" 
d="M47 0l127 720h88l-63 -355l376 355h113l-302 -274l198 -446h-91l-170 388l-143 -129l-45 -259h-88z" />
    <glyph glyph-name="L" unicode="L" horiz-adv-x="532" 
d="M47 0l127 720h88l-113 -642h323l-14 -78h-411z" />
    <glyph glyph-name="M" unicode="M" horiz-adv-x="917" 
d="M332 720l71 -437c14 -83 20 -119 25 -180h2c24 53 52 109 89 178l235 439h113l-71 -720h-88l49 428c6 51 18 153 25 192h-2c-12 -31 -62 -133 -90 -184l-238 -436h-81l-76 437c-22 126 -22 126 -27 183h-2c-7 -39 -32 -139 -47 -200l-102 -420h-86l187 720h114z" />
    <glyph glyph-name="N" unicode="N" horiz-adv-x="713" 
d="M47 0l127 720h97l250 -563l99 563h82l-127 -720h-73l-267 601l-106 -601h-82z" />
    <glyph glyph-name="O" unicode="O" horiz-adv-x="717" 
d="M346 64c156 0 256 153 256 340c0 166 -78 250 -194 250c-156 0 -256 -153 -256 -340c0 -166 78 -250 194 -250zM343 -12c-161 0 -279 117 -279 325c0 230 143 419 347 419c161 0 279 -117 279 -325c0 -230 -143 -419 -347 -419z" />
    <glyph glyph-name="P" unicode="P" horiz-adv-x="622" 
d="M47 0l127 720h234c138 0 224 -65 224 -196c0 -140 -100 -226 -278 -226h-167l-52 -298h-88zM248 642l-47 -269h153c128 0 191 55 191 148c0 84 -51 121 -144 121h-153z" />
    <glyph glyph-name="Q" unicode="Q" horiz-adv-x="719" 
d="M416 -192c-90 0 -137 35 -137 127c0 19 2 41 8 60c-132 24 -223 135 -223 318c0 230 143 419 347 419c161 0 279 -117 279 -325c0 -225 -137 -408 -334 -416c-3 -11 -3 -22 -3 -34c0 -59 28 -74 82 -74c38 0 74 7 103 15l-14 -75c-30 -9 -70 -15 -108 -15zM346 64
c156 0 256 153 256 340c0 166 -78 250 -194 250c-156 0 -256 -153 -256 -340c0 -166 78 -250 194 -250z" />
    <glyph glyph-name="R" unicode="R" horiz-adv-x="676" 
d="M481 0l-141 321h-149l-56 -321h-88l127 720h245c137 0 219 -61 219 -184c0 -117 -75 -195 -211 -212l145 -324h-91zM204 390h162c126 0 185 51 185 141c0 79 -46 111 -140 111h-163z" />
    <glyph glyph-name="S" unicode="S" horiz-adv-x="580" 
d="M20 54l39 73c61 -38 123 -63 193 -63c106 0 178 58 178 136c0 163 -309 114 -309 323c0 122 106 209 255 209c78 0 146 -24 202 -63l-39 -75c-52 36 -105 60 -169 60c-96 0 -161 -52 -161 -121c0 -150 309 -101 309 -321c0 -132 -110 -224 -272 -224
c-82 0 -162 24 -226 66z" />
    <glyph glyph-name="T" unicode="T" horiz-adv-x="565" 
d="M194 0l113 642h-210l14 78h508l-14 -78h-210l-113 -642h-88z" />
    <glyph glyph-name="U" unicode="U" horiz-adv-x="687" 
d="M87 273l79 447h88l-82 -465c-4 -22 -6 -40 -6 -58c0 -92 51 -131 148 -131c116 0 179 56 203 189l82 465h86l-84 -478c-31 -177 -131 -254 -292 -254c-144 0 -231 62 -231 198c0 29 4 59 9 87z" />
    <glyph glyph-name="V" unicode="V" horiz-adv-x="650" 
d="M233 0l-119 720h85l97 -608l313 608h90l-377 -720h-89z" />
    <glyph glyph-name="W" unicode="W" horiz-adv-x="954" 
d="M598 0l-39 382c-14 133 -17 168 -17 225h-2c-20 -59 -60 -142 -95 -218l-182 -389h-85l-60 720h88l28 -386c8 -104 11 -141 11 -210h2c28 77 65 154 97 222l175 374h83l38 -378c5 -50 16 -146 17 -218h2c22 64 53 141 86 217l163 379h92l-317 -720h-85z" />
    <glyph glyph-name="X" unicode="X" horiz-adv-x="636" 
d="M-11 0l295 371l-155 349h91l124 -287l224 287h102l-279 -349l166 -371h-92l-134 309l-240 -309h-102z" />
    <glyph glyph-name="Y" unicode="Y" horiz-adv-x="611" 
d="M217 0l54 305l-166 415h87l132 -330l248 330h98l-311 -415l-54 -305h-88z" />
    <glyph glyph-name="Z" unicode="Z" horiz-adv-x="601" 
d="M-6 0l11 65l491 577h-368l14 78h487l-12 -66l-491 -577h395l-14 -77h-513z" />
    <glyph glyph-name="bracketleft" unicode="[" horiz-adv-x="361" 
d="M258 -112l-12 -68h-241l159 900h241l-12 -68h-155l-135 -764h155z" />
    <glyph glyph-name="backslash" unicode="\" horiz-adv-x="574" 
d="M189 720l309 -760h-83l-309 760h83z" />
    <glyph glyph-name="bracketright" unicode="]" horiz-adv-x="361" 
d="M107 652l12 68h241l-159 -900h-241l12 68h155l135 764h-155z" />
    <glyph glyph-name="asciicircum" unicode="^" horiz-adv-x="572" 
d="M335 720h65l138 -488h-67l-113 407l-257 -407h-75z" />
    <glyph glyph-name="underscore" unicode="_" horiz-adv-x="492" 
d="M-73 -135l12 67h500l-12 -67h-500z" />
    <glyph glyph-name="grave" unicode="`" horiz-adv-x="500" 
d="M370 570h-67l-102 150h95z" />
    <glyph glyph-name="a" unicode="a" horiz-adv-x="565" 
d="M454 0h-84c-3 6 -5 14 -5 32c0 13 1 20 4 33c-42 -48 -96 -78 -161 -78c-96 0 -169 67 -169 214c0 175 104 321 252 321c56 0 103 -21 149 -73l11 61h82l-69 -391c-8 -47 -12 -71 -12 -97c0 -9 0 -17 2 -22zM235 59c49 0 99 25 146 78l43 248c-37 41 -73 62 -122 62
c-112 0 -177 -109 -177 -237c0 -107 45 -151 110 -151z" />
    <glyph glyph-name="b" unicode="b" horiz-adv-x="573" 
d="M158 720h86l-49 -275c43 48 98 77 161 77c99 0 177 -70 177 -219c0 -172 -103 -315 -258 -315c-56 0 -103 19 -151 72l-11 -60h-82zM331 447c-49 0 -100 -24 -149 -77l-44 -249c38 -40 79 -62 130 -62c114 0 179 110 179 235c0 110 -50 153 -116 153z" />
    <glyph glyph-name="c" unicode="c" horiz-adv-x="463" 
d="M463 480l-33 -67c-35 25 -67 38 -109 38c-124 0 -195 -111 -195 -238c0 -103 47 -155 124 -155c43 0 92 16 128 43l10 -69c-39 -27 -94 -44 -151 -44c-117 0 -197 72 -197 220c0 170 105 314 282 314c60 0 104 -16 141 -42z" />
    <glyph glyph-name="d" unicode="d" horiz-adv-x="573" 
d="M294 522c57 0 104 -21 150 -71l48 269h86l-106 -601c-9 -52 -12 -83 -12 -99c0 -9 1 -15 2 -20h-84c-3 6 -5 14 -5 32c0 13 1 19 4 32c-44 -47 -97 -75 -162 -75c-99 0 -176 64 -176 213c0 175 105 320 255 320zM241 59c49 0 99 23 148 77l44 247c-38 41 -77 64 -129 64
c-114 0 -179 -111 -179 -236c0 -109 50 -152 116 -152z" />
    <glyph glyph-name="e" unicode="e" horiz-adv-x="528" 
d="M325 522c117 0 173 -67 173 -141c0 -89 -80 -159 -295 -159c-26 0 -52 1 -78 4v-13c0 -101 47 -157 137 -157c51 0 110 18 163 49l11 -69c-55 -30 -122 -48 -186 -48c-132 0 -210 77 -210 220c0 175 117 314 285 314zM320 456c-93 0 -163 -72 -187 -170
c24 -2 46 -3 72 -3c161 0 212 40 212 95c0 43 -32 78 -97 78z" />
    <glyph glyph-name="f" unicode="f" horiz-adv-x="338" 
d="M57 440l13 70h98l15 86c14 78 54 130 155 130c20 0 43 -2 68 -7l-12 -69c-16 5 -32 6 -44 6c-57 0 -74 -24 -84 -78l-12 -68h115l-13 -70h-115l-77 -440h-86l77 440h-98z" />
    <glyph glyph-name="g" unicode="g" horiz-adv-x="572" 
d="M541 510l-89 -502c-27 -153 -134 -224 -265 -224c-62 0 -132 16 -187 44l33 68c54 -27 109 -39 153 -39c77 0 162 37 183 165l9 55c-44 -49 -98 -77 -162 -77c-99 0 -177 66 -177 212c0 168 105 310 257 310c57 0 104 -20 152 -73l11 61h82zM241 71c56 0 108 31 151 78
l41 236c-37 39 -78 63 -131 63c-111 0 -177 -106 -177 -228c0 -106 50 -149 116 -149z" />
    <glyph glyph-name="h" unicode="h" horiz-adv-x="568" 
d="M31 0l127 720h86l-52 -292c49 51 117 94 199 94c64 0 129 -26 129 -120c0 -12 -1 -30 -4 -45l-63 -357h-86l62 351c2 11 4 19 4 31c0 49 -34 65 -76 65c-67 0 -125 -41 -177 -92l-63 -355h-86z" />
    <glyph glyph-name="i" unicode="i" horiz-adv-x="250" 
d="M37 0l90 510h86l-90 -510h-86zM194 705c32 0 54 -23 54 -53s-22 -53 -54 -53s-54 23 -54 53s22 53 54 53z" />
    <glyph glyph-name="j" unicode="j" horiz-adv-x="250" 
d="M213 510l-105 -596c-14 -78 -54 -130 -155 -130c-20 0 -43 2 -68 7l12 69c16 -5 32 -6 44 -6c57 0 74 24 84 78l102 578h86zM194 705c32 0 54 -23 54 -53s-22 -53 -54 -53s-54 23 -54 53s22 53 54 53z" />
    <glyph glyph-name="k" unicode="k" horiz-adv-x="531" 
d="M373 0l-131 270l-91 -76l-34 -194h-86l127 720h86l-77 -434l254 224h107l-226 -190l157 -320h-86z" />
    <glyph glyph-name="l" unicode="l" horiz-adv-x="250" 
d="M37 0l127 720h86l-127 -720h-86z" />
    <glyph glyph-name="m" unicode="m" horiz-adv-x="880" 
d="M31 0l90 510h86l-15 -83c49 54 116 95 192 95c56 0 115 -22 121 -101c47 52 117 101 202 101c63 0 125 -27 125 -121c0 -12 -1 -28 -4 -44l-63 -357h-86l62 351c3 16 4 24 4 33c0 48 -32 63 -71 63c-67 0 -125 -46 -170 -90l-63 -357h-86l62 351c2 11 3 22 3 31
c0 50 -31 65 -70 65c-65 0 -120 -42 -170 -93l-63 -354h-86z" />
    <glyph glyph-name="n" unicode="n" horiz-adv-x="568" 
d="M31 0l90 510h86l-15 -82c49 51 117 94 199 94c64 0 129 -26 129 -120c0 -12 -1 -30 -4 -45l-63 -357h-86l62 351c2 11 4 19 4 31c0 49 -34 65 -76 65c-67 0 -125 -41 -177 -92l-63 -355h-86z" />
    <glyph glyph-name="o" unicode="o" horiz-adv-x="555" 
d="M253 55c110 0 177 111 177 235c0 110 -53 163 -128 163c-110 0 -177 -111 -177 -235c0 -110 53 -163 128 -163zM249 -12c-117 0 -210 76 -210 229c0 167 110 305 267 305c117 0 210 -76 210 -229c0 -167 -110 -305 -267 -305z" />
    <glyph glyph-name="p" unicode="p" horiz-adv-x="573" 
d="M121 510h86l-12 -65c43 48 98 77 161 77c99 0 177 -70 177 -219c0 -172 -103 -315 -258 -315c-55 0 -101 18 -148 69l-47 -267h-86zM331 447c-49 0 -100 -24 -149 -77l-44 -249c38 -40 79 -62 130 -62c114 0 179 110 179 235c0 110 -50 153 -116 153z" />
    <glyph glyph-name="q" unicode="q" horiz-adv-x="573" 
d="M414 -210h-86l49 274c-44 -48 -97 -76 -161 -76c-100 0 -177 67 -177 215c0 173 104 319 255 319c59 0 106 -22 154 -76l11 64h82zM241 59c49 0 99 23 148 77l44 247c-38 41 -77 64 -129 64c-114 0 -179 -111 -179 -236c0 -109 50 -152 116 -152z" />
    <glyph glyph-name="r" unicode="r" horiz-adv-x="371" 
d="M399 517l-14 -77c-14 2 -29 3 -40 3c-82 0 -141 -63 -167 -97l-61 -346h-86l90 510h86l-15 -87c36 52 87 99 164 99c12 0 30 -1 43 -5z" />
    <glyph glyph-name="s" unicode="s" horiz-adv-x="456" 
d="M433 477l-34 -67c-41 28 -81 42 -122 42c-62 0 -108 -34 -108 -78c0 -97 224 -60 224 -221c0 -99 -85 -165 -211 -165c-64 0 -125 17 -174 47l34 66c46 -28 94 -45 145 -45c73 0 122 36 122 87c0 110 -224 73 -224 223c0 90 80 156 194 156c57 0 110 -17 154 -45z" />
    <glyph glyph-name="t" unicode="t" horiz-adv-x="375" 
d="M57 440l13 70h98l30 170h86l-30 -170h128l-13 -70h-128l-51 -293c-3 -16 -5 -27 -5 -38c0 -33 17 -44 54 -44c27 0 47 6 66 12l-12 -72c-21 -6 -46 -11 -79 -11c-68 0 -115 21 -115 100c0 16 2 36 5 54l51 292h-98z" />
    <glyph glyph-name="u" unicode="u" horiz-adv-x="568" 
d="M537 510l-90 -510h-86l15 82c-49 -51 -117 -94 -199 -94c-63 0 -129 25 -129 119c0 12 1 31 4 46l63 357h86l-62 -353c-2 -11 -4 -19 -4 -31c0 -49 34 -65 76 -65c67 0 125 41 177 92l63 357h86z" />
    <glyph glyph-name="v" unicode="v" horiz-adv-x="505" 
d="M161 0l-95 510h83l72 -410l219 410h89l-280 -510h-88z" />
    <glyph glyph-name="w" unicode="w" horiz-adv-x="749" 
d="M210 0h-83l-60 510h80l31 -271c7 -62 11 -97 10 -141h2c14 38 42 102 63 145l129 267h78l29 -267c8 -71 10 -95 10 -145h2c15 45 36 93 60 144l126 268h85l-244 -510h-82l-29 266c-10 89 -11 106 -12 147h-2c-13 -41 -40 -98 -65 -150z" />
    <glyph glyph-name="x" unicode="x" horiz-adv-x="507" 
d="M-18 0l223 265l-121 245h88l89 -193l154 193h97l-207 -246l130 -264h-85l-101 212l-172 -212h-95z" />
    <glyph glyph-name="y" unicode="y" horiz-adv-x="505" 
d="M-45 -211l13 73c14 -3 27 -6 47 -6c57 0 92 25 164 156h-27l-86 498h88l65 -433l221 433h89l-269 -511c-94 -178 -139 -215 -246 -215c-17 0 -38 1 -59 5z" />
    <glyph glyph-name="z" unicode="z" horiz-adv-x="484" 
d="M-15 0l11 59l362 381h-277l13 70h391l-11 -58l-362 -381h300l-13 -71h-414z" />
    <glyph glyph-name="braceleft" unicode="{" horiz-adv-x="361" 
d="M29 236l12 68h23c59 0 79 27 88 76l38 215c13 77 59 125 183 125h37l-12 -68h-37c-60 0 -79 -25 -88 -74l-38 -215c-8 -46 -29 -83 -82 -97c33 -14 47 -42 47 -81c0 -11 -1 -24 -3 -37l-34 -191c-1 -8 -2 -12 -2 -20c0 -29 15 -49 65 -49h37l-12 -68h-37
c-88 0 -139 37 -139 113c0 15 2 26 5 40l34 192c1 7 2 17 2 24c0 30 -17 47 -64 47h-23z" />
    <glyph glyph-name="bar" unicode="|" horiz-adv-x="352" 
d="M57 -180l159 900h84l-159 -900h-84z" />
    <glyph glyph-name="braceright" unicode="}" horiz-adv-x="361" 
d="M336 304l-12 -68h-23c-59 0 -79 -27 -88 -76l-38 -215c-13 -77 -59 -125 -183 -125h-37l12 68h37c60 0 79 25 88 74l38 215c8 46 29 83 82 97c-33 14 -47 42 -47 81c0 11 1 24 3 37l34 191c1 8 2 12 2 20c0 29 -15 49 -65 49h-37l12 68h37c88 0 139 -37 139 -113
c0 -15 -2 -26 -5 -40l-34 -192c-1 -7 -2 -17 -2 -24c0 -30 17 -47 64 -47h23z" />
    <glyph glyph-name="asciitilde" unicode="~" horiz-adv-x="572" 
d="M163 243c-42 0 -81 -16 -114 -44l-20 69c30 23 80 47 137 47c81 0 169 -48 242 -48c42 0 81 16 114 44l20 -69c-30 -23 -80 -47 -137 -47c-81 0 -169 48 -242 48z" />
    <glyph glyph-name="uni00A0" unicode="&#xa0;" horiz-adv-x="220" 
 />
    <glyph glyph-name="exclamdown" unicode="&#xa1;" horiz-adv-x="319" 
d="M197 522c33 0 56 -24 56 -54s-23 -54 -56 -54s-56 24 -56 54s23 54 56 54zM201 308l-76 -518h-95l106 518h65z" />
    <glyph glyph-name="cent" unicode="&#xa2;" horiz-adv-x="486" 
d="M90 -143l67 159c-70 28 -115 96 -115 205c0 171 110 313 290 313c15 0 29 -1 43 -3l54 126h53l-58 -138c20 -7 37 -16 54 -27l-34 -67c-17 11 -33 20 -49 26l-162 -382c8 -1 16 -1 25 -1c46 0 95 16 134 44l11 -68c-40 -27 -98 -44 -156 -44c-15 0 -29 1 -42 3l-62 -146
h-53zM127 225c0 -69 21 -116 60 -139l160 377c-7 0 -10 1 -22 1c-124 0 -198 -109 -198 -239z" />
    <glyph glyph-name="sterling" unicode="&#xa3;" horiz-adv-x="479" 
d="M273 335l-27 -97c-21 -76 -51 -126 -102 -160c50 -6 106 -20 154 -20c38 0 75 9 106 27l9 -71c-31 -16 -79 -26 -125 -26c-74 0 -141 25 -204 25c-40 0 -76 -10 -106 -28l-10 71c113 39 164 76 198 197l23 82h-147l11 64h154l51 180c26 93 65 153 191 153
c23 0 49 -2 70 -5l-13 -70c-19 3 -37 6 -56 6c-67 0 -94 -36 -112 -99l-47 -165h170l-11 -64h-177z" />
    <glyph glyph-name="currency" unicode="&#xa4;" horiz-adv-x="572" 
d="M187 254c0 -55 42 -98 96 -98s96 43 96 98s-42 98 -96 98s-96 -43 -96 -98zM436 254c0 -30 -8 -58 -22 -81l85 -86l-49 -50l-87 88c-23 -13 -50 -21 -80 -21s-57 8 -80 21l-87 -88l-49 50l85 86c-14 23 -22 51 -22 81s8 58 22 81l-85 86l49 50l87 -88c23 13 50 21 80 21
s57 -8 80 -21l87 88l49 -50l-85 -86c14 -23 22 -51 22 -81z" />
    <glyph glyph-name="yen" unicode="&#xa5;" horiz-adv-x="596" 
d="M92 270l11 64h153l-151 386h85l127 -331l243 331h95l-288 -386h152l-11 -64h-165l-13 -75h165l-11 -64h-165l-23 -131h-86l23 131h-165l11 64h165l13 75h-165z" />
    <glyph glyph-name="brokenbar" unicode="&#xa6;" horiz-adv-x="352" 
d="M147 330l69 390h84l-69 -390h-84zM57 -180l69 390h84l-69 -390h-84z" />
    <glyph glyph-name="section" unicode="&#xa7;" horiz-adv-x="584" 
d="M387 732c69 0 129 -21 180 -52l-36 -68c-47 30 -94 49 -150 49c-77 0 -153 -36 -187 -117c143 -16 316 -95 316 -307c0 -190 -139 -288 -299 -288c-72 0 -136 20 -189 51l36 66c50 -30 102 -48 160 -48c82 0 162 37 197 118c-141 16 -315 94 -315 308
c0 189 135 288 287 288zM434 235c0 169 -146 225 -256 242c-1 -9 -1 -18 -1 -28c0 -175 144 -231 255 -247c1 10 2 19 2 33z" />
    <glyph glyph-name="dieresis" unicode="&#xa8;" horiz-adv-x="500" 
d="M268 623c0 -28 -20 -49 -49 -49s-49 21 -49 49s20 49 49 49s49 -21 49 -49zM458 623c0 -28 -20 -49 -49 -49s-49 21 -49 49s20 49 49 49s49 -21 49 -49z" />
    <glyph glyph-name="copyright" unicode="&#xa9;" horiz-adv-x="838" 
d="M803 360c0 -213 -163 -372 -372 -372s-372 159 -372 372s163 372 372 372s372 -159 372 -372zM752 360c0 184 -142 322 -321 322c-180 0 -321 -138 -321 -322c0 -185 141 -323 321 -323c179 0 321 138 321 323zM540 255l15 -54c-29 -20 -67 -34 -113 -34
c-100 0 -168 63 -168 186c0 128 73 196 173 196c44 0 80 -13 107 -32l-15 -59c-25 19 -54 34 -90 34c-62 0 -108 -43 -108 -135c0 -93 48 -135 109 -135c36 0 63 14 90 33z" />
    <glyph glyph-name="ordfeminine" unicode="&#xaa;" horiz-adv-x="363" 
d="M202 424c27 0 56 14 83 44l25 147c-22 23 -44 35 -71 35c-65 0 -102 -64 -102 -137c0 -63 27 -89 65 -89zM276 417c-25 -30 -58 -45 -94 -45c-62 0 -107 44 -107 134c0 106 61 198 156 198c34 0 62 -12 88 -43l7 35h61l-43 -243c-6 -33 -8 -46 -8 -58c0 -9 1 -12 2 -15
h-60c-2 3 -3 10 -3 17s0 10 1 20z" />
    <glyph glyph-name="guillemotleft" unicode="&#xab;" horiz-adv-x="500" 
d="M326 24l-102 231l175 231h85l-176 -238l94 -224h-76zM146 24l-102 231l175 231h85l-176 -238l94 -224h-76z" />
    <glyph glyph-name="logicalnot" unicode="&#xac;" horiz-adv-x="572" 
d="M496 67h-72l39 219h-416l13 72h488z" />
    <glyph glyph-name="uni00AD" unicode="&#xad;" horiz-adv-x="406" 
d="M66 278l12 67h281l-12 -67h-281z" />
    <glyph glyph-name="registered" unicode="&#xae;" horiz-adv-x="838" 
d="M803 360c0 -213 -163 -372 -372 -372s-372 159 -372 372s163 372 372 372s372 -159 372 -372zM752 360c0 184 -142 322 -321 322c-180 0 -321 -138 -321 -322c0 -185 141 -323 321 -323c179 0 321 138 321 323zM519 175l-89 149h-66v-149h-66v366h142
c85 0 136 -37 136 -109c0 -53 -29 -87 -79 -101l94 -156h-72zM364 374h70c51 0 75 17 75 55c0 39 -24 56 -75 56h-70v-111z" />
    <glyph glyph-name="macron" unicode="&#xaf;" horiz-adv-x="500" 
d="M160 581l11 65h293l-11 -65h-293z" />
    <glyph glyph-name="degree" unicode="&#xb0;" horiz-adv-x="418" 
d="M264 485c55 0 96 42 96 98s-41 98 -96 98s-96 -42 -96 -98s41 -98 96 -98zM264 433c-88 0 -153 65 -153 150s65 150 153 150s153 -65 153 -150s-65 -150 -153 -150z" />
    <glyph glyph-name="plusminus" unicode="&#xb1;" horiz-adv-x="572" 
d="M295 105h-72l30 169h-208l12 67h208l30 169h72l-30 -169h208l-12 -67h-208zM495 54l-12 -66h-488l12 66h488z" />
    <glyph glyph-name="twosuperior" unicode="&#xb2;" horiz-adv-x="357" 
d="M329 711c0 39 -22 66 -70 66s-91 -26 -125 -65l-11 57c32 36 83 65 144 65c79 0 124 -48 124 -119c0 -81 -59 -152 -230 -281h192l-9 -54h-289l8 48c201 147 266 217 266 283z" />
    <glyph glyph-name="threesuperior" unicode="&#xb3;" horiz-adv-x="348" 
d="M257 834c73 0 129 -36 129 -106c0 -59 -40 -100 -109 -121c56 -17 81 -54 81 -102c0 -83 -74 -133 -176 -133c-55 0 -102 15 -137 36l27 51c32 -20 68 -34 111 -34c66 0 111 32 111 83c0 48 -39 72 -108 72c-15 0 -26 -1 -43 -2l9 51c109 0 171 33 171 90
c0 39 -30 60 -74 60c-36 0 -74 -14 -111 -39l-7 55c37 25 80 39 126 39z" />
    <glyph glyph-name="acute" unicode="&#xb4;" horiz-adv-x="500" 
d="M313 570h-73l113 150h110z" />
    <glyph glyph-name="mu" unicode="&#xb5;" horiz-adv-x="575" 
d="M543 510l-90 -510h-86l15 82c-49 -51 -118 -94 -197 -94c-30 0 -57 6 -78 23c-13 -114 -22 -165 -30 -221h-83l127 720h86l-62 -353c-2 -11 -4 -19 -4 -31c0 -49 34 -65 76 -65c67 0 125 41 177 92l63 357h86z" />
    <glyph glyph-name="paragraph" unicode="&#xb6;" horiz-adv-x="517" 
d="M432 680h76l-97 -552c-26 -147 -96 -192 -251 -223l-8 70c103 21 164 47 183 153zM359 680l-73 -412c-135 0 -212 76 -212 186c0 119 89 226 285 226z" />
    <glyph glyph-name="periodcentered" unicode="&#xb7;" horiz-adv-x="283" 
d="M199 258c0 -33 -23 -58 -58 -58c-34 0 -58 25 -58 58s24 58 58 58c35 0 58 -25 58 -58z" />
    <glyph glyph-name="cedilla" unicode="&#xb8;" horiz-adv-x="500" 
d="M294 -93c0 -58 -48 -95 -124 -95c-45 0 -77 13 -100 26l23 49c21 -13 46 -23 72 -23c38 0 61 21 61 46c0 20 -14 43 -65 55l20 38c68 -8 113 -40 113 -96z" />
    <glyph glyph-name="onesuperior" unicode="&#xb9;" horiz-adv-x="236" 
d="M121 718l-10 55l111 53h50l-79 -446h-62l66 373z" />
    <glyph glyph-name="ordmasculine" unicode="&#xba;" horiz-adv-x="353" 
d="M211 419c63 0 103 65 103 140c0 62 -28 96 -73 96c-63 0 -103 -65 -103 -140c0 -62 28 -96 73 -96zM208 372c-76 0 -132 50 -132 144c0 105 71 188 168 188c76 0 132 -50 132 -144c0 -105 -71 -188 -168 -188z" />
    <glyph glyph-name="guillemotright" unicode="&#xbb;" horiz-adv-x="500" 
d="M354 486l102 -231l-175 -231h-85l176 238l-94 224h76zM174 486l102 -231l-175 -231h-85l176 238l-94 224h76z" />
    <glyph glyph-name="onequarter" unicode="&#xbc;" horiz-adv-x="735" 
d="M344 92l9 52l247 302h82l-54 -300h67l-9 -54h-67l-16 -92h-61l16 92h-214zM418 146h149l42 233zM39 0l571 720h77l-571 -720h-77zM98 612l-10 55l111 53h50l-79 -446h-62l66 373z" />
    <glyph glyph-name="onehalf" unicode="&#xbd;" horiz-adv-x="794" 
d="M39 0l571 720h77l-571 -720h-77zM111 612l-10 55l111 53h50l-79 -446h-62l66 373zM692 331c0 39 -22 66 -70 66s-91 -26 -125 -65l-11 57c32 36 83 65 144 65c79 0 124 -48 124 -119c0 -81 -59 -152 -230 -281h192l-9 -54h-289l8 48c201 147 266 217 266 283z" />
    <glyph glyph-name="threequarters" unicode="&#xbe;" horiz-adv-x="806" 
d="M415 92l9 52l247 302h82l-54 -300h67l-9 -54h-67l-16 -92h-61l16 92h-214zM489 146h149l42 233zM111 0l571 720h77l-571 -720h-77zM233 728c73 0 129 -36 129 -106c0 -59 -40 -100 -109 -121c56 -17 81 -54 81 -102c0 -83 -74 -133 -176 -133c-55 0 -102 15 -137 36
l27 51c32 -20 68 -34 111 -34c66 0 111 32 111 83c0 48 -39 72 -108 72c-15 0 -26 -1 -43 -2l9 51c109 0 171 33 171 90c0 39 -30 60 -74 60c-36 0 -74 -14 -111 -39l-7 55c37 25 80 39 126 39z" />
    <glyph glyph-name="questiondown" unicode="&#xbf;" horiz-adv-x="424" 
d="M259 308h69c2 -11 3 -21 3 -31c0 -149 -248 -181 -248 -325c0 -70 58 -102 131 -102c26 0 60 4 99 13l-12 -71c-32 -9 -69 -14 -103 -14c-113 0 -200 56 -200 164c0 187 262 215 262 349c0 8 0 10 -1 17zM323 414c-33 0 -56 24 -56 54s23 54 56 54s56 -24 56 -54
s-23 -54 -56 -54z" />
    <glyph glyph-name="Agrave" unicode="&#xc0;" horiz-adv-x="677" 
d="M474 720l125 -720h-86l-33 195h-299l-101 -195h-93l384 720h103zM408 632l-190 -365h250zM497 779h-67l-107 130h96z" />
    <glyph glyph-name="Aacute" unicode="&#xc1;" horiz-adv-x="677" 
d="M474 720l125 -720h-86l-33 195h-299l-101 -195h-93l384 720h103zM408 632l-190 -365h250zM438 779h-73l109 130h110z" />
    <glyph glyph-name="Acircumflex" unicode="&#xc2;" horiz-adv-x="677" 
d="M474 720l125 -720h-86l-33 195h-299l-101 -195h-93l384 720h103zM408 632l-190 -365h250zM345 779h-71l145 130h68l101 -130h-62l-79 66z" />
    <glyph glyph-name="Atilde" unicode="&#xc3;" horiz-adv-x="677" 
d="M474 720l125 -720h-86l-33 195h-299l-101 -195h-93l384 720h103zM408 632l-190 -365h250zM329 779h-54c14 75 47 111 97 111c59 0 99 -51 139 -51c17 0 34 10 40 45h54c-14 -75 -47 -111 -97 -111c-59 0 -99 51 -139 51c-17 0 -34 -10 -40 -45z" />
    <glyph glyph-name="Adieresis" unicode="&#xc4;" horiz-adv-x="677" 
d="M474 720l125 -720h-86l-33 195h-299l-101 -195h-93l384 720h103zM408 632l-190 -365h250zM392 827c0 -28 -20 -49 -49 -49s-49 21 -49 49s20 49 49 49s49 -21 49 -49zM582 827c0 -28 -20 -49 -49 -49s-49 21 -49 49s20 49 49 49s49 -21 49 -49z" />
    <glyph glyph-name="Aring" unicode="&#xc5;" horiz-adv-x="677" 
d="M520 753c0 -31 -15 -57 -39 -73l118 -680h-86l-33 195h-299l-101 -195h-93l369 692c-15 16 -23 37 -23 61c0 50 40 89 93 89c54 0 94 -39 94 -89zM408 632l-190 -365h250zM378 753c0 -25 18 -46 48 -46s48 21 48 46s-18 46 -48 46s-48 -21 -48 -46z" />
    <glyph glyph-name="AE" unicode="&#xc6;" horiz-adv-x="936" 
d="M425 0l34 195h-242l-137 -195h-100l520 720h466l-14 -78h-326l-41 -232h283l-13 -75h-283l-45 -258h329l-14 -77h-417zM267 267h205l69 390z" />
    <glyph glyph-name="Ccedilla" unicode="&#xc7;" horiz-adv-x="606" 
d="M382 -93c0 -58 -48 -95 -124 -95c-45 0 -77 13 -100 26l23 49c21 -13 46 -23 72 -23c38 0 61 21 61 46c0 20 -14 43 -65 55l15 29c-119 24 -200 123 -200 300c0 228 134 438 373 438c80 0 142 -23 194 -59l-39 -74c-49 35 -98 55 -161 55c-185 0 -279 -173 -279 -355
c0 -162 75 -235 184 -235c66 0 126 27 176 63l13 -76c-52 -36 -122 -63 -199 -63c35 -16 56 -43 56 -81z" />
    <glyph glyph-name="Egrave" unicode="&#xc8;" horiz-adv-x="588" 
d="M47 0l127 720h444l-14 -78h-356l-41 -232h313l-13 -75h-313l-45 -258h359l-14 -77h-447zM474 779h-67l-107 130h96z" />
    <glyph glyph-name="Eacute" unicode="&#xc9;" horiz-adv-x="588" 
d="M47 0l127 720h444l-14 -78h-356l-41 -232h313l-13 -75h-313l-45 -258h359l-14 -77h-447zM415 779h-73l109 130h110z" />
    <glyph glyph-name="Ecircumflex" unicode="&#xca;" horiz-adv-x="588" 
d="M47 0l127 720h444l-14 -78h-356l-41 -232h313l-13 -75h-313l-45 -258h359l-14 -77h-447zM322 779h-71l145 130h68l101 -130h-62l-79 66z" />
    <glyph glyph-name="Edieresis" unicode="&#xcb;" horiz-adv-x="588" 
d="M47 0l127 720h444l-14 -78h-356l-41 -232h313l-13 -75h-313l-45 -258h359l-14 -77h-447zM370 827c0 -28 -20 -49 -49 -49s-49 21 -49 49s20 49 49 49s49 -21 49 -49zM560 827c0 -28 -20 -49 -49 -49s-49 21 -49 49s20 49 49 49s49 -21 49 -49z" />
    <glyph glyph-name="Igrave" unicode="&#xcc;" horiz-adv-x="289" 
d="M55 0l127 720h88l-127 -720h-88zM303 779h-67l-107 130h96z" />
    <glyph glyph-name="Iacute" unicode="&#xcd;" horiz-adv-x="289" 
d="M55 0l127 720h88l-127 -720h-88zM244 779h-73l109 130h110z" />
    <glyph glyph-name="Icircumflex" unicode="&#xce;" horiz-adv-x="289" 
d="M55 0l127 720h88l-127 -720h-88zM151 779h-71l145 130h68l101 -130h-62l-79 66z" />
    <glyph glyph-name="Idieresis" unicode="&#xcf;" horiz-adv-x="289" 
d="M55 0l127 720h88l-127 -720h-88zM199 827c0 -28 -20 -49 -49 -49s-49 21 -49 49s20 49 49 49s49 -21 49 -49zM389 827c0 -28 -20 -49 -49 -49s-49 21 -49 49s20 49 49 49s49 -21 49 -49z" />
    <glyph glyph-name="Eth" unicode="&#xd0;" horiz-adv-x="699" 
d="M27 342l12 65h80l55 313h213c171 0 284 -114 284 -308c0 -213 -135 -412 -384 -412h-240l60 342h-80zM148 76h139c199 0 296 164 296 335c0 152 -78 230 -196 230h-139l-42 -234h185l-11 -65h-185z" />
    <glyph glyph-name="Ntilde" unicode="&#xd1;" horiz-adv-x="713" 
d="M47 0l127 720h97l250 -563l99 563h82l-127 -720h-73l-267 601l-106 -601h-82zM347 779h-54c14 75 47 111 97 111c59 0 99 -51 139 -51c17 0 34 10 40 45h54c-14 -75 -47 -111 -97 -111c-59 0 -99 51 -139 51c-17 0 -34 -10 -40 -45z" />
    <glyph glyph-name="Ograve" unicode="&#xd2;" horiz-adv-x="717" 
d="M346 64c156 0 256 153 256 340c0 166 -78 250 -194 250c-156 0 -256 -153 -256 -340c0 -166 78 -250 194 -250zM343 -12c-161 0 -279 117 -279 325c0 230 143 419 347 419c161 0 279 -117 279 -325c0 -230 -143 -419 -347 -419zM507 779h-67l-107 130h96z" />
    <glyph glyph-name="Oacute" unicode="&#xd3;" horiz-adv-x="717" 
d="M346 64c156 0 256 153 256 340c0 166 -78 250 -194 250c-156 0 -256 -153 -256 -340c0 -166 78 -250 194 -250zM343 -12c-161 0 -279 117 -279 325c0 230 143 419 347 419c161 0 279 -117 279 -325c0 -230 -143 -419 -347 -419zM448 779h-73l109 130h110z" />
    <glyph glyph-name="Ocircumflex" unicode="&#xd4;" horiz-adv-x="717" 
d="M346 64c156 0 256 153 256 340c0 166 -78 250 -194 250c-156 0 -256 -153 -256 -340c0 -166 78 -250 194 -250zM343 -12c-161 0 -279 117 -279 325c0 230 143 419 347 419c161 0 279 -117 279 -325c0 -230 -143 -419 -347 -419zM355 779h-71l145 130h68l101 -130h-62
l-79 66z" />
    <glyph glyph-name="Otilde" unicode="&#xd5;" horiz-adv-x="717" 
d="M346 64c156 0 256 153 256 340c0 166 -78 250 -194 250c-156 0 -256 -153 -256 -340c0 -166 78 -250 194 -250zM343 -12c-161 0 -279 117 -279 325c0 230 143 419 347 419c161 0 279 -117 279 -325c0 -230 -143 -419 -347 -419zM338 779h-54c14 75 47 111 97 111
c59 0 99 -51 139 -51c17 0 34 10 40 45h54c-14 -75 -47 -111 -97 -111c-59 0 -99 51 -139 51c-17 0 -34 -10 -40 -45z" />
    <glyph glyph-name="Odieresis" unicode="&#xd6;" horiz-adv-x="717" 
d="M346 64c156 0 256 153 256 340c0 166 -78 250 -194 250c-156 0 -256 -153 -256 -340c0 -166 78 -250 194 -250zM343 -12c-161 0 -279 117 -279 325c0 230 143 419 347 419c161 0 279 -117 279 -325c0 -230 -143 -419 -347 -419zM402 827c0 -28 -20 -49 -49 -49
s-49 21 -49 49s20 49 49 49s49 -21 49 -49zM592 827c0 -28 -20 -49 -49 -49s-49 21 -49 49s20 49 49 49s49 -21 49 -49z" />
    <glyph glyph-name="multiply" unicode="&#xd7;" horiz-adv-x="572" 
d="M99 426l54 45l137 -167l196 167l44 -54l-195 -166l137 -168l-54 -45l-137 167l-196 -167l-44 54l195 166z" />
    <glyph glyph-name="Oslash" unicode="&#xd8;" horiz-adv-x="717" 
d="M346 62c157 0 258 154 258 341c0 49 -7 88 -18 122l-393 -385c34 -52 88 -78 153 -78zM150 313c0 -46 6 -86 17 -119l393 384c-34 52 -88 78 -152 78c-157 0 -258 -154 -258 -343zM37 -12l-38 41l104 102c-25 49 -39 110 -39 182c0 230 143 419 347 419
c85 0 158 -33 208 -95l98 95l38 -41l-104 -102c25 -49 39 -110 39 -182c0 -230 -143 -419 -347 -419c-86 0 -159 33 -209 95z" />
    <glyph glyph-name="Ugrave" unicode="&#xd9;" horiz-adv-x="687" 
d="M87 273l79 447h88l-82 -465c-4 -22 -6 -40 -6 -58c0 -92 51 -131 148 -131c116 0 179 56 203 189l82 465h86l-84 -478c-31 -177 -131 -254 -292 -254c-144 0 -231 62 -231 198c0 29 4 59 9 87zM502 779h-67l-107 130h96z" />
    <glyph glyph-name="Uacute" unicode="&#xda;" horiz-adv-x="687" 
d="M87 273l79 447h88l-82 -465c-4 -22 -6 -40 -6 -58c0 -92 51 -131 148 -131c116 0 179 56 203 189l82 465h86l-84 -478c-31 -177 -131 -254 -292 -254c-144 0 -231 62 -231 198c0 29 4 59 9 87zM443 779h-73l109 130h110z" />
    <glyph glyph-name="Ucircumflex" unicode="&#xdb;" horiz-adv-x="687" 
d="M87 273l79 447h88l-82 -465c-4 -22 -6 -40 -6 -58c0 -92 51 -131 148 -131c116 0 179 56 203 189l82 465h86l-84 -478c-31 -177 -131 -254 -292 -254c-144 0 -231 62 -231 198c0 29 4 59 9 87zM350 779h-71l145 130h68l101 -130h-62l-79 66z" />
    <glyph glyph-name="Udieresis" unicode="&#xdc;" horiz-adv-x="687" 
d="M87 273l79 447h88l-82 -465c-4 -22 -6 -40 -6 -58c0 -92 51 -131 148 -131c116 0 179 56 203 189l82 465h86l-84 -478c-31 -177 -131 -254 -292 -254c-144 0 -231 62 -231 198c0 29 4 59 9 87zM397 827c0 -28 -20 -49 -49 -49s-49 21 -49 49s20 49 49 49s49 -21 49 -49z
M587 827c0 -28 -20 -49 -49 -49s-49 21 -49 49s20 49 49 49s49 -21 49 -49z" />
    <glyph glyph-name="Yacute" unicode="&#xdd;" horiz-adv-x="611" 
d="M217 0l54 305l-166 415h87l132 -330l248 330h98l-311 -415l-54 -305h-88zM406 779h-73l109 130h110z" />
    <glyph glyph-name="Thorn" unicode="&#xde;" horiz-adv-x="621" 
d="M47 0l127 720h87l-18 -100h147c138 0 224 -65 224 -196c0 -140 -100 -226 -278 -226h-167l-34 -198h-88zM230 542l-47 -269h153c129 0 191 56 191 148c0 84 -51 121 -143 121h-154z" />
    <glyph glyph-name="germandbls" unicode="&#xdf;" horiz-adv-x="594" 
d="M279 354l13 70c92 0 171 43 171 135c0 74 -50 103 -108 103c-70 0 -129 -42 -147 -146l-91 -516h-86l93 528c25 141 118 204 231 204c105 0 191 -54 191 -165c0 -92 -59 -151 -143 -177c88 -27 136 -92 136 -187c0 -131 -89 -215 -224 -215c-44 0 -86 9 -118 23l26 64
c29 -12 58 -19 88 -19c85 0 142 56 142 150c0 102 -69 148 -174 148z" />
    <glyph glyph-name="agrave" unicode="&#xe0;" horiz-adv-x="565" 
d="M454 0h-84c-3 6 -5 14 -5 32c0 13 1 20 4 33c-42 -48 -96 -78 -161 -78c-96 0 -169 67 -169 214c0 175 104 321 252 321c56 0 103 -21 149 -73l11 61h82l-69 -391c-8 -47 -12 -71 -12 -97c0 -9 0 -17 2 -22zM235 59c49 0 99 25 146 78l43 248c-37 41 -73 62 -122 62
c-112 0 -177 -109 -177 -237c0 -107 45 -151 110 -151zM409 570h-67l-102 150h95z" />
    <glyph glyph-name="aacute" unicode="&#xe1;" horiz-adv-x="565" 
d="M454 0h-84c-3 6 -5 14 -5 32c0 13 1 20 4 33c-42 -48 -96 -78 -161 -78c-96 0 -169 67 -169 214c0 175 104 321 252 321c56 0 103 -21 149 -73l11 61h82l-69 -391c-8 -47 -12 -71 -12 -97c0 -9 0 -17 2 -22zM235 59c49 0 99 25 146 78l43 248c-37 41 -73 62 -122 62
c-112 0 -177 -109 -177 -237c0 -107 45 -151 110 -151zM331 570h-73l113 150h110z" />
    <glyph glyph-name="acircumflex" unicode="&#xe2;" horiz-adv-x="565" 
d="M454 0h-84c-3 6 -5 14 -5 32c0 13 1 20 4 33c-42 -48 -96 -78 -161 -78c-96 0 -169 67 -169 214c0 175 104 321 252 321c56 0 103 -21 149 -73l11 61h82l-69 -391c-8 -47 -12 -71 -12 -97c0 -9 0 -17 2 -22zM235 59c49 0 99 25 146 78l43 248c-37 41 -73 62 -122 62
c-112 0 -177 -109 -177 -237c0 -107 45 -151 110 -151zM258 570h-71l149 150h68l97 -150h-61l-76 85z" />
    <glyph glyph-name="atilde" unicode="&#xe3;" horiz-adv-x="565" 
d="M454 0h-84c-3 6 -5 14 -5 32c0 13 1 20 4 33c-42 -48 -96 -78 -161 -78c-96 0 -169 67 -169 214c0 175 104 321 252 321c56 0 103 -21 149 -73l11 61h82l-69 -391c-8 -47 -12 -71 -12 -97c0 -9 0 -17 2 -22zM235 59c49 0 99 25 146 78l43 248c-37 41 -73 62 -122 62
c-112 0 -177 -109 -177 -237c0 -107 45 -151 110 -151zM243 576h-54c12 74 45 113 97 113c61 0 99 -55 139 -55c18 0 34 12 41 49h54c-12 -74 -45 -113 -97 -113c-61 0 -99 55 -139 55c-18 0 -34 -12 -41 -49z" />
    <glyph glyph-name="adieresis" unicode="&#xe4;" horiz-adv-x="565" 
d="M454 0h-84c-3 6 -5 14 -5 32c0 13 1 20 4 33c-42 -48 -96 -78 -161 -78c-96 0 -169 67 -169 214c0 175 104 321 252 321c56 0 103 -21 149 -73l11 61h82l-69 -391c-8 -47 -12 -71 -12 -97c0 -9 0 -17 2 -22zM235 59c49 0 99 25 146 78l43 248c-37 41 -73 62 -122 62
c-112 0 -177 -109 -177 -237c0 -107 45 -151 110 -151zM307 623c0 -28 -20 -49 -49 -49s-49 21 -49 49s20 49 49 49s49 -21 49 -49zM497 623c0 -28 -20 -49 -49 -49s-49 21 -49 49s20 49 49 49s49 -21 49 -49z" />
    <glyph glyph-name="aring" unicode="&#xe5;" horiz-adv-x="565" 
d="M454 0h-84c-3 6 -5 14 -5 32c0 13 1 20 4 33c-42 -48 -96 -78 -161 -78c-96 0 -169 67 -169 214c0 175 104 321 252 321c56 0 103 -21 149 -73l11 61h82l-69 -391c-8 -47 -12 -71 -12 -97c0 -9 0 -17 2 -22zM235 59c49 0 99 25 146 78l43 248c-37 41 -73 62 -122 62
c-112 0 -177 -109 -177 -237c0 -107 45 -151 110 -151zM310 655c0 -25 18 -46 47 -46s47 21 47 46s-18 46 -47 46s-47 -21 -47 -46zM448 655c0 -50 -39 -89 -91 -89s-91 39 -91 89s39 89 91 89s91 -39 91 -89z" />
    <glyph glyph-name="ae" unicode="&#xe6;" horiz-adv-x="855" 
d="M652 522c117 0 173 -67 173 -141c0 -89 -80 -159 -295 -159c-26 0 -52 1 -78 4v-13c0 -101 47 -157 137 -157c51 0 110 18 163 49l11 -69c-55 -30 -122 -48 -186 -48c-87 0 -150 33 -184 96c-52 -53 -127 -96 -211 -96c-91 0 -159 50 -159 141c0 107 93 185 266 185
c20 0 50 -1 88 -5l6 34c2 12 4 30 4 41c0 47 -33 67 -91 67c-63 0 -121 -23 -173 -52l-11 70c51 29 123 53 201 53c73 0 127 -21 148 -76c49 47 115 76 191 76zM203 56c63 0 121 36 171 84c-5 20 -7 43 -7 66c0 17 1 30 2 44c-30 4 -58 5 -76 5c-129 0 -186 -52 -186 -116
c0 -53 39 -83 96 -83zM647 456c-93 0 -163 -72 -187 -170c24 -2 46 -3 72 -3c161 0 212 40 212 95c0 43 -32 78 -97 78z" />
    <glyph glyph-name="ccedilla" unicode="&#xe7;" horiz-adv-x="463" 
d="M309 -93c0 -58 -48 -95 -124 -95c-45 0 -77 13 -100 26l23 49c21 -13 46 -23 72 -23c38 0 61 21 61 46c0 20 -14 43 -65 55l14 28c-91 17 -150 87 -150 215c0 170 105 314 282 314c60 0 104 -16 141 -42l-33 -67c-35 25 -67 38 -109 38c-124 0 -195 -111 -195 -238
c0 -103 47 -155 124 -155c43 0 92 16 128 43l10 -69c-36 -25 -84 -40 -135 -43c35 -16 56 -43 56 -82z" />
    <glyph glyph-name="egrave" unicode="&#xe8;" horiz-adv-x="528" 
d="M325 522c117 0 173 -67 173 -141c0 -89 -80 -159 -295 -159c-26 0 -52 1 -78 4v-13c0 -101 47 -157 137 -157c51 0 110 18 163 49l11 -69c-55 -30 -122 -48 -186 -48c-132 0 -210 77 -210 220c0 175 117 314 285 314zM320 456c-93 0 -163 -72 -187 -170
c24 -2 46 -3 72 -3c161 0 212 40 212 95c0 43 -32 78 -97 78zM396 570h-67l-102 150h95z" />
    <glyph glyph-name="eacute" unicode="&#xe9;" horiz-adv-x="528" 
d="M325 522c117 0 173 -67 173 -141c0 -89 -80 -159 -295 -159c-26 0 -52 1 -78 4v-13c0 -101 47 -157 137 -157c51 0 110 18 163 49l11 -69c-55 -30 -122 -48 -186 -48c-132 0 -210 77 -210 220c0 175 117 314 285 314zM320 456c-93 0 -163 -72 -187 -170
c24 -2 46 -3 72 -3c161 0 212 40 212 95c0 43 -32 78 -97 78zM333 570h-73l113 150h110z" />
    <glyph glyph-name="ecircumflex" unicode="&#xea;" horiz-adv-x="528" 
d="M325 522c117 0 173 -67 173 -141c0 -89 -80 -159 -295 -159c-26 0 -52 1 -78 4v-13c0 -101 47 -157 137 -157c51 0 110 18 163 49l11 -69c-55 -30 -122 -48 -186 -48c-132 0 -210 77 -210 220c0 175 117 314 285 314zM320 456c-93 0 -163 -72 -187 -170
c24 -2 46 -3 72 -3c161 0 212 40 212 95c0 43 -32 78 -97 78zM242 570h-71l149 150h68l97 -150h-61l-76 85z" />
    <glyph glyph-name="edieresis" unicode="&#xeb;" horiz-adv-x="528" 
d="M325 522c117 0 173 -67 173 -141c0 -89 -80 -159 -295 -159c-26 0 -52 1 -78 4v-13c0 -101 47 -157 137 -157c51 0 110 18 163 49l11 -69c-55 -30 -122 -48 -186 -48c-132 0 -210 77 -210 220c0 175 117 314 285 314zM320 456c-93 0 -163 -72 -187 -170
c24 -2 46 -3 72 -3c161 0 212 40 212 95c0 43 -32 78 -97 78zM292 623c0 -28 -20 -49 -49 -49s-49 21 -49 49s20 49 49 49s49 -21 49 -49zM482 623c0 -28 -20 -49 -49 -49s-49 21 -49 49s20 49 49 49s49 -21 49 -49z" />
    <glyph glyph-name="igrave" unicode="&#xec;" horiz-adv-x="250" 
d="M37 0l90 510h86l-90 -510h-86zM246 570h-67l-102 150h95z" />
    <glyph glyph-name="iacute" unicode="&#xed;" horiz-adv-x="250" 
d="M37 0l90 510h86l-90 -510h-86zM188 570h-73l113 150h110z" />
    <glyph glyph-name="icircumflex" unicode="&#xee;" horiz-adv-x="250" 
d="M95 570h-71l149 150h68l97 -150h-61l-76 85zM37 0l90 510h86l-90 -510h-86z" />
    <glyph glyph-name="idieresis" unicode="&#xef;" horiz-adv-x="250" 
d="M144 623c0 -28 -20 -49 -49 -49s-49 21 -49 49s20 49 49 49s49 -21 49 -49zM334 623c0 -28 -20 -49 -49 -49s-49 21 -49 49s20 49 49 49s49 -21 49 -49zM37 0l90 510h86l-90 -510h-86z" />
    <glyph glyph-name="eth" unicode="&#xf0;" horiz-adv-x="555" 
d="M287 541l-18 52l79 27c-16 27 -33 51 -51 74l58 41c23 -24 46 -55 66 -90l85 30l18 -52l-77 -27c40 -83 66 -184 66 -283c0 -211 -118 -325 -266 -325c-117 0 -210 72 -210 222c0 163 111 280 250 280c66 0 109 -26 137 -62c-12 56 -29 103 -49 143zM427 268
c0 106 -55 153 -129 153c-102 0 -175 -90 -175 -212c0 -106 56 -154 130 -154c101 0 174 90 174 213z" />
    <glyph glyph-name="ntilde" unicode="&#xf1;" horiz-adv-x="568" 
d="M31 0l90 510h86l-15 -82c49 51 117 94 199 94c64 0 129 -26 129 -120c0 -12 -1 -30 -4 -45l-63 -357h-86l62 351c2 11 4 19 4 31c0 49 -34 65 -76 65c-67 0 -125 -41 -177 -92l-63 -355h-86zM242 576h-54c12 74 45 113 97 113c61 0 99 -55 139 -55c18 0 34 12 41 49h54
c-12 -74 -45 -113 -97 -113c-61 0 -99 55 -139 55c-18 0 -34 -12 -41 -49z" />
    <glyph glyph-name="ograve" unicode="&#xf2;" horiz-adv-x="555" 
d="M253 55c110 0 177 111 177 235c0 110 -53 163 -128 163c-110 0 -177 -111 -177 -235c0 -110 53 -163 128 -163zM249 -12c-117 0 -210 76 -210 229c0 167 110 305 267 305c117 0 210 -76 210 -229c0 -167 -110 -305 -267 -305zM388 570h-67l-102 150h95z" />
    <glyph glyph-name="oacute" unicode="&#xf3;" horiz-adv-x="555" 
d="M253 55c110 0 177 111 177 235c0 110 -53 163 -128 163c-110 0 -177 -111 -177 -235c0 -110 53 -163 128 -163zM249 -12c-117 0 -210 76 -210 229c0 167 110 305 267 305c117 0 210 -76 210 -229c0 -167 -110 -305 -267 -305zM330 570h-73l113 150h110z" />
    <glyph glyph-name="ocircumflex" unicode="&#xf4;" horiz-adv-x="555" 
d="M253 55c110 0 177 111 177 235c0 110 -53 163 -128 163c-110 0 -177 -111 -177 -235c0 -110 53 -163 128 -163zM249 -12c-117 0 -210 76 -210 229c0 167 110 305 267 305c117 0 210 -76 210 -229c0 -167 -110 -305 -267 -305zM237 570h-71l149 150h68l97 -150h-61l-76 85
z" />
    <glyph glyph-name="otilde" unicode="&#xf5;" horiz-adv-x="555" 
d="M253 55c110 0 177 111 177 235c0 110 -53 163 -128 163c-110 0 -177 -111 -177 -235c0 -110 53 -163 128 -163zM249 -12c-117 0 -210 76 -210 229c0 167 110 305 267 305c117 0 210 -76 210 -229c0 -167 -110 -305 -267 -305zM222 576h-54c12 74 45 113 97 113
c61 0 99 -55 139 -55c18 0 34 12 41 49h54c-12 -74 -45 -113 -97 -113c-61 0 -99 55 -139 55c-18 0 -34 -12 -41 -49z" />
    <glyph glyph-name="odieresis" unicode="&#xf6;" horiz-adv-x="555" 
d="M253 55c110 0 177 111 177 235c0 110 -53 163 -128 163c-110 0 -177 -111 -177 -235c0 -110 53 -163 128 -163zM249 -12c-117 0 -210 76 -210 229c0 167 110 305 267 305c117 0 210 -76 210 -229c0 -167 -110 -305 -267 -305zM286 623c0 -28 -20 -49 -49 -49
s-49 21 -49 49s20 49 49 49s49 -21 49 -49zM476 623c0 -28 -20 -49 -49 -49s-49 21 -49 49s20 49 49 49s49 -21 49 -49z" />
    <glyph glyph-name="divide" unicode="&#xf7;" horiz-adv-x="572" 
d="M537 291l-13 -72h-488l13 72h488zM303 57c0 -30 -20 -52 -52 -52s-53 22 -53 52s21 51 53 51s52 -21 52 -51zM270 453c0 30 20 52 52 52s53 -22 53 -52s-21 -51 -53 -51s-52 21 -52 51z" />
    <glyph glyph-name="oslash" unicode="&#xf8;" horiz-adv-x="555" 
d="M253 52c112 0 180 112 180 238c0 27 -3 50 -9 70l-272 -259c24 -33 59 -49 101 -49zM122 218c0 -26 3 -49 8 -69l271 259c-23 32 -58 48 -100 48c-111 0 -179 -113 -179 -238zM249 -12c-60 0 -114 20 -152 60l-77 -74l-35 36l82 79c-18 34 -28 77 -28 128
c0 167 110 305 267 305c60 0 113 -20 151 -60l78 74l35 -36l-83 -79c19 -34 29 -77 29 -128c0 -167 -110 -305 -267 -305z" />
    <glyph glyph-name="ugrave" unicode="&#xf9;" horiz-adv-x="568" 
d="M537 510l-90 -510h-86l15 82c-49 -51 -117 -94 -199 -94c-63 0 -129 25 -129 119c0 12 1 31 4 46l63 357h86l-62 -353c-2 -11 -4 -19 -4 -31c0 -49 34 -65 76 -65c67 0 125 41 177 92l63 357h86zM401 570h-67l-102 150h95z" />
    <glyph glyph-name="uacute" unicode="&#xfa;" horiz-adv-x="568" 
d="M537 510l-90 -510h-86l15 82c-49 -51 -117 -94 -199 -94c-63 0 -129 25 -129 119c0 12 1 31 4 46l63 357h86l-62 -353c-2 -11 -4 -19 -4 -31c0 -49 34 -65 76 -65c67 0 125 41 177 92l63 357h86zM343 570h-73l113 150h110z" />
    <glyph glyph-name="ucircumflex" unicode="&#xfb;" horiz-adv-x="568" 
d="M537 510l-90 -510h-86l15 82c-49 -51 -117 -94 -199 -94c-63 0 -129 25 -129 119c0 12 1 31 4 46l63 357h86l-62 -353c-2 -11 -4 -19 -4 -31c0 -49 34 -65 76 -65c67 0 125 41 177 92l63 357h86zM250 570h-71l149 150h68l97 -150h-61l-76 85z" />
    <glyph glyph-name="udieresis" unicode="&#xfc;" horiz-adv-x="568" 
d="M537 510l-90 -510h-86l15 82c-49 -51 -117 -94 -199 -94c-63 0 -129 25 -129 119c0 12 1 31 4 46l63 357h86l-62 -353c-2 -11 -4 -19 -4 -31c0 -49 34 -65 76 -65c67 0 125 41 177 92l63 357h86zM300 623c0 -28 -20 -49 -49 -49s-49 21 -49 49s20 49 49 49s49 -21 49 -49
zM490 623c0 -28 -20 -49 -49 -49s-49 21 -49 49s20 49 49 49s49 -21 49 -49z" />
    <glyph glyph-name="yacute" unicode="&#xfd;" horiz-adv-x="505" 
d="M-45 -211l13 73c14 -3 27 -6 47 -6c57 0 92 25 164 156h-27l-86 498h88l65 -433l221 433h89l-269 -511c-94 -178 -139 -215 -246 -215c-17 0 -38 1 -59 5zM316 570h-73l113 150h110z" />
    <glyph glyph-name="thorn" unicode="&#xfe;" horiz-adv-x="573" 
d="M158 720h86l-49 -275c43 48 98 77 161 77c99 0 177 -70 177 -219c0 -172 -103 -315 -258 -315c-55 0 -101 18 -148 69l-47 -267h-86zM331 447c-49 0 -100 -24 -149 -77l-44 -249c38 -40 79 -62 130 -62c114 0 179 110 179 235c0 110 -50 153 -116 153z" />
    <glyph glyph-name="ydieresis" unicode="&#xff;" horiz-adv-x="505" 
d="M-45 -211l13 73c14 -3 27 -6 47 -6c57 0 92 25 164 156h-27l-86 498h88l65 -433l221 433h89l-269 -511c-94 -178 -139 -215 -246 -215c-17 0 -38 1 -59 5zM272 623c0 -28 -20 -49 -49 -49s-49 21 -49 49s20 49 49 49s49 -21 49 -49zM462 623c0 -28 -20 -49 -49 -49
s-49 21 -49 49s20 49 49 49s49 -21 49 -49z" />
    <glyph glyph-name="Amacron" unicode="&#x100;" horiz-adv-x="677" 
d="M474 720l125 -720h-86l-33 195h-299l-101 -195h-93l384 720h103zM408 632l-190 -365h250zM282 785l11 65h293l-11 -65h-293z" />
    <glyph glyph-name="amacron" unicode="&#x101;" horiz-adv-x="565" 
d="M454 0h-84c-3 6 -5 14 -5 32c0 13 1 20 4 33c-42 -48 -96 -78 -161 -78c-96 0 -169 67 -169 214c0 175 104 321 252 321c56 0 103 -21 149 -73l11 61h82l-69 -391c-8 -47 -12 -71 -12 -97c0 -9 0 -17 2 -22zM235 59c49 0 99 25 146 78l43 248c-37 41 -73 62 -122 62
c-112 0 -177 -109 -177 -237c0 -107 45 -151 110 -151zM198 581l11 65h293l-11 -65h-293z" />
    <glyph glyph-name="Abreve" unicode="&#x102;" horiz-adv-x="677" 
d="M474 720l125 -720h-86l-33 195h-299l-101 -195h-93l384 720h103zM408 632l-190 -365h250zM439 779c-91 0 -138 37 -138 101c0 10 1 23 2 29h54c0 -44 17 -66 85 -66s92 22 107 66h54c-14 -82 -60 -130 -164 -130z" />
    <glyph glyph-name="abreve" unicode="&#x103;" horiz-adv-x="565" 
d="M454 0h-84c-3 6 -5 14 -5 32c0 13 1 20 4 33c-42 -48 -96 -78 -161 -78c-96 0 -169 67 -169 214c0 175 104 321 252 321c56 0 103 -21 149 -73l11 61h82l-69 -391c-8 -47 -12 -71 -12 -97c0 -9 0 -17 2 -22zM235 59c49 0 99 25 146 78l43 248c-37 41 -73 62 -122 62
c-112 0 -177 -109 -177 -237c0 -107 45 -151 110 -151zM354 576c-92 0 -137 43 -137 112c0 10 1 21 3 32h53c-1 -53 15 -79 83 -79s94 26 110 79h53c-15 -88 -61 -144 -165 -144z" />
    <glyph glyph-name="Aogonek" unicode="&#x104;" horiz-adv-x="677" 
d="M476 -103c0 -25 14 -33 40 -33c9 0 20 1 34 4l5 -51c-15 -4 -35 -6 -51 -6c-56 0 -96 25 -96 74c0 44 31 84 105 115l-33 195h-299l-101 -195h-93l384 720h103l125 -720h-12c-83 -37 -111 -69 -111 -103zM408 632l-190 -365h250z" />
    <glyph glyph-name="aogonek" unicode="&#x105;" horiz-adv-x="565" 
d="M333 -103c0 -25 14 -33 40 -33c9 0 20 1 34 4l5 -51c-15 -4 -35 -6 -51 -6c-56 0 -96 25 -96 74c0 44 31 84 105 115c-3 6 -5 14 -5 32c0 13 1 20 4 33c-42 -48 -96 -78 -161 -78c-96 0 -169 67 -169 214c0 175 104 321 252 321c56 0 103 -21 149 -73l11 61h82l-69 -391
c-8 -47 -12 -71 -12 -97c0 -9 0 -17 2 -22h-10c-83 -37 -111 -69 -111 -103zM235 59c49 0 99 25 146 78l43 248c-37 41 -73 62 -122 62c-112 0 -177 -109 -177 -237c0 -107 45 -151 110 -151z" />
    <glyph glyph-name="Cacute" unicode="&#x106;" horiz-adv-x="606" 
d="M512 127l13 -76c-52 -36 -122 -63 -199 -63c-152 0 -262 100 -262 306c0 228 134 438 373 438c80 0 142 -23 194 -59l-39 -74c-49 35 -98 55 -161 55c-185 0 -279 -173 -279 -355c0 -162 75 -235 184 -235c66 0 126 27 176 63zM447 779h-73l109 130h110z" />
    <glyph glyph-name="cacute" unicode="&#x107;" horiz-adv-x="463" 
d="M463 480l-33 -67c-35 25 -67 38 -109 38c-124 0 -195 -111 -195 -238c0 -103 47 -155 124 -155c43 0 92 16 128 43l10 -69c-39 -27 -94 -44 -151 -44c-117 0 -197 72 -197 220c0 170 105 314 282 314c60 0 104 -16 141 -42zM329 570h-73l113 150h110z" />
    <glyph glyph-name="Ccircumflex" unicode="&#x108;" horiz-adv-x="606" 
d="M512 127l13 -76c-52 -36 -122 -63 -199 -63c-152 0 -262 100 -262 306c0 228 134 438 373 438c80 0 142 -23 194 -59l-39 -74c-49 35 -98 55 -161 55c-185 0 -279 -173 -279 -355c0 -162 75 -235 184 -235c66 0 126 27 176 63zM354 779h-71l145 130h68l101 -130h-62
l-79 66z" />
    <glyph glyph-name="ccircumflex" unicode="&#x109;" horiz-adv-x="463" 
d="M463 480l-33 -67c-35 25 -67 38 -109 38c-124 0 -195 -111 -195 -238c0 -103 47 -155 124 -155c43 0 92 16 128 43l10 -69c-39 -27 -94 -44 -151 -44c-117 0 -197 72 -197 220c0 170 105 314 282 314c60 0 104 -16 141 -42zM236 570h-71l149 150h68l97 -150h-61l-76 85z
" />
    <glyph glyph-name="Cdotaccent" unicode="&#x10a;" horiz-adv-x="606" 
d="M512 127l13 -76c-52 -36 -122 -63 -199 -63c-152 0 -262 100 -262 306c0 228 134 438 373 438c80 0 142 -23 194 -59l-39 -74c-49 35 -98 55 -161 55c-185 0 -279 -173 -279 -355c0 -162 75 -235 184 -235c66 0 126 27 176 63zM447 776c-32 0 -54 23 -54 53s22 53 54 53
s54 -23 54 -53s-22 -53 -54 -53z" />
    <glyph glyph-name="cdotaccent" unicode="&#x10b;" horiz-adv-x="463" 
d="M463 480l-33 -67c-35 25 -67 38 -109 38c-124 0 -195 -111 -195 -238c0 -103 47 -155 124 -155c43 0 92 16 128 43l10 -69c-39 -27 -94 -44 -151 -44c-117 0 -197 72 -197 220c0 170 105 314 282 314c60 0 104 -16 141 -42zM334 570c-32 0 -54 23 -54 53s22 53 54 53
s54 -23 54 -53s-22 -53 -54 -53z" />
    <glyph glyph-name="Ccaron" unicode="&#x10c;" horiz-adv-x="606" 
d="M512 127l13 -76c-52 -36 -122 -63 -199 -63c-152 0 -262 100 -262 306c0 228 134 438 373 438c80 0 142 -23 194 -59l-39 -74c-49 35 -98 55 -161 55c-185 0 -279 -173 -279 -355c0 -162 75 -235 184 -235c66 0 126 27 176 63zM548 909h71l-145 -130h-68l-101 130h62
l79 -66z" />
    <glyph glyph-name="ccaron" unicode="&#x10d;" horiz-adv-x="463" 
d="M463 480l-33 -67c-35 25 -67 38 -109 38c-124 0 -195 -111 -195 -238c0 -103 47 -155 124 -155c43 0 92 16 128 43l10 -69c-39 -27 -94 -44 -151 -44c-117 0 -197 72 -197 220c0 170 105 314 282 314c60 0 104 -16 141 -42zM434 720h71l-149 -150h-68l-97 150h61l76 -85z
" />
    <glyph glyph-name="Dcaron" unicode="&#x10e;" horiz-adv-x="699" 
d="M174 720h213c171 0 284 -114 284 -308c0 -213 -135 -412 -384 -412h-240zM148 76h139c199 0 296 164 296 335c0 152 -78 230 -196 230h-139zM538 909h71l-145 -130h-68l-101 130h62l79 -66z" />
    <glyph glyph-name="dcaron" unicode="&#x10f;" horiz-adv-x="583" 
d="M644 565h-59l53 155h85zM294 522c57 0 104 -21 150 -71l48 269h86l-106 -601c-9 -52 -12 -83 -12 -99c0 -9 1 -15 2 -20h-84c-3 6 -5 14 -5 32c0 13 1 19 4 32c-44 -47 -97 -75 -162 -75c-99 0 -176 64 -176 213c0 175 105 320 255 320zM241 59c49 0 99 23 148 77l44 247
c-38 41 -77 64 -129 64c-114 0 -179 -111 -179 -236c0 -109 50 -152 116 -152z" />
    <glyph glyph-name="Dcroat" unicode="&#x110;" horiz-adv-x="699" 
d="M27 342l12 65h80l55 313h213c171 0 284 -114 284 -308c0 -213 -135 -412 -384 -412h-240l60 342h-80zM148 76h139c199 0 296 164 296 335c0 152 -78 230 -196 230h-139l-42 -234h185l-11 -65h-185z" />
    <glyph glyph-name="dcroat" unicode="&#x111;" horiz-adv-x="573" 
d="M322 581l11 65h145l14 74h86l-13 -74h78l-11 -65h-79l-81 -462c-9 -52 -12 -83 -12 -99c0 -9 1 -15 2 -20h-84c-3 6 -5 14 -5 32c0 13 1 19 4 32c-44 -47 -97 -75 -161 -75c-100 0 -177 64 -177 213c0 175 105 320 254 320c58 0 105 -21 151 -71l23 130h-145zM241 59
c49 0 99 23 148 77l44 247c-38 41 -77 64 -129 64c-114 0 -179 -111 -179 -236c0 -109 50 -152 116 -152z" />
    <glyph glyph-name="Emacron" unicode="&#x112;" horiz-adv-x="588" 
d="M47 0l127 720h444l-14 -78h-356l-41 -232h313l-13 -75h-313l-45 -258h359l-14 -77h-447zM263 785l11 65h293l-11 -65h-293z" />
    <glyph glyph-name="emacron" unicode="&#x113;" horiz-adv-x="528" 
d="M325 522c117 0 173 -67 173 -141c0 -89 -80 -159 -295 -159c-26 0 -52 1 -78 4v-13c0 -101 47 -157 137 -157c51 0 110 18 163 49l11 -69c-55 -30 -122 -48 -186 -48c-132 0 -210 77 -210 220c0 175 117 314 285 314zM320 456c-93 0 -163 -72 -187 -170
c24 -2 46 -3 72 -3c161 0 212 40 212 95c0 43 -32 78 -97 78zM183 581l11 65h293l-11 -65h-293z" />
    <glyph glyph-name="Ebreve" unicode="&#x114;" horiz-adv-x="588" 
d="M47 0l127 720h444l-14 -78h-356l-41 -232h313l-13 -75h-313l-45 -258h359l-14 -77h-447zM417 779c-91 0 -138 37 -138 101c0 10 1 23 2 29h54c0 -44 17 -66 85 -66s92 22 107 66h54c-14 -82 -60 -130 -164 -130z" />
    <glyph glyph-name="ebreve" unicode="&#x115;" horiz-adv-x="528" 
d="M325 522c117 0 173 -67 173 -141c0 -89 -80 -159 -295 -159c-26 0 -52 1 -78 4v-13c0 -101 47 -157 137 -157c51 0 110 18 163 49l11 -69c-55 -30 -122 -48 -186 -48c-132 0 -210 77 -210 220c0 175 117 314 285 314zM320 456c-93 0 -163 -72 -187 -170
c24 -2 46 -3 72 -3c161 0 212 40 212 95c0 43 -32 78 -97 78zM339 576c-92 0 -137 43 -137 112c0 10 1 21 3 32h53c-1 -53 15 -79 83 -79s94 26 110 79h53c-15 -88 -61 -144 -165 -144z" />
    <glyph glyph-name="Edotaccent" unicode="&#x116;" horiz-adv-x="588" 
d="M47 0l127 720h444l-14 -78h-356l-41 -232h313l-13 -75h-313l-45 -258h359l-14 -77h-447zM415 776c-32 0 -54 23 -54 53s22 53 54 53s54 -23 54 -53s-22 -53 -54 -53z" />
    <glyph glyph-name="edotaccent" unicode="&#x117;" horiz-adv-x="528" 
d="M325 522c117 0 173 -67 173 -141c0 -89 -80 -159 -295 -159c-26 0 -52 1 -78 4v-13c0 -101 47 -157 137 -157c51 0 110 18 163 49l11 -69c-55 -30 -122 -48 -186 -48c-132 0 -210 77 -210 220c0 175 117 314 285 314zM320 456c-93 0 -163 -72 -187 -170
c24 -2 46 -3 72 -3c161 0 212 40 212 95c0 43 -32 78 -97 78zM337 575c-32 0 -54 23 -54 53s22 53 54 53s54 -23 54 -53s-22 -53 -54 -53z" />
    <glyph glyph-name="Eogonek" unicode="&#x118;" horiz-adv-x="588" 
d="M47 0l127 720h444l-14 -78h-356l-41 -232h313l-13 -75h-313l-45 -258h359l-14 -76c-83 -37 -113 -70 -113 -105c0 -24 14 -32 40 -32c9 0 20 1 34 4l5 -51c-15 -4 -35 -6 -51 -6c-56 0 -96 25 -96 74c0 44 31 84 105 115h-371z" />
    <glyph glyph-name="eogonek" unicode="&#x119;" horiz-adv-x="528" 
d="M325 522c117 0 173 -67 173 -141c0 -89 -80 -159 -295 -159c-26 0 -52 1 -78 4v-13c0 -101 47 -157 137 -157c51 0 110 18 163 49l11 -69c-114 -61 -162 -95 -162 -139c0 -25 16 -33 47 -33c16 0 32 2 53 10l5 -51c-21 -8 -48 -12 -72 -12c-59 0 -101 24 -101 73
c0 36 21 71 74 106c-10 -1 -19 -2 -34 -2c-127 0 -206 77 -206 220c0 175 117 314 285 314zM320 456c-93 0 -163 -72 -187 -170c24 -2 46 -3 72 -3c161 0 212 40 212 95c0 43 -32 78 -97 78z" />
    <glyph glyph-name="Ecaron" unicode="&#x11a;" horiz-adv-x="588" 
d="M47 0l127 720h444l-14 -78h-356l-41 -232h313l-13 -75h-313l-45 -258h359l-14 -77h-447zM516 909h71l-145 -130h-68l-101 130h62l79 -66z" />
    <glyph glyph-name="ecaron" unicode="&#x11b;" horiz-adv-x="528" 
d="M325 522c117 0 173 -67 173 -141c0 -89 -80 -159 -295 -159c-26 0 -52 1 -78 4v-13c0 -101 47 -157 137 -157c51 0 110 18 163 49l11 -69c-55 -30 -122 -48 -186 -48c-132 0 -210 77 -210 220c0 175 117 314 285 314zM320 456c-93 0 -163 -72 -187 -170
c24 -2 46 -3 72 -3c161 0 212 40 212 95c0 43 -32 78 -97 78zM440 720h71l-149 -150h-68l-97 150h61l76 -85z" />
    <glyph glyph-name="Gcircumflex" unicode="&#x11c;" horiz-adv-x="677" 
d="M353 61c48 0 94 11 137 30l37 214h-156l13 72h238l-56 -326c-65 -39 -139 -63 -223 -63c-171 0 -280 99 -280 308c0 234 137 436 387 436c93 0 163 -28 222 -71l-40 -75c-55 40 -111 68 -190 68c-191 0 -291 -162 -291 -352c0 -169 79 -241 202 -241zM375 779h-71
l145 130h68l101 -130h-62l-79 66z" />
    <glyph glyph-name="gcircumflex" unicode="&#x11d;" horiz-adv-x="572" 
d="M541 510l-89 -502c-27 -153 -134 -224 -265 -224c-62 0 -132 16 -187 44l33 68c54 -27 109 -39 153 -39c77 0 162 37 183 165l9 55c-44 -49 -98 -77 -162 -77c-99 0 -177 66 -177 212c0 168 105 310 257 310c57 0 104 -20 152 -73l11 61h82zM241 71c56 0 108 31 151 78
l41 236c-37 39 -78 63 -131 63c-111 0 -177 -106 -177 -228c0 -106 50 -149 116 -149zM256 570h-71l149 150h68l97 -150h-61l-76 85z" />
    <glyph glyph-name="Gbreve" unicode="&#x11e;" horiz-adv-x="677" 
d="M353 61c48 0 94 11 137 30l37 214h-156l13 72h238l-56 -326c-65 -39 -139 -63 -223 -63c-171 0 -280 99 -280 308c0 234 137 436 387 436c93 0 163 -28 222 -71l-40 -75c-55 40 -111 68 -190 68c-191 0 -291 -162 -291 -352c0 -169 79 -241 202 -241zM469 779
c-91 0 -138 37 -138 101c0 10 1 23 2 29h54c0 -44 17 -66 85 -66s92 22 107 66h54c-14 -82 -60 -130 -164 -130z" />
    <glyph glyph-name="gbreve" unicode="&#x11f;" horiz-adv-x="572" 
d="M541 510l-89 -502c-27 -153 -134 -224 -265 -224c-62 0 -132 16 -187 44l33 68c54 -27 109 -39 153 -39c77 0 162 37 183 165l9 55c-44 -49 -98 -77 -162 -77c-99 0 -177 66 -177 212c0 168 105 310 257 310c57 0 104 -20 152 -73l11 61h82zM241 71c56 0 108 31 151 78
l41 236c-37 39 -78 63 -131 63c-111 0 -177 -106 -177 -228c0 -106 50 -149 116 -149zM353 576c-92 0 -137 43 -137 112c0 10 1 21 3 32h53c-1 -53 15 -79 83 -79s94 26 110 79h53c-15 -88 -61 -144 -165 -144z" />
    <glyph glyph-name="Gdotaccent" unicode="&#x120;" horiz-adv-x="677" 
d="M353 61c48 0 94 11 137 30l37 214h-156l13 72h238l-56 -326c-65 -39 -139 -63 -223 -63c-171 0 -280 99 -280 308c0 234 137 436 387 436c93 0 163 -28 222 -71l-40 -75c-55 40 -111 68 -190 68c-191 0 -291 -162 -291 -352c0 -169 79 -241 202 -241zM467 776
c-32 0 -54 23 -54 53s22 53 54 53s54 -23 54 -53s-22 -53 -54 -53z" />
    <glyph glyph-name="gdotaccent" unicode="&#x121;" horiz-adv-x="572" 
d="M541 510l-89 -502c-27 -153 -134 -224 -265 -224c-62 0 -132 16 -187 44l33 68c54 -27 109 -39 153 -39c77 0 162 37 183 165l9 55c-44 -49 -98 -77 -162 -77c-99 0 -177 66 -177 212c0 168 105 310 257 310c57 0 104 -20 152 -73l11 61h82zM241 71c56 0 108 31 151 78
l41 236c-37 39 -78 63 -131 63c-111 0 -177 -106 -177 -228c0 -106 50 -149 116 -149zM350 575c-32 0 -54 23 -54 53s22 53 54 53s54 -23 54 -53s-22 -53 -54 -53z" />
    <glyph glyph-name="uni0122" unicode="&#x122;" horiz-adv-x="677" 
d="M353 61c48 0 94 11 137 30l37 214h-156l13 72h238l-56 -326c-65 -39 -139 -63 -223 -63c-171 0 -280 99 -280 308c0 234 137 436 387 436c93 0 163 -28 222 -71l-40 -75c-55 40 -111 68 -190 68c-191 0 -291 -162 -291 -352c0 -169 79 -241 202 -241zM228 -176
c42 16 64 35 74 53c-28 2 -45 20 -45 45c0 28 22 46 50 46c32 0 58 -22 58 -63c0 -40 -24 -87 -113 -124z" />
    <glyph glyph-name="uni0123" unicode="&#x123;" horiz-adv-x="572" 
d="M541 510l-89 -502c-27 -153 -134 -224 -265 -224c-62 0 -132 16 -187 44l33 68c54 -27 109 -39 153 -39c77 0 162 37 183 165l9 55c-44 -49 -98 -77 -162 -77c-99 0 -177 66 -177 212c0 168 105 310 257 310c57 0 104 -20 152 -73l11 61h82zM241 71c56 0 108 31 151 78
l41 236c-37 39 -78 63 -131 63c-111 0 -177 -106 -177 -228c0 -106 50 -149 116 -149zM405 752l24 -43c-42 -16 -64 -35 -74 -53c28 -2 45 -20 45 -45c0 -28 -22 -46 -50 -46c-32 0 -58 22 -58 63c0 40 24 87 113 124z" />
    <glyph glyph-name="Hcircumflex" unicode="&#x124;" horiz-adv-x="706" 
d="M47 0l127 720h88l-54 -308h346l54 308h88l-127 -720h-88l59 335h-346l-59 -335h-88zM360 779h-71l145 130h68l101 -130h-62l-79 66z" />
    <glyph glyph-name="hcircumflex" unicode="&#x125;" horiz-adv-x="568" 
d="M31 0l127 720h86l-52 -292c49 51 117 94 199 94c64 0 129 -26 129 -120c0 -12 -1 -30 -4 -45l-63 -357h-86l62 351c2 11 4 19 4 31c0 49 -34 65 -76 65c-67 0 -125 -41 -177 -92l-63 -355h-86zM293 770h-71l149 150h68l97 -150h-61l-76 85z" />
    <glyph glyph-name="Hbar" unicode="&#x126;" horiz-adv-x="706" 
d="M59 524l11 65h81l23 131h88l-23 -131h346l23 131h88l-23 -131h80l-11 -65h-81l-92 -524h-88l59 335h-346l-59 -335h-88l92 524h-80zM208 412h346l19 112h-346z" />
    <glyph glyph-name="hbar" unicode="&#x127;" horiz-adv-x="570" 
d="M56 581l11 65h78l13 74h86l-13 -74h146l-11 -65h-147l-27 -153c49 51 117 94 199 94c63 0 129 -25 129 -119c0 -12 -1 -31 -4 -46l-63 -357h-86l62 351c2 11 4 19 4 31c0 49 -34 65 -76 65c-67 0 -125 -41 -177 -92l-63 -355h-86l102 581h-77z" />
    <glyph glyph-name="Itilde" unicode="&#x128;" horiz-adv-x="289" 
d="M55 0l127 720h88l-127 -720h-88zM135 779h-54c14 75 47 111 97 111c59 0 99 -51 139 -51c17 0 34 10 40 45h54c-14 -75 -47 -111 -97 -111c-59 0 -99 51 -139 51c-17 0 -34 -10 -40 -45z" />
    <glyph glyph-name="itilde" unicode="&#x129;" horiz-adv-x="250" 
d="M37 0l90 510h86l-90 -510h-86zM80 576h-54c12 74 45 113 97 113c61 0 99 -55 139 -55c18 0 34 12 41 49h54c-12 -74 -45 -113 -97 -113c-61 0 -99 55 -139 55c-18 0 -34 -12 -41 -49z" />
    <glyph glyph-name="Imacron" unicode="&#x12a;" horiz-adv-x="289" 
d="M55 0l127 720h88l-127 -720h-88zM92 785l11 65h293l-11 -65h-293z" />
    <glyph glyph-name="imacron" unicode="&#x12b;" horiz-adv-x="250" 
d="M35 581l11 65h293l-11 -65h-293zM37 0l90 510h86l-90 -510h-86z" />
    <glyph glyph-name="Ibreve" unicode="&#x12c;" horiz-adv-x="289" 
d="M55 0l127 720h88l-127 -720h-88zM246 779c-91 0 -138 37 -138 101c0 10 1 23 2 29h54c0 -44 17 -66 85 -66s92 22 107 66h54c-14 -82 -60 -130 -164 -130z" />
    <glyph glyph-name="ibreve" unicode="&#x12d;" horiz-adv-x="250" 
d="M190 576c-92 0 -137 43 -137 112c0 10 1 21 3 32h53c-1 -53 15 -79 83 -79s94 26 110 79h53c-15 -88 -61 -144 -165 -144zM37 0l90 510h86l-90 -510h-86z" />
    <glyph glyph-name="Iogonek" unicode="&#x12e;" horiz-adv-x="289" 
d="M28 -103c0 -25 14 -33 40 -33c9 0 20 1 34 4l5 -51c-15 -4 -35 -6 -51 -6c-55 0 -96 24 -96 75c0 44 30 84 95 114l127 720h88l-127 -720h-14c-76 -37 -101 -69 -101 -103z" />
    <glyph glyph-name="iogonek" unicode="&#x12f;" horiz-adv-x="250" 
d="M8 -103c0 -25 14 -33 40 -33c9 0 20 1 34 4l5 -51c-15 -4 -35 -6 -51 -6c-57 0 -96 25 -96 75c0 44 31 84 97 114l90 510h86l-90 -510h-12c-77 -37 -103 -69 -103 -103zM194 705c32 0 54 -23 54 -53s-22 -53 -54 -53s-54 23 -54 53s22 53 54 53z" />
    <glyph glyph-name="Idotaccent" unicode="&#x130;" horiz-adv-x="289" 
d="M55 0l127 720h88l-127 -720h-88zM244 776c-32 0 -54 23 -54 53s22 53 54 53s54 -23 54 -53s-22 -53 -54 -53z" />
    <glyph glyph-name="dotlessi" unicode="&#x131;" horiz-adv-x="250" 
d="M37 0l90 510h86l-90 -510h-86z" />
    <glyph glyph-name="IJ" unicode="&#x132;" horiz-adv-x="696" 
d="M55 0l127 720h88l-127 -720h-88zM274 3l13 78c25 -6 57 -11 86 -11c95 0 127 51 143 140l90 510h87l-92 -526c-22 -123 -71 -200 -228 -200c-31 0 -70 3 -99 9z" />
    <glyph glyph-name="ij" unicode="&#x133;" horiz-adv-x="501" 
d="M37 0l90 510h86l-90 -510h-86zM194 705c32 0 54 -23 54 -53s-22 -53 -54 -53s-54 23 -54 53s22 53 54 53zM463 510l-105 -596c-14 -78 -54 -130 -155 -130c-20 0 -43 2 -68 7l12 69c16 -5 32 -6 44 -6c57 0 74 24 84 78l102 578h86zM444 705c32 0 54 -23 54 -53
s-22 -53 -54 -53s-54 23 -54 53s22 53 54 53z" />
    <glyph glyph-name="Jcircumflex" unicode="&#x134;" horiz-adv-x="406" 
d="M-15 3l13 78c25 -6 57 -11 86 -11c95 0 127 51 143 140l90 510h87l-92 -526c-22 -123 -71 -200 -228 -200c-31 0 -70 3 -99 9zM291 779h-71l145 130h68l101 -130h-62l-79 66z" />
    <glyph glyph-name="jcircumflex" unicode="&#x135;" horiz-adv-x="250" 
d="M213 510l-105 -596c-14 -78 -54 -130 -155 -130c-20 0 -43 2 -68 7l12 69c16 -5 32 -6 44 -6c57 0 74 24 84 78l102 578h86zM95 570h-71l149 150h68l97 -150h-61l-76 85z" />
    <glyph glyph-name="uni0136" unicode="&#x136;" horiz-adv-x="650" 
d="M47 0l127 720h88l-63 -355l376 355h113l-302 -274l198 -446h-91l-170 388l-143 -129l-45 -259h-88zM200 -176c42 16 64 35 74 53c-28 2 -45 20 -45 45c0 28 22 46 50 46c32 0 58 -22 58 -63c0 -40 -24 -87 -113 -124z" />
    <glyph glyph-name="uni0137" unicode="&#x137;" horiz-adv-x="531" 
d="M373 0l-131 270l-91 -76l-34 -194h-86l127 720h86l-77 -434l254 224h107l-226 -190l157 -320h-86zM130 -176c42 16 64 35 74 53c-28 2 -45 20 -45 45c0 28 22 46 50 46c32 0 58 -22 58 -63c0 -40 -24 -87 -113 -124z" />
    <glyph glyph-name="kgreenlandic" unicode="&#x138;" horiz-adv-x="531" 
d="M373 0l-131 270l-91 -76l-34 -194h-86l90 510h86l-40 -224l254 224h107l-226 -190l157 -320h-86z" />
    <glyph glyph-name="Lacute" unicode="&#x139;" horiz-adv-x="532" 
d="M47 0l127 720h88l-113 -642h323l-14 -78h-411zM231 779h-73l109 130h110z" />
    <glyph glyph-name="lacute" unicode="&#x13a;" horiz-adv-x="250" 
d="M37 0l127 720h86l-127 -720h-86zM223 770h-73l113 150h110z" />
    <glyph glyph-name="uni013B" unicode="&#x13b;" horiz-adv-x="532" 
d="M47 0l127 720h88l-113 -642h323l-14 -78h-411zM165 -176c42 16 64 35 74 53c-28 2 -45 20 -45 45c0 28 22 46 50 46c32 0 58 -22 58 -63c0 -40 -24 -87 -113 -124z" />
    <glyph glyph-name="uni013C" unicode="&#x13c;" horiz-adv-x="250" 
d="M37 0l127 720h86l-127 -720h-86zM-21 -176c42 16 64 35 74 53c-28 2 -45 20 -45 45c0 28 22 46 50 46c32 0 58 -22 58 -63c0 -40 -24 -87 -113 -124z" />
    <glyph glyph-name="Lcaron" unicode="&#x13d;" horiz-adv-x="532" 
d="M346 565h-60l54 155h85zM47 0l127 720h88l-113 -642h323l-14 -78h-411z" />
    <glyph glyph-name="lcaron" unicode="&#x13e;" horiz-adv-x="260" 
d="M317 565h-59l53 155h85zM37 0l127 720h86l-127 -720h-86z" />
    <glyph glyph-name="Ldot" unicode="&#x13f;" horiz-adv-x="532" 
d="M47 0l127 720h88l-113 -642h323l-14 -78h-411zM415 308c-32 0 -54 23 -54 53s22 53 54 53s54 -23 54 -53s-22 -53 -54 -53z" />
    <glyph glyph-name="ldot" unicode="&#x140;" horiz-adv-x="298" 
d="M37 0l127 720h86l-127 -720h-86zM291 284c-32 0 -54 23 -54 53s22 53 54 53s54 -23 54 -53s-22 -53 -54 -53z" />
    <glyph glyph-name="Lslash" unicode="&#x141;" horiz-adv-x="532" 
d="M20 298l11 69l84 20l59 333h88l-55 -310l210 51l-11 -69l-211 -51l-46 -263h323l-14 -78h-411l56 318z" />
    <glyph glyph-name="lslash" unicode="&#x142;" horiz-adv-x="305" 
d="M25 321l11 65l100 25l55 309h86l-51 -287l100 24l-11 -65l-100 -25l-65 -367h-86l61 345z" />
    <glyph glyph-name="Nacute" unicode="&#x143;" horiz-adv-x="713" 
d="M47 0l127 720h97l250 -563l99 563h82l-127 -720h-73l-267 601l-106 -601h-82zM456 779h-73l109 130h110z" />
    <glyph glyph-name="nacute" unicode="&#x144;" horiz-adv-x="568" 
d="M31 0l90 510h86l-15 -82c49 51 117 94 199 94c64 0 129 -26 129 -120c0 -12 -1 -30 -4 -45l-63 -357h-86l62 351c2 11 4 19 4 31c0 49 -34 65 -76 65c-67 0 -125 -41 -177 -92l-63 -355h-86zM350 570h-73l113 150h110z" />
    <glyph glyph-name="uni0145" unicode="&#x145;" horiz-adv-x="713" 
d="M47 0l127 720h97l250 -563l99 563h82l-127 -720h-73l-267 601l-106 -601h-82zM216 -176c42 16 64 35 74 53c-28 2 -45 20 -45 45c0 28 22 46 50 46c32 0 58 -22 58 -63c0 -40 -24 -87 -113 -124z" />
    <glyph glyph-name="uni0146" unicode="&#x146;" horiz-adv-x="568" 
d="M31 0l90 510h86l-15 -82c49 51 117 94 199 94c64 0 129 -26 129 -120c0 -12 -1 -30 -4 -45l-63 -357h-86l62 351c2 11 4 19 4 31c0 49 -34 65 -76 65c-67 0 -125 -41 -177 -92l-63 -355h-86zM138 -176c42 16 64 35 74 53c-28 2 -45 20 -45 45c0 28 22 46 50 46
c32 0 58 -22 58 -63c0 -40 -24 -87 -113 -124z" />
    <glyph glyph-name="Ncaron" unicode="&#x147;" horiz-adv-x="713" 
d="M47 0l127 720h97l250 -563l99 563h82l-127 -720h-73l-267 601l-106 -601h-82zM556 909h71l-145 -130h-68l-101 130h62l79 -66z" />
    <glyph glyph-name="ncaron" unicode="&#x148;" horiz-adv-x="568" 
d="M31 0l90 510h86l-15 -82c49 51 117 94 199 94c64 0 129 -26 129 -120c0 -12 -1 -30 -4 -45l-63 -357h-86l62 351c2 11 4 19 4 31c0 49 -34 65 -76 65c-67 0 -125 -41 -177 -92l-63 -355h-86zM455 720h71l-149 -150h-68l-97 150h61l76 -85z" />
    <glyph glyph-name="napostrophe" unicode="&#x149;" horiz-adv-x="568" 
d="M31 0l90 510h86l-15 -82c49 51 117 94 199 94c64 0 129 -26 129 -120c0 -12 -1 -30 -4 -45l-63 -357h-86l62 351c2 11 4 19 4 31c0 49 -34 65 -76 65c-67 0 -125 -41 -177 -92l-63 -355h-86zM24 588c42 16 64 35 74 53c-28 2 -45 20 -45 45c0 28 22 46 50 46
c32 0 58 -22 58 -63c0 -40 -24 -87 -113 -124z" />
    <glyph glyph-name="Eng" unicode="&#x14a;" horiz-adv-x="713" 
d="M47 0l127 720h97l250 -563l99 563h82l-135 -768c-14 -78 -54 -130 -155 -130c-20 0 -43 2 -68 7l12 69c16 -5 32 -6 44 -6c57 0 74 24 84 78l9 50l-258 581l-106 -601h-82z" />
    <glyph glyph-name="eng" unicode="&#x14b;" horiz-adv-x="568" 
d="M31 0l90 510h86l-15 -82c49 51 117 94 199 94c63 0 129 -25 129 -119c0 -12 -1 -31 -4 -46l-71 -405c-14 -78 -54 -130 -155 -130c-20 0 -43 2 -68 7l12 69c16 -5 32 -6 44 -6c57 0 74 24 84 78l67 381c2 11 4 19 4 31c0 49 -34 65 -76 65c-67 0 -125 -41 -177 -92
l-63 -355h-86z" />
    <glyph glyph-name="Omacron" unicode="&#x14c;" horiz-adv-x="717" 
d="M346 64c156 0 256 153 256 340c0 166 -78 250 -194 250c-156 0 -256 -153 -256 -340c0 -166 78 -250 194 -250zM343 -12c-161 0 -279 117 -279 325c0 230 143 419 347 419c161 0 279 -117 279 -325c0 -230 -143 -419 -347 -419zM295 785l11 65h293l-11 -65h-293z" />
    <glyph glyph-name="omacron" unicode="&#x14d;" horiz-adv-x="555" 
d="M253 55c110 0 177 111 177 235c0 110 -53 163 -128 163c-110 0 -177 -111 -177 -235c0 -110 53 -163 128 -163zM249 -12c-117 0 -210 76 -210 229c0 167 110 305 267 305c117 0 210 -76 210 -229c0 -167 -110 -305 -267 -305zM177 581l11 65h293l-11 -65h-293z" />
    <glyph glyph-name="Obreve" unicode="&#x14e;" horiz-adv-x="717" 
d="M346 64c156 0 256 153 256 340c0 166 -78 250 -194 250c-156 0 -256 -153 -256 -340c0 -166 78 -250 194 -250zM343 -12c-161 0 -279 117 -279 325c0 230 143 419 347 419c161 0 279 -117 279 -325c0 -230 -143 -419 -347 -419zM449 779c-91 0 -138 37 -138 101
c0 10 1 23 2 29h54c0 -44 17 -66 85 -66s92 22 107 66h54c-14 -82 -60 -130 -164 -130z" />
    <glyph glyph-name="obreve" unicode="&#x14f;" horiz-adv-x="555" 
d="M253 55c110 0 177 111 177 235c0 110 -53 163 -128 163c-110 0 -177 -111 -177 -235c0 -110 53 -163 128 -163zM249 -12c-117 0 -210 76 -210 229c0 167 110 305 267 305c117 0 210 -76 210 -229c0 -167 -110 -305 -267 -305zM332 576c-92 0 -137 43 -137 112
c0 10 1 21 3 32h53c-1 -53 15 -79 83 -79s94 26 110 79h53c-15 -88 -61 -144 -165 -144z" />
    <glyph glyph-name="Ohungarumlaut" unicode="&#x150;" horiz-adv-x="717" 
d="M346 64c156 0 256 153 256 340c0 166 -78 250 -194 250c-156 0 -256 -153 -256 -340c0 -166 78 -250 194 -250zM343 -12c-161 0 -279 117 -279 325c0 230 143 419 347 419c161 0 279 -117 279 -325c0 -230 -143 -419 -347 -419zM364 779h-73l109 130h110zM520 779h-73
l121 130h110z" />
    <glyph glyph-name="ohungarumlaut" unicode="&#x151;" horiz-adv-x="555" 
d="M253 55c110 0 177 111 177 235c0 110 -53 163 -128 163c-110 0 -177 -111 -177 -235c0 -110 53 -163 128 -163zM249 -12c-117 0 -210 76 -210 229c0 167 110 305 267 305c117 0 210 -76 210 -229c0 -167 -110 -305 -267 -305zM247 570h-73l113 150h110zM402 570h-73
l126 150h109z" />
    <glyph glyph-name="OE" unicode="&#x152;" horiz-adv-x="940" 
d="M846 0h-408c-35 -7 -71 -12 -105 -12c-159 0 -269 105 -269 312c0 228 134 432 384 432c39 0 77 -5 112 -12h410l-14 -78h-326l-41 -232h283l-13 -75h-283l-45 -258h329zM343 64c32 0 67 6 100 15l99 562c-32 8 -65 13 -99 13c-198 0 -291 -170 -291 -351
c0 -162 75 -239 191 -239z" />
    <glyph glyph-name="oe" unicode="&#x153;" horiz-adv-x="915" 
d="M253 55c110 0 177 111 177 235c0 110 -53 163 -128 163c-110 0 -177 -111 -177 -235c0 -110 53 -163 128 -163zM707 456c-93 0 -163 -72 -187 -170c24 -2 46 -3 72 -3c161 0 212 40 212 95c0 43 -32 78 -97 78zM637 -12c-89 0 -154 35 -186 102
c-48 -63 -118 -102 -202 -102c-117 0 -210 76 -210 229c0 167 110 305 267 305c81 0 150 -37 185 -110c51 68 128 110 221 110c117 0 173 -67 173 -141c0 -89 -80 -159 -295 -159c-26 0 -52 1 -78 4v-13c0 -101 47 -157 137 -157c51 0 110 18 163 49l11 -69
c-55 -30 -122 -48 -186 -48z" />
    <glyph glyph-name="Racute" unicode="&#x154;" horiz-adv-x="676" 
d="M424 779h-73l109 130h110zM481 0l-141 321h-149l-56 -321h-88l127 720h245c137 0 219 -61 219 -184c0 -117 -75 -195 -211 -212l145 -324h-91zM204 390h162c126 0 185 51 185 141c0 79 -46 111 -140 111h-163z" />
    <glyph glyph-name="racute" unicode="&#x155;" horiz-adv-x="371" 
d="M399 517l-14 -77c-14 2 -29 3 -40 3c-82 0 -141 -63 -167 -97l-61 -346h-86l90 510h86l-15 -87c36 52 87 99 164 99c12 0 30 -1 43 -5zM274 570h-73l113 150h110z" />
    <glyph glyph-name="uni0156" unicode="&#x156;" horiz-adv-x="676" 
d="M187 -176c42 16 64 35 74 53c-28 2 -45 20 -45 45c0 28 22 46 50 46c32 0 58 -22 58 -63c0 -40 -24 -87 -113 -124zM481 0l-141 321h-149l-56 -321h-88l127 720h245c137 0 219 -61 219 -184c0 -117 -75 -195 -211 -212l145 -324h-91zM204 390h162c126 0 185 51 185 141
c0 79 -46 111 -140 111h-163z" />
    <glyph glyph-name="uni0157" unicode="&#x157;" horiz-adv-x="371" 
d="M399 517l-14 -77c-14 2 -29 3 -40 3c-82 0 -141 -63 -167 -97l-61 -346h-86l90 510h86l-15 -87c36 52 87 99 164 99c12 0 30 -1 43 -5zM-25 -176c42 16 64 35 74 53c-28 2 -45 20 -45 45c0 28 22 46 50 46c32 0 58 -22 58 -63c0 -40 -24 -87 -113 -124z" />
    <glyph glyph-name="Rcaron" unicode="&#x158;" horiz-adv-x="676" 
d="M525 909h71l-145 -130h-68l-101 130h62l79 -66zM481 0l-141 321h-149l-56 -321h-88l127 720h245c137 0 219 -61 219 -184c0 -117 -75 -195 -211 -212l145 -324h-91zM204 390h162c126 0 185 51 185 141c0 79 -46 111 -140 111h-163z" />
    <glyph glyph-name="rcaron" unicode="&#x159;" horiz-adv-x="371" 
d="M399 517l-14 -77c-14 2 -29 3 -40 3c-82 0 -141 -63 -167 -97l-61 -346h-86l90 510h86l-15 -87c36 52 87 99 164 99c12 0 30 -1 43 -5zM379 720h71l-149 -150h-68l-97 150h61l76 -85z" />
    <glyph glyph-name="Sacute" unicode="&#x15a;" horiz-adv-x="580" 
d="M20 54l39 73c61 -38 123 -63 193 -63c106 0 178 58 178 136c0 163 -309 114 -309 323c0 122 106 209 255 209c78 0 146 -24 202 -63l-39 -75c-52 36 -105 60 -169 60c-96 0 -161 -52 -161 -121c0 -150 309 -101 309 -321c0 -132 -110 -224 -272 -224
c-82 0 -162 24 -226 66zM391 779h-73l109 130h110z" />
    <glyph glyph-name="sacute" unicode="&#x15b;" horiz-adv-x="456" 
d="M433 477l-34 -67c-41 28 -81 42 -122 42c-62 0 -108 -34 -108 -78c0 -97 224 -60 224 -221c0 -99 -85 -165 -211 -165c-64 0 -125 17 -174 47l34 66c46 -28 94 -45 145 -45c73 0 122 36 122 87c0 110 -224 73 -224 223c0 90 80 156 194 156c57 0 110 -17 154 -45z
M292 570h-73l113 150h110z" />
    <glyph glyph-name="Scircumflex" unicode="&#x15c;" horiz-adv-x="580" 
d="M20 54l39 73c61 -38 123 -63 193 -63c106 0 178 58 178 136c0 163 -309 114 -309 323c0 122 106 209 255 209c78 0 146 -24 202 -63l-39 -75c-52 36 -105 60 -169 60c-96 0 -161 -52 -161 -121c0 -150 309 -101 309 -321c0 -132 -110 -224 -272 -224
c-82 0 -162 24 -226 66zM298 779h-71l145 130h68l101 -130h-62l-79 66z" />
    <glyph glyph-name="scircumflex" unicode="&#x15d;" horiz-adv-x="456" 
d="M433 477l-34 -67c-41 28 -81 42 -122 42c-62 0 -108 -34 -108 -78c0 -97 224 -60 224 -221c0 -99 -85 -165 -211 -165c-64 0 -125 17 -174 47l34 66c46 -28 94 -45 145 -45c73 0 122 36 122 87c0 110 -224 73 -224 223c0 90 80 156 194 156c57 0 110 -17 154 -45z
M199 570h-71l149 150h68l97 -150h-61l-76 85z" />
    <glyph glyph-name="Scedilla" unicode="&#x15e;" horiz-adv-x="580" 
d="M334 -93c0 -58 -48 -95 -124 -95c-45 0 -77 13 -100 26l23 49c21 -13 46 -23 72 -23c38 0 61 21 61 46c0 20 -14 43 -65 55l12 24c-70 6 -138 28 -193 65l39 73c61 -38 123 -63 193 -63c106 0 178 58 178 136c0 163 -309 114 -309 323c0 122 106 209 255 209
c78 0 146 -24 202 -63l-39 -75c-52 36 -105 60 -169 60c-96 0 -161 -52 -161 -121c0 -150 309 -101 309 -321c0 -124 -97 -212 -242 -223c36 -16 58 -43 58 -82z" />
    <glyph glyph-name="scedilla" unicode="&#x15f;" horiz-adv-x="456" 
d="M272 -93c0 -58 -48 -95 -124 -95c-45 0 -77 13 -100 26l23 49c21 -13 46 -23 72 -23c38 0 61 21 61 46c0 20 -14 43 -65 55l12 24c-53 5 -102 21 -143 46l34 66c46 -28 94 -45 145 -45c73 0 122 36 122 87c0 110 -224 73 -224 223c0 90 80 156 194 156
c57 0 110 -17 154 -45l-34 -67c-41 28 -81 42 -122 42c-62 0 -108 -34 -108 -78c0 -97 224 -60 224 -221c0 -91 -71 -153 -180 -163c37 -16 59 -44 59 -83z" />
    <glyph glyph-name="Scaron" unicode="&#x160;" horiz-adv-x="580" 
d="M20 54l39 73c61 -38 123 -63 193 -63c106 0 178 58 178 136c0 163 -309 114 -309 323c0 122 106 209 255 209c78 0 146 -24 202 -63l-39 -75c-52 36 -105 60 -169 60c-96 0 -161 -52 -161 -121c0 -150 309 -101 309 -321c0 -132 -110 -224 -272 -224
c-82 0 -162 24 -226 66zM491 909h71l-145 -130h-68l-101 130h62l79 -66z" />
    <glyph glyph-name="scaron" unicode="&#x161;" horiz-adv-x="456" 
d="M433 477l-34 -67c-41 28 -81 42 -122 42c-62 0 -108 -34 -108 -78c0 -97 224 -60 224 -221c0 -99 -85 -165 -211 -165c-64 0 -125 17 -174 47l34 66c46 -28 94 -45 145 -45c73 0 122 36 122 87c0 110 -224 73 -224 223c0 90 80 156 194 156c57 0 110 -17 154 -45z
M397 720h71l-149 -150h-68l-97 150h61l76 -85z" />
    <glyph glyph-name="uni0162" unicode="&#x162;" horiz-adv-x="565" 
d="M194 0l113 642h-210l14 78h508l-14 -78h-210l-113 -642h-30c46 -15 75 -46 75 -92c0 -59 -48 -96 -124 -96c-46 0 -77 13 -100 26l23 49c21 -13 46 -23 72 -23c38 0 61 21 61 47s-23 47 -64 56l16 33h-17z" />
    <glyph glyph-name="uni0163" unicode="&#x163;" horiz-adv-x="375" 
d="M57 440l13 70h98l30 170h86l-30 -170h128l-13 -70h-128l-51 -293c-3 -16 -5 -27 -5 -38c0 -33 17 -44 54 -44c27 0 47 6 66 12l-12 -72c-21 -6 -46 -11 -79 -11c-8 0 -15 0 -22 1c33 -19 50 -52 50 -87c0 -59 -48 -96 -124 -96c-45 0 -77 13 -100 26l23 49
c21 -13 46 -23 72 -23c37 0 61 20 61 48c0 22 -15 50 -60 63l19 37c-22 15 -34 41 -34 81c0 17 2 37 5 55l51 292h-98z" />
    <glyph glyph-name="Tcaron" unicode="&#x164;" horiz-adv-x="565" 
d="M194 0l113 642h-210l14 78h508l-14 -78h-210l-113 -642h-88zM482 909h71l-145 -130h-68l-101 130h62l79 -66z" />
    <glyph glyph-name="tcaron" unicode="&#x165;" horiz-adv-x="375" 
d="M366 565h-59l53 155h85zM57 440l13 70h98l30 170h86l-30 -170h128l-13 -70h-128l-51 -293c-3 -16 -5 -27 -5 -38c0 -33 17 -44 54 -44c27 0 47 6 66 12l-12 -72c-21 -6 -46 -11 -79 -11c-68 0 -115 21 -115 100c0 16 2 36 5 54l51 292h-98z" />
    <glyph glyph-name="Tbar" unicode="&#x166;" horiz-adv-x="565" 
d="M109 342l11 65h145l42 235h-210l14 78h508l-14 -78h-210l-42 -235h145l-11 -65h-145l-60 -342h-88l60 342h-145z" />
    <glyph glyph-name="tbar" unicode="&#x167;" horiz-adv-x="375" 
d="M57 440l13 70h98l30 170h86l-30 -170h128l-13 -70h-128l-24 -138h107l-12 -65h-107l-15 -90c-3 -16 -5 -27 -5 -38c0 -33 17 -44 54 -44c27 0 47 6 66 12l-12 -72c-21 -6 -46 -11 -79 -11c-68 0 -115 21 -115 100c0 16 2 36 5 54l15 89h-78l12 65h78l24 138h-98z" />
    <glyph glyph-name="Utilde" unicode="&#x168;" horiz-adv-x="687" 
d="M87 273l79 447h88l-82 -465c-4 -22 -6 -40 -6 -58c0 -92 51 -131 148 -131c116 0 179 56 203 189l82 465h86l-84 -478c-31 -177 -131 -254 -292 -254c-144 0 -231 62 -231 198c0 29 4 59 9 87zM334 779h-54c14 75 47 111 97 111c59 0 99 -51 139 -51c17 0 34 10 40 45h54
c-14 -75 -47 -111 -97 -111c-59 0 -99 51 -139 51c-17 0 -34 -10 -40 -45z" />
    <glyph glyph-name="utilde" unicode="&#x169;" horiz-adv-x="568" 
d="M537 510l-90 -510h-86l15 82c-49 -51 -117 -94 -199 -94c-63 0 -129 25 -129 119c0 12 1 31 4 46l63 357h86l-62 -353c-2 -11 -4 -19 -4 -31c0 -49 34 -65 76 -65c67 0 125 41 177 92l63 357h86zM235 576h-54c12 74 45 113 97 113c61 0 99 -55 139 -55c18 0 34 12 41 49
h54c-12 -74 -45 -113 -97 -113c-61 0 -99 55 -139 55c-18 0 -34 -12 -41 -49z" />
    <glyph glyph-name="Umacron" unicode="&#x16a;" horiz-adv-x="687" 
d="M87 273l79 447h88l-82 -465c-4 -22 -6 -40 -6 -58c0 -92 51 -131 148 -131c116 0 179 56 203 189l82 465h86l-84 -478c-31 -177 -131 -254 -292 -254c-144 0 -231 62 -231 198c0 29 4 59 9 87zM290 785l11 65h293l-11 -65h-293z" />
    <glyph glyph-name="umacron" unicode="&#x16b;" horiz-adv-x="568" 
d="M537 510l-90 -510h-86l15 82c-49 -51 -117 -94 -199 -94c-63 0 -129 25 -129 119c0 12 1 31 4 46l63 357h86l-62 -353c-2 -11 -4 -19 -4 -31c0 -49 34 -65 76 -65c67 0 125 41 177 92l63 357h86zM191 581l11 65h293l-11 -65h-293z" />
    <glyph glyph-name="Ubreve" unicode="&#x16c;" horiz-adv-x="687" 
d="M85 273l79 447h88l-82 -465c-4 -22 -6 -40 -6 -58c0 -92 51 -131 148 -131c116 0 179 56 203 189l82 465h86l-84 -478c-31 -177 -131 -254 -292 -254c-144 0 -231 62 -231 198c0 29 4 59 9 87zM444 779c-91 0 -138 37 -138 101c0 10 1 23 2 29h54c0 -44 17 -66 85 -66
s92 22 107 66h54c-14 -82 -60 -130 -164 -130z" />
    <glyph glyph-name="ubreve" unicode="&#x16d;" horiz-adv-x="568" 
d="M537 510l-90 -510h-86l15 82c-49 -51 -117 -94 -199 -94c-63 0 -129 25 -129 119c0 12 1 31 4 46l63 357h86l-62 -353c-2 -11 -4 -19 -4 -31c0 -49 34 -65 76 -65c67 0 125 41 177 92l63 357h86zM347 576c-92 0 -137 43 -137 112c0 10 1 21 3 32h53c-1 -53 15 -79 83 -79
s94 26 110 79h53c-15 -88 -61 -144 -165 -144z" />
    <glyph glyph-name="Uring" unicode="&#x16e;" horiz-adv-x="687" 
d="M87 273l79 447h88l-82 -465c-4 -22 -6 -40 -6 -58c0 -92 51 -131 148 -131c116 0 179 56 203 189l82 465h86l-84 -478c-31 -177 -131 -254 -292 -254c-144 0 -231 62 -231 198c0 29 4 59 9 87zM389 861c0 -25 18 -46 47 -46s47 21 47 46s-18 46 -47 46s-47 -21 -47 -46z
M527 861c0 -50 -39 -89 -91 -89s-91 39 -91 89s39 89 91 89s91 -39 91 -89z" />
    <glyph glyph-name="uring" unicode="&#x16f;" horiz-adv-x="568" 
d="M537 510l-90 -510h-86l15 82c-49 -51 -117 -94 -199 -94c-63 0 -129 25 -129 119c0 12 1 31 4 46l63 357h86l-62 -353c-2 -11 -4 -19 -4 -31c0 -49 34 -65 76 -65c67 0 125 41 177 92l63 357h86zM303 655c0 -25 18 -46 47 -46s47 21 47 46s-18 46 -47 46s-47 -21 -47 -46
zM441 655c0 -50 -39 -89 -91 -89s-91 39 -91 89s39 89 91 89s91 -39 91 -89z" />
    <glyph glyph-name="Uhungarumlaut" unicode="&#x170;" horiz-adv-x="687" 
d="M87 273l79 447h88l-82 -465c-4 -22 -6 -40 -6 -58c0 -92 51 -131 148 -131c116 0 179 56 203 189l82 465h86l-84 -478c-31 -177 -131 -254 -292 -254c-144 0 -231 62 -231 198c0 29 4 59 9 87zM359 779h-73l109 130h110zM515 779h-73l121 130h110z" />
    <glyph glyph-name="uhungarumlaut" unicode="&#x171;" horiz-adv-x="568" 
d="M537 510l-90 -510h-86l15 82c-49 -51 -117 -94 -199 -94c-63 0 -129 25 -129 119c0 12 1 31 4 46l63 357h86l-62 -353c-2 -11 -4 -19 -4 -31c0 -49 34 -65 76 -65c67 0 125 41 177 92l63 357h86zM262 570h-73l113 150h110zM417 570h-73l126 150h109z" />
    <glyph glyph-name="Uogonek" unicode="&#x172;" horiz-adv-x="687" 
d="M277 -103c0 -25 14 -33 40 -33c9 0 20 1 34 4l5 -51c-15 -4 -35 -6 -51 -6c-56 0 -96 25 -96 74c0 39 24 75 80 104c-132 5 -211 67 -211 197c0 29 4 59 9 87l79 447h88l-82 -465c-4 -22 -6 -40 -6 -58c0 -92 51 -131 148 -131c116 0 179 56 203 189l82 465h86l-84 -478
c-27 -154 -106 -232 -231 -250c-70 -33 -93 -63 -93 -95z" />
    <glyph glyph-name="uogonek" unicode="&#x173;" horiz-adv-x="568" 
d="M324 -103c0 -25 14 -33 40 -33c9 0 20 1 34 4l5 -51c-15 -4 -35 -6 -51 -6c-56 0 -96 25 -96 74c0 44 31 84 105 115l15 82c-49 -51 -117 -94 -199 -94c-62 0 -129 24 -129 118c0 12 1 32 4 47l63 357h86l-62 -353c-2 -11 -4 -19 -4 -31c0 -49 34 -65 76 -65
c67 0 125 41 177 92l63 357h86l-90 -510h-12c-83 -37 -111 -69 -111 -103z" />
    <glyph glyph-name="Wcircumflex" unicode="&#x174;" horiz-adv-x="954" 
d="M598 0l-39 382c-14 133 -17 168 -17 225h-2c-20 -59 -60 -142 -95 -218l-182 -389h-85l-60 720h88l28 -386c8 -104 11 -141 11 -210h2c28 77 65 154 97 222l175 374h83l38 -378c5 -50 16 -146 17 -218h2c22 64 53 141 86 217l163 379h92l-317 -720h-85zM483 779h-71
l145 130h68l101 -130h-62l-79 66z" />
    <glyph glyph-name="wcircumflex" unicode="&#x175;" horiz-adv-x="749" 
d="M210 0h-83l-60 510h80l31 -271c7 -62 11 -97 10 -141h2c14 38 42 102 63 145l129 267h78l29 -267c8 -71 10 -95 10 -145h2c15 45 36 93 60 144l126 268h85l-244 -510h-82l-29 266c-10 89 -11 106 -12 147h-2c-13 -41 -40 -98 -65 -150zM344 570h-71l149 150h68l97 -150
h-61l-76 85z" />
    <glyph glyph-name="Ycircumflex" unicode="&#x176;" horiz-adv-x="611" 
d="M217 0l54 305l-166 415h87l132 -330l248 330h98l-311 -415l-54 -305h-88zM312 779h-71l145 130h68l101 -130h-62l-79 66z" />
    <glyph glyph-name="ycircumflex" unicode="&#x177;" horiz-adv-x="505" 
d="M-45 -211l13 73c14 -3 27 -6 47 -6c57 0 92 25 164 156h-27l-86 498h88l65 -433l221 433h89l-269 -511c-94 -178 -139 -215 -246 -215c-17 0 -38 1 -59 5zM222 570h-71l149 150h68l97 -150h-61l-76 85z" />
    <glyph glyph-name="Ydieresis" unicode="&#x178;" horiz-adv-x="611" 
d="M217 0l54 305l-166 415h87l132 -330l248 330h98l-311 -415l-54 -305h-88zM359 827c0 -28 -20 -49 -49 -49s-49 21 -49 49s20 49 49 49s49 -21 49 -49zM549 827c0 -28 -20 -49 -49 -49s-49 21 -49 49s20 49 49 49s49 -21 49 -49z" />
    <glyph glyph-name="Zacute" unicode="&#x179;" horiz-adv-x="601" 
d="M-6 0l11 65l491 577h-368l14 78h487l-12 -66l-491 -577h395l-14 -77h-513zM399 779h-73l109 130h110z" />
    <glyph glyph-name="zacute" unicode="&#x17a;" horiz-adv-x="484" 
d="M-15 0l11 59l362 381h-277l13 70h391l-11 -58l-362 -381h300l-13 -71h-414zM304 570h-73l113 150h110z" />
    <glyph glyph-name="Zdotaccent" unicode="&#x17b;" horiz-adv-x="601" 
d="M-6 0l11 65l491 577h-368l14 78h487l-12 -66l-491 -577h395l-14 -77h-513zM398 776c-32 0 -54 23 -54 53s22 53 54 53s54 -23 54 -53s-22 -53 -54 -53z" />
    <glyph glyph-name="zdotaccent" unicode="&#x17c;" horiz-adv-x="484" 
d="M-15 0l11 59l362 381h-277l13 70h391l-11 -58l-362 -381h300l-13 -71h-414zM305 575c-32 0 -54 23 -54 53s22 53 54 53s54 -23 54 -53s-22 -53 -54 -53z" />
    <glyph glyph-name="Zcaron" unicode="&#x17d;" horiz-adv-x="601" 
d="M-6 0l11 65l491 577h-368l14 78h487l-12 -66l-491 -577h395l-14 -77h-513zM499 909h71l-145 -130h-68l-101 130h62l79 -66z" />
    <glyph glyph-name="zcaron" unicode="&#x17e;" horiz-adv-x="484" 
d="M-15 0l11 59l362 381h-277l13 70h391l-11 -58l-362 -381h300l-13 -71h-414zM409 720h71l-149 -150h-68l-97 150h61l76 -85z" />
    <glyph glyph-name="longs" unicode="&#x17f;" horiz-adv-x="338" 
d="M57 440l13 70h98l15 86c14 78 54 130 155 130c20 0 43 -2 68 -7l-12 -69c-16 5 -32 6 -44 6c-57 0 -74 -24 -84 -78l-102 -578h-86l77 440h-98z" />
    <glyph glyph-name="uni018F" unicode="&#x18f;" horiz-adv-x="697" 
d="M78 400h504v12c0 160 -74 242 -194 242c-70 0 -150 -28 -213 -71l-13 78c63 41 153 71 236 71c163 0 272 -113 272 -320c0 -221 -124 -424 -348 -424c-159 0 -259 102 -259 289c0 53 8 92 15 123zM325 64c147 0 228 125 250 265h-421c-2 -17 -3 -34 -3 -52
c0 -139 62 -213 174 -213z" />
    <glyph glyph-name="florin" unicode="&#x192;" horiz-adv-x="458" 
d="M450 663c-67 0 -94 -36 -112 -99l-47 -165h170l-11 -64h-177l-94 -335h-84l94 335h-147l11 64h154l51 180c26 93 65 153 191 153c23 0 49 -2 70 -5l-13 -70c-19 3 -37 6 -56 6z" />
    <glyph glyph-name="uni01B5" unicode="&#x1b5;" horiz-adv-x="601" 
d="M126 342l11 65h159l200 235h-368l14 78h487l-12 -66l-210 -247h113l-11 -65h-158l-225 -265h395l-14 -77h-513l11 65l235 277h-114z" />
    <glyph glyph-name="uni01B6" unicode="&#x1b6;" horiz-adv-x="484" 
d="M80 237l12 65h135l131 138h-277l13 70h391l-11 -58l-143 -150h78l-12 -65h-128l-157 -166h300l-13 -71h-414l11 59l169 178h-85z" />
    <glyph glyph-name="Aringacute" unicode="&#x1fa;" horiz-adv-x="677" 
d="M443 859h-73l109 91h110zM520 753c0 -31 -15 -57 -39 -73l118 -680h-86l-33 195h-299l-101 -195h-93l369 692c-15 16 -23 37 -23 61c0 50 40 89 93 89c54 0 94 -39 94 -89zM408 632l-190 -365h250zM378 753c0 -25 18 -46 48 -46s48 21 48 46s-18 46 -48 46
s-48 -21 -48 -46z" />
    <glyph glyph-name="aringacute" unicode="&#x1fb;" horiz-adv-x="565" 
d="M454 0h-84c-3 6 -5 14 -5 32c0 13 1 20 4 33c-42 -48 -96 -78 -161 -78c-96 0 -169 67 -169 214c0 175 104 321 252 321c56 0 103 -21 149 -73l11 61h82l-69 -391c-8 -47 -12 -71 -12 -97c0 -9 0 -17 2 -22zM235 59c49 0 99 25 146 78l43 248c-37 41 -73 62 -122 62
c-112 0 -177 -109 -177 -237c0 -107 45 -151 110 -151zM305 627c0 -25 18 -46 47 -46s47 21 47 46s-18 46 -47 46s-47 -21 -47 -46zM443 627c0 -50 -39 -89 -91 -89s-91 39 -91 89s39 89 91 89s91 -39 91 -89zM380 733h-73l113 105h110z" />
    <glyph glyph-name="AEacute" unicode="&#x1fc;" horiz-adv-x="936" 
d="M425 0l34 195h-242l-137 -195h-100l520 720h466l-14 -78h-326l-41 -232h283l-13 -75h-283l-45 -258h329l-14 -77h-417zM267 267h205l69 390zM748 779h-73l109 130h110z" />
    <glyph glyph-name="aeacute" unicode="&#x1fd;" horiz-adv-x="855" 
d="M652 522c117 0 173 -67 173 -141c0 -89 -80 -159 -295 -159c-26 0 -52 1 -78 4v-13c0 -101 47 -157 137 -157c51 0 110 18 163 49l11 -69c-55 -30 -122 -48 -186 -48c-87 0 -150 33 -184 96c-52 -53 -127 -96 -211 -96c-91 0 -159 50 -159 141c0 107 93 185 266 185
c20 0 50 -1 88 -5l6 34c2 12 4 30 4 41c0 47 -33 67 -91 67c-63 0 -121 -23 -173 -52l-11 70c51 29 123 53 201 53c73 0 127 -21 148 -76c49 47 115 76 191 76zM203 56c63 0 121 36 171 84c-5 20 -7 43 -7 66c0 17 1 30 2 44c-30 4 -58 5 -76 5c-129 0 -186 -52 -186 -116
c0 -53 39 -83 96 -83zM647 456c-93 0 -163 -72 -187 -170c24 -2 46 -3 72 -3c161 0 212 40 212 95c0 43 -32 78 -97 78zM514 570h-73l113 150h110z" />
    <glyph glyph-name="Oslashacute" unicode="&#x1fe;" horiz-adv-x="717" 
d="M448 779h-73l109 130h110zM346 62c157 0 258 154 258 341c0 49 -7 88 -18 122l-393 -385c34 -52 88 -78 153 -78zM150 313c0 -46 6 -86 17 -119l393 384c-34 52 -88 78 -152 78c-157 0 -258 -154 -258 -343zM37 -12l-38 41l104 102c-25 49 -39 110 -39 182
c0 230 143 419 347 419c85 0 158 -33 208 -95l98 95l38 -41l-104 -102c25 -49 39 -110 39 -182c0 -230 -143 -419 -347 -419c-86 0 -159 33 -209 95z" />
    <glyph glyph-name="oslashacute" unicode="&#x1ff;" horiz-adv-x="555" 
d="M330 570h-73l113 150h110zM253 52c112 0 180 112 180 238c0 27 -3 50 -9 70l-272 -259c24 -33 59 -49 101 -49zM122 218c0 -26 3 -49 8 -69l271 259c-23 32 -58 48 -100 48c-111 0 -179 -113 -179 -238zM249 -12c-60 0 -114 20 -152 60l-77 -74l-35 36l82 79
c-18 34 -28 77 -28 128c0 167 110 305 267 305c60 0 113 -20 151 -60l78 74l35 -36l-83 -79c19 -34 29 -77 29 -128c0 -167 -110 -305 -267 -305z" />
    <glyph glyph-name="uni0218" unicode="&#x218;" horiz-adv-x="580" 
d="M20 54l39 73c61 -38 123 -63 193 -63c106 0 178 58 178 136c0 163 -309 114 -309 323c0 122 106 209 255 209c78 0 146 -24 202 -63l-39 -75c-52 36 -105 60 -169 60c-96 0 -161 -52 -161 -121c0 -150 309 -101 309 -321c0 -132 -110 -224 -272 -224
c-82 0 -162 24 -226 66zM144 -176c42 16 64 35 74 53c-28 2 -45 20 -45 45c0 28 22 46 50 46c32 0 58 -22 58 -63c0 -40 -24 -87 -113 -124z" />
    <glyph glyph-name="uni0219" unicode="&#x219;" horiz-adv-x="456" 
d="M433 477l-34 -67c-41 28 -81 42 -122 42c-62 0 -108 -34 -108 -78c0 -97 224 -60 224 -221c0 -99 -85 -165 -211 -165c-64 0 -125 17 -174 47l34 66c46 -28 94 -45 145 -45c73 0 122 36 122 87c0 110 -224 73 -224 223c0 90 80 156 194 156c57 0 110 -17 154 -45z
M77 -176c42 16 64 35 74 53c-28 2 -45 20 -45 45c0 28 22 46 50 46c32 0 58 -22 58 -63c0 -40 -24 -87 -113 -124z" />
    <glyph glyph-name="uni021A" unicode="&#x21a;" horiz-adv-x="565" 
d="M194 0l113 642h-210l14 78h508l-14 -78h-210l-113 -642h-88zM136 -176c42 16 64 35 74 53c-28 2 -45 20 -45 45c0 28 22 46 50 46c32 0 58 -22 58 -63c0 -40 -24 -87 -113 -124z" />
    <glyph glyph-name="uni021B" unicode="&#x21b;" horiz-adv-x="375" 
d="M67 -176c42 16 64 35 74 53c-28 2 -45 20 -45 45c0 28 22 46 50 46c32 0 58 -22 58 -63c0 -40 -24 -87 -113 -124zM57 440l13 70h98l30 170h86l-30 -170h128l-13 -70h-128l-51 -293c-3 -16 -5 -27 -5 -38c0 -33 17 -44 54 -44c27 0 47 6 66 12l-12 -72
c-21 -6 -46 -11 -79 -11c-68 0 -115 21 -115 100c0 16 2 36 5 54l51 292h-98z" />
    <glyph glyph-name="uni0237" unicode="&#x237;" horiz-adv-x="250" 
d="M213 510l-105 -596c-14 -78 -54 -130 -155 -130c-20 0 -43 2 -68 7l12 69c16 -5 32 -6 44 -6c57 0 74 24 84 78l102 578h86z" />
    <glyph glyph-name="uni0259" unicode="&#x259;" horiz-adv-x="519" 
d="M197 -12c-120 0 -174 71 -174 148c0 95 81 168 296 168c25 0 50 -1 75 -4c-2 99 -48 152 -132 152c-50 0 -107 -18 -156 -49l-11 71c52 30 119 48 180 48c128 0 204 -80 204 -222c0 -176 -116 -312 -282 -312zM203 53c96 0 168 79 186 186c-23 3 -44 4 -69 4
c-165 0 -215 -44 -215 -105c0 -47 31 -85 98 -85z" />
    <glyph glyph-name="uni02BB" unicode="&#x2bb;" horiz-adv-x="265" 
d="M177 461c-40 0 -69 32 -69 85c0 59 36 127 156 186l36 -45c-82 -37 -115 -79 -126 -115c36 0 59 -24 59 -56c0 -31 -22 -55 -56 -55z" />
    <glyph glyph-name="uni02BC" unicode="&#x2bc;" horiz-adv-x="265" 
d="M207 733c40 0 69 -32 69 -85c0 -59 -36 -127 -156 -186l-36 45c82 37 115 79 126 115c-36 0 -59 24 -59 56c0 31 22 55 56 55z" />
    <glyph glyph-name="circumflex" unicode="&#x2c6;" horiz-adv-x="500" 
d="M219 570h-71l149 150h68l97 -150h-61l-76 85z" />
    <glyph glyph-name="caron" unicode="&#x2c7;" horiz-adv-x="500" 
d="M418 720h71l-149 -150h-68l-97 150h61l76 -85z" />
    <glyph glyph-name="breve" unicode="&#x2d8;" horiz-adv-x="500" 
d="M316 576c-92 0 -137 43 -137 112c0 10 1 21 3 32h53c-1 -53 15 -79 83 -79s94 26 110 79h53c-15 -88 -61 -144 -165 -144z" />
    <glyph glyph-name="dotaccent" unicode="&#x2d9;" horiz-adv-x="500" 
d="M314 569c-32 0 -54 23 -54 53s22 53 54 53s54 -23 54 -53s-22 -53 -54 -53z" />
    <glyph glyph-name="ring" unicode="&#x2da;" horiz-adv-x="500" 
d="M272 655c0 -25 18 -46 47 -46s47 21 47 46s-18 46 -47 46s-47 -21 -47 -46zM410 655c0 -50 -39 -89 -91 -89s-91 39 -91 89s39 89 91 89s91 -39 91 -89z" />
    <glyph glyph-name="ogonek" unicode="&#x2db;" horiz-adv-x="500" 
d="M173 -103c0 -25 14 -33 40 -33c9 0 20 1 34 4l5 -51c-15 -4 -35 -6 -51 -6c-56 0 -96 25 -96 74c0 44 31 84 105 115h74c-83 -37 -111 -69 -111 -103z" />
    <glyph glyph-name="tilde" unicode="&#x2dc;" horiz-adv-x="500" 
d="M204 576h-54c12 74 45 113 97 113c61 0 99 -55 139 -55c18 0 34 12 41 49h54c-12 -74 -45 -113 -97 -113c-61 0 -99 55 -139 55c-18 0 -34 -12 -41 -49z" />
    <glyph glyph-name="hungarumlaut" unicode="&#x2dd;" horiz-adv-x="500" 
d="M229 570h-73l113 150h110zM384 570h-73l126 150h109z" />
    <glyph glyph-name="gravecomb" unicode="&#x300;" horiz-adv-x="1" 
d="M-167 570h-67l-102 150h95z" />
    <glyph glyph-name="acutecomb" unicode="&#x301;" horiz-adv-x="1" 
d="M-225 570h-73l113 150h110z" />
    <glyph glyph-name="uni0302" unicode="&#x302;" horiz-adv-x="1" 
d="M-318 570h-71l149 150h68l97 -150h-61l-76 85z" />
    <glyph glyph-name="tildecomb" unicode="&#x303;" horiz-adv-x="1" 
d="M-333 576h-54c12 74 45 113 97 113c61 0 99 -55 139 -55c18 0 34 12 41 49h54c-12 -74 -45 -113 -97 -113c-61 0 -99 55 -139 55c-18 0 -34 -12 -41 -49z" />
    <glyph glyph-name="uni0304" unicode="&#x304;" horiz-adv-x="1" 
d="M-378 581l11 65h293l-11 -65h-293z" />
    <glyph glyph-name="uni0306" unicode="&#x306;" horiz-adv-x="1" 
d="M-223 576c-92 0 -137 43 -137 112c0 10 1 21 3 32h53c-1 -53 15 -79 83 -79s94 26 110 79h53c-15 -88 -61 -144 -165 -144z" />
    <glyph glyph-name="uni0307" unicode="&#x307;" horiz-adv-x="1" 
d="M-218 597c-32 0 -54 23 -54 53s22 53 54 53s54 -23 54 -53s-22 -53 -54 -53z" />
    <glyph glyph-name="uni0308" unicode="&#x308;" horiz-adv-x="1" 
d="M-269 623c0 -28 -20 -49 -49 -49s-49 21 -49 49s20 49 49 49s49 -21 49 -49zM-79 623c0 -28 -20 -49 -49 -49s-49 21 -49 49s20 49 49 49s49 -21 49 -49z" />
    <glyph glyph-name="uni030A" unicode="&#x30a;" horiz-adv-x="1" 
d="M-266 655c0 -25 18 -46 47 -46s47 21 47 46s-18 46 -47 46s-47 -21 -47 -46zM-128 655c0 -50 -39 -89 -91 -89s-91 39 -91 89s39 89 91 89s91 -39 91 -89z" />
    <glyph glyph-name="uni030B" unicode="&#x30b;" horiz-adv-x="1" 
d="M-308 570h-73l113 150h110zM-153 570h-73l126 150h109z" />
    <glyph glyph-name="uni030C" unicode="&#x30c;" horiz-adv-x="1" 
d="M-113 720h71l-149 -150h-68l-97 150h61l76 -85z" />
    <glyph glyph-name="uni0312" unicode="&#x312;" horiz-adv-x="1" 
d="M-177 752l24 -43c-42 -16 -64 -35 -74 -53c28 -2 45 -20 45 -45c0 -28 -22 -46 -50 -46c-32 0 -58 22 -58 63c0 40 24 87 113 124z" />
    <glyph glyph-name="uni0313" unicode="&#x313;" horiz-adv-x="1" 
d="M-279 603c42 16 64 35 74 53c-28 2 -45 20 -45 45c0 28 22 46 50 46c32 0 58 -22 58 -63c0 -40 -24 -87 -113 -124z" />
    <glyph glyph-name="uni0326" unicode="&#x326;" horiz-adv-x="1" 
d="M-428 -176c42 16 64 35 74 53c-28 2 -45 20 -45 45c0 28 22 46 50 46c32 0 58 -22 58 -63c0 -40 -24 -87 -113 -124z" />
    <glyph glyph-name="uni0327" unicode="&#x327;" horiz-adv-x="1" 
d="M-244 -93c0 -58 -48 -95 -124 -95c-45 0 -77 13 -100 26l23 49c21 -13 46 -23 72 -23c38 0 61 21 61 46c0 20 -14 43 -65 55l20 38c68 -8 113 -40 113 -96z" />
    <glyph glyph-name="uni0328" unicode="&#x328;" horiz-adv-x="1" 
d="M-364 -103c0 -25 14 -33 40 -33c9 0 20 1 34 4l5 -51c-15 -4 -35 -6 -51 -6c-56 0 -96 25 -96 74c0 44 31 84 105 115h74c-83 -37 -111 -69 -111 -103z" />
    <glyph glyph-name="uni0335" unicode="&#x335;" horiz-adv-x="1" 
d="M-467 274l13 75h380l-13 -75h-380z" />
    <glyph glyph-name="uni0336" unicode="&#x336;" horiz-adv-x="1" 
d="M-967 274l13 75h880l-13 -75h-880z" />
    <glyph glyph-name="uni037E" unicode="&#x37e;" horiz-adv-x="283" 
d="M96 104c40 0 69 -32 69 -85c0 -59 -36 -127 -156 -186l-36 45c82 37 115 79 126 115c-36 0 -59 24 -59 56c0 31 22 55 56 55zM227 434c0 -33 -23 -58 -58 -58c-34 0 -58 25 -58 58s24 58 58 58c35 0 58 -25 58 -58z" />
    <glyph glyph-name="tonos" unicode="&#x384;" horiz-adv-x="500" 
d="M326 570h-69l74 150h105z" />
    <glyph glyph-name="dieresistonos" unicode="&#x385;" horiz-adv-x="500" 
d="M351 676h-70l50 110h98zM267 617c0 -28 -20 -49 -49 -49s-49 21 -49 49s20 49 49 49s49 -21 49 -49zM457 617c0 -28 -20 -49 -49 -49s-49 21 -49 49s20 49 49 49s49 -21 49 -49z" />
    <glyph glyph-name="Alphatonos" unicode="&#x386;" horiz-adv-x="677" 
d="M156 570h-69l74 150h105zM474 720l125 -720h-86l-33 195h-299l-101 -195h-93l384 720h103zM408 632l-190 -365h250z" />
    <glyph glyph-name="anoteleia" unicode="&#x387;" horiz-adv-x="283" 
d="M198 257c0 -33 -23 -58 -58 -58c-34 0 -58 25 -58 58s24 58 58 58c35 0 58 -25 58 -58z" />
    <glyph glyph-name="Epsilontonos" unicode="&#x388;" horiz-adv-x="686" 
d="M111 570h-69l74 150h105zM144 0l127 720h444l-14 -78h-356l-41 -232h313l-13 -75h-313l-45 -258h359l-14 -77h-447z" />
    <glyph glyph-name="Etatonos" unicode="&#x389;" horiz-adv-x="804" 
d="M111 570h-69l74 150h105zM144 0l127 720h88l-54 -308h346l54 308h88l-127 -720h-88l59 335h-346l-59 -335h-88z" />
    <glyph glyph-name="Iotatonos" unicode="&#x38a;" horiz-adv-x="386" 
d="M111 570h-69l74 150h105zM151 0l127 720h88l-127 -720h-88z" />
    <glyph glyph-name="Omicrontonos" unicode="&#x38c;" horiz-adv-x="802" 
d="M111 570h-69l74 150h105zM431 64c156 0 256 153 256 340c0 166 -78 250 -194 250c-156 0 -256 -153 -256 -340c0 -166 78 -250 194 -250zM428 -12c-161 0 -279 117 -279 325c0 230 143 419 347 419c161 0 279 -117 279 -325c0 -230 -143 -419 -347 -419z" />
    <glyph glyph-name="Upsilontonos" unicode="&#x38e;" horiz-adv-x="737" 
d="M111 570h-69l74 150h105zM343 0l54 305l-166 415h87l132 -330l248 330h98l-311 -415l-54 -305h-88z" />
    <glyph glyph-name="Omegatonos" unicode="&#x38f;" horiz-adv-x="804" 
d="M111 570h-69l74 150h105zM499 655c-145 0 -252 -126 -252 -309c0 -118 45 -206 118 -281l-11 -65h-275l14 77h174c-67 67 -108 156 -108 272c0 220 149 383 342 383c162 0 279 -114 279 -303c0 -144 -68 -266 -190 -352h168l-14 -77h-271l11 65c133 97 208 209 208 358
c0 152 -78 232 -193 232z" />
    <glyph glyph-name="iotadieresistonos" unicode="&#x390;" horiz-adv-x="283" 
d="M54 124l68 386h86l-68 -385c-1 -8 -3 -16 -3 -26c0 -27 16 -36 42 -36c16 0 36 3 52 7l-13 -68c-20 -4 -40 -8 -64 -8c-67 0 -103 31 -103 93c0 15 2 30 3 37zM222 676h-70l50 110h98zM138 617c0 -28 -20 -49 -49 -49s-49 21 -49 49s20 49 49 49s49 -21 49 -49zM328 617
c0 -28 -20 -49 -49 -49s-49 21 -49 49s20 49 49 49s49 -21 49 -49z" />
    <glyph glyph-name="Alpha" unicode="&#x391;" horiz-adv-x="677" 
d="M474 720l125 -720h-86l-33 195h-299l-101 -195h-93l384 720h103zM408 632l-190 -365h250z" />
    <glyph glyph-name="Beta" unicode="&#x392;" horiz-adv-x="648" 
d="M46 0l128 720h219c133 0 219 -56 219 -174c0 -87 -47 -152 -141 -181c77 -25 111 -82 111 -156c0 -121 -90 -209 -278 -209h-258zM147 72h157c129 0 192 53 192 142c0 81 -52 117 -146 117h-158zM205 401h138c121 0 183 50 183 135c0 77 -50 110 -139 110h-139z" />
    <glyph glyph-name="Gamma" unicode="&#x393;" horiz-adv-x="532" 
d="M47 0l127 720h411l-14 -78h-323l-113 -642h-88z" />
    <glyph glyph-name="uni0394" unicode="&#x394;" horiz-adv-x="677" 
d="M474 720l116 -655l-12 -65h-569l11 65l351 655h103zM408 632l-288 -555h380z" />
    <glyph glyph-name="Epsilon" unicode="&#x395;" horiz-adv-x="588" 
d="M47 0l127 720h444l-14 -78h-356l-41 -232h313l-13 -75h-313l-45 -258h359l-14 -77h-447z" />
    <glyph glyph-name="Zeta" unicode="&#x396;" horiz-adv-x="601" 
d="M-6 0l11 65l491 577h-368l14 78h487l-12 -66l-491 -577h395l-14 -77h-513z" />
    <glyph glyph-name="Eta" unicode="&#x397;" horiz-adv-x="706" 
d="M47 0l127 720h88l-54 -308h346l54 308h88l-127 -720h-88l59 335h-346l-59 -335h-88z" />
    <glyph glyph-name="Theta" unicode="&#x398;" horiz-adv-x="717" 
d="M346 64c135 0 229 113 252 264h-448v-14c0 -166 79 -250 196 -250zM408 654c-131 0 -224 -107 -250 -251h446v1c0 166 -79 250 -196 250zM343 -12c-161 0 -279 117 -279 325c0 230 143 419 347 419c161 0 279 -117 279 -325c0 -230 -143 -419 -347 -419z" />
    <glyph glyph-name="Iota" unicode="&#x399;" horiz-adv-x="289" 
d="M55 0l127 720h88l-127 -720h-88z" />
    <glyph glyph-name="Kappa" unicode="&#x39a;" horiz-adv-x="650" 
d="M47 0l127 720h88l-63 -355l376 355h113l-302 -274l198 -446h-91l-170 388l-143 -129l-45 -259h-88z" />
    <glyph glyph-name="Lambda" unicode="&#x39b;" horiz-adv-x="650" 
d="M453 720l119 -720h-85l-97 608l-313 -608h-90l377 720h89z" />
    <glyph glyph-name="Mu" unicode="&#x39c;" horiz-adv-x="917" 
d="M332 720l71 -437c14 -83 20 -119 25 -180h2c24 53 52 109 89 178l235 439h113l-71 -720h-88l49 428c6 51 18 153 25 192h-2c-12 -31 -62 -133 -90 -184l-238 -436h-81l-76 437c-22 126 -22 126 -27 183h-2c-7 -39 -32 -139 -47 -200l-102 -420h-86l187 720h114z" />
    <glyph glyph-name="Nu" unicode="&#x39d;" horiz-adv-x="713" 
d="M47 0l127 720h97l250 -563l99 563h82l-127 -720h-73l-267 601l-106 -601h-82z" />
    <glyph glyph-name="Xi" unicode="&#x39e;" horiz-adv-x="523" 
d="M105 642l14 78h450l-14 -78h-450zM-12 0l14 78h457l-14 -78h-457zM93 336l13 77h366l-13 -77h-366z" />
    <glyph glyph-name="Omicron" unicode="&#x39f;" horiz-adv-x="715" 
d="M346 64c156 0 256 153 256 340c0 166 -78 250 -194 250c-156 0 -256 -153 -256 -340c0 -166 78 -250 194 -250zM343 -12c-161 0 -279 117 -279 325c0 230 143 419 347 419c161 0 279 -117 279 -325c0 -230 -143 -419 -347 -419z" />
    <glyph glyph-name="Pi" unicode="&#x3a0;" horiz-adv-x="706" 
d="M47 0l127 720h522l-127 -720h-88l113 642h-346l-113 -642h-88z" />
    <glyph glyph-name="Rho" unicode="&#x3a1;" horiz-adv-x="622" 
d="M47 0l127 720h234c138 0 224 -65 224 -196c0 -140 -100 -226 -278 -226h-167l-52 -298h-88zM248 642l-47 -269h153c128 0 191 55 191 148c0 84 -51 121 -144 121h-153z" />
    <glyph glyph-name="Sigma" unicode="&#x3a3;" horiz-adv-x="561" 
d="M1 0l12 65l300 307l-175 282l12 66h462l-14 -78h-355l174 -277l-285 -288h368l-14 -77h-485z" />
    <glyph glyph-name="Tau" unicode="&#x3a4;" horiz-adv-x="565" 
d="M194 0l113 642h-210l14 78h508l-14 -78h-210l-113 -642h-88z" />
    <glyph glyph-name="Upsilon" unicode="&#x3a5;" horiz-adv-x="611" 
d="M217 0l54 305l-166 415h87l132 -330l248 330h98l-311 -415l-54 -305h-88z" />
    <glyph glyph-name="Phi" unicode="&#x3a6;" horiz-adv-x="798" 
d="M309 -12l15 87c-151 21 -255 113 -255 261c0 171 138 308 357 313l15 83h86l-16 -87c152 -22 256 -113 256 -261c0 -172 -139 -308 -358 -314l-14 -82h-86zM155 338c0 -114 72 -180 181 -197l78 439c-162 -9 -259 -111 -259 -242zM681 380c0 113 -73 179 -182 196
l-78 -439c162 10 260 112 260 243z" />
    <glyph glyph-name="Chi" unicode="&#x3a7;" horiz-adv-x="636" 
d="M-11 0l295 371l-155 349h91l124 -287l224 287h102l-279 -349l166 -371h-92l-134 309l-240 -309h-102z" />
    <glyph glyph-name="Psi" unicode="&#x3a8;" horiz-adv-x="784" 
d="M304 0l44 249c-173 13 -249 95 -249 224c0 26 3 47 7 71l31 176h86l-33 -187c-3 -19 -6 -39 -6 -60c0 -90 58 -142 177 -151l70 398h86l-71 -399c148 9 223 74 247 208l34 191h84l-36 -204c-30 -169 -140 -261 -342 -269l-43 -247h-86z" />
    <glyph glyph-name="uni03A9" unicode="&#x3a9;" horiz-adv-x="717" 
d="M412 655c-145 0 -252 -126 -252 -309c0 -118 45 -206 118 -281l-11 -65h-275l14 77h174c-67 67 -108 156 -108 272c0 220 149 383 342 383c162 0 279 -114 279 -303c0 -144 -68 -266 -190 -352h168l-14 -77h-271l11 65c133 97 208 209 208 358c0 152 -78 232 -193 232z
" />
    <glyph glyph-name="Iotadieresis" unicode="&#x3aa;" horiz-adv-x="289" 
d="M55 0l127 720h88l-127 -720h-88zM199 827c0 -28 -20 -49 -49 -49s-49 21 -49 49s20 49 49 49s49 -21 49 -49zM389 827c0 -28 -20 -49 -49 -49s-49 21 -49 49s20 49 49 49s49 -21 49 -49z" />
    <glyph glyph-name="Upsilondieresis" unicode="&#x3ab;" horiz-adv-x="611" 
d="M217 0l54 305l-166 415h87l132 -330l248 330h98l-311 -415l-54 -305h-88zM359 827c0 -28 -20 -49 -49 -49s-49 21 -49 49s20 49 49 49s49 -21 49 -49zM549 827c0 -28 -20 -49 -49 -49s-49 21 -49 49s20 49 49 49s49 -21 49 -49z" />
    <glyph glyph-name="alphatonos" unicode="&#x3ac;" horiz-adv-x="669" 
d="M576 510h90c-62 -102 -117 -190 -161 -258l62 -252h-84l-37 169c-91 -131 -156 -181 -238 -181c-104 0 -171 79 -171 213c0 169 108 321 259 321c84 0 133 -48 179 -186c29 48 63 108 101 174zM225 58c58 0 107 49 202 198c-43 158 -79 192 -134 192
c-104 0 -170 -123 -170 -243c0 -96 43 -147 102 -147zM372 570h-69l74 150h105z" />
    <glyph glyph-name="epsilontonos" unicode="&#x3ad;" horiz-adv-x="464" 
d="M82 363c0 91 85 159 212 159c67 0 124 -19 168 -45l-34 -67c-41 25 -85 42 -136 42c-72 0 -124 -35 -124 -86c0 -43 36 -72 95 -72h80l-11 -66h-73c-80 0 -151 -31 -151 -95c0 -53 47 -77 113 -77c60 0 111 20 158 48l10 -69c-48 -28 -108 -47 -178 -47
c-103 0 -189 41 -189 131c0 69 51 122 133 143c-50 19 -73 54 -73 101zM321 570h-69l74 150h105z" />
    <glyph glyph-name="etatonos" unicode="&#x3ae;" horiz-adv-x="568" 
d="M31 0l90 510h86l-15 -82c49 51 117 94 199 94c64 0 129 -26 129 -120c0 -12 -1 -30 -4 -45l-100 -567h-86l99 561c2 11 4 19 4 31c0 49 -34 65 -76 65c-67 0 -125 -41 -177 -92l-63 -355h-86zM363 570h-69l74 150h105z" />
    <glyph glyph-name="iotatonos" unicode="&#x3af;" horiz-adv-x="283" 
d="M54 124l68 386h86l-68 -385c-1 -8 -3 -16 -3 -26c0 -27 16 -36 42 -36c16 0 36 3 52 7l-13 -68c-20 -4 -40 -8 -64 -8c-67 0 -103 31 -103 93c0 15 2 30 3 37zM197 570h-69l74 150h105z" />
    <glyph glyph-name="upsilondieresistonos" unicode="&#x3b0;" horiz-adv-x="560" 
d="M401 510h89c21 -56 29 -128 29 -183c0 -205 -109 -339 -275 -339c-99 0 -185 48 -185 171c0 19 2 34 6 56l52 295h86l-55 -311c-2 -12 -4 -28 -4 -42c0 -67 46 -99 103 -99c97 0 186 91 186 270c0 54 -8 125 -32 182zM365 676h-70l50 110h98zM281 617
c0 -28 -20 -49 -49 -49s-49 21 -49 49s20 49 49 49s49 -21 49 -49zM471 617c0 -28 -20 -49 -49 -49s-49 21 -49 49s20 49 49 49s49 -21 49 -49z" />
    <glyph glyph-name="alpha" unicode="&#x3b1;" horiz-adv-x="669" 
d="M576 510h90c-62 -102 -117 -190 -161 -258l62 -252h-84l-37 169c-91 -131 -156 -181 -238 -181c-104 0 -171 79 -171 213c0 169 108 321 259 321c84 0 133 -48 179 -186c29 48 63 108 101 174zM225 58c58 0 107 49 202 198c-43 158 -79 192 -134 192
c-104 0 -170 -123 -170 -243c0 -96 43 -147 102 -147z" />
    <glyph glyph-name="beta" unicode="&#x3b2;" horiz-adv-x="584" 
d="M444 208c0 99 -70 146 -176 146l13 70c97 0 182 42 182 135c0 72 -51 103 -110 103c-69 0 -126 -42 -145 -147l-72 -402c44 -34 92 -54 149 -54c94 0 159 54 159 149zM355 732c102 0 191 -53 191 -165c0 -95 -64 -153 -151 -178c87 -28 135 -91 135 -183
c0 -136 -103 -218 -238 -218c-62 0 -119 17 -168 53l-44 -251h-86l130 738c25 141 119 204 231 204z" />
    <glyph glyph-name="gamma" unicode="&#x3b3;" horiz-adv-x="499" 
d="M230 129c0 -11 0 -21 -1 -31c84 98 182 246 197 412h89c-16 -212 -211 -454 -264 -510l-37 -211h-86l23 125c6 34 9 72 9 114c0 173 -52 386 -94 482h87c47 -104 77 -265 77 -381z" />
    <glyph glyph-name="delta" unicode="&#x3b4;" horiz-adv-x="563" 
d="M538 675l-34 -67c-43 31 -97 55 -151 55c-55 0 -92 -24 -92 -58c0 -89 252 -156 252 -373c0 -149 -119 -244 -262 -244c-123 0 -217 71 -217 206c0 157 125 229 239 266c-51 42 -95 84 -95 143c0 80 79 129 177 129c69 0 136 -24 183 -57zM430 229c0 84 -49 139 -104 187
c-88 -28 -206 -84 -206 -219c0 -96 58 -141 136 -141c92 0 174 65 174 173z" />
    <glyph glyph-name="epsilon" unicode="&#x3b5;" horiz-adv-x="464" 
d="M82 363c0 91 85 159 212 159c67 0 124 -19 168 -45l-34 -67c-41 25 -85 42 -136 42c-72 0 -124 -35 -124 -86c0 -43 36 -72 95 -72h80l-11 -66h-73c-80 0 -151 -31 -151 -95c0 -53 47 -77 113 -77c60 0 111 20 158 48l10 -69c-48 -28 -108 -47 -178 -47
c-103 0 -189 41 -189 131c0 69 51 122 133 143c-50 19 -73 54 -73 101z" />
    <glyph glyph-name="zeta" unicode="&#x3b6;" horiz-adv-x="456" 
d="M302 -49c0 90 -270 25 -270 229c0 152 151 315 336 472c-21 -2 -41 -2 -94 -2h-140l13 70h343l-11 -58c-189 -153 -361 -339 -361 -471c0 -162 256 -75 256 -221c0 -49 -29 -90 -66 -132l-58 28c27 31 52 57 52 85z" />
    <glyph glyph-name="eta" unicode="&#x3b7;" horiz-adv-x="568" 
d="M31 0l90 510h86l-15 -82c49 51 117 94 199 94c64 0 129 -26 129 -120c0 -12 -1 -30 -4 -45l-100 -567h-86l99 561c2 11 4 19 4 31c0 49 -34 65 -76 65c-67 0 -125 -41 -177 -92l-63 -355h-86z" />
    <glyph glyph-name="theta" unicode="&#x3b8;" horiz-adv-x="547" 
d="M246 -12c-120 0 -195 94 -195 285c0 223 102 459 292 459c120 0 195 -94 195 -285c0 -223 -102 -459 -292 -459zM251 55c110 0 172 133 193 284h-304c-2 -25 -3 -49 -3 -73c0 -150 40 -211 114 -211zM337 663c-101 0 -164 -115 -188 -254h302c0 16 1 24 1 47
c0 146 -41 207 -115 207z" />
    <glyph glyph-name="iota" unicode="&#x3b9;" horiz-adv-x="283" 
d="M54 124l68 386h86l-68 -385c-1 -8 -3 -16 -3 -26c0 -27 16 -36 42 -36c16 0 36 3 52 7l-13 -68c-20 -4 -40 -8 -64 -8c-67 0 -103 31 -103 93c0 15 2 30 3 37z" />
    <glyph glyph-name="kappa" unicode="&#x3ba;" horiz-adv-x="531" 
d="M373 0l-129 267l-96 -89l-31 -178h-86l90 510h86l-42 -235c194 203 235 241 360 241l-13 -69c-64 0 -97 -22 -210 -126l157 -321h-86z" />
    <glyph glyph-name="lambda" unicode="&#x3bb;" horiz-adv-x="523" 
d="M489 67l-12 -68c-8 -3 -27 -5 -42 -5c-53 0 -85 23 -99 109l-51 309l-230 -412h-92l282 486h26l-16 118c-6 42 -22 54 -58 54c-14 0 -27 -2 -40 -4l12 68c10 3 34 6 55 6c60 0 98 -26 112 -113l83 -500c7 -41 17 -51 43 -51c9 0 19 1 27 3z" />
    <glyph glyph-name="uni03BC" unicode="&#x3bc;" horiz-adv-x="575" 
d="M543 510l-90 -510h-86l15 82c-49 -51 -118 -94 -197 -94c-30 0 -57 6 -78 23c-13 -114 -22 -165 -30 -221h-83l127 720h86l-62 -353c-2 -11 -4 -19 -4 -31c0 -49 34 -65 76 -65c67 0 125 41 177 92l63 357h86z" />
    <glyph glyph-name="nu" unicode="&#x3bd;" horiz-adv-x="505" 
d="M164 0l-98 510h84l76 -418c80 97 184 246 200 418h89c-16 -193 -178 -416 -264 -510h-87z" />
    <glyph glyph-name="xi" unicode="&#x3be;" horiz-adv-x="456" 
d="M303 -50c0 95 -273 18 -273 223c0 102 67 175 185 203c-64 21 -103 69 -103 134c0 107 106 210 352 210l-13 -70c-192 0 -254 -70 -254 -139c0 -65 54 -101 148 -101h48l-13 -70h-25c-155 0 -239 -58 -239 -153c0 -166 259 -69 259 -217c0 -51 -31 -91 -66 -132l-58 28
c31 34 52 57 52 84z" />
    <glyph glyph-name="omicron" unicode="&#x3bf;" horiz-adv-x="555" 
d="M253 55c110 0 177 111 177 235c0 110 -53 163 -128 163c-110 0 -177 -111 -177 -235c0 -110 53 -163 128 -163zM249 -12c-117 0 -210 76 -210 229c0 167 110 305 267 305c117 0 210 -76 210 -229c0 -167 -110 -305 -267 -305z" />
    <glyph glyph-name="pi" unicode="&#x3c0;" horiz-adv-x="632" 
d="M57 440l13 70h570l-13 -70h-87l-56 -317c-1 -6 -3 -17 -3 -27c0 -23 11 -33 37 -33c12 0 30 2 44 6l-13 -68c-18 -4 -38 -7 -59 -7c-63 0 -96 27 -96 89c0 11 1 24 4 40l56 317h-224c-29 -160 -60 -312 -94 -440h-88c36 128 68 280 96 440h-87z" />
    <glyph glyph-name="rho" unicode="&#x3c1;" horiz-adv-x="568" 
d="M266 -12c-54 0 -103 15 -147 45l-44 -243h-85l87 495c27 154 116 237 242 237c115 0 209 -68 209 -233c0 -181 -112 -301 -262 -301zM163 283l-32 -180c36 -28 78 -44 125 -44c109 0 187 87 187 226c0 118 -57 163 -127 163c-73 0 -132 -49 -153 -165z" />
    <glyph glyph-name="sigma1" unicode="&#x3c2;" horiz-adv-x="456" 
d="M375 -28c0 -53 -32 -94 -66 -134l-58 28c28 31 52 56 52 86c0 97 -267 5 -267 257c0 198 164 307 408 307l-13 -70c-176 0 -309 -74 -309 -227c0 -212 253 -99 253 -247z" />
    <glyph glyph-name="sigma" unicode="&#x3c3;" horiz-adv-x="569" 
d="M584 510l-13 -70h-142c49 -43 81 -104 81 -180c0 -135 -102 -272 -258 -272c-122 0 -212 85 -212 230c0 170 123 292 332 292h212zM425 264c0 73 -30 134 -82 176c-144 -7 -217 -97 -217 -221c0 -108 56 -164 132 -164c102 0 167 102 167 209z" />
    <glyph glyph-name="tau" unicode="&#x3c4;" horiz-adv-x="454" 
d="M57 440l13 70h405l-13 -70h-165l-55 -315c-1 -8 -3 -16 -3 -26c0 -27 16 -36 42 -36c16 0 36 3 52 7l-13 -68c-20 -4 -40 -8 -64 -8c-67 0 -103 31 -103 93c0 15 2 30 3 37l55 316h-154z" />
    <glyph glyph-name="upsilon" unicode="&#x3c5;" horiz-adv-x="560" 
d="M401 510h89c21 -56 29 -128 29 -183c0 -205 -109 -339 -275 -339c-99 0 -185 48 -185 171c0 19 2 34 6 56l52 295h86l-55 -311c-2 -12 -4 -28 -4 -42c0 -67 46 -99 103 -99c97 0 186 91 186 270c0 54 -8 125 -32 182z" />
    <glyph glyph-name="phi" unicode="&#x3c6;" horiz-adv-x="695" 
d="M657 300c0 -191 -130 -308 -319 -314l-34 -196h-83l35 201c-126 19 -216 96 -216 241c0 120 63 213 162 284l69 -26c-94 -69 -148 -152 -148 -255c0 -112 64 -163 145 -177l55 310c18 102 80 154 163 154c110 0 171 -92 171 -222zM404 355l-53 -300
c132 11 223 99 223 245c0 91 -35 150 -88 150c-39 0 -71 -31 -82 -95z" />
    <glyph glyph-name="chi" unicode="&#x3c7;" horiz-adv-x="537" 
d="M400 -216c-56 0 -80 24 -101 98l-62 220l-215 -312h-92l273 387l-63 216c-12 42 -26 53 -52 53c-8 0 -20 -1 -29 -2l12 67c10 3 28 5 44 5c62 0 80 -28 109 -132l41 -146l186 272h92l-244 -347l75 -256c12 -42 27 -53 53 -53c8 0 20 1 29 2l-12 -67c-10 -3 -28 -5 -44 -5
z" />
    <glyph glyph-name="psi" unicode="&#x3c8;" horiz-adv-x="709" 
d="M236 -210l35 199c-120 12 -205 74 -205 201c0 20 2 43 6 65l45 255h82l-48 -272c-3 -16 -4 -33 -4 -45c0 -88 56 -128 136 -137l117 664h82l-117 -664c130 16 219 104 219 274c0 48 -7 123 -29 180h85c20 -59 27 -124 27 -176c0 -214 -118 -336 -315 -347l-34 -197h-82z
" />
    <glyph glyph-name="omega" unicode="&#x3c9;" horiz-adv-x="716" 
d="M525 510h88c36 -59 61 -143 61 -233c0 -179 -99 -289 -214 -289c-61 0 -107 31 -124 107c-30 -73 -78 -107 -140 -107c-85 0 -161 63 -161 212c0 126 54 233 139 310h97c-89 -74 -153 -176 -153 -308c0 -103 39 -144 86 -144c46 0 84 41 101 137l22 127h84l-22 -127
c-3 -18 -4 -34 -4 -46c0 -63 30 -91 74 -91c71 0 132 74 132 215c0 94 -27 180 -66 237z" />
    <glyph glyph-name="iotadieresis" unicode="&#x3ca;" horiz-adv-x="283" 
d="M54 124l68 386h86l-68 -385c-1 -8 -3 -16 -3 -26c0 -27 16 -36 42 -36c16 0 36 3 52 7l-13 -68c-20 -4 -40 -8 -64 -8c-67 0 -103 31 -103 93c0 15 2 30 3 37zM139 623c0 -28 -20 -49 -49 -49s-49 21 -49 49s20 49 49 49s49 -21 49 -49zM329 623c0 -28 -20 -49 -49 -49
s-49 21 -49 49s20 49 49 49s49 -21 49 -49z" />
    <glyph glyph-name="upsilondieresis" unicode="&#x3cb;" horiz-adv-x="560" 
d="M401 510h89c21 -56 29 -128 29 -183c0 -205 -109 -339 -275 -339c-99 0 -185 48 -185 171c0 19 2 34 6 56l52 295h86l-55 -311c-2 -12 -4 -28 -4 -42c0 -67 46 -99 103 -99c97 0 186 91 186 270c0 54 -8 125 -32 182zM283 623c0 -28 -20 -49 -49 -49s-49 21 -49 49
s20 49 49 49s49 -21 49 -49zM473 623c0 -28 -20 -49 -49 -49s-49 21 -49 49s20 49 49 49s49 -21 49 -49z" />
    <glyph glyph-name="omicrontonos" unicode="&#x3cc;" horiz-adv-x="555" 
d="M253 55c110 0 177 111 177 235c0 110 -53 163 -128 163c-110 0 -177 -111 -177 -235c0 -110 53 -163 128 -163zM249 -12c-117 0 -210 76 -210 229c0 167 110 305 267 305c117 0 210 -76 210 -229c0 -167 -110 -305 -267 -305zM343 570h-69l74 150h105z" />
    <glyph glyph-name="upsilontonos" unicode="&#x3cd;" horiz-adv-x="560" 
d="M401 510h89c21 -56 29 -128 29 -183c0 -205 -109 -339 -275 -339c-99 0 -185 48 -185 171c0 19 2 34 6 56l52 295h86l-55 -311c-2 -12 -4 -28 -4 -42c0 -67 46 -99 103 -99c97 0 186 91 186 270c0 54 -8 125 -32 182zM340 570h-69l74 150h105z" />
    <glyph glyph-name="omegatonos" unicode="&#x3ce;" horiz-adv-x="716" 
d="M525 510h88c36 -59 61 -143 61 -233c0 -179 -99 -289 -214 -289c-61 0 -107 31 -124 107c-30 -73 -78 -107 -140 -107c-85 0 -161 63 -161 212c0 126 54 233 139 310h97c-89 -74 -153 -176 -153 -308c0 -103 39 -144 86 -144c46 0 84 41 101 137l22 127h84l-22 -127
c-3 -18 -4 -34 -4 -46c0 -63 30 -91 74 -91c71 0 132 74 132 215c0 94 -27 180 -66 237zM434 570h-69l74 150h105z" />
    <glyph glyph-name="uni0400" unicode="&#x400;" horiz-adv-x="588" 
d="M47 0l127 720h444l-14 -78h-356l-41 -232h313l-13 -75h-313l-45 -258h359l-14 -77h-447zM474 779h-67l-107 130h96z" />
    <glyph glyph-name="uni0401" unicode="&#x401;" horiz-adv-x="588" 
d="M47 0l127 720h444l-14 -78h-356l-41 -232h313l-13 -75h-313l-45 -258h359l-14 -77h-447zM370 827c0 -28 -20 -49 -49 -49s-49 21 -49 49s20 49 49 49s49 -21 49 -49zM560 827c0 -28 -20 -49 -49 -49s-49 21 -49 49s20 49 49 49s49 -21 49 -49z" />
    <glyph glyph-name="uni0402" unicode="&#x402;" horiz-adv-x="782" 
d="M97 642l14 78h508l-14 -78h-221l-37 -217c70 22 127 29 169 29c135 0 210 -70 210 -205c0 -156 -100 -255 -269 -255c-17 0 -48 1 -72 5l12 75c18 -5 43 -6 57 -6c119 0 184 70 184 178c0 90 -45 131 -143 131c-37 0 -92 -6 -162 -29l-61 -348h-88l113 642h-200z" />
    <glyph glyph-name="uni0403" unicode="&#x403;" horiz-adv-x="532" 
d="M47 0l127 720h411l-14 -78h-323l-113 -642h-88zM404 779h-73l109 130h110z" />
    <glyph glyph-name="uni0404" unicode="&#x404;" horiz-adv-x="606" 
d="M512 127l13 -76c-52 -36 -122 -63 -200 -63c-151 0 -261 100 -261 306c0 228 134 438 373 438c80 0 142 -23 194 -59l-39 -74c-49 35 -98 55 -161 55c-149 0 -239 -112 -269 -251h329l-13 -75h-326v-29c0 -162 75 -235 184 -235c66 0 126 27 176 63z" />
    <glyph glyph-name="uni0405" unicode="&#x405;" horiz-adv-x="580" 
d="M20 54l39 73c61 -38 123 -63 193 -63c106 0 178 58 178 136c0 163 -309 114 -309 323c0 122 106 209 255 209c78 0 146 -24 202 -63l-39 -75c-52 36 -105 60 -169 60c-96 0 -161 -52 -161 -121c0 -150 309 -101 309 -321c0 -132 -110 -224 -272 -224
c-82 0 -162 24 -226 66z" />
    <glyph glyph-name="uni0406" unicode="&#x406;" horiz-adv-x="289" 
d="M55 0l127 720h88l-127 -720h-88z" />
    <glyph glyph-name="uni0407" unicode="&#x407;" horiz-adv-x="289" 
d="M55 0l127 720h88l-127 -720h-88zM199 827c0 -28 -20 -49 -49 -49s-49 21 -49 49s20 49 49 49s49 -21 49 -49zM389 827c0 -28 -20 -49 -49 -49s-49 21 -49 49s20 49 49 49s49 -21 49 -49z" />
    <glyph glyph-name="uni0408" unicode="&#x408;" horiz-adv-x="406" 
d="M-15 3l13 78c25 -6 57 -11 86 -11c95 0 127 51 143 140l90 510h87l-92 -526c-22 -123 -71 -200 -228 -200c-31 0 -70 3 -99 9z" />
    <glyph glyph-name="uni0409" unicode="&#x409;" horiz-adv-x="1042" 
d="M723 0h-256l113 642h-241l-75 -310c-57 -238 -104 -338 -270 -338c-23 0 -35 2 -40 3l13 76c5 -1 14 -2 25 -2c109 0 145 90 192 286l87 363h410l-54 -307h150c139 0 221 -67 221 -192c0 -138 -99 -221 -275 -221zM567 74h156c128 0 188 54 188 146
c0 82 -47 117 -141 117h-156z" />
    <glyph glyph-name="uni040A" unicode="&#x40a;" horiz-adv-x="1037" 
d="M719 0h-257l60 335h-329l-59 -335h-87l127 720h87l-54 -308h328l54 308h87l-54 -308h151c138 0 221 -62 221 -190c0 -140 -99 -222 -275 -222zM561 74h158c128 0 188 55 188 146c0 81 -48 116 -142 116h-157z" />
    <glyph glyph-name="uni040B" unicode="&#x40b;" horiz-adv-x="782" 
d="M97 642l14 78h508l-14 -78h-221l-37 -217c65 20 123 29 177 29c114 0 204 -41 204 -165c0 -18 -2 -39 -5 -57l-41 -232h-88l41 232c3 15 5 30 5 44c0 75 -59 101 -139 101c-42 0 -99 -7 -168 -30l-61 -347h-88l113 642h-200z" />
    <glyph glyph-name="uni040C" unicode="&#x40c;" horiz-adv-x="650" 
d="M584 0h-92l-83 207c-35 87 -63 128 -149 128h-66l-59 -335h-88l127 720h88l-56 -311h65c68 0 90 20 122 71l71 111c59 93 91 135 218 135l-12 -75c-70 0 -90 -22 -122 -72l-71 -111c-30 -47 -56 -80 -110 -97c66 -23 96 -73 129 -154zM438 779h-73l109 130h110z" />
    <glyph glyph-name="uni040D" unicode="&#x40d;" horiz-adv-x="713" 
d="M702 720l-127 -720h-84l99 560l-462 -560h-81l127 720h84l-99 -561l462 561h81zM515 779h-67l-107 130h96z" />
    <glyph glyph-name="uni040E" unicode="&#x40e;" horiz-adv-x="611" 
d="M245 242l-140 478h86l120 -419l264 419h95l-313 -490c-119 -186 -180 -236 -296 -236c-23 0 -47 2 -67 5l13 78c16 -4 36 -6 57 -6c75 0 110 26 207 171h-26zM405 779c-92 0 -137 38 -137 102c0 8 0 18 2 28h65c-1 -7 -2 -14 -2 -21c0 -33 20 -57 74 -57
c62 0 90 32 98 78h65c-14 -81 -61 -130 -165 -130z" />
    <glyph glyph-name="uni040F" unicode="&#x40f;" horiz-adv-x="706" 
d="M696 720l-127 -720h-218l-28 -154h-82l28 154h-222l127 720h88l-114 -644h346l114 644h88z" />
    <glyph glyph-name="uni0410" unicode="&#x410;" horiz-adv-x="677" 
d="M474 720l125 -720h-86l-33 195h-299l-101 -195h-93l384 720h103zM408 632l-190 -365h250z" />
    <glyph glyph-name="uni0411" unicode="&#x411;" horiz-adv-x="622" 
d="M303 0h-256l127 720h426l-14 -78h-339l-40 -229h150c139 0 221 -67 221 -192c0 -138 -99 -221 -275 -221zM147 74h156c128 0 188 54 188 146c0 82 -47 117 -141 117h-156z" />
    <glyph glyph-name="uni0412" unicode="&#x412;" horiz-adv-x="648" 
d="M46 0l128 720h219c133 0 219 -56 219 -174c0 -87 -47 -152 -141 -181c77 -25 111 -82 111 -156c0 -121 -90 -209 -278 -209h-258zM147 72h157c129 0 192 53 192 142c0 81 -52 117 -146 117h-158zM205 401h138c121 0 183 50 183 135c0 77 -50 110 -139 110h-139z" />
    <glyph glyph-name="uni0413" unicode="&#x413;" horiz-adv-x="532" 
d="M47 0l127 720h411l-14 -78h-323l-113 -642h-88z" />
    <glyph glyph-name="uni0414" unicode="&#x414;" horiz-adv-x="735" 
d="M-40 -154l41 226h42c60 52 150 160 210 422l52 226h412l-115 -648h60l-41 -226h-82l28 154h-497l-28 -154h-82zM373 642l-44 -190c-50 -216 -128 -325 -182 -376h368l101 566h-243z" />
    <glyph glyph-name="uni0415" unicode="&#x415;" horiz-adv-x="588" 
d="M47 0l127 720h444l-14 -78h-356l-41 -232h313l-13 -75h-313l-45 -258h359l-14 -77h-447z" />
    <glyph glyph-name="uni0416" unicode="&#x416;" horiz-adv-x="982" 
d="M251 473l-34 106c-16 50 -30 72 -95 72l12 75c105 0 136 -43 167 -139l34 -107c16 -50 29 -71 95 -71h43l56 311h88l-56 -311h43c68 0 90 20 122 71l71 111c59 93 91 135 218 135l-12 -75c-70 0 -90 -22 -122 -72l-71 -111c-30 -47 -56 -80 -110 -97
c66 -23 96 -73 129 -154l88 -217h-92l-83 207c-35 87 -63 128 -149 128h-44l-59 -335h-88l59 335h-41c-82 0 -126 -40 -194 -133l-147 -202h-103l168 227c57 77 101 127 182 147c-42 17 -60 51 -75 99z" />
    <glyph glyph-name="uni0417" unicode="&#x417;" horiz-adv-x="560" 
d="M497 207c0 -124 -112 -219 -277 -219c-85 0 -162 25 -225 63l38 72c58 -35 122 -59 191 -59c113 0 185 65 185 150c0 76 -58 122 -165 122h-61l12 73h69c103 0 198 45 198 138c0 75 -61 107 -130 107c-67 0 -134 -30 -186 -68l-14 78c53 40 131 68 209 68
c114 0 209 -59 209 -173c0 -97 -69 -163 -173 -189c79 -28 120 -88 120 -163z" />
    <glyph glyph-name="uni0418" unicode="&#x418;" horiz-adv-x="713" 
d="M702 720l-127 -720h-84l99 560l-462 -560h-81l127 720h84l-99 -561l462 561h81z" />
    <glyph glyph-name="uni0419" unicode="&#x419;" horiz-adv-x="713" 
d="M702 720l-127 -720h-84l99 560l-462 -560h-81l127 720h84l-99 -561l462 561h81zM456 779c-92 0 -137 38 -137 102c0 8 0 18 2 28h65c-1 -7 -2 -14 -2 -21c0 -33 20 -57 74 -57c62 0 90 32 98 78h65c-14 -81 -61 -130 -165 -130z" />
    <glyph glyph-name="uni041A" unicode="&#x41a;" horiz-adv-x="650" 
d="M584 0h-92l-83 207c-35 87 -63 128 -149 128h-66l-59 -335h-88l127 720h88l-56 -311h65c68 0 90 20 122 71l71 111c59 93 91 135 218 135l-12 -75c-70 0 -90 -22 -122 -72l-71 -111c-30 -47 -56 -80 -110 -97c66 -23 96 -73 129 -154z" />
    <glyph glyph-name="uni041B" unicode="&#x41b;" horiz-adv-x="711" 
d="M-9 -6c-19 0 -32 2 -37 3l13 76c5 -1 14 -2 25 -2c107 0 145 87 192 286l87 363h430l-127 -720h-88l113 642h-260l-75 -310c-56 -234 -101 -338 -273 -338z" />
    <glyph glyph-name="uni041C" unicode="&#x41c;" horiz-adv-x="917" 
d="M332 720l71 -437c14 -83 20 -119 25 -180h2c24 53 52 109 89 178l235 439h113l-71 -720h-88l49 428c6 51 18 153 25 192h-2c-12 -31 -62 -133 -90 -184l-238 -436h-81l-76 437c-22 126 -22 126 -27 183h-2c-7 -39 -32 -139 -47 -200l-102 -420h-86l187 720h114z" />
    <glyph glyph-name="uni041D" unicode="&#x41d;" horiz-adv-x="706" 
d="M47 0l127 720h88l-54 -308h346l54 308h88l-127 -720h-88l59 335h-346l-59 -335h-88z" />
    <glyph glyph-name="uni041E" unicode="&#x41e;" horiz-adv-x="717" 
d="M346 64c156 0 256 153 256 340c0 166 -78 250 -194 250c-156 0 -256 -153 -256 -340c0 -166 78 -250 194 -250zM343 -12c-161 0 -279 117 -279 325c0 230 143 419 347 419c161 0 279 -117 279 -325c0 -230 -143 -419 -347 -419z" />
    <glyph glyph-name="uni041F" unicode="&#x41f;" horiz-adv-x="706" 
d="M47 0l127 720h522l-127 -720h-88l113 642h-346l-113 -642h-88z" />
    <glyph glyph-name="uni0420" unicode="&#x420;" horiz-adv-x="622" 
d="M47 0l127 720h234c138 0 224 -65 224 -196c0 -140 -100 -226 -278 -226h-167l-52 -298h-88zM248 642l-47 -269h153c128 0 191 55 191 148c0 84 -51 121 -144 121h-153z" />
    <glyph glyph-name="uni0421" unicode="&#x421;" horiz-adv-x="606" 
d="M512 127l13 -76c-52 -36 -122 -63 -199 -63c-152 0 -262 100 -262 306c0 228 134 438 373 438c80 0 142 -23 194 -59l-39 -74c-49 35 -98 55 -161 55c-185 0 -279 -173 -279 -355c0 -162 75 -235 184 -235c66 0 126 27 176 63z" />
    <glyph glyph-name="uni0422" unicode="&#x422;" horiz-adv-x="565" 
d="M194 0l113 642h-210l14 78h508l-14 -78h-210l-113 -642h-88z" />
    <glyph glyph-name="uni0423" unicode="&#x423;" horiz-adv-x="611" 
d="M245 242l-140 478h86l120 -419l264 419h95l-313 -490c-119 -186 -180 -236 -296 -236c-23 0 -47 2 -67 5l13 78c16 -4 36 -6 57 -6c75 0 110 26 207 171h-26z" />
    <glyph glyph-name="uni0424" unicode="&#x424;" horiz-adv-x="798" 
d="M309 -12l15 87c-151 21 -255 113 -255 261c0 171 138 308 357 313l15 83h86l-16 -87c152 -22 256 -113 256 -261c0 -172 -139 -308 -358 -314l-14 -82h-86zM155 338c0 -114 72 -180 181 -197l78 439c-162 -9 -259 -111 -259 -242zM681 380c0 113 -73 179 -182 196
l-78 -439c162 10 260 112 260 243z" />
    <glyph glyph-name="uni0425" unicode="&#x425;" horiz-adv-x="636" 
d="M-11 0l295 371l-155 349h91l124 -287l224 287h102l-279 -349l166 -371h-92l-134 309l-240 -309h-102z" />
    <glyph glyph-name="uni0426" unicode="&#x426;" horiz-adv-x="722" 
d="M696 720l-115 -648h60l-41 -226h-82l28 154h-499l127 720h88l-114 -644h346l114 644h88z" />
    <glyph glyph-name="uni0427" unicode="&#x427;" horiz-adv-x="645" 
d="M321 366c44 0 100 7 169 29l57 325h88l-127 -720h-88l57 321c-65 -20 -121 -30 -179 -30c-114 0 -202 38 -202 166c0 14 1 38 5 59l36 204h88l-37 -210c-3 -15 -5 -29 -5 -43c0 -79 60 -101 138 -101z" />
    <glyph glyph-name="uni0428" unicode="&#x428;" horiz-adv-x="1060" 
d="M1050 720l-127 -720h-876l127 720h88l-114 -644h306l114 644h88l-114 -644h306l114 644h88z" />
    <glyph glyph-name="uni0429" unicode="&#x429;" horiz-adv-x="1078" 
d="M1050 720l-115 -648h60l-41 -226h-82l28 154h-853l127 720h88l-114 -644h306l114 644h88l-114 -644h306l114 644h88z" />
    <glyph glyph-name="uni042A" unicode="&#x42a;" horiz-adv-x="758" 
d="M97 642l14 78h286l-54 -307h150c139 0 221 -67 221 -192c0 -138 -99 -221 -275 -221h-256l113 642h-199zM283 74h156c128 0 188 54 188 146c0 82 -47 117 -141 117h-156z" />
    <glyph glyph-name="uni042B" unicode="&#x42b;" horiz-adv-x="862" 
d="M638 0l127 720h86l-127 -720h-86zM303 0h-256l127 720h87l-54 -307h150c139 0 221 -68 221 -191c0 -140 -99 -222 -275 -222zM147 74h156c128 0 188 54 188 146c0 82 -47 117 -141 117h-156z" />
    <glyph glyph-name="uni042C" unicode="&#x42c;" horiz-adv-x="622" 
d="M303 0h-256l127 720h87l-54 -307h150c139 0 221 -68 221 -191c0 -140 -99 -222 -275 -222zM147 74h156c128 0 188 54 188 146c0 82 -47 117 -141 117h-156z" />
    <glyph glyph-name="uni042D" unicode="&#x42d;" horiz-adv-x="606" 
d="M154 328l13 75h325v17c0 155 -70 234 -178 234c-63 0 -125 -27 -174 -64l-12 79c52 36 121 63 197 63c152 0 254 -108 254 -307c0 -228 -134 -437 -374 -437c-80 0 -144 23 -197 60l38 73c52 -36 99 -57 164 -57c153 0 246 119 273 264h-329z" />
    <glyph glyph-name="uni042E" unicode="&#x42e;" horiz-adv-x="944" 
d="M594 -12c-147 0 -255 112 -255 321v26h-145l-59 -335h-88l127 720h88l-54 -307h140c33 182 152 319 314 319c147 0 255 -113 255 -322c0 -231 -132 -422 -323 -422zM598 63c140 0 232 155 232 344c0 164 -69 248 -172 248c-140 0 -232 -155 -232 -344
c0 -164 69 -248 172 -248z" />
    <glyph glyph-name="uni042F" unicode="&#x42f;" horiz-adv-x="676" 
d="M508 321h-151l-242 -321h-102l253 332c-81 22 -128 78 -128 170c0 133 98 218 272 218h255l-127 -720h-87zM366 390h154l45 253h-155c-127 0 -185 -52 -185 -140c0 -80 47 -113 141 -113z" />
    <glyph glyph-name="uni0430" unicode="&#x430;" horiz-adv-x="565" 
d="M454 0h-84c-3 6 -5 14 -5 32c0 13 1 20 4 33c-42 -48 -96 -78 -161 -78c-96 0 -169 67 -169 214c0 175 104 321 252 321c56 0 103 -21 149 -73l11 61h82l-69 -391c-8 -47 -12 -71 -12 -97c0 -9 0 -17 2 -22zM235 59c49 0 99 25 146 78l43 248c-37 41 -73 62 -122 62
c-112 0 -177 -109 -177 -237c0 -107 45 -151 110 -151z" />
    <glyph glyph-name="uni0431" unicode="&#x431;" horiz-adv-x="555" 
d="M310 433c-60 0 -118 -33 -170 -90c-3 -32 -4 -46 -4 -68c0 -162 53 -219 128 -219c108 0 166 116 166 228c0 100 -47 149 -120 149zM400 647c-152 -1 -228 -105 -254 -227c51 52 115 87 187 87c107 0 182 -80 182 -217c0 -158 -100 -302 -257 -302
c-121 0 -208 86 -208 290c0 222 104 448 350 448c78 0 110 1 141 10l-13 -78c-25 -10 -49 -11 -128 -11z" />
    <glyph glyph-name="uni0432" unicode="&#x432;" horiz-adv-x="528" 
d="M490 395c0 -51 -33 -99 -121 -130c69 -22 100 -64 100 -117c0 -90 -89 -160 -221 -160c-138 0 -209 76 -209 213c0 176 117 321 286 321c109 0 165 -61 165 -127zM252 229c-38 -6 -81 -10 -129 -12v-13c0 -100 44 -150 128 -150c79 0 134 44 134 99c0 48 -44 76 -133 76z
M317 454c-88 0 -162 -72 -186 -175c207 7 275 52 275 105c0 34 -27 70 -89 70z" />
    <glyph glyph-name="uni0433" unicode="&#x433;" horiz-adv-x="456" 
d="M130 408l-10 70c42 25 98 44 155 44c88 0 160 -45 160 -133c0 -189 -328 -122 -328 -259c0 -49 41 -74 100 -74c54 0 107 20 154 45l10 -68c-46 -25 -110 -45 -173 -45c-96 0 -175 46 -175 143c0 198 328 134 328 259c0 39 -33 62 -86 62c-48 0 -93 -19 -135 -44z" />
    <glyph glyph-name="uni0434" unicode="&#x434;" horiz-adv-x="547" 
d="M293 647c-74 0 -94 1 -122 11l14 78c26 -9 44 -10 108 -10c147 0 230 -96 230 -308c0 -242 -107 -430 -282 -430c-110 0 -202 74 -202 231c0 169 106 288 248 288c60 0 107 -21 153 -65c-6 154 -63 205 -147 205zM247 56c109 0 178 126 189 306c-45 46 -90 71 -143 71
c-99 0 -168 -87 -168 -216c0 -113 54 -161 122 -161z" />
    <glyph glyph-name="uni0435" unicode="&#x435;" horiz-adv-x="528" 
d="M325 522c117 0 173 -67 173 -141c0 -89 -80 -159 -295 -159c-26 0 -52 1 -78 4v-13c0 -101 47 -157 137 -157c51 0 110 18 163 49l11 -69c-55 -30 -122 -48 -186 -48c-132 0 -210 77 -210 220c0 175 117 314 285 314zM320 456c-93 0 -163 -72 -187 -170
c24 -2 46 -3 72 -3c161 0 212 40 212 95c0 43 -32 78 -97 78z" />
    <glyph glyph-name="uni0436" unicode="&#x436;" horiz-adv-x="778" 
d="M193 325l-29 78c-11 31 -24 44 -74 44l12 69c83 0 112 -31 137 -99l29 -78c11 -30 24 -43 74 -43h11l38 214h86l-38 -214h10c51 0 67 12 88 43l56 82c44 64 70 95 175 95l-12 -69c-50 0 -67 -13 -88 -44l-56 -82c-17 -25 -36 -47 -72 -56c50 -16 72 -51 96 -104l71 -161
h-89l-63 148c-26 60 -45 84 -116 84h-11l-41 -232h-86l41 232h-8c-66 0 -99 -24 -146 -87l-109 -145h-98l131 170c40 52 71 84 133 98c-29 10 -42 31 -52 57z" />
    <glyph glyph-name="uni0437" unicode="&#x437;" horiz-adv-x="474" 
d="M409 147c0 -91 -93 -159 -228 -159c-71 0 -134 19 -183 48l33 65c46 -27 94 -45 149 -45c82 0 143 39 143 95c0 46 -41 77 -142 77h-41l12 66h50c102 0 155 32 155 88c0 49 -42 70 -97 70c-52 0 -104 -19 -146 -47l-10 69c43 28 103 48 167 48c92 0 172 -41 172 -129
c0 -64 -43 -112 -125 -133c63 -22 91 -63 91 -113z" />
    <glyph glyph-name="uni0438" unicode="&#x438;" horiz-adv-x="568" 
d="M537 510l-90 -510h-86l15 82c-49 -51 -117 -94 -199 -94c-63 0 -129 25 -129 119c0 12 1 31 4 46l63 357h86l-62 -353c-2 -11 -4 -19 -4 -31c0 -49 34 -65 76 -65c67 0 125 41 177 92l63 357h86z" />
    <glyph glyph-name="uni0439" unicode="&#x439;" horiz-adv-x="568" 
d="M537 510l-90 -510h-86l15 82c-49 -51 -117 -94 -199 -94c-63 0 -129 25 -129 119c0 12 1 31 4 46l63 357h86l-62 -353c-2 -11 -4 -19 -4 -31c0 -49 34 -65 76 -65c67 0 125 41 177 92l63 357h86zM347 628c62 0 91 39 100 92h65c-15 -88 -63 -144 -167 -144
c-91 0 -136 43 -136 111c0 10 1 20 3 33h65c-2 -9 -2 -17 -2 -25c0 -40 20 -67 72 -67z" />
    <glyph glyph-name="uni043A" unicode="&#x43a;" horiz-adv-x="531" 
d="M459 0h-89l-63 148c-26 60 -45 84 -116 84h-33l-41 -232h-86l90 510h86l-38 -214h32c51 0 67 12 88 43l56 82c44 64 70 95 175 95l-12 -69c-50 0 -67 -13 -88 -44l-56 -82c-17 -25 -36 -47 -72 -56c50 -16 72 -51 96 -104z" />
    <glyph glyph-name="uni043B" unicode="&#x43b;" horiz-adv-x="577" 
d="M194 510h351l-90 -510h-85l77 440h-187c-70 -356 -119 -446 -266 -446c-22 0 -35 2 -40 3l12 67c4 -1 16 -2 26 -2c106 0 134 126 202 448z" />
    <glyph glyph-name="uni043C" unicode="&#x43c;" horiz-adv-x="740" 
d="M576 510h100l-43 -510h-80l28 294c2 21 10 96 16 125h-2c-8 -23 -40 -81 -67 -128l-169 -291h-72l-61 292c-11 53 -19 97 -21 127h-2c-6 -32 -22 -93 -33 -134l-75 -285h-78l139 510h101l60 -304c10 -51 15 -85 20 -119h2c19 41 40 79 64 121z" />
    <glyph glyph-name="uni043D" unicode="&#x43d;" horiz-adv-x="575" 
d="M367 0l41 234h-250l-41 -234h-86l90 510h86l-37 -207h250l37 207h86l-90 -510h-86z" />
    <glyph glyph-name="uni043E" unicode="&#x43e;" horiz-adv-x="555" 
d="M253 55c110 0 177 111 177 235c0 110 -53 163 -128 163c-110 0 -177 -111 -177 -235c0 -110 53 -163 128 -163zM249 -12c-117 0 -210 76 -210 229c0 167 110 305 267 305c117 0 210 -76 210 -229c0 -167 -110 -305 -267 -305z" />
    <glyph glyph-name="uni043F" unicode="&#x43f;" horiz-adv-x="568" 
d="M31 0l90 510h86l-15 -82c49 51 117 94 199 94c64 0 129 -26 129 -120c0 -12 -1 -30 -4 -45l-63 -357h-86l62 351c2 11 4 19 4 31c0 49 -34 65 -76 65c-67 0 -125 -41 -177 -92l-63 -355h-86z" />
    <glyph glyph-name="uni0440" unicode="&#x440;" horiz-adv-x="573" 
d="M121 510h86l-12 -65c43 48 98 77 161 77c99 0 177 -70 177 -219c0 -172 -103 -315 -258 -315c-55 0 -101 18 -148 69l-47 -267h-86zM331 447c-49 0 -100 -24 -149 -77l-44 -249c38 -40 79 -62 130 -62c114 0 179 110 179 235c0 110 -50 153 -116 153z" />
    <glyph glyph-name="uni0441" unicode="&#x441;" horiz-adv-x="465" 
d="M463 480l-33 -67c-35 25 -67 38 -109 38c-124 0 -195 -111 -195 -238c0 -103 47 -155 124 -155c43 0 92 16 128 43l10 -69c-39 -27 -94 -44 -151 -44c-117 0 -197 72 -197 220c0 170 105 314 282 314c60 0 104 -16 141 -42z" />
    <glyph glyph-name="uni0442" unicode="&#x442;" horiz-adv-x="880" 
d="M31 0l90 510h86l-15 -83c49 54 116 95 192 95c56 0 115 -22 121 -101c47 52 117 101 202 101c63 0 125 -27 125 -121c0 -12 -1 -28 -4 -44l-63 -357h-86l62 351c3 16 4 24 4 33c0 48 -32 63 -71 63c-67 0 -125 -46 -170 -90l-63 -357h-86l62 351c2 11 3 22 3 31
c0 50 -31 65 -70 65c-65 0 -120 -42 -170 -93l-63 -354h-86z" />
    <glyph glyph-name="uni0443" unicode="&#x443;" horiz-adv-x="505" 
d="M-45 -211l13 73c14 -3 27 -6 47 -6c57 0 92 25 164 156h-27l-86 498h88l65 -433l221 433h89l-269 -511c-94 -178 -139 -215 -246 -215c-17 0 -38 1 -59 5z" />
    <glyph glyph-name="uni0444" unicode="&#x444;" horiz-adv-x="722" 
d="M237 -210l36 203c-132 19 -233 98 -233 240c0 162 131 283 326 289l35 198h84l-37 -203c132 -20 234 -99 234 -240c0 -162 -133 -283 -327 -289l-35 -198h-83zM598 274c0 105 -68 162 -161 177l-71 -397c140 9 232 98 232 220zM124 235c0 -105 67 -162 160 -178l70 398
c-139 -10 -230 -99 -230 -220z" />
    <glyph glyph-name="uni0445" unicode="&#x445;" horiz-adv-x="507" 
d="M-18 0l223 265l-121 245h88l89 -193l154 193h97l-207 -246l130 -264h-85l-101 212l-172 -212h-95z" />
    <glyph glyph-name="uni0446" unicode="&#x446;" horiz-adv-x="593" 
d="M396 -130l23 131c-26 14 -41 40 -40 83c-49 -52 -119 -96 -203 -96c-60 0 -128 22 -128 117c0 11 1 33 4 48l63 357h86l-62 -353c-2 -11 -4 -19 -4 -31c0 -49 34 -65 76 -65c66 0 124 40 177 92l63 357h86l-69 -391c-1 -6 -3 -17 -3 -27c0 -26 15 -35 42 -35h4l-33 -187
h-82z" />
    <glyph glyph-name="uni0447" unicode="&#x447;" horiz-adv-x="535" 
d="M417 510h86l-90 -510h-86l38 216c-49 -14 -94 -21 -139 -21c-95 0 -164 32 -164 128c0 16 2 33 5 51l24 136h86l-26 -147c-2 -12 -3 -19 -3 -28c0 -62 48 -74 104 -74c32 0 72 4 125 20z" />
    <glyph glyph-name="uni0448" unicode="&#x448;" horiz-adv-x="880" 
d="M849 510l-90 -510h-86l15 83c-49 -54 -116 -95 -192 -95c-56 0 -115 22 -121 101c-47 -52 -117 -101 -202 -101c-63 0 -125 27 -125 121c0 12 1 28 4 44l63 357h86l-62 -353c-3 -16 -4 -24 -4 -33c0 -48 32 -63 71 -63c67 0 125 46 170 90l63 359h86l-62 -353
c-2 -11 -3 -22 -3 -31c0 -50 31 -65 70 -65c65 0 120 42 170 93l63 356h86z" />
    <glyph glyph-name="uni0449" unicode="&#x449;" horiz-adv-x="905" 
d="M495 -12c-55 0 -114 22 -120 101c-47 -52 -117 -101 -202 -101c-63 0 -125 27 -125 121c0 12 1 28 4 44l63 357h86l-62 -353c-3 -16 -4 -24 -4 -33c0 -48 32 -63 71 -63c67 0 125 46 170 90l63 359h86l-62 -353c-2 -11 -3 -22 -3 -31c0 -50 31 -65 70 -65
c65 0 120 42 170 93l63 356h86l-69 -391c-1 -6 -3 -17 -3 -27c0 -26 15 -35 42 -35h4l-33 -187h-82l23 131c-26 14 -41 40 -40 84c-46 -51 -116 -97 -196 -97z" />
    <glyph glyph-name="uni044A" unicode="&#x44a;" horiz-adv-x="653" 
d="M56 440l13 70h258l-37 -212c41 12 80 18 121 18c119 0 181 -49 181 -144c0 -109 -83 -178 -244 -178c-64 0 -130 11 -192 36l72 410h-172zM396 251c-39 0 -79 -7 -118 -19l-28 -158c36 -11 71 -16 105 -16c100 0 151 43 151 111c0 57 -36 82 -110 82z" />
    <glyph glyph-name="uni044B" unicode="&#x44b;" horiz-adv-x="766" 
d="M560 0l90 510h84l-90 -510h-84zM228 -6c-64 0 -130 11 -192 36l85 480h86l-37 -212c41 12 80 18 121 18c119 0 181 -49 181 -144c0 -109 -83 -178 -244 -178zM276 251c-39 0 -79 -7 -118 -19l-28 -158c36 -11 71 -16 105 -16c100 0 151 43 151 111c0 57 -36 82 -110 82z
" />
    <glyph glyph-name="uni044C" unicode="&#x44c;" horiz-adv-x="533" 
d="M228 -6c-64 0 -130 11 -192 36l85 480h86l-37 -212c41 12 80 18 121 18c119 0 181 -49 181 -144c0 -109 -83 -178 -244 -178zM276 251c-39 0 -79 -7 -118 -19l-28 -158c36 -11 71 -16 105 -16c100 0 151 43 151 111c0 57 -36 82 -110 82z" />
    <glyph glyph-name="uni044D" unicode="&#x44d;" horiz-adv-x="463" 
d="M100 229l12 64h227v3c0 103 -46 155 -120 155c-40 0 -84 -15 -124 -43l-10 70c43 28 94 44 147 44c116 0 192 -77 192 -221c0 -170 -107 -313 -282 -313c-63 0 -113 18 -146 41l34 66c29 -22 65 -37 112 -37c103 0 169 75 190 171h-232z" />
    <glyph glyph-name="uni044E" unicode="&#x44e;" horiz-adv-x="752" 
d="M466 -12c-110 0 -191 79 -191 228v18h-117l-41 -234h-86l90 510h86l-37 -207h114c29 125 118 219 238 219c110 0 191 -79 191 -228c0 -166 -101 -306 -247 -306zM470 55c99 0 157 121 157 241c0 101 -41 157 -108 157c-99 0 -158 -120 -158 -241c0 -102 42 -157 109 -157
z" />
    <glyph glyph-name="uni044F" unicode="&#x44f;" horiz-adv-x="542" 
d="M295 510h215l-90 -510h-84l36 204h-145l-149 -204h-93l168 223c-46 21 -72 61 -72 121c0 100 75 166 214 166zM271 265h112l31 179h-119c-94 0 -129 -42 -129 -100c0 -54 30 -79 105 -79z" />
    <glyph glyph-name="uni0450" unicode="&#x450;" horiz-adv-x="528" 
d="M325 522c117 0 173 -67 173 -141c0 -89 -80 -159 -295 -159c-26 0 -52 1 -78 4v-13c0 -101 47 -157 137 -157c51 0 110 18 163 49l11 -69c-55 -30 -122 -48 -186 -48c-132 0 -210 77 -210 220c0 175 117 314 285 314zM320 456c-93 0 -163 -72 -187 -170
c24 -2 46 -3 72 -3c161 0 212 40 212 95c0 43 -32 78 -97 78zM396 570h-67l-102 150h95z" />
    <glyph glyph-name="uni0451" unicode="&#x451;" horiz-adv-x="528" 
d="M325 522c117 0 173 -67 173 -141c0 -89 -80 -159 -295 -159c-26 0 -52 1 -78 4v-13c0 -101 47 -157 137 -157c51 0 110 18 163 49l11 -69c-55 -30 -122 -48 -186 -48c-132 0 -210 77 -210 220c0 175 117 314 285 314zM320 456c-93 0 -163 -72 -187 -170
c24 -2 46 -3 72 -3c161 0 212 40 212 95c0 43 -32 78 -97 78zM292 623c0 -28 -20 -49 -49 -49s-49 21 -49 49s20 49 49 49s49 -21 49 -49zM482 623c0 -28 -20 -49 -49 -49s-49 21 -49 49s20 49 49 49s49 -21 49 -49z" />
    <glyph glyph-name="uni0452" unicode="&#x452;" horiz-adv-x="636" 
d="M78 570l12 65h111l15 85h86l-15 -85h190l-12 -65h-190l-30 -171c46 48 120 91 206 91c64 0 130 -24 130 -131c0 -2 0 -14 -3 -31l-66 -376c-14 -78 -54 -130 -155 -130c-20 0 -43 2 -68 7l12 69c16 -5 32 -6 44 -6c57 0 74 24 84 78l62 353c2 10 3 20 3 29
c0 47 -31 63 -75 63c-72 0 -135 -42 -187 -89l-57 -326h-86l100 570h-111z" />
    <glyph glyph-name="uni0453" unicode="&#x453;" horiz-adv-x="456" 
d="M292 570h-73l113 150h110zM130 408l-10 70c42 25 98 44 155 44c88 0 160 -45 160 -133c0 -189 -328 -122 -328 -259c0 -49 41 -74 100 -74c54 0 107 20 154 45l10 -68c-46 -25 -110 -45 -173 -45c-96 0 -175 46 -175 143c0 198 328 134 328 259c0 39 -33 62 -86 62
c-48 0 -93 -19 -135 -44z" />
    <glyph glyph-name="uni0454" unicode="&#x454;" horiz-adv-x="463" 
d="M463 480l-33 -66c-35 25 -67 38 -109 38c-97 0 -162 -69 -185 -159h229l-11 -64h-228v-16c0 -103 47 -157 124 -157c43 0 92 16 128 43l10 -67c-39 -27 -94 -44 -151 -44c-117 0 -197 72 -197 220c0 170 105 314 282 314c60 0 104 -16 141 -42z" />
    <glyph glyph-name="uni0455" unicode="&#x455;" horiz-adv-x="456" 
d="M433 477l-34 -67c-41 28 -81 42 -122 42c-62 0 -108 -34 -108 -78c0 -97 224 -60 224 -221c0 -99 -85 -165 -211 -165c-64 0 -125 17 -174 47l34 66c46 -28 94 -45 145 -45c73 0 122 36 122 87c0 110 -224 73 -224 223c0 90 80 156 194 156c57 0 110 -17 154 -45z" />
    <glyph glyph-name="uni0456" unicode="&#x456;" horiz-adv-x="250" 
d="M37 0l90 510h86l-90 -510h-86zM194 705c32 0 54 -23 54 -53s-22 -53 -54 -53s-54 23 -54 53s22 53 54 53z" />
    <glyph glyph-name="uni0457" unicode="&#x457;" horiz-adv-x="250" 
d="M144 623c0 -28 -20 -49 -49 -49s-49 21 -49 49s20 49 49 49s49 -21 49 -49zM334 623c0 -28 -20 -49 -49 -49s-49 21 -49 49s20 49 49 49s49 -21 49 -49zM37 0l90 510h86l-90 -510h-86z" />
    <glyph glyph-name="uni0458" unicode="&#x458;" horiz-adv-x="250" 
d="M213 510l-105 -596c-14 -78 -54 -130 -155 -130c-20 0 -43 2 -68 7l12 69c16 -5 32 -6 44 -6c57 0 74 24 84 78l102 578h86zM194 705c32 0 54 -23 54 -53s-22 -53 -54 -53s-54 23 -54 53s22 53 54 53z" />
    <glyph glyph-name="uni0459" unicode="&#x459;" horiz-adv-x="851" 
d="M546 -6c-64 0 -130 11 -192 36l72 410h-166c-70 -356 -119 -446 -266 -446c-22 0 -35 2 -40 3l12 67c4 -1 16 -2 26 -2c106 0 134 126 202 448h331l-37 -212c41 12 80 18 121 18c119 0 181 -49 181 -144c0 -109 -83 -178 -244 -178zM594 251c-39 0 -79 -7 -118 -19
l-28 -158c36 -11 71 -16 105 -16c100 0 151 43 151 111c0 57 -36 82 -110 82z" />
    <glyph glyph-name="uni045A" unicode="&#x45a;" horiz-adv-x="850" 
d="M544 -6c-64 0 -128 11 -190 36l37 209h-233l-42 -239h-85l90 510h85l-36 -202h233l36 202h84l-38 -213c41 12 83 17 122 17c122 0 183 -50 183 -142c0 -110 -87 -178 -246 -178zM593 249c-39 0 -81 -7 -120 -20l-27 -156c38 -11 76 -15 107 -15c103 0 151 44 151 109
c0 57 -37 82 -111 82z" />
    <glyph glyph-name="uni045B" unicode="&#x45b;" horiz-adv-x="636" 
d="M78 570l12 65h111l15 85h86l-15 -85h190l-12 -65h-190l-30 -171c46 48 120 91 206 91c64 0 130 -24 130 -131c0 -2 0 -14 -3 -31l-58 -328h-86l57 323c2 10 3 20 3 29c0 47 -31 63 -75 63c-72 0 -135 -42 -187 -89l-57 -326h-86l100 570h-111z" />
    <glyph glyph-name="uni045C" unicode="&#x45c;" horiz-adv-x="531" 
d="M328 570h-73l113 150h110zM459 0h-89l-63 148c-26 60 -45 84 -116 84h-33l-41 -232h-86l90 510h86l-38 -214h32c51 0 67 12 88 43l56 82c44 64 70 95 175 95l-12 -69c-50 0 -67 -13 -88 -44l-56 -82c-17 -25 -36 -47 -72 -56c50 -16 72 -51 96 -104z" />
    <glyph glyph-name="uni045D" unicode="&#x45d;" horiz-adv-x="568" 
d="M537 510l-90 -510h-86l15 82c-49 -51 -117 -94 -199 -94c-63 0 -129 25 -129 119c0 12 1 31 4 46l63 357h86l-62 -353c-2 -11 -4 -19 -4 -31c0 -49 34 -65 76 -65c67 0 125 41 177 92l63 357h86zM401 570h-67l-102 150h95z" />
    <glyph glyph-name="uni045E" unicode="&#x45e;" horiz-adv-x="505" 
d="M-45 -211l13 73c14 -3 27 -6 47 -6c57 0 92 25 164 156h-27l-86 498h88l65 -433l221 433h89l-269 -511c-94 -178 -139 -215 -246 -215c-17 0 -38 1 -59 5zM318 628c62 0 91 39 100 92h65c-15 -88 -63 -144 -167 -144c-91 0 -136 43 -136 111c0 10 1 20 3 33h65
c-2 -9 -2 -17 -2 -25c0 -40 20 -67 72 -67z" />
    <glyph glyph-name="uni045F" unicode="&#x45f;" horiz-adv-x="568" 
d="M183 -60h82l-27 -150h-82zM537 510l-90 -510h-86l15 82c-49 -51 -117 -94 -199 -94c-63 0 -129 25 -129 119c0 12 1 31 4 46l63 357h86l-62 -353c-2 -11 -4 -19 -4 -31c0 -49 34 -65 76 -65c67 0 125 41 177 92l63 357h86z" />
    <glyph glyph-name="uni0462" unicode="&#x462;" horiz-adv-x="714" 
d="M81 548l14 75h154l17 97h87l-17 -97h186l-14 -75h-186l-23 -135h150c139 0 221 -67 221 -192c0 -138 -99 -221 -275 -221h-256l96 548h-154zM239 74h156c128 0 188 54 188 146c0 82 -47 117 -141 117h-156z" />
    <glyph glyph-name="uni0463" unicode="&#x463;" horiz-adv-x="591" 
d="M55 445l12 65h112l37 210h86l-37 -210h170l-11 -65h-170l-26 -147c41 12 80 18 121 18c119 0 181 -49 181 -144c0 -109 -83 -178 -244 -178c-64 0 -130 11 -192 36l73 415h-112zM334 251c-39 0 -79 -7 -118 -19l-28 -158c36 -11 71 -16 105 -16c100 0 151 43 151 111
c0 57 -36 82 -110 82z" />
    <glyph glyph-name="uni0472" unicode="&#x472;" horiz-adv-x="717" 
d="M346 64c138 0 233 118 254 274c-34 -18 -74 -34 -115 -34c-73 0 -157 50 -218 50c-36 0 -79 -17 -117 -40c0 -166 79 -250 196 -250zM487 378c36 0 78 16 117 40c-5 157 -83 236 -196 236c-134 0 -227 -111 -252 -259c33 17 73 33 114 33c72 0 155 -50 217 -50zM343 -12
c-161 0 -279 117 -279 325c0 230 143 419 347 419c161 0 279 -117 279 -325c0 -230 -143 -419 -347 -419z" />
    <glyph glyph-name="uni0473" unicode="&#x473;" horiz-adv-x="555" 
d="M253 55c94 0 157 78 175 177c-24 -12 -51 -22 -76 -22c-49 0 -110 38 -153 38c-22 0 -50 -10 -77 -28v-2c0 -110 54 -163 131 -163zM356 274c22 0 50 10 77 27c-4 102 -57 152 -132 152c-89 0 -150 -72 -171 -163c23 12 49 22 73 22c49 0 111 -38 153 -38zM249 -12
c-117 0 -210 76 -210 229c0 167 110 305 267 305c117 0 210 -76 210 -229c0 -167 -110 -305 -267 -305z" />
    <glyph glyph-name="uni0474" unicode="&#x474;" horiz-adv-x="666" 
d="M114 720h85l95 -608l242 479c46 91 77 135 213 135l-13 -75c-70 0 -92 -22 -118 -72l-295 -579h-90z" />
    <glyph glyph-name="uni0475" unicode="&#x475;" horiz-adv-x="521" 
d="M66 510h83l71 -405l151 289c42 80 71 122 196 122l-12 -69c-61 0 -83 -23 -110 -75l-196 -372h-88z" />
    <glyph glyph-name="uni0490" unicode="&#x490;" horiz-adv-x="547" 
d="M47 0l127 720h345l21 122h81l-36 -200h-337l-113 -642h-88z" />
    <glyph glyph-name="uni0491" unicode="&#x491;" horiz-adv-x="426" 
d="M121 510h251l21 122h78l-33 -192h-243l-78 -440h-86z" />
    <glyph glyph-name="uni0492" unicode="&#x492;" horiz-adv-x="544" 
d="M36 342l12 65h83l55 313h411l-14 -78h-323l-42 -235h195l-11 -65h-195l-60 -342h-88l60 342h-83z" />
    <glyph glyph-name="uni0493" unicode="&#x493;" horiz-adv-x="427" 
d="M133 510h312l-12 -70h-226l-25 -138h146l-11 -65h-146l-42 -237h-86l42 237h-78l11 65h78z" />
    <glyph glyph-name="uni0496" unicode="&#x496;" horiz-adv-x="1002" 
d="M251 473l-34 106c-16 50 -30 72 -95 72l12 75c105 0 136 -43 167 -139l34 -107c16 -50 29 -71 95 -71h43l56 311h88l-56 -311h43c68 0 90 20 122 71l71 111c59 93 91 135 218 135l-12 -75c-70 0 -90 -22 -122 -72l-71 -111c-30 -47 -56 -80 -110 -97
c66 -23 96 -73 129 -154l58 -145h64l-41 -226h-82l28 154h-31l-83 207c-35 87 -63 128 -149 128h-44l-59 -335h-88l59 335h-41c-82 0 -126 -40 -194 -133l-147 -202h-103l168 227c57 77 101 127 182 147c-42 17 -60 51 -75 99z" />
    <glyph glyph-name="uni0497" unicode="&#x497;" horiz-adv-x="798" 
d="M193 325l-29 78c-11 31 -24 44 -74 44l12 69c83 0 112 -31 137 -99l29 -78c11 -30 24 -43 74 -43h11l38 214h86l-38 -214h10c51 0 67 12 88 43l56 82c44 64 70 95 175 95l-12 -69c-50 0 -67 -13 -88 -44l-56 -82c-17 -25 -36 -47 -72 -56c50 -16 72 -51 96 -104l42 -97
h59l-34 -194h-82l23 130h-26l-63 148c-26 60 -45 84 -116 84h-11l-41 -232h-86l41 232h-8c-66 0 -99 -24 -146 -87l-109 -145h-98l131 170c40 52 71 84 133 98c-29 10 -42 31 -52 57z" />
    <glyph glyph-name="uni049A" unicode="&#x49a;" horiz-adv-x="671" 
d="M495 -154l28 154h-31l-83 207c-35 87 -63 128 -149 128h-66l-59 -335h-88l127 720h88l-56 -311h65c68 0 90 20 122 71l71 111c59 93 91 135 218 135l-12 -75c-70 0 -90 -22 -122 -72l-71 -111c-30 -47 -56 -80 -110 -97c66 -23 96 -73 129 -154l58 -145h64l-41 -226h-82z
" />
    <glyph glyph-name="uni049B" unicode="&#x49b;" horiz-adv-x="549" 
d="M373 -130l23 130h-26l-63 148c-26 60 -45 84 -116 84h-33l-41 -232h-86l90 510h86l-38 -214h32c51 0 67 12 88 43l56 82c44 64 70 95 175 95l-12 -69c-50 0 -67 -13 -88 -44l-56 -82c-17 -25 -36 -47 -72 -56c50 -16 72 -51 96 -104l42 -97h59l-34 -194h-82z" />
    <glyph glyph-name="uni049C" unicode="&#x49c;" horiz-adv-x="687" 
d="M226 155l32 180h-66l-59 -335h-86l127 720h86l-56 -311h67l28 158h61l-28 -158c53 4 74 25 103 71l71 111c59 93 91 135 216 135l-12 -75c-70 0 -90 -22 -122 -72l-71 -111c-30 -47 -56 -80 -110 -97c66 -23 96 -73 129 -154l88 -217h-90l-83 207
c-33 81 -59 122 -132 127l-32 -179h-61z" />
    <glyph glyph-name="uni049D" unicode="&#x49d;" horiz-adv-x="568" 
d="M182 111l21 121h-47l-41 -232h-84l90 510h84l-38 -214h47l19 106h57l-18 -104c26 5 39 18 55 41l56 82c44 64 70 95 173 95l-12 -69c-50 0 -67 -13 -88 -44l-56 -82c-17 -25 -36 -47 -72 -56c50 -16 72 -51 96 -104l71 -161h-87l-63 148c-22 50 -39 75 -85 82l-21 -119
h-57z" />
    <glyph glyph-name="uni04A2" unicode="&#x4a2;" horiz-adv-x="722" 
d="M47 0l127 720h88l-54 -308h346l54 308h88l-115 -648h60l-41 -226h-82l28 154h-65l59 335h-346l-59 -335h-88z" />
    <glyph glyph-name="uni04A3" unicode="&#x4a3;" horiz-adv-x="599" 
d="M367 0l41 234h-250l-41 -234h-86l90 510h86l-37 -207h250l37 207h86l-79 -446h54l-34 -194h-82l23 130h-58z" />
    <glyph glyph-name="uni04AE" unicode="&#x4ae;" horiz-adv-x="611" 
d="M217 0l54 305l-166 415h87l132 -330l248 330h98l-311 -415l-54 -305h-88z" />
    <glyph glyph-name="uni04AF" unicode="&#x4af;" horiz-adv-x="505" 
d="M125 -210l37 210l-96 510h83l72 -408l219 408h89l-281 -510l-37 -210h-86z" />
    <glyph glyph-name="uni04B0" unicode="&#x4b0;" horiz-adv-x="611" 
d="M115 240l11 65h145l-166 415h87l132 -330l248 330h98l-311 -415h143l-11 -65h-144l-42 -240h-88l42 240h-144z" />
    <glyph glyph-name="uni04B1" unicode="&#x4b1;" horiz-adv-x="505" 
d="M33 -50l11 65h119l-97 495h83l72 -402l219 402h89l-277 -495h120l-11 -65h-122l-28 -160h-86l28 160h-120z" />
    <glyph glyph-name="uni04B2" unicode="&#x4b2;" horiz-adv-x="636" 
d="M-11 0l295 371l-155 349h91l124 -287l224 287h102l-279 -349l134 -299h62l-41 -226h-82l28 154h-27l-134 309l-240 -309h-102z" />
    <glyph glyph-name="uni04B3" unicode="&#x4b3;" horiz-adv-x="514" 
d="M-18 0l223 265l-121 245h88l89 -193l154 193h97l-207 -246l98 -200h60l-34 -194h-82l23 130h-20l-101 212l-172 -212h-95z" />
    <glyph glyph-name="uni04B6" unicode="&#x4b6;" horiz-adv-x="659" 
d="M321 366c44 0 100 7 169 29l57 325h88l-115 -648h60l-41 -226h-82l28 154h-65l57 321c-65 -20 -121 -30 -179 -30c-115 0 -202 38 -202 165c0 14 1 39 5 60l36 204h88l-37 -210c-3 -15 -5 -29 -5 -43c0 -79 60 -101 138 -101z" />
    <glyph glyph-name="uni04B7" unicode="&#x4b7;" horiz-adv-x="557" 
d="M417 510h86l-79 -446h54l-34 -194h-82l23 130h-58l38 216c-49 -14 -94 -21 -139 -21c-95 0 -164 32 -164 128c0 16 2 33 5 51l24 136h86l-26 -147c-2 -12 -3 -19 -3 -28c0 -62 48 -74 104 -74c32 0 72 4 125 20z" />
    <glyph glyph-name="uni04B8" unicode="&#x4b8;" horiz-adv-x="665" 
d="M257 113l31 178c-118 7 -192 50 -192 167c0 14 1 37 5 58l36 204h86l-37 -210c-2 -12 -4 -29 -4 -42c0 -65 49 -98 119 -102l29 159h61l-29 -159c43 3 91 11 150 29l57 325h86l-127 -720h-86l57 321c-58 -18 -107 -26 -150 -29l-31 -179h-61z" />
    <glyph glyph-name="uni04B9" unicode="&#x4b9;" horiz-adv-x="555" 
d="M200 75l21 120c-88 2 -159 30 -159 126c0 16 2 36 5 53l24 136h84l-26 -147c-2 -11 -3 -20 -3 -28c0 -52 36 -70 86 -74l19 105h57l-19 -105c31 2 66 8 110 20l40 229h84l-90 -510h-84l38 216c-38 -10 -73 -17 -109 -20l-21 -121h-57z" />
    <glyph glyph-name="uni04BA" unicode="&#x4ba;" horiz-adv-x="645" 
d="M364 377c-42 0 -99 -7 -168 -30l-61 -347h-88l127 720h88l-52 -295c65 20 123 29 177 29c114 0 204 -41 204 -165c0 -18 -2 -39 -5 -57l-41 -232h-88l41 232c3 15 5 30 5 44c0 75 -59 101 -139 101z" />
    <glyph glyph-name="uni04BB" unicode="&#x4bb;" horiz-adv-x="539" 
d="M443 0h-86l26 147c2 11 3 20 3 29c0 60 -45 72 -102 72c-32 0 -73 -4 -127 -20l-40 -228h-86l90 510h86l-38 -214c49 14 95 20 139 20c92 0 164 -27 164 -130c0 -12 -1 -28 -4 -45z" />
    <glyph glyph-name="uni04C0" unicode="&#x4c0;" horiz-adv-x="289" 
d="M55 0l127 720h88l-127 -720h-88z" />
    <glyph glyph-name="uni04CF" unicode="&#x4cf;" horiz-adv-x="250" 
d="M37 0l127 720h86l-127 -720h-86z" />
    <glyph glyph-name="uni04D8" unicode="&#x4d8;" horiz-adv-x="697" 
d="M78 400h504v12c0 160 -74 242 -194 242c-70 0 -150 -28 -213 -71l-13 78c63 41 153 71 236 71c163 0 272 -113 272 -320c0 -221 -124 -424 -348 -424c-159 0 -259 102 -259 289c0 53 8 92 15 123zM325 64c147 0 228 125 250 265h-421c-2 -17 -3 -34 -3 -52
c0 -139 62 -213 174 -213z" />
    <glyph glyph-name="uni04D9" unicode="&#x4d9;" horiz-adv-x="519" 
d="M197 -12c-120 0 -174 71 -174 148c0 95 81 168 296 168c25 0 50 -1 75 -4c-2 99 -48 152 -132 152c-50 0 -107 -18 -156 -49l-11 71c52 30 119 48 180 48c128 0 204 -80 204 -222c0 -176 -116 -312 -282 -312zM203 53c96 0 168 79 186 186c-23 3 -44 4 -69 4
c-165 0 -215 -44 -215 -105c0 -47 31 -85 98 -85z" />
    <glyph glyph-name="uni04E2" unicode="&#x4e2;" horiz-adv-x="713" 
d="M702 720l-127 -720h-84l99 560l-462 -560h-81l127 720h84l-99 -561l462 561h81zM303 785l11 65h293l-11 -65h-293z" />
    <glyph glyph-name="uni04E3" unicode="&#x4e3;" horiz-adv-x="568" 
d="M537 510l-90 -510h-86l15 82c-49 -51 -117 -94 -199 -94c-63 0 -129 25 -129 119c0 12 1 31 4 46l63 357h86l-62 -353c-2 -11 -4 -19 -4 -31c0 -49 34 -65 76 -65c67 0 125 41 177 92l63 357h86zM191 581l11 65h293l-11 -65h-293z" />
    <glyph glyph-name="uni04E8" unicode="&#x4e8;" horiz-adv-x="717" 
d="M346 64c135 0 229 113 252 264h-448v-14c0 -166 79 -250 196 -250zM408 654c-131 0 -224 -107 -250 -251h446v1c0 166 -79 250 -196 250zM343 -12c-161 0 -279 117 -279 325c0 230 143 419 347 419c161 0 279 -117 279 -325c0 -230 -143 -419 -347 -419z" />
    <glyph glyph-name="uni04E9" unicode="&#x4e9;" horiz-adv-x="555" 
d="M253 55c93 0 156 77 174 174h-305v-11c0 -110 54 -163 131 -163zM302 453c-89 0 -150 -70 -172 -161h303c-1 108 -55 161 -131 161zM249 -12c-117 0 -210 76 -210 229c0 167 110 305 267 305c117 0 210 -76 210 -229c0 -167 -110 -305 -267 -305z" />
    <glyph glyph-name="uni04EE" unicode="&#x4ee;" horiz-adv-x="611" 
d="M245 242l-140 478h86l120 -419l264 419h95l-313 -490c-119 -186 -180 -236 -296 -236c-23 0 -47 2 -67 5l13 78c16 -4 36 -6 57 -6c75 0 110 26 207 171h-26zM252 785l11 65h293l-11 -65h-293z" />
    <glyph glyph-name="uni04EF" unicode="&#x4ef;" horiz-adv-x="505" 
d="M-45 -211l13 73c14 -3 27 -6 47 -6c57 0 92 25 164 156h-27l-86 498h88l65 -433l221 433h89l-269 -511c-94 -178 -139 -215 -246 -215c-17 0 -38 1 -59 5zM163 581l11 65h293l-11 -65h-293z" />
    <glyph glyph-name="Wgrave" unicode="&#x1e80;" horiz-adv-x="954" 
d="M598 0l-39 382c-14 133 -17 168 -17 225h-2c-20 -59 -60 -142 -95 -218l-182 -389h-85l-60 720h88l28 -386c8 -104 11 -141 11 -210h2c28 77 65 154 97 222l175 374h83l38 -378c5 -50 16 -146 17 -218h2c22 64 53 141 86 217l163 379h92l-317 -720h-85zM635 779h-67
l-107 130h96z" />
    <glyph glyph-name="wgrave" unicode="&#x1e81;" horiz-adv-x="749" 
d="M210 0h-83l-60 510h80l31 -271c7 -62 11 -97 10 -141h2c14 38 42 102 63 145l129 267h78l29 -267c8 -71 10 -95 10 -145h2c15 45 36 93 60 144l126 268h85l-244 -510h-82l-29 266c-10 89 -11 106 -12 147h-2c-13 -41 -40 -98 -65 -150zM495 570h-67l-102 150h95z" />
    <glyph glyph-name="Wacute" unicode="&#x1e82;" horiz-adv-x="954" 
d="M598 0l-39 382c-14 133 -17 168 -17 225h-2c-20 -59 -60 -142 -95 -218l-182 -389h-85l-60 720h88l28 -386c8 -104 11 -141 11 -210h2c28 77 65 154 97 222l175 374h83l38 -378c5 -50 16 -146 17 -218h2c22 64 53 141 86 217l163 379h92l-317 -720h-85zM574 779h-73
l109 130h110z" />
    <glyph glyph-name="wacute" unicode="&#x1e83;" horiz-adv-x="749" 
d="M210 0h-83l-60 510h80l31 -271c7 -62 11 -97 10 -141h2c14 38 42 102 63 145l129 267h78l29 -267c8 -71 10 -95 10 -145h2c15 45 36 93 60 144l126 268h85l-244 -510h-82l-29 266c-10 89 -11 106 -12 147h-2c-13 -41 -40 -98 -65 -150zM437 570h-73l113 150h110z" />
    <glyph glyph-name="Wdieresis" unicode="&#x1e84;" horiz-adv-x="954" 
d="M598 0l-39 382c-14 133 -17 168 -17 225h-2c-20 -59 -60 -142 -95 -218l-182 -389h-85l-60 720h88l28 -386c8 -104 11 -141 11 -210h2c28 77 65 154 97 222l175 374h83l38 -378c5 -50 16 -146 17 -218h2c22 64 53 141 86 217l163 379h92l-317 -720h-85zM531 827
c0 -28 -20 -49 -49 -49s-49 21 -49 49s20 49 49 49s49 -21 49 -49zM721 827c0 -28 -20 -49 -49 -49s-49 21 -49 49s20 49 49 49s49 -21 49 -49z" />
    <glyph glyph-name="wdieresis" unicode="&#x1e85;" horiz-adv-x="749" 
d="M210 0h-83l-60 510h80l31 -271c7 -62 11 -97 10 -141h2c14 38 42 102 63 145l129 267h78l29 -267c8 -71 10 -95 10 -145h2c15 45 36 93 60 144l126 268h85l-244 -510h-82l-29 266c-10 89 -11 106 -12 147h-2c-13 -41 -40 -98 -65 -150zM394 623c0 -28 -20 -49 -49 -49
s-49 21 -49 49s20 49 49 49s49 -21 49 -49zM584 623c0 -28 -20 -49 -49 -49s-49 21 -49 49s20 49 49 49s49 -21 49 -49z" />
    <glyph glyph-name="uni1E8A" unicode="&#x1e8a;" horiz-adv-x="636" 
d="M-11 0l295 371l-155 349h91l124 -287l224 287h102l-279 -349l166 -371h-92l-134 309l-240 -309h-102zM406 776c-32 0 -54 23 -54 53s22 53 54 53s54 -23 54 -53s-22 -53 -54 -53z" />
    <glyph glyph-name="uni1E8B" unicode="&#x1e8b;" horiz-adv-x="507" 
d="M-18 0l223 265l-121 245h88l89 -193l154 193h97l-207 -246l130 -264h-85l-101 212l-172 -212h-95zM308 570c-32 0 -54 23 -54 53s22 53 54 53s54 -23 54 -53s-22 -53 -54 -53z" />
    <glyph glyph-name="uni1E9E" unicode="&#x1e9e;" horiz-adv-x="1140" 
d="M580 54l39 73c61 -38 123 -63 193 -63c106 0 178 58 178 136c0 163 -309 114 -309 323c0 122 106 209 255 209c78 0 146 -24 202 -63l-39 -75c-52 36 -105 60 -169 60c-96 0 -161 -52 -161 -121c0 -150 309 -101 309 -321c0 -132 -110 -224 -272 -224
c-82 0 -162 24 -226 66zM20 54l39 73c61 -38 123 -63 193 -63c106 0 178 58 178 136c0 163 -309 114 -309 323c0 122 106 209 255 209c78 0 146 -24 202 -63l-39 -75c-52 36 -105 60 -169 60c-96 0 -161 -52 -161 -121c0 -150 309 -101 309 -321c0 -132 -110 -224 -272 -224
c-82 0 -162 24 -226 66z" />
    <glyph glyph-name="Ygrave" unicode="&#x1ef2;" horiz-adv-x="611" 
d="M217 0l54 305l-166 415h87l132 -330l248 330h98l-311 -415l-54 -305h-88zM464 779h-67l-107 130h96z" />
    <glyph glyph-name="ygrave" unicode="&#x1ef3;" horiz-adv-x="505" 
d="M-45 -211l13 73c14 -3 27 -6 47 -6c57 0 92 25 164 156h-27l-86 498h88l65 -433l221 433h89l-269 -511c-94 -178 -139 -215 -246 -215c-17 0 -38 1 -59 5zM373 570h-67l-102 150h95z" />
    <glyph glyph-name="uni2007" unicode="&#x2007;" horiz-adv-x="627" 
 />
    <glyph glyph-name="uni2008" unicode="&#x2008;" horiz-adv-x="283" 
 />
    <glyph glyph-name="uni200B" unicode="&#x200b;" horiz-adv-x="0" 
 />
    <glyph glyph-name="uniFEFF" unicode="&#xfeff;" horiz-adv-x="0" 
 />
    <glyph glyph-name="endash" unicode="&#x2013;" horiz-adv-x="500" 
d="M63 274l13 75h380l-13 -75h-380z" />
    <glyph glyph-name="emdash" unicode="&#x2014;" 
d="M63 274l13 75h880l-13 -75h-880z" />
    <glyph glyph-name="uni2015" unicode="&#x2015;" 
d="M63 274l13 75h880l-13 -75h-880z" />
    <glyph glyph-name="quoteleft" unicode="&#x2018;" horiz-adv-x="265" 
d="M177 461c-40 0 -69 32 -69 85c0 59 36 127 156 186l36 -45c-82 -37 -115 -79 -126 -115c36 0 59 -24 59 -56c0 -31 -22 -55 -56 -55z" />
    <glyph glyph-name="quoteright" unicode="&#x2019;" horiz-adv-x="265" 
d="M207 733c40 0 69 -32 69 -85c0 -59 -36 -127 -156 -186l-36 45c82 37 115 79 126 115c-36 0 -59 24 -59 56c0 31 22 55 56 55z" />
    <glyph glyph-name="quotesinglbase" unicode="&#x201a;" horiz-adv-x="265" 
d="M96 104c40 0 69 -32 69 -85c0 -59 -36 -127 -156 -186l-36 45c82 37 115 79 126 115c-36 0 -59 24 -59 56c0 31 22 55 56 55z" />
    <glyph glyph-name="quotedblleft" unicode="&#x201c;" horiz-adv-x="450" 
d="M362 461c-40 0 -69 32 -69 85c0 59 36 127 156 186l36 -45c-82 -37 -115 -79 -126 -115c36 0 59 -24 59 -56c0 -31 -22 -55 -56 -55zM177 461c-40 0 -69 32 -69 85c0 59 36 127 156 186l36 -45c-82 -37 -115 -79 -126 -115c36 0 59 -24 59 -56c0 -31 -22 -55 -56 -55z
" />
    <glyph glyph-name="quotedblright" unicode="&#x201d;" horiz-adv-x="450" 
d="M392 733c40 0 69 -32 69 -85c0 -59 -36 -127 -156 -186l-36 45c82 37 115 79 126 115c-36 0 -59 24 -59 56c0 31 22 55 56 55zM207 733c40 0 69 -32 69 -85c0 -59 -36 -127 -156 -186l-36 45c82 37 115 79 126 115c-36 0 -59 24 -59 56c0 31 22 55 56 55z" />
    <glyph glyph-name="quotedblbase" unicode="&#x201e;" horiz-adv-x="450" 
d="M281 104c40 0 69 -32 69 -85c0 -59 -36 -127 -156 -186l-36 45c82 37 115 79 126 115c-36 0 -59 24 -59 56c0 31 22 55 56 55zM96 104c40 0 69 -32 69 -85c0 -59 -36 -127 -156 -186l-36 45c82 37 115 79 126 115c-36 0 -59 24 -59 56c0 31 22 55 56 55z" />
    <glyph glyph-name="dagger" unicode="&#x2020;" horiz-adv-x="572" 
d="M183 -83l98 492l-183 -7l13 75l180 -8l28 211h84l-46 -211l182 8l-13 -75l-181 7l-76 -492h-86z" />
    <glyph glyph-name="daggerdbl" unicode="&#x2021;" horiz-adv-x="572" 
d="M403 680l-42 -191l182 8l-13 -75l-181 7l-46 -261l183 7l-13 -75l-180 8l-24 -191h-84l42 191l-182 -8l13 75l181 -7l46 261l-183 -7l13 75l180 -8l24 191h84z" />
    <glyph glyph-name="bullet" unicode="&#x2022;" horiz-adv-x="463" 
d="M369 350c0 -71 -52 -122 -122 -122s-122 51 -122 122s52 122 122 122s122 -51 122 -122z" />
    <glyph glyph-name="onedotenleader" unicode="&#x2024;" horiz-adv-x="283" 
d="M161 46c0 -33 -23 -58 -58 -58c-34 0 -58 25 -58 58s24 58 58 58c35 0 58 -25 58 -58z" />
    <glyph glyph-name="twodotenleader" unicode="&#x2025;" horiz-adv-x="513" 
d="M161 46c0 -33 -23 -58 -58 -58c-34 0 -58 25 -58 58s24 58 58 58c35 0 58 -25 58 -58zM391 46c0 -33 -23 -58 -58 -58c-34 0 -58 25 -58 58s24 58 58 58c35 0 58 -25 58 -58z" />
    <glyph glyph-name="ellipsis" unicode="&#x2026;" horiz-adv-x="743" 
d="M621 46c0 -33 -23 -58 -58 -58c-34 0 -58 25 -58 58s24 58 58 58c35 0 58 -25 58 -58zM391 46c0 -33 -23 -58 -58 -58c-34 0 -58 25 -58 58s24 58 58 58c35 0 58 -25 58 -58zM161 46c0 -33 -23 -58 -58 -58c-34 0 -58 25 -58 58s24 58 58 58c35 0 58 -25 58 -58z" />
    <glyph glyph-name="perthousand" unicode="&#x2030;" horiz-adv-x="1106" 
d="M869 47c68 0 100 67 100 130c0 54 -24 92 -75 92c-68 0 -100 -67 -100 -130c0 -54 24 -92 75 -92zM869 -6c-88 0 -141 63 -141 148c0 91 62 181 166 181c88 0 141 -63 141 -148c0 -91 -62 -181 -166 -181zM73 0l568 720h80l-568 -720h-80zM245 450c68 0 100 67 100 130
c0 54 -24 92 -75 92c-68 0 -100 -67 -100 -130c0 -54 24 -92 75 -92zM245 397c-88 0 -141 63 -141 148c0 91 62 181 166 181c88 0 141 -63 141 -148c0 -91 -62 -181 -166 -181zM524 47c68 0 100 67 100 130c0 54 -24 92 -75 92c-68 0 -100 -67 -100 -130
c0 -54 24 -92 75 -92zM524 -6c-88 0 -141 63 -141 148c0 91 62 181 166 181c88 0 141 -63 141 -148c0 -91 -62 -181 -166 -181z" />
    <glyph glyph-name="minute" unicode="&#x2032;" horiz-adv-x="171" 
d="M68 461l80 259h76l-94 -259h-62z" />
    <glyph glyph-name="second" unicode="&#x2033;" horiz-adv-x="335" 
d="M232 461l80 259h76l-94 -259h-62zM68 461l80 259h76l-94 -259h-62z" />
    <glyph glyph-name="guilsinglleft" unicode="&#x2039;" horiz-adv-x="320" 
d="M146 24l-102 231l175 231h85l-176 -238l94 -224h-76z" />
    <glyph glyph-name="guilsinglright" unicode="&#x203a;" horiz-adv-x="320" 
d="M174 486l102 -231l-175 -231h-85l176 238l-94 224h76z" />
    <glyph glyph-name="exclamdbl" unicode="&#x203c;" horiz-adv-x="543" 
d="M118 202l76 518h95l-106 -518h-65zM122 -12c-33 0 -56 24 -56 54s23 54 56 54s56 -24 56 -54s-23 -54 -56 -54zM342 202l76 518h95l-106 -518h-65zM346 -12c-33 0 -56 24 -56 54s23 54 56 54s56 -24 56 -54s-23 -54 -56 -54z" />
    <glyph glyph-name="fraction" unicode="&#x2044;" horiz-adv-x="68" 
d="M-215 0l571 720h77l-571 -720h-77z" />
    <glyph glyph-name="uni2070" unicode="&#x2070;" horiz-adv-x="398" 
d="M239 425c84 0 129 103 129 215c0 94 -32 139 -87 139c-84 0 -129 -103 -129 -215c0 -94 32 -139 87 -139zM237 372c-87 0 -148 67 -148 194c0 141 75 268 194 268c87 0 148 -67 148 -194c0 -141 -75 -268 -194 -268z" />
    <glyph glyph-name="uni2071" unicode="&#x2071;" horiz-adv-x="209" 
d="M95 380l56 316h63l-56 -316h-63zM197 746c-22 0 -38 16 -38 38s16 38 38 38s38 -16 38 -38s-16 -38 -38 -38z" />
    <glyph glyph-name="uni2074" unicode="&#x2074;" horiz-adv-x="378" 
d="M59 472l9 52l247 302h82l-54 -300h67l-9 -54h-67l-16 -92h-61l16 92h-214zM133 526h149l42 233z" />
    <glyph glyph-name="uni2075" unicode="&#x2075;" horiz-adv-x="342" 
d="M302 526c0 57 -37 82 -104 82c-23 0 -57 -3 -100 -16l49 234h249l-9 -55h-191l-25 -115c17 3 33 4 46 4c87 0 148 -46 148 -133c0 -97 -76 -155 -180 -155c-56 0 -104 17 -136 35l27 53c30 -18 62 -34 110 -34c71 0 116 36 116 100z" />
    <glyph glyph-name="uni2076" unicode="&#x2076;" horiz-adv-x="371" 
d="M305 834c43 0 85 -12 114 -32l-28 -51c-28 18 -56 27 -88 27c-84 0 -134 -62 -147 -154c35 34 74 48 113 48c74 0 126 -52 126 -137c0 -100 -72 -163 -156 -163c-87 0 -150 69 -150 198c0 148 82 264 216 264zM253 619c-34 0 -64 -16 -101 -49c0 -103 37 -145 90 -145
s92 43 92 105c0 56 -32 89 -81 89z" />
    <glyph glyph-name="uni2077" unicode="&#x2077;" horiz-adv-x="338" 
d="M118 769l9 57h287l-9 -53c-76 -113 -152 -237 -238 -393h-73c86 153 160 277 236 389h-212z" />
    <glyph glyph-name="uni2078" unicode="&#x2078;" horiz-adv-x="367" 
d="M216 372c-91 0 -152 43 -152 116s61 104 128 127c-37 21 -69 49 -69 99c0 71 65 120 151 120c81 0 134 -43 134 -107c0 -60 -47 -91 -106 -112c46 -24 86 -53 86 -112c0 -82 -74 -131 -172 -131zM185 718c0 -37 32 -58 70 -77c50 18 91 40 91 83c0 37 -29 59 -76 59
c-50 0 -85 -26 -85 -65zM220 422c60 0 106 28 106 76c0 47 -42 70 -87 91c-57 -21 -113 -44 -113 -98c0 -45 38 -69 94 -69z" />
    <glyph glyph-name="uni2079" unicode="&#x2079;" horiz-adv-x="371" 
d="M189 372c-43 0 -85 12 -114 32l28 49c28 -18 56 -27 88 -27c85 0 134 62 147 155c-35 -34 -74 -47 -112 -47c-75 0 -127 52 -127 137c0 100 72 163 156 163c87 0 150 -69 150 -198c0 -148 -82 -264 -216 -264zM241 585c33 0 63 15 101 49c0 103 -37 145 -90 145
s-92 -43 -92 -105c0 -56 32 -89 81 -89z" />
    <glyph glyph-name="uni207A" unicode="&#x207a;" horiz-adv-x="364" 
d="M230 380h-52l23 131h-125l10 54h125l23 131h52l-23 -131h125l-10 -54h-125z" />
    <glyph glyph-name="uni207B" unicode="&#x207b;" horiz-adv-x="364" 
d="M388 565l-10 -54h-302l10 54h302z" />
    <glyph glyph-name="uni207C" unicode="&#x207c;" horiz-adv-x="364" 
d="M376 500l-9 -50h-302l9 50h302zM398 626l-9 -50h-302l9 50h302z" />
    <glyph glyph-name="uni207D" unicode="&#x207d;" horiz-adv-x="234" 
d="M138 505c0 -101 40 -171 79 -213l-37 -28c-40 38 -104 112 -104 241c0 178 121 272 206 330l24 -38c-83 -57 -168 -144 -168 -292z" />
    <glyph glyph-name="uni207E" unicode="&#x207e;" horiz-adv-x="234" 
d="M199 594c0 101 -40 171 -79 213l37 28c40 -38 104 -112 104 -241c0 -178 -121 -272 -206 -330l-24 38c83 57 168 144 168 292z" />
    <glyph glyph-name="uni207F" unicode="&#x207f;" horiz-adv-x="362" 
d="M71 380l56 316h62l-8 -47c26 27 67 55 118 55c39 0 81 -17 81 -79c0 -2 0 -13 -2 -25l-39 -220h-62l39 220c1 6 1 10 1 12c0 29 -17 37 -40 37c-41 0 -78 -25 -106 -53l-38 -216h-62z" />
    <glyph glyph-name="uni2080" unicode="&#x2080;" horiz-adv-x="398" 
d="M153 -61c84 0 129 103 129 215c0 94 -32 139 -87 139c-84 0 -129 -103 -129 -215c0 -94 32 -139 87 -139zM151 -114c-87 0 -148 67 -148 194c0 141 75 268 194 268c87 0 148 -67 148 -194c0 -141 -75 -268 -194 -268z" />
    <glyph glyph-name="uni2081" unicode="&#x2081;" horiz-adv-x="236" 
d="M35 232l-10 55l111 53h50l-79 -446h-62l66 373z" />
    <glyph glyph-name="uni2082" unicode="&#x2082;" horiz-adv-x="357" 
d="M243 225c0 39 -22 66 -70 66s-91 -26 -125 -65l-11 57c32 36 83 65 144 65c79 0 124 -48 124 -119c0 -81 -59 -152 -230 -281h192l-9 -54h-289l8 48c201 147 266 217 266 283z" />
    <glyph glyph-name="uni2083" unicode="&#x2083;" horiz-adv-x="348" 
d="M171 348c73 0 129 -36 129 -106c0 -59 -40 -100 -109 -121c56 -17 81 -54 81 -102c0 -83 -74 -133 -176 -133c-55 0 -102 15 -137 36l27 51c32 -20 68 -34 111 -34c66 0 111 32 111 83c0 48 -39 72 -108 72c-15 0 -26 -1 -43 -2l9 51c109 0 171 33 171 90
c0 39 -30 60 -74 60c-36 0 -74 -14 -111 -39l-7 55c37 25 80 39 126 39z" />
    <glyph glyph-name="uni2084" unicode="&#x2084;" horiz-adv-x="378" 
d="M-27 -14l9 52l247 302h82l-54 -300h67l-9 -54h-67l-16 -92h-61l16 92h-214zM47 40h149l42 233z" />
    <glyph glyph-name="uni2085" unicode="&#x2085;" horiz-adv-x="342" 
d="M216 40c0 57 -37 82 -104 82c-23 0 -57 -3 -100 -16l49 234h249l-9 -55h-191l-25 -115c17 3 33 4 46 4c87 0 148 -46 148 -133c0 -97 -76 -155 -180 -155c-56 0 -104 17 -136 35l27 53c30 -18 62 -34 110 -34c71 0 116 36 116 100z" />
    <glyph glyph-name="uni2086" unicode="&#x2086;" horiz-adv-x="371" 
d="M219 348c43 0 85 -12 114 -32l-28 -51c-28 18 -56 27 -88 27c-84 0 -134 -62 -147 -154c35 34 74 48 113 48c74 0 126 -52 126 -137c0 -100 -72 -163 -156 -163c-87 0 -150 69 -150 198c0 148 82 264 216 264zM167 133c-34 0 -64 -16 -101 -49c0 -103 37 -145 90 -145
s92 43 92 105c0 56 -32 89 -81 89z" />
    <glyph glyph-name="uni2087" unicode="&#x2087;" horiz-adv-x="338" 
d="M32 283l9 57h287l-9 -53c-76 -113 -152 -237 -238 -393h-73c86 153 160 277 236 389h-212z" />
    <glyph glyph-name="uni2088" unicode="&#x2088;" horiz-adv-x="367" 
d="M130 -114c-91 0 -152 43 -152 116s61 104 128 127c-37 21 -69 49 -69 99c0 71 65 120 151 120c81 0 134 -43 134 -107c0 -60 -47 -91 -106 -112c46 -24 86 -53 86 -112c0 -82 -74 -131 -172 -131zM99 232c0 -37 32 -58 70 -77c50 18 91 40 91 83c0 37 -29 59 -76 59
c-50 0 -85 -26 -85 -65zM134 -64c60 0 106 28 106 76c0 47 -42 70 -87 91c-57 -21 -113 -44 -113 -98c0 -45 38 -69 94 -69z" />
    <glyph glyph-name="uni2089" unicode="&#x2089;" horiz-adv-x="371" 
d="M103 -114c-43 0 -85 12 -114 32l28 49c28 -18 56 -27 88 -27c85 0 134 62 147 155c-35 -34 -74 -47 -112 -47c-75 0 -127 52 -127 137c0 100 72 163 156 163c87 0 150 -69 150 -198c0 -148 -82 -264 -216 -264zM155 99c33 0 63 15 101 49c0 103 -37 145 -90 145
s-92 -43 -92 -105c0 -56 32 -89 81 -89z" />
    <glyph glyph-name="uni208A" unicode="&#x208a;" horiz-adv-x="364" 
d="M144 -106h-52l23 131h-125l10 54h125l23 131h52l-23 -131h125l-10 -54h-125z" />
    <glyph glyph-name="uni208B" unicode="&#x208b;" horiz-adv-x="364" 
d="M302 79l-10 -54h-302l10 54h302z" />
    <glyph glyph-name="uni208C" unicode="&#x208c;" horiz-adv-x="364" 
d="M290 14l-9 -50h-302l9 50h302zM312 140l-9 -50h-302l9 50h302z" />
    <glyph glyph-name="uni208D" unicode="&#x208d;" horiz-adv-x="234" 
d="M52 19c0 -101 40 -171 79 -213l-37 -28c-40 38 -104 112 -104 241c0 178 121 272 206 330l24 -38c-83 -57 -168 -144 -168 -292z" />
    <glyph glyph-name="uni208E" unicode="&#x208e;" horiz-adv-x="234" 
d="M113 108c0 101 -40 171 -79 213l37 28c40 -38 104 -112 104 -241c0 -178 -121 -272 -206 -330l-24 38c83 57 168 144 168 292z" />
    <glyph glyph-name="Euro" unicode="&#x20ac;" horiz-adv-x="626" 
d="M41 396l11 64h98c47 158 163 272 329 272c75 0 129 -23 173 -59l-39 -71c-44 36 -86 55 -142 55c-117 0 -196 -82 -234 -197h247l-11 -64h-252c-4 -25 -7 -49 -8 -75h247l-11 -64h-235c10 -129 68 -196 160 -196c54 0 110 23 159 61l13 -73c-50 -36 -114 -61 -182 -61
c-133 0 -225 93 -236 269h-111l11 64h99c1 25 4 50 8 75h-94z" />
    <glyph glyph-name="uni20B1" unicode="&#x20b1;" horiz-adv-x="633" 
d="M49 464l11 64h89l34 192h214c134 0 218 -64 222 -192h65l-11 -64h-59c-22 -117 -119 -189 -277 -189h-145l-49 -275h-87l82 464h-89zM204 346h134c110 0 170 44 189 118h-302zM258 648l-22 -120h296c-3 84 -50 120 -140 120h-134z" />
    <glyph glyph-name="uni20B4" unicode="&#x20b4;" horiz-adv-x="584" 
d="M44 396l11 64h373c34 23 56 53 56 96c0 62 -45 101 -119 101c-64 0 -126 -28 -177 -64l-13 75c54 37 123 64 198 64c119 0 197 -66 197 -174c0 -40 -11 -72 -29 -98h59l-11 -64h-123c-57 -32 -137 -52 -199 -75h309l-12 -64h-400c-21 -22 -33 -49 -33 -84
c0 -71 51 -112 139 -112c73 0 139 28 197 67l13 -73c-60 -40 -135 -67 -220 -67c-130 0 -216 63 -216 182c0 34 7 63 19 87h-43l11 64h86c44 34 112 55 169 75h-242z" />
    <glyph glyph-name="uni2113" unicode="&#x2113;" horiz-adv-x="572" 
d="M39 294c35 0 69 2 100 6l45 251c21 118 84 181 175 181c83 0 149 -54 149 -174c0 -154 -108 -267 -295 -311l-9 -53c-3 -18 -5 -34 -5 -49c0 -66 36 -89 99 -89c44 0 80 11 116 32l10 -67c-35 -21 -81 -33 -137 -33c-102 0 -171 40 -171 152c0 19 2 40 6 63l5 30
c-31 -3 -64 -5 -99 -5zM266 542l-40 -223c133 40 209 126 209 240c0 77 -34 103 -73 103c-42 0 -80 -31 -96 -120z" />
    <glyph glyph-name="uni2116" unicode="&#x2116;" horiz-adv-x="1060" 
d="M887 416c68 0 100 67 100 130c0 54 -24 92 -75 92c-68 0 -100 -67 -100 -130c0 -54 24 -92 75 -92zM887 363c-88 0 -141 63 -141 148c0 91 62 181 166 181c88 0 141 -63 141 -148c0 -91 -62 -181 -166 -181zM47 0l127 720h97l250 -563l99 563h82l-127 -720h-73l-267 601
l-106 -601h-82z" />
    <glyph glyph-name="uni2117" unicode="&#x2117;" horiz-adv-x="838" 
d="M312 541h139c86 0 138 -38 138 -113s-53 -113 -143 -113h-67v-140h-67v366zM803 360c0 -213 -163 -372 -372 -372s-372 159 -372 372s163 372 372 372s372 -159 372 -372zM752 360c0 184 -142 322 -321 322c-180 0 -321 -138 -321 -322c0 -185 141 -323 321 -323
c179 0 321 138 321 323zM379 370h67c38 0 76 9 76 57c0 49 -38 58 -76 58h-67v-115z" />
    <glyph glyph-name="uni2120" unicode="&#x2120;" horiz-adv-x="777" 
d="M690 380l21 192c2 19 7 61 11 82h-2c-8 -22 -29 -62 -40 -82l-106 -192h-54l-34 193c-4 25 -11 61 -12 81h-2c-3 -20 -11 -56 -19 -86l-48 -188h-57l93 340h76l31 -196c4 -25 9 -57 9 -78h2c11 27 24 51 40 80l106 194h75l-31 -340h-59zM62 403l23 47
c31 -17 60 -28 94 -28c46 0 78 21 78 54c0 69 -145 50 -145 149c0 58 49 102 130 102c41 0 76 -11 104 -28l-23 -50c-27 17 -51 27 -81 27c-41 0 -69 -19 -69 -46c0 -61 145 -43 145 -147c0 -66 -58 -110 -142 -110c-41 0 -81 11 -114 30z" />
    <glyph glyph-name="trademark" unicode="&#x2122;" horiz-adv-x="762" 
d="M675 380l21 192c2 19 7 61 11 82h-2c-8 -22 -29 -62 -40 -82l-106 -192h-54l-34 193c-4 25 -11 61 -12 81h-2c-3 -20 -11 -56 -19 -86l-48 -188h-57l93 340h76l31 -196c4 -25 9 -57 9 -78h2c11 27 24 51 40 80l106 194h75l-31 -340h-59zM141 380l51 289h-100l9 51h260
l-9 -51h-99l-52 -289h-60z" />
    <glyph glyph-name="Omega" unicode="&#x2126;" horiz-adv-x="717" 
d="M412 655c-145 0 -252 -126 -252 -309c0 -118 45 -206 118 -281l-11 -65h-275l14 77h174c-67 67 -108 156 -108 272c0 220 149 383 342 383c162 0 279 -114 279 -303c0 -144 -68 -266 -190 -352h168l-14 -77h-271l11 65c133 97 208 209 208 358c0 152 -78 232 -193 232z
" />
    <glyph glyph-name="estimated" unicode="&#x212e;" horiz-adv-x="736" 
d="M375 17c75 0 142 31 190 79h53c-56 -65 -143 -108 -242 -108c-169 0 -309 125 -309 277s140 277 308 277s308 -125 308 -277v-15h-498v-154c48 -48 115 -79 190 -79zM375 513c-75 0 -142 -31 -190 -79v-154h380v154c-48 48 -115 79 -190 79z" />
    <glyph glyph-name="uni2150" unicode="&#x2150;" horiz-adv-x="798" 
d="M42 0l571 720h77l-571 -720h-77zM103 612l-10 55l111 53h50l-79 -446h-62l66 373zM524 389l9 57h287l-9 -53c-76 -113 -152 -237 -238 -393h-73c86 153 160 277 236 389h-212z" />
    <glyph glyph-name="uni2151" unicode="&#x2151;" horiz-adv-x="791" 
d="M42 0l571 720h77l-571 -720h-77zM552 -5c-43 0 -85 12 -114 32l28 49c28 -18 56 -27 88 -27c85 0 134 62 147 155c-35 -34 -74 -47 -112 -47c-75 0 -127 52 -127 137c0 100 72 163 156 163c87 0 150 -69 150 -198c0 -148 -82 -264 -216 -264zM604 208c33 0 63 15 101 49
c0 103 -37 145 -90 145s-92 -43 -92 -105c0 -56 32 -89 81 -89zM103 612l-10 55l111 53h50l-79 -446h-62l66 373z" />
    <glyph glyph-name="uni2152" unicode="&#x2152;" horiz-adv-x="1078" 
d="M42 0l571 720h77l-571 -720h-77zM514 338l-10 55l111 53h50l-79 -446h-62l66 373zM888 45c84 0 129 103 129 215c0 94 -32 139 -87 139c-84 0 -129 -103 -129 -215c0 -94 32 -139 87 -139zM886 -8c-87 0 -148 67 -148 194c0 141 75 268 194 268c87 0 148 -67 148 -194
c0 -141 -75 -268 -194 -268zM103 612l-10 55l111 53h50l-79 -446h-62l66 373z" />
    <glyph glyph-name="onethird" unicode="&#x2153;" horiz-adv-x="790" 
d="M42 0l571 720h77l-571 -720h-77zM640 454c73 0 129 -36 129 -106c0 -59 -40 -100 -109 -121c56 -17 81 -54 81 -102c0 -83 -74 -133 -176 -133c-55 0 -102 15 -137 36l27 51c32 -20 68 -34 111 -34c66 0 111 32 111 83c0 48 -39 72 -108 72c-15 0 -26 -1 -43 -2l9 51
c109 0 171 33 171 90c0 39 -30 60 -74 60c-36 0 -74 -14 -111 -39l-7 55c37 25 80 39 126 39zM103 612l-10 55l111 53h50l-79 -446h-62l66 373z" />
    <glyph glyph-name="twothirds" unicode="&#x2154;" horiz-adv-x="938" 
d="M189 0l571 720h77l-571 -720h-77zM323 605c0 39 -22 66 -70 66s-91 -26 -125 -65l-11 57c32 36 83 65 144 65c79 0 124 -48 124 -119c0 -81 -59 -152 -230 -281h192l-9 -54h-289l8 48c201 147 266 217 266 283zM788 454c73 0 129 -36 129 -106c0 -59 -40 -100 -109 -121
c56 -17 81 -54 81 -102c0 -83 -74 -133 -176 -133c-55 0 -102 15 -137 36l27 51c32 -20 68 -34 111 -34c66 0 111 32 111 83c0 48 -39 72 -108 72c-15 0 -26 -1 -43 -2l9 51c109 0 171 33 171 90c0 39 -30 60 -74 60c-36 0 -74 -14 -111 -39l-7 55c37 25 80 39 126 39z" />
    <glyph glyph-name="uni2155" unicode="&#x2155;" horiz-adv-x="789" 
d="M42 0l571 720h77l-571 -720h-77zM690 146c0 57 -37 82 -104 82c-23 0 -57 -3 -100 -16l49 234h249l-9 -55h-191l-25 -115c17 3 33 4 46 4c87 0 148 -46 148 -133c0 -97 -76 -155 -180 -155c-56 0 -104 17 -136 35l27 53c30 -18 62 -34 110 -34c71 0 116 36 116 100z
M103 612l-10 55l111 53h50l-79 -446h-62l66 373z" />
    <glyph glyph-name="uni2156" unicode="&#x2156;" horiz-adv-x="936" 
d="M190 0l571 720h77l-571 -720h-77zM323 605c0 39 -22 66 -70 66s-91 -26 -125 -65l-11 57c32 36 83 65 144 65c79 0 124 -48 124 -119c0 -81 -59 -152 -230 -281h192l-9 -54h-289l8 48c201 147 266 217 266 283zM837 146c0 57 -37 82 -104 82c-23 0 -57 -3 -100 -16
l49 234h249l-9 -55h-191l-25 -115c17 3 33 4 46 4c87 0 148 -46 148 -133c0 -97 -76 -155 -180 -155c-56 0 -104 17 -136 35l27 53c30 -18 62 -34 110 -34c71 0 116 36 116 100z" />
    <glyph glyph-name="uni2157" unicode="&#x2157;" horiz-adv-x="858" 
d="M112 0l571 720h77l-571 -720h-77zM759 146c0 57 -37 82 -104 82c-23 0 -57 -3 -100 -16l49 234h249l-9 -55h-191l-25 -115c17 3 33 4 46 4c87 0 148 -46 148 -133c0 -97 -76 -155 -180 -155c-56 0 -104 17 -136 35l27 53c30 -18 62 -34 110 -34c71 0 116 36 116 100z
M233 728c73 0 129 -36 129 -106c0 -59 -40 -100 -109 -121c56 -17 81 -54 81 -102c0 -83 -74 -133 -176 -133c-55 0 -102 15 -137 36l27 51c32 -20 68 -34 111 -34c66 0 111 32 111 83c0 48 -39 72 -108 72c-15 0 -26 -1 -43 -2l9 51c109 0 171 33 171 90
c0 39 -30 60 -74 60c-36 0 -74 -14 -111 -39l-7 55c37 25 80 39 126 39z" />
    <glyph glyph-name="uni2158" unicode="&#x2158;" horiz-adv-x="909" 
d="M164 0l571 720h77l-571 -720h-77zM48 366l9 52l247 302h82l-54 -300h67l-9 -54h-67l-16 -92h-61l16 92h-214zM122 420h149l42 233zM810 146c0 57 -37 82 -104 82c-23 0 -57 -3 -100 -16l49 234h249l-9 -55h-191l-25 -115c17 3 33 4 46 4c87 0 148 -46 148 -133
c0 -97 -76 -155 -180 -155c-56 0 -104 17 -136 35l27 53c30 -18 62 -34 110 -34c71 0 116 36 116 100z" />
    <glyph glyph-name="uni2159" unicode="&#x2159;" horiz-adv-x="760" 
d="M42 0l571 720h77l-571 -720h-77zM641 454c43 0 85 -12 114 -32l-28 -51c-28 18 -56 27 -88 27c-84 0 -134 -62 -147 -154c35 34 74 48 113 48c74 0 126 -52 126 -137c0 -100 -72 -163 -156 -163c-87 0 -150 69 -150 198c0 148 82 264 216 264zM589 239
c-34 0 -64 -16 -101 -49c0 -103 37 -145 90 -145s92 43 92 105c0 56 -32 89 -81 89zM101 612l-10 55l111 53h50l-79 -446h-62l66 373z" />
    <glyph glyph-name="uni215A" unicode="&#x215a;" horiz-adv-x="838" 
d="M119 0l571 720h77l-571 -720h-77zM281 420c0 57 -37 82 -104 82c-23 0 -57 -3 -100 -16l49 234h249l-9 -55h-191l-25 -115c17 3 33 4 46 4c87 0 148 -46 148 -133c0 -97 -76 -155 -180 -155c-56 0 -104 17 -136 35l27 53c30 -18 62 -34 110 -34c71 0 116 36 116 100z
M719 454c43 0 85 -12 114 -32l-28 -51c-28 18 -56 27 -88 27c-84 0 -134 -62 -147 -154c35 34 74 48 113 48c74 0 126 -52 126 -137c0 -100 -72 -163 -156 -163c-87 0 -150 69 -150 198c0 148 82 264 216 264zM667 239c-34 0 -64 -16 -101 -49c0 -103 37 -145 90 -145
s92 43 92 105c0 56 -32 89 -81 89z" />
    <glyph glyph-name="oneeighth" unicode="&#x215b;" horiz-adv-x="772" 
d="M42 0l571 720h77l-571 -720h-77zM564 -8c-91 0 -152 43 -152 116s61 104 128 127c-37 21 -69 49 -69 99c0 71 65 120 151 120c81 0 134 -43 134 -107c0 -60 -47 -91 -106 -112c46 -24 86 -53 86 -112c0 -82 -74 -131 -172 -131zM533 338c0 -37 32 -58 70 -77
c50 18 91 40 91 83c0 37 -29 59 -76 59c-50 0 -85 -26 -85 -65zM568 42c60 0 106 28 106 76c0 47 -42 70 -87 91c-57 -21 -113 -44 -113 -98c0 -45 38 -69 94 -69zM102 612l-10 55l111 53h50l-79 -446h-62l66 373z" />
    <glyph glyph-name="threeeighths" unicode="&#x215c;" horiz-adv-x="842" 
d="M233 728c73 0 129 -36 129 -106c0 -59 -40 -100 -109 -121c56 -17 81 -54 81 -102c0 -83 -74 -133 -176 -133c-55 0 -102 15 -137 36l27 51c32 -20 68 -34 111 -34c66 0 111 32 111 83c0 48 -39 72 -108 72c-15 0 -26 -1 -43 -2l9 51c109 0 171 33 171 90
c0 39 -30 60 -74 60c-36 0 -74 -14 -111 -39l-7 55c37 25 80 39 126 39zM634 -8c-91 0 -152 43 -152 116s61 104 128 127c-37 21 -69 49 -69 99c0 71 65 120 151 120c81 0 134 -43 134 -107c0 -60 -47 -91 -106 -112c46 -24 86 -53 86 -112c0 -82 -74 -131 -172 -131z
M603 338c0 -37 32 -58 70 -77c50 18 91 40 91 83c0 37 -29 59 -76 59c-50 0 -85 -26 -85 -65zM638 42c60 0 106 28 106 76c0 47 -42 70 -87 91c-57 -21 -113 -44 -113 -98c0 -45 38 -69 94 -69zM112 0l571 720h77l-571 -720h-77z" />
    <glyph glyph-name="fiveeighths" unicode="&#x215d;" horiz-adv-x="847" 
d="M281 420c0 57 -37 82 -104 82c-23 0 -57 -3 -100 -16l49 234h249l-9 -55h-191l-25 -115c17 3 33 4 46 4c87 0 148 -46 148 -133c0 -97 -76 -155 -180 -155c-56 0 -104 17 -136 35l27 53c30 -18 62 -34 110 -34c71 0 116 36 116 100zM639 -8c-91 0 -152 43 -152 116
s61 104 128 127c-37 21 -69 49 -69 99c0 71 65 120 151 120c81 0 134 -43 134 -107c0 -60 -47 -91 -106 -112c46 -24 86 -53 86 -112c0 -82 -74 -131 -172 -131zM608 338c0 -37 32 -58 70 -77c50 18 91 40 91 83c0 37 -29 59 -76 59c-50 0 -85 -26 -85 -65zM643 42
c60 0 106 28 106 76c0 47 -42 70 -87 91c-57 -21 -113 -44 -113 -98c0 -45 38 -69 94 -69zM118 0l571 720h77l-571 -720h-77z" />
    <glyph glyph-name="seveneighths" unicode="&#x215e;" horiz-adv-x="739" 
d="M98 663l9 57h287l-9 -53c-76 -113 -152 -237 -238 -393h-73c86 153 160 277 236 389h-212zM531 -8c-91 0 -152 43 -152 116s61 104 128 127c-37 21 -69 49 -69 99c0 71 65 120 151 120c81 0 134 -43 134 -107c0 -60 -47 -91 -106 -112c46 -24 86 -53 86 -112
c0 -82 -74 -131 -172 -131zM500 338c0 -37 32 -58 70 -77c50 18 91 40 91 83c0 37 -29 59 -76 59c-50 0 -85 -26 -85 -65zM535 42c60 0 106 28 106 76c0 47 -42 70 -87 91c-57 -21 -113 -44 -113 -98c0 -45 38 -69 94 -69zM8 0l571 720h77l-571 -720h-77z" />
    <glyph glyph-name="uni215F" unicode="&#x215f;" horiz-adv-x="601" 
d="M42 0l571 720h77l-571 -720h-77zM103 612l-10 55l111 53h50l-79 -446h-62l66 373z" />
    <glyph glyph-name="uni2189" unicode="&#x2189;" horiz-adv-x="908" 
d="M209 319c84 0 129 103 129 215c0 94 -32 139 -87 139c-84 0 -129 -103 -129 -215c0 -94 32 -139 87 -139zM207 266c-87 0 -148 67 -148 194c0 141 75 268 194 268c87 0 148 -67 148 -194c0 -141 -75 -268 -194 -268zM771 454c73 0 129 -36 129 -106
c0 -59 -40 -100 -109 -121c56 -17 81 -54 81 -102c0 -83 -74 -133 -176 -133c-55 0 -102 15 -137 36l27 51c32 -20 68 -34 111 -34c66 0 111 32 111 83c0 48 -39 72 -108 72c-15 0 -26 -1 -43 -2l9 51c109 0 171 33 171 90c0 39 -30 60 -74 60c-36 0 -74 -14 -111 -39l-7 55
c37 25 80 39 126 39zM128 0l571 720h77l-571 -720h-77z" />
    <glyph glyph-name="arrowleft" unicode="&#x2190;" 
d="M368 183l118 -117l-50 -49l-292 292l292 292l50 -49l-118 -117c-44 -44 -76 -75 -100 -91v-2c28 2 72 3 142 3h466v-72h-466c-70 0 -114 1 -142 3v-2c22 -15 54 -45 100 -91z" />
    <glyph glyph-name="arrowup" unicode="&#x2191;" 
d="M753 390l-117 118c-44 44 -75 76 -91 100h-2c2 -28 3 -72 3 -142v-466h-72v466c0 70 1 114 3 142h-2c-15 -22 -45 -54 -91 -100l-117 -118l-49 50l292 292l292 -292z" />
    <glyph glyph-name="arrowright" unicode="&#x2192;" 
d="M534 66l118 117c44 44 76 75 100 91v2c-28 -2 -72 -3 -142 -3h-466v72h466c70 0 114 -1 142 -3v2c-22 15 -54 45 -100 91l-118 117l50 49l292 -292l-292 -292z" />
    <glyph glyph-name="arrowdown" unicode="&#x2193;" 
d="M636 212l117 118l49 -50l-292 -292l-292 292l49 50l117 -118c44 -44 75 -76 91 -100h2c-2 28 -3 72 -3 142v466h72v-466c0 -70 -1 -114 -3 -142h2c15 22 45 54 91 100z" />
    <glyph glyph-name="uni2196" unicode="&#x2196;" 
d="M298 225h-71v413h413v-71h-166c-65 0 -108 1 -135 6l-1 -2c21 -18 51 -46 103 -98l329 -328l-50 -50l-328 329c-56 56 -80 82 -98 103l-2 -1c5 -27 6 -70 6 -135v-166z" />
    <glyph glyph-name="uni2197" unicode="&#x2197;" 
d="M760 225h-71v166c0 65 1 108 6 135l-2 1c-18 -21 -46 -51 -98 -103l-328 -329l-50 50l329 328c56 56 82 80 103 98l-1 2c-27 -5 -70 -6 -135 -6h-166v71h413v-413z" />
    <glyph glyph-name="uni2198" unicode="&#x2198;" 
d="M689 479h71v-413h-413v71h166c65 0 108 -1 135 -6l1 2c-21 18 -51 46 -103 98l-329 328l50 50l328 -329c56 -56 80 -82 98 -103l2 1c-5 27 -6 70 -6 135v166z" />
    <glyph glyph-name="uni2199" unicode="&#x2199;" 
d="M227 479h71v-166c0 -65 -1 -108 -6 -135l2 -1c18 21 46 51 98 103l328 329l50 -50l-329 -328c-56 -56 -82 -80 -103 -98l1 -2c27 5 70 6 135 6h166v-71h-413v413z" />
    <glyph glyph-name="partialdiff" unicode="&#x2202;" horiz-adv-x="572" 
d="M314 662c-43 0 -91 -17 -133 -47l-11 68c41 30 96 49 154 49c127 0 217 -93 217 -313c0 -270 -135 -431 -294 -431c-105 0 -204 70 -204 223c0 170 123 271 254 271c59 0 112 -20 159 -58c-2 167 -54 238 -142 238zM254 55c101 0 181 108 198 288c-46 47 -91 70 -145 70
c-96 0 -178 -74 -178 -202c0 -108 58 -156 125 -156z" />
    <glyph glyph-name="emptyset" unicode="&#x2205;" horiz-adv-x="676" 
d="M554 569l-47 -81c66 -49 108 -128 108 -223c0 -160 -120 -277 -278 -277c-40 0 -79 8 -113 22l-49 -83l-55 34l47 81c-66 49 -108 128 -108 223c0 160 120 277 278 277c40 0 79 -8 113 -22l49 83zM125 265c0 -69 29 -127 77 -165l213 361c-24 8 -50 13 -78 13
c-121 0 -212 -88 -212 -209zM549 265c0 69 -29 127 -77 165l-213 -361c24 -8 50 -13 78 -13c121 0 212 88 212 209z" />
    <glyph glyph-name="Delta" unicode="&#x2206;" horiz-adv-x="677" 
d="M474 720l116 -655l-12 -65h-569l11 65l351 655h103zM408 632l-288 -555h380z" />
    <glyph glyph-name="product" unicode="&#x220f;" horiz-adv-x="717" 
d="M22 -140l152 860h530l-152 -860h-88l138 782h-354l-138 -782h-88z" />
    <glyph glyph-name="summation" unicode="&#x2211;" horiz-adv-x="571" 
d="M-24 -140l12 65l351 382l-201 346l12 67h469l-13 -78h-367l200 -344l-334 -361h378l-14 -77h-493z" />
    <glyph glyph-name="minus" unicode="&#x2212;" horiz-adv-x="572" 
d="M524 219h-488l13 72h488z" />
    <glyph glyph-name="uni2215" unicode="&#x2215;" horiz-adv-x="572" 
d="M-63 0l571 720h77l-571 -720h-77z" />
    <glyph glyph-name="uni2219" unicode="&#x2219;" horiz-adv-x="572" 
d="M423 350c0 -71 -52 -122 -122 -122s-122 51 -122 122s52 122 122 122s122 -51 122 -122z" />
    <glyph glyph-name="radical" unicode="&#x221a;" horiz-adv-x="572" 
d="M149 -80l-107 510h84l80 -412l389 702h90l-449 -800h-87z" />
    <glyph glyph-name="infinity" unicode="&#x221e;" horiz-adv-x="800" 
d="M177 126c60 0 120 62 182 130c-45 68 -89 128 -149 128c-61 0 -114 -62 -114 -150c0 -71 35 -108 81 -108zM405 310c72 77 142 142 222 142c74 0 138 -55 138 -170c0 -132 -83 -224 -179 -224c-81 0 -139 66 -191 142c-72 -77 -142 -142 -222 -142
c-74 0 -138 55 -138 170c0 132 83 224 179 224c81 0 139 -66 191 -142zM623 384c-60 0 -120 -62 -182 -130c45 -68 89 -128 149 -128c61 0 114 62 114 150c0 71 -35 108 -81 108z" />
    <glyph glyph-name="integral" unicode="&#x222b;" horiz-adv-x="361" 
d="M-50 -210l12 69h31c59 0 78 25 87 74l117 661c14 77 58 126 182 126h31l-12 -69h-31c-59 0 -78 -25 -87 -74l-117 -661c-14 -77 -58 -126 -182 -126h-31z" />
    <glyph glyph-name="congruent" unicode="&#x2245;" horiz-adv-x="572" 
d="M531 258l-12 -66h-488l12 66h488zM495 54l-12 -66h-488l12 66h488zM194 419c-42 0 -81 -16 -114 -44l-20 64c30 23 80 47 137 47c81 0 169 -48 242 -48c42 0 81 16 114 44l20 -64c-30 -23 -80 -47 -137 -47c-81 0 -169 48 -242 48z" />
    <glyph glyph-name="approxequal" unicode="&#x2248;" horiz-adv-x="572" 
d="M180 340c-42 0 -81 -16 -114 -44l-20 64c30 23 80 47 137 47c81 0 169 -48 242 -48c42 0 81 16 114 44l20 -64c-30 -23 -80 -47 -137 -47c-81 0 -169 48 -242 48zM146 150c-42 0 -81 -16 -114 -44l-20 64c30 23 80 47 137 47c81 0 169 -48 242 -48c42 0 81 16 114 44
l20 -64c-30 -23 -80 -47 -137 -47c-81 0 -169 48 -242 48z" />
    <glyph glyph-name="notequal" unicode="&#x2260;" horiz-adv-x="572" 
d="M455 530l52 -42l-75 -98h122l-12 -66h-161l-107 -138h244l-12 -66h-282l-107 -140l-52 42l75 98h-122l12 66h160l107 138h-243l12 66h282z" />
    <glyph glyph-name="lessequal" unicode="&#x2264;" horiz-adv-x="572" 
d="M44 270l13 69l517 171l-13 -71l-428 -138l380 -138l-11 -63zM495 54l-12 -66h-488l12 66h488z" />
    <glyph glyph-name="greaterequal" unicode="&#x2265;" horiz-adv-x="572" 
d="M545 340l-13 -69l-517 -171l13 71l428 138l-380 138l11 63zM495 54l-12 -66h-488l12 66h488z" />
    <glyph glyph-name="circleplus" unicode="&#x2295;" 
d="M883 360c0 -213 -163 -372 -372 -372s-372 159 -372 372s163 372 372 372s372 -159 372 -372zM190 360c0 -184 141 -322 321 -322c179 0 321 138 321 322s-142 322 -321 322c-180 0 -321 -138 -321 -322zM545 118h-68v208h-199v68h199v208h68v-208h199v-68h-199v-208z
" />
    <glyph glyph-name="uni2296" unicode="&#x2296;" 
d="M883 360c0 -213 -163 -372 -372 -372s-372 159 -372 372s163 372 372 372s372 -159 372 -372zM190 360c0 -184 141 -322 321 -322c179 0 321 138 321 322s-142 322 -321 322c-180 0 -321 -138 -321 -322zM744 326h-466v68h466v-68z" />
    <glyph glyph-name="circlemultiply" unicode="&#x2297;" 
d="M305 519l46 47l160 -159l160 159l46 -47l-158 -159l158 -159l-46 -48l-160 159l-160 -159l-46 48l158 159zM883 360c0 -213 -163 -372 -372 -372s-372 159 -372 372s163 372 372 372s372 -159 372 -372zM190 360c0 -184 141 -322 321 -322c179 0 321 138 321 322
s-142 322 -321 322c-180 0 -321 -138 -321 -322z" />
    <glyph glyph-name="uni2298" unicode="&#x2298;" 
d="M305 201l366 365l46 -47l-366 -366zM883 360c0 -213 -163 -372 -372 -372s-372 159 -372 372s163 372 372 372s372 -159 372 -372zM190 360c0 -184 141 -322 321 -322c179 0 321 138 321 322s-142 322 -321 322c-180 0 -321 -138 -321 -322z" />
    <glyph glyph-name="uni229C" unicode="&#x229c;" 
d="M744 488v-63h-466v63h466zM744 295v-63h-466v63h466zM883 360c0 -213 -163 -372 -372 -372s-372 159 -372 372s163 372 372 372s372 -159 372 -372zM190 360c0 -184 141 -322 321 -322c179 0 321 138 321 322s-142 322 -321 322c-180 0 -321 -138 -321 -322z" />
    <glyph glyph-name="dotmath" unicode="&#x22c5;" horiz-adv-x="572" 
d="M343 258c0 -33 -23 -58 -58 -58c-34 0 -58 25 -58 58s24 58 58 58c35 0 58 -25 58 -58z" />
    <glyph glyph-name="uni2460" unicode="&#x2460;" 
d="M435 443l-10 54l109 52h49l-78 -436h-61l65 365zM88 330c0 -240 182 -418 417 -418s417 178 417 418s-182 418 -417 418s-417 -178 -417 -418zM973 330c0 -269 -205 -468 -468 -468s-468 199 -468 468s205 468 468 468s468 -199 468 -468z" />
    <glyph glyph-name="uni2461" unicode="&#x2461;" 
d="M600 437c0 38 -21 64 -68 64s-89 -25 -123 -63l-10 55c31 36 81 64 141 64c77 0 121 -47 121 -116c0 -80 -58 -149 -225 -275h188l-9 -53h-283l8 47c197 144 260 212 260 277zM88 330c0 -240 182 -418 417 -418s417 178 417 418s-182 418 -417 418s-417 -178 -417 -418z
M973 330c0 -269 -205 -468 -468 -468s-468 199 -468 468s205 468 468 468s468 -199 468 -468z" />
    <glyph glyph-name="uni2462" unicode="&#x2462;" 
d="M543 557c71 0 126 -35 126 -104c0 -57 -39 -98 -107 -118c55 -17 80 -53 80 -100c0 -81 -73 -130 -173 -130c-54 0 -100 15 -134 35l27 50c31 -19 66 -33 108 -33c65 0 109 31 109 81c0 47 -38 70 -106 70c-14 0 -25 -1 -42 -1l9 49c107 0 168 33 168 88
c0 39 -30 59 -73 59c-35 0 -73 -14 -109 -38l-7 54c37 24 79 38 124 38zM88 330c0 -240 182 -418 417 -418s417 178 417 418s-182 418 -417 418s-417 -178 -417 -418zM973 330c0 -269 -205 -468 -468 -468s-468 199 -468 468s205 468 468 468s468 -199 468 -468z" />
    <glyph glyph-name="uni2463" unicode="&#x2463;" 
d="M291 203l9 51l242 295h80l-53 -293h66l-9 -53h-66l-15 -90h-60l16 90h-210zM363 256h146l42 228zM88 330c0 -240 182 -418 417 -418s417 178 417 418s-182 418 -417 418s-417 -178 -417 -418zM973 330c0 -269 -205 -468 -468 -468s-468 199 -468 468s205 468 468 468
s468 -199 468 -468z" />
    <glyph glyph-name="uni2464" unicode="&#x2464;" 
d="M582 256c0 55 -36 80 -102 80c-23 0 -56 -3 -98 -16l48 229h244l-9 -54h-187l-24 -112c16 3 32 4 45 4c85 0 145 -45 145 -130c0 -95 -75 -152 -177 -152c-55 0 -102 17 -133 34l26 52c30 -18 61 -33 108 -33c70 0 114 35 114 98zM88 330c0 -240 182 -418 417 -418
s417 178 417 418s-182 418 -417 418s-417 -178 -417 -418zM973 330c0 -269 -205 -468 -468 -468s-468 199 -468 468s205 468 468 468s468 -199 468 -468z" />
    <glyph glyph-name="uni2465" unicode="&#x2465;" 
d="M556 557c42 0 83 -12 112 -31l-28 -50c-27 17 -55 26 -86 26c-82 0 -131 -60 -144 -150c34 33 72 46 111 46c72 0 123 -50 123 -134c0 -97 -70 -159 -153 -159c-85 0 -147 67 -147 194c0 144 81 258 212 258zM505 347c-33 0 -63 -16 -99 -48c0 -101 36 -142 88 -142
s90 42 90 103c0 54 -31 87 -79 87zM88 330c0 -240 182 -418 417 -418s417 178 417 418s-182 418 -417 418s-417 -178 -417 -418zM973 330c0 -269 -205 -468 -468 -468s-468 199 -468 468s205 468 468 468s468 -199 468 -468z" />
    <glyph glyph-name="uni2466" unicode="&#x2466;" 
d="M405 493l8 56h282l-9 -52c-75 -110 -149 -232 -233 -384h-72c84 149 157 271 231 380h-207zM88 330c0 -240 182 -418 417 -418s417 178 417 418s-182 418 -417 418s-417 -178 -417 -418zM973 330c0 -269 -205 -468 -468 -468s-468 199 -468 468s205 468 468 468
s468 -199 468 -468z" />
    <glyph glyph-name="uni2467" unicode="&#x2467;" 
d="M484 105c-90 0 -149 42 -149 113c0 72 59 102 125 125c-36 20 -67 48 -67 97c0 69 63 117 148 117c79 0 131 -42 131 -105c0 -58 -46 -89 -104 -109c45 -24 84 -52 84 -110c0 -80 -72 -128 -168 -128zM454 443c0 -36 31 -56 68 -75c49 18 89 39 89 82c0 36 -29 57 -74 57
c-49 0 -83 -25 -83 -64zM488 154c58 0 103 27 103 74c0 46 -41 69 -85 89c-56 -20 -110 -43 -110 -96c0 -44 37 -67 92 -67zM88 330c0 -240 182 -418 417 -418s417 178 417 418s-182 418 -417 418s-417 -178 -417 -418zM973 330c0 -269 -205 -468 -468 -468
s-468 199 -468 468s205 468 468 468s468 -199 468 -468z" />
    </font>
</defs>
</svg>
