<?xml version="1.0" standalone="no"?>
<!DOCTYPE svg PUBLIC "-//W3C//DTD SVG 1.1//EN" "http://www.w3.org/Graphics/SVG/1.1/DTD/svg11.dtd" >
<svg xmlns="http://www.w3.org/2000/svg" xmlns:xlink="http://www.w3.org/1999/xlink" version="1.1">
<metadata>
Created by FontForge 20160405 at Thu Mar 29 10:52:24 2018
 By www-data
2011 published by FontShop International GmbH
</metadata>
<defs>
<font id="SeroPro" horiz-adv-x="1000" >
  <font-face 
    font-family="SeroPro"
    font-weight="400"
    font-stretch="normal"
    units-per-em="1000"
    panose-1="2 11 5 4 2 1 1 2 1 2"
    ascent="778"
    descent="-222"
    x-height="510"
    cap-height="720"
    bbox="-968 -222 2733 951"
    underline-thickness="67"
    underline-position="-101"
    stemh="70"
    stemv="86"
    unicode-range="U+000D-1F4AC"
  />
<missing-glyph horiz-adv-x="500" 
d="M0 0v720h500v-720h-500zM68 652v-584h364v584h-364z" />
    <glyph glyph-name="f_b" unicode="fb" horiz-adv-x="895" 
d="M24 440v70h99v66c0 98 41 150 141 150c20 0 38 -2 58 -6v-70c-17 5 -31 6 -42 6c-57 0 -71 -27 -71 -80v-66h113v-70h-113v-440h-86v440h-99zM398 720h86v-282c44 52 100 84 167 84c114 0 197 -91 197 -262c0 -179 -91 -272 -208 -272c-63 0 -115 27 -160 81v-69h-82v720
zM629 447c-54 0 -102 -29 -145 -77v-239c41 -47 89 -72 141 -72c82 0 137 62 137 195c0 131 -53 193 -133 193z" />
    <glyph glyph-name="f_f" unicode="ff" horiz-adv-x="645" 
d="M209 440v-440h-86v440h-99v70h99v66c0 98 41 150 143 150c20 0 38 -2 58 -6v-70c-17 5 -31 6 -42 6c-59 0 -73 -27 -73 -80v-66h215v66c0 98 41 150 143 150c20 0 38 -2 58 -6v-70c-17 5 -31 6 -42 6c-59 0 -73 -27 -73 -80v-66h115v-70h-115v-440h-86v440h-215z" />
    <glyph glyph-name="f_f_i" unicode="ffi" horiz-adv-x="873" 
d="M24 440v70h99v66c0 98 41 150 143 150c20 0 38 -2 58 -6v-70c-17 5 -31 6 -42 6c-59 0 -73 -27 -73 -80v-66h215v66c0 98 41 150 141 150c20 0 38 -2 58 -6v-70c-17 5 -31 6 -42 6c-57 0 -71 -27 -71 -80v-66h113v-70h-113v-440h-86v440h-215v-440h-86v440h-99zM705 0
v510h86v-510h-86zM748 705c32 0 54 -23 54 -53s-22 -53 -54 -53s-54 23 -54 53s22 53 54 53z" />
    <glyph glyph-name="f_f_l" unicode="ffl" horiz-adv-x="873" 
d="M705 0v720h86v-720h-86zM24 440v70h99v66c0 98 41 150 143 150c20 0 38 -2 58 -6v-70c-17 5 -31 6 -42 6c-59 0 -73 -27 -73 -80v-66h215v66c0 98 41 150 141 150c20 0 38 -2 58 -6v-70c-17 5 -31 6 -42 6c-57 0 -71 -27 -71 -80v-66h113v-70h-113v-440h-86v440h-215
v-440h-86v440h-99z" />
    <glyph glyph-name="f_h" unicode="fh" horiz-adv-x="890" 
d="M24 440v70h99v66c0 98 41 150 141 150c20 0 38 -2 58 -6v-70c-17 5 -31 6 -42 6c-57 0 -71 -27 -71 -80v-66h113v-70h-113v-440h-86v440h-99zM398 0v720h86v-286c43 45 112 88 198 88c76 0 138 -34 138 -142v-380h-86v360c0 66 -32 87 -80 87c-66 0 -123 -39 -170 -82
v-365h-86z" />
    <glyph glyph-name="f_i" unicode="fi" horiz-adv-x="572" 
d="M24 440v70h99v66c0 98 41 150 141 150c20 0 38 -2 58 -6v-70c-17 5 -31 6 -42 6c-57 0 -71 -27 -71 -80v-66h113v-70h-113v-440h-86v440h-99zM404 0v510h86v-510h-86zM447 705c32 0 54 -23 54 -53s-22 -53 -54 -53s-54 23 -54 53s22 53 54 53z" />
    <glyph glyph-name="f_j" unicode="fj" horiz-adv-x="572" 
d="M24 440v70h99v66c0 98 41 150 141 150c20 0 38 -2 58 -6v-70c-17 5 -31 6 -42 6c-57 0 -71 -27 -71 -80v-66h113v-70h-113v-440h-86v440h-99zM490 510v-576c0 -98 -41 -150 -142 -150c-20 0 -39 2 -59 6v70c17 -5 31 -6 42 -6c58 0 73 27 73 80v576h86zM447 705
c32 0 54 -23 54 -53s-22 -53 -54 -53s-54 23 -54 53s22 53 54 53z" />
    <glyph glyph-name="f_k" unicode="fk" horiz-adv-x="853" 
d="M24 440v70h99v66c0 98 41 150 141 150c20 0 38 -2 58 -6v-70c-17 5 -31 6 -42 6c-57 0 -71 -27 -71 -80v-66h113v-70h-113v-440h-86v440h-99zM398 0v720h86v-429l218 219h103l-191 -182l212 -328h-92l-176 274l-74 -70v-204h-86z" />
    <glyph glyph-name="f_l" unicode="fl" horiz-adv-x="572" 
d="M404 0v720h86v-720h-86zM24 440v70h99v66c0 98 41 150 141 150c20 0 38 -2 58 -6v-70c-17 5 -31 6 -42 6c-57 0 -71 -27 -71 -80v-66h113v-70h-113v-440h-86v440h-99z" />
    <glyph glyph-name="f_t" unicode="ft" horiz-adv-x="676" 
d="M424 133v307h-215v-440h-86v440h-99v70h99v66c0 98 41 150 141 150c20 0 38 -2 58 -6v-70c-17 5 -31 6 -42 6c-57 0 -71 -27 -71 -80v-66h215v170h86v-170h127v-70h-127v-296c0 -62 11 -79 58 -79c28 0 50 6 69 12v-73c-24 -5 -52 -10 -88 -10c-92 0 -125 33 -125 139z
" />
    <glyph glyph-name=".notdef" horiz-adv-x="500" 
d="M0 0v720h500v-720h-500zM68 652v-584h364v584h-364z" />
    <glyph glyph-name=".null" horiz-adv-x="0" 
 />
    <glyph glyph-name="CR" unicode="&#xd;" horiz-adv-x="220" 
 />
    <glyph glyph-name="space" unicode=" " horiz-adv-x="220" 
 />
    <glyph glyph-name="exclam" unicode="!" horiz-adv-x="319" 
d="M159 -12c-33 0 -56 24 -56 54s23 54 56 54s56 -24 56 -54s-23 -54 -56 -54zM127 202l-15 518h95l-15 -518h-65z" />
    <glyph glyph-name="quotedbl" unicode="&#x22;" horiz-adv-x="404" 
d="M255 461l-6 259h76l-7 -259h-63zM84 461l-6 259h76l-7 -259h-63z" />
    <glyph glyph-name="numbersign" unicode="#" horiz-adv-x="572" 
d="M287 0l45 210h-147l-45 -210h-70l45 210h-92v67h106l27 126h-95v67h109l45 210h70l-45 -210h147l45 210h70l-45 -210h92v-67h-106l-27 -126h95v-67h-109l-45 -210h-70zM226 403l-27 -126h147l27 126h-147z" />
    <glyph glyph-name="dollar" unicode="$" horiz-adv-x="560" 
d="M254 -100v100c-74 2 -147 26 -205 64l26 77c50 -33 111 -61 179 -66v264c-93 29 -188 63 -188 185c0 107 74 180 188 193v83h58v-81c67 -4 126 -27 175 -62l-25 -78c-47 33 -95 58 -150 64v-237c95 -29 198 -63 198 -196c0 -114 -75 -193 -198 -208v-102h-58zM424 199
c0 69 -50 99 -112 121v-242c69 12 112 56 112 121zM153 533c0 -61 44 -88 101 -108v216c-63 -11 -101 -52 -101 -108z" />
    <glyph glyph-name="percent" unicode="%" horiz-adv-x="757" 
d="M358 562c0 -93 -57 -166 -151 -166c-92 0 -149 71 -149 164s57 166 151 166c92 0 149 -71 149 -164zM292 561c0 65 -27 111 -84 111s-84 -46 -84 -111s27 -111 84 -111s84 46 84 111zM117 0l447 720h75l-447 -720h-75zM698 160c0 -93 -57 -166 -151 -166
c-92 0 -149 71 -149 164s57 166 151 166c92 0 149 -71 149 -164zM632 159c0 65 -27 111 -84 111s-84 -46 -84 -111s27 -111 84 -111s84 46 84 111z" />
    <glyph glyph-name="ampersand" unicode="&#x26;" horiz-adv-x="611" 
d="M111 525c0 98 74 167 194 167c115 0 181 -64 181 -147c0 -97 -93 -141 -182 -187l155 -172c21 29 43 65 66 107l61 -35c-24 -47 -50 -89 -79 -125l80 -89l-57 -57l-78 87c-60 -56 -129 -87 -213 -87c-127 0 -205 72 -205 180c0 100 65 155 154 203v1
c-44 50 -77 89 -77 154zM248 55c57 0 107 24 158 71l-173 194c-63 -37 -114 -76 -114 -147c0 -67 46 -118 129 -118zM192 528c0 -46 29 -78 68 -121c79 39 148 69 148 132c0 45 -35 85 -104 85c-72 0 -112 -42 -112 -96z" />
    <glyph glyph-name="quotesingle" unicode="'" horiz-adv-x="233" 
d="M84 461l-6 259h76l-7 -259h-63z" />
    <glyph glyph-name="parenleft" unicode="(" horiz-adv-x="364" 
d="M132 273c0 -204 100 -332 196 -413l-43 -46c-101 81 -239 217 -239 459s138 378 239 459l43 -46c-96 -81 -196 -209 -196 -413z" />
    <glyph glyph-name="parenright" unicode=")" horiz-adv-x="364" 
d="M232 273c0 204 -100 332 -196 413l43 46c101 -81 239 -217 239 -459s-138 -378 -239 -459l-43 46c96 81 196 209 196 413z" />
    <glyph glyph-name="asterisk" unicode="*" horiz-adv-x="425" 
d="M382 526l-138 12l79 -113l-52 -31l-59 125l-59 -125l-52 31l79 113l-138 -12v62l138 -12l-79 113l52 31l59 -125l59 125l52 -31l-79 -113l138 12v-62z" />
    <glyph glyph-name="plus" unicode="+" horiz-adv-x="572" 
d="M322 0h-72v219h-208v72h208v219h72v-219h208v-72h-208v-219z" />
    <glyph glyph-name="comma" unicode="," horiz-adv-x="283" 
d="M85 -166l-44 38c66 39 92 83 101 121c-37 0 -61 24 -61 56c0 31 22 55 57 55c39 0 68 -31 68 -86c0 -54 -28 -125 -121 -184z" />
    <glyph glyph-name="hyphen" unicode="-" horiz-adv-x="406" 
d="M62 278v67h281v-67h-281z" />
    <glyph glyph-name="period" unicode="." horiz-adv-x="283" 
d="M199 46c0 -33 -23 -58 -58 -58c-34 0 -58 25 -58 58s24 58 58 58c35 0 58 -25 58 -58z" />
    <glyph glyph-name="slash" unicode="/" horiz-adv-x="574" 
d="M24 -40l438 760h88l-438 -760h-88z" />
    <glyph glyph-name="zero" unicode="0" horiz-adv-x="627" 
d="M573 362c0 -245 -112 -374 -262 -374c-148 0 -258 127 -258 370c0 245 112 374 262 374c148 0 258 -127 258 -370zM486 359c0 205 -71 297 -173 297s-173 -92 -173 -297s71 -297 173 -297s173 92 173 297z" />
    <glyph glyph-name="one" unicode="1" horiz-adv-x="363" 
d="M61 563l-29 71l162 86h68v-720h-85v624z" />
    <glyph glyph-name="two" unicode="2" horiz-adv-x="563" 
d="M402 524c0 77 -48 130 -132 130c-75 0 -135 -43 -188 -111l-32 75c56 68 133 114 229 114c126 0 210 -79 210 -203c0 -123 -82 -240 -312 -454h332v-75h-459v65c261 235 352 353 352 459z" />
    <glyph glyph-name="three" unicode="3" horiz-adv-x="547" 
d="M404 193c0 92 -73 135 -201 135c-19 0 -39 -1 -67 -2v74c163 0 252 44 252 141c0 75 -52 115 -134 115c-62 0 -114 -23 -174 -64l-25 73c60 41 131 67 209 67c121 0 211 -63 211 -179c0 -89 -54 -147 -151 -180c103 -22 169 -81 169 -183c0 -130 -107 -202 -257 -202
c-81 0 -154 21 -207 52l26 76c52 -29 111 -54 185 -54c99 0 164 45 164 131z" />
    <glyph glyph-name="four" unicode="4" horiz-adv-x="594" 
d="M31 152v72l327 496h104v-493h109v-75h-109v-152h-85v152h-346zM119 227h258v391z" />
    <glyph glyph-name="five" unicode="5" horiz-adv-x="539" 
d="M412 217c0 108 -73 160 -192 160c-37 0 -93 -5 -160 -25l12 368h394v-76h-313l-8 -205c39 8 75 10 99 10c147 0 254 -77 254 -229c0 -153 -108 -232 -260 -232c-78 0 -151 21 -204 52l26 77c52 -29 112 -54 183 -54c102 0 169 51 169 154z" />
    <glyph glyph-name="six" unicode="6" horiz-adv-x="585" 
d="M339 732c64 0 124 -19 167 -46l-27 -76c-43 24 -89 46 -146 46c-111 0 -188 -84 -195 -269c59 59 124 82 188 82c126 0 216 -92 216 -236c0 -158 -108 -245 -231 -245c-149 0 -258 128 -258 367c0 252 122 377 286 377zM309 396c-58 0 -110 -26 -170 -82
c11 -172 77 -253 174 -253c83 0 145 58 145 166c0 105 -58 169 -149 169z" />
    <glyph glyph-name="seven" unicode="7" horiz-adv-x="536" 
d="M216 0h-96c97 256 188 459 279 642h-355v78h454v-72c-91 -184 -183 -389 -282 -648z" />
    <glyph glyph-name="eight" unicode="8" horiz-adv-x="580" 
d="M543 189c0 -125 -110 -201 -258 -201c-147 0 -248 76 -248 195c0 108 83 157 167 192c-73 33 -134 80 -134 169c0 114 97 188 225 188c126 0 215 -72 215 -181c0 -87 -58 -128 -139 -165c80 -35 172 -83 172 -197zM155 549c0 -67 50 -97 139 -131c83 34 131 65 131 131
c0 68 -52 113 -135 113c-81 0 -135 -44 -135 -113zM457 185c0 83 -76 117 -176 158c-92 -41 -158 -76 -158 -156c0 -81 68 -131 166 -131c96 0 168 49 168 129z" />
    <glyph glyph-name="nine" unicode="9" horiz-adv-x="585" 
d="M245 -12c-64 0 -124 19 -167 46l27 74c43 -24 89 -46 146 -46c110 0 187 81 194 270c-57 -59 -123 -81 -186 -81c-127 0 -217 91 -217 235c0 158 107 246 231 246c149 0 258 -128 258 -367c0 -252 -122 -377 -286 -377zM275 322c58 0 110 26 170 82
c-11 169 -77 253 -175 253c-82 0 -144 -58 -144 -166c0 -105 58 -169 149 -169z" />
    <glyph glyph-name="colon" unicode=":" horiz-adv-x="283" 
d="M199 434c0 -33 -23 -58 -58 -58c-34 0 -58 25 -58 58s24 58 58 58c35 0 58 -25 58 -58zM199 46c0 -33 -23 -58 -58 -58c-34 0 -58 25 -58 58s24 58 58 58c35 0 58 -25 58 -58z" />
    <glyph glyph-name="semicolon" unicode=";" horiz-adv-x="283" 
d="M85 -166l-44 38c66 39 92 83 101 121c-37 0 -61 24 -61 56c0 31 22 55 57 55c39 0 68 -31 68 -86c0 -54 -28 -125 -121 -184zM197 434c0 -33 -23 -58 -58 -58c-34 0 -58 25 -58 58s24 58 58 58c35 0 58 -25 58 -58z" />
    <glyph glyph-name="less" unicode="&#x3c;" horiz-adv-x="572" 
d="M42 222v66l488 222v-72l-407 -183l407 -183v-72z" />
    <glyph glyph-name="equal" unicode="=" horiz-adv-x="572" 
d="M530 390v-66h-488v66h488zM530 186v-66h-488v66h488z" />
    <glyph glyph-name="greater" unicode="&#x3e;" horiz-adv-x="572" 
d="M530 288v-66l-488 -222v72l407 183l-407 183v72z" />
    <glyph glyph-name="question" unicode="?" horiz-adv-x="424" 
d="M285 546c0 78 -65 114 -149 114c-24 0 -58 -3 -95 -14v70c37 11 76 16 112 16c124 0 217 -60 217 -176c0 -172 -202 -192 -202 -319c0 -9 1 -22 4 -35h-69c-4 20 -6 37 -6 51c0 139 188 161 188 293zM139 96c33 0 56 -24 56 -54s-23 -54 -56 -54s-56 24 -56 54
s23 54 56 54z" />
    <glyph glyph-name="at" unicode="@" horiz-adv-x="836" 
d="M420 -95c-206 0 -370 123 -370 353c0 226 159 391 389 391c206 0 347 -133 347 -334c0 -157 -86 -234 -180 -234c-65 0 -104 38 -111 90c-42 -49 -86 -90 -148 -90c-65 0 -113 44 -113 147c0 113 58 245 215 245c54 0 99 -16 123 -28l-22 -206c-1 -9 -2 -16 -2 -27
c0 -55 26 -77 62 -77c66 0 116 71 116 181c0 170 -120 277 -288 277c-194 0 -328 -142 -328 -335c0 -197 140 -297 308 -297c71 0 137 18 197 40l17 -56c-60 -23 -135 -40 -212 -40zM358 138c51 0 100 53 130 96l18 169c-19 8 -41 14 -67 14c-112 0 -144 -113 -144 -185
c0 -68 28 -94 63 -94z" />
    <glyph glyph-name="A" unicode="A" horiz-adv-x="677" 
d="M392 720l252 -720h-92l-66 195h-298l-66 -195h-90l257 720h103zM338 631l-125 -364h248z" />
    <glyph glyph-name="B" unicode="B" horiz-adv-x="648" 
d="M92 0v720h231c149 0 236 -61 236 -188c0 -81 -36 -134 -109 -161c96 -25 139 -89 139 -177c0 -121 -80 -194 -251 -194h-246zM179 72h159c111 0 165 40 165 130s-54 129 -165 129h-159v-259zM179 401h138c104 0 156 38 156 123s-52 122 -156 122h-138v-245z" />
    <glyph glyph-name="C" unicode="C" horiz-adv-x="606" 
d="M534 128l26 -73c-52 -39 -122 -67 -204 -67c-175 0 -301 124 -301 365c0 247 132 379 314 379c76 0 138 -23 189 -61l-26 -80c-51 37 -100 63 -167 63c-130 0 -222 -96 -222 -296s92 -294 222 -294c65 0 116 23 169 64z" />
    <glyph glyph-name="D" unicode="D" horiz-adv-x="699" 
d="M92 720h225c192 0 326 -123 326 -359c0 -238 -136 -361 -326 -361h-225v720zM180 76h137c140 0 238 89 238 283c0 193 -98 282 -238 282h-137v-565z" />
    <glyph glyph-name="E" unicode="E" horiz-adv-x="588" 
d="M92 0v720h444v-78h-356v-232h313v-75h-313v-258h359v-77h-447z" />
    <glyph glyph-name="F" unicode="F" horiz-adv-x="544" 
d="M92 0v720h418v-78h-330v-242h294v-75h-294v-325h-88z" />
    <glyph glyph-name="G" unicode="G" horiz-adv-x="677" 
d="M382 61c50 0 94 11 135 30v214h-155v72h239v-323c-65 -41 -141 -66 -228 -66c-192 0 -318 122 -318 364c0 249 134 380 326 380c91 0 162 -29 220 -73l-26 -81c-60 48 -120 76 -196 76c-139 0 -236 -93 -236 -299c0 -203 95 -294 239 -294z" />
    <glyph glyph-name="H" unicode="H" horiz-adv-x="706" 
d="M92 0v720h88v-308h346v308h88v-720h-88v335h-346v-335h-88z" />
    <glyph glyph-name="I" unicode="I" horiz-adv-x="288" 
d="M100 0v720h88v-720h-88z" />
    <glyph glyph-name="J" unicode="J" horiz-adv-x="406" 
d="M29 2v79c25 -6 57 -11 87 -11c94 0 118 51 118 139v511h88v-511c0 -142 -53 -215 -199 -215c-30 0 -67 3 -94 8z" />
    <glyph glyph-name="K" unicode="K" horiz-adv-x="650" 
d="M92 0v720h88v-348l318 348h108l-251 -264l274 -456h-98l-235 394l-116 -123v-271h-88z" />
    <glyph glyph-name="L" unicode="L" horiz-adv-x="532" 
d="M92 0v720h88v-642h323v-78h-411z" />
    <glyph glyph-name="M" unicode="M" horiz-adv-x="917" 
d="M250 720l153 -441c28 -81 42 -124 54 -176h2c14 53 32 109 57 178l156 439h113l56 -720h-89l-27 425c-4 61 -9 156 -9 195h-2c-7 -31 -39 -133 -58 -184l-159 -436h-81l-157 437c-19 53 -50 144 -59 183h-2c0 -39 -4 -138 -8 -199l-28 -421h-86l60 720h114z" />
    <glyph glyph-name="N" unicode="N" horiz-adv-x="713" 
d="M92 0v720h97l349 -547v547h82v-720h-72l-374 587v-587h-82z" />
    <glyph glyph-name="O" unicode="O" horiz-adv-x="717" 
d="M661 362c0 -244 -130 -374 -305 -374c-173 0 -301 128 -301 370c0 244 130 374 305 374c173 0 301 -128 301 -370zM573 359c0 203 -87 295 -215 295s-215 -92 -215 -295s87 -295 215 -295s215 92 215 295z" />
    <glyph glyph-name="P" unicode="P" horiz-adv-x="622" 
d="M92 0v720h247c153 0 244 -70 244 -211s-93 -211 -250 -211h-154v-298h-87zM179 642v-269h154c109 0 163 41 163 135c0 93 -54 134 -163 134h-154z" />
    <glyph glyph-name="Q" unicode="Q" horiz-adv-x="719" 
d="M661 362c0 -231 -117 -358 -278 -371v-18c0 -70 34 -90 97 -90c37 0 67 7 94 15v-76c-30 -8 -70 -14 -109 -14c-100 0 -156 39 -156 144c0 14 1 27 2 41c-150 20 -256 144 -256 365c0 244 130 374 305 374c173 0 301 -128 301 -370zM573 359c0 203 -87 295 -215 295
s-215 -92 -215 -295s87 -295 215 -295s215 92 215 295z" />
    <glyph glyph-name="R" unicode="R" horiz-adv-x="676" 
d="M519 0l-191 321h-149v-321h-87v720h259c149 0 236 -66 236 -199c0 -111 -61 -174 -167 -194l197 -327h-98zM179 390h163c107 0 158 37 158 126s-51 126 -158 126h-163v-252z" />
    <glyph glyph-name="S" unicode="S" horiz-adv-x="580" 
d="M55 54l26 78c61 -40 128 -68 200 -68c96 0 155 50 155 128c0 194 -360 94 -360 337c0 125 94 203 230 203c76 0 144 -25 199 -64l-26 -81c-53 40 -110 67 -177 67c-85 0 -138 -45 -138 -114c0 -181 360 -80 360 -336c0 -133 -98 -216 -245 -216c-80 0 -160 25 -224 66z
" />
    <glyph glyph-name="T" unicode="T" horiz-adv-x="565" 
d="M239 0v642h-210v78h508v-78h-210v-642h-88z" />
    <glyph glyph-name="U" unicode="U" horiz-adv-x="687" 
d="M84 254v466h88v-463c0 -135 51 -191 172 -191s173 56 173 191v463h86v-463c0 -185 -86 -269 -261 -269c-173 0 -258 83 -258 266z" />
    <glyph glyph-name="V" unicode="V" horiz-adv-x="650" 
d="M278 0l-246 720h90l203 -607l205 607h87l-250 -720h-89z" />
    <glyph glyph-name="W" unicode="W" horiz-adv-x="954" 
d="M643 0l-109 386c-38 133 -46 164 -56 221h-2c-10 -59 -34 -143 -56 -219l-112 -388h-85l-187 720h92l95 -378c33 -131 37 -149 49 -218h2c15 77 36 154 56 222l107 374h83l107 -378c19 -67 42 -151 55 -218h2c11 67 29 143 48 217l97 379h89l-190 -720h-85z" />
    <glyph glyph-name="X" unicode="X" horiz-adv-x="636" 
d="M33 0l230 371l-216 349h98l174 -287l174 287h95l-216 -349l230 -371h-99l-187 309l-187 -309h-96z" />
    <glyph glyph-name="Y" unicode="Y" horiz-adv-x="611" 
d="M262 0v305l-239 415h95l189 -329l189 329h93l-239 -415v-305h-88z" />
    <glyph glyph-name="Z" unicode="Z" horiz-adv-x="601" 
d="M39 0v65l396 577h-375v78h487v-66l-396 -577h401v-77h-513z" />
    <glyph glyph-name="bracketleft" unicode="[" horiz-adv-x="361" 
d="M323 -112v-68h-241v900h241v-68h-155v-764h155z" />
    <glyph glyph-name="backslash" unicode="\" horiz-adv-x="574" 
d="M112 720l438 -760h-88l-438 760h88z" />
    <glyph glyph-name="bracketright" unicode="]" horiz-adv-x="361" 
d="M38 -180v68h155v764h-155v68h241v-900h-241z" />
    <glyph glyph-name="asciicircum" unicode="^" horiz-adv-x="572" 
d="M253 720h66l222 -488h-72l-183 407l-183 -407h-72z" />
    <glyph glyph-name="underscore" unicode="_" horiz-adv-x="492" 
d="M-4 -135v67h500v-67h-500z" />
    <glyph glyph-name="grave" unicode="`" horiz-adv-x="500" 
d="M315 570h-68l-128 150h101z" />
    <glyph glyph-name="a" unicode="a" horiz-adv-x="522" 
d="M264 451c-59 0 -113 -21 -167 -52l-22 68c55 30 125 55 205 55c107 0 172 -45 172 -172v-234c0 -78 5 -103 10 -116h-81c-5 9 -10 25 -12 64c-44 -47 -103 -76 -169 -76c-89 0 -154 53 -154 155c0 109 74 171 239 171c21 0 47 -1 83 -6v35c0 79 -35 108 -104 108zM223 56
c55 0 106 32 145 70v122c-41 6 -58 7 -78 7c-118 0 -160 -35 -160 -103c0 -64 37 -96 93 -96z" />
    <glyph glyph-name="b" unicode="b" horiz-adv-x="573" 
d="M76 720h86v-282c44 52 100 84 167 84c114 0 197 -91 197 -262c0 -179 -91 -272 -208 -272c-63 0 -115 27 -160 81v-69h-82v720zM307 447c-54 0 -102 -29 -145 -77v-239c41 -47 89 -72 141 -72c82 0 137 62 137 195c0 131 -53 193 -133 193z" />
    <glyph glyph-name="c" unicode="c" horiz-adv-x="463" 
d="M424 478l-22 -72c-40 29 -75 45 -119 45c-86 0 -151 -62 -151 -197c0 -134 64 -196 153 -196c46 0 84 16 119 43l22 -66c-39 -29 -91 -47 -152 -47c-132 0 -228 85 -228 261c0 180 100 273 238 273c59 0 103 -17 140 -44z" />
    <glyph glyph-name="d" unicode="d" horiz-adv-x="572" 
d="M423 0c-6 10 -10 28 -12 72c-44 -52 -102 -84 -169 -84c-114 0 -196 92 -196 260c0 179 93 274 210 274c60 0 110 -25 154 -76v274h86v-604c0 -78 5 -102 10 -116h-83zM265 59c54 0 102 29 145 77v239c-41 47 -89 72 -141 72c-82 0 -137 -62 -137 -195
c0 -131 53 -193 133 -193z" />
    <glyph glyph-name="e" unicode="e" horiz-adv-x="537" 
d="M279 456c-80 0 -135 -57 -146 -159h272c-1 112 -54 159 -126 159zM485 236h-352c6 -126 69 -180 161 -180c53 0 103 18 157 49l22 -65c-54 -33 -124 -52 -190 -52c-142 0 -237 88 -237 259c0 179 104 275 236 275c123 0 205 -83 205 -244c0 -18 0 -27 -2 -42z" />
    <glyph glyph-name="f" unicode="f" horiz-adv-x="344" 
d="M24 440v70h99v66c0 98 41 150 143 150c20 0 38 -2 58 -6v-70c-17 5 -31 6 -42 6c-59 0 -73 -27 -73 -80v-66h115v-70h-115v-440h-86v440h-99z" />
    <glyph glyph-name="g" unicode="g" horiz-adv-x="580" 
d="M493 343c0 -117 -99 -185 -221 -185c-33 0 -64 5 -93 14c-15 -13 -26 -30 -26 -50c0 -40 43 -41 87 -41h114c108 0 178 -44 178 -128c0 -113 -126 -175 -286 -175c-134 0 -225 43 -225 128c0 52 35 95 105 121c-32 16 -52 41 -52 76c0 39 26 69 57 91
c-46 30 -75 77 -75 142c0 119 99 186 221 186c63 0 121 -18 161 -52c21 21 55 41 97 41c9 0 15 -1 24 -2v-77c-6 1 -14 2 -24 2c-23 0 -43 -5 -60 -13c11 -22 18 -47 18 -78zM142 337c0 -83 59 -118 134 -118c77 0 134 37 134 120c0 84 -59 119 -133 119
c-77 0 -135 -38 -135 -121zM336 9h-132c-64 -19 -98 -48 -98 -90c0 -55 57 -78 149 -78c113 0 189 35 189 100c0 47 -38 68 -108 68z" />
    <glyph glyph-name="h" unicode="h" horiz-adv-x="568" 
d="M76 0v720h86v-286c43 45 112 88 198 88c76 0 138 -34 138 -142v-380h-86v360c0 66 -32 87 -80 87c-66 0 -123 -39 -170 -82v-365h-86z" />
    <glyph glyph-name="i" unicode="i" horiz-adv-x="250" 
d="M82 0v510h86v-510h-86zM125 705c32 0 54 -23 54 -53s-22 -53 -54 -53s-54 23 -54 53s22 53 54 53z" />
    <glyph glyph-name="j" unicode="j" horiz-adv-x="250" 
d="M168 510v-576c0 -98 -41 -150 -142 -150c-20 0 -39 2 -59 6v70c17 -5 31 -6 42 -6c58 0 73 27 73 80v576h86zM125 705c32 0 54 -23 54 -53s-22 -53 -54 -53s-54 23 -54 53s22 53 54 53z" />
    <glyph glyph-name="k" unicode="k" horiz-adv-x="531" 
d="M76 0v720h86v-429l218 219h103l-191 -182l212 -328h-92l-176 274l-74 -70v-204h-86z" />
    <glyph glyph-name="l" unicode="l" horiz-adv-x="250" 
d="M82 0v720h86v-720h-86z" />
    <glyph glyph-name="m" unicode="m" horiz-adv-x="880" 
d="M76 0v510h86v-75c41 42 108 87 189 87c54 0 111 -20 128 -87c43 42 110 87 197 87c78 0 134 -37 134 -142v-380h-86v360c0 66 -31 87 -76 87c-65 0 -124 -43 -162 -79v-368h-86v360c0 66 -31 87 -77 87c-61 0 -117 -38 -161 -82v-365h-86z" />
    <glyph glyph-name="n" unicode="n" horiz-adv-x="568" 
d="M76 0v510h86v-76c43 45 112 88 198 88c76 0 138 -34 138 -142v-380h-86v360c0 66 -32 87 -80 87c-66 0 -123 -39 -170 -82v-365h-86z" />
    <glyph glyph-name="o" unicode="o" horiz-adv-x="555" 
d="M508 257c0 -184 -106 -269 -233 -269c-125 0 -229 83 -229 265c0 184 106 269 233 269c125 0 229 -83 229 -265zM422 254c0 142 -65 199 -145 199s-145 -57 -145 -199s65 -199 145 -199s145 57 145 199z" />
    <glyph glyph-name="p" unicode="p" horiz-adv-x="573" 
d="M76 510h86v-72c44 52 100 84 167 84c114 0 197 -91 197 -262c0 -179 -91 -272 -209 -272c-61 0 -111 25 -155 76v-274h-86v720zM307 447c-54 0 -102 -29 -145 -77v-239c41 -47 89 -72 141 -72c82 0 137 62 137 195c0 131 -53 193 -133 193z" />
    <glyph glyph-name="q" unicode="q" horiz-adv-x="573" 
d="M496 -210h-86v282c-44 -52 -100 -84 -168 -84c-113 0 -196 89 -196 260c0 179 91 274 208 274c63 0 115 -27 160 -81v69h82v-720zM265 59c54 0 102 29 145 77v239c-41 47 -89 72 -141 72c-82 0 -137 -62 -137 -195c0 -131 53 -193 133 -193z" />
    <glyph glyph-name="r" unicode="r" horiz-adv-x="373" 
d="M352 519v-78c-10 1 -23 2 -33 2c-78 0 -134 -59 -157 -86v-357h-86v510h86v-81c29 44 82 93 158 93c10 0 23 -1 32 -3z" />
    <glyph glyph-name="s" unicode="s" horiz-adv-x="456" 
d="M394 475l-22 -72c-39 28 -85 49 -132 49c-57 0 -90 -30 -90 -72c0 -118 260 -45 260 -230c0 -101 -77 -162 -191 -162c-64 0 -124 19 -173 48l22 71c48 -30 99 -51 153 -51c68 0 105 33 105 82c0 130 -260 58 -260 233c0 91 70 151 175 151c58 0 110 -18 153 -47z" />
    <glyph glyph-name="t" unicode="t" horiz-adv-x="375" 
d="M24 440v70h99v170h86v-170h127v-70h-127v-296c0 -62 11 -79 58 -79c28 0 50 6 69 12v-73c-24 -5 -52 -10 -88 -10c-92 0 -125 33 -125 139v307h-99z" />
    <glyph glyph-name="u" unicode="u" horiz-adv-x="568" 
d="M492 510v-510h-86v76c-43 -45 -112 -88 -198 -88c-76 0 -138 34 -138 142v380h86v-362c0 -66 32 -87 80 -87c66 0 123 39 170 82v367h86z" />
    <glyph glyph-name="v" unicode="v" horiz-adv-x="505" 
d="M206 0l-185 510h89l142 -405l146 405h86l-190 -510h-88z" />
    <glyph glyph-name="w" unicode="w" horiz-adv-x="749" 
d="M255 0h-83l-150 510h85l78 -269c18 -62 27 -99 34 -143h2c7 41 23 105 35 144l81 268h78l79 -267c10 -34 28 -98 36 -145h2c7 45 19 93 34 144l79 268h82l-154 -510h-82l-78 263c-20 67 -31 104 -38 150h-2c-6 -41 -21 -94 -38 -150z" />
    <glyph glyph-name="x" unicode="x" horiz-adv-x="507" 
d="M26 0l176 265l-163 245h94l122 -191l121 191h91l-163 -245l176 -265h-93l-136 211l-135 -211h-90z" />
    <glyph glyph-name="y" unicode="y" horiz-adv-x="505" 
d="M37 -212v74c15 -3 27 -6 47 -6c54 0 90 22 138 156h-27l-174 498h89l142 -425l146 425h86l-178 -498c-68 -191 -121 -228 -219 -228c-16 0 -37 1 -50 4z" />
    <glyph glyph-name="z" unicode="z" horiz-adv-x="484" 
d="M30 0v59l302 381h-284v70h392v-58l-302 -381h306v-71h-414z" />
    <glyph glyph-name="braceleft" unicode="{" horiz-adv-x="361" 
d="M216 164v-204c0 -45 16 -72 75 -72h37v-68h-37c-113 0 -161 48 -161 140v204c0 45 -16 72 -75 72h-23v68h23c59 0 75 25 75 72v204c0 92 48 140 161 140h37v-68h-37c-59 0 -75 -27 -75 -72v-204c0 -52 -22 -87 -67 -106c45 -19 67 -54 67 -106z" />
    <glyph glyph-name="bar" unicode="|" horiz-adv-x="352" 
d="M134 -180v900h84v-900h-84z" />
    <glyph glyph-name="braceright" unicode="}" horiz-adv-x="361" 
d="M144 -40v204c0 52 22 87 67 106c-45 19 -67 54 -67 106v204c0 45 -16 72 -75 72h-37v68h37c113 0 161 -48 161 -140v-204c0 -47 16 -72 75 -72h23v-68h-23c-59 0 -75 -27 -75 -72v-204c0 -92 -48 -140 -161 -140h-37v68h37c59 0 75 27 75 72z" />
    <glyph glyph-name="asciitilde" unicode="~" horiz-adv-x="572" 
d="M166 243c-42 0 -77 -18 -107 -44l-31 64c31 27 81 52 138 52c79 0 170 -48 239 -48c42 0 77 18 107 44l31 -64c-31 -27 -81 -52 -138 -52c-79 0 -170 48 -239 48z" />
    <glyph glyph-name="uni00A0" unicode="&#xa0;" horiz-adv-x="220" 
 />
    <glyph glyph-name="exclamdown" unicode="&#xa1;" horiz-adv-x="319" 
d="M160 522c33 0 56 -24 56 -54s-23 -54 -56 -54s-56 24 -56 54s23 54 56 54zM192 308l15 -518h-95l15 518h65z" />
    <glyph glyph-name="cent" unicode="&#xa2;" horiz-adv-x="486" 
d="M170 -143l35 153c-95 28 -159 111 -159 251c0 180 105 273 244 273c14 0 25 -1 36 -2l29 125h52l-32 -136c23 -7 43 -18 62 -31l-22 -71c-18 13 -36 24 -56 32l-88 -382c7 -1 14 -1 22 -1c47 0 87 16 124 44l22 -65c-40 -29 -95 -47 -157 -47c-9 0 -18 0 -27 1l-33 -144
h-52zM131 266c0 -98 35 -158 91 -184l88 381c-10 1 -12 1 -22 1c-88 0 -157 -62 -157 -198z" />
    <glyph glyph-name="sterling" unicode="&#xa3;" horiz-adv-x="479" 
d="M378 663c-66 0 -88 -35 -95 -99l-18 -165h170v-64h-177l-9 -91c-7 -71 -29 -129 -78 -164c52 -6 112 -22 162 -22c37 0 70 9 101 28l22 -68c-31 -19 -76 -30 -122 -30c-69 0 -145 25 -207 25c-38 0 -71 -9 -102 -28l-22 68c109 40 150 70 162 191l9 91h-147v64h154
l17 165c11 109 53 168 179 168c16 0 39 -1 58 -4v-71c-24 4 -41 6 -57 6z" />
    <glyph glyph-name="currency" unicode="&#xa4;" horiz-adv-x="572" 
d="M190 254c0 -55 42 -98 96 -98s96 43 96 98s-42 98 -96 98s-96 -43 -96 -98zM439 254c0 -30 -8 -58 -22 -81l85 -86l-49 -50l-87 88c-23 -13 -50 -21 -80 -21s-57 8 -80 21l-87 -88l-49 50l85 86c-14 23 -22 51 -22 81s8 58 22 81l-85 86l49 50l87 -88c23 13 50 21 80 21
s57 -8 80 -21l87 88l49 -50l-85 -86c14 -23 22 -51 22 -81z" />
    <glyph glyph-name="yen" unicode="&#xa5;" horiz-adv-x="596" 
d="M90 270v64h153l-220 386h92l184 -328l185 328h89l-220 -386h153v-64h-165v-75h165v-64h-165v-131h-86v131h-165v64h165v75h-165z" />
    <glyph glyph-name="brokenbar" unicode="&#xa6;" horiz-adv-x="352" 
d="M134 330v390h84v-390h-84zM134 -180v390h84v-390h-84z" />
    <glyph glyph-name="section" unicode="&#xa7;" horiz-adv-x="584" 
d="M326 732c63 0 120 -18 167 -46l-24 -73c-45 28 -94 48 -149 48c-80 0 -138 -43 -161 -115c157 -20 354 -105 354 -327c0 -167 -110 -270 -267 -270c-66 0 -126 18 -176 46l24 71c48 -28 100 -48 158 -48c85 0 147 42 172 116c-161 20 -354 106 -354 329
c0 163 104 269 256 269zM437 202v12c0 182 -164 245 -290 263v-10c0 -186 164 -247 290 -265z" />
    <glyph glyph-name="dieresis" unicode="&#xa8;" horiz-adv-x="500" 
d="M204 623c0 -28 -20 -49 -49 -49s-49 21 -49 49s20 49 49 49s49 -21 49 -49zM394 623c0 -28 -20 -49 -49 -49s-49 21 -49 49s20 49 49 49s49 -21 49 -49z" />
    <glyph glyph-name="copyright" unicode="&#xa9;" horiz-adv-x="838" 
d="M528 255l15 -54c-29 -20 -67 -34 -113 -34c-100 0 -168 63 -168 186c0 128 73 196 173 196c44 0 80 -13 107 -32l-15 -59c-25 19 -54 34 -90 34c-62 0 -108 -43 -108 -135c0 -93 48 -135 109 -135c36 0 63 14 90 33zM791 360c0 -213 -163 -372 -372 -372
s-372 159 -372 372s163 372 372 372s372 -159 372 -372zM98 360c0 -184 141 -322 321 -322c179 0 321 138 321 322s-142 322 -321 322c-180 0 -321 -138 -321 -322z" />
    <glyph glyph-name="ordfeminine" unicode="&#xaa;" horiz-adv-x="329" 
d="M172 704c68 0 112 -28 112 -110v-142c0 -49 3 -64 6 -72h-59c-3 5 -6 14 -8 33c-26 -25 -60 -41 -98 -41c-52 0 -95 32 -95 98c0 68 46 106 143 106c16 0 30 -1 49 -4v18c0 46 -22 63 -63 63c-35 0 -69 -13 -101 -31l-14 49c34 18 78 33 128 33zM145 421
c30 0 56 16 77 34v75c-15 3 -26 4 -41 4c-65 0 -89 -20 -89 -59c0 -37 21 -54 53 -54z" />
    <glyph glyph-name="guillemotleft" unicode="&#xab;" horiz-adv-x="500" 
d="M183 24l-138 231l138 231h80l-133 -231l133 -231h-80zM363 24l-138 231l138 231h80l-133 -231l133 -231h-80z" />
    <glyph glyph-name="logicalnot" unicode="&#xac;" horiz-adv-x="572" 
d="M530 67h-72v219h-416v72h488v-291z" />
    <glyph glyph-name="uni00AD" unicode="&#xad;" horiz-adv-x="406" 
d="M62 278v67h281v-67h-281z" />
    <glyph glyph-name="registered" unicode="&#xae;" horiz-adv-x="838" 
d="M507 175l-89 149h-66v-149h-66v366h142c85 0 136 -37 136 -109c0 -53 -29 -87 -79 -101l94 -156h-72zM352 374h70c51 0 75 17 75 55c0 39 -24 56 -75 56h-70v-111zM791 360c0 -213 -163 -372 -372 -372s-372 159 -372 372s163 372 372 372s372 -159 372 -372zM98 360
c0 -184 141 -322 321 -322c179 0 321 138 321 322s-142 322 -321 322c-180 0 -321 -138 -321 -322z" />
    <glyph glyph-name="macron" unicode="&#xaf;" horiz-adv-x="500" 
d="M103 581v65h293v-65h-293z" />
    <glyph glyph-name="degree" unicode="&#xb0;" horiz-adv-x="418" 
d="M209 485c55 0 96 42 96 98s-41 98 -96 98s-96 -42 -96 -98s41 -98 96 -98zM209 433c-88 0 -153 65 -153 150s65 150 153 150s153 -65 153 -150s-65 -150 -153 -150z" />
    <glyph glyph-name="plusminus" unicode="&#xb1;" horiz-adv-x="572" 
d="M322 105h-72v169h-208v67h208v169h72v-169h208v-67h-208v-169zM530 54v-66h-488v66h488z" />
    <glyph glyph-name="twosuperior" unicode="&#xb2;" horiz-adv-x="357" 
d="M247 702c0 44 -27 75 -78 75c-46 0 -82 -26 -115 -66l-21 54c34 41 82 69 143 69c81 0 133 -50 133 -128c0 -77 -50 -149 -186 -272h199v-54h-289v48c155 138 214 208 214 274z" />
    <glyph glyph-name="threesuperior" unicode="&#xb3;" horiz-adv-x="348" 
d="M167 834c77 0 135 -38 135 -112c0 -55 -32 -91 -88 -111c66 -16 99 -55 99 -112c0 -82 -68 -127 -163 -127c-51 0 -96 13 -131 32l18 55c32 -19 70 -34 114 -34c59 0 98 27 98 77c0 51 -42 78 -119 78c-15 0 -27 -1 -44 -2v51c100 0 153 29 153 84c0 41 -30 66 -79 66
c-38 0 -71 -15 -108 -40l-16 53c39 27 82 42 131 42z" />
    <glyph glyph-name="acute" unicode="&#xb4;" horiz-adv-x="500" 
d="M252 570h-68l95 150h101z" />
    <glyph glyph-name="mu" unicode="&#xb5;" horiz-adv-x="575" 
d="M162 510v-362c0 -66 32 -87 80 -87c66 0 123 39 170 82v367h86v-510h-86v76c-45 -48 -119 -88 -193 -88c-26 0 -50 5 -68 13c8 -81 9 -143 9 -211h-84v720h86z" />
    <glyph glyph-name="paragraph" unicode="&#xb6;" horiz-adv-x="517" 
d="M283 680v-412c-157 0 -244 82 -244 206s87 206 244 206zM357 680h76v-547c0 -152 -71 -197 -211 -228l-20 67c100 20 155 50 155 164v544z" />
    <glyph glyph-name="periodcentered" unicode="&#xb7;" horiz-adv-x="283" 
d="M198 258c0 -33 -23 -58 -58 -58c-34 0 -58 25 -58 58s24 58 58 58c35 0 58 -25 58 -58z" />
    <glyph glyph-name="cedilla" unicode="&#xb8;" horiz-adv-x="500" 
d="M355 -99c0 -59 -48 -90 -116 -90c-44 0 -72 13 -95 24l14 52c21 -12 45 -23 76 -23c34 0 53 13 53 38c0 28 -25 50 -74 61l13 40c79 -8 129 -42 129 -102z" />
    <glyph glyph-name="onesuperior" unicode="&#xb9;" horiz-adv-x="236" 
d="M39 720l-20 52l102 54h50v-446h-63v377z" />
    <glyph glyph-name="ordmasculine" unicode="&#xba;" horiz-adv-x="352" 
d="M322 539c0 -114 -68 -167 -147 -167s-145 53 -145 165c0 114 68 167 147 167s145 -53 145 -165zM260 537c0 84 -37 118 -84 118s-84 -34 -84 -118s37 -118 84 -118s84 34 84 118z" />
    <glyph glyph-name="guillemotright" unicode="&#xbb;" horiz-adv-x="500" 
d="M275 255l-138 -231h-80l133 231l-133 231h80zM455 255l-138 -231h-80l133 231l-133 231h80z" />
    <glyph glyph-name="onequarter" unicode="&#xbc;" horiz-adv-x="735" 
d="M379 92v52l201 302h74v-300h67v-54h-67v-92h-61v92h-214zM442 146h151v227zM39 614l-20 52l102 54h50v-446h-63v377zM89 0l451 720h70l-450 -720h-71z" />
    <glyph glyph-name="onehalf" unicode="&#xbd;" horiz-adv-x="772" 
d="M39 614l-20 52l102 54h50v-446h-63v377zM663 322c0 44 -27 75 -78 75c-46 0 -82 -26 -115 -66l-21 54c34 41 82 69 143 69c81 0 133 -50 133 -128c0 -77 -50 -149 -186 -272h199v-54h-289v48c155 138 214 208 214 274zM77 0l451 720h70l-450 -720h-71z" />
    <glyph glyph-name="threequarters" unicode="&#xbe;" horiz-adv-x="807" 
d="M451 92v52l201 302h74v-300h67v-54h-67v-92h-61v92h-214zM514 146h151v227zM165 728c77 0 135 -38 135 -112c0 -55 -32 -91 -88 -111c66 -16 99 -55 99 -112c0 -82 -68 -127 -163 -127c-51 0 -96 13 -131 32l18 55c32 -19 70 -34 114 -34c59 0 98 27 98 77
c0 51 -42 78 -119 78c-15 0 -27 -1 -44 -2v51c100 0 153 29 153 84c0 41 -30 66 -79 66c-38 0 -71 -15 -108 -40l-16 53c39 27 82 42 131 42zM161 0l451 720h70l-450 -720h-71z" />
    <glyph glyph-name="questiondown" unicode="&#xbf;" horiz-adv-x="424" 
d="M139 -36c0 -78 65 -114 149 -114c24 0 58 3 95 14v-70c-37 -11 -76 -16 -112 -16c-124 0 -217 60 -217 176c0 172 202 192 202 319c0 9 -1 22 -4 35h69c4 -20 6 -37 6 -51c0 -139 -188 -161 -188 -293zM285 414c-33 0 -56 24 -56 54s23 54 56 54s56 -24 56 -54
s-23 -54 -56 -54z" />
    <glyph glyph-name="Agrave" unicode="&#xc0;" horiz-adv-x="677" 
d="M392 720l252 -720h-92l-66 195h-298l-66 -195h-90l257 720h103zM338 631l-125 -364h248zM404 779h-69l-128 130h102z" />
    <glyph glyph-name="Aacute" unicode="&#xc1;" horiz-adv-x="677" 
d="M392 720l252 -720h-92l-66 195h-298l-66 -195h-90l257 720h103zM338 631l-125 -364h248zM341 779h-69l95 130h102z" />
    <glyph glyph-name="Acircumflex" unicode="&#xc2;" horiz-adv-x="677" 
d="M392 720l252 -720h-92l-66 195h-298l-66 -195h-90l257 720h103zM338 631l-125 -364h248zM247 779h-66l123 130h68l123 -130h-66l-91 65z" />
    <glyph glyph-name="Atilde" unicode="&#xc3;" horiz-adv-x="677" 
d="M392 720l252 -720h-92l-66 195h-298l-66 -195h-90l257 720h103zM338 631l-125 -364h248zM236 779h-54c0 84 40 111 83 111c59 0 105 -51 144 -51c23 0 31 18 31 45h54c0 -84 -40 -111 -83 -111c-59 0 -105 51 -144 51c-23 0 -31 -18 -31 -45z" />
    <glyph glyph-name="Adieresis" unicode="&#xc4;" horiz-adv-x="677" 
d="M392 720l252 -720h-92l-66 195h-298l-66 -195h-90l257 720h103zM338 631l-125 -364h248zM292 827c0 -28 -20 -49 -49 -49s-49 21 -49 49s20 49 49 49s49 -21 49 -49zM482 827c0 -28 -20 -49 -49 -49s-49 21 -49 49s20 49 49 49s49 -21 49 -49z" />
    <glyph glyph-name="Aring" unicode="&#xc5;" horiz-adv-x="677" 
d="M433 753c0 -27 -11 -50 -30 -66l241 -687h-92l-66 195h-298l-66 -195h-90l245 687c-19 16 -30 39 -30 66c0 50 39 89 93 89s93 -39 93 -89zM338 631l-125 -364h248zM292 753c0 -25 17 -46 48 -46s48 21 48 46s-17 46 -48 46s-48 -21 -48 -46z" />
    <glyph glyph-name="AE" unicode="&#xc6;" horiz-adv-x="935" 
d="M25 0l398 720h460v-78h-326v-232h283v-75h-283v-259h329v-76h-416v194h-247l-103 -194h-95zM262 267h208v386z" />
    <glyph glyph-name="Ccedilla" unicode="&#xc7;" horiz-adv-x="606" 
d="M444 -99c0 -59 -48 -90 -116 -90c-44 0 -72 13 -95 24l14 52c21 -12 45 -23 76 -23c34 0 53 13 53 38c0 28 -25 50 -74 61l9 28c-151 20 -256 142 -256 362c0 247 132 379 314 379c76 0 138 -23 189 -61l-26 -80c-51 37 -100 63 -167 63c-130 0 -222 -96 -222 -296
s92 -294 222 -294c65 0 116 23 169 64l26 -73c-47 -36 -110 -61 -182 -66c41 -16 66 -46 66 -88z" />
    <glyph glyph-name="Egrave" unicode="&#xc8;" horiz-adv-x="588" 
d="M92 0v720h444v-78h-356v-232h313v-75h-313v-258h359v-77h-447zM381 779h-69l-128 130h102z" />
    <glyph glyph-name="Eacute" unicode="&#xc9;" horiz-adv-x="588" 
d="M92 0v720h444v-78h-356v-232h313v-75h-313v-258h359v-77h-447zM318 779h-69l95 130h102z" />
    <glyph glyph-name="Ecircumflex" unicode="&#xca;" horiz-adv-x="588" 
d="M92 0v720h444v-78h-356v-232h313v-75h-313v-258h359v-77h-447zM224 779h-66l123 130h68l123 -130h-66l-91 65z" />
    <glyph glyph-name="Edieresis" unicode="&#xcb;" horiz-adv-x="588" 
d="M92 0v720h444v-78h-356v-232h313v-75h-313v-258h359v-77h-447zM269 827c0 -28 -20 -49 -49 -49s-49 21 -49 49s20 49 49 49s49 -21 49 -49zM459 827c0 -28 -20 -49 -49 -49s-49 21 -49 49s20 49 49 49s49 -21 49 -49z" />
    <glyph glyph-name="Igrave" unicode="&#xcc;" horiz-adv-x="288" 
d="M100 0v720h88v-720h-88zM211 779h-69l-128 130h102z" />
    <glyph glyph-name="Iacute" unicode="&#xcd;" horiz-adv-x="288" 
d="M100 0v720h88v-720h-88zM148 779h-69l95 130h102z" />
    <glyph glyph-name="Icircumflex" unicode="&#xce;" horiz-adv-x="288" 
d="M100 0v720h88v-720h-88zM54 779h-66l123 130h68l123 -130h-66l-91 65z" />
    <glyph glyph-name="Idieresis" unicode="&#xcf;" horiz-adv-x="288" 
d="M100 0v720h88v-720h-88zM99 827c0 -28 -20 -49 -49 -49s-49 21 -49 49s20 49 49 49s49 -21 49 -49zM289 827c0 -28 -20 -49 -49 -49s-49 21 -49 49s20 49 49 49s49 -21 49 -49z" />
    <glyph glyph-name="Eth" unicode="&#xd0;" horiz-adv-x="699" 
d="M12 342v65h80v313h225c192 0 326 -123 326 -359c0 -238 -136 -361 -326 -361h-225v342h-80zM180 76h137c140 0 238 89 238 283c0 193 -98 282 -238 282h-137v-234h185v-65h-185v-266z" />
    <glyph glyph-name="Ntilde" unicode="&#xd1;" horiz-adv-x="713" 
d="M92 0v720h97l349 -547v547h82v-720h-72l-374 587v-587h-82zM254 779h-54c0 84 40 111 83 111c59 0 105 -51 144 -51c23 0 31 18 31 45h54c0 -84 -40 -111 -83 -111c-59 0 -105 51 -144 51c-23 0 -31 -18 -31 -45z" />
    <glyph glyph-name="Ograve" unicode="&#xd2;" horiz-adv-x="717" 
d="M661 362c0 -244 -130 -374 -305 -374c-173 0 -301 128 -301 370c0 244 130 374 305 374c173 0 301 -128 301 -370zM573 359c0 203 -87 295 -215 295s-215 -92 -215 -295s87 -295 215 -295s215 92 215 295zM424 779h-69l-128 130h102z" />
    <glyph glyph-name="Oacute" unicode="&#xd3;" horiz-adv-x="717" 
d="M661 362c0 -244 -130 -374 -305 -374c-173 0 -301 128 -301 370c0 244 130 374 305 374c173 0 301 -128 301 -370zM573 359c0 203 -87 295 -215 295s-215 -92 -215 -295s87 -295 215 -295s215 92 215 295zM361 779h-69l95 130h102z" />
    <glyph glyph-name="Ocircumflex" unicode="&#xd4;" horiz-adv-x="717" 
d="M661 362c0 -244 -130 -374 -305 -374c-173 0 -301 128 -301 370c0 244 130 374 305 374c173 0 301 -128 301 -370zM573 359c0 203 -87 295 -215 295s-215 -92 -215 -295s87 -295 215 -295s215 92 215 295zM267 779h-66l123 130h68l123 -130h-66l-91 65z" />
    <glyph glyph-name="Otilde" unicode="&#xd5;" horiz-adv-x="717" 
d="M661 362c0 -244 -130 -374 -305 -374c-173 0 -301 128 -301 370c0 244 130 374 305 374c173 0 301 -128 301 -370zM573 359c0 203 -87 295 -215 295s-215 -92 -215 -295s87 -295 215 -295s215 92 215 295zM255 779h-54c0 84 40 111 83 111c59 0 105 -51 144 -51
c23 0 31 18 31 45h54c0 -84 -40 -111 -83 -111c-59 0 -105 51 -144 51c-23 0 -31 -18 -31 -45z" />
    <glyph glyph-name="Odieresis" unicode="&#xd6;" horiz-adv-x="717" 
d="M661 362c0 -244 -130 -374 -305 -374c-173 0 -301 128 -301 370c0 244 130 374 305 374c173 0 301 -128 301 -370zM573 359c0 203 -87 295 -215 295s-215 -92 -215 -295s87 -295 215 -295s215 92 215 295zM312 827c0 -28 -20 -49 -49 -49s-49 21 -49 49s20 49 49 49
s49 -21 49 -49zM502 827c0 -28 -20 -49 -49 -49s-49 21 -49 49s20 49 49 49s49 -21 49 -49z" />
    <glyph glyph-name="multiply" unicode="&#xd7;" horiz-adv-x="572" 
d="M70 421l49 50l167 -167l167 167l49 -50l-166 -167l166 -167l-49 -50l-167 167l-167 -167l-49 50l166 167z" />
    <glyph glyph-name="Oslash" unicode="&#xd8;" horiz-adv-x="717" 
d="M575 359c0 72 -11 133 -31 178l-341 -405c38 -47 91 -70 155 -70c129 0 217 93 217 297zM141 359c0 -72 11 -131 31 -176l341 405c-38 46 -92 68 -155 68c-129 0 -217 -93 -217 -297zM661 362c0 -244 -130 -374 -305 -374c-81 0 -152 28 -205 83l-70 -83l-42 38l76 90
c-38 60 -60 141 -60 242c0 244 130 374 305 374c81 0 152 -28 205 -83l70 83l42 -38l-77 -91c39 -60 61 -141 61 -241z" />
    <glyph glyph-name="Ugrave" unicode="&#xd9;" horiz-adv-x="687" 
d="M84 254v466h88v-463c0 -135 51 -191 172 -191s173 56 173 191v463h86v-463c0 -185 -86 -269 -261 -269c-173 0 -258 83 -258 266zM409 779h-69l-128 130h102z" />
    <glyph glyph-name="Uacute" unicode="&#xda;" horiz-adv-x="687" 
d="M84 254v466h88v-463c0 -135 51 -191 172 -191s173 56 173 191v463h86v-463c0 -185 -86 -269 -261 -269c-173 0 -258 83 -258 266zM346 779h-69l95 130h102z" />
    <glyph glyph-name="Ucircumflex" unicode="&#xdb;" horiz-adv-x="687" 
d="M84 254v466h88v-463c0 -135 51 -191 172 -191s173 56 173 191v463h86v-463c0 -185 -86 -269 -261 -269c-173 0 -258 83 -258 266zM252 779h-66l123 130h68l123 -130h-66l-91 65z" />
    <glyph glyph-name="Udieresis" unicode="&#xdc;" horiz-adv-x="687" 
d="M84 254v466h88v-463c0 -135 51 -191 172 -191s173 56 173 191v463h86v-463c0 -185 -86 -269 -261 -269c-173 0 -258 83 -258 266zM297 827c0 -28 -20 -49 -49 -49s-49 21 -49 49s20 49 49 49s49 -21 49 -49zM487 827c0 -28 -20 -49 -49 -49s-49 21 -49 49s20 49 49 49
s49 -21 49 -49z" />
    <glyph glyph-name="Yacute" unicode="&#xdd;" horiz-adv-x="611" 
d="M262 0v305l-239 415h95l189 -329l189 329h93l-239 -415v-305h-88zM309 779h-69l95 130h102z" />
    <glyph glyph-name="Thorn" unicode="&#xde;" horiz-adv-x="621" 
d="M92 0v720h87v-100h160c153 0 244 -70 244 -210c0 -142 -93 -212 -250 -212h-154v-198h-87zM179 542v-269h154c109 0 163 41 163 135c0 93 -54 134 -163 134h-154z" />
    <glyph glyph-name="germandbls" unicode="&#xdf;" horiz-adv-x="594" 
d="M262 354v70c79 0 145 34 145 124c0 79 -51 114 -116 114c-71 0 -129 -42 -129 -146v-516h-86v516c0 147 95 216 216 216c113 0 198 -60 198 -179c0 -76 -35 -128 -106 -159c105 -31 164 -101 164 -210c0 -127 -81 -196 -200 -196c-40 0 -79 8 -107 19l15 68
c27 -11 55 -19 87 -19c73 0 119 41 119 129c0 117 -81 169 -200 169z" />
    <glyph glyph-name="agrave" unicode="&#xe0;" horiz-adv-x="522" 
d="M264 451c-59 0 -113 -21 -167 -52l-22 68c55 30 125 55 205 55c107 0 172 -45 172 -172v-234c0 -78 5 -103 10 -116h-81c-5 9 -10 25 -12 64c-44 -47 -103 -76 -169 -76c-89 0 -154 53 -154 155c0 109 74 171 239 171c21 0 47 -1 83 -6v35c0 79 -35 108 -104 108zM223 56
c55 0 106 32 145 70v122c-41 6 -58 7 -78 7c-118 0 -160 -35 -160 -103c0 -64 37 -96 93 -96zM334 570h-68l-128 150h101z" />
    <glyph glyph-name="aacute" unicode="&#xe1;" horiz-adv-x="522" 
d="M264 451c-59 0 -113 -21 -167 -52l-22 68c55 30 125 55 205 55c107 0 172 -45 172 -172v-234c0 -78 5 -103 10 -116h-81c-5 9 -10 25 -12 64c-44 -47 -103 -76 -169 -76c-89 0 -154 53 -154 155c0 109 74 171 239 171c21 0 47 -1 83 -6v35c0 79 -35 108 -104 108zM223 56
c55 0 106 32 145 70v122c-41 6 -58 7 -78 7c-118 0 -160 -35 -160 -103c0 -64 37 -96 93 -96zM271 570h-68l95 150h101z" />
    <glyph glyph-name="acircumflex" unicode="&#xe2;" horiz-adv-x="522" 
d="M264 451c-59 0 -113 -21 -167 -52l-22 68c55 30 125 55 205 55c107 0 172 -45 172 -172v-234c0 -78 5 -103 10 -116h-81c-5 9 -10 25 -12 64c-44 -47 -103 -76 -169 -76c-89 0 -154 53 -154 155c0 109 74 171 239 171c21 0 47 -1 83 -6v35c0 79 -35 108 -104 108zM223 56
c55 0 106 32 145 70v122c-41 6 -58 7 -78 7c-118 0 -160 -35 -160 -103c0 -64 37 -96 93 -96zM178 570h-66l123 150h68l123 -150h-66l-91 85z" />
    <glyph glyph-name="atilde" unicode="&#xe3;" horiz-adv-x="522" 
d="M264 451c-59 0 -113 -21 -167 -52l-22 68c55 30 125 55 205 55c107 0 172 -45 172 -172v-234c0 -78 5 -103 10 -116h-81c-5 9 -10 25 -12 64c-44 -47 -103 -76 -169 -76c-89 0 -154 53 -154 155c0 109 74 171 239 171c21 0 47 -1 83 -6v35c0 79 -35 108 -104 108zM223 56
c55 0 106 32 145 70v122c-41 6 -58 7 -78 7c-118 0 -160 -35 -160 -103c0 -64 37 -96 93 -96zM167 576h-54c0 85 40 113 83 113c59 0 105 -55 143 -55c19 0 32 13 32 49h54c0 -85 -40 -113 -83 -113c-59 0 -105 55 -143 55c-19 0 -32 -13 -32 -49z" />
    <glyph glyph-name="adieresis" unicode="&#xe4;" horiz-adv-x="522" 
d="M264 451c-59 0 -113 -21 -167 -52l-22 68c55 30 125 55 205 55c107 0 172 -45 172 -172v-234c0 -78 5 -103 10 -116h-81c-5 9 -10 25 -12 64c-44 -47 -103 -76 -169 -76c-89 0 -154 53 -154 155c0 109 74 171 239 171c21 0 47 -1 83 -6v35c0 79 -35 108 -104 108zM223 56
c55 0 106 32 145 70v122c-41 6 -58 7 -78 7c-118 0 -160 -35 -160 -103c0 -64 37 -96 93 -96zM223 623c0 -28 -20 -49 -49 -49s-49 21 -49 49s20 49 49 49s49 -21 49 -49zM413 623c0 -28 -20 -49 -49 -49s-49 21 -49 49s20 49 49 49s49 -21 49 -49z" />
    <glyph glyph-name="aring" unicode="&#xe5;" horiz-adv-x="522" 
d="M264 451c-59 0 -113 -21 -167 -52l-22 68c55 30 125 55 205 55c107 0 172 -45 172 -172v-234c0 -78 5 -103 10 -116h-81c-5 9 -10 25 -12 64c-44 -47 -103 -76 -169 -76c-89 0 -154 53 -154 155c0 109 74 171 239 171c21 0 47 -1 83 -6v35c0 79 -35 108 -104 108zM223 56
c55 0 106 32 145 70v122c-41 6 -58 7 -78 7c-118 0 -160 -35 -160 -103c0 -64 37 -96 93 -96zM222 655c0 -25 18 -46 47 -46s47 21 47 46s-18 46 -47 46s-47 -21 -47 -46zM360 655c0 -50 -39 -89 -91 -89s-91 39 -91 89s39 89 91 89s91 -39 91 -89z" />
    <glyph glyph-name="ae" unicode="&#xe6;" horiz-adv-x="861" 
d="M805 236h-352c6 -126 69 -180 161 -180c53 0 103 18 157 49l22 -65c-54 -33 -124 -52 -190 -52c-87 0 -157 33 -198 98c-50 -53 -122 -98 -203 -98c-87 0 -156 53 -156 157c0 106 73 169 239 169c21 0 47 -1 83 -6v35c0 79 -35 108 -104 108c-59 0 -113 -21 -167 -52
l-22 68c55 30 125 55 205 55c72 0 125 -21 152 -73c42 48 103 73 170 73c123 0 205 -83 205 -244c0 -18 0 -27 -2 -42zM223 56c58 0 112 36 158 84c-10 31 -15 67 -15 108c-40 6 -57 7 -77 7c-117 0 -159 -36 -159 -103c0 -64 38 -96 93 -96zM599 456
c-80 0 -135 -57 -146 -159h272c-1 112 -54 159 -126 159z" />
    <glyph glyph-name="ccedilla" unicode="&#xe7;" horiz-adv-x="463" 
d="M370 -99c0 -59 -48 -90 -116 -90c-44 0 -72 13 -95 24l14 52c21 -12 45 -23 76 -23c34 0 53 13 53 38c0 28 -25 50 -74 61l9 28c-113 14 -191 99 -191 258c0 180 100 273 238 273c59 0 103 -17 140 -44l-22 -72c-40 29 -75 45 -119 45c-86 0 -151 -62 -151 -197
c0 -134 64 -196 153 -196c46 0 84 16 119 43l22 -66c-33 -24 -74 -41 -123 -46c42 -16 67 -46 67 -88z" />
    <glyph glyph-name="egrave" unicode="&#xe8;" horiz-adv-x="537" 
d="M279 456c-80 0 -135 -57 -146 -159h272c-1 112 -54 159 -126 159zM485 236h-352c6 -126 69 -180 161 -180c53 0 103 18 157 49l22 -65c-54 -33 -124 -52 -190 -52c-142 0 -237 88 -237 259c0 179 104 275 236 275c123 0 205 -83 205 -244c0 -18 0 -27 -2 -42zM342 570
h-68l-128 150h101z" />
    <glyph glyph-name="eacute" unicode="&#xe9;" horiz-adv-x="537" 
d="M279 456c-80 0 -135 -57 -146 -159h272c-1 112 -54 159 -126 159zM485 236h-352c6 -126 69 -180 161 -180c53 0 103 18 157 49l22 -65c-54 -33 -124 -52 -190 -52c-142 0 -237 88 -237 259c0 179 104 275 236 275c123 0 205 -83 205 -244c0 -18 0 -27 -2 -42zM274 570
h-68l95 150h101z" />
    <glyph glyph-name="ecircumflex" unicode="&#xea;" horiz-adv-x="537" 
d="M279 456c-80 0 -135 -57 -146 -159h272c-1 112 -54 159 -126 159zM485 236h-352c6 -126 69 -180 161 -180c53 0 103 18 157 49l22 -65c-54 -33 -124 -52 -190 -52c-142 0 -237 88 -237 259c0 179 104 275 236 275c123 0 205 -83 205 -244c0 -18 0 -27 -2 -42zM183 570
h-66l123 150h68l123 -150h-66l-91 85z" />
    <glyph glyph-name="edieresis" unicode="&#xeb;" horiz-adv-x="537" 
d="M279 456c-80 0 -135 -57 -146 -159h272c-1 112 -54 159 -126 159zM485 236h-352c6 -126 69 -180 161 -180c53 0 103 18 157 49l22 -65c-54 -33 -124 -52 -190 -52c-142 0 -237 88 -237 259c0 179 104 275 236 275c123 0 205 -83 205 -244c0 -18 0 -27 -2 -42zM228 623
c0 -28 -20 -49 -49 -49s-49 21 -49 49s20 49 49 49s49 -21 49 -49zM418 623c0 -28 -20 -49 -49 -49s-49 21 -49 49s20 49 49 49s49 -21 49 -49z" />
    <glyph glyph-name="igrave" unicode="&#xec;" horiz-adv-x="250" 
d="M191 570h-68l-128 150h101zM82 0v510h86v-510h-86z" />
    <glyph glyph-name="iacute" unicode="&#xed;" horiz-adv-x="250" 
d="M128 570h-68l95 150h101zM82 0v510h86v-510h-86z" />
    <glyph glyph-name="icircumflex" unicode="&#xee;" horiz-adv-x="250" 
d="M82 0v510h86v-510h-86zM35 570h-66l123 150h68l123 -150h-66l-91 85z" />
    <glyph glyph-name="idieresis" unicode="&#xef;" horiz-adv-x="250" 
d="M80 623c0 -28 -20 -49 -49 -49s-49 21 -49 49s20 49 49 49s49 -21 49 -49zM270 623c0 -28 -20 -49 -49 -49s-49 21 -49 49s20 49 49 49s49 -21 49 -49zM82 0v510h86v-510h-86z" />
    <glyph glyph-name="eth" unicode="&#xf0;" horiz-adv-x="555" 
d="M251 536l-27 49l67 37c-21 23 -41 42 -64 62l50 51c27 -23 54 -47 81 -76l86 48l26 -49l-76 -42c68 -86 114 -220 114 -350c0 -174 -83 -278 -231 -278c-131 0 -231 81 -231 250c0 171 102 252 216 252c57 0 106 -20 142 -61c-19 60 -46 108 -77 149zM277 56
c81 0 145 51 145 182s-64 182 -145 182c-80 0 -145 -51 -145 -182s65 -182 145 -182z" />
    <glyph glyph-name="ntilde" unicode="&#xf1;" horiz-adv-x="568" 
d="M185 576h-54c0 85 40 113 83 113c59 0 105 -55 143 -55c19 0 32 13 32 49h54c0 -85 -40 -113 -83 -113c-59 0 -105 55 -143 55c-19 0 -32 -13 -32 -49zM76 0v510h86v-76c43 45 112 88 198 88c76 0 138 -34 138 -142v-380h-86v360c0 66 -32 87 -80 87
c-66 0 -123 -39 -170 -82v-365h-86z" />
    <glyph glyph-name="ograve" unicode="&#xf2;" horiz-adv-x="555" 
d="M508 257c0 -184 -106 -269 -233 -269c-125 0 -229 83 -229 265c0 184 106 269 233 269c125 0 229 -83 229 -265zM422 254c0 142 -65 199 -145 199s-145 -57 -145 -199s65 -199 145 -199s145 57 145 199zM342 570h-68l-128 150h101z" />
    <glyph glyph-name="oacute" unicode="&#xf3;" horiz-adv-x="555" 
d="M508 257c0 -184 -106 -269 -233 -269c-125 0 -229 83 -229 265c0 184 106 269 233 269c125 0 229 -83 229 -265zM422 254c0 142 -65 199 -145 199s-145 -57 -145 -199s65 -199 145 -199s145 57 145 199zM279 570h-68l95 150h101z" />
    <glyph glyph-name="ocircumflex" unicode="&#xf4;" horiz-adv-x="555" 
d="M508 257c0 -184 -106 -269 -233 -269c-125 0 -229 83 -229 265c0 184 106 269 233 269c125 0 229 -83 229 -265zM422 254c0 142 -65 199 -145 199s-145 -57 -145 -199s65 -199 145 -199s145 57 145 199zM186 570h-66l123 150h68l123 -150h-66l-91 85z" />
    <glyph glyph-name="otilde" unicode="&#xf5;" horiz-adv-x="555" 
d="M508 257c0 -184 -106 -269 -233 -269c-125 0 -229 83 -229 265c0 184 106 269 233 269c125 0 229 -83 229 -265zM422 254c0 142 -65 199 -145 199s-145 -57 -145 -199s65 -199 145 -199s145 57 145 199zM175 576h-54c0 85 40 113 83 113c59 0 105 -55 143 -55
c19 0 32 13 32 49h54c0 -85 -40 -113 -83 -113c-59 0 -105 55 -143 55c-19 0 -32 -13 -32 -49z" />
    <glyph glyph-name="odieresis" unicode="&#xf6;" horiz-adv-x="555" 
d="M508 257c0 -184 -106 -269 -233 -269c-125 0 -229 83 -229 265c0 184 106 269 233 269c125 0 229 -83 229 -265zM422 254c0 142 -65 199 -145 199s-145 -57 -145 -199s65 -199 145 -199s145 57 145 199zM231 623c0 -28 -20 -49 -49 -49s-49 21 -49 49s20 49 49 49
s49 -21 49 -49zM421 623c0 -28 -20 -49 -49 -49s-49 21 -49 49s20 49 49 49s49 -21 49 -49z" />
    <glyph glyph-name="divide" unicode="&#xf7;" horiz-adv-x="572" 
d="M338 453c0 -30 -20 -51 -52 -51s-53 21 -53 51s21 52 53 52s52 -22 52 -52zM530 291v-72h-488v72h488zM338 57c0 -30 -20 -52 -52 -52s-53 22 -53 52s21 51 53 51s52 -21 52 -51z" />
    <glyph glyph-name="oslash" unicode="&#xf8;" horiz-adv-x="555" 
d="M425 254c0 46 -7 83 -19 113l-233 -269c26 -32 63 -46 104 -46c82 0 148 58 148 202zM129 253c0 -44 6 -82 18 -111l233 269c-27 31 -63 45 -103 45c-82 0 -148 -57 -148 -203zM508 256c0 -183 -106 -268 -233 -268c-57 0 -110 17 -151 54l-58 -67l-37 32l63 72
c-29 42 -46 100 -46 174c0 184 106 269 232 269c58 0 111 -18 151 -54l59 67l37 -32l-63 -73c28 -42 46 -99 46 -174z" />
    <glyph glyph-name="ugrave" unicode="&#xf9;" horiz-adv-x="568" 
d="M346 570h-68l-128 150h101zM492 510v-510h-86v76c-43 -45 -112 -88 -198 -88c-76 0 -138 34 -138 142v380h86v-362c0 -66 32 -87 80 -87c66 0 123 39 170 82v367h86z" />
    <glyph glyph-name="uacute" unicode="&#xfa;" horiz-adv-x="568" 
d="M283 570h-68l95 150h101zM492 510v-510h-86v76c-43 -45 -112 -88 -198 -88c-76 0 -138 34 -138 142v380h86v-362c0 -66 32 -87 80 -87c66 0 123 39 170 82v367h86z" />
    <glyph glyph-name="ucircumflex" unicode="&#xfb;" horiz-adv-x="568" 
d="M190 570h-66l123 150h68l123 -150h-66l-91 85zM492 510v-510h-86v76c-43 -45 -112 -88 -198 -88c-76 0 -138 34 -138 142v380h86v-362c0 -66 32 -87 80 -87c66 0 123 39 170 82v367h86z" />
    <glyph glyph-name="udieresis" unicode="&#xfc;" horiz-adv-x="568" 
d="M235 623c0 -28 -20 -49 -49 -49s-49 21 -49 49s20 49 49 49s49 -21 49 -49zM425 623c0 -28 -20 -49 -49 -49s-49 21 -49 49s20 49 49 49s49 -21 49 -49zM492 510v-510h-86v76c-43 -45 -112 -88 -198 -88c-76 0 -138 34 -138 142v380h86v-362c0 -66 32 -87 80 -87
c66 0 123 39 170 82v367h86z" />
    <glyph glyph-name="yacute" unicode="&#xfd;" horiz-adv-x="505" 
d="M37 -212v74c15 -3 27 -6 47 -6c54 0 90 22 138 156h-27l-174 498h89l142 -425l146 425h86l-178 -498c-68 -191 -121 -228 -219 -228c-16 0 -37 1 -50 4zM255 570h-68l95 150h101z" />
    <glyph glyph-name="thorn" unicode="&#xfe;" horiz-adv-x="573" 
d="M76 720h86v-278c39 39 90 80 167 80c114 0 197 -88 197 -261c0 -184 -94 -273 -207 -273c-75 0 -118 39 -157 75v-273h-86v930zM308 448c-65 0 -110 -41 -146 -75v-243c33 -32 78 -71 141 -71c77 0 137 57 137 197c0 132 -54 192 -132 192z" />
    <glyph glyph-name="ydieresis" unicode="&#xff;" horiz-adv-x="505" 
d="M37 -212v74c15 -3 27 -6 47 -6c54 0 90 22 138 156h-27l-174 498h89l142 -425l146 425h86l-178 -498c-68 -191 -121 -228 -219 -228c-16 0 -37 1 -50 4zM206 623c0 -28 -20 -49 -49 -49s-49 21 -49 49s20 49 49 49s49 -21 49 -49zM396 623c0 -28 -20 -49 -49 -49
s-49 21 -49 49s20 49 49 49s49 -21 49 -49z" />
    <glyph glyph-name="Amacron" unicode="&#x100;" horiz-adv-x="677" 
d="M392 720l252 -720h-92l-66 195h-298l-66 -195h-90l257 720h103zM338 631l-125 -364h248zM188 785v65h294v-65h-294z" />
    <glyph glyph-name="amacron" unicode="&#x101;" horiz-adv-x="522" 
d="M264 451c-59 0 -113 -21 -167 -52l-22 68c55 30 125 55 205 55c107 0 172 -45 172 -172v-234c0 -78 5 -103 10 -116h-81c-5 9 -10 25 -12 64c-44 -47 -103 -76 -169 -76c-89 0 -154 53 -154 155c0 109 74 171 239 171c21 0 47 -1 83 -6v35c0 79 -35 108 -104 108zM223 56
c55 0 106 32 145 70v122c-41 6 -58 7 -78 7c-118 0 -160 -35 -160 -103c0 -64 37 -96 93 -96zM122 581v65h293v-65h-293z" />
    <glyph glyph-name="Abreve" unicode="&#x102;" horiz-adv-x="677" 
d="M392 720l252 -720h-92l-66 195h-298l-66 -195h-90l257 720h103zM338 631l-125 -364h248zM338 779c-104 0 -150 49 -150 130h54c7 -44 28 -66 96 -66s89 22 96 66h54c0 -81 -46 -130 -150 -130z" />
    <glyph glyph-name="abreve" unicode="&#x103;" horiz-adv-x="522" 
d="M264 451c-59 0 -113 -21 -167 -52l-22 68c55 30 125 55 205 55c107 0 172 -45 172 -172v-234c0 -78 5 -103 10 -116h-81c-5 9 -10 25 -12 64c-44 -47 -103 -76 -169 -76c-89 0 -154 53 -154 155c0 109 74 171 239 171c21 0 47 -1 83 -6v35c0 79 -35 108 -104 108zM223 56
c55 0 106 32 145 70v122c-41 6 -58 7 -78 7c-118 0 -160 -35 -160 -103c0 -64 37 -96 93 -96zM269 576c-104 0 -150 56 -150 144h53c8 -53 29 -79 97 -79s89 26 97 79h53c0 -88 -46 -144 -150 -144z" />
    <glyph glyph-name="Aogonek" unicode="&#x104;" horiz-adv-x="677" 
d="M552 0l-66 195h-298l-66 -195h-90l257 720h103l252 -720h-21c-64 -33 -90 -66 -90 -99c0 -28 17 -37 43 -37c9 0 22 1 33 4l14 -50c-16 -5 -38 -7 -56 -7c-65 0 -102 28 -102 78c0 41 24 82 87 111zM338 631l-125 -364h248z" />
    <glyph glyph-name="aogonek" unicode="&#x105;" horiz-adv-x="522" 
d="M369 64c-44 -47 -103 -76 -169 -76c-89 0 -154 53 -154 155c0 109 74 171 239 171c21 0 47 -1 83 -6v35c0 79 -35 108 -104 108c-59 0 -113 -21 -167 -52l-22 68c55 30 125 55 205 55c107 0 172 -45 172 -172v-234c0 -78 5 -103 10 -116h-10c-64 -33 -90 -66 -90 -99
c0 -28 17 -37 43 -37c9 0 22 1 33 4l14 -50c-16 -5 -38 -7 -56 -7c-65 0 -102 28 -102 78c0 41 24 82 87 111c-5 9 -10 25 -12 64zM223 56c55 0 106 32 145 70v122c-41 6 -58 7 -78 7c-118 0 -160 -35 -160 -103c0 -64 37 -96 93 -96z" />
    <glyph glyph-name="Cacute" unicode="&#x106;" horiz-adv-x="606" 
d="M534 128l26 -73c-52 -39 -122 -67 -204 -67c-175 0 -301 124 -301 365c0 247 132 379 314 379c76 0 138 -23 189 -61l-26 -80c-51 37 -100 63 -167 63c-130 0 -222 -96 -222 -296s92 -294 222 -294c65 0 116 23 169 64zM351 779h-69l95 130h102z" />
    <glyph glyph-name="cacute" unicode="&#x107;" horiz-adv-x="463" 
d="M424 478l-22 -72c-40 29 -75 45 -119 45c-86 0 -151 -62 -151 -197c0 -134 64 -196 153 -196c46 0 84 16 119 43l22 -66c-39 -29 -91 -47 -152 -47c-132 0 -228 85 -228 261c0 180 100 273 238 273c59 0 103 -17 140 -44zM270 570h-68l95 150h101z" />
    <glyph glyph-name="Ccircumflex" unicode="&#x108;" horiz-adv-x="606" 
d="M534 128l26 -73c-52 -39 -122 -67 -204 -67c-175 0 -301 124 -301 365c0 247 132 379 314 379c76 0 138 -23 189 -61l-26 -80c-51 37 -100 63 -167 63c-130 0 -222 -96 -222 -296s92 -294 222 -294c65 0 116 23 169 64zM257 779h-66l123 130h68l123 -130h-66l-91 65z" />
    <glyph glyph-name="ccircumflex" unicode="&#x109;" horiz-adv-x="463" 
d="M424 478l-22 -72c-40 29 -75 45 -119 45c-86 0 -151 -62 -151 -197c0 -134 64 -196 153 -196c46 0 84 16 119 43l22 -66c-39 -29 -91 -47 -152 -47c-132 0 -228 85 -228 261c0 180 100 273 238 273c59 0 103 -17 140 -44zM177 570h-66l123 150h68l123 -150h-66l-91 85z
" />
    <glyph glyph-name="Cdotaccent" unicode="&#x10a;" horiz-adv-x="606" 
d="M534 128l26 -73c-52 -39 -122 -67 -204 -67c-175 0 -301 124 -301 365c0 247 132 379 314 379c76 0 138 -23 189 -61l-26 -80c-51 37 -100 63 -167 63c-130 0 -222 -96 -222 -296s92 -294 222 -294c65 0 116 23 169 64zM348 776c-32 0 -54 23 -54 53s22 53 54 53
s54 -23 54 -53s-22 -53 -54 -53z" />
    <glyph glyph-name="cdotaccent" unicode="&#x10b;" horiz-adv-x="463" 
d="M424 478l-22 -72c-40 29 -75 45 -119 45c-86 0 -151 -62 -151 -197c0 -134 64 -196 153 -196c46 0 84 16 119 43l22 -66c-39 -29 -91 -47 -152 -47c-132 0 -228 85 -228 261c0 180 100 273 238 273c59 0 103 -17 140 -44zM268 569c-32 0 -54 23 -54 53s22 53 54 53
s54 -23 54 -53s-22 -53 -54 -53z" />
    <glyph glyph-name="Ccaron" unicode="&#x10c;" horiz-adv-x="606" 
d="M534 128l26 -73c-52 -39 -122 -67 -204 -67c-175 0 -301 124 -301 365c0 247 132 379 314 379c76 0 138 -23 189 -61l-26 -80c-51 37 -100 63 -167 63c-130 0 -222 -96 -222 -296s92 -294 222 -294c65 0 116 23 169 64zM439 909h66l-123 -130h-68l-123 130h66l91 -67z
" />
    <glyph glyph-name="ccaron" unicode="&#x10d;" horiz-adv-x="463" 
d="M424 478l-22 -72c-40 29 -75 45 -119 45c-86 0 -151 -62 -151 -197c0 -134 64 -196 153 -196c46 0 84 16 119 43l22 -66c-39 -29 -91 -47 -152 -47c-132 0 -228 85 -228 261c0 180 100 273 238 273c59 0 103 -17 140 -44zM359 720h66l-123 -150h-68l-123 150h66l91 -85z
" />
    <glyph glyph-name="Dcaron" unicode="&#x10e;" horiz-adv-x="699" 
d="M92 720h225c192 0 326 -123 326 -359c0 -238 -136 -361 -326 -361h-225v720zM180 76h137c140 0 238 89 238 283c0 193 -98 282 -238 282h-137v-565zM428 909h66l-123 -130h-68l-123 130h66l91 -67z" />
    <glyph glyph-name="dcaron" unicode="&#x10f;" horiz-adv-x="582" 
d="M587 565h-57l30 155h81zM423 0c-6 10 -10 28 -12 72c-44 -52 -102 -84 -169 -84c-114 0 -196 92 -196 260c0 179 93 274 210 274c60 0 110 -25 154 -76v274h86v-604c0 -78 5 -102 10 -116h-83zM265 59c54 0 102 29 145 77v239c-41 47 -89 72 -141 72
c-82 0 -137 -62 -137 -195c0 -131 53 -193 133 -193z" />
    <glyph glyph-name="Dcroat" unicode="&#x110;" horiz-adv-x="699" 
d="M12 342v65h80v313h225c192 0 326 -123 326 -359c0 -238 -136 -361 -326 -361h-225v342h-80zM180 76h137c140 0 238 89 238 283c0 193 -98 282 -238 282h-137v-234h185v-65h-185v-266z" />
    <glyph glyph-name="dcroat" unicode="&#x111;" horiz-adv-x="572" 
d="M264 581v65h146v74h86v-74h78v-65h-78v-465c0 -78 5 -102 10 -116h-83c-6 10 -10 28 -12 72c-44 -52 -102 -84 -169 -84c-114 0 -196 92 -196 260c0 179 93 274 210 274c60 0 110 -25 154 -76v135h-146zM265 59c54 0 102 29 145 77v239c-41 47 -89 72 -141 72
c-82 0 -137 -62 -137 -195c0 -131 53 -193 133 -193z" />
    <glyph glyph-name="Emacron" unicode="&#x112;" horiz-adv-x="588" 
d="M92 0v720h444v-78h-356v-232h313v-75h-313v-258h359v-77h-447zM168 785v65h294v-65h-294z" />
    <glyph glyph-name="emacron" unicode="&#x113;" horiz-adv-x="537" 
d="M279 456c-80 0 -135 -57 -146 -159h272c-1 112 -54 159 -126 159zM485 236h-352c6 -126 69 -180 161 -180c53 0 103 18 157 49l22 -65c-54 -33 -124 -52 -190 -52c-142 0 -237 88 -237 259c0 179 104 275 236 275c123 0 205 -83 205 -244c0 -18 0 -27 -2 -42zM127 581v65
h293v-65h-293z" />
    <glyph glyph-name="Ebreve" unicode="&#x114;" horiz-adv-x="588" 
d="M92 0v720h444v-78h-356v-232h313v-75h-313v-258h359v-77h-447zM315 779c-104 0 -150 49 -150 130h54c7 -44 28 -66 96 -66s89 22 96 66h54c0 -81 -46 -130 -150 -130z" />
    <glyph glyph-name="ebreve" unicode="&#x115;" horiz-adv-x="537" 
d="M279 456c-80 0 -135 -57 -146 -159h272c-1 112 -54 159 -126 159zM485 236h-352c6 -126 69 -180 161 -180c53 0 103 18 157 49l22 -65c-54 -33 -124 -52 -190 -52c-142 0 -237 88 -237 259c0 179 104 275 236 275c123 0 205 -83 205 -244c0 -18 0 -27 -2 -42zM274 576
c-104 0 -150 56 -150 144h53c8 -53 29 -79 97 -79s89 26 97 79h53c0 -88 -46 -144 -150 -144z" />
    <glyph glyph-name="Edotaccent" unicode="&#x116;" horiz-adv-x="588" 
d="M92 0v720h444v-78h-356v-232h313v-75h-313v-258h359v-77h-447zM315 776c-32 0 -54 23 -54 53s22 53 54 53s54 -23 54 -53s-22 -53 -54 -53z" />
    <glyph glyph-name="edotaccent" unicode="&#x117;" horiz-adv-x="537" 
d="M279 456c-80 0 -135 -57 -146 -159h272c-1 112 -54 159 -126 159zM485 236h-352c6 -126 69 -180 161 -180c53 0 103 18 157 49l22 -65c-54 -33 -124 -52 -190 -52c-142 0 -237 88 -237 259c0 179 104 275 236 275c123 0 205 -83 205 -244c0 -18 0 -27 -2 -42zM274 569
c-32 0 -54 23 -54 53s22 53 54 53s54 -23 54 -53s-22 -53 -54 -53z" />
    <glyph glyph-name="Eogonek" unicode="&#x118;" horiz-adv-x="588" 
d="M92 0v720h444v-78h-356v-232h313v-75h-313v-258h359v-75c-66 -34 -93 -67 -93 -101c0 -28 17 -37 43 -37c9 0 22 1 33 4l14 -50c-16 -5 -38 -7 -56 -7c-65 0 -102 28 -102 78c0 41 24 82 87 111h-373z" />
    <glyph glyph-name="eogonek" unicode="&#x119;" horiz-adv-x="537" 
d="M331 -7c-16 -3 -31 -5 -52 -5c-137 0 -233 88 -233 259c0 179 104 275 236 275c123 0 205 -83 205 -244c0 -18 0 -27 -2 -42h-352c6 -126 69 -180 161 -180c53 0 103 18 157 49l22 -65c-100 -61 -134 -95 -134 -138c0 -30 17 -38 44 -38c16 0 35 3 59 14l13 -51
c-23 -11 -54 -16 -82 -16c-65 0 -102 28 -102 80c0 32 14 66 60 102zM279 456c-80 0 -135 -57 -146 -159h272c-1 112 -54 159 -126 159z" />
    <glyph glyph-name="Ecaron" unicode="&#x11a;" horiz-adv-x="588" 
d="M92 0v720h444v-78h-356v-232h313v-75h-313v-258h359v-77h-447zM406 909h66l-123 -130h-68l-123 130h66l91 -67z" />
    <glyph glyph-name="ecaron" unicode="&#x11b;" horiz-adv-x="537" 
d="M279 456c-80 0 -135 -57 -146 -159h272c-1 112 -54 159 -126 159zM485 236h-352c6 -126 69 -180 161 -180c53 0 103 18 157 49l22 -65c-54 -33 -124 -52 -190 -52c-142 0 -237 88 -237 259c0 179 104 275 236 275c123 0 205 -83 205 -244c0 -18 0 -27 -2 -42zM365 720h66
l-123 -150h-68l-123 150h66l91 -85z" />
    <glyph glyph-name="Gcircumflex" unicode="&#x11c;" horiz-adv-x="677" 
d="M382 61c50 0 94 11 135 30v214h-155v72h239v-323c-65 -41 -141 -66 -228 -66c-192 0 -318 122 -318 364c0 249 134 380 326 380c91 0 162 -29 220 -73l-26 -81c-60 48 -120 76 -196 76c-139 0 -236 -93 -236 -299c0 -203 95 -294 239 -294zM277 779h-66l123 130h68
l123 -130h-66l-91 65z" />
    <glyph glyph-name="gcircumflex" unicode="&#x11d;" horiz-adv-x="580" 
d="M493 343c0 -117 -99 -185 -221 -185c-33 0 -64 5 -93 14c-15 -13 -26 -30 -26 -50c0 -40 43 -41 87 -41h114c108 0 178 -44 178 -128c0 -113 -126 -175 -286 -175c-134 0 -225 43 -225 128c0 52 35 95 105 121c-32 16 -52 41 -52 76c0 39 26 69 57 91
c-46 30 -75 77 -75 142c0 119 99 186 221 186c63 0 121 -18 161 -52c21 21 55 41 97 41c9 0 15 -1 24 -2v-77c-6 1 -14 2 -24 2c-23 0 -43 -5 -60 -13c11 -22 18 -47 18 -78zM142 337c0 -83 59 -118 134 -118c77 0 134 37 134 120c0 84 -59 119 -133 119
c-77 0 -135 -38 -135 -121zM336 9h-132c-64 -19 -98 -48 -98 -90c0 -55 57 -78 149 -78c113 0 189 35 189 100c0 47 -38 68 -108 68zM184 570h-66l123 150h68l123 -150h-66l-91 85z" />
    <glyph glyph-name="Gbreve" unicode="&#x11e;" horiz-adv-x="677" 
d="M382 61c50 0 94 11 135 30v214h-155v72h239v-323c-65 -41 -141 -66 -228 -66c-192 0 -318 122 -318 364c0 249 134 380 326 380c91 0 162 -29 220 -73l-26 -81c-60 48 -120 76 -196 76c-139 0 -236 -93 -236 -299c0 -203 95 -294 239 -294zM368 779
c-104 0 -150 49 -150 130h54c7 -44 28 -66 96 -66s89 22 96 66h54c0 -81 -46 -130 -150 -130z" />
    <glyph glyph-name="gbreve" unicode="&#x11f;" horiz-adv-x="580" 
d="M493 343c0 -117 -99 -185 -221 -185c-33 0 -64 5 -93 14c-15 -13 -26 -30 -26 -50c0 -40 43 -41 87 -41h114c108 0 178 -44 178 -128c0 -113 -126 -175 -286 -175c-134 0 -225 43 -225 128c0 52 35 95 105 121c-32 16 -52 41 -52 76c0 39 26 69 57 91
c-46 30 -75 77 -75 142c0 119 99 186 221 186c63 0 121 -18 161 -52c21 21 55 41 97 41c9 0 15 -1 24 -2v-77c-6 1 -14 2 -24 2c-23 0 -43 -5 -60 -13c11 -22 18 -47 18 -78zM142 337c0 -83 59 -118 134 -118c77 0 134 37 134 120c0 84 -59 119 -133 119
c-77 0 -135 -38 -135 -121zM336 9h-132c-64 -19 -98 -48 -98 -90c0 -55 57 -78 149 -78c113 0 189 35 189 100c0 47 -38 68 -108 68zM275 576c-104 0 -150 56 -150 144h53c8 -53 29 -79 97 -79s89 26 97 79h53c0 -88 -46 -144 -150 -144z" />
    <glyph glyph-name="Gdotaccent" unicode="&#x120;" horiz-adv-x="677" 
d="M382 61c50 0 94 11 135 30v214h-155v72h239v-323c-65 -41 -141 -66 -228 -66c-192 0 -318 122 -318 364c0 249 134 380 326 380c91 0 162 -29 220 -73l-26 -81c-60 48 -120 76 -196 76c-139 0 -236 -93 -236 -299c0 -203 95 -294 239 -294zM368 776c-32 0 -54 23 -54 53
s22 53 54 53s54 -23 54 -53s-22 -53 -54 -53z" />
    <glyph glyph-name="gdotaccent" unicode="&#x121;" horiz-adv-x="580" 
d="M493 343c0 -117 -99 -185 -221 -185c-33 0 -64 5 -93 14c-15 -13 -26 -30 -26 -50c0 -40 43 -41 87 -41h114c108 0 178 -44 178 -128c0 -113 -126 -175 -286 -175c-134 0 -225 43 -225 128c0 52 35 95 105 121c-32 16 -52 41 -52 76c0 39 26 69 57 91
c-46 30 -75 77 -75 142c0 119 99 186 221 186c63 0 121 -18 161 -52c21 21 55 41 97 41c9 0 15 -1 24 -2v-77c-6 1 -14 2 -24 2c-23 0 -43 -5 -60 -13c11 -22 18 -47 18 -78zM142 337c0 -83 59 -118 134 -118c77 0 134 37 134 120c0 84 -59 119 -133 119
c-77 0 -135 -38 -135 -121zM336 9h-132c-64 -19 -98 -48 -98 -90c0 -55 57 -78 149 -78c113 0 189 35 189 100c0 47 -38 68 -108 68zM275 569c-32 0 -54 23 -54 53s22 53 54 53s54 -23 54 -53s-22 -53 -54 -53z" />
    <glyph glyph-name="uni0122" unicode="&#x122;" horiz-adv-x="677" 
d="M382 61c50 0 94 11 135 30v214h-155v72h239v-323c-65 -41 -141 -66 -228 -66c-192 0 -318 122 -318 364c0 249 134 380 326 380c91 0 162 -29 220 -73l-26 -81c-60 48 -120 76 -196 76c-139 0 -236 -93 -236 -299c0 -203 95 -294 239 -294zM303 -180c34 19 52 39 61 57
c-29 1 -47 19 -47 45c0 28 22 46 50 46c32 0 58 -22 58 -66c0 -35 -17 -84 -91 -121z" />
    <glyph glyph-name="uni0123" unicode="&#x123;" horiz-adv-x="580" 
d="M493 343c0 -117 -99 -185 -221 -185c-33 0 -64 5 -93 14c-15 -13 -26 -30 -26 -50c0 -40 43 -41 87 -41h114c108 0 178 -44 178 -128c0 -113 -126 -175 -286 -175c-134 0 -225 43 -225 128c0 52 35 95 105 121c-32 16 -52 41 -52 76c0 39 26 69 57 91
c-46 30 -75 77 -75 142c0 119 99 186 221 186c63 0 121 -18 161 -52c21 21 55 41 97 41c9 0 15 -1 24 -2v-77c-6 1 -14 2 -24 2c-23 0 -43 -5 -60 -13c11 -22 18 -47 18 -78zM142 337c0 -83 59 -118 134 -118c77 0 134 37 134 120c0 84 -59 119 -133 119
c-77 0 -135 -38 -135 -121zM336 9h-132c-64 -19 -98 -48 -98 -90c0 -55 57 -78 149 -78c113 0 189 35 189 100c0 47 -38 68 -108 68zM316 753l31 -39c-34 -19 -52 -39 -61 -57c29 -1 47 -19 47 -45c0 -28 -22 -46 -50 -46c-32 0 -58 22 -58 66c0 35 17 84 91 121z" />
    <glyph glyph-name="Hcircumflex" unicode="&#x124;" horiz-adv-x="706" 
d="M92 0v720h88v-308h346v308h88v-720h-88v335h-346v-335h-88zM263 779h-66l123 130h68l123 -130h-66l-91 65z" />
    <glyph glyph-name="hcircumflex" unicode="&#x125;" horiz-adv-x="568" 
d="M76 0v720h86v-286c43 45 112 88 198 88c76 0 138 -34 138 -142v-380h-86v360c0 66 -32 87 -80 87c-66 0 -123 -39 -170 -82v-365h-86zM196 770h-66l123 150h68l123 -150h-66l-91 85z" />
    <glyph glyph-name="Hbar" unicode="&#x126;" horiz-adv-x="706" 
d="M12 524v65h80v131h88v-131h346v131h88v-131h80v-65h-80v-524h-88v335h-346v-335h-88v524h-80zM180 412h346v112h-346v-112z" />
    <glyph glyph-name="hbar" unicode="&#x127;" horiz-adv-x="570" 
d="M-2 581v65h78v74h86v-74h146v-65h-146v-147c43 45 112 88 198 88c76 0 138 -34 138 -142v-380h-86v360c0 66 -32 87 -80 87c-66 0 -123 -39 -170 -82v-365h-86v581h-78z" />
    <glyph glyph-name="Itilde" unicode="&#x128;" horiz-adv-x="288" 
d="M100 0v720h88v-720h-88zM43 779h-54c0 84 40 111 83 111c59 0 105 -51 144 -51c23 0 31 18 31 45h54c0 -84 -40 -111 -83 -111c-59 0 -105 51 -144 51c-23 0 -31 -18 -31 -45z" />
    <glyph glyph-name="itilde" unicode="&#x129;" horiz-adv-x="250" 
d="M24 576h-54c0 85 40 113 83 113c59 0 105 -55 143 -55c19 0 32 13 32 49h54c0 -85 -40 -113 -83 -113c-59 0 -105 55 -143 55c-19 0 -32 -13 -32 -49zM82 0v510h86v-510h-86z" />
    <glyph glyph-name="Imacron" unicode="&#x12a;" horiz-adv-x="288" 
d="M100 0v720h88v-720h-88zM-2 785v65h294v-65h-294z" />
    <glyph glyph-name="imacron" unicode="&#x12b;" horiz-adv-x="250" 
d="M-21 581v65h293v-65h-293zM82 0v510h86v-510h-86z" />
    <glyph glyph-name="Ibreve" unicode="&#x12c;" horiz-adv-x="288" 
d="M100 0v720h88v-720h-88zM145 779c-104 0 -150 49 -150 130h54c7 -44 28 -66 96 -66s89 22 96 66h54c0 -81 -46 -130 -150 -130z" />
    <glyph glyph-name="ibreve" unicode="&#x12d;" horiz-adv-x="250" 
d="M126 576c-104 0 -150 56 -150 144h53c8 -53 29 -79 97 -79s89 26 97 79h53c0 -88 -46 -144 -150 -144zM82 0v510h86v-510h-86z" />
    <glyph glyph-name="Iogonek" unicode="&#x12e;" horiz-adv-x="288" 
d="M100 0v720h88v-720h-16c-57 -33 -80 -66 -80 -99c0 -28 17 -37 43 -37c9 0 22 1 33 4l14 -50c-16 -5 -38 -7 -56 -7c-65 0 -102 28 -102 80c0 36 18 78 76 109z" />
    <glyph glyph-name="iogonek" unicode="&#x12f;" horiz-adv-x="250" 
d="M82 0v510h86v-510h-15c-57 -33 -80 -66 -80 -99c0 -28 17 -37 43 -37c9 0 22 1 33 4l14 -50c-16 -5 -38 -7 -56 -7c-65 0 -102 28 -102 80c0 39 21 80 77 109zM179 652c0 -31 -21 -53 -54 -53s-54 22 -54 53s21 53 54 53s54 -22 54 -53z" />
    <glyph glyph-name="Idotaccent" unicode="&#x130;" horiz-adv-x="288" 
d="M100 0v720h88v-720h-88zM145 776c-32 0 -54 23 -54 53s22 53 54 53s54 -23 54 -53s-22 -53 -54 -53z" />
    <glyph glyph-name="dotlessi" unicode="&#x131;" horiz-adv-x="250" 
d="M82 0v510h86v-510h-86z" />
    <glyph glyph-name="IJ" unicode="&#x132;" horiz-adv-x="696" 
d="M100 0v720h88v-720h-88zM318 2v79c25 -6 57 -11 87 -11c94 0 118 51 118 139v511h88v-511c0 -142 -53 -215 -199 -215c-30 0 -67 3 -94 8z" />
    <glyph glyph-name="ij" unicode="&#x133;" horiz-adv-x="501" 
d="M82 0v510h86v-510h-86zM125 705c32 0 54 -23 54 -53s-22 -53 -54 -53s-54 23 -54 53s22 53 54 53zM418 510v-576c0 -98 -41 -150 -142 -150c-20 0 -39 2 -59 6v70c17 -5 31 -6 42 -6c58 0 73 27 73 80v576h86zM375 705c32 0 54 -23 54 -53s-22 -53 -54 -53s-54 23 -54 53
s22 53 54 53z" />
    <glyph glyph-name="Jcircumflex" unicode="&#x134;" horiz-adv-x="406" 
d="M29 2v79c25 -6 57 -11 87 -11c94 0 118 51 118 139v511h88v-511c0 -142 -53 -215 -199 -215c-30 0 -67 3 -94 8zM193 779h-66l123 130h68l123 -130h-66l-91 65z" />
    <glyph glyph-name="jcircumflex" unicode="&#x135;" horiz-adv-x="250" 
d="M168 510v-576c0 -98 -41 -150 -142 -150c-20 0 -39 2 -59 6v70c17 -5 31 -6 42 -6c58 0 73 27 73 80v576h86zM35 570h-66l123 150h68l123 -150h-66l-91 85z" />
    <glyph glyph-name="uni0136" unicode="&#x136;" horiz-adv-x="650" 
d="M92 0v720h88v-348l318 348h108l-251 -264l274 -456h-98l-235 394l-116 -123v-271h-88zM275 -180c34 19 52 39 61 57c-29 1 -47 19 -47 45c0 28 22 46 50 46c32 0 58 -22 58 -66c0 -35 -17 -84 -91 -121z" />
    <glyph glyph-name="uni0137" unicode="&#x137;" horiz-adv-x="531" 
d="M76 0v720h86v-429l218 219h103l-191 -182l212 -328h-92l-176 274l-74 -70v-204h-86zM205 -180c34 19 52 39 61 57c-29 1 -47 19 -47 45c0 28 22 46 50 46c32 0 58 -22 58 -66c0 -35 -17 -84 -91 -121z" />
    <glyph glyph-name="kgreenlandic" unicode="&#x138;" horiz-adv-x="531" 
d="M76 0v510h86v-219l218 219h103l-191 -182l212 -328h-92l-176 274l-74 -70v-204h-86z" />
    <glyph glyph-name="Lacute" unicode="&#x139;" horiz-adv-x="532" 
d="M92 0v720h88v-642h323v-78h-411zM136 779h-69l95 130h102z" />
    <glyph glyph-name="lacute" unicode="&#x13a;" horiz-adv-x="250" 
d="M82 0v720h86v-720h-86zM128 770h-68l95 150h101z" />
    <glyph glyph-name="uni013B" unicode="&#x13b;" horiz-adv-x="532" 
d="M92 0v720h88v-642h323v-78h-411zM239 -180c34 19 52 39 61 57c-29 1 -47 19 -47 45c0 28 22 46 50 46c32 0 58 -22 58 -66c0 -35 -17 -84 -91 -121z" />
    <glyph glyph-name="uni013C" unicode="&#x13c;" horiz-adv-x="250" 
d="M82 0v720h86v-720h-86zM51 -180c34 19 52 39 61 57c-29 1 -47 19 -47 45c0 28 22 46 50 46c32 0 58 -22 58 -66c0 -35 -17 -84 -91 -121z" />
    <glyph glyph-name="Lcaron" unicode="&#x13d;" horiz-adv-x="532" 
d="M289 565h-57l30 155h81zM92 0v720h88v-642h323v-78h-411z" />
    <glyph glyph-name="lcaron" unicode="&#x13e;" horiz-adv-x="260" 
d="M260 565h-57l30 155h81zM82 0v720h86v-720h-86z" />
    <glyph glyph-name="Ldot" unicode="&#x13f;" horiz-adv-x="532" 
d="M92 0v720h88v-642h323v-78h-411zM397 307c-32 0 -54 23 -54 53s22 53 54 53s54 -23 54 -53s-22 -53 -54 -53z" />
    <glyph glyph-name="ldot" unicode="&#x140;" horiz-adv-x="285" 
d="M82 0v720h86v-720h-86zM277 306c-32 0 -54 23 -54 53s22 53 54 53s54 -23 54 -53s-22 -53 -54 -53z" />
    <glyph glyph-name="Lslash" unicode="&#x141;" horiz-adv-x="532" 
d="M12 298v69l80 20v333h88v-310l201 50v-69l-201 -50v-263h323v-78h-411v318z" />
    <glyph glyph-name="lslash" unicode="&#x142;" horiz-adv-x="305" 
d="M13 321v65l96 25v309h86v-287l96 25v-65l-96 -25v-368h-86v346z" />
    <glyph glyph-name="Nacute" unicode="&#x143;" horiz-adv-x="713" 
d="M92 0v720h97l349 -547v547h82v-720h-72l-374 587v-587h-82zM359 779h-69l95 130h102z" />
    <glyph glyph-name="nacute" unicode="&#x144;" horiz-adv-x="568" 
d="M289 570h-68l95 150h101zM76 0v510h86v-76c43 45 112 88 198 88c76 0 138 -34 138 -142v-380h-86v360c0 66 -32 87 -80 87c-66 0 -123 -39 -170 -82v-365h-86z" />
    <glyph glyph-name="uni0145" unicode="&#x145;" horiz-adv-x="713" 
d="M92 0v720h97l349 -547v547h82v-720h-72l-374 587v-587h-82zM291 -180c34 19 52 39 61 57c-29 1 -47 19 -47 45c0 28 22 46 50 46c32 0 58 -22 58 -66c0 -35 -17 -84 -91 -121z" />
    <glyph glyph-name="uni0146" unicode="&#x146;" horiz-adv-x="568" 
d="M211 -180c34 19 52 39 61 57c-29 1 -47 19 -47 45c0 28 22 46 50 46c32 0 58 -22 58 -66c0 -35 -17 -84 -91 -121zM76 0v510h86v-76c43 45 112 88 198 88c76 0 138 -34 138 -142v-380h-86v360c0 66 -32 87 -80 87c-66 0 -123 -39 -170 -82v-365h-86z" />
    <glyph glyph-name="Ncaron" unicode="&#x147;" horiz-adv-x="713" 
d="M92 0v720h97l349 -547v547h82v-720h-72l-374 587v-587h-82zM447 909h66l-123 -130h-68l-123 130h66l91 -67z" />
    <glyph glyph-name="ncaron" unicode="&#x148;" horiz-adv-x="568" 
d="M378 720h66l-123 -150h-68l-123 150h66l91 -85zM76 0v510h86v-76c43 45 112 88 198 88c76 0 138 -34 138 -142v-380h-86v360c0 66 -32 87 -80 87c-66 0 -123 -39 -170 -82v-365h-86z" />
    <glyph glyph-name="napostrophe" unicode="&#x149;" horiz-adv-x="568" 
d="M-31 584c34 19 52 39 61 57c-29 1 -47 19 -47 45c0 28 22 46 50 46c32 0 58 -22 58 -66c0 -35 -17 -84 -91 -121zM76 0v510h86v-76c43 45 112 88 198 88c76 0 138 -34 138 -142v-380h-86v360c0 66 -32 87 -80 87c-66 0 -123 -39 -170 -82v-365h-86z" />
    <glyph glyph-name="Eng" unicode="&#x14a;" horiz-adv-x="713" 
d="M92 0v720h97l349 -549v549h82v-748c0 -98 -41 -150 -142 -150c-20 0 -39 2 -59 6v70c17 -5 31 -6 42 -6c58 0 73 27 73 80v48l-360 566v-586h-82z" />
    <glyph glyph-name="eng" unicode="&#x14b;" horiz-adv-x="568" 
d="M76 0v510h86v-76c43 45 112 88 198 88c76 0 138 -34 138 -142v-408c0 -98 -41 -150 -142 -150c-20 0 -39 2 -59 6v70c17 -5 31 -6 42 -6c58 0 73 27 73 80v388c0 66 -32 87 -80 87c-66 0 -123 -39 -170 -82v-365h-86z" />
    <glyph glyph-name="Omacron" unicode="&#x14c;" horiz-adv-x="717" 
d="M661 362c0 -244 -130 -374 -305 -374c-173 0 -301 128 -301 370c0 244 130 374 305 374c173 0 301 -128 301 -370zM573 359c0 203 -87 295 -215 295s-215 -92 -215 -295s87 -295 215 -295s215 92 215 295zM211 785v65h294v-65h-294z" />
    <glyph glyph-name="omacron" unicode="&#x14d;" horiz-adv-x="555" 
d="M508 257c0 -184 -106 -269 -233 -269c-125 0 -229 83 -229 265c0 184 106 269 233 269c125 0 229 -83 229 -265zM422 254c0 142 -65 199 -145 199s-145 -57 -145 -199s65 -199 145 -199s145 57 145 199zM130 581v65h293v-65h-293z" />
    <glyph glyph-name="Obreve" unicode="&#x14e;" horiz-adv-x="717" 
d="M661 362c0 -244 -130 -374 -305 -374c-173 0 -301 128 -301 370c0 244 130 374 305 374c173 0 301 -128 301 -370zM573 359c0 203 -87 295 -215 295s-215 -92 -215 -295s87 -295 215 -295s215 92 215 295zM358 779c-104 0 -150 49 -150 130h54c7 -44 28 -66 96 -66
s89 22 96 66h54c0 -81 -46 -130 -150 -130z" />
    <glyph glyph-name="obreve" unicode="&#x14f;" horiz-adv-x="555" 
d="M508 257c0 -184 -106 -269 -233 -269c-125 0 -229 83 -229 265c0 184 106 269 233 269c125 0 229 -83 229 -265zM422 254c0 142 -65 199 -145 199s-145 -57 -145 -199s65 -199 145 -199s145 57 145 199zM277 576c-104 0 -150 56 -150 144h53c8 -53 29 -79 97 -79
s89 26 97 79h53c0 -88 -46 -144 -150 -144z" />
    <glyph glyph-name="Ohungarumlaut" unicode="&#x150;" horiz-adv-x="717" 
d="M661 362c0 -244 -130 -374 -305 -374c-173 0 -301 128 -301 370c0 244 130 374 305 374c173 0 301 -128 301 -370zM573 359c0 203 -87 295 -215 295s-215 -92 -215 -295s87 -295 215 -295s215 92 215 295zM277 779h-69l95 130h102zM432 779h-68l107 130h102z" />
    <glyph glyph-name="ohungarumlaut" unicode="&#x151;" horiz-adv-x="555" 
d="M508 257c0 -184 -106 -269 -233 -269c-125 0 -229 83 -229 265c0 184 106 269 233 269c125 0 229 -83 229 -265zM422 254c0 142 -65 199 -145 199s-145 -57 -145 -199s65 -199 145 -199s145 57 145 199zM196 570h-68l95 150h101zM351 570h-68l107 150h101z" />
    <glyph glyph-name="OE" unicode="&#x152;" horiz-adv-x="939" 
d="M890 0h-413c-35 -7 -73 -12 -109 -12c-183 0 -313 123 -313 366c0 247 134 378 324 378c38 0 73 -5 105 -12h404v-78h-327v-232h284v-75h-284v-258h329v-77zM378 64c32 0 65 5 96 13v561c-31 9 -62 16 -99 16c-138 0 -232 -96 -232 -295c0 -200 94 -295 235 -295z" />
    <glyph glyph-name="oe" unicode="&#x153;" horiz-adv-x="913" 
d="M670 56c53 0 103 18 157 49l22 -65c-54 -33 -124 -52 -190 -52c-86 0 -155 32 -196 96c-43 -65 -112 -96 -188 -96c-125 0 -229 83 -229 265c0 184 106 269 233 269c78 0 147 -32 189 -100c42 65 111 100 190 100c123 0 205 -83 205 -244c0 -18 0 -27 -2 -42h-352
c6 -126 69 -180 161 -180zM422 254c0 142 -65 199 -145 199s-145 -57 -145 -199s65 -199 145 -199s145 57 145 199zM655 456c-80 0 -135 -57 -146 -159h272c-1 112 -54 159 -126 159z" />
    <glyph glyph-name="Racute" unicode="&#x154;" horiz-adv-x="676" 
d="M519 0l-191 321h-149v-321h-87v720h259c149 0 236 -66 236 -199c0 -111 -61 -174 -167 -194l197 -327h-98zM179 390h163c107 0 158 37 158 126s-51 126 -158 126h-163v-252zM328 779h-69l95 130h102z" />
    <glyph glyph-name="racute" unicode="&#x155;" horiz-adv-x="373" 
d="M352 519v-78c-10 1 -23 2 -33 2c-78 0 -134 -59 -157 -86v-357h-86v510h86v-81c29 44 82 93 158 93c10 0 23 -1 32 -3zM217 570h-68l95 150h101z" />
    <glyph glyph-name="uni0156" unicode="&#x156;" horiz-adv-x="676" 
d="M519 0l-191 321h-149v-321h-87v720h259c149 0 236 -66 236 -199c0 -111 -61 -174 -167 -194l197 -327h-98zM179 390h163c107 0 158 37 158 126s-51 126 -158 126h-163v-252zM262 -180c34 19 52 39 61 57c-29 1 -47 19 -47 45c0 28 22 46 50 46c32 0 58 -22 58 -66
c0 -35 -17 -84 -91 -121z" />
    <glyph glyph-name="uni0157" unicode="&#x157;" horiz-adv-x="373" 
d="M352 519v-78c-10 1 -23 2 -33 2c-78 0 -134 -59 -157 -86v-357h-86v510h86v-81c29 44 82 93 158 93c10 0 23 -1 32 -3zM47 -180c34 19 52 39 61 57c-29 1 -47 19 -47 45c0 28 22 46 50 46c32 0 58 -22 58 -66c0 -35 -17 -84 -91 -121z" />
    <glyph glyph-name="Rcaron" unicode="&#x158;" horiz-adv-x="676" 
d="M519 0l-191 321h-149v-321h-87v720h259c149 0 236 -66 236 -199c0 -111 -61 -174 -167 -194l197 -327h-98zM179 390h163c107 0 158 37 158 126s-51 126 -158 126h-163v-252zM416 909h66l-123 -130h-68l-123 130h66l91 -67z" />
    <glyph glyph-name="rcaron" unicode="&#x159;" horiz-adv-x="373" 
d="M352 519v-78c-10 1 -23 2 -33 2c-78 0 -134 -59 -157 -86v-357h-86v510h86v-81c29 44 82 93 158 93c10 0 23 -1 32 -3zM306 720h66l-123 -150h-68l-123 150h66l91 -85z" />
    <glyph glyph-name="Sacute" unicode="&#x15a;" horiz-adv-x="580" 
d="M55 54l26 78c61 -40 128 -68 200 -68c96 0 155 50 155 128c0 194 -360 94 -360 337c0 125 94 203 230 203c76 0 144 -25 199 -64l-26 -81c-53 40 -110 67 -177 67c-85 0 -138 -45 -138 -114c0 -181 360 -80 360 -336c0 -133 -98 -216 -245 -216c-80 0 -160 25 -224 66z
M294 779h-69l95 130h102z" />
    <glyph glyph-name="sacute" unicode="&#x15b;" horiz-adv-x="456" 
d="M394 475l-22 -72c-39 28 -85 49 -132 49c-57 0 -90 -30 -90 -72c0 -118 260 -45 260 -230c0 -101 -77 -162 -191 -162c-64 0 -124 19 -173 48l22 71c48 -30 99 -51 153 -51c68 0 105 33 105 82c0 130 -260 58 -260 233c0 91 70 151 175 151c58 0 110 -18 153 -47z
M232 570h-68l95 150h101z" />
    <glyph glyph-name="Scircumflex" unicode="&#x15c;" horiz-adv-x="580" 
d="M55 54l26 78c61 -40 128 -68 200 -68c96 0 155 50 155 128c0 194 -360 94 -360 337c0 125 94 203 230 203c76 0 144 -25 199 -64l-26 -81c-53 40 -110 67 -177 67c-85 0 -138 -45 -138 -114c0 -181 360 -80 360 -336c0 -133 -98 -216 -245 -216c-80 0 -160 25 -224 66z
M200 779h-66l123 130h68l123 -130h-66l-91 65z" />
    <glyph glyph-name="scircumflex" unicode="&#x15d;" horiz-adv-x="456" 
d="M394 475l-22 -72c-39 28 -85 49 -132 49c-57 0 -90 -30 -90 -72c0 -118 260 -45 260 -230c0 -101 -77 -162 -191 -162c-64 0 -124 19 -173 48l22 71c48 -30 99 -51 153 -51c68 0 105 33 105 82c0 130 -260 58 -260 233c0 91 70 151 175 151c58 0 110 -18 153 -47z
M139 570h-66l123 150h68l123 -150h-66l-91 85z" />
    <glyph glyph-name="Scedilla" unicode="&#x15e;" horiz-adv-x="580" 
d="M396 -99c0 -59 -48 -90 -116 -90c-44 0 -72 13 -95 24l14 52c21 -12 45 -23 76 -23c34 0 53 13 53 38c0 28 -25 50 -74 61l8 25c-75 3 -148 28 -207 66l26 78c61 -40 128 -68 200 -68c96 0 155 50 155 128c0 194 -360 94 -360 337c0 125 94 203 230 203
c76 0 144 -25 199 -64l-26 -81c-53 40 -110 67 -177 67c-85 0 -138 -45 -138 -114c0 -181 360 -80 360 -336c0 -119 -79 -198 -200 -213c45 -16 72 -46 72 -90z" />
    <glyph glyph-name="scedilla" unicode="&#x15f;" horiz-adv-x="456" 
d="M333 -99c0 -59 -48 -90 -116 -90c-44 0 -72 13 -95 24l14 52c21 -12 45 -23 76 -23c34 0 53 13 53 38c0 28 -25 50 -74 61l8 26c-56 3 -109 21 -153 47l22 71c48 -30 99 -51 153 -51c68 0 105 33 105 82c0 130 -260 58 -260 233c0 91 70 151 175 151
c58 0 110 -18 153 -47l-22 -72c-39 28 -85 49 -132 49c-57 0 -90 -30 -90 -72c0 -118 260 -45 260 -230c0 -88 -59 -146 -150 -159c46 -16 73 -46 73 -90z" />
    <glyph glyph-name="Scaron" unicode="&#x160;" horiz-adv-x="580" 
d="M55 54l26 78c61 -40 128 -68 200 -68c96 0 155 50 155 128c0 194 -360 94 -360 337c0 125 94 203 230 203c76 0 144 -25 199 -64l-26 -81c-53 40 -110 67 -177 67c-85 0 -138 -45 -138 -114c0 -181 360 -80 360 -336c0 -133 -98 -216 -245 -216c-80 0 -160 25 -224 66z
M382 909h66l-123 -130h-68l-123 130h66l91 -67z" />
    <glyph glyph-name="scaron" unicode="&#x161;" horiz-adv-x="456" 
d="M394 475l-22 -72c-39 28 -85 49 -132 49c-57 0 -90 -30 -90 -72c0 -118 260 -45 260 -230c0 -101 -77 -162 -191 -162c-64 0 -124 19 -173 48l22 71c48 -30 99 -51 153 -51c68 0 105 33 105 82c0 130 -260 58 -260 233c0 91 70 151 175 151c58 0 110 -18 153 -47z
M321 720h66l-123 -150h-68l-123 150h66l91 -85z" />
    <glyph glyph-name="uni0162" unicode="&#x162;" horiz-adv-x="565" 
d="M239 0v642h-210v78h508v-78h-210v-642h-30c57 -15 92 -49 92 -99c0 -59 -48 -90 -116 -90c-44 0 -72 13 -95 24l14 52c21 -12 45 -23 76 -23c34 0 53 13 53 38c0 29 -26 52 -74 65l10 33h-18z" />
    <glyph glyph-name="uni0163" unicode="&#x163;" horiz-adv-x="375" 
d="M24 440v70h99v170h86v-170h127v-70h-127v-296c0 -62 11 -79 58 -79c28 0 50 6 69 12v-73c-24 -5 -54 -10 -83 -10c-13 0 -18 1 -26 1c47 -17 76 -49 76 -94c0 -59 -48 -90 -116 -90c-44 0 -72 13 -95 24l14 52c21 -12 45 -23 76 -23c34 0 53 13 53 38c0 29 -26 52 -74 65
l13 40c-37 17 -51 54 -51 126v307h-99z" />
    <glyph glyph-name="Tcaron" unicode="&#x164;" horiz-adv-x="565" 
d="M239 0v642h-210v78h508v-78h-210v-642h-88zM373 909h66l-123 -130h-68l-123 130h66l91 -67z" />
    <glyph glyph-name="tcaron" unicode="&#x165;" horiz-adv-x="375" 
d="M309 565h-57l30 155h81zM24 440v70h99v170h86v-170h127v-70h-127v-296c0 -62 11 -79 58 -79c28 0 50 6 69 12v-73c-24 -5 -52 -10 -88 -10c-92 0 -125 33 -125 139v307h-99z" />
    <glyph glyph-name="Tbar" unicode="&#x166;" horiz-adv-x="565" 
d="M93 342v65h146v235h-210v78h508v-78h-210v-235h146v-65h-146v-342h-88v342h-146z" />
    <glyph glyph-name="tbar" unicode="&#x167;" horiz-adv-x="375" 
d="M24 440v70h99v170h86v-170h127v-70h-127v-139h106v-65h-106v-92c0 -62 11 -79 58 -79c28 0 50 6 69 12v-73c-24 -5 -52 -10 -88 -10c-92 0 -125 33 -125 139v103h-78v65h78v139h-99z" />
    <glyph glyph-name="Utilde" unicode="&#x168;" horiz-adv-x="687" 
d="M84 254v466h88v-463c0 -135 51 -191 172 -191s173 56 173 191v463h86v-463c0 -185 -86 -269 -261 -269c-173 0 -258 83 -258 266zM241 779h-54c0 84 40 111 83 111c59 0 105 -51 144 -51c23 0 31 18 31 45h54c0 -84 -40 -111 -83 -111c-59 0 -105 51 -144 51
c-23 0 -31 -18 -31 -45z" />
    <glyph glyph-name="utilde" unicode="&#x169;" horiz-adv-x="568" 
d="M179 576h-54c0 85 40 113 83 113c59 0 105 -55 143 -55c19 0 32 13 32 49h54c0 -85 -40 -113 -83 -113c-59 0 -105 55 -143 55c-19 0 -32 -13 -32 -49zM492 510v-510h-86v76c-43 -45 -112 -88 -198 -88c-76 0 -138 34 -138 142v380h86v-362c0 -66 32 -87 80 -87
c66 0 123 39 170 82v367h86z" />
    <glyph glyph-name="Umacron" unicode="&#x16a;" horiz-adv-x="687" 
d="M84 254v466h88v-463c0 -135 51 -191 172 -191s173 56 173 191v463h86v-463c0 -185 -86 -269 -261 -269c-173 0 -258 83 -258 266zM196 785v65h294v-65h-294z" />
    <glyph glyph-name="umacron" unicode="&#x16b;" horiz-adv-x="568" 
d="M134 581v65h293v-65h-293zM492 510v-510h-86v76c-43 -45 -112 -88 -198 -88c-76 0 -138 34 -138 142v380h86v-362c0 -66 32 -87 80 -87c66 0 123 39 170 82v367h86z" />
    <glyph glyph-name="Ubreve" unicode="&#x16c;" horiz-adv-x="687" 
d="M82 254v466h88v-463c0 -135 51 -191 172 -191s173 56 173 191v463h86v-463c0 -185 -86 -269 -261 -269c-173 0 -258 83 -258 266zM343 779c-104 0 -150 49 -150 130h54c7 -44 28 -66 96 -66s89 22 96 66h54c0 -81 -46 -130 -150 -130z" />
    <glyph glyph-name="ubreve" unicode="&#x16d;" horiz-adv-x="568" 
d="M281 576c-104 0 -150 56 -150 144h53c8 -53 29 -79 97 -79s89 26 97 79h53c0 -88 -46 -144 -150 -144zM492 510v-510h-86v76c-43 -45 -112 -88 -198 -88c-76 0 -138 34 -138 142v380h86v-362c0 -66 32 -87 80 -87c66 0 123 39 170 82v367h86z" />
    <glyph glyph-name="Uring" unicode="&#x16e;" horiz-adv-x="687" 
d="M84 254v466h88v-463c0 -135 51 -191 172 -191s173 56 173 191v463h86v-463c0 -185 -86 -269 -261 -269c-173 0 -258 83 -258 266zM297 862c0 -25 17 -46 46 -46s46 21 46 46s-17 46 -46 46s-46 -21 -46 -46zM434 862c0 -50 -39 -89 -91 -89s-91 39 -91 89s39 89 91 89
s91 -39 91 -89z" />
    <glyph glyph-name="uring" unicode="&#x16f;" horiz-adv-x="568" 
d="M234 655c0 -25 18 -46 47 -46s47 21 47 46s-18 46 -47 46s-47 -21 -47 -46zM372 655c0 -50 -39 -89 -91 -89s-91 39 -91 89s39 89 91 89s91 -39 91 -89zM492 510v-510h-86v76c-43 -45 -112 -88 -198 -88c-76 0 -138 34 -138 142v380h86v-362c0 -66 32 -87 80 -87
c66 0 123 39 170 82v367h86z" />
    <glyph glyph-name="Uhungarumlaut" unicode="&#x170;" horiz-adv-x="687" 
d="M84 254v466h88v-463c0 -135 51 -191 172 -191s173 56 173 191v463h86v-463c0 -185 -86 -269 -261 -269c-173 0 -258 83 -258 266zM262 779h-69l95 130h102zM417 779h-68l107 130h102z" />
    <glyph glyph-name="uhungarumlaut" unicode="&#x171;" horiz-adv-x="568" 
d="M201 570h-68l95 150h101zM356 570h-68l107 150h101zM492 510v-510h-86v76c-43 -45 -112 -88 -198 -88c-76 0 -138 34 -138 142v380h86v-362c0 -66 32 -87 80 -87c66 0 123 39 170 82v367h86z" />
    <glyph glyph-name="Uogonek" unicode="&#x172;" horiz-adv-x="687" 
d="M84 254v466h88v-463c0 -136 51 -191 172 -191s173 55 173 191v463h86v-463c0 -155 -60 -238 -181 -262c-57 -31 -80 -62 -80 -94c0 -28 17 -37 44 -37c9 0 22 1 32 4l14 -50c-15 -5 -37 -7 -55 -7c-66 0 -103 28 -103 79c0 35 17 70 64 98c-172 3 -254 83 -254 266z" />
    <glyph glyph-name="uogonek" unicode="&#x173;" horiz-adv-x="568" 
d="M492 510v-510h-15c-64 -33 -90 -66 -90 -99c0 -28 17 -37 43 -37c9 0 22 1 33 4l14 -50c-16 -5 -38 -7 -56 -7c-65 0 -102 28 -102 78c0 41 24 82 87 111v76c-43 -45 -112 -88 -198 -88c-76 0 -138 34 -138 142v380h86v-362c0 -66 32 -87 80 -87c66 0 123 39 170 82v367
h86z" />
    <glyph glyph-name="Wcircumflex" unicode="&#x174;" horiz-adv-x="954" 
d="M643 0l-109 386c-38 133 -46 164 -56 221h-2c-10 -59 -34 -143 -56 -219l-112 -388h-85l-187 720h92l95 -378c33 -131 37 -149 49 -218h2c15 77 36 154 56 222l107 374h83l107 -378c19 -67 42 -151 55 -218h2c11 67 29 143 48 217l97 379h89l-190 -720h-85zM386 779h-66
l123 130h68l123 -130h-66l-91 65z" />
    <glyph glyph-name="wcircumflex" unicode="&#x175;" horiz-adv-x="749" 
d="M255 0h-83l-150 510h85l78 -269c18 -62 27 -99 34 -143h2c7 41 23 105 35 144l81 268h78l79 -267c10 -34 28 -98 36 -145h2c7 45 19 93 34 144l79 268h82l-154 -510h-82l-78 263c-20 67 -31 104 -38 150h-2c-6 -41 -21 -94 -38 -150zM283 570h-66l123 150h68l123 -150
h-66l-91 85z" />
    <glyph glyph-name="Ycircumflex" unicode="&#x176;" horiz-adv-x="611" 
d="M262 0v305l-239 415h95l189 -329l189 329h93l-239 -415v-305h-88zM214 779h-66l123 130h68l123 -130h-66l-91 65z" />
    <glyph glyph-name="ycircumflex" unicode="&#x177;" horiz-adv-x="505" 
d="M37 -212v74c15 -3 27 -6 47 -6c54 0 90 22 138 156h-27l-174 498h89l142 -425l146 425h86l-178 -498c-68 -191 -121 -228 -219 -228c-16 0 -37 1 -50 4zM161 570h-66l123 150h68l123 -150h-66l-91 85z" />
    <glyph glyph-name="Ydieresis" unicode="&#x178;" horiz-adv-x="611" 
d="M262 0v305l-239 415h95l189 -329l189 329h93l-239 -415v-305h-88zM259 827c0 -28 -20 -49 -49 -49s-49 21 -49 49s20 49 49 49s49 -21 49 -49zM449 827c0 -28 -20 -49 -49 -49s-49 21 -49 49s20 49 49 49s49 -21 49 -49z" />
    <glyph glyph-name="Zacute" unicode="&#x179;" horiz-adv-x="601" 
d="M39 0v65l396 577h-375v78h487v-66l-396 -577h401v-77h-513zM302 779h-69l95 130h102z" />
    <glyph glyph-name="zacute" unicode="&#x17a;" horiz-adv-x="484" 
d="M30 0v59l302 381h-284v70h392v-58l-302 -381h306v-71h-414zM244 570h-68l95 150h101z" />
    <glyph glyph-name="Zdotaccent" unicode="&#x17b;" horiz-adv-x="601" 
d="M39 0v65l396 577h-375v78h487v-66l-396 -577h401v-77h-513zM299 776c-32 0 -54 23 -54 53s22 53 54 53s54 -23 54 -53s-22 -53 -54 -53z" />
    <glyph glyph-name="zdotaccent" unicode="&#x17c;" horiz-adv-x="484" 
d="M30 0v59l302 381h-284v70h392v-58l-302 -381h306v-71h-414zM242 569c-32 0 -54 23 -54 53s22 53 54 53s54 -23 54 -53s-22 -53 -54 -53z" />
    <glyph glyph-name="Zcaron" unicode="&#x17d;" horiz-adv-x="601" 
d="M39 0v65l396 577h-375v78h487v-66l-396 -577h401v-77h-513zM390 909h66l-123 -130h-68l-123 130h66l91 -67z" />
    <glyph glyph-name="zcaron" unicode="&#x17e;" horiz-adv-x="484" 
d="M30 0v59l302 381h-284v70h392v-58l-302 -381h306v-71h-414zM333 720h66l-123 -150h-68l-123 150h66l91 -85z" />
    <glyph glyph-name="longs" unicode="&#x17f;" horiz-adv-x="344" 
d="M24 440v70h99v66c0 98 41 150 143 150c20 0 38 -2 58 -6v-70c-17 5 -31 6 -42 6c-59 0 -73 -27 -73 -80v-576h-86v440h-99z" />
    <glyph glyph-name="uni018F" unicode="&#x18f;" horiz-adv-x="697" 
d="M343 64c115 0 202 81 210 265h-410c8 -181 82 -265 200 -265zM326 654c-75 0 -147 -28 -208 -71l-27 75c62 43 152 74 243 74c183 0 308 -127 308 -370c0 -244 -127 -374 -301 -374c-171 0 -286 125 -286 368c0 23 1 30 1 44h496c-12 174 -98 254 -226 254z" />
    <glyph glyph-name="florin" unicode="&#x192;" horiz-adv-x="458" 
d="M378 663c-66 0 -88 -35 -95 -99l-18 -165h170v-64h-176l-35 -335h-85l35 335h-147v64h153l18 165c12 116 59 168 178 168c17 0 40 -1 59 -4v-71c-24 4 -41 6 -57 6z" />
    <glyph glyph-name="uni01B5" unicode="&#x1b5;" horiz-adv-x="601" 
d="M110 342v65h163l162 235h-375v78h487v-66l-170 -247h117v-65h-161l-182 -265h401v-77h-513v65l190 277h-119z" />
    <glyph glyph-name="uni01B6" unicode="&#x1b6;" horiz-adv-x="484" 
d="M84 237v65h138l110 138h-284v70h392v-58l-119 -150h80v-65h-132l-131 -166h306v-71h-414v59l141 178h-87z" />
    <glyph glyph-name="Aringacute" unicode="&#x1fa;" horiz-adv-x="677" 
d="M433 753c0 -27 -11 -50 -30 -66l241 -687h-92l-66 195h-298l-66 -195h-90l245 687c-19 16 -30 39 -30 66c0 50 39 89 93 89s93 -39 93 -89zM338 631l-125 -364h248zM292 753c0 -25 17 -46 48 -46s48 21 48 46s-17 46 -48 46s-48 -21 -48 -46zM341 857h-69l95 91h102z" />
    <glyph glyph-name="aringacute" unicode="&#x1fb;" horiz-adv-x="522" 
d="M264 451c-59 0 -113 -21 -167 -52l-22 68c55 30 125 55 205 55c107 0 172 -45 172 -172v-234c0 -78 5 -103 10 -116h-81c-5 9 -10 25 -12 64c-44 -47 -103 -76 -169 -76c-89 0 -154 53 -154 155c0 109 74 171 239 171c21 0 47 -1 83 -6v35c0 79 -35 108 -104 108zM223 56
c55 0 106 32 145 70v122c-41 6 -58 7 -78 7c-118 0 -160 -35 -160 -103c0 -64 37 -96 93 -96zM222 627c0 -25 18 -46 47 -46s47 21 47 46s-18 46 -47 46s-47 -21 -47 -46zM360 627c0 -50 -39 -89 -91 -89s-91 39 -91 89s39 89 91 89s91 -39 91 -89zM271 733h-68l95 105h101z
" />
    <glyph glyph-name="AEacute" unicode="&#x1fc;" horiz-adv-x="935" 
d="M25 0l398 720h460v-78h-326v-232h283v-75h-283v-259h329v-76h-416v194h-247l-103 -194h-95zM262 267h208v386zM651 779h-69l95 130h102z" />
    <glyph glyph-name="aeacute" unicode="&#x1fd;" horiz-adv-x="857" 
d="M805 236h-352c6 -126 69 -180 161 -180c53 0 103 18 157 49l22 -65c-54 -33 -124 -52 -190 -52c-87 0 -157 33 -198 98c-50 -53 -122 -98 -203 -98c-87 0 -156 53 -156 157c0 106 73 169 239 169c21 0 47 -1 83 -6v35c0 79 -35 108 -104 108c-59 0 -113 -21 -167 -52
l-22 68c55 30 125 55 205 55c72 0 125 -21 152 -73c42 48 103 73 170 73c123 0 205 -83 205 -244c0 -18 0 -27 -2 -42zM223 56c58 0 112 36 158 84c-10 31 -15 67 -15 108c-40 6 -57 7 -77 7c-117 0 -159 -36 -159 -103c0 -64 38 -96 93 -96zM599 456
c-80 0 -135 -57 -146 -159h272c-1 112 -54 159 -126 159zM458 570h-68l95 150h101z" />
    <glyph glyph-name="Oslashacute" unicode="&#x1fe;" horiz-adv-x="717" 
d="M575 359c0 72 -11 133 -31 178l-341 -405c38 -47 91 -70 155 -70c129 0 217 93 217 297zM141 359c0 -72 11 -131 31 -176l341 405c-38 46 -92 68 -155 68c-129 0 -217 -93 -217 -297zM661 362c0 -244 -130 -374 -305 -374c-81 0 -152 28 -205 83l-70 -83l-42 38l76 90
c-38 60 -60 141 -60 242c0 244 130 374 305 374c81 0 152 -28 205 -83l70 83l42 -38l-77 -91c39 -60 61 -141 61 -241zM361 779h-69l95 130h102z" />
    <glyph glyph-name="oslashacute" unicode="&#x1ff;" horiz-adv-x="555" 
d="M425 254c0 46 -7 83 -19 113l-233 -269c26 -32 63 -46 104 -46c82 0 148 58 148 202zM129 253c0 -44 6 -82 18 -111l233 269c-27 31 -63 45 -103 45c-82 0 -148 -57 -148 -203zM508 256c0 -183 -106 -268 -233 -268c-57 0 -110 17 -151 54l-58 -67l-37 32l63 72
c-29 42 -46 100 -46 174c0 184 106 269 232 269c58 0 111 -18 151 -54l59 67l37 -32l-63 -73c28 -42 46 -99 46 -174zM279 570h-68l95 150h101z" />
    <glyph glyph-name="uni0218" unicode="&#x218;" horiz-adv-x="580" 
d="M55 54l26 78c61 -40 128 -68 200 -68c96 0 155 50 155 128c0 194 -360 94 -360 337c0 125 94 203 230 203c76 0 144 -25 199 -64l-26 -81c-53 40 -110 67 -177 67c-85 0 -138 -45 -138 -114c0 -181 360 -80 360 -336c0 -133 -98 -216 -245 -216c-80 0 -160 25 -224 66z
M219 -180c34 19 52 39 61 57c-29 1 -47 19 -47 45c0 28 22 46 50 46c32 0 58 -22 58 -66c0 -35 -17 -84 -91 -121z" />
    <glyph glyph-name="uni0219" unicode="&#x219;" horiz-adv-x="456" 
d="M394 475l-22 -72c-39 28 -85 49 -132 49c-57 0 -90 -30 -90 -72c0 -118 260 -45 260 -230c0 -101 -77 -162 -191 -162c-64 0 -124 19 -173 48l22 71c48 -30 99 -51 153 -51c68 0 105 33 105 82c0 130 -260 58 -260 233c0 91 70 151 175 151c58 0 110 -18 153 -47z
M158 -180c34 19 52 39 61 57c-29 1 -47 19 -47 45c0 28 22 46 50 46c32 0 58 -22 58 -66c0 -35 -17 -84 -91 -121z" />
    <glyph glyph-name="uni021A" unicode="&#x21a;" horiz-adv-x="565" 
d="M239 0v642h-210v78h508v-78h-210v-642h-88zM211 -180c34 19 52 39 61 57c-29 1 -47 19 -47 45c0 28 22 46 50 46c32 0 58 -22 58 -66c0 -35 -17 -84 -91 -121z" />
    <glyph glyph-name="uni021B" unicode="&#x21b;" horiz-adv-x="375" 
d="M135 -180c34 19 52 39 61 57c-29 1 -47 19 -47 45c0 28 22 46 50 46c32 0 58 -22 58 -66c0 -35 -17 -84 -91 -121zM24 440v70h99v170h86v-170h127v-70h-127v-296c0 -62 11 -79 58 -79c28 0 50 6 69 12v-73c-24 -5 -52 -10 -88 -10c-92 0 -125 33 -125 139v307h-99z" />
    <glyph glyph-name="uni0237" unicode="&#x237;" horiz-adv-x="250" 
d="M168 510v-576c0 -98 -41 -150 -142 -150c-20 0 -39 2 -59 6v70c17 -5 31 -6 42 -6c58 0 73 27 73 80v576h86z" />
    <glyph glyph-name="uni0259" unicode="&#x259;" horiz-adv-x="537" 
d="M263 52c83 0 137 57 142 177h-273c3 -135 60 -177 131 -177zM52 290h351c-10 111 -69 161 -155 161c-51 0 -99 -18 -150 -50l-22 69c51 31 116 52 184 52c139 0 231 -89 231 -264c0 -183 -100 -270 -229 -270c-120 0 -212 77 -212 259c0 19 1 31 2 43z" />
    <glyph glyph-name="uni02BB" unicode="&#x2bb;" horiz-adv-x="265" 
d="M180 732l44 -38c-66 -39 -92 -83 -101 -121c37 0 61 -24 61 -56c0 -31 -22 -55 -57 -55c-39 0 -68 31 -68 86c0 54 28 125 121 184z" />
    <glyph glyph-name="uni02BC" unicode="&#x2bc;" horiz-adv-x="265" 
d="M85 462l-44 38c66 39 92 83 101 121c-37 0 -61 24 -61 56c0 31 22 55 57 55c39 0 68 -31 68 -86c0 -54 -28 -125 -121 -184z" />
    <glyph glyph-name="circumflex" unicode="&#x2c6;" horiz-adv-x="500" 
d="M159 570h-66l123 150h68l123 -150h-66l-91 85z" />
    <glyph glyph-name="caron" unicode="&#x2c7;" horiz-adv-x="500" 
d="M341 720h66l-123 -150h-68l-123 150h66l91 -85z" />
    <glyph glyph-name="breve" unicode="&#x2d8;" horiz-adv-x="500" 
d="M250 576c-104 0 -150 56 -150 144h53c8 -53 29 -79 97 -79s89 26 97 79h53c0 -88 -46 -144 -150 -144z" />
    <glyph glyph-name="dotaccent" unicode="&#x2d9;" horiz-adv-x="500" 
d="M250 569c-32 0 -54 23 -54 53s22 53 54 53s54 -23 54 -53s-22 -53 -54 -53z" />
    <glyph glyph-name="ring" unicode="&#x2da;" horiz-adv-x="500" 
d="M203 655c0 -25 18 -46 47 -46s47 21 47 46s-18 46 -47 46s-47 -21 -47 -46zM341 655c0 -50 -39 -89 -91 -89s-91 39 -91 89s39 89 91 89s91 -39 91 -89z" />
    <glyph glyph-name="ogonek" unicode="&#x2db;" horiz-adv-x="500" 
d="M258 0h71c-64 -33 -90 -66 -90 -99c0 -28 17 -37 43 -37c9 0 22 1 33 4l14 -50c-16 -5 -38 -7 -56 -7c-65 0 -102 28 -102 78c0 41 24 82 87 111z" />
    <glyph glyph-name="tilde" unicode="&#x2dc;" horiz-adv-x="500" 
d="M148 576h-54c0 85 40 113 83 113c59 0 105 -55 143 -55c19 0 32 13 32 49h54c0 -85 -40 -113 -83 -113c-59 0 -105 55 -143 55c-19 0 -32 -13 -32 -49z" />
    <glyph glyph-name="hungarumlaut" unicode="&#x2dd;" horiz-adv-x="500" 
d="M169 570h-68l95 150h101zM324 570h-68l107 150h101z" />
    <glyph glyph-name="gravecomb" unicode="&#x300;" horiz-adv-x="1" 
d="M-213 570h-68l-128 150h101z" />
    <glyph glyph-name="acutecomb" unicode="&#x301;" horiz-adv-x="1" 
d="M-276 570h-68l95 150h101z" />
    <glyph glyph-name="uni0302" unicode="&#x302;" horiz-adv-x="1" 
d="M-369 570h-66l123 150h68l123 -150h-66l-91 85z" />
    <glyph glyph-name="tildecomb" unicode="&#x303;" horiz-adv-x="1" 
d="M-380 576h-54c0 85 40 113 83 113c59 0 105 -55 143 -55c19 0 32 13 32 49h54c0 -85 -40 -113 -83 -113c-59 0 -105 55 -143 55c-19 0 -32 -13 -32 -49z" />
    <glyph glyph-name="uni0304" unicode="&#x304;" horiz-adv-x="1" 
d="M-425 581v65h293v-65h-293z" />
    <glyph glyph-name="uni0306" unicode="&#x306;" horiz-adv-x="1" 
d="M-278 576c-104 0 -150 56 -150 144h53c8 -53 29 -79 97 -79s89 26 97 79h53c0 -88 -46 -144 -150 -144z" />
    <glyph glyph-name="uni0307" unicode="&#x307;" horiz-adv-x="1" 
d="M-278 569c-32 0 -54 23 -54 53s22 53 54 53s54 -23 54 -53s-22 -53 -54 -53z" />
    <glyph glyph-name="uni0308" unicode="&#x308;" horiz-adv-x="1" 
d="M-324 623c0 -28 -20 -49 -49 -49s-49 21 -49 49s20 49 49 49s49 -21 49 -49zM-134 623c0 -28 -20 -49 -49 -49s-49 21 -49 49s20 49 49 49s49 -21 49 -49z" />
    <glyph glyph-name="uni030A" unicode="&#x30a;" horiz-adv-x="1" 
d="M-325 655c0 -25 18 -46 47 -46s47 21 47 46s-18 46 -47 46s-47 -21 -47 -46zM-187 655c0 -50 -39 -89 -91 -89s-91 39 -91 89s39 89 91 89s91 -39 91 -89z" />
    <glyph glyph-name="uni030B" unicode="&#x30b;" horiz-adv-x="1" 
d="M-359 570h-68l95 150h101zM-204 570h-68l107 150h101z" />
    <glyph glyph-name="uni030C" unicode="&#x30c;" horiz-adv-x="1" 
d="M-187 720h66l-123 -150h-68l-123 150h66l91 -85z" />
    <glyph glyph-name="uni0312" unicode="&#x312;" horiz-adv-x="1" 
d="M-237 753l31 -39c-34 -19 -52 -39 -61 -57c29 -1 47 -19 47 -45c0 -28 -22 -46 -50 -46c-32 0 -58 22 -58 66c0 35 17 84 91 121z" />
    <glyph glyph-name="uni0313" unicode="&#x313;" horiz-adv-x="1" 
d="M-343 572c34 19 52 39 61 57c-29 1 -47 19 -47 45c0 28 22 46 50 46c32 0 58 -22 58 -66c0 -35 -17 -84 -91 -121z" />
    <glyph glyph-name="uni0326" unicode="&#x326;" horiz-adv-x="1" 
d="M-343 -180c34 19 52 39 61 57c-29 1 -47 19 -47 45c0 28 22 46 50 46c32 0 58 -22 58 -66c0 -35 -17 -84 -91 -121z" />
    <glyph glyph-name="uni0327" unicode="&#x327;" horiz-adv-x="1" 
d="M-173 -99c0 -59 -48 -90 -116 -90c-44 0 -72 13 -95 24l14 52c21 -12 45 -23 76 -23c34 0 53 13 53 38c0 28 -25 50 -74 61l13 40c79 -8 129 -42 129 -102z" />
    <glyph glyph-name="uni0328" unicode="&#x328;" horiz-adv-x="1" 
d="M-270 0h71c-64 -33 -90 -66 -90 -99c0 -28 17 -37 43 -37c9 0 22 1 33 4l14 -50c-16 -5 -38 -7 -56 -7c-65 0 -102 28 -102 78c0 41 24 82 87 111z" />
    <glyph glyph-name="uni0335" unicode="&#x335;" horiz-adv-x="1" 
d="M-468 274v75h380v-75h-380z" />
    <glyph glyph-name="uni0336" unicode="&#x336;" horiz-adv-x="1" 
d="M-968 274v75h880v-75h-880z" />
    <glyph glyph-name="uni037E" unicode="&#x37e;" horiz-adv-x="283" 
d="M85 -166l-44 38c66 39 92 83 101 121c-37 0 -61 24 -61 56c0 31 22 55 57 55c39 0 68 -31 68 -86c0 -54 -28 -125 -121 -184zM197 434c0 -33 -23 -58 -58 -58c-34 0 -58 25 -58 58s24 58 58 58c35 0 58 -25 58 -58z" />
    <glyph glyph-name="tonos" unicode="&#x384;" horiz-adv-x="500" 
d="M266 570h-64l55 150h97z" />
    <glyph glyph-name="dieresistonos" unicode="&#x385;" horiz-adv-x="500" 
d="M282 676h-65l37 110h92zM204 617c0 -28 -20 -49 -49 -49s-49 21 -49 49s20 49 49 49s49 -21 49 -49zM394 617c0 -28 -20 -49 -49 -49s-49 21 -49 49s20 49 49 49s49 -21 49 -49z" />
    <glyph glyph-name="Alphatonos" unicode="&#x386;" horiz-adv-x="677" 
d="M96 570h-64l55 150h97zM392 720l252 -720h-92l-66 195h-298l-66 -195h-90l257 720h103zM338 631l-125 -364h248z" />
    <glyph glyph-name="anoteleia" unicode="&#x387;" horiz-adv-x="283" 
d="M198 258c0 -33 -23 -58 -58 -58c-34 0 -58 25 -58 58s24 58 58 58c35 0 58 -25 58 -58z" />
    <glyph glyph-name="Epsilontonos" unicode="&#x388;" horiz-adv-x="686" 
d="M51 570h-64l55 150h97zM189 0v720h444v-78h-356v-232h313v-75h-313v-258h359v-77h-447z" />
    <glyph glyph-name="Etatonos" unicode="&#x389;" horiz-adv-x="804" 
d="M51 570h-64l55 150h97zM189 0v720h88v-308h346v308h88v-720h-88v335h-346v-335h-88z" />
    <glyph glyph-name="Iotatonos" unicode="&#x38a;" horiz-adv-x="386" 
d="M196 0v720h88v-720h-88zM51 570h-64l55 150h97z" />
    <glyph glyph-name="Omicrontonos" unicode="&#x38c;" horiz-adv-x="802" 
d="M51 570h-64l55 150h97zM746 362c0 -244 -130 -374 -305 -374c-173 0 -301 128 -301 370c0 244 130 374 305 374c173 0 301 -128 301 -370zM658 359c0 203 -87 295 -215 295s-215 -92 -215 -295s87 -295 215 -295s215 92 215 295z" />
    <glyph glyph-name="Upsilontonos" unicode="&#x38e;" horiz-adv-x="737" 
d="M51 570h-64l55 150h97zM388 0v305l-239 415h95l189 -329l189 329h93l-239 -415v-305h-88z" />
    <glyph glyph-name="Omegatonos" unicode="&#x38f;" horiz-adv-x="804" 
d="M51 570h-64l55 150h97zM445 655c-128 0 -215 -92 -215 -267c0 -137 53 -235 156 -323v-65h-274v77h176c-97 80 -146 185 -146 314c0 210 129 341 305 341c174 0 301 -129 301 -337c0 -131 -51 -240 -146 -318h176v-77h-274v65c103 88 156 186 156 323
c0 175 -87 267 -215 267z" />
    <glyph glyph-name="iotadieresistonos" unicode="&#x390;" horiz-adv-x="283" 
d="M77 114v396h86v-382c0 -52 17 -65 52 -65c17 0 35 3 49 6v-69c-17 -4 -44 -6 -64 -6c-81 0 -123 31 -123 120zM153 676h-65l37 110h92zM75 617c0 -28 -20 -49 -49 -49s-49 21 -49 49s20 49 49 49s49 -21 49 -49zM265 617c0 -28 -20 -49 -49 -49s-49 21 -49 49
s20 49 49 49s49 -21 49 -49z" />
    <glyph glyph-name="Alpha" unicode="&#x391;" horiz-adv-x="677" 
d="M392 720l252 -720h-92l-66 195h-298l-66 -195h-90l257 720h103zM338 631l-125 -364h248z" />
    <glyph glyph-name="Beta" unicode="&#x392;" horiz-adv-x="648" 
d="M92 0v720h231c149 0 236 -61 236 -188c0 -81 -36 -134 -109 -161c96 -25 139 -89 139 -177c0 -121 -80 -194 -251 -194h-246zM179 72h159c111 0 165 40 165 130s-54 129 -165 129h-159v-259zM179 401h138c104 0 156 38 156 123s-52 122 -156 122h-138v-245z" />
    <glyph glyph-name="Gamma" unicode="&#x393;" horiz-adv-x="532" 
d="M92 0v720h411v-78h-323v-642h-88z" />
    <glyph glyph-name="uni0394" unicode="&#x394;" horiz-adv-x="677" 
d="M392 720l229 -655v-65h-566v65l234 655h103zM338 631l-190 -554h378z" />
    <glyph glyph-name="Epsilon" unicode="&#x395;" horiz-adv-x="588" 
d="M92 0v720h444v-78h-356v-232h313v-75h-313v-258h359v-77h-447z" />
    <glyph glyph-name="Zeta" unicode="&#x396;" horiz-adv-x="601" 
d="M39 0v65l396 577h-375v78h487v-66l-396 -577h401v-77h-513z" />
    <glyph glyph-name="Eta" unicode="&#x397;" horiz-adv-x="706" 
d="M92 0v720h88v-308h346v308h88v-720h-88v335h-346v-335h-88z" />
    <glyph glyph-name="Theta" unicode="&#x398;" horiz-adv-x="717" 
d="M358 64c121 0 209 82 217 264h-434c8 -182 96 -264 217 -264zM358 654c-120 0 -204 -79 -216 -251h432c-12 172 -96 251 -216 251zM661 362c0 -244 -130 -374 -305 -374c-173 0 -301 128 -301 370c0 244 130 374 305 374c173 0 301 -128 301 -370z" />
    <glyph glyph-name="Iota" unicode="&#x399;" horiz-adv-x="288" 
d="M100 0v720h88v-720h-88z" />
    <glyph glyph-name="Kappa" unicode="&#x39a;" horiz-adv-x="650" 
d="M92 0v720h88v-348l318 348h108l-251 -264l274 -456h-98l-235 394l-116 -123v-271h-88z" />
    <glyph glyph-name="Lambda" unicode="&#x39b;" horiz-adv-x="650" 
d="M372 720l245 -720h-90l-203 606l-204 -606h-88l250 720h90z" />
    <glyph glyph-name="Mu" unicode="&#x39c;" horiz-adv-x="917" 
d="M250 720l153 -441c28 -81 42 -124 54 -176h2c14 53 32 109 57 178l156 439h113l56 -720h-89l-27 425c-4 61 -9 156 -9 195h-2c-7 -31 -39 -133 -58 -184l-159 -436h-81l-157 437c-19 53 -50 144 -59 183h-2c0 -39 -4 -138 -8 -199l-28 -421h-86l60 720h114z" />
    <glyph glyph-name="Nu" unicode="&#x39d;" horiz-adv-x="713" 
d="M92 0v720h97l349 -547v547h82v-720h-72l-374 587v-587h-82z" />
    <glyph glyph-name="Xi" unicode="&#x39e;" horiz-adv-x="523" 
d="M36 642v78h451v-78h-451zM33 0v78h457v-78h-457zM79 336v77h365v-77h-365z" />
    <glyph glyph-name="Omicron" unicode="&#x39f;" horiz-adv-x="715" 
d="M661 362c0 -244 -130 -374 -305 -374c-173 0 -301 128 -301 370c0 244 130 374 305 374c173 0 301 -128 301 -370zM573 359c0 203 -87 295 -215 295s-215 -92 -215 -295s87 -295 215 -295s215 92 215 295z" />
    <glyph glyph-name="Pi" unicode="&#x3a0;" horiz-adv-x="706" 
d="M92 0v720h522v-720h-88v642h-346v-642h-88z" />
    <glyph glyph-name="Rho" unicode="&#x3a1;" horiz-adv-x="622" 
d="M92 0v720h247c153 0 244 -70 244 -211s-93 -211 -250 -211h-154v-298h-87zM179 642v-269h154c109 0 163 41 163 135c0 93 -54 134 -163 134h-154z" />
    <glyph glyph-name="Sigma" unicode="&#x3a3;" horiz-adv-x="561" 
d="M46 0v65l245 298l-224 291v66h462v-78h-346l214 -277l-238 -288h373v-77h-486z" />
    <glyph glyph-name="Tau" unicode="&#x3a4;" horiz-adv-x="565" 
d="M239 0v642h-210v78h508v-78h-210v-642h-88z" />
    <glyph glyph-name="Upsilon" unicode="&#x3a5;" horiz-adv-x="611" 
d="M262 0v305l-239 415h95l189 -329l189 329h93l-239 -415v-305h-88z" />
    <glyph glyph-name="Phi" unicode="&#x3a6;" horiz-adv-x="798" 
d="M356 -12v83c-177 13 -301 111 -301 287s124 276 301 290v84h86v-84c177 -13 301 -110 301 -286c0 -177 -124 -277 -301 -291v-83h-86zM141 359c0 -138 86 -208 215 -220v440c-129 -13 -215 -82 -215 -220zM657 359c0 138 -87 207 -215 220v-440c128 12 215 82 215 220z
" />
    <glyph glyph-name="Chi" unicode="&#x3a7;" horiz-adv-x="636" 
d="M33 0l230 371l-216 349h98l174 -287l174 287h95l-216 -349l230 -371h-99l-187 309l-187 -309h-96z" />
    <glyph glyph-name="Psi" unicode="&#x3a8;" horiz-adv-x="784" 
d="M349 0v248c-199 11 -294 99 -294 278v194h86v-191c0 -135 64 -199 208 -208v399h86v-399c145 11 210 72 210 208v191h84v-191c0 -181 -95 -270 -294 -281v-248h-86z" />
    <glyph glyph-name="uni03A9" unicode="&#x3a9;" horiz-adv-x="717" 
d="M358 655c-128 0 -215 -92 -215 -267c0 -137 53 -235 156 -323v-65h-274v77h176c-97 80 -146 185 -146 314c0 210 129 341 305 341c174 0 301 -129 301 -337c0 -131 -51 -240 -146 -318h176v-77h-274v65c103 88 156 186 156 323c0 175 -87 267 -215 267z" />
    <glyph glyph-name="Iotadieresis" unicode="&#x3aa;" horiz-adv-x="288" 
d="M100 0v720h88v-720h-88zM99 827c0 -28 -20 -49 -49 -49s-49 21 -49 49s20 49 49 49s49 -21 49 -49zM289 827c0 -28 -20 -49 -49 -49s-49 21 -49 49s20 49 49 49s49 -21 49 -49z" />
    <glyph glyph-name="Upsilondieresis" unicode="&#x3ab;" horiz-adv-x="611" 
d="M262 0v305l-239 415h95l189 -329l189 329h93l-239 -415v-305h-88zM259 827c0 -28 -20 -49 -49 -49s-49 21 -49 49s20 49 49 49s49 -21 49 -49zM449 827c0 -28 -20 -49 -49 -49s-49 21 -49 49s20 49 49 49s49 -21 49 -49z" />
    <glyph glyph-name="alphatonos" unicode="&#x3ac;" horiz-adv-x="663" 
d="M534 510h84c-44 -101 -82 -181 -116 -248l113 -262h-88l-72 178c-83 -150 -141 -190 -218 -190c-114 0 -191 87 -191 248c0 182 99 286 218 286c77 0 130 -44 197 -181zM246 58c51 0 96 39 176 199c-67 151 -102 191 -158 191c-78 0 -132 -80 -132 -207
c0 -115 45 -183 114 -183zM312 570h-64l55 150h97z" />
    <glyph glyph-name="epsilontonos" unicode="&#x3ad;" horiz-adv-x="464" 
d="M424 476l-22 -72c-43 27 -91 48 -145 48c-67 0 -109 -32 -109 -79s43 -79 108 -79h81v-66h-73c-75 0 -132 -26 -132 -86c0 -59 54 -86 123 -86c59 0 104 20 151 48l22 -66c-48 -28 -110 -50 -185 -50c-107 0 -197 45 -197 140c0 60 36 108 107 130c-61 21 -91 60 -91 115
c0 87 75 149 195 149c66 0 122 -19 167 -46zM261 570h-64l55 150h97z" />
    <glyph glyph-name="etatonos" unicode="&#x3ae;" horiz-adv-x="568" 
d="M76 0v510h86v-76c43 45 112 88 198 88c76 0 138 -34 138 -142v-590h-86v570c0 66 -32 87 -80 87c-66 0 -123 -39 -170 -82v-365h-86zM303 570h-64l55 150h97z" />
    <glyph glyph-name="iotatonos" unicode="&#x3af;" horiz-adv-x="283" 
d="M77 114v396h86v-382c0 -52 17 -65 52 -65c17 0 35 3 49 6v-69c-17 -4 -44 -6 -64 -6c-81 0 -123 31 -123 120zM137 570h-64l55 150h97z" />
    <glyph glyph-name="upsilondieresistonos" unicode="&#x3b0;" horiz-adv-x="560" 
d="M366 510h89c38 -72 51 -161 51 -237c0 -208 -97 -285 -230 -285c-120 0 -204 63 -204 211v311h86v-311c0 -100 50 -141 119 -141c80 0 143 55 143 217c0 79 -15 166 -54 235zM306 676h-65l37 110h92zM228 617c0 -28 -20 -49 -49 -49s-49 21 -49 49s20 49 49 49
s49 -21 49 -49zM418 617c0 -28 -20 -49 -49 -49s-49 21 -49 49s20 49 49 49s49 -21 49 -49z" />
    <glyph glyph-name="alpha" unicode="&#x3b1;" horiz-adv-x="663" 
d="M534 510h84c-44 -101 -82 -181 -116 -248l113 -262h-88l-72 178c-83 -150 -141 -190 -218 -190c-114 0 -191 87 -191 248c0 182 99 286 218 286c77 0 130 -44 197 -181zM246 58c51 0 96 39 176 199c-67 151 -102 191 -158 191c-78 0 -132 -80 -132 -207
c0 -115 45 -183 114 -183z" />
    <glyph glyph-name="beta" unicode="&#x3b2;" horiz-adv-x="584" 
d="M162 47v-257h-86v718c0 153 95 224 216 224c112 0 198 -60 198 -179c0 -85 -44 -133 -113 -161c103 -31 161 -102 161 -206c0 -129 -90 -198 -210 -198c-64 0 -119 20 -166 59zM251 354v70c88 0 156 34 156 125c0 78 -51 113 -116 113c-71 0 -129 -42 -129 -146v-396
c48 -41 100 -61 156 -61c80 0 134 42 134 132c0 110 -82 163 -201 163z" />
    <glyph glyph-name="gamma" unicode="&#x3b3;" horiz-adv-x="499" 
d="M387 474c0 13 0 23 -3 36h86c1 -11 2 -17 2 -32c0 -170 -135 -412 -176 -478v-211h-86v125c0 189 -118 480 -189 596h90c70 -115 133 -292 149 -415c40 70 127 225 127 379z" />
    <glyph glyph-name="delta" unicode="&#x3b4;" horiz-adv-x="563" 
d="M474 674l-22 -72c-51 35 -103 61 -158 61c-52 0 -84 -23 -84 -55c0 -101 306 -148 306 -398c0 -141 -98 -222 -235 -222c-135 0 -235 78 -235 220c0 144 103 211 195 245c-59 42 -114 87 -114 153c0 75 70 126 168 126c66 0 128 -23 179 -58zM433 208
c0 95 -58 145 -133 202c-68 -25 -168 -74 -168 -202c0 -101 63 -152 149 -152s152 51 152 152z" />
    <glyph glyph-name="epsilon" unicode="&#x3b5;" horiz-adv-x="464" 
d="M424 476l-22 -72c-43 27 -91 48 -145 48c-67 0 -109 -32 -109 -79s43 -79 108 -79h81v-66h-73c-75 0 -132 -26 -132 -86c0 -59 54 -86 123 -86c59 0 104 20 151 48l22 -66c-48 -28 -110 -50 -185 -50c-107 0 -197 45 -197 140c0 60 36 108 107 130c-61 21 -91 60 -91 115
c0 87 75 149 195 149c66 0 122 -19 167 -46z" />
    <glyph glyph-name="zeta" unicode="&#x3b6;" horiz-adv-x="456" 
d="M64 650v70h344v-58c-145 -149 -276 -320 -276 -458c0 -206 293 -76 293 -246c0 -47 -22 -85 -46 -120l-60 25c19 27 34 52 34 76c0 109 -307 7 -307 253c0 146 108 294 263 460c-47 -3 -78 -2 -105 -2h-140z" />
    <glyph glyph-name="eta" unicode="&#x3b7;" horiz-adv-x="568" 
d="M76 0v510h86v-76c43 45 112 88 198 88c76 0 138 -34 138 -142v-590h-86v570c0 66 -32 87 -80 87c-66 0 -123 -39 -170 -82v-365h-86z" />
    <glyph glyph-name="theta" unicode="&#x3b8;" horiz-adv-x="547" 
d="M273 55c83 0 139 82 143 284h-286c3 -202 59 -284 143 -284zM273 663c-79 0 -134 -75 -142 -254h284c-9 179 -63 254 -142 254zM500 362c0 -256 -96 -374 -229 -374c-131 0 -225 116 -225 370c0 256 96 374 229 374c131 0 225 -116 225 -370z" />
    <glyph glyph-name="iota" unicode="&#x3b9;" horiz-adv-x="283" 
d="M77 114v396h86v-382c0 -52 17 -65 52 -65c17 0 35 3 49 6v-69c-17 -4 -44 -6 -64 -6c-81 0 -123 31 -123 120z" />
    <glyph glyph-name="kappa" unicode="&#x3ba;" horiz-adv-x="531" 
d="M412 0l-173 270l-77 -81v-189h-86v510h86v-229c166 197 202 235 318 235v-69c-64 0 -93 -22 -187 -120l211 -327h-92z" />
    <glyph glyph-name="lambda" unicode="&#x3bb;" horiz-adv-x="523" 
d="M523 68v-68c-9 -3 -27 -6 -47 -6c-59 0 -85 24 -109 96l-110 324l-163 -414h-86l199 486h24l-37 118c-13 40 -32 54 -66 54c-16 0 -29 -3 -41 -6v69c11 3 34 7 59 7c66 0 99 -27 124 -100l174 -513c14 -41 28 -51 51 -51c10 0 20 2 28 4z" />
    <glyph glyph-name="uni03BC" unicode="&#x3bc;" horiz-adv-x="575" 
d="M162 510v-362c0 -66 32 -87 80 -87c66 0 123 39 170 82v367h86v-510h-86v76c-45 -48 -119 -88 -193 -88c-26 0 -50 5 -68 13c8 -81 9 -143 9 -211h-84v720h86z" />
    <glyph glyph-name="nu" unicode="&#x3bd;" horiz-adv-x="505" 
d="M208 0l-187 510h89l149 -417c40 67 128 228 128 381c0 13 0 23 -3 36h86c1 -13 2 -23 2 -38c0 -171 -134 -408 -176 -472h-88z" />
    <glyph glyph-name="xi" unicode="&#x3be;" horiz-adv-x="456" 
d="M379 -162l-60 25c19 27 34 52 34 77c0 112 -307 6 -307 243c0 98 52 157 148 189c-81 25 -126 76 -126 150c0 127 134 198 314 198v-70c-140 0 -229 -41 -229 -129c0 -74 63 -111 165 -111h48v-70h-26c-137 0 -208 -49 -208 -144c0 -194 293 -67 293 -238
c0 -49 -24 -88 -46 -120z" />
    <glyph glyph-name="omicron" unicode="&#x3bf;" horiz-adv-x="555" 
d="M508 257c0 -184 -106 -269 -233 -269c-125 0 -229 83 -229 265c0 184 106 269 233 269c125 0 229 -83 229 -265zM422 254c0 142 -65 199 -145 199s-145 -57 -145 -199s65 -199 145 -199s145 57 145 199z" />
    <glyph glyph-name="pi" unicode="&#x3c0;" horiz-adv-x="632" 
d="M24 440v70h571v-70h-88v-316c0 -50 14 -61 46 -61c13 0 29 2 42 6v-69c-17 -4 -40 -6 -59 -6c-76 0 -115 30 -115 116v330h-223c0 -161 -5 -311 -16 -440h-88c13 129 18 279 18 440h-88z" />
    <glyph glyph-name="rho" unicode="&#x3c1;" horiz-adv-x="568" 
d="M303 -12c-54 0 -102 17 -145 52v-250h-86v480c0 170 97 252 224 252c128 0 226 -84 226 -263c0 -176 -94 -271 -219 -271zM158 283v-171c39 -33 82 -53 132 -53c89 0 146 64 146 194c0 137 -62 195 -144 195c-74 0 -134 -48 -134 -165z" />
    <glyph glyph-name="sigma1" unicode="&#x3c2;" horiz-adv-x="456" 
d="M379 -162l-60 25c19 27 34 51 34 77c0 116 -307 -5 -307 283c0 199 147 293 352 293v-70c-164 0 -266 -70 -266 -216c0 -248 293 -94 293 -270c0 -54 -27 -94 -46 -122z" />
    <glyph glyph-name="sigma" unicode="&#x3c3;" horiz-adv-x="569" 
d="M538 510v-70h-132c59 -48 102 -110 102 -211c0 -154 -101 -241 -230 -241c-130 0 -232 89 -232 256c0 182 121 266 286 266h206zM423 232c0 103 -45 164 -106 207c-123 -6 -185 -65 -185 -192c0 -130 65 -192 148 -192c76 0 143 52 143 177z" />
    <glyph glyph-name="tau" unicode="&#x3c4;" horiz-adv-x="454" 
d="M24 440v70h406v-70h-165v-312c0 -52 16 -65 52 -65c18 0 34 3 49 6v-69c-17 -4 -43 -6 -64 -6c-80 0 -123 30 -123 120v326h-155z" />
    <glyph glyph-name="upsilon" unicode="&#x3c5;" horiz-adv-x="560" 
d="M366 510h89c38 -72 51 -161 51 -237c0 -208 -97 -285 -230 -285c-120 0 -204 63 -204 211v311h86v-311c0 -100 50 -141 119 -141c80 0 143 55 143 217c0 79 -15 166 -54 235z" />
    <glyph glyph-name="phi" unicode="&#x3c6;" horiz-adv-x="695" 
d="M648 268c0 -185 -105 -266 -261 -280v-198h-83v198c-154 14 -258 104 -258 268c0 107 44 196 112 260l72 -26c-64 -63 -101 -140 -101 -233c0 -128 69 -189 175 -201v297c0 117 69 169 153 169c117 0 191 -99 191 -254zM387 355v-299c107 14 178 66 178 210
c0 110 -42 184 -107 184c-39 0 -71 -26 -71 -95z" />
    <glyph glyph-name="chi" unicode="&#x3c7;" horiz-adv-x="537" 
d="M527 -142v-68c-9 -3 -27 -6 -49 -6c-58 0 -83 22 -113 89l-102 229l-165 -312h-87l207 381l-103 222c-19 41 -33 53 -58 53c-11 0 -22 -2 -31 -4v68c9 3 27 6 48 6c61 0 83 -24 112 -89l83 -188l142 271h87l-184 -339l122 -265c19 -41 35 -52 61 -52c10 0 21 2 30 4z" />
    <glyph glyph-name="psi" unicode="&#x3c8;" horiz-adv-x="709" 
d="M317 -210v198c-145 11 -245 85 -245 248v274h83v-275c0 -121 70 -169 162 -180v665h83v-665c108 16 170 72 170 223c0 64 -11 158 -52 232h85c38 -75 50 -166 50 -234c0 -197 -100 -272 -253 -287v-199h-83z" />
    <glyph glyph-name="omega" unicode="&#x3c9;" horiz-adv-x="716" 
d="M490 510h88c55 -69 92 -164 92 -277c0 -167 -81 -245 -180 -245c-61 0 -104 30 -132 95c-29 -67 -73 -95 -132 -95c-98 0 -180 78 -180 245c0 115 39 211 92 277h88c-58 -69 -97 -164 -97 -278c0 -124 46 -174 102 -174c49 0 85 39 85 137v127h84v-127
c0 -98 36 -137 85 -137c56 0 102 50 102 174c0 114 -39 209 -97 278z" />
    <glyph glyph-name="iotadieresis" unicode="&#x3ca;" horiz-adv-x="283" 
d="M77 114v396h86v-382c0 -52 17 -65 52 -65c17 0 35 3 49 6v-69c-17 -4 -44 -6 -64 -6c-81 0 -123 31 -123 120zM75 623c0 -28 -20 -49 -49 -49s-49 21 -49 49s20 49 49 49s49 -21 49 -49zM265 623c0 -28 -20 -49 -49 -49s-49 21 -49 49s20 49 49 49s49 -21 49 -49z" />
    <glyph glyph-name="upsilondieresis" unicode="&#x3cb;" horiz-adv-x="560" 
d="M366 510h89c38 -72 51 -161 51 -237c0 -208 -97 -285 -230 -285c-120 0 -204 63 -204 211v311h86v-311c0 -100 50 -141 119 -141c80 0 143 55 143 217c0 79 -15 166 -54 235zM228 623c0 -28 -20 -49 -49 -49s-49 21 -49 49s20 49 49 49s49 -21 49 -49zM418 623
c0 -28 -20 -49 -49 -49s-49 21 -49 49s20 49 49 49s49 -21 49 -49z" />
    <glyph glyph-name="omicrontonos" unicode="&#x3cc;" horiz-adv-x="555" 
d="M508 257c0 -184 -106 -269 -233 -269c-125 0 -229 83 -229 265c0 184 106 269 233 269c125 0 229 -83 229 -265zM422 254c0 142 -65 199 -145 199s-145 -57 -145 -199s65 -199 145 -199s145 57 145 199zM293 570h-64l55 150h97z" />
    <glyph glyph-name="upsilontonos" unicode="&#x3cd;" horiz-adv-x="560" 
d="M366 510h89c38 -72 51 -161 51 -237c0 -208 -97 -285 -230 -285c-120 0 -204 63 -204 211v311h86v-311c0 -100 50 -141 119 -141c80 0 143 55 143 217c0 79 -15 166 -54 235zM290 570h-64l55 150h97z" />
    <glyph glyph-name="omegatonos" unicode="&#x3ce;" horiz-adv-x="716" 
d="M490 510h88c55 -69 92 -164 92 -277c0 -167 -81 -245 -180 -245c-61 0 -104 30 -132 95c-29 -67 -73 -95 -132 -95c-98 0 -180 78 -180 245c0 115 39 211 92 277h88c-58 -69 -97 -164 -97 -278c0 -124 46 -174 102 -174c49 0 85 39 85 137v127h84v-127
c0 -98 36 -137 85 -137c56 0 102 50 102 174c0 114 -39 209 -97 278zM377 570h-64l55 150h97z" />
    <glyph glyph-name="uni0400" unicode="&#x400;" horiz-adv-x="588" 
d="M92 0v720h444v-78h-356v-232h313v-75h-313v-258h359v-77h-447zM381 779h-69l-128 130h102z" />
    <glyph glyph-name="uni0401" unicode="&#x401;" horiz-adv-x="588" 
d="M92 0v720h444v-78h-356v-232h313v-75h-313v-258h359v-77h-447zM269 827c0 -28 -20 -49 -49 -49s-49 21 -49 49s20 49 49 49s49 -21 49 -49zM459 827c0 -28 -20 -49 -49 -49s-49 21 -49 49s20 49 49 49s49 -21 49 -49z" />
    <glyph glyph-name="uni0402" unicode="&#x402;" horiz-adv-x="781" 
d="M29 642v78h507v-78h-220v-220c72 24 138 32 185 32c144 0 225 -74 225 -229c0 -157 -83 -231 -226 -231c-17 0 -46 1 -70 5v76c21 -5 47 -7 66 -7c94 0 142 48 142 155c0 109 -49 154 -155 154c-42 0 -97 -7 -167 -30v-347h-88v642h-199z" />
    <glyph glyph-name="uni0403" unicode="&#x403;" horiz-adv-x="532" 
d="M92 0v720h411v-78h-323v-642h-88zM308 779h-69l95 130h102z" />
    <glyph glyph-name="uni0404" unicode="&#x404;" horiz-adv-x="606" 
d="M534 128l26 -73c-52 -39 -122 -67 -204 -67c-175 0 -301 124 -301 365c0 247 132 379 314 379c76 0 138 -23 189 -61l-26 -80c-51 37 -100 63 -167 63c-120 0 -208 -82 -221 -251h321v-75h-322c9 -180 98 -264 222 -264c65 0 116 23 169 64z" />
    <glyph glyph-name="uni0405" unicode="&#x405;" horiz-adv-x="580" 
d="M55 54l26 78c61 -40 128 -68 200 -68c96 0 155 50 155 128c0 194 -360 94 -360 337c0 125 94 203 230 203c76 0 144 -25 199 -64l-26 -81c-53 40 -110 67 -177 67c-85 0 -138 -45 -138 -114c0 -181 360 -80 360 -336c0 -133 -98 -216 -245 -216c-80 0 -160 25 -224 66z
" />
    <glyph glyph-name="uni0406" unicode="&#x406;" horiz-adv-x="288" 
d="M100 0v720h88v-720h-88z" />
    <glyph glyph-name="uni0407" unicode="&#x407;" horiz-adv-x="288" 
d="M100 0v720h88v-720h-88zM99 827c0 -28 -20 -49 -49 -49s-49 21 -49 49s20 49 49 49s49 -21 49 -49zM289 827c0 -28 -20 -49 -49 -49s-49 21 -49 49s20 49 49 49s49 -21 49 -49z" />
    <glyph glyph-name="uni0408" unicode="&#x408;" horiz-adv-x="406" 
d="M29 2v79c25 -6 57 -11 87 -11c94 0 118 51 118 139v511h88v-511c0 -142 -53 -215 -199 -215c-30 0 -67 3 -94 8z" />
    <glyph glyph-name="uni0409" unicode="&#x409;" horiz-adv-x="1042" 
d="M756 0h-244v642h-242l-18 -294c-15 -248 -53 -354 -221 -354c-16 0 -24 1 -31 2v77c7 -1 16 -2 27 -2c102 0 128 86 140 286l22 363h410v-307h163c152 0 241 -69 241 -206c0 -141 -95 -207 -247 -207zM599 74h157c108 0 160 40 160 131c0 92 -52 132 -160 132h-157v-263z
" />
    <glyph glyph-name="uni040A" unicode="&#x40a;" horiz-adv-x="1037" 
d="M751 0h-244v335h-328v-335h-87v720h87v-308h328v308h87v-308h164c150 0 240 -68 240 -205c0 -139 -92 -207 -247 -207zM594 74h157c107 0 160 40 160 131s-53 131 -160 131h-157v-262z" />
    <glyph glyph-name="uni040B" unicode="&#x40b;" horiz-adv-x="781" 
d="M29 642v78h507v-78h-220v-220c73 24 135 32 188 32c132 0 222 -50 222 -207v-247h-88v234c0 115 -61 143 -152 143c-46 0 -100 -7 -170 -30v-347h-88v642h-199z" />
    <glyph glyph-name="uni040C" unicode="&#x40c;" horiz-adv-x="650" 
d="M599 726v-75c-66 0 -84 -23 -108 -72l-53 -106c-23 -46 -46 -80 -88 -99c72 -22 110 -70 153 -147l126 -227h-98l-114 206c-49 89 -84 129 -171 129h-66v-335h-88v720h88v-311h64c63 0 84 21 109 71l52 107c47 96 80 139 194 139zM341 779h-69l95 130h102z" />
    <glyph glyph-name="uni040D" unicode="&#x40d;" horiz-adv-x="713" 
d="M422 779h-69l-128 130h102zM620 720v-720h-84v567l-364 -567h-80v720h84v-568l364 568h80z" />
    <glyph glyph-name="uni040E" unicode="&#x40e;" horiz-adv-x="611" 
d="M247 242l-224 478h93l191 -410l191 410h90l-226 -478c-98 -208 -158 -248 -265 -248c-17 0 -39 1 -58 4v79c16 -4 35 -6 56 -6c75 0 107 25 179 171h-27zM305 779c-104 0 -150 49 -150 130h65c0 -46 22 -78 85 -78s85 32 85 78h65c0 -81 -46 -130 -150 -130z" />
    <glyph glyph-name="uni040F" unicode="&#x40f;" horiz-adv-x="706" 
d="M614 720v-720h-219v-154h-84v154h-219v720h88v-644h346v644h88z" />
    <glyph glyph-name="uni0410" unicode="&#x410;" horiz-adv-x="677" 
d="M392 720l252 -720h-92l-66 195h-298l-66 -195h-90l257 720h103zM338 631l-125 -364h248z" />
    <glyph glyph-name="uni0411" unicode="&#x411;" horiz-adv-x="622" 
d="M336 0h-244v720h426v-78h-339v-229h163c152 0 241 -69 241 -206c0 -141 -95 -207 -247 -207zM179 74h157c108 0 160 40 160 131c0 92 -52 132 -160 132h-157v-263z" />
    <glyph glyph-name="uni0412" unicode="&#x412;" horiz-adv-x="648" 
d="M92 0v720h231c149 0 236 -61 236 -188c0 -81 -36 -134 -109 -161c96 -25 139 -89 139 -177c0 -121 -80 -194 -251 -194h-246zM179 72h159c111 0 165 40 165 130s-54 129 -165 129h-159v-259zM179 401h138c104 0 156 38 156 123s-52 122 -156 122h-138v-245z" />
    <glyph glyph-name="uni0413" unicode="&#x413;" horiz-adv-x="532" 
d="M92 0v720h411v-78h-323v-642h-88z" />
    <glyph glyph-name="uni0414" unicode="&#x414;" horiz-adv-x="735" 
d="M33 -154v226h40c51 51 124 159 138 425l12 223h412v-648h60v-226h-83v154h-496v-154h-83zM304 642l-7 -144c-13 -268 -82 -374 -123 -422h373v566h-243z" />
    <glyph glyph-name="uni0415" unicode="&#x415;" horiz-adv-x="588" 
d="M92 0v720h444v-78h-356v-232h313v-75h-313v-258h359v-77h-447z" />
    <glyph glyph-name="uni0416" unicode="&#x416;" horiz-adv-x="984" 
d="M51 651v75c114 0 147 -43 194 -139l52 -107c25 -50 46 -71 109 -71h42v311h88v-311h42c63 0 84 21 109 71l52 107c47 96 80 139 194 139v-75c-66 0 -84 -23 -108 -72l-53 -106c-23 -46 -46 -80 -88 -99c72 -22 110 -70 153 -147l126 -227h-98l-114 206
c-49 89 -84 129 -171 129h-44v-335h-88v335h-48c-87 0 -122 -40 -171 -129l-114 -206h-94l126 227c45 81 84 126 151 147c-44 19 -66 52 -90 99l-53 106c-24 49 -42 72 -104 72z" />
    <glyph glyph-name="uni0417" unicode="&#x417;" horiz-adv-x="560" 
d="M168 409h69c92 0 170 36 170 126c0 82 -64 119 -141 119c-68 0 -125 -28 -179 -68l-27 75c56 41 132 71 214 71c122 0 221 -65 221 -186c0 -88 -52 -146 -136 -172c95 -29 146 -96 146 -183c0 -121 -97 -203 -252 -203c-84 0 -162 24 -223 60l25 78
c57 -35 124 -62 199 -62c103 0 163 52 163 133c0 88 -70 139 -187 139h-62v73z" />
    <glyph glyph-name="uni0418" unicode="&#x418;" horiz-adv-x="713" 
d="M620 720v-720h-84v567l-364 -567h-80v720h84v-568l364 568h80z" />
    <glyph glyph-name="uni0419" unicode="&#x419;" horiz-adv-x="713" 
d="M620 720v-720h-84v567l-364 -567h-80v720h84v-568l364 568h80zM356 779c-104 0 -150 49 -150 130h65c0 -46 22 -78 85 -78s85 32 85 78h65c0 -81 -46 -130 -150 -130z" />
    <glyph glyph-name="uni041A" unicode="&#x41a;" horiz-adv-x="650" 
d="M599 726v-75c-66 0 -84 -23 -108 -72l-53 -106c-23 -46 -46 -80 -88 -99c72 -22 110 -70 153 -147l126 -227h-98l-114 206c-49 89 -84 129 -171 129h-66v-335h-88v720h88v-311h64c63 0 84 21 109 71l52 107c47 96 80 139 194 139z" />
    <glyph glyph-name="uni041B" unicode="&#x41b;" horiz-adv-x="711" 
d="M31 -6c-16 0 -24 1 -31 2v77c7 -1 16 -2 27 -2c103 0 128 86 140 286l22 363h430v-720h-88v642h-261l-18 -294c-15 -250 -55 -354 -221 -354z" />
    <glyph glyph-name="uni041C" unicode="&#x41c;" horiz-adv-x="917" 
d="M250 720l153 -441c28 -81 42 -124 54 -176h2c14 53 32 109 57 178l156 439h113l56 -720h-89l-27 425c-4 61 -9 156 -9 195h-2c-7 -31 -39 -133 -58 -184l-159 -436h-81l-157 437c-19 53 -50 144 -59 183h-2c0 -39 -4 -138 -8 -199l-28 -421h-86l60 720h114z" />
    <glyph glyph-name="uni041D" unicode="&#x41d;" horiz-adv-x="706" 
d="M92 0v720h88v-308h346v308h88v-720h-88v335h-346v-335h-88z" />
    <glyph glyph-name="uni041E" unicode="&#x41e;" horiz-adv-x="717" 
d="M661 362c0 -244 -130 -374 -305 -374c-173 0 -301 128 -301 370c0 244 130 374 305 374c173 0 301 -128 301 -370zM573 359c0 203 -87 295 -215 295s-215 -92 -215 -295s87 -295 215 -295s215 92 215 295z" />
    <glyph glyph-name="uni041F" unicode="&#x41f;" horiz-adv-x="706" 
d="M92 0v720h522v-720h-88v642h-346v-642h-88z" />
    <glyph glyph-name="uni0420" unicode="&#x420;" horiz-adv-x="622" 
d="M92 0v720h247c153 0 244 -70 244 -211s-93 -211 -250 -211h-154v-298h-87zM179 642v-269h154c109 0 163 41 163 135c0 93 -54 134 -163 134h-154z" />
    <glyph glyph-name="uni0421" unicode="&#x421;" horiz-adv-x="606" 
d="M534 128l26 -73c-52 -39 -122 -67 -204 -67c-175 0 -301 124 -301 365c0 247 132 379 314 379c76 0 138 -23 189 -61l-26 -80c-51 37 -100 63 -167 63c-130 0 -222 -96 -222 -296s92 -294 222 -294c65 0 116 23 169 64z" />
    <glyph glyph-name="uni0422" unicode="&#x422;" horiz-adv-x="565" 
d="M239 0v642h-210v78h508v-78h-210v-642h-88z" />
    <glyph glyph-name="uni0423" unicode="&#x423;" horiz-adv-x="611" 
d="M247 242l-224 478h93l191 -410l191 410h90l-226 -478c-98 -208 -158 -248 -265 -248c-17 0 -39 1 -58 4v79c16 -4 35 -6 56 -6c75 0 107 25 179 171h-27z" />
    <glyph glyph-name="uni0424" unicode="&#x424;" horiz-adv-x="798" 
d="M356 -12v83c-177 13 -301 111 -301 287s124 276 301 290v84h86v-84c177 -13 301 -110 301 -286c0 -177 -124 -277 -301 -291v-83h-86zM141 359c0 -138 86 -208 215 -220v440c-129 -13 -215 -82 -215 -220zM657 359c0 138 -87 207 -215 220v-440c128 12 215 82 215 220z
" />
    <glyph glyph-name="uni0425" unicode="&#x425;" horiz-adv-x="636" 
d="M33 0l230 371l-216 349h98l174 -287l174 287h95l-216 -349l230 -371h-99l-187 309l-187 -309h-96z" />
    <glyph glyph-name="uni0426" unicode="&#x426;" horiz-adv-x="722" 
d="M614 720v-648h60v-226h-83v154h-499v720h88v-644h346v644h88z" />
    <glyph glyph-name="uni0427" unicode="&#x427;" horiz-adv-x="645" 
d="M143 720v-211c0 -115 61 -143 152 -143c46 0 100 7 170 30v324h88v-720h-88v323c-73 -24 -135 -32 -188 -32c-132 0 -222 50 -222 207v222h88z" />
    <glyph glyph-name="uni0428" unicode="&#x428;" horiz-adv-x="1060" 
d="M968 720v-720h-876v720h88v-644h306v644h88v-644h306v644h88z" />
    <glyph glyph-name="uni0429" unicode="&#x429;" horiz-adv-x="1078" 
d="M968 720v-649h60v-225h-83v154h-853v720h88v-644h306v644h88v-644h306v644h88z" />
    <glyph glyph-name="uni042A" unicode="&#x42a;" horiz-adv-x="758" 
d="M472 0h-244v642h-199v78h286v-307h163c152 0 241 -69 241 -206c0 -141 -95 -207 -247 -207zM315 74h157c108 0 160 40 160 131c0 92 -52 132 -160 132h-157v-263z" />
    <glyph glyph-name="uni042B" unicode="&#x42b;" horiz-adv-x="862" 
d="M683 0v720h86v-720h-86zM336 0h-244v720h87v-307h163c152 0 241 -69 241 -206c0 -141 -95 -207 -247 -207zM179 74h157c108 0 160 40 160 131c0 92 -52 132 -160 132h-157v-263z" />
    <glyph glyph-name="uni042C" unicode="&#x42c;" horiz-adv-x="622" 
d="M336 0h-244v720h87v-307h163c152 0 241 -69 241 -206c0 -141 -95 -207 -247 -207zM179 74h157c108 0 160 40 160 131c0 92 -52 132 -160 132h-157v-263z" />
    <glyph glyph-name="uni042D" unicode="&#x42d;" horiz-adv-x="606" 
d="M141 328v75h320c-12 170 -98 251 -215 251c-66 0 -115 -25 -165 -64l-26 75c53 39 120 67 201 67c171 0 294 -125 294 -365c0 -248 -131 -379 -315 -379c-77 0 -140 23 -191 61l26 79c55 -41 104 -64 168 -64c124 0 214 85 224 264h-321z" />
    <glyph glyph-name="uni042E" unicode="&#x42e;" horiz-adv-x="944" 
d="M608 -12c-156 0 -270 120 -277 347h-151v-335h-88v720h88v-307h153c16 208 128 319 279 319c161 0 277 -128 277 -370c0 -244 -118 -374 -281 -374zM802 359c0 202 -78 296 -192 296s-192 -94 -192 -296s78 -296 192 -296s192 94 192 296z" />
    <glyph glyph-name="uni042F" unicode="&#x42f;" horiz-adv-x="676" 
d="M497 321h-152l-191 -321h-96l198 328c-107 22 -160 86 -160 189c0 135 92 203 246 203h242v-720h-87v321zM342 390h155v253h-155c-108 0 -159 -38 -159 -126s51 -127 159 -127z" />
    <glyph glyph-name="uni0430" unicode="&#x430;" horiz-adv-x="522" 
d="M264 451c-59 0 -113 -21 -167 -52l-22 68c55 30 125 55 205 55c107 0 172 -45 172 -172v-234c0 -78 5 -103 10 -116h-81c-5 9 -10 25 -12 64c-44 -47 -103 -76 -169 -76c-89 0 -154 53 -154 155c0 109 74 171 239 171c21 0 47 -1 83 -6v35c0 79 -35 108 -104 108zM223 56
c55 0 106 32 145 70v122c-41 6 -58 7 -78 7c-118 0 -160 -35 -160 -103c0 -64 37 -96 93 -96z" />
    <glyph glyph-name="uni0431" unicode="&#x431;" horiz-adv-x="555" 
d="M284 433c-56 0 -107 -29 -152 -76v-9c0 -214 61 -292 153 -292c76 0 138 54 138 188c0 128 -56 189 -139 189zM329 647c-109 -1 -182 -55 -198 -221c47 49 107 81 176 81c116 0 201 -92 201 -256c0 -178 -101 -263 -224 -263c-140 0 -238 110 -238 360
c0 278 122 378 283 378c57 0 100 1 127 10v-79c-29 -8 -76 -10 -127 -10z" />
    <glyph glyph-name="uni0432" unicode="&#x432;" horiz-adv-x="540" 
d="M76 0v510h218c111 0 175 -45 175 -135c0 -55 -24 -94 -79 -113c71 -19 100 -64 100 -124c0 -87 -60 -138 -185 -138h-229zM160 63h133c85 0 113 31 113 82c0 52 -28 82 -113 82h-133v-164zM160 289h117c76 0 108 23 108 77s-32 78 -108 78h-117v-155z" />
    <glyph glyph-name="uni0433" unicode="&#x433;" horiz-adv-x="409" 
d="M76 510h312v-70h-226v-440h-86v510z" />
    <glyph glyph-name="uni0434" unicode="&#x434;" horiz-adv-x="617" 
d="M73 64c60 54 112 151 112 446h331v-446h54v-194h-82v130h-373v-130h-82v194h40zM262 440c-8 -235 -46 -321 -92 -372h262v372h-170z" />
    <glyph glyph-name="uni0435" unicode="&#x435;" horiz-adv-x="538" 
d="M279 456c-80 0 -135 -57 -146 -159h272c-1 112 -54 159 -126 159zM485 236h-352c6 -126 69 -180 161 -180c53 0 103 18 157 49l22 -65c-54 -33 -124 -52 -190 -52c-142 0 -237 88 -237 259c0 179 104 275 236 275c123 0 205 -83 205 -244c0 -18 0 -27 -2 -42z" />
    <glyph glyph-name="uni0436" unicode="&#x436;" horiz-adv-x="780" 
d="M116 0h-89l100 170c29 49 57 81 108 97c-30 13 -45 32 -59 58l-43 78c-17 30 -30 44 -76 44v69c93 0 120 -31 157 -99l43 -78c17 -30 31 -43 80 -43h10v214h86v-214h10c49 0 63 13 80 43l43 78c37 68 64 99 157 99v-69c-50 0 -63 -14 -80 -44l-43 -78
c-14 -26 -29 -45 -57 -58c53 -16 80 -47 110 -97l100 -170h-93l-87 148c-35 59 -59 84 -130 84h-10v-232h-86v232h-14c-71 0 -95 -25 -130 -84z" />
    <glyph glyph-name="uni0437" unicode="&#x437;" horiz-adv-x="474" 
d="M428 137c0 -90 -82 -149 -209 -149c-69 0 -133 18 -182 48l21 69c48 -29 100 -49 162 -49c86 0 122 38 122 85c0 54 -46 87 -156 87h-40v66h50c90 0 136 25 136 79s-46 79 -105 79c-53 0 -96 -20 -138 -48l-22 67c44 29 103 51 170 51c99 0 181 -47 181 -139
c0 -58 -32 -99 -98 -119c74 -22 108 -70 108 -127z" />
    <glyph glyph-name="uni0438" unicode="&#x438;" horiz-adv-x="577" 
d="M500 510v-510h-80v380l-268 -380h-76v510h80v-380l268 380h76z" />
    <glyph glyph-name="uni0439" unicode="&#x439;" horiz-adv-x="577" 
d="M500 510v-510h-80v380l-268 -380h-76v510h80v-380l268 380h76zM288 628c62 0 85 39 85 92h65c0 -88 -46 -144 -150 -144s-150 56 -150 144h65c0 -53 23 -92 85 -92z" />
    <glyph glyph-name="uni043A" unicode="&#x43a;" horiz-adv-x="531" 
d="M504 0h-93l-87 148c-35 59 -59 84 -130 84h-32v-232h-86v510h86v-214h32c49 0 63 13 80 43l43 78c37 68 64 99 157 99v-69c-50 0 -63 -14 -80 -44l-43 -78c-14 -26 -29 -45 -57 -58c53 -16 80 -47 110 -97z" />
    <glyph glyph-name="uni043B" unicode="&#x43b;" horiz-adv-x="577" 
d="M149 510h351v-510h-85v440h-188c-8 -349 -46 -446 -194 -446c-15 0 -26 1 -33 2v68c7 -1 16 -2 26 -2c106 0 112 125 123 448z" />
    <glyph glyph-name="uni043C" unicode="&#x43c;" horiz-adv-x="740" 
d="M531 510h100l47 -510h-81l-24 292c-3 41 -6 95 -6 127h-2c-4 -23 -25 -81 -44 -128l-117 -291h-72l-116 292c-1 2 -39 96 -44 127h-2c0 -32 -3 -93 -6 -134l-24 -285h-78l50 510h101l116 -304c16 -42 30 -78 40 -119h2c11 41 26 79 42 121z" />
    <glyph glyph-name="uni043D" unicode="&#x43d;" horiz-adv-x="575" 
d="M412 0v234h-250v-234h-86v510h86v-207h250v207h86v-510h-86z" />
    <glyph glyph-name="uni043E" unicode="&#x43e;" horiz-adv-x="555" 
d="M508 257c0 -184 -106 -269 -233 -269c-125 0 -229 83 -229 265c0 184 106 269 233 269c125 0 229 -83 229 -265zM422 254c0 142 -65 199 -145 199s-145 -57 -145 -199s65 -199 145 -199s145 57 145 199z" />
    <glyph glyph-name="uni043F" unicode="&#x43f;" horiz-adv-x="561" 
d="M398 0v440h-236v-440h-86v510h408v-510h-86z" />
    <glyph glyph-name="uni0440" unicode="&#x440;" horiz-adv-x="573" 
d="M76 510h86v-72c44 52 100 84 167 84c114 0 197 -91 197 -262c0 -179 -91 -272 -209 -272c-61 0 -111 25 -155 76v-274h-86v720zM307 447c-54 0 -102 -29 -145 -77v-239c41 -47 89 -72 141 -72c82 0 137 62 137 195c0 131 -53 193 -133 193z" />
    <glyph glyph-name="uni0441" unicode="&#x441;" horiz-adv-x="466" 
d="M424 478l-22 -72c-40 29 -75 45 -119 45c-86 0 -151 -62 -151 -197c0 -134 64 -196 153 -196c46 0 84 16 119 43l22 -66c-39 -29 -91 -47 -152 -47c-132 0 -228 85 -228 261c0 180 100 273 238 273c59 0 103 -17 140 -44z" />
    <glyph glyph-name="uni0442" unicode="&#x442;" horiz-adv-x="490" 
d="M24 440v70h441v-70h-178v-440h-85v440h-178z" />
    <glyph glyph-name="uni0443" unicode="&#x443;" horiz-adv-x="505" 
d="M37 -212v74c15 -3 27 -6 47 -6c54 0 90 22 138 156h-27l-174 498h89l142 -425l146 425h86l-178 -498c-68 -191 -121 -228 -219 -228c-16 0 -37 1 -50 4z" />
    <glyph glyph-name="uni0444" unicode="&#x444;" horiz-adv-x="725" 
d="M320 -210v200c-153 11 -274 95 -274 263s121 253 274 267v200h84v-200c153 -12 274 -96 274 -263c0 -168 -121 -254 -274 -267v-200h-84zM130 254c0 -127 81 -187 190 -199v398c-109 -12 -190 -72 -190 -199zM594 254c0 127 -82 187 -190 199v-398c108 12 190 72 190 199
z" />
    <glyph glyph-name="uni0445" unicode="&#x445;" horiz-adv-x="507" 
d="M26 0l176 265l-163 245h94l122 -191l121 191h91l-163 -245l176 -265h-93l-136 211l-135 -211h-90z" />
    <glyph glyph-name="uni0446" unicode="&#x446;" horiz-adv-x="589" 
d="M162 510v-442h240v442h86v-446h54v-194h-82v130h-384v510h86z" />
    <glyph glyph-name="uni0447" unicode="&#x447;" horiz-adv-x="535" 
d="M46 510h86v-146c0 -86 48 -103 113 -103c32 0 72 4 127 20v229h86v-510h-86v217c-60 -17 -107 -22 -147 -22c-106 0 -179 35 -179 152v163z" />
    <glyph glyph-name="uni0448" unicode="&#x448;" horiz-adv-x="865" 
d="M475 510v-442h227v442h86v-510h-712v510h86v-442h227v442h86z" />
    <glyph glyph-name="uni0449" unicode="&#x449;" horiz-adv-x="889" 
d="M475 510v-442h227v442h86v-446h54v-194h-82v130h-684v510h86v-442h227v442h86z" />
    <glyph glyph-name="uni044A" unicode="&#x44a;" horiz-adv-x="652" 
d="M410 0h-215v440h-171v70h257v-194h134c119 0 190 -52 190 -158s-73 -158 -195 -158zM281 63h121c79 0 117 29 117 94s-38 94 -117 94h-121v-188z" />
    <glyph glyph-name="uni044B" unicode="&#x44b;" horiz-adv-x="766" 
d="M605 0v510h84v-510h-84zM162 63h121c79 0 117 29 117 94s-38 94 -117 94h-121v-188zM291 0h-215v510h86v-194h134c119 0 190 -52 190 -158s-73 -158 -195 -158z" />
    <glyph glyph-name="uni044C" unicode="&#x44c;" horiz-adv-x="533" 
d="M162 63h121c79 0 117 29 117 94s-38 94 -117 94h-121v-188zM291 0h-215v510h86v-194h134c119 0 190 -52 190 -158s-73 -158 -195 -158z" />
    <glyph glyph-name="uni044D" unicode="&#x44d;" horiz-adv-x="463" 
d="M105 229v64h225c-11 109 -70 159 -147 159c-43 0 -78 -16 -114 -44l-22 67c39 29 90 47 149 47c128 0 221 -86 221 -260c0 -181 -101 -274 -239 -274c-60 0 -105 17 -142 44l22 70c36 -27 72 -46 120 -46c83 0 145 55 153 173h-226z" />
    <glyph glyph-name="uni044E" unicode="&#x44e;" horiz-adv-x="752" 
d="M492 -12c-110 0 -203 77 -209 246h-121v-234h-86v510h86v-207h124c16 149 105 219 210 219c114 0 209 -83 209 -265c0 -184 -97 -269 -213 -269zM619 254c0 140 -55 199 -125 199s-125 -59 -125 -199s55 -199 125 -199s125 59 125 199z" />
    <glyph glyph-name="uni044F" unicode="&#x44f;" horiz-adv-x="542" 
d="M261 510h204v-510h-84v204h-142l-121 -204h-88l132 220c-62 21 -96 64 -96 134c0 103 73 156 195 156zM269 265h112v179h-112c-84 0 -118 -30 -118 -89c0 -60 34 -90 118 -90z" />
    <glyph glyph-name="uni0450" unicode="&#x450;" horiz-adv-x="538" 
d="M279 456c-80 0 -135 -57 -146 -159h272c-1 112 -54 159 -126 159zM485 236h-352c6 -126 69 -180 161 -180c53 0 103 18 157 49l22 -65c-54 -33 -124 -52 -190 -52c-142 0 -237 88 -237 259c0 179 104 275 236 275c123 0 205 -83 205 -244c0 -18 0 -27 -2 -42zM342 570
h-68l-128 150h101z" />
    <glyph glyph-name="uni0451" unicode="&#x451;" horiz-adv-x="538" 
d="M279 456c-80 0 -135 -57 -146 -159h272c-1 112 -54 159 -126 159zM485 236h-352c6 -126 69 -180 161 -180c53 0 103 18 157 49l22 -65c-54 -33 -124 -52 -190 -52c-142 0 -237 88 -237 259c0 179 104 275 236 275c123 0 205 -83 205 -244c0 -18 0 -27 -2 -42zM228 623
c0 -28 -20 -49 -49 -49s-49 21 -49 49s20 49 49 49s49 -21 49 -49zM418 623c0 -28 -20 -49 -49 -49s-49 21 -49 49s20 49 49 49s49 -21 49 -49z" />
    <glyph glyph-name="uni0452" unicode="&#x452;" horiz-adv-x="636" 
d="M22 570v65h112v85h86v-85h190v-65h-190v-177c42 48 116 97 206 97c77 0 138 -36 138 -142v-376c0 -98 -41 -150 -142 -150c-20 0 -39 2 -59 6v70c17 -5 31 -6 42 -6c58 0 73 27 73 80v356c0 66 -32 87 -80 87c-69 0 -130 -42 -178 -89v-326h-86v570h-112z" />
    <glyph glyph-name="uni0453" unicode="&#x453;" horiz-adv-x="409" 
d="M235 570h-68l95 150h101zM76 510h312v-70h-226v-440h-86v510z" />
    <glyph glyph-name="uni0454" unicode="&#x454;" horiz-adv-x="463" 
d="M424 478l-22 -71c-36 27 -72 45 -119 45c-78 0 -138 -50 -149 -159h225v-64h-226c7 -119 68 -173 152 -173c46 0 84 16 119 44l22 -65c-39 -29 -91 -47 -152 -47c-132 0 -228 85 -228 261c0 180 100 273 238 273c59 0 103 -17 140 -44z" />
    <glyph glyph-name="uni0455" unicode="&#x455;" horiz-adv-x="456" 
d="M394 475l-22 -72c-39 28 -85 49 -132 49c-57 0 -90 -30 -90 -72c0 -118 260 -45 260 -230c0 -101 -77 -162 -191 -162c-64 0 -124 19 -173 48l22 71c48 -30 99 -51 153 -51c68 0 105 33 105 82c0 130 -260 58 -260 233c0 91 70 151 175 151c58 0 110 -18 153 -47z" />
    <glyph glyph-name="uni0456" unicode="&#x456;" horiz-adv-x="250" 
d="M82 0v510h86v-510h-86zM125 705c32 0 54 -23 54 -53s-22 -53 -54 -53s-54 23 -54 53s22 53 54 53z" />
    <glyph glyph-name="uni0457" unicode="&#x457;" horiz-adv-x="250" 
d="M80 623c0 -28 -20 -49 -49 -49s-49 21 -49 49s20 49 49 49s49 -21 49 -49zM270 623c0 -28 -20 -49 -49 -49s-49 21 -49 49s20 49 49 49s49 -21 49 -49zM82 0v510h86v-510h-86z" />
    <glyph glyph-name="uni0458" unicode="&#x458;" horiz-adv-x="250" 
d="M168 510v-576c0 -98 -41 -150 -142 -150c-20 0 -39 2 -59 6v70c17 -5 31 -6 42 -6c58 0 73 27 73 80v576h86zM125 705c32 0 54 -23 54 -53s-22 -53 -54 -53s-54 23 -54 53s22 53 54 53z" />
    <glyph glyph-name="uni0459" unicode="&#x459;" horiz-adv-x="851" 
d="M609 0h-215v440h-167c-8 -349 -45 -446 -194 -446c-15 0 -27 1 -33 2v68c4 -1 16 -2 26 -2c106 0 112 124 123 448h331v-194h134c119 0 190 -52 190 -158s-73 -158 -195 -158zM480 63h121c79 0 117 29 117 94s-38 94 -117 94h-121v-188z" />
    <glyph glyph-name="uni045A" unicode="&#x45a;" horiz-adv-x="850" 
d="M615 0h-222v239h-232v-239h-85v510h85v-202h232v202h86v-202h139c116 0 185 -51 185 -153c0 -105 -73 -155 -188 -155zM479 64h125c76 0 113 27 113 89c0 63 -37 90 -113 90h-125v-179z" />
    <glyph glyph-name="uni045B" unicode="&#x45b;" horiz-adv-x="636" 
d="M22 570v65h112v85h86v-85h190v-65h-190v-177c42 48 116 97 206 97c77 0 138 -36 138 -142v-348h-86v328c0 66 -32 87 -80 87c-69 0 -130 -42 -178 -89v-326h-86v570h-112z" />
    <glyph glyph-name="uni045C" unicode="&#x45c;" horiz-adv-x="531" 
d="M267 570h-68l95 150h101zM504 0h-93l-87 148c-35 59 -59 84 -130 84h-32v-232h-86v510h86v-214h32c49 0 63 13 80 43l43 78c37 68 64 99 157 99v-69c-50 0 -63 -14 -80 -44l-43 -78c-14 -26 -29 -45 -57 -58c53 -16 80 -47 110 -97z" />
    <glyph glyph-name="uni045D" unicode="&#x45d;" horiz-adv-x="577" 
d="M353 570h-68l-128 150h101zM500 510v-510h-80v380l-268 -380h-76v510h80v-380l268 380h76z" />
    <glyph glyph-name="uni045E" unicode="&#x45e;" horiz-adv-x="505" 
d="M37 -212v74c15 -3 27 -6 47 -6c54 0 90 22 138 156h-27l-174 498h89l142 -425l146 425h86l-178 -498c-68 -191 -121 -228 -219 -228c-16 0 -37 1 -50 4zM252 628c62 0 85 39 85 92h65c0 -88 -46 -144 -150 -144s-150 56 -150 144h65c0 -53 23 -92 85 -92z" />
    <glyph glyph-name="uni045F" unicode="&#x45f;" horiz-adv-x="565" 
d="M162 510v-442h240v442h86v-510h-165v-130h-82v130h-165v510h86z" />
    <glyph glyph-name="uni0462" unicode="&#x462;" horiz-adv-x="714" 
d="M428 0h-244v548h-155v75h155v97h87v-97h185v-75h-185v-135h163c152 0 241 -68 241 -207s-95 -206 -247 -206zM271 74h157c108 0 160 40 160 131c0 92 -52 132 -160 132h-157v-263z" />
    <glyph glyph-name="uni0463" unicode="&#x463;" horiz-adv-x="591" 
d="M349 0h-215v445h-112v65h112v210h86v-210h170v-65h-170v-129h134c119 0 190 -52 190 -158s-73 -158 -195 -158zM220 63h121c79 0 117 29 117 94s-38 94 -117 94h-121v-188z" />
    <glyph glyph-name="uni0472" unicode="&#x472;" horiz-adv-x="717" 
d="M357 64c126 0 213 87 218 274c-33 -19 -71 -34 -111 -34c-73 0 -153 50 -213 50c-35 0 -73 -17 -109 -41c13 -171 96 -249 215 -249zM357 654c-118 0 -206 -77 -215 -260c32 19 70 34 110 34c72 0 152 -50 212 -50c35 0 73 16 108 39c-16 167 -102 237 -215 237zM661 362
c0 -244 -130 -374 -305 -374c-173 0 -301 128 -301 370c0 244 130 374 305 374c173 0 301 -128 301 -370z" />
    <glyph glyph-name="uni0473" unicode="&#x473;" horiz-adv-x="555" 
d="M200 248c-21 0 -45 -11 -70 -28c10 -117 72 -165 147 -165c77 0 140 51 147 175c-23 -12 -48 -21 -71 -21c-49 0 -112 39 -153 39zM355 273c20 0 43 10 67 26c-13 109 -73 154 -145 154c-75 0 -136 -47 -147 -163c23 13 48 22 72 22c50 0 112 -39 153 -39zM508 257
c0 -184 -106 -269 -233 -269c-125 0 -229 83 -229 265c0 184 106 269 233 269c125 0 229 -83 229 -265z" />
    <glyph glyph-name="uni0474" unicode="&#x474;" horiz-adv-x="666" 
d="M32 720h90l202 -605l155 472c32 96 64 139 187 139v-75c-70 0 -88 -21 -105 -72l-193 -579h-90z" />
    <glyph glyph-name="uni0475" unicode="&#x475;" horiz-adv-x="521" 
d="M295 0h-89l-185 510h89l141 -403l95 274c32 93 61 135 175 135v-69c-62 0 -78 -23 -96 -75z" />
    <glyph glyph-name="uni0490" unicode="&#x490;" horiz-adv-x="553" 
d="M92 0v720h345v122h81v-200h-338v-642h-88z" />
    <glyph glyph-name="uni0491" unicode="&#x491;" horiz-adv-x="432" 
d="M76 510h251v122h78v-192h-243v-440h-86v510z" />
    <glyph glyph-name="uni0492" unicode="&#x492;" horiz-adv-x="544" 
d="M24 342v65h80v313h411v-78h-323v-235h186v-65h-186v-342h-88v342h-80z" />
    <glyph glyph-name="uni0493" unicode="&#x493;" horiz-adv-x="427" 
d="M88 510h312v-70h-226v-138h146v-65h-146v-237h-86v237h-78v65h78v208z" />
    <glyph glyph-name="uni0496" unicode="&#x496;" horiz-adv-x="1004" 
d="M900 -154v154h-35l-114 206c-49 89 -84 129 -171 129h-44v-335h-88v335h-48c-87 0 -122 -40 -171 -129l-114 -206h-94l126 227c45 81 84 126 151 147c-44 19 -66 52 -90 99l-53 106c-24 49 -42 72 -104 72v75c114 0 147 -43 194 -139l52 -107c25 -50 46 -71 109 -71h42
v311h88v-311h42c63 0 84 21 109 71l52 107c47 96 80 139 194 139v-75c-66 0 -84 -23 -108 -72l-53 -106c-23 -46 -46 -80 -88 -99c72 -22 110 -70 153 -147l85 -155h61v-226h-83z" />
    <glyph glyph-name="uni0497" unicode="&#x497;" horiz-adv-x="800" 
d="M691 -130v130h-31l-87 148c-35 59 -59 84 -130 84h-10v-232h-86v232h-14c-71 0 -95 -25 -130 -84l-87 -148h-89l100 170c29 49 57 81 108 97c-30 13 -45 32 -59 58l-43 78c-17 30 -30 44 -76 44v69c93 0 120 -31 157 -99l43 -78c17 -30 31 -43 80 -43h10v214h86v-214h10
c49 0 63 13 80 43l43 78c37 68 64 99 157 99v-69c-50 0 -63 -14 -80 -44l-43 -78c-14 -26 -29 -45 -57 -58c53 -16 80 -47 110 -97l62 -106h58v-194h-82z" />
    <glyph glyph-name="uni049A" unicode="&#x49a;" horiz-adv-x="672" 
d="M599 726v-75c-66 0 -84 -23 -108 -72l-53 -106c-23 -46 -46 -80 -88 -99c72 -22 110 -70 153 -147l85 -155h63v-226h-83v154h-37l-114 206c-49 89 -84 129 -171 129h-66v-335h-88v720h88v-311h64c63 0 84 21 109 71l52 107c47 96 80 139 194 139z" />
    <glyph glyph-name="uni049B" unicode="&#x49b;" horiz-adv-x="550" 
d="M441 -130v130h-30l-87 148c-35 59 -59 84 -130 84h-32v-232h-86v510h86v-214h32c49 0 63 13 80 43l43 78c37 68 64 99 157 99v-69c-50 0 -63 -14 -80 -44l-43 -78c-14 -26 -29 -45 -57 -58c53 -16 80 -47 110 -97l62 -106h57v-194h-82z" />
    <glyph glyph-name="uni049C" unicode="&#x49c;" horiz-adv-x="690" 
d="M244 155v180h-66v-335h-86v720h86v-311h66v158h61v-158c48 4 68 25 90 71l52 107c47 96 80 139 192 139v-75c-66 0 -84 -23 -108 -72l-53 -106c-23 -46 -46 -80 -88 -99c72 -22 110 -70 153 -147l126 -227h-96l-114 206c-46 83 -80 123 -154 128v-179h-61z" />
    <glyph glyph-name="uni049D" unicode="&#x49d;" horiz-adv-x="567" 
d="M207 111v121h-47v-232h-84v510h84v-214h47v106h57v-104c20 4 34 16 48 41l43 78c37 68 64 99 155 99v-69c-50 0 -63 -14 -80 -44l-43 -78c-14 -26 -29 -45 -57 -58c53 -16 80 -47 110 -97l100 -170h-91l-87 148c-29 49 -51 75 -98 82v-119h-57z" />
    <glyph glyph-name="uni04A2" unicode="&#x4a2;" horiz-adv-x="722" 
d="M92 0v720h88v-307h346v307h88v-648h60v-226h-83v154h-65v335h-346v-335h-88z" />
    <glyph glyph-name="uni04A3" unicode="&#x4a3;" horiz-adv-x="599" 
d="M412 0v234h-250v-234h-86v510h86v-207h250v207h86v-446h54v-194h-82v130h-58z" />
    <glyph glyph-name="uni04AE" unicode="&#x4ae;" horiz-adv-x="611" 
d="M262 0v305l-239 415h95l189 -329l189 329h93l-239 -415v-305h-88z" />
    <glyph glyph-name="uni04AF" unicode="&#x4af;" horiz-adv-x="505" 
d="M207 -210v210l-186 510h89l143 -404l145 404h86l-191 -510v-210h-86z" />
    <glyph glyph-name="uni04B0" unicode="&#x4b0;" horiz-adv-x="611" 
d="M117 240v65h145l-239 415h95l189 -329l189 329h93l-239 -415h145v-65h-145v-240h-88v240h-145z" />
    <glyph glyph-name="uni04B1" unicode="&#x4b1;" horiz-adv-x="505" 
d="M86 -50v65h121l-186 495h89l143 -404l145 404h86l-191 -495h121v-65h-121v-160h-86v160h-121z" />
    <glyph glyph-name="uni04B2" unicode="&#x4b2;" horiz-adv-x="636" 
d="M537 -154v154h-34l-187 309l-187 -309h-96l230 371l-216 349h98l174 -287l174 287h95l-216 -349l185 -299h63v-226h-83z" />
    <glyph glyph-name="uni04B3" unicode="&#x4b3;" horiz-adv-x="514" 
d="M416 -130v130h-29l-136 211l-135 -211h-90l176 265l-163 245h94l122 -191l121 191h91l-163 -245l133 -201h61v-194h-82z" />
    <glyph glyph-name="uni04B6" unicode="&#x4b6;" horiz-adv-x="659" 
d="M143 720v-211c0 -115 62 -143 153 -143c45 0 98 7 169 30v324h88v-648h58v-226h-83v154h-63v323c-73 -24 -135 -32 -188 -32c-132 0 -222 50 -222 207v222h88z" />
    <glyph glyph-name="uni04B7" unicode="&#x4b7;" horiz-adv-x="559" 
d="M46 510h86v-146c0 -86 48 -103 113 -103c32 0 72 4 127 20v229h86v-446h54v-194h-82v130h-58v217c-60 -17 -107 -22 -147 -22c-106 0 -179 35 -179 152v163z" />
    <glyph glyph-name="uni04B8" unicode="&#x4b8;" horiz-adv-x="665" 
d="M283 113v178h-2c-133 0 -226 52 -226 207v222h86v-211c0 -107 58 -140 142 -143v159h61v-158c43 3 87 11 143 28v325h86v-720h-86v323c-53 -16 -99 -25 -143 -29v-181h-61z" />
    <glyph glyph-name="uni04B9" unicode="&#x4b9;" horiz-adv-x="555" 
d="M232 75v120h-2c-109 0 -184 38 -184 161v154h84v-146c0 -73 42 -101 102 -104v106h57v-105c31 3 64 7 105 19v230h84v-510h-84v217c-39 -11 -73 -17 -105 -20v-122h-57z" />
    <glyph glyph-name="uni04BA" unicode="&#x4ba;" horiz-adv-x="645" 
d="M502 0v234c0 115 -61 143 -152 143c-46 0 -100 -7 -170 -30v-347h-88v720h88v-298c73 24 135 32 188 32c132 0 222 -50 222 -207v-247h-88z" />
    <glyph glyph-name="uni04BB" unicode="&#x4bb;" horiz-adv-x="539" 
d="M488 0h-86v145c0 86 -48 103 -113 103c-32 0 -72 -4 -127 -20v-228h-86v510h86v-216c60 17 107 22 147 22c106 0 179 -35 179 -152v-164z" />
    <glyph glyph-name="uni04C0" unicode="&#x4c0;" horiz-adv-x="289" 
d="M100 0v720h88v-720h-88z" />
    <glyph glyph-name="uni04CF" unicode="&#x4cf;" horiz-adv-x="250" 
d="M82 0v720h86v-720h-86z" />
    <glyph glyph-name="uni04D8" unicode="&#x4d8;" horiz-adv-x="697" 
d="M343 64c115 0 202 81 210 265h-410c8 -181 82 -265 200 -265zM326 654c-75 0 -147 -28 -208 -71l-27 75c62 43 152 74 243 74c183 0 308 -127 308 -370c0 -244 -127 -374 -301 -374c-171 0 -286 125 -286 368c0 23 1 30 1 44h496c-12 174 -98 254 -226 254z" />
    <glyph glyph-name="uni04D9" unicode="&#x4d9;" horiz-adv-x="538" 
d="M264 52c83 0 137 57 142 177h-273c3 -135 60 -177 131 -177zM53 290h351c-10 111 -69 161 -155 161c-51 0 -99 -18 -150 -50l-22 69c51 31 116 52 184 52c139 0 231 -89 231 -264c0 -183 -100 -270 -229 -270c-120 0 -212 77 -212 259c0 19 1 31 2 43z" />
    <glyph glyph-name="uni04E2" unicode="&#x4e2;" horiz-adv-x="713" 
d="M620 720v-720h-84v567l-364 -567h-80v720h84v-568l364 568h80zM209 785v65h294v-65h-294z" />
    <glyph glyph-name="uni04E3" unicode="&#x4e3;" horiz-adv-x="577" 
d="M141 581v65h293v-65h-293zM500 510v-510h-80v380l-268 -380h-76v510h80v-380l268 380h76z" />
    <glyph glyph-name="uni04E8" unicode="&#x4e8;" horiz-adv-x="717" 
d="M358 64c121 0 209 82 217 264h-434c8 -182 96 -264 217 -264zM358 654c-120 0 -204 -79 -216 -251h432c-12 172 -96 251 -216 251zM661 362c0 -244 -130 -374 -305 -374c-173 0 -301 128 -301 370c0 244 130 374 305 374c173 0 301 -128 301 -370z" />
    <glyph glyph-name="uni04E9" unicode="&#x4e9;" horiz-adv-x="555" 
d="M277 55c77 0 140 50 147 174h-295c8 -124 71 -174 148 -174zM277 453c-74 0 -135 -47 -146 -161h292c-11 114 -72 161 -146 161zM508 257c0 -184 -106 -269 -233 -269c-125 0 -229 83 -229 265c0 184 106 269 233 269c125 0 229 -83 229 -265z" />
    <glyph glyph-name="uni04EE" unicode="&#x4ee;" horiz-adv-x="611" 
d="M247 242l-224 478h93l191 -410l191 410h90l-226 -478c-98 -208 -158 -248 -265 -248c-17 0 -39 1 -58 4v79c16 -4 35 -6 56 -6c75 0 107 25 179 171h-27zM158 785v65h294v-65h-294z" />
    <glyph glyph-name="uni04EF" unicode="&#x4ef;" horiz-adv-x="505" 
d="M37 -212v74c15 -3 27 -6 47 -6c54 0 90 22 138 156h-27l-174 498h89l142 -425l146 425h86l-178 -498c-68 -191 -121 -228 -219 -228c-16 0 -37 1 -50 4zM105 581v65h293v-65h-293z" />
    <glyph glyph-name="Wgrave" unicode="&#x1e80;" horiz-adv-x="954" 
d="M643 0l-109 386c-38 133 -46 164 -56 221h-2c-10 -59 -34 -143 -56 -219l-112 -388h-85l-187 720h92l95 -378c33 -131 37 -149 49 -218h2c15 77 36 154 56 222l107 374h83l107 -378c19 -67 42 -151 55 -218h2c11 67 29 143 48 217l97 379h89l-190 -720h-85zM543 779h-69
l-128 130h102z" />
    <glyph glyph-name="wgrave" unicode="&#x1e81;" horiz-adv-x="749" 
d="M255 0h-83l-150 510h85l78 -269c18 -62 27 -99 34 -143h2c7 41 23 105 35 144l81 268h78l79 -267c10 -34 28 -98 36 -145h2c7 45 19 93 34 144l79 268h82l-154 -510h-82l-78 263c-20 67 -31 104 -38 150h-2c-6 -41 -21 -94 -38 -150zM439 570h-68l-128 150h101z" />
    <glyph glyph-name="Wacute" unicode="&#x1e82;" horiz-adv-x="954" 
d="M643 0l-109 386c-38 133 -46 164 -56 221h-2c-10 -59 -34 -143 -56 -219l-112 -388h-85l-187 720h92l95 -378c33 -131 37 -149 49 -218h2c15 77 36 154 56 222l107 374h83l107 -378c19 -67 42 -151 55 -218h2c11 67 29 143 48 217l97 379h89l-190 -720h-85zM477 779h-69
l95 130h102z" />
    <glyph glyph-name="wacute" unicode="&#x1e83;" horiz-adv-x="749" 
d="M255 0h-83l-150 510h85l78 -269c18 -62 27 -99 34 -143h2c7 41 23 105 35 144l81 268h78l79 -267c10 -34 28 -98 36 -145h2c7 45 19 93 34 144l79 268h82l-154 -510h-82l-78 263c-20 67 -31 104 -38 150h-2c-6 -41 -21 -94 -38 -150zM376 570h-68l95 150h101z" />
    <glyph glyph-name="Wdieresis" unicode="&#x1e84;" horiz-adv-x="954" 
d="M643 0l-109 386c-38 133 -46 164 -56 221h-2c-10 -59 -34 -143 -56 -219l-112 -388h-85l-187 720h92l95 -378c33 -131 37 -149 49 -218h2c15 77 36 154 56 222l107 374h83l107 -378c19 -67 42 -151 55 -218h2c11 67 29 143 48 217l97 379h89l-190 -720h-85zM431 827
c0 -28 -20 -49 -49 -49s-49 21 -49 49s20 49 49 49s49 -21 49 -49zM621 827c0 -28 -20 -49 -49 -49s-49 21 -49 49s20 49 49 49s49 -21 49 -49z" />
    <glyph glyph-name="wdieresis" unicode="&#x1e85;" horiz-adv-x="749" 
d="M255 0h-83l-150 510h85l78 -269c18 -62 27 -99 34 -143h2c7 41 23 105 35 144l81 268h78l79 -267c10 -34 28 -98 36 -145h2c7 45 19 93 34 144l79 268h82l-154 -510h-82l-78 263c-20 67 -31 104 -38 150h-2c-6 -41 -21 -94 -38 -150zM328 623c0 -28 -20 -49 -49 -49
s-49 21 -49 49s20 49 49 49s49 -21 49 -49zM518 623c0 -28 -20 -49 -49 -49s-49 21 -49 49s20 49 49 49s49 -21 49 -49z" />
    <glyph glyph-name="uni1E8A" unicode="&#x1e8a;" horiz-adv-x="636" 
d="M33 0l230 371l-216 349h98l174 -287l174 287h95l-216 -349l230 -371h-99l-187 309l-187 -309h-96zM318 776c-32 0 -54 23 -54 53s22 53 54 53s54 -23 54 -53s-22 -53 -54 -53z" />
    <glyph glyph-name="uni1E8B" unicode="&#x1e8b;" horiz-adv-x="507" 
d="M26 0l176 265l-163 245h94l122 -191l121 191h91l-163 -245l176 -265h-93l-136 211l-135 -211h-90zM253 569c-32 0 -54 23 -54 53s22 53 54 53s54 -23 54 -53s-22 -53 -54 -53z" />
    <glyph glyph-name="uni1E9E" unicode="&#x1e9e;" horiz-adv-x="1140" 
d="M615 54l26 78c61 -40 128 -68 200 -68c96 0 155 50 155 128c0 194 -360 94 -360 337c0 125 94 203 230 203c76 0 144 -25 199 -64l-26 -81c-53 40 -110 67 -177 67c-85 0 -138 -45 -138 -114c0 -181 360 -80 360 -336c0 -133 -98 -216 -245 -216c-80 0 -160 25 -224 66z
M55 54l26 78c61 -40 128 -68 200 -68c96 0 155 50 155 128c0 194 -360 94 -360 337c0 125 94 203 230 203c76 0 144 -25 199 -64l-26 -81c-53 40 -110 67 -177 67c-85 0 -138 -45 -138 -114c0 -181 360 -80 360 -336c0 -133 -98 -216 -245 -216c-80 0 -160 25 -224 66z" />
    <glyph glyph-name="Ygrave" unicode="&#x1ef2;" horiz-adv-x="611" 
d="M262 0v305l-239 415h95l189 -329l189 329h93l-239 -415v-305h-88zM371 779h-69l-128 130h102z" />
    <glyph glyph-name="ygrave" unicode="&#x1ef3;" horiz-adv-x="505" 
d="M37 -212v74c15 -3 27 -6 47 -6c54 0 90 22 138 156h-27l-174 498h89l142 -425l146 425h86l-178 -498c-68 -191 -121 -228 -219 -228c-16 0 -37 1 -50 4zM317 570h-68l-128 150h101z" />
    <glyph glyph-name="uni2007" unicode="&#x2007;" horiz-adv-x="627" 
 />
    <glyph glyph-name="uni2008" unicode="&#x2008;" horiz-adv-x="283" 
 />
    <glyph glyph-name="uni200B" unicode="&#x200b;" horiz-adv-x="0" 
 />
    <glyph glyph-name="uniFEFF" unicode="&#xfeff;" horiz-adv-x="0" 
 />
    <glyph glyph-name="endash" unicode="&#x2013;" horiz-adv-x="500" 
d="M60 274v75h380v-75h-380z" />
    <glyph glyph-name="emdash" unicode="&#x2014;" 
d="M60 274v75h880v-75h-880z" />
    <glyph glyph-name="uni2015" unicode="&#x2015;" 
d="M60 274v75h880v-75h-880z" />
    <glyph glyph-name="quoteleft" unicode="&#x2018;" horiz-adv-x="265" 
d="M180 732l44 -38c-66 -39 -92 -83 -101 -121c37 0 61 -24 61 -56c0 -31 -22 -55 -57 -55c-39 0 -68 31 -68 86c0 54 28 125 121 184z" />
    <glyph glyph-name="quoteright" unicode="&#x2019;" horiz-adv-x="265" 
d="M85 462l-44 38c66 39 92 83 101 121c-37 0 -61 24 -61 56c0 31 22 55 57 55c39 0 68 -31 68 -86c0 -54 -28 -125 -121 -184z" />
    <glyph glyph-name="quotesinglbase" unicode="&#x201a;" horiz-adv-x="265" 
d="M85 -166l-44 38c66 39 92 83 101 121c-37 0 -61 24 -61 56c0 31 22 55 57 55c39 0 68 -31 68 -86c0 -54 -28 -125 -121 -184z" />
    <glyph glyph-name="quotedblleft" unicode="&#x201c;" horiz-adv-x="445" 
d="M180 732l44 -38c-66 -39 -92 -83 -101 -121c37 0 61 -24 61 -56c0 -31 -22 -55 -57 -55c-39 0 -68 31 -68 86c0 54 28 125 121 184zM360 732l44 -38c-66 -39 -92 -83 -101 -121c37 0 61 -24 61 -56c0 -31 -22 -55 -57 -55c-39 0 -68 31 -68 86c0 54 28 125 121 184z" />
    <glyph glyph-name="quotedblright" unicode="&#x201d;" horiz-adv-x="445" 
d="M85 462l-44 38c66 39 92 83 101 121c-37 0 -61 24 -61 56c0 31 22 55 57 55c39 0 68 -31 68 -86c0 -54 -28 -125 -121 -184zM265 462l-44 38c66 39 92 83 101 121c-37 0 -61 24 -61 56c0 31 22 55 57 55c39 0 68 -31 68 -86c0 -54 -28 -125 -121 -184z" />
    <glyph glyph-name="quotedblbase" unicode="&#x201e;" horiz-adv-x="445" 
d="M85 -166l-44 38c66 39 92 83 101 121c-37 0 -61 24 -61 56c0 31 22 55 57 55c39 0 68 -31 68 -86c0 -54 -28 -125 -121 -184zM265 -166l-44 38c66 39 92 83 101 121c-37 0 -61 24 -61 56c0 31 22 55 57 55c39 0 68 -31 68 -86c0 -54 -28 -125 -121 -184z" />
    <glyph glyph-name="dagger" unicode="&#x2020;" horiz-adv-x="572" 
d="M243 -83l11 492l-182 -7v75l181 -8l-9 211h84l-9 -211l181 8v-75l-182 7l11 -492h-86z" />
    <glyph glyph-name="daggerdbl" unicode="&#x2021;" horiz-adv-x="572" 
d="M328 680l-9 -191l181 8v-75l-182 7v-261l182 7v-75l-181 8l9 -191h-84l9 191l-181 -8v75l182 -7v261l-182 -7v75l181 -8l-9 191h84z" />
    <glyph glyph-name="bullet" unicode="&#x2022;" horiz-adv-x="463" 
d="M354 350c0 -71 -52 -122 -122 -122s-122 51 -122 122s52 122 122 122s122 -51 122 -122z" />
    <glyph glyph-name="onedotenleader" unicode="&#x2024;" horiz-adv-x="283" 
d="M199 46c0 -33 -23 -58 -58 -58c-34 0 -58 25 -58 58s24 58 58 58c35 0 58 -25 58 -58z" />
    <glyph glyph-name="twodotenleader" unicode="&#x2025;" horiz-adv-x="513" 
d="M199 46c0 -33 -23 -58 -58 -58c-34 0 -58 25 -58 58s24 58 58 58c35 0 58 -25 58 -58zM429 46c0 -33 -23 -58 -58 -58c-34 0 -58 25 -58 58s24 58 58 58c35 0 58 -25 58 -58z" />
    <glyph glyph-name="ellipsis" unicode="&#x2026;" horiz-adv-x="743" 
d="M199 46c0 -33 -23 -58 -58 -58c-34 0 -58 25 -58 58s24 58 58 58c35 0 58 -25 58 -58zM429 46c0 -33 -23 -58 -58 -58c-34 0 -58 25 -58 58s24 58 58 58c35 0 58 -25 58 -58zM659 46c0 -33 -23 -58 -58 -58c-34 0 -58 25 -58 58s24 58 58 58c35 0 58 -25 58 -58z" />
    <glyph glyph-name="perthousand" unicode="&#x2030;" horiz-adv-x="1106" 
d="M1048 160c0 -93 -57 -166 -151 -166c-92 0 -149 71 -149 164s57 166 151 166c92 0 149 -71 149 -164zM982 159c0 65 -27 111 -84 111s-84 -46 -84 -111s27 -111 84 -111s84 46 84 111zM358 562c0 -93 -57 -166 -151 -166c-92 0 -149 71 -149 164s57 166 151 166
c92 0 149 -71 149 -164zM292 561c0 65 -27 111 -84 111s-84 -46 -84 -111s27 -111 84 -111s84 46 84 111zM117 0l447 720h75l-447 -720h-75zM698 160c0 -93 -57 -166 -151 -166c-92 0 -149 71 -149 164s57 166 151 166c92 0 149 -71 149 -164zM632 159c0 65 -27 111 -84 111
s-84 -46 -84 -111s27 -111 84 -111s84 46 84 111z" />
    <glyph glyph-name="minute" unicode="&#x2032;" horiz-adv-x="172" 
d="M32 461l34 259h76l-48 -259h-62z" />
    <glyph glyph-name="second" unicode="&#x2033;" horiz-adv-x="336" 
d="M196 461l34 259h76l-48 -259h-62zM32 461l34 259h76l-48 -259h-62z" />
    <glyph glyph-name="guilsinglleft" unicode="&#x2039;" horiz-adv-x="320" 
d="M183 24l-138 231l138 231h80l-133 -231l133 -231h-80z" />
    <glyph glyph-name="guilsinglright" unicode="&#x203a;" horiz-adv-x="320" 
d="M275 255l-138 -231h-80l133 231l-133 231h80z" />
    <glyph glyph-name="exclamdbl" unicode="&#x203c;" horiz-adv-x="543" 
d="M159 -12c-33 0 -56 24 -56 54s23 54 56 54s56 -24 56 -54s-23 -54 -56 -54zM127 202l-15 518h95l-15 -518h-65zM383 -12c-33 0 -56 24 -56 54s23 54 56 54s56 -24 56 -54s-23 -54 -56 -54zM351 202l-15 518h95l-15 -518h-65z" />
    <glyph glyph-name="fraction" unicode="&#x2044;" horiz-adv-x="68" 
d="M-172 0l451 720h70l-450 -720h-71z" />
    <glyph glyph-name="uni2070" unicode="&#x2070;" horiz-adv-x="398" 
d="M364 604c0 -153 -71 -232 -166 -232s-164 79 -164 230c0 153 71 232 166 232s164 -79 164 -230zM97 602c0 -124 41 -177 102 -177s102 53 102 177s-41 177 -102 177s-102 -53 -102 -177z" />
    <glyph glyph-name="uni2071" unicode="&#x2071;" horiz-adv-x="209" 
d="M104 746c-22 0 -38 16 -38 38s16 38 38 38s38 -16 38 -38s-16 -38 -38 -38zM73 380v316h62v-316h-62z" />
    <glyph glyph-name="uni2074" unicode="&#x2074;" horiz-adv-x="378" 
d="M21 472v52l201 302h74v-300h67v-54h-67v-92h-61v92h-214zM84 526h151v227z" />
    <glyph glyph-name="uni2075" unicode="&#x2075;" horiz-adv-x="342" 
d="M253 516c0 63 -41 92 -114 92c-23 0 -58 -3 -100 -16l8 234h249v-55h-191l-4 -116c23 4 43 5 56 5c92 0 159 -49 159 -143c0 -95 -68 -145 -163 -145c-51 0 -97 14 -130 31l17 56c33 -18 69 -33 114 -33c61 0 99 29 99 90z" />
    <glyph glyph-name="uni2076" unicode="&#x2076;" horiz-adv-x="371" 
d="M216 834c41 0 80 -12 106 -28l-19 -55c-25 15 -55 27 -89 27c-67 0 -111 -46 -116 -154c35 34 73 48 112 48c80 0 134 -59 134 -147c0 -99 -68 -153 -146 -153c-94 0 -163 79 -163 227c0 157 77 235 181 235zM196 619c-33 0 -63 -15 -98 -47c6 -100 45 -147 102 -147
c47 0 83 33 83 95c0 61 -34 99 -87 99z" />
    <glyph glyph-name="uni2077" unicode="&#x2077;" horiz-adv-x="338" 
d="M142 380h-68c59 155 112 276 168 389h-214v57h286v-53c-59 -113 -112 -236 -172 -393z" />
    <glyph glyph-name="uni2078" unicode="&#x2078;" horiz-adv-x="367" 
d="M23 494c0 65 48 94 101 117c-42 19 -81 48 -81 105c0 71 61 118 143 118s137 -46 137 -113c0 -55 -37 -80 -84 -103c52 -21 104 -51 104 -119c0 -80 -69 -127 -163 -127c-93 0 -157 46 -157 122zM105 718c0 -38 28 -55 81 -77c51 22 75 41 75 77c0 41 -31 65 -78 65
c-46 0 -78 -24 -78 -65zM281 496c0 48 -43 65 -104 92c-54 -23 -92 -44 -92 -91s39 -75 98 -75c58 0 98 27 98 74z" />
    <glyph glyph-name="uni2079" unicode="&#x2079;" horiz-adv-x="371" 
d="M154 372c-41 0 -78 12 -105 28l19 53c25 -15 54 -27 89 -27c68 0 111 46 116 155c-35 -35 -74 -47 -111 -47c-81 0 -135 57 -135 146c0 99 67 154 146 154c94 0 163 -79 163 -227c0 -158 -78 -235 -182 -235zM175 585c34 0 62 15 98 46c-7 103 -45 148 -102 148
c-48 0 -83 -33 -83 -95c0 -61 33 -99 87 -99z" />
    <glyph glyph-name="uni207A" unicode="&#x207a;" horiz-adv-x="364" 
d="M208 380h-52v131h-125v54h125v131h52v-131h125v-54h-125v-131z" />
    <glyph glyph-name="uni207B" unicode="&#x207b;" horiz-adv-x="364" 
d="M333 565v-54h-302v54h302z" />
    <glyph glyph-name="uni207C" unicode="&#x207c;" horiz-adv-x="364" 
d="M333 500v-50h-302v50h302zM333 626v-50h-302v50h302z" />
    <glyph glyph-name="uni207D" unicode="&#x207d;" horiz-adv-x="234" 
d="M92 550c0 -125 60 -203 117 -252l-31 -34c-63 51 -148 135 -148 286s85 235 148 286l31 -34c-57 -49 -117 -127 -117 -252z" />
    <glyph glyph-name="uni207E" unicode="&#x207e;" horiz-adv-x="235" 
d="M142 550c0 125 -60 203 -117 252l31 34c63 -51 148 -135 148 -286s-85 -235 -148 -286l-31 34c57 49 117 127 117 252z" />
    <glyph glyph-name="uni207F" unicode="&#x207f;" horiz-adv-x="362" 
d="M49 380v316h62v-45c28 29 71 53 121 53c47 0 85 -22 85 -89v-235h-62v218c0 38 -18 51 -46 51c-37 0 -71 -22 -98 -47v-222h-62z" />
    <glyph glyph-name="uni2080" unicode="&#x2080;" horiz-adv-x="398" 
d="M364 118c0 -153 -71 -232 -166 -232s-164 79 -164 230c0 153 71 232 166 232s164 -79 164 -230zM97 116c0 -124 41 -177 102 -177s102 53 102 177s-41 177 -102 177s-102 -53 -102 -177z" />
    <glyph glyph-name="uni2081" unicode="&#x2081;" horiz-adv-x="236" 
d="M39 234l-20 52l102 54h50v-446h-63v377z" />
    <glyph glyph-name="uni2082" unicode="&#x2082;" horiz-adv-x="357" 
d="M247 216c0 44 -27 75 -78 75c-46 0 -82 -26 -115 -66l-21 54c34 41 82 69 143 69c81 0 133 -50 133 -128c0 -77 -50 -149 -186 -272h199v-54h-289v48c155 138 214 208 214 274z" />
    <glyph glyph-name="uni2083" unicode="&#x2083;" horiz-adv-x="348" 
d="M167 348c77 0 135 -38 135 -112c0 -55 -32 -91 -88 -111c66 -16 99 -55 99 -112c0 -82 -68 -127 -163 -127c-51 0 -96 13 -131 32l18 55c32 -19 70 -34 114 -34c59 0 98 27 98 77c0 51 -42 78 -119 78c-15 0 -27 -1 -44 -2v51c100 0 153 29 153 84c0 41 -30 66 -79 66
c-38 0 -71 -15 -108 -40l-16 53c39 27 82 42 131 42z" />
    <glyph glyph-name="uni2084" unicode="&#x2084;" horiz-adv-x="378" 
d="M21 -14v52l201 302h74v-300h67v-54h-67v-92h-61v92h-214zM84 40h151v227z" />
    <glyph glyph-name="uni2085" unicode="&#x2085;" horiz-adv-x="342" 
d="M253 30c0 63 -41 92 -114 92c-23 0 -58 -3 -100 -16l8 234h249v-55h-191l-4 -116c23 4 43 5 56 5c92 0 159 -49 159 -143c0 -95 -68 -145 -163 -145c-51 0 -97 14 -130 31l17 56c33 -18 69 -33 114 -33c61 0 99 29 99 90z" />
    <glyph glyph-name="uni2086" unicode="&#x2086;" horiz-adv-x="371" 
d="M216 348c41 0 80 -12 106 -28l-19 -55c-25 15 -55 27 -89 27c-67 0 -111 -46 -116 -154c35 34 73 48 112 48c80 0 134 -59 134 -147c0 -99 -68 -153 -146 -153c-94 0 -163 79 -163 227c0 157 77 235 181 235zM196 133c-33 0 -63 -15 -98 -47c6 -100 45 -147 102 -147
c47 0 83 33 83 95c0 61 -34 99 -87 99z" />
    <glyph glyph-name="uni2087" unicode="&#x2087;" horiz-adv-x="338" 
d="M142 -106h-68c59 155 112 276 168 389h-214v57h286v-53c-59 -113 -112 -236 -172 -393z" />
    <glyph glyph-name="uni2088" unicode="&#x2088;" horiz-adv-x="367" 
d="M23 8c0 65 48 94 101 117c-42 19 -81 48 -81 105c0 71 61 118 143 118s137 -46 137 -113c0 -55 -37 -80 -84 -103c52 -21 104 -51 104 -119c0 -80 -69 -127 -163 -127c-93 0 -157 46 -157 122zM105 232c0 -38 28 -55 81 -77c51 22 75 41 75 77c0 41 -31 65 -78 65
c-46 0 -78 -24 -78 -65zM281 10c0 48 -43 65 -104 92c-54 -23 -92 -44 -92 -91s39 -75 98 -75c58 0 98 27 98 74z" />
    <glyph glyph-name="uni2089" unicode="&#x2089;" horiz-adv-x="371" 
d="M154 -114c-41 0 -78 12 -105 28l19 53c25 -15 54 -27 89 -27c68 0 111 46 116 155c-35 -35 -74 -47 -111 -47c-81 0 -135 57 -135 146c0 99 67 154 146 154c94 0 163 -79 163 -227c0 -158 -78 -235 -182 -235zM175 99c34 0 62 15 98 46c-7 103 -45 148 -102 148
c-48 0 -83 -33 -83 -95c0 -61 33 -99 87 -99z" />
    <glyph glyph-name="uni208A" unicode="&#x208a;" horiz-adv-x="364" 
d="M208 -106h-52v131h-125v54h125v131h52v-131h125v-54h-125v-131z" />
    <glyph glyph-name="uni208B" unicode="&#x208b;" horiz-adv-x="364" 
d="M333 79v-54h-302v54h302z" />
    <glyph glyph-name="uni208C" unicode="&#x208c;" horiz-adv-x="364" 
d="M333 14v-50h-302v50h302zM333 140v-50h-302v50h302z" />
    <glyph glyph-name="uni208D" unicode="&#x208d;" horiz-adv-x="234" 
d="M92 64c0 -125 60 -203 117 -252l-31 -34c-63 51 -148 135 -148 286s85 235 148 286l31 -34c-57 -49 -117 -127 -117 -252z" />
    <glyph glyph-name="uni208E" unicode="&#x208e;" horiz-adv-x="235" 
d="M142 64c0 125 -60 203 -117 252l31 34c63 -51 148 -135 148 -286s-85 -235 -148 -286l-31 34c57 49 117 127 117 252z" />
    <glyph glyph-name="Euro" unicode="&#x20ac;" horiz-adv-x="626" 
d="M17 257v64h104c-1 10 -1 21 -1 32c0 15 0 29 1 43h-104v64h111c30 180 139 272 280 272c72 0 127 -24 171 -61l-27 -77c-46 38 -90 63 -149 63c-94 0 -166 -63 -189 -197h234v-64h-241c-1 -12 -1 -25 -1 -37c0 -13 0 -26 1 -38h241v-64h-234c23 -134 95 -196 190 -196
c60 0 107 24 152 61l26 -70c-48 -37 -111 -64 -186 -64c-138 0 -242 89 -269 269h-110z" />
    <glyph glyph-name="uni20B1" unicode="&#x20b1;" horiz-adv-x="633" 
d="M12 464v64h89v192h226c143 0 230 -63 242 -192h67v-64h-67c-13 -127 -103 -189 -248 -189h-133v-275h-87v464h-89zM188 648v-120h295c-11 83 -64 120 -161 120h-134zM188 346h134c96 0 150 37 161 118h-295v-118z" />
    <glyph glyph-name="uni20B4" unicode="&#x20b4;" horiz-adv-x="584" 
d="M20 396v64h368c25 21 41 47 41 85c0 66 -50 112 -132 112c-63 0 -118 -27 -168 -65l-26 72c55 40 123 68 203 68c126 0 209 -71 209 -186c0 -35 -8 -63 -21 -86h70v-64h-133c-49 -33 -122 -51 -177 -75h310v-64h-394c-14 -20 -23 -43 -23 -73c0 -77 58 -123 152 -123
c73 0 134 27 190 67l26 -70c-60 -41 -135 -70 -224 -70c-140 0 -231 70 -231 195c0 29 5 53 13 74h-53v64h97c37 34 99 56 149 75h-246z" />
    <glyph glyph-name="uni2113" unicode="&#x2113;" horiz-adv-x="572" 
d="M36 294c35 0 69 2 100 6l45 251c21 118 84 181 175 181c83 0 149 -54 149 -174c0 -154 -108 -267 -295 -311l-9 -53c-3 -18 -5 -34 -5 -49c0 -66 36 -89 99 -89c44 0 80 11 116 32l10 -67c-35 -21 -81 -33 -137 -33c-102 0 -171 40 -171 152c0 19 2 40 6 63l5 30
c-31 -3 -64 -5 -99 -5zM263 542l-40 -223c133 40 209 126 209 240c0 77 -34 103 -73 103c-42 0 -80 -31 -96 -120z" />
    <glyph glyph-name="uni2116" unicode="&#x2116;" horiz-adv-x="1060" 
d="M1001 528c0 -93 -57 -166 -151 -166c-92 0 -149 71 -149 164s57 166 151 166c92 0 149 -71 149 -164zM935 527c0 65 -27 111 -84 111s-84 -46 -84 -111s27 -111 84 -111s84 46 84 111zM92 0v720h97l349 -547v547h82v-720h-72l-374 587v-587h-82z" />
    <glyph glyph-name="uni2117" unicode="&#x2117;" horiz-adv-x="838" 
d="M300 541h139c86 0 138 -38 138 -113s-53 -113 -143 -113h-67v-140h-67v366zM367 370h67c38 0 76 9 76 57c0 49 -38 58 -76 58h-67v-115zM791 360c0 -213 -163 -372 -372 -372s-372 159 -372 372s163 372 372 372s372 -159 372 -372zM98 360c0 -184 141 -322 321 -322
c179 0 321 138 321 322s-142 322 -321 322c-180 0 -321 -138 -321 -322z" />
    <glyph glyph-name="uni2120" unicode="&#x2120;" horiz-adv-x="778" 
d="M668 380l-13 193c-2 33 -3 57 -3 81h-2c-5 -24 -16 -58 -25 -82l-72 -192h-54l-69 192c-2 7 -20 52 -26 82h-2c0 -24 0 -50 -3 -87l-15 -187h-57l33 340h76l67 -194c15 -43 18 -53 23 -80h2c4 23 14 51 25 80l71 194h75l29 -340h-60zM36 404l14 49c31 -17 66 -31 99 -31
c41 0 68 22 68 52c0 77 -170 39 -170 153c0 60 47 100 121 100c37 0 71 -10 100 -29l-14 -52c-28 19 -56 30 -86 30c-38 0 -61 -18 -61 -44c0 -71 170 -31 170 -152c0 -66 -50 -107 -128 -107c-42 0 -81 12 -113 31z" />
    <glyph glyph-name="trademark" unicode="&#x2122;" horiz-adv-x="763" 
d="M653 380l-13 193c-2 33 -3 57 -3 81h-2c-5 -24 -16 -58 -25 -82l-72 -192h-54l-69 192c-2 7 -20 52 -26 82h-2c0 -24 0 -50 -3 -87l-15 -187h-57l33 340h76l67 -194c15 -43 18 -53 23 -80h2c4 23 14 51 25 80l71 194h75l29 -340h-60zM119 380v289h-100v51h261v-51h-100
v-289h-61z" />
    <glyph glyph-name="Omega" unicode="&#x2126;" horiz-adv-x="717" 
d="M358 655c-128 0 -215 -92 -215 -267c0 -137 53 -235 156 -323v-65h-274v77h176c-97 80 -146 185 -146 314c0 210 129 341 305 341c174 0 301 -129 301 -337c0 -131 -51 -240 -146 -318h176v-77h-274v65c103 88 156 186 156 323c0 175 -87 267 -215 267z" />
    <glyph glyph-name="estimated" unicode="&#x212e;" horiz-adv-x="736" 
d="M368 17c75 0 142 31 190 79h53c-56 -65 -143 -108 -242 -108c-169 0 -309 125 -309 277s140 277 308 277s308 -125 308 -277v-15h-498v-154c48 -48 115 -79 190 -79zM368 513c-75 0 -142 -31 -190 -79v-154h380v154c-48 48 -115 79 -190 79z" />
    <glyph glyph-name="uni2150" unicode="&#x2150;" horiz-adv-x="787" 
d="M89 0l451 720h70l-450 -720h-71zM39 614l-20 52l102 54h50v-446h-63v377zM615 0h-68c59 155 112 276 168 389h-214v57h286v-53c-59 -113 -112 -236 -172 -393z" />
    <glyph glyph-name="uni2151" unicode="&#x2151;" horiz-adv-x="800" 
d="M89 0l451 720h70l-450 -720h-71zM585 -5c-41 0 -78 12 -105 28l19 53c25 -15 54 -27 89 -27c68 0 111 46 116 155c-35 -35 -74 -47 -111 -47c-81 0 -135 57 -135 146c0 99 67 154 146 154c94 0 163 -79 163 -227c0 -158 -78 -235 -182 -235zM606 208c34 0 62 15 98 46
c-7 103 -45 148 -102 148c-48 0 -83 -33 -83 -95c0 -61 33 -99 87 -99zM39 614l-20 52l102 54h50v-446h-63v377z" />
    <glyph glyph-name="uni2152" unicode="&#x2152;" horiz-adv-x="1087" 
d="M89 0l451 720h70l-450 -720h-71zM39 614l-20 52l102 54h50v-446h-63v377zM472 340l-20 52l102 54h50v-446h-63v377zM1053 224c0 -153 -71 -232 -166 -232s-164 79 -164 230c0 153 71 232 166 232s164 -79 164 -230zM786 222c0 -124 41 -177 102 -177s102 53 102 177
s-41 177 -102 177s-102 -53 -102 -177z" />
    <glyph glyph-name="onethird" unicode="&#x2153;" horiz-adv-x="799" 
d="M89 0l451 720h70l-450 -720h-71zM620 454c77 0 135 -38 135 -112c0 -55 -32 -91 -88 -111c66 -16 99 -55 99 -112c0 -82 -68 -127 -163 -127c-51 0 -96 13 -131 32l18 55c32 -19 70 -34 114 -34c59 0 98 27 98 77c0 51 -42 78 -119 78c-15 0 -27 -1 -44 -2v51
c100 0 153 29 153 84c0 41 -30 66 -79 66c-38 0 -71 -15 -108 -40l-16 53c39 27 82 42 131 42zM39 614l-20 52l102 54h50v-446h-63v377z" />
    <glyph glyph-name="twothirds" unicode="&#x2154;" horiz-adv-x="938" 
d="M229 0l451 720h70l-450 -720h-71zM759 454c77 0 135 -38 135 -112c0 -55 -32 -91 -88 -111c66 -16 99 -55 99 -112c0 -82 -68 -127 -163 -127c-51 0 -96 13 -131 32l18 55c32 -19 70 -34 114 -34c59 0 98 27 98 77c0 51 -42 78 -119 78c-15 0 -27 -1 -44 -2v51
c100 0 153 29 153 84c0 41 -30 66 -79 66c-38 0 -71 -15 -108 -40l-16 53c39 27 82 42 131 42zM247 596c0 44 -27 75 -78 75c-46 0 -82 -26 -115 -66l-21 54c34 41 82 69 143 69c81 0 133 -50 133 -128c0 -77 -50 -149 -186 -272h199v-54h-289v48c155 138 214 208 214 274z
" />
    <glyph glyph-name="uni2155" unicode="&#x2155;" horiz-adv-x="800" 
d="M89 0l451 720h70l-450 -720h-71zM709 136c0 63 -41 92 -114 92c-23 0 -58 -3 -100 -16l8 234h249v-55h-191l-4 -116c23 4 43 5 56 5c92 0 159 -49 159 -143c0 -95 -68 -145 -163 -145c-51 0 -97 14 -130 31l17 56c33 -18 69 -33 114 -33c61 0 99 29 99 90zM39 614l-20 52
l102 54h50v-446h-63v377z" />
    <glyph glyph-name="uni2156" unicode="&#x2156;" horiz-adv-x="939" 
d="M229 0l451 720h70l-450 -720h-71zM247 596c0 44 -27 75 -78 75c-46 0 -82 -26 -115 -66l-21 54c34 41 82 69 143 69c81 0 133 -50 133 -128c0 -77 -50 -149 -186 -272h199v-54h-289v48c155 138 214 208 214 274zM848 136c0 63 -41 92 -114 92c-23 0 -58 -3 -100 -16
l8 234h249v-55h-191l-4 -116c23 4 43 5 56 5c92 0 159 -49 159 -143c0 -95 -68 -145 -163 -145c-51 0 -97 14 -130 31l17 56c33 -18 69 -33 114 -33c61 0 99 29 99 90z" />
    <glyph glyph-name="uni2157" unicode="&#x2157;" horiz-adv-x="869" 
d="M159 0l451 720h70l-450 -720h-71zM778 136c0 63 -41 92 -114 92c-23 0 -58 -3 -100 -16l8 234h249v-55h-191l-4 -116c23 4 43 5 56 5c92 0 159 -49 159 -143c0 -95 -68 -145 -163 -145c-51 0 -97 14 -130 31l17 56c33 -18 69 -33 114 -33c61 0 99 29 99 90zM165 728
c77 0 135 -38 135 -112c0 -55 -32 -91 -88 -111c66 -16 99 -55 99 -112c0 -82 -68 -127 -163 -127c-51 0 -96 13 -131 32l18 55c32 -19 70 -34 114 -34c59 0 98 27 98 77c0 51 -42 78 -119 78c-15 0 -27 -1 -44 -2v51c100 0 153 29 153 84c0 41 -30 66 -79 66
c-38 0 -71 -15 -108 -40l-16 53c39 27 82 42 131 42z" />
    <glyph glyph-name="uni2158" unicode="&#x2158;" horiz-adv-x="913" 
d="M203 0l451 720h70l-450 -720h-71zM21 366v52l201 302h74v-300h67v-54h-67v-92h-61v92h-214zM84 420h151v227zM822 136c0 63 -41 92 -114 92c-23 0 -58 -3 -100 -16l8 234h249v-55h-191l-4 -116c23 4 43 5 56 5c92 0 159 -49 159 -143c0 -95 -68 -145 -163 -145
c-51 0 -97 14 -130 31l17 56c33 -18 69 -33 114 -33c61 0 99 29 99 90z" />
    <glyph glyph-name="uni2159" unicode="&#x2159;" horiz-adv-x="767" 
d="M89 0l451 720h70l-450 -720h-71zM615 454c41 0 80 -12 106 -28l-19 -55c-25 15 -55 27 -89 27c-67 0 -111 -46 -116 -154c35 34 73 48 112 48c80 0 134 -59 134 -147c0 -99 -68 -153 -146 -153c-94 0 -163 79 -163 227c0 157 77 235 181 235zM595 239
c-33 0 -63 -15 -98 -47c6 -100 45 -147 102 -147c47 0 83 33 83 95c0 61 -34 99 -87 99zM39 614l-20 52l102 54h50v-446h-63v377z" />
    <glyph glyph-name="uni215A" unicode="&#x215a;" horiz-adv-x="835" 
d="M157 0l451 720h70l-450 -720h-71zM253 410c0 63 -41 92 -114 92c-23 0 -58 -3 -100 -16l8 234h249v-55h-191l-4 -116c23 4 43 5 56 5c92 0 159 -49 159 -143c0 -95 -68 -145 -163 -145c-51 0 -97 14 -130 31l17 56c33 -18 69 -33 114 -33c61 0 99 29 99 90zM683 454
c41 0 80 -12 106 -28l-19 -55c-25 15 -55 27 -89 27c-67 0 -111 -46 -116 -154c35 34 73 48 112 48c80 0 134 -59 134 -147c0 -99 -68 -153 -146 -153c-94 0 -163 79 -163 227c0 157 77 235 181 235zM663 239c-33 0 -63 -15 -98 -47c6 -100 45 -147 102 -147
c47 0 83 33 83 95c0 61 -34 99 -87 99z" />
    <glyph glyph-name="oneeighth" unicode="&#x215b;" horiz-adv-x="781" 
d="M89 0l451 720h70l-450 -720h-71zM439 114c0 65 48 94 101 117c-42 19 -81 48 -81 105c0 71 61 118 143 118s137 -46 137 -113c0 -55 -37 -80 -84 -103c52 -21 104 -51 104 -119c0 -80 -69 -127 -163 -127c-93 0 -157 46 -157 122zM521 338c0 -38 28 -55 81 -77
c51 22 75 41 75 77c0 41 -31 65 -78 65c-46 0 -78 -24 -78 -65zM697 116c0 48 -43 65 -104 92c-54 -23 -92 -44 -92 -91s39 -75 98 -75c58 0 98 27 98 74zM39 614l-20 52l102 54h50v-446h-63v377z" />
    <glyph glyph-name="threeeighths" unicode="&#x215c;" horiz-adv-x="852" 
d="M161 0l451 720h70l-450 -720h-71zM510 114c0 65 48 94 101 117c-42 19 -81 48 -81 105c0 71 61 118 143 118s137 -46 137 -113c0 -55 -37 -80 -84 -103c52 -21 104 -51 104 -119c0 -80 -69 -127 -163 -127c-93 0 -157 46 -157 122zM592 338c0 -38 28 -55 81 -77
c51 22 75 41 75 77c0 41 -31 65 -78 65c-46 0 -78 -24 -78 -65zM768 116c0 48 -43 65 -104 92c-54 -23 -92 -44 -92 -91s39 -75 98 -75c58 0 98 27 98 74zM167 728c77 0 135 -38 135 -112c0 -55 -32 -91 -88 -111c66 -16 99 -55 99 -112c0 -82 -68 -127 -163 -127
c-51 0 -96 13 -131 32l18 55c32 -19 70 -34 114 -34c59 0 98 27 98 77c0 51 -42 78 -119 78c-15 0 -27 -1 -44 -2v51c100 0 153 29 153 84c0 41 -30 66 -79 66c-38 0 -71 -15 -108 -40l-16 53c39 27 82 42 131 42z" />
    <glyph glyph-name="fiveeighths" unicode="&#x215d;" horiz-adv-x="849" 
d="M157 0l451 720h70l-450 -720h-71zM507 114c0 65 48 94 101 117c-42 19 -81 48 -81 105c0 71 61 118 143 118s137 -46 137 -113c0 -55 -37 -80 -84 -103c52 -21 104 -51 104 -119c0 -80 -69 -127 -163 -127c-93 0 -157 46 -157 122zM589 338c0 -38 28 -55 81 -77
c51 22 75 41 75 77c0 41 -31 65 -78 65c-46 0 -78 -24 -78 -65zM765 116c0 48 -43 65 -104 92c-54 -23 -92 -44 -92 -91s39 -75 98 -75c58 0 98 27 98 74zM253 410c0 63 -41 92 -114 92c-23 0 -58 -3 -100 -16l8 234h249v-55h-191l-4 -116c23 4 43 5 56 5
c92 0 159 -49 159 -143c0 -95 -68 -145 -163 -145c-51 0 -97 14 -130 31l17 56c33 -18 69 -33 114 -33c61 0 99 29 99 90z" />
    <glyph glyph-name="seveneighths" unicode="&#x215e;" horiz-adv-x="738" 
d="M46 0l451 720h70l-450 -720h-71zM396 114c0 65 48 94 101 117c-42 19 -81 48 -81 105c0 71 61 118 143 118s137 -46 137 -113c0 -55 -37 -80 -84 -103c52 -21 104 -51 104 -119c0 -80 -69 -127 -163 -127c-93 0 -157 46 -157 122zM478 338c0 -38 28 -55 81 -77
c51 22 75 41 75 77c0 41 -31 65 -78 65c-46 0 -78 -24 -78 -65zM654 116c0 48 -43 65 -104 92c-54 -23 -92 -44 -92 -91s39 -75 98 -75c58 0 98 27 98 74zM142 274h-68c59 155 112 276 168 389h-214v57h286v-53c-59 -113 -112 -236 -172 -393z" />
    <glyph glyph-name="uni215F" unicode="&#x215f;" horiz-adv-x="610" 
d="M84 0l451 720h70l-450 -720h-71zM39 614l-20 52l102 54h50v-446h-63v377z" />
    <glyph glyph-name="uni2189" unicode="&#x2189;" horiz-adv-x="904" 
d="M194 0l451 720h70l-450 -720h-71zM725 454c77 0 135 -38 135 -112c0 -55 -32 -91 -88 -111c66 -16 99 -55 99 -112c0 -82 -68 -127 -163 -127c-51 0 -96 13 -131 32l18 55c32 -19 70 -34 114 -34c59 0 98 27 98 77c0 51 -42 78 -119 78c-15 0 -27 -1 -44 -2v51
c100 0 153 29 153 84c0 41 -30 66 -79 66c-38 0 -71 -15 -108 -40l-16 53c39 27 82 42 131 42zM364 498c0 -153 -71 -232 -166 -232s-164 79 -164 230c0 153 71 232 166 232s164 -79 164 -230zM97 496c0 -124 41 -177 102 -177s102 53 102 177s-41 177 -102 177
s-102 -53 -102 -177z" />
    <glyph glyph-name="arrowleft" unicode="&#x2190;" 
d="M358 183l118 -117l-50 -49l-292 292l292 292l50 -49l-118 -117c-44 -44 -76 -75 -100 -91v-2c28 2 72 3 142 3h466v-72h-466c-70 0 -114 1 -142 3v-2c22 -15 54 -45 100 -91z" />
    <glyph glyph-name="arrowup" unicode="&#x2191;" 
d="M743 390l-117 118c-44 44 -75 76 -91 100h-2c2 -28 3 -72 3 -142v-466h-72v466c0 70 1 114 3 142h-2c-15 -22 -45 -54 -91 -100l-117 -118l-49 50l292 292l292 -292z" />
    <glyph glyph-name="arrowright" unicode="&#x2192;" 
d="M524 66l118 117c44 44 76 75 100 91v2c-28 -2 -72 -3 -142 -3h-466v72h466c70 0 114 -1 142 -3v2c-22 15 -54 45 -100 91l-118 117l50 49l292 -292l-292 -292z" />
    <glyph glyph-name="arrowdown" unicode="&#x2193;" 
d="M626 212l117 118l49 -50l-292 -292l-292 292l49 50l117 -118c44 -44 75 -76 91 -100h2c-2 28 -3 72 -3 142v466h72v-466c0 -70 -1 -114 -3 -142h2c15 22 45 54 91 100z" />
    <glyph glyph-name="uni2196" unicode="&#x2196;" 
d="M258 225h-71v413h413v-71h-166c-65 0 -108 1 -135 6l-1 -2c21 -18 51 -46 103 -98l329 -328l-50 -50l-328 329c-56 56 -80 82 -98 103l-2 -1c5 -27 6 -70 6 -135v-166z" />
    <glyph glyph-name="uni2197" unicode="&#x2197;" 
d="M759 225h-71v166c0 65 1 108 6 135l-2 1c-18 -21 -46 -51 -98 -103l-328 -329l-50 50l329 328c56 56 82 80 103 98l-1 2c-27 -5 -70 -6 -135 -6h-166v71h413v-413z" />
    <glyph glyph-name="uni2198" unicode="&#x2198;" 
d="M688 479h71v-413h-413v71h166c65 0 108 -1 135 -6l1 2c-21 18 -51 46 -103 98l-329 328l50 50l328 -329c56 -56 80 -82 98 -103l2 1c-5 27 -6 70 -6 135v166z" />
    <glyph glyph-name="uni2199" unicode="&#x2199;" 
d="M187 479h71v-166c0 -65 -1 -108 -6 -135l2 -1c18 21 46 51 98 103l328 329l50 -50l-329 -328c-56 -56 -82 -80 -103 -98l1 -2c27 5 70 6 135 6h166v-71h-413v413z" />
    <glyph glyph-name="partialdiff" unicode="&#x2202;" horiz-adv-x="572" 
d="M308 662c-43 0 -91 -17 -133 -47l-11 68c41 30 96 49 154 49c127 0 217 -93 217 -313c0 -270 -135 -431 -294 -431c-105 0 -204 70 -204 223c0 170 123 271 254 271c59 0 112 -20 159 -58c-2 167 -54 238 -142 238zM248 55c101 0 181 108 198 288c-46 47 -91 70 -145 70
c-96 0 -178 -74 -178 -202c0 -108 58 -156 125 -156z" />
    <glyph glyph-name="emptyset" unicode="&#x2205;" horiz-adv-x="676" 
d="M555 569l-47 -81c66 -49 108 -128 108 -223c0 -160 -120 -277 -278 -277c-40 0 -79 8 -113 22l-49 -83l-55 34l47 81c-66 49 -108 128 -108 223c0 160 120 277 278 277c40 0 79 -8 113 -22l49 83zM126 265c0 -69 29 -127 77 -165l213 361c-24 8 -50 13 -78 13
c-121 0 -212 -88 -212 -209zM550 265c0 69 -29 127 -77 165l-213 -361c24 -8 50 -13 78 -13c121 0 212 88 212 209z" />
    <glyph glyph-name="Delta" unicode="&#x2206;" horiz-adv-x="677" 
d="M392 720l229 -655v-65h-566v65l234 655h103zM338 631l-190 -554h378z" />
    <glyph glyph-name="product" unicode="&#x220f;" horiz-adv-x="717" 
d="M92 -140v860h530v-860h-88v782h-354v-782h-88z" />
    <glyph glyph-name="summation" unicode="&#x2211;" horiz-adv-x="571" 
d="M46 -140v65l283 371l-262 357v67h469v-78h-357l252 -344l-275 -361h383v-77h-493z" />
    <glyph glyph-name="minus" unicode="&#x2212;" horiz-adv-x="572" 
d="M530 291v-72h-488v72h488z" />
    <glyph glyph-name="uni2215" unicode="&#x2215;" horiz-adv-x="572" 
d="M25 0l451 720h70l-450 -720h-71z" />
    <glyph glyph-name="uni2219" unicode="&#x2219;" horiz-adv-x="572" 
d="M409 350c0 -71 -52 -122 -122 -122s-122 51 -122 122s52 122 122 122s122 -51 122 -122z" />
    <glyph glyph-name="radical" unicode="&#x221a;" horiz-adv-x="572" 
d="M209 -80l-197 510h87l154 -408l265 698h85l-308 -800h-86z" />
    <glyph glyph-name="infinity" unicode="&#x221e;" horiz-adv-x="800" 
d="M398 204c-81 -88 -125 -146 -206 -146c-87 0 -152 68 -152 193c0 126 66 201 155 201c84 0 134 -68 207 -146c81 88 125 146 206 146c87 0 152 -68 152 -193c0 -126 -66 -201 -155 -201c-84 0 -134 68 -207 146zM608 384c-49 0 -87 -40 -166 -127
c84 -94 119 -131 166 -131c51 0 91 44 91 129c0 83 -39 129 -91 129zM192 126c49 0 87 40 166 127c-84 94 -119 131 -166 131c-51 0 -91 -44 -91 -129c0 -83 39 -129 91 -129z" />
    <glyph glyph-name="integral" unicode="&#x222b;" horiz-adv-x="361" 
d="M223 579v-649c0 -91 -48 -140 -160 -140h-30v69h30c59 0 75 25 75 72v649c0 91 48 140 160 140h30v-69h-30c-59 0 -75 -25 -75 -72z" />
    <glyph glyph-name="congruent" unicode="&#x2245;" horiz-adv-x="572" 
d="M530 54v-66h-488v66h488zM530 258v-66h-488v66h488zM166 419c-42 0 -77 -18 -107 -44l-31 59c31 27 81 52 138 52c79 0 170 -48 239 -48c42 0 77 18 107 44l31 -59c-31 -27 -81 -52 -138 -52c-79 0 -170 48 -239 48z" />
    <glyph glyph-name="approxequal" unicode="&#x2248;" horiz-adv-x="572" 
d="M166 340c-42 0 -77 -18 -107 -44l-31 59c31 27 81 52 138 52c79 0 170 -48 239 -48c42 0 77 18 107 44l31 -59c-31 -27 -81 -52 -138 -52c-79 0 -170 48 -239 48zM166 151c-42 0 -77 -18 -107 -44l-31 59c31 27 81 52 138 52c79 0 170 -48 239 -48c42 0 77 18 107 44
l31 -59c-31 -27 -81 -52 -138 -52c-79 0 -170 48 -239 48z" />
    <glyph glyph-name="notequal" unicode="&#x2260;" horiz-adv-x="572" 
d="M530 186v-66h-284l-81 -140l-57 34l61 106h-127v66h165l80 138h-245v66h284l81 140l57 -34l-62 -106h128v-66h-166l-80 -138h246z" />
    <glyph glyph-name="lessequal" unicode="&#x2264;" horiz-adv-x="572" 
d="M42 270v70l488 170v-68l-400 -137l400 -137v-68zM530 54v-66h-488v66h488z" />
    <glyph glyph-name="greaterequal" unicode="&#x2265;" horiz-adv-x="572" 
d="M530 340v-70l-488 -170v68l400 137l-400 137v68zM42 -12v66h488v-66h-488z" />
    <glyph glyph-name="circleplus" unicode="&#x2295;" 
d="M872 360c0 -213 -163 -372 -372 -372s-372 159 -372 372s163 372 372 372s372 -159 372 -372zM179 360c0 -184 141 -322 321 -322c179 0 321 138 321 322s-142 322 -321 322c-180 0 -321 -138 -321 -322zM534 118h-68v208h-199v68h199v208h68v-208h199v-68h-199v-208z
" />
    <glyph glyph-name="uni2296" unicode="&#x2296;" 
d="M872 360c0 -213 -163 -372 -372 -372s-372 159 -372 372s163 372 372 372s372 -159 372 -372zM179 360c0 -184 141 -322 321 -322c179 0 321 138 321 322s-142 322 -321 322c-180 0 -321 -138 -321 -322zM733 326h-466v68h466v-68z" />
    <glyph glyph-name="circlemultiply" unicode="&#x2297;" 
d="M294 519l46 47l160 -159l160 159l46 -47l-158 -159l158 -159l-46 -48l-160 159l-160 -159l-46 48l158 159zM872 360c0 -213 -163 -372 -372 -372s-372 159 -372 372s163 372 372 372s372 -159 372 -372zM179 360c0 -184 141 -322 321 -322c179 0 321 138 321 322
s-142 322 -321 322c-180 0 -321 -138 -321 -322z" />
    <glyph glyph-name="uni2298" unicode="&#x2298;" 
d="M294 201l366 365l46 -47l-366 -366zM872 360c0 -213 -163 -372 -372 -372s-372 159 -372 372s163 372 372 372s372 -159 372 -372zM179 360c0 -184 141 -322 321 -322c179 0 321 138 321 322s-142 322 -321 322c-180 0 -321 -138 -321 -322z" />
    <glyph glyph-name="uni229C" unicode="&#x229c;" 
d="M733 488v-63h-466v63h466zM733 295v-63h-466v63h466zM872 360c0 -213 -163 -372 -372 -372s-372 159 -372 372s163 372 372 372s372 -159 372 -372zM179 360c0 -184 141 -322 321 -322c179 0 321 138 321 322s-142 322 -321 322c-180 0 -321 -138 -321 -322z" />
    <glyph glyph-name="dotmath" unicode="&#x22c5;" horiz-adv-x="572" 
d="M344 258c0 -33 -23 -58 -58 -58c-34 0 -58 25 -58 58s24 58 58 58c35 0 58 -25 58 -58z" />
    <glyph glyph-name="uni2460" unicode="&#x2460;" 
d="M83 330c0 -240 182 -418 417 -418s417 178 417 418s-182 418 -417 418s-417 -178 -417 -418zM968 330c0 -269 -205 -468 -468 -468s-468 199 -468 468s205 468 468 468s468 -199 468 -468zM402 445l-19 51l100 53h49v-436h-62v369z" />
    <glyph glyph-name="uni2461" unicode="&#x2461;" 
d="M83 330c0 -240 182 -418 417 -418s417 178 417 418s-182 418 -417 418s-417 -178 -417 -418zM968 330c0 -269 -205 -468 -468 -468s-468 199 -468 468s205 468 468 468s468 -199 468 -468zM568 428c0 43 -26 73 -76 73c-45 0 -81 -25 -113 -64l-21 52c34 41 81 68 140 68
c80 0 131 -49 131 -125s-49 -146 -182 -266h195v-53h-284v47c152 135 210 203 210 268z" />
    <glyph glyph-name="uni2462" unicode="&#x2462;" 
d="M83 330c0 -240 182 -418 417 -418s417 178 417 418s-182 418 -417 418s-417 -178 -417 -418zM968 330c0 -269 -205 -468 -468 -468s-468 199 -468 468s205 468 468 468s468 -199 468 -468zM502 557c75 0 132 -37 132 -110c0 -53 -31 -89 -86 -108c64 -16 97 -54 97 -110
c0 -80 -67 -124 -160 -124c-50 0 -94 13 -128 31l17 54c32 -19 69 -33 112 -33c58 0 96 26 96 75c0 50 -41 76 -117 76c-14 0 -26 -1 -43 -1v49c98 0 150 29 150 83c0 40 -29 64 -77 64c-37 0 -70 -15 -106 -39l-16 52c38 26 81 41 129 41z" />
    <glyph glyph-name="uni2463" unicode="&#x2463;" 
d="M83 330c0 -240 182 -418 417 -418s417 178 417 418s-182 418 -417 418s-417 -178 -417 -418zM968 330c0 -269 -205 -468 -468 -468s-468 199 -468 468s205 468 468 468s468 -199 468 -468zM302 203v51l197 295h72v-293h66v-53h-66v-90h-60v90h-209zM363 256h148v222z" />
    <glyph glyph-name="uni2464" unicode="&#x2464;" 
d="M83 330c0 -240 182 -418 417 -418s417 178 417 418s-182 418 -417 418s-417 -178 -417 -418zM968 330c0 -269 -205 -468 -468 -468s-468 199 -468 468s205 468 468 468s468 -199 468 -468zM582 246c0 61 -40 90 -112 90c-22 0 -57 -3 -98 -16l8 229h244v-54h-187l-4 -113
c23 4 42 5 55 5c90 0 156 -48 156 -140c0 -93 -67 -142 -160 -142c-50 0 -95 14 -127 30l16 55c33 -18 68 -32 112 -32c60 0 97 28 97 88z" />
    <glyph glyph-name="uni2465" unicode="&#x2465;" 
d="M83 330c0 -240 182 -418 417 -418s417 178 417 418s-182 418 -417 418s-417 -178 -417 -418zM968 330c0 -269 -205 -468 -468 -468s-468 199 -468 468s205 468 468 468s468 -199 468 -468zM517 557c40 0 78 -12 104 -27l-19 -54c-25 14 -54 26 -87 26
c-66 0 -109 -45 -114 -150c34 33 72 46 110 46c78 0 131 -57 131 -143c0 -97 -67 -150 -143 -150c-92 0 -160 77 -160 222c0 154 76 230 178 230zM497 347c-32 0 -62 -15 -96 -46c6 -98 44 -144 100 -144c46 0 81 32 81 93c0 59 -33 97 -85 97z" />
    <glyph glyph-name="uni2466" unicode="&#x2466;" 
d="M83 330c0 -240 182 -418 417 -418s417 178 417 418s-182 418 -417 418s-417 -178 -417 -418zM968 330c0 -269 -205 -468 -468 -468s-468 199 -468 468s205 468 468 468s468 -199 468 -468zM476 113h-66c57 151 109 270 164 380h-210v56h281v-52
c-58 -110 -110 -231 -169 -384z" />
    <glyph glyph-name="uni2467" unicode="&#x2467;" 
d="M83 330c0 -240 182 -418 417 -418s417 178 417 418s-182 418 -417 418s-417 -178 -417 -418zM968 330c0 -269 -205 -468 -468 -468s-468 199 -468 468s205 468 468 468s468 -199 468 -468zM343 224c0 64 47 92 99 115c-42 18 -80 47 -80 103c0 69 60 115 141 115
c80 0 134 -45 134 -110c0 -54 -37 -79 -83 -101c51 -21 102 -50 102 -117c0 -78 -67 -124 -160 -124c-91 0 -153 45 -153 119zM423 443c0 -37 27 -53 79 -75c50 22 74 40 74 75c0 41 -31 64 -77 64c-45 0 -76 -23 -76 -64zM595 226c0 47 -42 64 -102 90
c-52 -22 -89 -43 -89 -89s38 -73 95 -73s96 26 96 72z" />
    <glyph glyph-name="uni2468" unicode="&#x2468;" 
d="M83 330c0 -240 182 -418 417 -418s417 178 417 418s-182 418 -417 418s-417 -178 -417 -418zM968 330c0 -269 -205 -468 -468 -468s-468 199 -468 468s205 468 468 468s468 -199 468 -468zM482 105c-40 0 -77 12 -103 27l19 52c24 -14 53 -26 87 -26c66 0 109 45 114 151
c-35 -34 -73 -46 -109 -46c-80 0 -133 56 -133 143c0 97 66 151 144 151c92 0 159 -77 159 -222c0 -155 -76 -230 -178 -230zM502 313c34 0 61 15 97 45c-7 101 -45 145 -100 145c-47 0 -82 -32 -82 -93c0 -59 33 -97 85 -97z" />
    <glyph glyph-name="uni2469" unicode="&#x2469;" 
d="M83 330c0 -240 182 -418 417 -418s417 178 417 418s-182 418 -417 418s-417 -178 -417 -418zM968 330c0 -269 -205 -468 -468 -468s-468 199 -468 468s205 468 468 468s468 -199 468 -468zM775 332c0 -150 -70 -227 -163 -227s-161 77 -161 225c0 150 70 227 163 227
s161 -77 161 -225zM513 330c0 -121 40 -173 100 -173s100 52 100 173s-40 173 -100 173s-100 -52 -100 -173zM249 445l-19 51l100 53h49v-436h-62v369z" />
    <glyph glyph-name="uni246A" unicode="&#x246a;" 
d="M83 330c0 -240 182 -418 417 -418s417 178 417 418s-182 418 -417 418s-417 -178 -417 -418zM968 330c0 -269 -205 -468 -468 -468s-468 199 -468 468s205 468 468 468s468 -199 468 -468zM532 445l-19 51l100 53h49v-436h-62v369zM295 445l-19 51l100 53h49v-436h-62
v369z" />
    <glyph glyph-name="uni246B" unicode="&#x246b;" 
d="M83 330c0 -240 182 -418 417 -418s417 178 417 418s-182 418 -417 418s-417 -178 -417 -418zM968 330c0 -269 -205 -468 -468 -468s-468 199 -468 468s205 468 468 468s468 -199 468 -468zM251 445l-19 51l100 53h49v-436h-62v369zM680 428c0 43 -26 73 -76 73
c-45 0 -81 -25 -113 -64l-21 52c34 41 81 68 140 68c80 0 131 -49 131 -125s-49 -146 -182 -266h195v-53h-284v47c152 135 210 203 210 268z" />
    <glyph glyph-name="uni246C" unicode="&#x246c;" 
d="M83 330c0 -240 182 -418 417 -418s417 178 417 418s-182 418 -417 418s-417 -178 -417 -418zM968 330c0 -269 -205 -468 -468 -468s-468 199 -468 468s205 468 468 468s468 -199 468 -468zM251 445l-19 51l100 53h49v-436h-62v369zM604 557c75 0 132 -37 132 -110
c0 -53 -31 -89 -86 -108c64 -16 97 -54 97 -110c0 -80 -67 -124 -160 -124c-50 0 -94 13 -128 31l17 54c32 -19 69 -33 112 -33c58 0 96 26 96 75c0 50 -41 76 -117 76c-14 0 -26 -1 -43 -1v49c98 0 150 29 150 83c0 40 -29 64 -77 64c-37 0 -70 -15 -106 -39l-16 52
c38 26 81 41 129 41z" />
    <glyph glyph-name="uni246D" unicode="&#x246d;" 
d="M83 330c0 -240 182 -418 417 -418s417 178 417 418s-182 418 -417 418s-417 -178 -417 -418zM968 330c0 -269 -205 -468 -468 -468s-468 199 -468 468s205 468 468 468s468 -199 468 -468zM440 203v51l197 295h72v-293h66v-53h-66v-90h-60v90h-209zM501 256h148v222z
M251 445l-19 51l100 53h49v-436h-62v369z" />
    <glyph glyph-name="uni246E" unicode="&#x246e;" 
d="M83 330c0 -240 182 -418 417 -418s417 178 417 418s-182 418 -417 418s-417 -178 -417 -418zM968 330c0 -269 -205 -468 -468 -468s-468 199 -468 468s205 468 468 468s468 -199 468 -468zM689 246c0 61 -40 90 -112 90c-22 0 -57 -3 -98 -16l8 229h244v-54h-187l-4 -113
c23 4 42 5 55 5c90 0 156 -48 156 -140c0 -93 -67 -142 -160 -142c-50 0 -95 14 -127 30l16 55c33 -18 68 -32 112 -32c60 0 97 28 97 88zM251 445l-19 51l100 53h49v-436h-62v369z" />
    <glyph glyph-name="uni246F" unicode="&#x246f;" 
d="M83 330c0 -240 182 -418 417 -418s417 178 417 418s-182 418 -417 418s-417 -178 -417 -418zM968 330c0 -269 -205 -468 -468 -468s-468 199 -468 468s205 468 468 468s468 -199 468 -468zM635 557c40 0 78 -12 104 -27l-19 -54c-25 14 -54 26 -87 26
c-66 0 -109 -45 -114 -150c34 33 72 46 110 46c78 0 131 -57 131 -143c0 -97 -67 -150 -143 -150c-92 0 -160 77 -160 222c0 154 76 230 178 230zM615 347c-32 0 -62 -15 -96 -46c6 -98 44 -144 100 -144c46 0 81 32 81 93c0 59 -33 97 -85 97zM251 445l-19 51l100 53h49
v-436h-62v369z" />
    <glyph glyph-name="uni2470" unicode="&#x2470;" 
d="M83 330c0 -240 182 -418 417 -418s417 178 417 418s-182 418 -417 418s-417 -178 -417 -418zM968 330c0 -269 -205 -468 -468 -468s-468 199 -468 468s205 468 468 468s468 -199 468 -468zM585 113h-66c57 151 109 270 164 380h-210v56h281v-52
c-58 -110 -110 -231 -169 -384zM270 445l-19 51l100 53h49v-436h-62v369z" />
    <glyph glyph-name="uni2471" unicode="&#x2471;" 
d="M83 330c0 -240 182 -418 417 -418s417 178 417 418s-182 418 -417 418s-417 -178 -417 -418zM968 330c0 -269 -205 -468 -468 -468s-468 199 -468 468s205 468 468 468s468 -199 468 -468zM251 445l-19 51l100 53h49v-436h-62v369zM451 224c0 64 47 92 99 115
c-42 18 -80 47 -80 103c0 69 60 115 141 115c80 0 134 -45 134 -110c0 -54 -37 -79 -83 -101c51 -21 102 -50 102 -117c0 -78 -67 -124 -160 -124c-91 0 -153 45 -153 119zM531 443c0 -37 27 -53 79 -75c50 22 74 40 74 75c0 41 -31 64 -77 64c-45 0 -76 -23 -76 -64z
M703 226c0 47 -42 64 -102 90c-52 -22 -89 -43 -89 -89s38 -73 95 -73s96 26 96 72z" />
    <glyph glyph-name="uni2472" unicode="&#x2472;" 
d="M83 330c0 -240 182 -418 417 -418s417 178 417 418s-182 418 -417 418s-417 -178 -417 -418zM968 330c0 -269 -205 -468 -468 -468s-468 199 -468 468s205 468 468 468s468 -199 468 -468zM592 105c-40 0 -77 12 -103 27l19 52c24 -14 53 -26 87 -26c66 0 109 45 114 151
c-35 -34 -73 -46 -109 -46c-80 0 -133 56 -133 143c0 97 66 151 144 151c92 0 159 -77 159 -222c0 -155 -76 -230 -178 -230zM612 313c34 0 61 15 97 45c-7 101 -45 145 -100 145c-47 0 -82 -32 -82 -93c0 -59 33 -97 85 -97zM251 445l-19 51l100 53h49v-436h-62v369z" />
    <glyph glyph-name="uni2473" unicode="&#x2473;" 
d="M83 330c0 -240 182 -418 417 -418s417 178 417 418s-182 418 -417 418s-417 -178 -417 -418zM968 330c0 -269 -205 -468 -468 -468s-468 199 -468 468s205 468 468 468s468 -199 468 -468zM837 332c0 -150 -70 -227 -163 -227s-161 77 -161 225c0 150 70 227 163 227
s161 -77 161 -225zM575 330c0 -121 40 -173 100 -173s100 52 100 173s-40 173 -100 173s-100 -52 -100 -173zM407 428c0 43 -26 73 -76 73c-45 0 -81 -25 -113 -64l-21 52c34 41 81 68 140 68c80 0 131 -49 131 -125s-49 -146 -182 -266h195v-53h-284v47
c152 135 210 203 210 268z" />
    <glyph glyph-name="uni24EA" unicode="&#x24ea;" 
d="M83 330c0 -240 182 -418 417 -418s417 178 417 418s-182 418 -417 418s-417 -178 -417 -418zM968 330c0 -269 -205 -468 -468 -468s-468 199 -468 468s205 468 468 468s468 -199 468 -468zM662 332c0 -150 -70 -227 -163 -227s-161 77 -161 225c0 150 70 227 163 227
s161 -77 161 -225zM400 330c0 -121 40 -173 100 -173s100 52 100 173s-40 173 -100 173s-100 -52 -100 -173z" />
    <glyph glyph-name="uni24EB" unicode="&#x24eb;" 
d="M968 330c0 -269 -205 -468 -468 -468s-468 199 -468 468s205 468 468 468s468 -199 468 -468zM516 496l19 -51l68 37v-369h62v436h-49zM273 496l19 -51l68 37v-369h62v436h-49z" />
    <glyph glyph-name="uni24EC" unicode="&#x24ec;" 
d="M968 330c0 -269 -205 -468 -468 -468s-468 199 -468 468s205 468 468 468s468 -199 468 -468zM230 496l19 -51l68 37v-369h62v436h-49zM682 428c0 -65 -58 -133 -210 -268v-47h284v53h-195c133 120 182 190 182 266s-51 125 -131 125c-59 0 -106 -27 -140 -68l21 -52
c32 39 68 64 113 64c50 0 76 -30 76 -73z" />
    <glyph glyph-name="uni24ED" unicode="&#x24ed;" 
d="M968 330c0 -269 -205 -468 -468 -468s-468 199 -468 468s205 468 468 468s468 -199 468 -468zM230 496l19 -51l68 37v-369h62v436h-49zM606 557c-48 0 -91 -15 -129 -41l16 -52c36 24 69 39 106 39c48 0 77 -24 77 -64c0 -54 -52 -83 -150 -83v-49c17 0 29 1 43 1
c76 0 117 -26 117 -76c0 -49 -38 -75 -96 -75c-43 0 -80 14 -112 33l-17 -54c34 -18 78 -31 128 -31c93 0 160 44 160 124c0 56 -33 94 -97 110c55 19 86 55 86 108c0 73 -57 110 -132 110z" />
    <glyph glyph-name="uni24EE" unicode="&#x24ee;" 
d="M968 330c0 -269 -205 -468 -468 -468s-468 199 -468 468s205 468 468 468s468 -199 468 -468zM443 254v-51h209v-90h60v90h66v53h-66v293h-72zM652 256h-148l148 222v-222zM230 496l19 -51l68 37v-369h62v436h-49z" />
    <glyph glyph-name="uni24EF" unicode="&#x24ef;" 
d="M968 330c0 -269 -205 -468 -468 -468s-468 199 -468 468s205 468 468 468s468 -199 468 -468zM691 246c0 -60 -37 -88 -97 -88c-44 0 -79 14 -112 32l-16 -55c32 -16 77 -30 127 -30c93 0 160 49 160 142c0 92 -66 140 -156 140c-13 0 -32 -1 -55 -5l4 113h187v54h-244
l-8 -229c41 13 76 16 98 16c72 0 112 -29 112 -90zM230 496l19 -51l68 37v-369h62v436h-49z" />
    <glyph glyph-name="uni24F0" unicode="&#x24f0;" 
d="M968 330c0 -269 -205 -468 -468 -468s-468 199 -468 468s205 468 468 468s468 -199 468 -468zM638 557c-102 0 -178 -76 -178 -230c0 -145 68 -222 160 -222c76 0 143 53 143 150c0 86 -53 143 -131 143c-38 0 -76 -13 -110 -46c5 105 48 150 114 150c33 0 62 -12 87 -26
l19 54c-26 15 -64 27 -104 27zM618 347c52 0 85 -38 85 -97c0 -61 -35 -93 -81 -93c-56 0 -94 46 -100 144c34 31 64 46 96 46zM230 496l19 -51l68 37v-369h62v436h-49z" />
    <glyph glyph-name="uni24F1" unicode="&#x24f1;" 
d="M968 330c0 -269 -205 -468 -468 -468s-468 199 -468 468s205 468 468 468s468 -199 468 -468zM522 113h66c59 153 111 274 169 384v52h-281v-56h210c-55 -110 -107 -229 -164 -380zM248 496l19 -51l68 37v-369h62v436h-49z" />
    <glyph glyph-name="uni24F2" unicode="&#x24f2;" 
d="M968 330c0 -269 -205 -468 -468 -468s-468 199 -468 468s205 468 468 468s468 -199 468 -468zM454 224c0 -74 62 -119 153 -119c93 0 160 46 160 124c0 67 -51 96 -102 117c46 22 83 47 83 101c0 65 -54 110 -134 110c-81 0 -141 -46 -141 -115c0 -56 38 -85 80 -103
c-52 -23 -99 -51 -99 -115zM534 443c0 41 31 64 76 64c46 0 77 -23 77 -64c0 -35 -24 -53 -74 -75c-52 22 -79 38 -79 75zM706 226c0 -46 -39 -72 -96 -72s-95 27 -95 73s37 67 89 89c60 -26 102 -43 102 -90zM230 496l19 -51l68 37v-369h62v436h-49z" />
    <glyph glyph-name="uni24F3" unicode="&#x24f3;" 
d="M968 330c0 -269 -205 -468 -468 -468s-468 199 -468 468s205 468 468 468s468 -199 468 -468zM594 105c102 0 178 75 178 230c0 145 -67 222 -159 222c-78 0 -144 -54 -144 -151c0 -87 53 -143 133 -143c36 0 74 12 109 46c-5 -106 -48 -151 -114 -151
c-34 0 -63 12 -87 26l-19 -52c26 -15 63 -27 103 -27zM614 313c-52 0 -85 38 -85 97c0 61 35 93 82 93c55 0 93 -44 100 -145c-36 -30 -63 -45 -97 -45zM230 496l19 -51l68 37v-369h62v436h-49z" />
    <glyph glyph-name="uni24F4" unicode="&#x24f4;" 
d="M968 330c0 -269 -205 -468 -468 -468s-468 199 -468 468s205 468 468 468s468 -199 468 -468zM840 332c0 148 -68 225 -161 225s-163 -77 -163 -227c0 -148 68 -225 161 -225s163 77 163 227zM578 330c0 121 40 173 100 173s100 -52 100 -173s-40 -173 -100 -173
s-100 52 -100 173zM404 428c0 -65 -58 -133 -210 -268v-47h284v53h-195c133 120 182 190 182 266s-51 125 -131 125c-59 0 -106 -27 -140 -68l21 -52c32 39 68 64 113 64c50 0 76 -30 76 -73z" />
    <glyph glyph-name="filledbox" unicode="&#x25a0;" 
d="M140 0v720h720v-720h-720z" />
    <glyph glyph-name="uni25A1" unicode="&#x25a1;" 
d="M140 0v720h720v-720h-720zM208 652v-584h584v584h-584z" />
    <glyph glyph-name="triagup" unicode="&#x25b2;" horiz-adv-x="584" 
d="M292 542l255 -442h-510z" />
    <glyph glyph-name="triagrt" unicode="&#x25ba;" horiz-adv-x="584" 
d="M542 309l-442 -255v510z" />
    <glyph glyph-name="triagdn" unicode="&#x25bc;" horiz-adv-x="584" 
d="M547 518l-255 -442l-255 442h510z" />
    <glyph glyph-name="triaglf" unicode="&#x25c4;" horiz-adv-x="584" 
d="M484 54l-442 255l442 255v-510z" />
    <glyph glyph-name="uni25C6" unicode="&#x25c6;" 
d="M128 360l372 372l372 -372l-372 -372z" />
    <glyph glyph-name="uni25C7" unicode="&#x25c7;" 
d="M500 636l-276 -276l276 -276l276 276zM128 360l372 372l372 -372l-372 -372z" />
    <glyph glyph-name="lozenge" unicode="&#x25ca;" horiz-adv-x="584" 
d="M325 0h-66l-223 360l223 360h66l223 -360zM476 360l-184 297l-184 -297l184 -298z" />
    <glyph glyph-name="circle" unicode="&#x25cb;" 
d="M804 360c0 174 -133 304 -304 304s-304 -130 -304 -304s133 -304 304 -304s304 130 304 304zM872 360c0 -213 -163 -372 -372 -372s-372 159 -372 372s163 372 372 372s372 -159 372 -372z" />
    <glyph glyph-name="uni25CF" unicode="&#x25cf;" 
d="M872 360c0 -213 -163 -372 -372 -372s-372 159 -372 372s163 372 372 372s372 -159 372 -372z" />
    <glyph glyph-name="uni2605" unicode="&#x2605;" 
d="M409 459l91 282l91 -282h294l-239 -173l92 -279l-238 172l-238 -172l92 279l-239 173h294z" />
    <glyph glyph-name="uni272D" unicode="&#x272d;" 
d="M500 567l-52 -162h-166l136 -98l-52 -158l134 97l134 -97l-52 158l136 98h-166zM409 459l91 282l91 -282h294l-239 -173l92 -279l-238 172l-238 -172l92 279l-239 173h294z" />
    <glyph glyph-name="uni2756" unicode="&#x2756;" 
d="M127 360l169 168l168 -168l-168 -168zM331 156l168 168l169 -168l-169 -168zM332 564l168 168l168 -168l-168 -168zM536 360l168 168l168 -168l-168 -168z" />
    <glyph glyph-name="uni2767" unicode="&#x2767;" horiz-adv-x="1285" 
d="M121 122l-81 18c22 65 81 230 327 230c265 0 329 -192 522 -232v6c-162 61 -192 193 -370 238c0 95 71 155 165 155c250 0 143 -423 388 -423c51 0 110 18 164 53l9 -90c-53 -33 -116 -49 -188 -49c-44 0 -100 6 -151 37c-84 -47 -182 -77 -283 -77
c-155 0 -222 71 -222 165c0 52 20 93 60 122c-33 12 -69 17 -103 17c-161 0 -219 -112 -237 -170z" />
    <glyph glyph-name="uni2780" unicode="&#x2780;" 
d="M83 330c0 -240 182 -418 417 -418s417 178 417 418s-182 418 -417 418s-417 -178 -417 -418zM968 330c0 -269 -205 -468 -468 -468s-468 199 -468 468s205 468 468 468s468 -199 468 -468zM402 445l-19 51l100 53h49v-436h-62v369z" />
    </font>
</defs>
</svg>
