<?xml version="1.0" standalone="no"?>
<!DOCTYPE svg PUBLIC "-//W3C//DTD SVG 1.1//EN" "http://www.w3.org/Graphics/SVG/1.1/DTD/svg11.dtd" >
<svg xmlns="http://www.w3.org/2000/svg" xmlns:xlink="http://www.w3.org/1999/xlink" version="1.1">
<metadata>
Created by FontForge 20160405 at Thu Mar 29 10:50:01 2018
 By www-data
2011 published by FontShop International GmbH
</metadata>
<defs>
<font id="SeroPro-LightItalic" horiz-adv-x="1000" >
  <font-face 
    font-family="SeroPro-LightItalic"
    font-weight="350"
    font-style="italic"
    font-stretch="normal"
    units-per-em="1000"
    panose-1="2 11 5 4 2 1 1 2 1 2"
    ascent="778"
    descent="-222"
    x-height="510"
    cap-height="720"
    bbox="-352 -222 2776 948"
    underline-thickness="57"
    underline-position="-101"
    slope="-10"
    stemh="59"
    stemv="69"
    unicode-range="U+000D-1F4AC"
  />
<missing-glyph horiz-adv-x="500" 
d="M-45 0l127 720h500l-127 -720h-500zM129 660l-106 -600h385l106 600h-385z" />
    <glyph glyph-name="f_b" unicode="fb" horiz-adv-x="891" 
d="M60 451l11 59h104l15 86c14 80 44 130 146 130c20 0 42 -2 67 -7l-10 -58c-18 4 -34 6 -48 6c-59 0 -79 -31 -89 -88l-12 -69h123l-11 -59h-123l-79 -451h-69l79 451h-104zM483 720h69l-49 -278c45 50 102 80 167 80c100 0 178 -70 178 -220c0 -171 -102 -314 -257 -314
c-59 0 -108 20 -158 74l-11 -62h-66zM654 461c-54 0 -110 -28 -163 -86l-46 -258c42 -45 86 -70 143 -70c123 0 191 118 191 250c0 116 -53 164 -125 164z" />
    <glyph glyph-name="f_f" unicode="ff" horiz-adv-x="636" 
d="M60 451l11 59h104l15 86c14 80 44 130 146 130c20 0 42 -2 67 -7l-10 -58c-18 4 -34 6 -48 6c-59 0 -79 -31 -89 -88l-12 -69h231l15 86c14 80 44 130 146 130c20 0 42 -2 67 -7l-10 -58c-18 4 -34 6 -48 6c-59 0 -79 -31 -89 -88l-12 -69h123l-11 -59h-123l-79 -451h-69
l79 451h-231l-79 -451h-69l79 451h-104z" />
    <glyph glyph-name="f_f_i" unicode="ffi" horiz-adv-x="862" 
d="M662 0l90 510h69l-90 -510h-69zM857 652c0 -27 -19 -46 -46 -46s-46 19 -46 46s19 46 46 46s46 -19 46 -46zM60 451l11 59h104l15 86c14 80 44 130 146 130c20 0 42 -2 67 -7l-10 -58c-18 4 -34 6 -48 6c-59 0 -79 -31 -89 -88l-12 -69h231l15 86c14 80 44 130 146 130
c20 0 42 -2 67 -7l-10 -58c-18 4 -34 6 -48 6c-59 0 -79 -31 -89 -88l-12 -69h123l-11 -59h-123l-79 -451h-69l79 451h-231l-79 -451h-69l79 451h-104z" />
    <glyph glyph-name="f_f_l" unicode="ffl" horiz-adv-x="862" 
d="M662 0l127 720h69l-127 -720h-69zM60 451l11 59h104l15 86c14 80 44 130 146 130c20 0 42 -2 67 -7l-10 -58c-18 4 -34 6 -48 6c-59 0 -79 -31 -89 -88l-12 -69h231l15 86c14 80 44 130 146 130c20 0 42 -2 67 -7l-10 -58c-18 4 -34 6 -48 6c-59 0 -79 -31 -89 -88
l-12 -69h123l-11 -59h-123l-79 -451h-69l79 451h-231l-79 -451h-69l79 451h-104z" />
    <glyph glyph-name="f_h" unicode="fh" horiz-adv-x="889" 
d="M60 451l11 59h104l15 86c14 80 44 130 146 130c20 0 42 -2 67 -7l-10 -58c-18 4 -34 6 -48 6c-59 0 -79 -31 -89 -88l-12 -69h123l-11 -59h-123l-79 -451h-69l79 451h-104zM356 0l127 720h69l-52 -294c50 50 120 96 206 96c66 0 130 -27 130 -121c0 -12 -1 -28 -4 -44
l-63 -357h-69l63 357c2 12 3 22 3 31c0 55 -37 72 -82 72c-77 0 -143 -49 -195 -99l-64 -361h-69z" />
    <glyph glyph-name="f_i" unicode="fi" horiz-adv-x="562" 
d="M362 0l90 510h69l-90 -510h-69zM557 652c0 -27 -19 -46 -46 -46s-46 19 -46 46s19 46 46 46s46 -19 46 -46zM60 451l11 59h104l15 86c14 80 44 130 146 130c20 0 42 -2 67 -7l-10 -58c-18 4 -34 6 -48 6c-59 0 -79 -31 -89 -88l-12 -69h123l-11 -59h-123l-79 -451h-69
l79 451h-104z" />
    <glyph glyph-name="f_j" unicode="fj" horiz-adv-x="563" 
d="M60 451l11 59h104l15 86c14 80 44 130 146 130c20 0 42 -2 67 -7l-10 -58c-18 4 -34 6 -48 6c-59 0 -79 -31 -89 -88l-12 -69h123l-11 -59h-123l-79 -451h-69l79 451h-104zM522 510l-105 -596c-14 -80 -44 -130 -146 -130c-20 0 -42 2 -67 7l10 58c18 -4 34 -6 48 -6
c59 0 79 31 89 88l102 579h69zM558 652c0 -27 -19 -46 -46 -46s-46 19 -46 46s19 46 46 46s46 -19 46 -46z" />
    <glyph glyph-name="f_k" unicode="fk" horiz-adv-x="846" 
d="M60 451l11 59h104l15 86c14 80 44 130 146 130c20 0 42 -2 67 -7l-10 -58c-18 4 -34 6 -48 6c-59 0 -79 -31 -89 -88l-12 -69h123l-11 -59h-123l-79 -451h-69l79 451h-104zM701 0l-143 284l-97 -80l-36 -204h-69l127 720h69l-77 -437l273 227h91l-231 -186l164 -324h-71z
" />
    <glyph glyph-name="f_l" unicode="fl" horiz-adv-x="562" 
d="M362 0l127 720h69l-127 -720h-69zM60 451l11 59h104l15 86c14 80 44 130 146 130c20 0 42 -2 67 -7l-10 -58c-18 4 -34 6 -48 6c-59 0 -79 -31 -89 -88l-12 -69h123l-11 -59h-123l-79 -451h-69l79 451h-104z" />
    <glyph glyph-name="f_t" unicode="ft" horiz-adv-x="675" 
d="M233 451l-79 -451h-69l79 451h-104l11 59h104l15 86c14 80 44 130 146 130c20 0 42 -2 67 -7l-10 -58c-18 4 -34 6 -48 6c-59 0 -79 -31 -89 -88l-12 -69h231l30 170h69l-30 -170h135l-11 -59h-135l-54 -310c-3 -15 -5 -30 -5 -42c0 -34 16 -46 55 -46c30 0 53 7 72 13
l-11 -60c-21 -6 -44 -12 -79 -12c-65 0 -107 21 -107 96c0 20 3 37 8 66l52 295h-231z" />
    <glyph glyph-name=".notdef" horiz-adv-x="500" 
d="M-45 0l127 720h500l-127 -720h-500zM129 660l-106 -600h385l106 600h-385z" />
    <glyph glyph-name=".null" horiz-adv-x="0" 
 />
    <glyph glyph-name="CR" unicode="&#xd;" horiz-adv-x="220" 
 />
    <glyph glyph-name="space" unicode=" " horiz-adv-x="220" 
 />
    <glyph glyph-name="exclam" unicode="!" horiz-adv-x="315" 
d="M122 197l80 523h74l-104 -523h-50zM166 35c0 -27 -19 -47 -47 -47s-47 20 -47 47s19 47 47 47s47 -20 47 -47z" />
    <glyph glyph-name="quotedbl" unicode="&#x22;" horiz-adv-x="395" 
d="M291 467l39 253h64l-49 -253h-54zM125 467l39 253h64l-49 -253h-54z" />
    <glyph glyph-name="numbersign" unicode="#" horiz-adv-x="572" 
d="M247 0l84 216h-159l-84 -216h-56l84 216h-97l10 56h109l53 136h-99l9 56h112l84 216h56l-84 -216h159l84 216h56l-84 -216h97l-10 -56h-109l-53 -136h99l-9 -56h-112l-84 -216h-56zM247 408l-53 -136h159l53 136h-159z" />
    <glyph glyph-name="dollar" unicode="$" horiz-adv-x="559" 
d="M195 -100l18 100c-71 5 -138 28 -193 64l34 60c54 -36 109 -58 170 -62l50 287c-79 34 -158 72 -158 173c0 110 93 191 224 197l14 81h49l-15 -82c63 -6 119 -29 166 -61l-34 -60c-45 32 -90 53 -143 59l-45 -256c82 -34 168 -73 168 -184c0 -119 -98 -206 -238 -216
l-18 -100h-49zM430 204c0 66 -50 98 -110 126l-47 -267c93 10 157 66 157 141zM186 531c0 -58 45 -86 101 -111l41 236c-86 -8 -142 -60 -142 -125z" />
    <glyph glyph-name="percent" unicode="%" horiz-adv-x="742" 
d="M707 720l-569 -720h-65l569 720h65zM163 543c0 -57 26 -99 82 -99c73 0 108 71 108 137c0 57 -26 99 -82 99c-73 0 -108 -71 -108 -137zM408 578c0 -91 -61 -180 -162 -180c-86 0 -138 64 -138 148c0 91 61 180 162 180c86 0 138 -64 138 -148zM427 139
c0 -57 26 -99 82 -99c73 0 108 71 108 137c0 57 -26 99 -82 99c-73 0 -108 -71 -108 -137zM672 174c0 -91 -61 -180 -162 -180c-86 0 -138 64 -138 148c0 91 61 180 162 180c86 0 138 -64 138 -148z" />
    <glyph glyph-name="ampersand" unicode="&#x26;" horiz-adv-x="609" 
d="M161 524c0 103 87 168 199 168c109 0 172 -61 172 -139c0 -105 -114 -149 -226 -195l123 -203c34 34 69 76 105 128l47 -39c-40 -56 -79 -103 -120 -142l58 -93l-57 -37l-51 86c-63 -46 -128 -71 -200 -71c-118 0 -191 67 -191 172c0 120 95 177 197 221
c-23 40 -56 81 -56 144zM216 45c53 0 109 20 165 64l-135 223c-85 -38 -158 -84 -158 -171c0 -68 46 -116 128 -116zM227 524c0 -43 23 -75 51 -120c98 38 189 72 189 145c0 46 -36 86 -106 86c-72 0 -134 -42 -134 -111z" />
    <glyph glyph-name="quotesingle" unicode="'" horiz-adv-x="228" 
d="M125 467l39 253h64l-49 -253h-54z" />
    <glyph glyph-name="parenleft" unicode="(" horiz-adv-x="363" 
d="M112 201c0 -170 72 -286 139 -353l-41 -34c-68 64 -167 183 -167 388c0 284 191 435 329 528l28 -45c-140 -94 -288 -240 -288 -484z" />
    <glyph glyph-name="parenright" unicode=")" horiz-adv-x="363" 
d="M256 343c0 170 -72 286 -139 353l41 34c68 -64 167 -183 167 -388c0 -284 -191 -435 -329 -528l-28 45c140 94 288 240 288 484z" />
    <glyph glyph-name="asterisk" unicode="*" horiz-adv-x="423" 
d="M429 535l-140 11l80 -115l-46 -27l-60 126l-60 -126l-46 27l80 115l-140 -11v54l140 -11l-80 115l46 27l60 -126l60 126l46 -27l-80 -115l140 11v-54z" />
    <glyph glyph-name="plus" unicode="+" horiz-adv-x="572" 
d="M271 0h-60l39 225h-213l10 60h215l39 225h60l-39 -225h213l-10 -60h-215z" />
    <glyph glyph-name="comma" unicode="," horiz-adv-x="279" 
d="M98 -9h-3c-32 0 -51 21 -51 48c0 28 19 49 48 49c36 0 61 -32 61 -77c0 -55 -38 -120 -147 -175l-31 40c82 37 113 79 123 115z" />
    <glyph glyph-name="hyphen" unicode="-" horiz-adv-x="406" 
d="M71 282l10 59h274l-10 -59h-274z" />
    <glyph glyph-name="period" unicode="." horiz-adv-x="279" 
d="M150 38c0 -28 -20 -50 -50 -50s-50 22 -50 50s20 50 50 50s50 -22 50 -50z" />
    <glyph glyph-name="slash" unicode="/" horiz-adv-x="557" 
d="M-28 -40l567 760h76l-567 -760h-76z" />
    <glyph glyph-name="zero" unicode="0" horiz-adv-x="623" 
d="M294 50c143 0 234 178 234 374c0 162 -62 246 -161 246c-143 0 -234 -178 -234 -374c0 -162 62 -246 161 -246zM290 -12c-135 0 -227 109 -227 307c0 227 121 437 308 437c135 0 227 -109 227 -307c0 -227 -121 -437 -308 -437z" />
    <glyph glyph-name="one" unicode="1" horiz-adv-x="355" 
d="M122 574l-15 63l168 83h56l-127 -720h-69l112 635z" />
    <glyph glyph-name="two" unicode="2" horiz-adv-x="562" 
d="M469 545c0 71 -43 124 -129 124c-80 0 -150 -46 -205 -114l-17 64c55 68 136 113 229 113c120 0 191 -74 191 -184c0 -123 -91 -246 -406 -486h338l-11 -62h-449l9 54c338 257 450 375 450 491z" />
    <glyph glyph-name="three" unicode="3" horiz-adv-x="545" 
d="M330 732c110 0 194 -57 194 -164c0 -98 -70 -167 -190 -199c92 -23 143 -81 143 -168c0 -133 -117 -213 -271 -213c-86 0 -159 25 -210 57l33 59c50 -31 109 -55 181 -55c114 0 196 59 196 154c0 89 -70 132 -189 132c-18 0 -36 -1 -64 -2l11 62c177 0 289 55 289 163
c0 75 -54 111 -130 111c-63 0 -124 -25 -182 -67l-11 63c58 42 127 67 200 67z" />
    <glyph glyph-name="four" unicode="4" horiz-adv-x="586" 
d="M15 155l11 60l411 505h95l-89 -503h111l-11 -62h-110l-28 -155h-69l27 155h-348zM101 217h273l76 429z" />
    <glyph glyph-name="five" unicode="5" horiz-adv-x="537" 
d="M419 236c0 102 -67 150 -180 150c-37 0 -91 -5 -157 -26l76 360h384l-11 -63h-319l-48 -222c37 8 66 11 93 11c133 0 232 -72 232 -211c0 -153 -119 -247 -280 -247c-84 0 -156 25 -208 58l34 59c49 -31 107 -55 178 -55c120 0 206 70 206 186z" />
    <glyph glyph-name="six" unicode="6" horiz-adv-x="581" 
d="M401 732c71 0 132 -23 176 -51l-36 -58c-43 27 -88 47 -146 47c-143 0 -238 -120 -258 -293c62 64 131 89 196 89c118 0 204 -84 204 -220c0 -154 -111 -258 -241 -258c-134 0 -233 112 -233 318c0 244 139 426 338 426zM322 405c-65 0 -124 -32 -189 -95v-4
c0 -174 68 -257 167 -257c94 0 168 76 168 192c0 103 -58 164 -146 164z" />
    <glyph glyph-name="seven" unicode="7" horiz-adv-x="544" 
d="M172 0h-85c146 263 274 472 396 656h-361l11 64h449l-10 -59c-123 -185 -252 -395 -400 -661z" />
    <glyph glyph-name="eight" unicode="8" horiz-adv-x="578" 
d="M529 192c0 -124 -115 -204 -266 -204c-141 0 -239 70 -239 187c0 123 110 169 226 207c-72 36 -127 86 -127 166c0 108 102 184 232 184c118 0 205 -63 205 -167c0 -101 -83 -150 -185 -186c81 -38 154 -88 154 -187zM192 550c0 -67 58 -104 127 -139
c89 32 172 68 172 151c0 69 -58 111 -140 111c-89 0 -159 -49 -159 -123zM459 189c0 83 -75 121 -153 161c-107 -38 -212 -75 -212 -174c0 -82 70 -130 171 -130c109 0 194 55 194 143z" />
    <glyph glyph-name="nine" unicode="9" horiz-adv-x="581" 
d="M217 -12c-71 0 -132 23 -176 51l36 57c43 -27 88 -47 146 -47c143 0 238 120 258 293c-62 -63 -132 -88 -196 -88c-118 0 -204 84 -204 220c0 154 111 258 241 258c134 0 233 -112 233 -318c0 -244 -139 -426 -338 -426zM296 314c64 0 123 32 189 94v5
c0 174 -68 257 -167 257c-94 0 -168 -76 -168 -192c0 -103 58 -164 146 -164z" />
    <glyph glyph-name="colon" unicode=":" horiz-adv-x="279" 
d="M150 38c0 -28 -20 -50 -50 -50s-50 22 -50 50s20 50 50 50s50 -22 50 -50zM220 440c0 -28 -20 -50 -50 -50s-50 22 -50 50s20 50 50 50s50 -22 50 -50z" />
    <glyph glyph-name="semicolon" unicode=";" horiz-adv-x="279" 
d="M98 -9h-3c-32 0 -51 21 -51 48c0 28 19 49 48 49c36 0 61 -32 61 -77c0 -55 -38 -120 -147 -175l-31 40c82 37 113 79 123 115zM219 440c0 -28 -20 -50 -50 -50s-50 22 -50 50s20 50 50 50s50 -22 50 -50z" />
    <glyph glyph-name="less" unicode="&#x3c;" horiz-adv-x="572" 
d="M37 227l10 56l528 227l-12 -66l-452 -192l384 -194l-10 -58z" />
    <glyph glyph-name="equal" unicode="=" horiz-adv-x="572" 
d="M553 385l-10 -56h-488l10 56h488zM517 181l-10 -56h-488l10 56h488z" />
    <glyph glyph-name="greater" unicode="&#x3e;" horiz-adv-x="572" 
d="M535 283l-10 -56l-528 -227l12 66l452 192l-384 194l10 58z" />
    <glyph glyph-name="question" unicode="?" horiz-adv-x="423" 
d="M154 197h-58c-2 9 -3 19 -3 29c0 154 259 186 259 338c0 75 -62 108 -138 108c-26 0 -61 -4 -101 -14l10 59c32 10 69 15 102 15c110 0 196 -55 196 -162c0 -187 -268 -217 -268 -354c0 -10 0 -11 1 -19zM142 35c0 -27 -19 -47 -47 -47s-47 20 -47 47s19 47 47 47
s47 -20 47 -47z" />
    <glyph glyph-name="at" unicode="@" horiz-adv-x="836" 
d="M419 -95c-206 0 -370 123 -370 353c0 226 159 391 389 391c206 0 347 -133 347 -334c0 -157 -86 -234 -177 -234c-66 0 -104 40 -110 95c-43 -52 -89 -95 -152 -95c-64 0 -112 43 -112 146c0 112 57 246 213 246c54 0 97 -16 121 -27l-22 -210c-1 -10 -2 -19 -2 -30
c0 -57 29 -78 66 -78c72 0 124 77 124 189c0 172 -123 284 -298 284c-198 0 -336 -145 -336 -343c0 -202 143 -305 318 -305c70 0 138 17 198 40l15 -48c-60 -23 -135 -40 -212 -40zM354 130c55 0 109 60 140 103l18 177c-20 8 -43 15 -72 15c-119 0 -154 -119 -154 -196
c0 -71 30 -99 68 -99z" />
    <glyph glyph-name="A" unicode="A" horiz-adv-x="673" 
d="M462 720l130 -720h-70l-36 206h-311l-109 -206h-75l388 720h83zM409 647l-202 -380h268z" />
    <glyph glyph-name="B" unicode="B" horiz-adv-x="643" 
d="M51 0l127 720h214c130 0 213 -56 213 -173c0 -88 -47 -152 -142 -181c78 -25 112 -82 112 -157c0 -121 -89 -209 -274 -209h-250zM133 61h168c137 0 204 57 204 152c0 86 -55 124 -155 124h-168zM192 396h148c130 0 195 54 195 145c0 82 -53 117 -148 117h-149z" />
    <glyph glyph-name="C" unicode="C" horiz-adv-x="607" 
d="M510 118l12 -65c-51 -37 -120 -65 -197 -65c-149 0 -258 99 -258 305c0 228 133 439 370 439c79 0 140 -23 191 -60l-34 -62c-49 36 -98 58 -165 58c-191 0 -291 -181 -291 -371c0 -169 79 -246 192 -246c70 0 129 29 180 67z" />
    <glyph glyph-name="D" unicode="D" horiz-adv-x="695" 
d="M178 720h210c167 0 277 -113 277 -306c0 -214 -135 -414 -382 -414h-232zM133 64h150c208 0 311 171 311 349c0 157 -81 242 -206 242h-151z" />
    <glyph glyph-name="E" unicode="E" horiz-adv-x="588" 
d="M51 0l127 720h438l-11 -65h-367l-44 -249h323l-11 -63h-323l-50 -279h369l-11 -64h-440z" />
    <glyph glyph-name="F" unicode="F" horiz-adv-x="543" 
d="M51 0l127 720h411l-11 -65h-340l-46 -259h304l-11 -63h-304l-59 -333h-71z" />
    <glyph glyph-name="G" unicode="G" horiz-adv-x="675" 
d="M349 49c53 0 103 13 150 36l40 228h-164l11 61h232l-56 -321c-65 -40 -138 -65 -222 -65c-166 0 -273 98 -273 307c0 234 135 437 380 437c93 0 162 -29 220 -72l-34 -62c-56 42 -113 70 -192 70c-199 0 -303 -173 -303 -368c0 -173 81 -251 211 -251z" />
    <glyph glyph-name="H" unicode="H" horiz-adv-x="703" 
d="M51 0l127 720h71l-55 -312h369l55 312h71l-127 -720h-71l61 343h-369l-61 -343h-71z" />
    <glyph glyph-name="I" unicode="I" horiz-adv-x="281" 
d="M60 0l127 720h71l-127 -720h-71z" />
    <glyph glyph-name="J" unicode="J" horiz-adv-x="405" 
d="M-13 4l11 65c26 -6 59 -11 89 -11c99 0 134 54 150 147l91 515h71l-93 -528c-21 -121 -70 -198 -220 -198c-30 0 -69 3 -99 10z" />
    <glyph glyph-name="K" unicode="K" horiz-adv-x="643" 
d="M51 0l127 720h71l-64 -363l400 363h94l-307 -272l204 -448h-74l-182 402l-151 -132l-47 -270h-71z" />
    <glyph glyph-name="L" unicode="L" horiz-adv-x="530" 
d="M51 0l127 720h71l-116 -655h332l-11 -65h-403z" />
    <glyph glyph-name="M" unicode="M" horiz-adv-x="907" 
d="M763 720h93l-72 -720h-72l51 450c6 53 21 159 26 192h-2c-14 -40 -61 -126 -94 -186l-253 -456h-66l-84 456c-13 68 -29 150 -29 186h-2c-1 -10 -29 -127 -43 -184l-113 -458h-70l186 720h94l79 -452c17 -97 21 -123 28 -180h2c28 59 62 120 93 178z" />
    <glyph glyph-name="N" unicode="N" horiz-adv-x="709" 
d="M51 0l127 720h81l266 -589l104 589h67l-127 -720h-59l-282 623l-110 -623h-67z" />
    <glyph glyph-name="O" unicode="O" horiz-adv-x="716" 
d="M344 52c164 0 269 160 269 355c0 173 -83 261 -205 261c-164 0 -269 -160 -269 -355c0 -173 83 -261 205 -261zM342 -12c-160 0 -274 118 -274 325c0 231 141 419 342 419c160 0 274 -118 274 -325c0 -231 -141 -419 -342 -419z" />
    <glyph glyph-name="P" unicode="P" horiz-adv-x="617" 
d="M51 0l127 720h232c133 0 216 -63 216 -190c0 -138 -98 -223 -272 -223h-178l-54 -307h-71zM238 655l-50 -284h166c136 0 201 58 201 156c0 89 -54 128 -151 128h-166z" />
    <glyph glyph-name="Q" unicode="Q" horiz-adv-x="717" 
d="M416 -192c-85 0 -131 33 -131 123c0 19 2 41 9 61c-135 21 -226 135 -226 321c0 231 141 419 342 419c160 0 274 -118 274 -325c0 -228 -137 -413 -333 -418c-4 -13 -5 -28 -5 -40c0 -63 28 -78 83 -78c39 0 76 8 105 16l-12 -64c-28 -8 -68 -15 -106 -15zM344 52
c164 0 269 160 269 355c0 173 -83 261 -205 261c-164 0 -269 -160 -269 -355c0 -173 83 -261 205 -261z" />
    <glyph glyph-name="R" unicode="R" horiz-adv-x="670" 
d="M489 0l-148 329h-161l-58 -329h-71l127 720h239c134 0 213 -60 213 -180c0 -118 -77 -195 -217 -209l151 -331h-75zM191 388h172c133 0 196 54 196 149c0 83 -49 118 -148 118h-174z" />
    <glyph glyph-name="S" unicode="S" horiz-adv-x="579" 
d="M24 55l34 60c61 -40 124 -64 193 -64c113 0 191 63 191 148c0 172 -316 122 -316 329c0 118 103 204 248 204c78 0 144 -25 200 -64l-35 -61c-52 37 -104 61 -170 61c-101 0 -172 -57 -172 -132c0 -158 316 -107 316 -327c0 -129 -108 -221 -266 -221
c-83 0 -160 25 -223 67z" />
    <glyph glyph-name="T" unicode="T" horiz-adv-x="561" 
d="M200 0l116 655h-214l11 65h499l-11 -65h-214l-116 -655h-71z" />
    <glyph glyph-name="U" unicode="U" horiz-adv-x="687" 
d="M90 265l80 455h71l-82 -466c-4 -23 -5 -44 -5 -58c0 -101 52 -144 157 -144c128 0 193 64 218 203l82 465h69l-84 -478c-31 -177 -129 -254 -287 -254c-142 0 -227 62 -227 198c0 25 3 52 8 79z" />
    <glyph glyph-name="V" unicode="V" horiz-adv-x="646" 
d="M241 0l-123 720h69l104 -628l328 628h74l-380 -720h-72z" />
    <glyph glyph-name="W" unicode="W" horiz-adv-x="953" 
d="M608 0l-45 413c-6 56 -16 152 -19 211h-2c-27 -70 -59 -135 -92 -205l-198 -419h-69l-61 720h70l32 -413c7 -86 12 -140 13 -206h2c18 46 55 130 90 204l197 415h68l44 -413c10 -95 14 -128 18 -206h2c18 52 45 121 82 205l181 414h75l-320 -720h-68z" />
    <glyph glyph-name="X" unicode="X" horiz-adv-x="625" 
d="M-11 0l299 371l-158 349h75l132 -298l236 298h85l-283 -349l170 -371h-75l-144 320l-252 -320h-85z" />
    <glyph glyph-name="Y" unicode="Y" horiz-adv-x="603" 
d="M221 0l55 309l-168 411h72l139 -340l258 340h82l-312 -411l-55 -309h-71z" />
    <glyph glyph-name="Z" unicode="Z" horiz-adv-x="598" 
d="M-4 0l9 54l512 601h-383l11 65h479l-9 -55l-512 -601h410l-11 -64h-506z" />
    <glyph glyph-name="bracketleft" unicode="[" horiz-adv-x="347" 
d="M240 -122l-10 -58h-221l159 900h221l-10 -58h-152l-139 -784h152z" />
    <glyph glyph-name="backslash" unicode="\" horiz-adv-x="557" 
d="M174 720l307 -760h-68l-307 760h68z" />
    <glyph glyph-name="bracketright" unicode="]" horiz-adv-x="347" 
d="M113 662l10 58h221l-159 -900h-221l10 58h152l139 784h-152z" />
    <glyph glyph-name="asciicircum" unicode="^" horiz-adv-x="572" 
d="M341 720h54l143 -488h-56l-123 417l-269 -417h-64z" />
    <glyph glyph-name="underscore" unicode="_" horiz-adv-x="492" 
d="M-72 -130l10 57h500l-10 -57h-500z" />
    <glyph glyph-name="grave" unicode="`" horiz-adv-x="500" 
d="M365 574h-54l-100 146h80z" />
    <glyph glyph-name="a" unicode="a" horiz-adv-x="562" 
d="M448 0h-66c-3 6 -5 14 -5 33c0 13 1 20 4 34c-43 -49 -101 -79 -166 -79c-98 0 -172 66 -172 213c0 175 104 321 253 321c57 0 107 -21 155 -75l11 63h66l-69 -391c-8 -47 -13 -80 -13 -99c0 -8 1 -14 2 -20zM232 47c55 0 110 29 160 86l46 258c-40 45 -82 70 -137 70
c-119 0 -189 -118 -189 -252c0 -113 50 -162 120 -162z" />
    <glyph glyph-name="b" unicode="b" horiz-adv-x="570" 
d="M162 720h69l-49 -278c45 50 102 80 167 80c100 0 178 -70 178 -220c0 -171 -102 -314 -257 -314c-59 0 -108 20 -158 74l-11 -62h-66zM333 461c-54 0 -110 -28 -163 -86l-46 -258c42 -45 86 -70 143 -70c123 0 191 118 191 250c0 116 -53 164 -125 164z" />
    <glyph glyph-name="c" unicode="c" horiz-adv-x="466" 
d="M463 479l-29 -56c-37 27 -70 40 -114 40c-132 0 -208 -118 -208 -251c0 -109 51 -166 133 -166c46 0 96 18 133 47l10 -58c-39 -29 -96 -47 -153 -47c-113 0 -192 71 -192 219c0 170 104 315 282 315c57 0 101 -15 138 -43z" />
    <glyph glyph-name="d" unicode="d" horiz-adv-x="570" 
d="M389 68c-45 -50 -101 -80 -168 -80c-99 0 -178 66 -178 216c0 171 103 318 259 318c59 0 105 -21 153 -72l49 270h69l-106 -601c-9 -52 -13 -83 -13 -99c0 -8 1 -15 2 -20h-66c-3 6 -5 13 -5 32c0 14 1 21 4 36zM238 47c53 0 109 27 162 86l46 258c-42 45 -87 70 -143 70
c-122 0 -191 -118 -191 -249c0 -116 54 -165 126 -165z" />
    <glyph glyph-name="e" unicode="e" horiz-adv-x="525" 
d="M324 522c115 0 169 -67 169 -139c0 -87 -78 -156 -296 -156c-27 0 -56 1 -85 5v-21c0 -105 50 -166 143 -166c52 0 111 19 163 52l11 -58c-53 -33 -120 -51 -182 -51c-128 0 -204 77 -204 219c0 175 116 315 281 315zM321 466c-103 0 -178 -79 -201 -183
c25 -3 49 -5 84 -5c168 0 223 46 223 104c0 47 -35 84 -106 84z" />
    <glyph glyph-name="f" unicode="f" horiz-adv-x="336" 
d="M60 451l11 59h104l15 86c14 80 44 130 146 130c20 0 42 -2 67 -7l-10 -58c-18 4 -34 6 -48 6c-59 0 -79 -31 -89 -88l-12 -69h123l-11 -59h-123l-79 -451h-69l79 451h-104z" />
    <glyph glyph-name="g" unicode="g" horiz-adv-x="569" 
d="M534 510l-89 -503c-27 -152 -132 -223 -260 -223c-59 0 -128 15 -182 44l30 56c53 -27 109 -40 154 -40c83 0 169 44 191 174l10 61c-46 -50 -102 -79 -168 -79c-100 0 -178 66 -178 213c0 168 103 309 257 309c59 0 108 -21 157 -75l12 63h66zM236 59
c62 0 118 35 164 86l44 246c-40 43 -85 70 -143 70c-120 0 -190 -113 -190 -242c0 -113 53 -160 125 -160z" />
    <glyph glyph-name="h" unicode="h" horiz-adv-x="567" 
d="M34 0l127 720h69l-52 -294c50 50 120 96 206 96c66 0 130 -27 130 -121c0 -12 -1 -28 -4 -44l-63 -357h-69l63 357c2 12 3 22 3 31c0 55 -37 72 -82 72c-77 0 -143 -49 -195 -99l-64 -361h-69z" />
    <glyph glyph-name="i" unicode="i" horiz-adv-x="241" 
d="M41 0l90 510h69l-90 -510h-69zM236 652c0 -27 -19 -46 -46 -46s-46 19 -46 46s19 46 46 46s46 -19 46 -46z" />
    <glyph glyph-name="j" unicode="j" horiz-adv-x="241" 
d="M200 510l-105 -596c-14 -80 -44 -130 -146 -130c-20 0 -42 2 -67 7l10 58c18 -4 34 -6 48 -6c59 0 79 31 89 88l102 579h69zM236 652c0 -27 -19 -46 -46 -46s-46 19 -46 46s19 46 46 46s46 -19 46 -46z" />
    <glyph glyph-name="k" unicode="k" horiz-adv-x="524" 
d="M379 0l-143 284l-97 -80l-36 -204h-69l127 720h69l-77 -437l273 227h91l-231 -186l164 -324h-71z" />
    <glyph glyph-name="l" unicode="l" horiz-adv-x="241" 
d="M41 0l127 720h69l-127 -720h-69z" />
    <glyph glyph-name="m" unicode="m" horiz-adv-x="884" 
d="M34 0l90 510h69l-16 -85c46 49 116 97 198 97c56 0 117 -22 123 -102c49 53 121 102 207 102c63 0 126 -26 126 -120c0 -12 -1 -28 -4 -44l-63 -358h-69l63 357c2 12 3 23 3 32c0 54 -34 71 -78 71c-73 0 -136 -48 -186 -97l-64 -363h-69l63 357c2 12 3 23 3 32
c0 54 -33 71 -77 71c-71 0 -131 -45 -186 -101l-64 -359h-69z" />
    <glyph glyph-name="n" unicode="n" horiz-adv-x="567" 
d="M34 0l90 510h69l-15 -84c50 50 120 96 206 96c66 0 130 -27 130 -121c0 -12 -1 -28 -4 -44l-63 -357h-69l63 357c2 12 3 22 3 31c0 55 -37 72 -82 72c-77 0 -143 -49 -195 -99l-64 -361h-69z" />
    <glyph glyph-name="o" unicode="o" horiz-adv-x="554" 
d="M252 46c118 0 190 117 190 246c0 116 -58 172 -140 172c-118 0 -190 -117 -190 -246c0 -116 58 -172 140 -172zM248 -12c-115 0 -205 77 -205 228c0 165 107 306 263 306c115 0 205 -77 205 -228c0 -165 -107 -306 -263 -306z" />
    <glyph glyph-name="p" unicode="p" horiz-adv-x="570" 
d="M125 510h69l-12 -68c45 50 102 80 167 80c100 0 178 -70 178 -220c0 -171 -102 -314 -258 -314c-57 0 -106 19 -155 71l-47 -269h-69zM333 461c-54 0 -110 -28 -163 -86l-46 -258c42 -45 86 -70 143 -70c123 0 191 118 191 250c0 116 -53 164 -125 164z" />
    <glyph glyph-name="q" unicode="q" horiz-adv-x="570" 
d="M409 -210h-69l49 278c-45 -50 -101 -80 -168 -80c-99 0 -178 66 -178 216c0 171 103 318 258 318c57 0 107 -20 157 -75l12 63h66zM238 47c53 0 109 27 162 86l46 258c-42 45 -87 70 -143 70c-122 0 -191 -118 -191 -249c0 -116 54 -165 126 -165z" />
    <glyph glyph-name="r" unicode="r" horiz-adv-x="366" 
d="M391 517l-11 -63c-14 2 -30 3 -41 3c-86 0 -145 -67 -173 -104l-63 -353h-69l90 510h69l-16 -87c34 46 86 99 169 99c12 0 31 -1 45 -5z" />
    <glyph glyph-name="s" unicode="s" horiz-adv-x="454" 
d="M426 476l-30 -56c-41 29 -80 44 -122 44c-67 0 -117 -38 -117 -86c0 -104 230 -67 230 -227c0 -97 -84 -163 -205 -163c-63 0 -123 18 -170 48l30 55c46 -28 93 -46 145 -46c80 0 132 41 132 97c0 118 -230 80 -230 229c0 86 78 151 188 151c56 0 107 -17 149 -46z" />
    <glyph glyph-name="t" unicode="t" horiz-adv-x="375" 
d="M60 451l11 59h104l30 170h69l-30 -170h135l-11 -59h-135l-54 -310c-3 -15 -5 -30 -5 -42c0 -34 16 -46 55 -46c30 0 53 7 72 13l-11 -60c-21 -6 -44 -12 -79 -12c-65 0 -107 21 -107 96c0 20 3 37 8 66l52 295h-104z" />
    <glyph glyph-name="u" unicode="u" horiz-adv-x="567" 
d="M533 510l-90 -510h-69l15 84c-50 -50 -120 -96 -206 -96c-66 0 -130 27 -130 121c0 12 1 28 4 44l63 357h69l-63 -359c-2 -12 -3 -22 -3 -31c0 -55 37 -72 82 -72c77 0 143 49 195 99l64 363h69z" />
    <glyph glyph-name="v" unicode="v" horiz-adv-x="505" 
d="M169 0l-99 510h68l79 -429l233 429h74l-284 -510h-71z" />
    <glyph glyph-name="w" unicode="w" horiz-adv-x="751" 
d="M203 0h-68l-64 510h67l34 -289c7 -57 11 -101 11 -144h2c10 32 34 84 61 139l144 294h65l33 -291c7 -61 10 -91 11 -142h2c12 37 35 91 60 143l139 290h70l-248 -510h-67l-33 286c-9 76 -11 93 -12 143h-2c-19 -49 -41 -94 -65 -143z" />
    <glyph glyph-name="x" unicode="x" horiz-adv-x="504" 
d="M-15 0l227 265l-124 245h72l98 -201l165 201h82l-210 -245l134 -265h-71l-109 221l-185 -221h-79z" />
    <glyph glyph-name="y" unicode="y" horiz-adv-x="505" 
d="M-44 -211l11 61c13 -3 26 -6 45 -6c60 0 96 28 173 168h-24l-90 498h70l75 -446l234 446h74l-273 -508c-99 -185 -145 -218 -239 -218c-16 0 -36 1 -56 5z" />
    <glyph glyph-name="z" unicode="z" horiz-adv-x="482" 
d="M-13 0l8 50l381 401h-290l10 59h384l-8 -50l-381 -401h314l-10 -59h-408z" />
    <glyph glyph-name="braceleft" unicode="{" horiz-adv-x="347" 
d="M31 241l9 58h24c59 0 79 26 87 70l41 231c13 73 55 120 165 120h39l-10 -58h-40c-59 0 -79 -27 -87 -74l-41 -231c-8 -44 -27 -76 -77 -90c31 -15 45 -38 45 -76c0 -10 -1 -19 -3 -31l-38 -214c-1 -6 -2 -13 -2 -20c0 -27 14 -48 65 -48h39l-10 -58h-39
c-78 0 -122 35 -122 107c0 11 1 22 3 35l37 209c1 8 2 12 2 19c0 33 -19 51 -65 51h-22z" />
    <glyph glyph-name="bar" unicode="|" horiz-adv-x="343" 
d="M61 -180l159 900h67l-159 -900h-67z" />
    <glyph glyph-name="braceright" unicode="}" horiz-adv-x="347" 
d="M321 299l-9 -58h-24c-59 0 -79 -26 -87 -70l-41 -231c-13 -73 -55 -120 -165 -120h-39l10 58h40c59 0 79 27 87 74l41 231c8 44 27 76 77 90c-31 15 -45 38 -45 76c0 10 1 19 3 31l38 214c1 6 2 13 2 20c0 27 -14 48 -65 48h-39l10 58h39c78 0 122 -35 122 -107
c0 -11 -1 -22 -3 -35l-37 -209c-1 -8 -2 -12 -2 -19c0 -33 19 -51 65 -51h22z" />
    <glyph glyph-name="asciitilde" unicode="~" horiz-adv-x="572" 
d="M163 250c-41 0 -79 -17 -113 -46l-20 56c29 25 78 50 135 50c80 0 173 -50 243 -50c41 0 79 17 113 46l20 -56c-29 -25 -78 -50 -135 -50c-80 0 -173 50 -243 50z" />
    <glyph glyph-name="uni00A0" unicode="&#xa0;" horiz-adv-x="220" 
 />
    <glyph glyph-name="exclamdown" unicode="&#xa1;" horiz-adv-x="315" 
d="M192 313l-80 -523h-74l104 523h50zM148 475c0 27 19 47 47 47s47 -20 47 -47s-19 -47 -47 -47s-47 20 -47 47z" />
    <glyph glyph-name="cent" unicode="&#xa2;" horiz-adv-x="489" 
d="M90 -143l67 159c-70 30 -112 98 -112 204c0 170 108 314 287 314c15 0 29 -1 43 -3l54 126h47l-58 -136c22 -8 41 -18 59 -30l-30 -57c-18 12 -35 22 -53 29l-171 -404c9 -1 19 -2 30 -2c48 0 99 18 139 47l10 -57c-40 -29 -97 -47 -158 -47c-14 0 -30 1 -45 4l-62 -147
h-47zM113 225c0 -76 25 -127 69 -151l169 400c-7 1 -15 2 -27 2c-131 0 -211 -115 -211 -251z" />
    <glyph glyph-name="sterling" unicode="&#xa3;" horiz-adv-x="474" 
d="M264 341l-32 -114c-23 -81 -56 -128 -106 -159c52 -6 116 -21 167 -21c37 0 73 8 105 26l10 -60c-32 -15 -78 -25 -123 -25c-71 0 -142 24 -205 24c-38 0 -74 -9 -104 -27l-10 60c111 39 168 74 204 203l26 93h-153l10 56h159l52 185c25 90 62 150 179 150
c26 0 50 -3 73 -6l-11 -58c-20 3 -40 5 -57 5c-75 0 -102 -41 -120 -104l-49 -172h179l-10 -56h-184z" />
    <glyph glyph-name="currency" unicode="&#xa4;" horiz-adv-x="572" 
d="M184 255c0 -57 43 -100 99 -100s99 43 99 100s-43 100 -99 100s-99 -43 -99 -100zM432 255c0 -31 -8 -59 -24 -83l86 -87l-40 -42l-88 89c-24 -14 -52 -23 -83 -23s-59 9 -83 23l-88 -89l-40 42l86 87c-16 24 -24 52 -24 83s8 59 24 83l-86 87l40 42l88 -89
c24 14 52 23 83 23s59 -9 83 -23l88 89l40 -42l-86 -87c16 -24 24 -52 24 -83z" />
    <glyph glyph-name="yen" unicode="&#xa5;" horiz-adv-x="594" 
d="M97 271l10 56h159l-158 393h71l136 -341l256 341h79l-297 -393h159l-10 -56h-167l-14 -80h167l-10 -56h-167l-24 -135h-70l23 135h-167l10 56h167l14 80h-167z" />
    <glyph glyph-name="brokenbar" unicode="&#xa6;" horiz-adv-x="343" 
d="M151 330l69 390h67l-69 -390h-67zM61 -180l69 390h67l-69 -390h-67z" />
    <glyph glyph-name="section" unicode="&#xa7;" horiz-adv-x="584" 
d="M388 732c67 0 125 -20 174 -51l-31 -57c-47 31 -94 49 -148 49c-82 0 -163 -41 -196 -129c138 -16 318 -95 318 -310c0 -188 -137 -285 -293 -285c-69 0 -131 19 -183 50l32 56c50 -31 100 -49 157 -49c88 0 172 42 207 131c-132 15 -317 90 -317 311
c0 187 133 284 280 284zM441 231c0 180 -157 239 -267 256c-2 -11 -2 -23 -2 -35c0 -185 156 -244 266 -260c2 12 3 25 3 39z" />
    <glyph glyph-name="dieresis" unicode="&#xa8;" horiz-adv-x="500" 
d="M178 622c0 24 18 43 43 43s43 -19 43 -43s-18 -43 -43 -43s-43 19 -43 43zM364 622c0 24 18 43 43 43s43 -19 43 -43s-18 -43 -43 -43s-43 19 -43 43z" />
    <glyph glyph-name="copyright" unicode="&#xa9;" horiz-adv-x="838" 
d="M539 250l15 -48c-29 -21 -68 -35 -113 -35c-96 0 -165 63 -165 187c0 127 72 195 169 195c45 0 82 -14 107 -33l-13 -52c-25 19 -55 35 -93 35c-65 0 -113 -46 -113 -141c0 -97 50 -142 115 -142c36 0 64 14 91 34zM104 360c0 -187 144 -327 327 -327s327 140 327 327
s-144 327 -327 327s-327 -140 -327 -327zM803 360c0 -213 -163 -372 -372 -372s-372 159 -372 372s163 372 372 372s372 -159 372 -372z" />
    <glyph glyph-name="ordfeminine" unicode="&#xaa;" horiz-adv-x="362" 
d="M284 380c-2 4 -3 9 -3 16s1 13 2 22c-27 -30 -60 -46 -98 -46c-62 0 -108 43 -108 134c0 105 61 198 156 198c36 0 66 -13 92 -44l7 36h52l-43 -242c-6 -35 -8 -49 -8 -59c0 -6 0 -11 1 -15h-50zM199 417c30 0 62 16 91 48l27 153c-24 27 -48 40 -78 40
c-70 0 -109 -69 -109 -146c0 -67 29 -95 69 -95z" />
    <glyph glyph-name="guillemotleft" unicode="&#xab;" horiz-adv-x="487" 
d="M320 24l-101 231l175 231h70l-175 -238l93 -224h-62zM149 24l-101 231l175 231h70l-175 -238l93 -224h-62z" />
    <glyph glyph-name="logicalnot" unicode="&#xac;" horiz-adv-x="572" 
d="M497 66h-60l40 226h-429l10 59h488z" />
    <glyph glyph-name="uni00AD" unicode="&#xad;" horiz-adv-x="406" 
d="M71 282l10 59h274l-10 -59h-274z" />
    <glyph glyph-name="registered" unicode="&#xae;" horiz-adv-x="838" 
d="M803 360c0 -213 -163 -372 -372 -372s-372 159 -372 372s163 372 372 372s372 -159 372 -372zM104 360c0 -187 144 -327 327 -327s327 140 327 327s-144 327 -327 327s-327 -140 -327 -327zM525 175l-94 154h-73v-154h-57v366h138c84 0 133 -36 133 -106
c0 -55 -30 -88 -83 -101l98 -159h-62zM358 374h76c55 0 81 18 81 58c0 41 -26 59 -81 59h-76v-117z" />
    <glyph glyph-name="macron" unicode="&#xaf;" horiz-adv-x="500" 
d="M168 585l10 57h280l-10 -57h-280z" />
    <glyph glyph-name="degree" unicode="&#xb0;" horiz-adv-x="415" 
d="M165 586c0 -57 43 -100 99 -100s99 43 99 100s-43 100 -99 100s-99 -43 -99 -100zM413 586c0 -83 -64 -146 -149 -146s-149 63 -149 146s64 146 149 146s149 -63 149 -146z" />
    <glyph glyph-name="plusminus" unicode="&#xb1;" horiz-adv-x="572" 
d="M288 102h-59l31 176h-214l9 56h215l31 176h59l-31 -176h214l-9 -56h-215zM493 49l-10 -56h-488l10 56h488z" />
    <glyph glyph-name="twosuperior" unicode="&#xb2;" horiz-adv-x="357" 
d="M336 715c0 41 -22 71 -73 71c-50 0 -93 -28 -127 -68l-11 49c33 38 83 67 143 67c78 0 121 -47 121 -116c0 -80 -57 -151 -240 -290h200l-8 -48h-283l6 42c206 153 272 222 272 293z" />
    <glyph glyph-name="threesuperior" unicode="&#xb3;" horiz-adv-x="347" 
d="M257 834c70 0 125 -35 125 -105c0 -59 -41 -101 -111 -122c58 -16 82 -54 82 -102c0 -83 -73 -133 -172 -133c-55 0 -100 15 -133 36l24 44c31 -20 67 -33 111 -33c69 0 117 33 117 88c0 52 -42 75 -112 75c-15 0 -25 -1 -42 -2l8 47c108 0 176 35 176 96
c0 42 -33 63 -79 63c-37 0 -75 -13 -111 -39l-7 47c36 25 79 40 124 40z" />
    <glyph glyph-name="acute" unicode="&#xb4;" horiz-adv-x="500" 
d="M307 574h-60l114 146h92z" />
    <glyph glyph-name="mu" unicode="&#xb5;" horiz-adv-x="572" 
d="M65 -210h-67l126 720h69l-63 -359c-2 -12 -3 -22 -3 -31c0 -55 37 -72 82 -72c77 0 143 49 195 99l64 363h69l-90 -510h-69l15 84c-50 -50 -122 -96 -203 -96c-38 0 -71 10 -93 37c-10 -90 -19 -159 -32 -235z" />
    <glyph glyph-name="paragraph" unicode="&#xb6;" horiz-adv-x="511" 
d="M434 680h63l-99 -563c-25 -140 -93 -183 -239 -212l-7 59c103 20 165 48 183 153zM356 680l-71 -403c-133 0 -208 74 -208 182c0 116 87 221 279 221z" />
    <glyph glyph-name="periodcentered" unicode="&#xb7;" horiz-adv-x="279" 
d="M189 257c0 -28 -20 -50 -50 -50s-50 22 -50 50s20 50 50 50s50 -22 50 -50z" />
    <glyph glyph-name="cedilla" unicode="&#xb8;" horiz-adv-x="500" 
d="M288 -92c0 -56 -46 -92 -117 -92c-43 0 -73 13 -95 25l20 43c20 -12 44 -22 72 -22c41 0 61 22 61 47c0 22 -14 45 -63 58l19 34c60 -9 103 -40 103 -93z" />
    <glyph glyph-name="onesuperior" unicode="&#xb9;" horiz-adv-x="231" 
d="M124 725l-11 48l109 53h43l-79 -446h-53l68 383z" />
    <glyph glyph-name="ordmasculine" unicode="&#xba;" horiz-adv-x="353" 
d="M210 415c68 0 112 69 112 146c0 66 -32 100 -80 100c-68 0 -112 -69 -112 -146c0 -66 32 -100 80 -100zM207 372c-74 0 -129 50 -129 142c0 105 71 190 167 190c74 0 129 -50 129 -142c0 -105 -71 -190 -167 -190z" />
    <glyph glyph-name="guillemotright" unicode="&#xbb;" horiz-adv-x="487" 
d="M336 486l101 -231l-175 -231h-70l175 238l-93 224h62zM165 486l101 -231l-175 -231h-70l175 238l-93 224h62z" />
    <glyph glyph-name="onequarter" unicode="&#xbc;" horiz-adv-x="716" 
d="M334 93l8 46l251 307h70l-55 -306h68l-8 -47h-67l-17 -93h-51l16 93h-215zM397 140h160l45 250zM41 0l571 720h64l-572 -720h-63zM124 619l-11 48l109 53h43l-79 -446h-53l68 383z" />
    <glyph glyph-name="onehalf" unicode="&#xbd;" horiz-adv-x="776" 
d="M42 0l571 720h64l-572 -720h-63zM686 335c0 41 -22 71 -73 71c-50 0 -93 -28 -127 -68l-11 49c33 38 83 67 143 67c78 0 121 -47 121 -116c0 -80 -57 -151 -240 -290h200l-8 -48h-283l6 42c206 153 272 222 272 293zM124 619l-11 48l109 53h43l-79 -446h-53l68 383z" />
    <glyph glyph-name="threequarters" unicode="&#xbe;" horiz-adv-x="788" 
d="M407 93l8 46l251 307h70l-55 -306h68l-8 -47h-67l-17 -93h-51l16 93h-215zM470 140h160l45 250zM114 0l571 720h64l-572 -720h-63zM239 728c70 0 125 -35 125 -105c0 -59 -41 -101 -111 -122c58 -16 82 -54 82 -102c0 -83 -73 -133 -172 -133c-55 0 -100 15 -133 36
l24 44c31 -20 67 -33 111 -33c69 0 117 33 117 88c0 52 -42 75 -112 75c-15 0 -25 -1 -42 -2l8 47c108 0 176 35 176 96c0 42 -33 63 -79 63c-37 0 -75 -13 -111 -39l-7 47c36 25 79 40 124 40z" />
    <glyph glyph-name="questiondown" unicode="&#xbf;" horiz-adv-x="423" 
d="M267 313h58c2 -9 3 -19 3 -29c0 -154 -259 -186 -259 -338c0 -75 62 -108 138 -108c26 0 61 4 101 14l-10 -59c-32 -10 -69 -15 -102 -15c-110 0 -196 55 -196 162c0 187 268 217 268 354c0 10 0 11 -1 19zM279 475c0 27 19 47 47 47s47 -20 47 -47s-19 -47 -47 -47
s-47 20 -47 47z" />
    <glyph glyph-name="Agrave" unicode="&#xc0;" horiz-adv-x="673" 
d="M462 720l130 -720h-70l-36 206h-311l-109 -206h-75l388 720h83zM409 647l-202 -380h268zM487 783h-55l-103 125h80z" />
    <glyph glyph-name="Aacute" unicode="&#xc1;" horiz-adv-x="673" 
d="M462 720l130 -720h-70l-36 206h-311l-109 -206h-75l388 720h83zM409 647l-202 -380h268zM429 783h-59l110 125h92z" />
    <glyph glyph-name="Acircumflex" unicode="&#xc2;" horiz-adv-x="673" 
d="M462 720l130 -720h-70l-36 206h-311l-109 -206h-75l388 720h83zM409 647l-202 -380h268zM340 783h-61l144 125h56l99 -125h-51l-81 68z" />
    <glyph glyph-name="Atilde" unicode="&#xc3;" horiz-adv-x="673" 
d="M462 720l130 -720h-70l-36 206h-311l-109 -206h-75l388 720h83zM409 647l-202 -380h268zM327 783h-46c12 70 44 103 90 103c57 0 97 -53 137 -53c17 0 34 10 40 47h46c-12 -70 -44 -103 -90 -103c-57 0 -97 53 -137 53c-17 0 -34 -10 -40 -47z" />
    <glyph glyph-name="Adieresis" unicode="&#xc4;" horiz-adv-x="673" 
d="M462 720l130 -720h-70l-36 206h-311l-109 -206h-75l388 720h83zM409 647l-202 -380h268zM301 825c0 24 18 43 43 43s43 -19 43 -43s-18 -43 -43 -43s-43 19 -43 43zM487 825c0 24 18 43 43 43s43 -19 43 -43s-18 -43 -43 -43s-43 19 -43 43z" />
    <glyph glyph-name="Aring" unicode="&#xc5;" horiz-adv-x="673" 
d="M514 759c0 -33 -18 -61 -46 -76l124 -683h-70l-36 206h-311l-109 -206h-75l374 695c-17 15 -28 38 -28 64c0 48 38 86 89 86c50 0 88 -38 88 -86zM409 647l-202 -380h268zM377 759c0 -26 19 -47 49 -47c29 0 48 21 48 47s-19 47 -48 47c-30 0 -49 -21 -49 -47z" />
    <glyph glyph-name="AE" unicode="&#xc6;" horiz-adv-x="933" 
d="M426 0l36 206h-250l-147 -206h-83l528 720h451l-11 -65h-337l-44 -249h293l-11 -63h-293l-50 -279h339l-11 -64h-410zM256 267h217l71 401z" />
    <glyph glyph-name="Ccedilla" unicode="&#xc7;" horiz-adv-x="607" 
d="M375 -93c0 -55 -46 -91 -117 -91c-43 0 -73 13 -95 25l20 43c20 -12 44 -22 72 -22c41 0 61 22 61 47c0 22 -14 45 -63 58l14 26c-119 23 -200 121 -200 300c0 228 133 439 370 439c79 0 140 -23 191 -60l-34 -62c-49 36 -98 58 -165 58c-191 0 -291 -181 -291 -371
c0 -169 79 -246 192 -246c70 0 129 29 180 67l12 -65c-51 -37 -120 -65 -197 -65h-7c34 -15 57 -42 57 -81z" />
    <glyph glyph-name="Egrave" unicode="&#xc8;" horiz-adv-x="588" 
d="M51 0l127 720h438l-11 -65h-367l-44 -249h323l-11 -63h-323l-50 -279h369l-11 -64h-440zM467 783h-55l-103 125h80z" />
    <glyph glyph-name="Eacute" unicode="&#xc9;" horiz-adv-x="588" 
d="M51 0l127 720h438l-11 -65h-367l-44 -249h323l-11 -63h-323l-50 -279h369l-11 -64h-440zM409 783h-59l110 125h92z" />
    <glyph glyph-name="Ecircumflex" unicode="&#xca;" horiz-adv-x="588" 
d="M51 0l127 720h438l-11 -65h-367l-44 -249h323l-11 -63h-323l-50 -279h369l-11 -64h-440zM320 783h-61l144 125h56l99 -125h-51l-81 68z" />
    <glyph glyph-name="Edieresis" unicode="&#xcb;" horiz-adv-x="588" 
d="M51 0l127 720h438l-11 -65h-367l-44 -249h323l-11 -63h-323l-50 -279h369l-11 -64h-440zM281 825c0 24 18 43 43 43s43 -19 43 -43s-18 -43 -43 -43s-43 19 -43 43zM467 825c0 24 18 43 43 43s43 -19 43 -43s-18 -43 -43 -43s-43 19 -43 43z" />
    <glyph glyph-name="Igrave" unicode="&#xcc;" horiz-adv-x="281" 
d="M60 0l127 720h71l-127 -720h-71zM291 783h-55l-103 125h80z" />
    <glyph glyph-name="Iacute" unicode="&#xcd;" horiz-adv-x="281" 
d="M60 0l127 720h71l-127 -720h-71zM233 783h-59l110 125h92z" />
    <glyph glyph-name="Icircumflex" unicode="&#xce;" horiz-adv-x="281" 
d="M60 0l127 720h71l-127 -720h-71zM144 783h-61l144 125h56l99 -125h-51l-81 68z" />
    <glyph glyph-name="Idieresis" unicode="&#xcf;" horiz-adv-x="281" 
d="M60 0l127 720h71l-127 -720h-71zM105 825c0 24 18 43 43 43s43 -19 43 -43s-18 -43 -43 -43s-43 19 -43 43zM291 825c0 24 18 43 43 43s43 -19 43 -43s-18 -43 -43 -43s-43 19 -43 43z" />
    <glyph glyph-name="Eth" unicode="&#xd0;" horiz-adv-x="695" 
d="M29 348l10 57h83l56 315h210c167 0 277 -113 277 -306c0 -214 -135 -414 -382 -414h-232l61 348h-83zM133 64h150c208 0 311 171 311 349c0 157 -81 242 -206 242h-151l-44 -250h197l-10 -57h-197z" />
    <glyph glyph-name="Ntilde" unicode="&#xd1;" horiz-adv-x="709" 
d="M51 0l127 720h81l266 -589l104 589h67l-127 -720h-59l-282 623l-110 -623h-67zM345 783h-46c12 70 44 103 90 103c57 0 97 -53 137 -53c17 0 34 10 40 47h46c-12 -70 -44 -103 -90 -103c-57 0 -97 53 -137 53c-17 0 -34 -10 -40 -47z" />
    <glyph glyph-name="Ograve" unicode="&#xd2;" horiz-adv-x="716" 
d="M344 52c164 0 269 160 269 355c0 173 -83 261 -205 261c-164 0 -269 -160 -269 -355c0 -173 83 -261 205 -261zM342 -12c-160 0 -274 118 -274 325c0 231 141 419 342 419c160 0 274 -118 274 -325c0 -231 -141 -419 -342 -419zM499 783h-55l-103 125h80z" />
    <glyph glyph-name="Oacute" unicode="&#xd3;" horiz-adv-x="716" 
d="M344 52c164 0 269 160 269 355c0 173 -83 261 -205 261c-164 0 -269 -160 -269 -355c0 -173 83 -261 205 -261zM342 -12c-160 0 -274 118 -274 325c0 231 141 419 342 419c160 0 274 -118 274 -325c0 -231 -141 -419 -342 -419zM441 783h-59l110 125h92z" />
    <glyph glyph-name="Ocircumflex" unicode="&#xd4;" horiz-adv-x="716" 
d="M344 52c164 0 269 160 269 355c0 173 -83 261 -205 261c-164 0 -269 -160 -269 -355c0 -173 83 -261 205 -261zM342 -12c-160 0 -274 118 -274 325c0 231 141 419 342 419c160 0 274 -118 274 -325c0 -231 -141 -419 -342 -419zM352 783h-61l144 125h56l99 -125h-51
l-81 68z" />
    <glyph glyph-name="Otilde" unicode="&#xd5;" horiz-adv-x="716" 
d="M344 52c164 0 269 160 269 355c0 173 -83 261 -205 261c-164 0 -269 -160 -269 -355c0 -173 83 -261 205 -261zM342 -12c-160 0 -274 118 -274 325c0 231 141 419 342 419c160 0 274 -118 274 -325c0 -231 -141 -419 -342 -419zM338 783h-46c12 70 44 103 90 103
c57 0 97 -53 137 -53c17 0 34 10 40 47h46c-12 -70 -44 -103 -90 -103c-57 0 -97 53 -137 53c-17 0 -34 -10 -40 -47z" />
    <glyph glyph-name="Odieresis" unicode="&#xd6;" horiz-adv-x="716" 
d="M344 52c164 0 269 160 269 355c0 173 -83 261 -205 261c-164 0 -269 -160 -269 -355c0 -173 83 -261 205 -261zM342 -12c-160 0 -274 118 -274 325c0 231 141 419 342 419c160 0 274 -118 274 -325c0 -231 -141 -419 -342 -419zM312 825c0 24 18 43 43 43s43 -19 43 -43
s-18 -43 -43 -43s-43 19 -43 43zM498 825c0 24 18 43 43 43s43 -19 43 -43s-18 -43 -43 -43s-43 19 -43 43z" />
    <glyph glyph-name="multiply" unicode="&#xd7;" horiz-adv-x="572" 
d="M104 431l44 36l140 -172l202 172l37 -45l-201 -171l141 -173l-44 -36l-140 172l-202 -172l-37 45l201 171z" />
    <glyph glyph-name="Oslash" unicode="&#xd8;" horiz-adv-x="716" 
d="M137 312c0 -51 7 -96 21 -133l411 408c-36 55 -93 83 -161 83c-165 0 -271 -161 -271 -358zM343 50c166 0 272 161 272 356c0 53 -8 97 -22 134l-411 -408c37 -55 93 -82 161 -82zM342 -12c-86 0 -158 34 -207 97l-98 -97l-35 36l105 104c-25 50 -39 112 -39 185
c0 231 141 419 342 419c86 0 158 -34 207 -98l98 98l35 -36l-106 -105c26 -49 40 -111 40 -184c0 -231 -141 -419 -342 -419z" />
    <glyph glyph-name="Ugrave" unicode="&#xd9;" horiz-adv-x="687" 
d="M90 265l80 455h71l-82 -466c-4 -23 -5 -44 -5 -58c0 -101 52 -144 157 -144c128 0 193 64 218 203l82 465h69l-84 -478c-31 -177 -129 -254 -287 -254c-142 0 -227 62 -227 198c0 25 3 52 8 79zM494 783h-55l-103 125h80z" />
    <glyph glyph-name="Uacute" unicode="&#xda;" horiz-adv-x="687" 
d="M90 265l80 455h71l-82 -466c-4 -23 -5 -44 -5 -58c0 -101 52 -144 157 -144c128 0 193 64 218 203l82 465h69l-84 -478c-31 -177 -129 -254 -287 -254c-142 0 -227 62 -227 198c0 25 3 52 8 79zM436 783h-59l110 125h92z" />
    <glyph glyph-name="Ucircumflex" unicode="&#xdb;" horiz-adv-x="687" 
d="M90 265l80 455h71l-82 -466c-4 -23 -5 -44 -5 -58c0 -101 52 -144 157 -144c128 0 193 64 218 203l82 465h69l-84 -478c-31 -177 -129 -254 -287 -254c-142 0 -227 62 -227 198c0 25 3 52 8 79zM347 783h-61l144 125h56l99 -125h-51l-81 68z" />
    <glyph glyph-name="Udieresis" unicode="&#xdc;" horiz-adv-x="687" 
d="M90 265l80 455h71l-82 -466c-4 -23 -5 -44 -5 -58c0 -101 52 -144 157 -144c128 0 193 64 218 203l82 465h69l-84 -478c-31 -177 -129 -254 -287 -254c-142 0 -227 62 -227 198c0 25 3 52 8 79zM308 825c0 24 18 43 43 43s43 -19 43 -43s-18 -43 -43 -43s-43 19 -43 43z
M494 825c0 24 18 43 43 43s43 -19 43 -43s-18 -43 -43 -43s-43 19 -43 43z" />
    <glyph glyph-name="Yacute" unicode="&#xdd;" horiz-adv-x="603" 
d="M221 0l55 309l-168 411h72l139 -340l258 340h82l-312 -411l-55 -309h-71zM395 783h-59l110 125h92z" />
    <glyph glyph-name="Thorn" unicode="&#xde;" horiz-adv-x="616" 
d="M51 0l127 720h71l-18 -100h161c133 0 216 -63 216 -191c0 -137 -97 -222 -272 -222h-178l-36 -207h-71zM220 555l-50 -284h166c136 0 201 59 201 156c0 89 -53 128 -151 128h-166z" />
    <glyph glyph-name="germandbls" unicode="&#xdf;" horiz-adv-x="586" 
d="M274 362l10 59c98 0 183 46 183 143c0 77 -53 110 -115 110c-74 0 -137 -46 -156 -153l-92 -521h-69l94 532c24 136 113 200 222 200c101 0 184 -54 184 -162c0 -91 -59 -152 -146 -178c89 -27 139 -93 139 -190c0 -130 -89 -214 -220 -214c-45 0 -86 10 -118 23l24 54
c30 -12 60 -19 91 -19c91 0 154 60 154 159c0 106 -73 157 -185 157z" />
    <glyph glyph-name="agrave" unicode="&#xe0;" horiz-adv-x="562" 
d="M448 0h-66c-3 6 -5 14 -5 33c0 13 1 20 4 34c-43 -49 -101 -79 -166 -79c-98 0 -172 66 -172 213c0 175 104 321 253 321c57 0 107 -21 155 -75l11 63h66l-69 -391c-8 -47 -13 -80 -13 -99c0 -8 1 -14 2 -20zM232 47c55 0 110 29 160 86l46 258c-40 45 -82 70 -137 70
c-119 0 -189 -118 -189 -252c0 -113 50 -162 120 -162zM401 574h-54l-100 146h80z" />
    <glyph glyph-name="aacute" unicode="&#xe1;" horiz-adv-x="562" 
d="M448 0h-66c-3 6 -5 14 -5 33c0 13 1 20 4 34c-43 -49 -101 -79 -166 -79c-98 0 -172 66 -172 213c0 175 104 321 253 321c57 0 107 -21 155 -75l11 63h66l-69 -391c-8 -47 -13 -80 -13 -99c0 -8 1 -14 2 -20zM232 47c55 0 110 29 160 86l46 258c-40 45 -82 70 -137 70
c-119 0 -189 -118 -189 -252c0 -113 50 -162 120 -162zM322 574h-60l114 146h92z" />
    <glyph glyph-name="acircumflex" unicode="&#xe2;" horiz-adv-x="562" 
d="M448 0h-66c-3 6 -5 14 -5 33c0 13 1 20 4 34c-43 -49 -101 -79 -166 -79c-98 0 -172 66 -172 213c0 175 104 321 253 321c57 0 107 -21 155 -75l11 63h66l-69 -391c-8 -47 -13 -80 -13 -99c0 -8 1 -14 2 -20zM232 47c55 0 110 29 160 86l46 258c-40 45 -82 70 -137 70
c-119 0 -189 -118 -189 -252c0 -113 50 -162 120 -162zM253 574h-60l148 146h55l96 -146h-51l-78 89z" />
    <glyph glyph-name="atilde" unicode="&#xe3;" horiz-adv-x="562" 
d="M448 0h-66c-3 6 -5 14 -5 33c0 13 1 20 4 34c-43 -49 -101 -79 -166 -79c-98 0 -172 66 -172 213c0 175 104 321 253 321c57 0 107 -21 155 -75l11 63h66l-69 -391c-8 -47 -13 -80 -13 -99c0 -8 1 -14 2 -20zM232 47c55 0 110 29 160 86l46 258c-40 45 -82 70 -137 70
c-119 0 -189 -118 -189 -252c0 -113 50 -162 120 -162zM242 580h-46c12 73 45 105 89 105c59 0 97 -56 137 -56c17 0 34 11 41 50h46c-12 -73 -45 -105 -89 -105c-59 0 -97 56 -137 56c-17 0 -34 -11 -41 -50z" />
    <glyph glyph-name="adieresis" unicode="&#xe4;" horiz-adv-x="562" 
d="M448 0h-66c-3 6 -5 14 -5 33c0 13 1 20 4 34c-43 -49 -101 -79 -166 -79c-98 0 -172 66 -172 213c0 175 104 321 253 321c57 0 107 -21 155 -75l11 63h66l-69 -391c-8 -47 -13 -80 -13 -99c0 -8 1 -14 2 -20zM232 47c55 0 110 29 160 86l46 258c-40 45 -82 70 -137 70
c-119 0 -189 -118 -189 -252c0 -113 50 -162 120 -162zM216 622c0 24 18 43 43 43s43 -19 43 -43s-18 -43 -43 -43s-43 19 -43 43zM402 622c0 24 18 43 43 43s43 -19 43 -43s-18 -43 -43 -43s-43 19 -43 43z" />
    <glyph glyph-name="aring" unicode="&#xe5;" horiz-adv-x="562" 
d="M448 0h-66c-3 6 -5 14 -5 33c0 13 1 20 4 34c-43 -49 -101 -79 -166 -79c-98 0 -172 66 -172 213c0 175 104 321 253 321c57 0 107 -21 155 -75l11 63h66l-69 -391c-8 -47 -13 -80 -13 -99c0 -8 1 -14 2 -20zM232 47c55 0 110 29 160 86l46 258c-40 45 -82 70 -137 70
c-119 0 -189 -118 -189 -252c0 -113 50 -162 120 -162zM308 655c0 -26 19 -47 48 -47s48 21 48 47s-19 47 -48 47s-48 -21 -48 -47zM443 655c0 -48 -37 -86 -87 -86s-87 38 -87 86s37 86 87 86s87 -38 87 -86z" />
    <glyph glyph-name="ae" unicode="&#xe6;" horiz-adv-x="859" 
d="M657 522c115 0 169 -67 169 -139c0 -87 -78 -156 -296 -156c-27 0 -56 1 -85 5v-21c0 -105 50 -166 143 -166c52 0 111 19 163 52l11 -58c-53 -33 -120 -51 -182 -51c-87 0 -149 35 -181 101c-53 -55 -130 -101 -216 -101c-90 0 -157 50 -157 140c0 106 92 184 267 184
c20 0 51 -1 93 -5l7 41c3 17 4 30 4 40c0 54 -31 75 -94 75c-67 0 -126 -24 -178 -55l-10 59c50 30 120 55 196 55s132 -25 149 -86c49 53 117 86 197 86zM198 46c70 0 133 41 185 93c-5 20 -7 43 -7 67c0 17 1 34 3 50c-36 4 -65 5 -84 5c-140 0 -201 -56 -201 -126
c0 -57 41 -89 104 -89zM654 466c-103 0 -178 -79 -201 -183c25 -3 49 -5 84 -5c168 0 223 46 223 104c0 47 -35 84 -106 84z" />
    <glyph glyph-name="ccedilla" unicode="&#xe7;" horiz-adv-x="466" 
d="M304 -93c0 -55 -46 -91 -117 -91c-43 0 -73 13 -95 25l20 43c20 -12 44 -22 72 -22c41 0 61 22 61 47c0 22 -14 45 -63 58l13 24c-91 15 -152 86 -152 216c0 170 104 315 282 315c57 0 101 -15 138 -43l-29 -56c-37 27 -70 40 -114 40c-132 0 -208 -118 -208 -251
c0 -109 51 -166 133 -166c46 0 96 18 133 47l10 -58c-37 -27 -89 -45 -142 -47c35 -15 58 -42 58 -81z" />
    <glyph glyph-name="egrave" unicode="&#xe8;" horiz-adv-x="525" 
d="M324 522c115 0 169 -67 169 -139c0 -87 -78 -156 -296 -156c-27 0 -56 1 -85 5v-21c0 -105 50 -166 143 -166c52 0 111 19 163 52l11 -58c-53 -33 -120 -51 -182 -51c-128 0 -204 77 -204 219c0 175 116 315 281 315zM321 466c-103 0 -178 -79 -201 -183
c25 -3 49 -5 84 -5c168 0 223 46 223 104c0 47 -35 84 -106 84zM388 574h-54l-100 146h80z" />
    <glyph glyph-name="eacute" unicode="&#xe9;" horiz-adv-x="525" 
d="M324 522c115 0 169 -67 169 -139c0 -87 -78 -156 -296 -156c-27 0 -56 1 -85 5v-21c0 -105 50 -166 143 -166c52 0 111 19 163 52l11 -58c-53 -33 -120 -51 -182 -51c-128 0 -204 77 -204 219c0 175 116 315 281 315zM321 466c-103 0 -178 -79 -201 -183
c25 -3 49 -5 84 -5c168 0 223 46 223 104c0 47 -35 84 -106 84zM328 574h-60l114 146h92z" />
    <glyph glyph-name="ecircumflex" unicode="&#xea;" horiz-adv-x="525" 
d="M324 522c115 0 169 -67 169 -139c0 -87 -78 -156 -296 -156c-27 0 -56 1 -85 5v-21c0 -105 50 -166 143 -166c52 0 111 19 163 52l11 -58c-53 -33 -120 -51 -182 -51c-128 0 -204 77 -204 219c0 175 116 315 281 315zM321 466c-103 0 -178 -79 -201 -183
c25 -3 49 -5 84 -5c168 0 223 46 223 104c0 47 -35 84 -106 84zM238 574h-60l148 146h55l96 -146h-51l-78 89z" />
    <glyph glyph-name="edieresis" unicode="&#xeb;" horiz-adv-x="525" 
d="M324 522c115 0 169 -67 169 -139c0 -87 -78 -156 -296 -156c-27 0 -56 1 -85 5v-21c0 -105 50 -166 143 -166c52 0 111 19 163 52l11 -58c-53 -33 -120 -51 -182 -51c-128 0 -204 77 -204 219c0 175 116 315 281 315zM321 466c-103 0 -178 -79 -201 -183
c25 -3 49 -5 84 -5c168 0 223 46 223 104c0 47 -35 84 -106 84zM201 622c0 24 18 43 43 43s43 -19 43 -43s-18 -43 -43 -43s-43 19 -43 43zM387 622c0 24 18 43 43 43s43 -19 43 -43s-18 -43 -43 -43s-43 19 -43 43z" />
    <glyph glyph-name="igrave" unicode="&#xec;" horiz-adv-x="241" 
d="M41 0l90 510h69l-90 -510h-69zM234 574h-54l-100 146h80z" />
    <glyph glyph-name="iacute" unicode="&#xed;" horiz-adv-x="241" 
d="M41 0l90 510h69l-90 -510h-69zM177 574h-60l114 146h92z" />
    <glyph glyph-name="icircumflex" unicode="&#xee;" horiz-adv-x="241" 
d="M86 574h-60l148 146h55l96 -146h-51l-78 89zM41 0l90 510h69l-90 -510h-69z" />
    <glyph glyph-name="idieresis" unicode="&#xef;" horiz-adv-x="241" 
d="M49 622c0 24 18 43 43 43s43 -19 43 -43s-18 -43 -43 -43s-43 19 -43 43zM235 622c0 24 18 43 43 43s43 -19 43 -43s-18 -43 -43 -43s-43 19 -43 43zM41 0l90 510h69l-90 -510h-69z" />
    <glyph glyph-name="eth" unicode="&#xf0;" horiz-adv-x="554" 
d="M290 544l-16 46l85 29c-18 29 -37 54 -56 78l48 35c24 -25 47 -56 68 -93l88 31l16 -46l-82 -28c40 -84 67 -186 67 -287c0 -208 -116 -321 -261 -321c-116 0 -206 73 -206 221c0 166 113 281 250 281c68 0 115 -28 144 -67c-13 61 -31 111 -52 153zM439 268
c0 113 -60 164 -141 164c-109 0 -188 -94 -188 -223c0 -113 60 -163 141 -163c109 0 188 93 188 222z" />
    <glyph glyph-name="ntilde" unicode="&#xf1;" horiz-adv-x="567" 
d="M34 0l90 510h69l-15 -84c50 50 120 96 206 96c66 0 130 -27 130 -121c0 -12 -1 -28 -4 -44l-63 -357h-69l63 357c2 12 3 22 3 31c0 55 -37 72 -82 72c-77 0 -143 -49 -195 -99l-64 -361h-69zM241 580h-46c12 73 45 105 89 105c59 0 97 -56 137 -56c17 0 34 11 41 50h46
c-12 -73 -45 -105 -89 -105c-59 0 -97 56 -137 56c-17 0 -34 -11 -41 -50z" />
    <glyph glyph-name="ograve" unicode="&#xf2;" horiz-adv-x="554" 
d="M252 46c118 0 190 117 190 246c0 116 -58 172 -140 172c-118 0 -190 -117 -190 -246c0 -116 58 -172 140 -172zM248 -12c-115 0 -205 77 -205 228c0 165 107 306 263 306c115 0 205 -77 205 -228c0 -165 -107 -306 -263 -306zM381 574h-54l-100 146h80z" />
    <glyph glyph-name="oacute" unicode="&#xf3;" horiz-adv-x="554" 
d="M252 46c118 0 190 117 190 246c0 116 -58 172 -140 172c-118 0 -190 -117 -190 -246c0 -116 58 -172 140 -172zM248 -12c-115 0 -205 77 -205 228c0 165 107 306 263 306c115 0 205 -77 205 -228c0 -165 -107 -306 -263 -306zM324 574h-60l114 146h92z" />
    <glyph glyph-name="ocircumflex" unicode="&#xf4;" horiz-adv-x="554" 
d="M252 46c118 0 190 117 190 246c0 116 -58 172 -140 172c-118 0 -190 -117 -190 -246c0 -116 58 -172 140 -172zM248 -12c-115 0 -205 77 -205 228c0 165 107 306 263 306c115 0 205 -77 205 -228c0 -165 -107 -306 -263 -306zM233 574h-60l148 146h55l96 -146h-51l-78 89
z" />
    <glyph glyph-name="otilde" unicode="&#xf5;" horiz-adv-x="554" 
d="M252 46c118 0 190 117 190 246c0 116 -58 172 -140 172c-118 0 -190 -117 -190 -246c0 -116 58 -172 140 -172zM248 -12c-115 0 -205 77 -205 228c0 165 107 306 263 306c115 0 205 -77 205 -228c0 -165 -107 -306 -263 -306zM222 580h-46c12 73 45 105 89 105
c59 0 97 -56 137 -56c17 0 34 11 41 50h46c-12 -73 -45 -105 -89 -105c-59 0 -97 56 -137 56c-17 0 -34 -11 -41 -50z" />
    <glyph glyph-name="odieresis" unicode="&#xf6;" horiz-adv-x="554" 
d="M252 46c118 0 190 117 190 246c0 116 -58 172 -140 172c-118 0 -190 -117 -190 -246c0 -116 58 -172 140 -172zM248 -12c-115 0 -205 77 -205 228c0 165 107 306 263 306c115 0 205 -77 205 -228c0 -165 -107 -306 -263 -306zM195 622c0 24 18 43 43 43s43 -19 43 -43
s-18 -43 -43 -43s-43 19 -43 43zM381 622c0 24 18 43 43 43s43 -19 43 -43s-18 -43 -43 -43s-43 19 -43 43z" />
    <glyph glyph-name="divide" unicode="&#xf7;" horiz-adv-x="572" 
d="M535 285l-10 -60h-488l10 60h488zM295 54c0 -26 -18 -44 -46 -44c-27 0 -45 18 -45 44s18 45 45 45c28 0 46 -19 46 -45zM368 456c0 -26 -18 -45 -46 -45c-27 0 -45 19 -45 45s18 44 45 44c28 0 46 -18 46 -44z" />
    <glyph glyph-name="oslash" unicode="&#xf8;" horiz-adv-x="554" 
d="M110 217c0 -31 4 -58 12 -81l289 278c-25 35 -64 52 -109 52c-119 0 -192 -118 -192 -249zM252 44c119 0 192 118 192 248c0 31 -4 59 -12 82l-290 -278c26 -35 64 -52 110 -52zM248 -12c-61 0 -115 21 -152 63l-78 -75l-30 31l84 81c-19 34 -29 76 -29 127
c0 166 107 307 263 307c60 0 114 -21 151 -64l79 76l30 -31l-84 -81c18 -34 29 -77 29 -129c0 -164 -107 -305 -263 -305z" />
    <glyph glyph-name="ugrave" unicode="&#xf9;" horiz-adv-x="567" 
d="M533 510l-90 -510h-69l15 84c-50 -50 -120 -96 -206 -96c-66 0 -130 27 -130 121c0 12 1 28 4 44l63 357h69l-63 -359c-2 -12 -3 -22 -3 -31c0 -55 37 -72 82 -72c77 0 143 49 195 99l64 363h69zM395 574h-54l-100 146h80z" />
    <glyph glyph-name="uacute" unicode="&#xfa;" horiz-adv-x="567" 
d="M533 510l-90 -510h-69l15 84c-50 -50 -120 -96 -206 -96c-66 0 -130 27 -130 121c0 12 1 28 4 44l63 357h69l-63 -359c-2 -12 -3 -22 -3 -31c0 -55 37 -72 82 -72c77 0 143 49 195 99l64 363h69zM338 574h-60l114 146h92z" />
    <glyph glyph-name="ucircumflex" unicode="&#xfb;" horiz-adv-x="567" 
d="M533 510l-90 -510h-69l15 84c-50 -50 -120 -96 -206 -96c-66 0 -130 27 -130 121c0 12 1 28 4 44l63 357h69l-63 -359c-2 -12 -3 -22 -3 -31c0 -55 37 -72 82 -72c77 0 143 49 195 99l64 363h69zM247 574h-60l148 146h55l96 -146h-51l-78 89z" />
    <glyph glyph-name="udieresis" unicode="&#xfc;" horiz-adv-x="567" 
d="M533 510l-90 -510h-69l15 84c-50 -50 -120 -96 -206 -96c-66 0 -130 27 -130 121c0 12 1 28 4 44l63 357h69l-63 -359c-2 -12 -3 -22 -3 -31c0 -55 37 -72 82 -72c77 0 143 49 195 99l64 363h69zM209 622c0 24 18 43 43 43s43 -19 43 -43s-18 -43 -43 -43s-43 19 -43 43z
M395 622c0 24 18 43 43 43s43 -19 43 -43s-18 -43 -43 -43s-43 19 -43 43z" />
    <glyph glyph-name="yacute" unicode="&#xfd;" horiz-adv-x="505" 
d="M-44 -211l11 61c13 -3 26 -6 45 -6c60 0 96 28 173 168h-24l-90 498h70l75 -446l234 446h74l-273 -508c-99 -185 -145 -218 -239 -218c-16 0 -36 1 -56 5zM310 574h-60l114 146h92z" />
    <glyph glyph-name="thorn" unicode="&#xfe;" horiz-adv-x="570" 
d="M162 720h69l-49 -278c45 50 102 80 167 80c100 0 178 -70 178 -220c0 -171 -102 -314 -258 -314c-57 0 -106 19 -155 71l-47 -269h-69zM333 461c-54 0 -110 -28 -163 -86l-46 -258c42 -45 86 -70 143 -70c123 0 191 118 191 250c0 116 -53 164 -125 164z" />
    <glyph glyph-name="ydieresis" unicode="&#xff;" horiz-adv-x="505" 
d="M-44 -211l11 61c13 -3 26 -6 45 -6c60 0 96 28 173 168h-24l-90 498h70l75 -446l234 446h74l-273 -508c-99 -185 -145 -218 -239 -218c-16 0 -36 1 -56 5zM181 622c0 24 18 43 43 43s43 -19 43 -43s-18 -43 -43 -43s-43 19 -43 43zM367 622c0 24 18 43 43 43
s43 -19 43 -43s-18 -43 -43 -43s-43 19 -43 43z" />
    <glyph glyph-name="Amacron" unicode="&#x100;" horiz-adv-x="673" 
d="M462 720l130 -720h-70l-36 206h-311l-109 -206h-75l388 720h83zM409 647l-202 -380h268zM287 789l10 56h280l-10 -56h-280z" />
    <glyph glyph-name="amacron" unicode="&#x101;" horiz-adv-x="562" 
d="M447 0h-66c-3 6 -5 14 -5 33c0 13 1 20 4 34c-43 -49 -101 -79 -166 -79c-98 0 -172 66 -172 213c0 175 104 321 253 321c57 0 107 -21 155 -75l11 63h66l-69 -391c-8 -47 -13 -80 -13 -99c0 -8 1 -14 2 -20zM231 47c55 0 110 29 160 86l46 258c-40 45 -82 70 -137 70
c-119 0 -189 -118 -189 -252c0 -113 50 -162 120 -162zM205 585l10 57h280l-10 -57h-280z" />
    <glyph glyph-name="Abreve" unicode="&#x102;" horiz-adv-x="673" 
d="M462 720l130 -720h-70l-36 206h-311l-109 -206h-75l388 720h83zM409 647l-202 -380h268zM436 784c-86 0 -130 35 -130 97c0 9 1 19 3 28h46c0 -46 16 -69 85 -69c68 0 94 23 109 69h46c-14 -78 -59 -125 -159 -125z" />
    <glyph glyph-name="abreve" unicode="&#x103;" horiz-adv-x="562" 
d="M447 0h-66c-3 6 -5 14 -5 33c0 13 1 20 4 34c-43 -49 -101 -79 -166 -79c-98 0 -172 66 -172 213c0 175 104 321 253 321c57 0 107 -21 155 -75l11 63h66l-69 -391c-8 -47 -13 -80 -13 -99c0 -8 1 -14 2 -20zM231 47c55 0 110 29 160 86l46 258c-40 45 -82 70 -137 70
c-119 0 -189 -118 -189 -252c0 -113 50 -162 120 -162zM352 580c-86 0 -129 41 -129 108c0 11 1 21 3 32h46v-9c0 -50 18 -74 83 -74c69 0 94 27 111 83h46c-15 -86 -61 -140 -160 -140z" />
    <glyph glyph-name="Aogonek" unicode="&#x104;" horiz-adv-x="673" 
d="M462 720l130 -720h-12c-83 -38 -110 -69 -110 -105c0 -25 13 -33 39 -33c10 0 21 1 36 5l4 -47c-14 -3 -34 -4 -46 -4c-58 0 -92 25 -92 72c0 44 31 86 110 116l-35 202h-311l-109 -206h-75l388 720h83zM409 647l-202 -380h268z" />
    <glyph glyph-name="aogonek" unicode="&#x105;" horiz-adv-x="562" 
d="M448 0h-8c-83 -38 -110 -69 -110 -105c0 -25 13 -33 39 -33c10 0 21 1 36 5l4 -47c-14 -3 -34 -4 -46 -4c-58 0 -92 25 -92 72c0 43 30 86 109 115c-2 5 -3 13 -3 29c0 15 1 21 4 35c-43 -49 -101 -79 -166 -79c-98 0 -172 66 -172 213c0 175 104 321 253 321
c57 0 107 -21 155 -75l11 63h66l-69 -391c-8 -47 -13 -80 -13 -99c0 -8 1 -14 2 -20zM232 47c55 0 110 29 160 86l46 258c-40 45 -82 70 -137 70c-119 0 -189 -118 -189 -252c0 -113 50 -162 120 -162z" />
    <glyph glyph-name="Cacute" unicode="&#x106;" horiz-adv-x="607" 
d="M510 118l12 -65c-51 -37 -120 -65 -197 -65c-149 0 -258 99 -258 305c0 228 133 439 370 439c79 0 140 -23 191 -60l-34 -62c-49 36 -98 58 -165 58c-191 0 -291 -181 -291 -371c0 -169 79 -246 192 -246c70 0 129 29 180 67zM441 783h-59l110 125h92z" />
    <glyph glyph-name="cacute" unicode="&#x107;" horiz-adv-x="466" 
d="M463 479l-29 -56c-37 27 -70 40 -114 40c-132 0 -208 -118 -208 -251c0 -109 51 -166 133 -166c46 0 96 18 133 47l10 -58c-39 -29 -96 -47 -153 -47c-113 0 -192 71 -192 219c0 170 104 315 282 315c57 0 101 -15 138 -43zM325 574h-60l114 146h92z" />
    <glyph glyph-name="Ccircumflex" unicode="&#x108;" horiz-adv-x="607" 
d="M510 118l12 -65c-51 -37 -120 -65 -197 -65c-149 0 -258 99 -258 305c0 228 133 439 370 439c79 0 140 -23 191 -60l-34 -62c-49 36 -98 58 -165 58c-191 0 -291 -181 -291 -371c0 -169 79 -246 192 -246c70 0 129 29 180 67zM352 783h-61l144 125h56l99 -125h-51l-81 68
z" />
    <glyph glyph-name="ccircumflex" unicode="&#x109;" horiz-adv-x="466" 
d="M463 479l-29 -56c-37 27 -70 40 -114 40c-132 0 -208 -118 -208 -251c0 -109 51 -166 133 -166c46 0 96 18 133 47l10 -58c-39 -29 -96 -47 -153 -47c-113 0 -192 71 -192 219c0 170 104 315 282 315c57 0 101 -15 138 -43zM234 574h-60l148 146h55l96 -146h-51l-78 89z
" />
    <glyph glyph-name="Cdotaccent" unicode="&#x10a;" horiz-adv-x="607" 
d="M510 118l12 -65c-51 -37 -120 -65 -197 -65c-149 0 -258 99 -258 305c0 228 133 439 370 439c79 0 140 -23 191 -60l-34 -62c-49 36 -98 58 -165 58c-191 0 -291 -181 -291 -371c0 -169 79 -246 192 -246c70 0 129 29 180 67zM493 826c0 -27 -19 -46 -46 -46
s-46 19 -46 46s19 46 46 46s46 -19 46 -46z" />
    <glyph glyph-name="cdotaccent" unicode="&#x10b;" horiz-adv-x="466" 
d="M463 479l-29 -56c-37 27 -70 40 -114 40c-132 0 -208 -118 -208 -251c0 -109 51 -166 133 -166c46 0 96 18 133 47l10 -58c-39 -29 -96 -47 -153 -47c-113 0 -192 71 -192 219c0 170 104 315 282 315c57 0 101 -15 138 -43zM382 620c0 -27 -19 -46 -46 -46s-46 19 -46 46
s19 46 46 46s46 -19 46 -46z" />
    <glyph glyph-name="Ccaron" unicode="&#x10c;" horiz-adv-x="607" 
d="M510 118l12 -65c-51 -37 -120 -65 -197 -65c-149 0 -258 99 -258 305c0 228 133 439 370 439c79 0 140 -23 191 -60l-34 -62c-49 36 -98 58 -165 58c-191 0 -291 -181 -291 -371c0 -169 79 -246 192 -246c70 0 129 29 180 67zM552 908h61l-144 -125h-56l-99 125h51
l81 -68z" />
    <glyph glyph-name="ccaron" unicode="&#x10d;" horiz-adv-x="466" 
d="M463 479l-29 -56c-37 27 -70 40 -114 40c-132 0 -208 -118 -208 -251c0 -109 51 -166 133 -166c46 0 96 18 133 47l10 -58c-39 -29 -96 -47 -153 -47c-113 0 -192 71 -192 219c0 170 104 315 282 315c57 0 101 -15 138 -43zM439 720h60l-148 -146h-55l-96 146h51l78 -89z
" />
    <glyph glyph-name="Dcaron" unicode="&#x10e;" horiz-adv-x="695" 
d="M177 720h210c167 0 277 -113 277 -306c0 -214 -135 -414 -382 -414h-232zM132 64h150c208 0 311 171 311 349c0 157 -81 242 -206 242h-151zM539 908h61l-144 -125h-56l-99 125h51l81 -68z" />
    <glyph glyph-name="dcaron" unicode="&#x10f;" horiz-adv-x="576" 
d="M630 571h-47l52 149h70zM388 68c-45 -50 -101 -80 -168 -80c-99 0 -178 66 -178 216c0 171 103 318 259 318c59 0 105 -21 153 -72l49 270h69l-106 -601c-9 -52 -13 -83 -13 -99c0 -8 1 -15 2 -20h-66c-3 6 -5 13 -5 32c0 14 1 21 4 36zM237 47c53 0 109 27 162 86
l46 258c-42 45 -87 70 -143 70c-122 0 -191 -118 -191 -249c0 -116 54 -165 126 -165z" />
    <glyph glyph-name="Dcroat" unicode="&#x110;" horiz-adv-x="695" 
d="M29 348l10 57h83l56 315h210c167 0 277 -113 277 -306c0 -214 -135 -414 -382 -414h-232l61 348h-83zM133 64h150c208 0 311 171 311 349c0 157 -81 242 -206 242h-151l-44 -250h197l-10 -57h-197z" />
    <glyph glyph-name="dcroat" unicode="&#x111;" horiz-adv-x="570" 
d="M330 585l10 57h150l14 78h69l-14 -78h80l-10 -57h-80l-82 -466c-9 -52 -13 -83 -13 -99c0 -8 1 -15 2 -20h-66c-3 6 -5 13 -5 32c0 14 1 21 4 36c-45 -50 -101 -80 -168 -80c-99 0 -178 66 -178 216c0 171 103 318 259 318c59 0 105 -21 153 -72l24 135h-149zM238 47
c53 0 109 27 162 86l46 258c-42 45 -87 70 -143 70c-122 0 -191 -118 -191 -249c0 -116 54 -165 126 -165z" />
    <glyph glyph-name="Emacron" unicode="&#x112;" horiz-adv-x="588" 
d="M51 0l127 720h438l-11 -65h-367l-44 -249h323l-11 -63h-323l-50 -279h369l-11 -64h-440zM270 789l10 56h280l-10 -56h-280z" />
    <glyph glyph-name="emacron" unicode="&#x113;" horiz-adv-x="525" 
d="M324 522c115 0 169 -67 169 -139c0 -87 -78 -156 -296 -156c-27 0 -56 1 -85 5v-21c0 -105 50 -166 143 -166c52 0 111 19 163 52l11 -58c-53 -33 -120 -51 -182 -51c-128 0 -204 77 -204 219c0 175 116 315 281 315zM321 466c-103 0 -178 -79 -201 -183
c25 -3 49 -5 84 -5c168 0 223 46 223 104c0 47 -35 84 -106 84zM190 585l10 57h280l-10 -57h-280z" />
    <glyph glyph-name="Ebreve" unicode="&#x114;" horiz-adv-x="588" 
d="M51 0l127 720h438l-11 -65h-367l-44 -249h323l-11 -63h-323l-50 -279h369l-11 -64h-440zM416 784c-86 0 -130 35 -130 97c0 9 1 19 3 28h46c0 -46 16 -69 85 -69c68 0 94 23 109 69h46c-14 -78 -59 -125 -159 -125z" />
    <glyph glyph-name="ebreve" unicode="&#x115;" horiz-adv-x="525" 
d="M324 522c115 0 169 -67 169 -139c0 -87 -78 -156 -296 -156c-27 0 -56 1 -85 5v-21c0 -105 50 -166 143 -166c52 0 111 19 163 52l11 -58c-53 -33 -120 -51 -182 -51c-128 0 -204 77 -204 219c0 175 116 315 281 315zM321 466c-103 0 -178 -79 -201 -183
c25 -3 49 -5 84 -5c168 0 223 46 223 104c0 47 -35 84 -106 84zM338 580c-86 0 -129 41 -129 108c0 11 1 21 3 32h46v-9c0 -50 18 -74 83 -74c69 0 94 27 111 83h46c-15 -86 -61 -140 -160 -140z" />
    <glyph glyph-name="Edotaccent" unicode="&#x116;" horiz-adv-x="588" 
d="M51 0l127 720h438l-11 -65h-367l-44 -249h323l-11 -63h-323l-50 -279h369l-11 -64h-440zM461 826c0 -27 -19 -46 -46 -46s-46 19 -46 46s19 46 46 46s46 -19 46 -46z" />
    <glyph glyph-name="edotaccent" unicode="&#x117;" horiz-adv-x="525" 
d="M324 522c115 0 169 -67 169 -139c0 -87 -78 -156 -296 -156c-27 0 -56 1 -85 5v-21c0 -105 50 -166 143 -166c52 0 111 19 163 52l11 -58c-53 -33 -120 -51 -182 -51c-128 0 -204 77 -204 219c0 175 116 315 281 315zM321 466c-103 0 -178 -79 -201 -183
c25 -3 49 -5 84 -5c168 0 223 46 223 104c0 47 -35 84 -106 84zM382 625c0 -27 -19 -46 -46 -46s-46 19 -46 46s19 46 46 46s46 -19 46 -46z" />
    <glyph glyph-name="Eogonek" unicode="&#x118;" horiz-adv-x="588" 
d="M51 0l127 720h438l-11 -65h-367l-44 -249h323l-11 -63h-323l-50 -279h369l-11 -63c-83 -38 -112 -70 -112 -106c0 -25 13 -33 39 -33c10 0 21 1 36 5l4 -47c-14 -3 -34 -4 -46 -4c-58 0 -92 25 -92 72c0 42 28 83 100 112h-369z" />
    <glyph glyph-name="eogonek" unicode="&#x119;" horiz-adv-x="525" 
d="M324 522c115 0 169 -67 169 -139c0 -87 -78 -156 -296 -156c-27 0 -56 1 -85 5v-21c0 -105 50 -166 143 -166c52 0 111 19 163 52l11 -58c-115 -63 -162 -99 -162 -144c0 -24 13 -33 40 -33c15 0 36 3 61 13l4 -47c-20 -8 -47 -12 -71 -12c-57 0 -93 23 -93 70
c0 35 20 70 72 105c-11 -2 -21 -3 -35 -3c-125 0 -202 77 -202 219c0 175 116 315 281 315zM321 466c-103 0 -178 -79 -201 -183c25 -3 49 -5 84 -5c168 0 223 46 223 104c0 47 -35 84 -106 84z" />
    <glyph glyph-name="Ecaron" unicode="&#x11a;" horiz-adv-x="588" 
d="M51 0l127 720h438l-11 -65h-367l-44 -249h323l-11 -63h-323l-50 -279h369l-11 -64h-440zM519 908h61l-144 -125h-56l-99 125h51l81 -68z" />
    <glyph glyph-name="ecaron" unicode="&#x11b;" horiz-adv-x="525" 
d="M324 522c115 0 169 -67 169 -139c0 -87 -78 -156 -296 -156c-27 0 -56 1 -85 5v-21c0 -105 50 -166 143 -166c52 0 111 19 163 52l11 -58c-53 -33 -120 -51 -182 -51c-128 0 -204 77 -204 219c0 175 116 315 281 315zM321 466c-103 0 -178 -79 -201 -183
c25 -3 49 -5 84 -5c168 0 223 46 223 104c0 47 -35 84 -106 84zM443 720h60l-148 -146h-55l-96 146h51l78 -89z" />
    <glyph glyph-name="Gcircumflex" unicode="&#x11c;" horiz-adv-x="675" 
d="M349 49c53 0 103 13 150 36l40 228h-164l11 61h232l-56 -321c-65 -40 -138 -65 -222 -65c-166 0 -273 98 -273 307c0 234 135 437 380 437c93 0 162 -29 220 -72l-34 -62c-56 42 -113 70 -192 70c-199 0 -303 -173 -303 -368c0 -173 81 -251 211 -251zM372 783h-61
l144 125h56l99 -125h-51l-81 68z" />
    <glyph glyph-name="gcircumflex" unicode="&#x11d;" horiz-adv-x="569" 
d="M534 510l-89 -503c-27 -152 -132 -223 -260 -223c-59 0 -128 15 -182 44l30 56c53 -27 109 -40 154 -40c83 0 169 44 191 174l10 61c-46 -50 -102 -79 -168 -79c-100 0 -178 66 -178 213c0 168 103 309 257 309c59 0 108 -21 157 -75l12 63h66zM236 59
c62 0 118 35 164 86l44 246c-40 43 -85 70 -143 70c-120 0 -190 -113 -190 -242c0 -113 53 -160 125 -160zM252 574h-60l148 146h55l96 -146h-51l-78 89z" />
    <glyph glyph-name="Gbreve" unicode="&#x11e;" horiz-adv-x="675" 
d="M349 49c53 0 103 13 150 36l40 228h-164l11 61h232l-56 -321c-65 -40 -138 -65 -222 -65c-166 0 -273 98 -273 307c0 234 135 437 380 437c93 0 162 -29 220 -72l-34 -62c-56 42 -113 70 -192 70c-199 0 -303 -173 -303 -368c0 -173 81 -251 211 -251zM468 784
c-86 0 -130 35 -130 97c0 9 1 19 3 28h46c0 -46 16 -69 85 -69c68 0 94 23 109 69h46c-14 -78 -59 -125 -159 -125z" />
    <glyph glyph-name="gbreve" unicode="&#x11f;" horiz-adv-x="569" 
d="M534 510l-89 -503c-27 -152 -132 -223 -260 -223c-59 0 -128 15 -182 44l30 56c53 -27 109 -40 154 -40c83 0 169 44 191 174l10 61c-46 -50 -102 -79 -168 -79c-100 0 -178 66 -178 213c0 168 103 309 257 309c59 0 108 -21 157 -75l12 63h66zM236 59
c62 0 118 35 164 86l44 246c-40 43 -85 70 -143 70c-120 0 -190 -113 -190 -242c0 -113 53 -160 125 -160zM351 580c-86 0 -129 41 -129 108c0 11 1 21 3 32h46v-9c0 -50 18 -74 83 -74c69 0 94 27 111 83h46c-15 -86 -61 -140 -160 -140z" />
    <glyph glyph-name="Gdotaccent" unicode="&#x120;" horiz-adv-x="675" 
d="M349 49c53 0 103 13 150 36l40 228h-164l11 61h232l-56 -321c-65 -40 -138 -65 -222 -65c-166 0 -273 98 -273 307c0 234 135 437 380 437c93 0 162 -29 220 -72l-34 -62c-56 42 -113 70 -192 70c-199 0 -303 -173 -303 -368c0 -173 81 -251 211 -251zM513 826
c0 -27 -19 -46 -46 -46s-46 19 -46 46s19 46 46 46s46 -19 46 -46z" />
    <glyph glyph-name="gdotaccent" unicode="&#x121;" horiz-adv-x="569" 
d="M534 510l-89 -503c-27 -152 -132 -223 -260 -223c-59 0 -128 15 -182 44l30 56c53 -27 109 -40 154 -40c83 0 169 44 191 174l10 61c-46 -50 -102 -79 -168 -79c-100 0 -178 66 -178 213c0 168 103 309 257 309c59 0 108 -21 157 -75l12 63h66zM236 59
c62 0 118 35 164 86l44 246c-40 43 -85 70 -143 70c-120 0 -190 -113 -190 -242c0 -113 53 -160 125 -160zM394 625c0 -27 -19 -46 -46 -46s-46 19 -46 46s19 46 46 46s46 -19 46 -46z" />
    <glyph glyph-name="uni0122" unicode="&#x122;" horiz-adv-x="675" 
d="M349 49c53 0 103 13 150 36l40 228h-164l11 61h232l-56 -321c-65 -40 -138 -65 -222 -65c-166 0 -273 98 -273 307c0 234 135 437 380 437c93 0 162 -29 220 -72l-34 -62c-56 42 -113 70 -192 70c-199 0 -303 -173 -303 -368c0 -173 81 -251 211 -251zM237 -167
c40 17 61 36 70 53c-25 0 -42 17 -42 41s16 41 43 41c29 0 52 -20 52 -57c0 -39 -25 -81 -103 -116z" />
    <glyph glyph-name="uni0123" unicode="&#x123;" horiz-adv-x="569" 
d="M534 510l-89 -503c-27 -152 -132 -223 -260 -223c-59 0 -128 15 -182 44l30 56c53 -27 109 -40 154 -40c83 0 169 44 191 174l10 61c-46 -50 -102 -79 -168 -79c-100 0 -178 66 -178 213c0 168 103 309 257 309c59 0 108 -21 157 -75l12 63h66zM236 59
c62 0 118 35 164 86l44 246c-40 43 -85 70 -143 70c-120 0 -190 -113 -190 -242c0 -113 53 -160 125 -160zM400 742l20 -38c-40 -17 -61 -36 -70 -53c25 0 42 -17 42 -41s-16 -41 -43 -41c-29 0 -52 20 -52 57c0 39 25 81 103 116z" />
    <glyph glyph-name="Hcircumflex" unicode="&#x124;" horiz-adv-x="703" 
d="M51 0l127 720h71l-55 -312h369l55 312h71l-127 -720h-71l61 343h-369l-61 -343h-71zM357 783h-61l144 125h56l99 -125h-51l-81 68z" />
    <glyph glyph-name="hcircumflex" unicode="&#x125;" horiz-adv-x="567" 
d="M34 0l127 720h69l-52 -294c50 50 120 96 206 96c66 0 130 -27 130 -121c0 -12 -1 -28 -4 -44l-63 -357h-69l63 357c2 12 3 22 3 31c0 55 -37 72 -82 72c-77 0 -143 -49 -195 -99l-64 -361h-69zM288 774h-60l148 146h55l96 -146h-51l-78 89z" />
    <glyph glyph-name="Hbar" unicode="&#x126;" horiz-adv-x="703" 
d="M61 525l10 57h83l24 138h71l-24 -138h369l24 138h71l-24 -138h83l-10 -57h-83l-93 -525h-71l61 343h-369l-61 -343h-71l93 525h-83zM194 408h369l21 117h-369z" />
    <glyph glyph-name="hbar" unicode="&#x127;" horiz-adv-x="568" 
d="M57 585l10 57h80l14 78h69l-14 -78h150l-10 -57h-150l-28 -159c50 50 120 96 206 96c66 0 130 -27 130 -121c0 -12 -1 -28 -4 -44l-63 -357h-69l63 357c2 12 3 22 3 31c0 55 -37 72 -82 72c-77 0 -143 -49 -195 -99l-64 -361h-69l103 585h-80z" />
    <glyph glyph-name="Itilde" unicode="&#x128;" horiz-adv-x="281" 
d="M60 0l127 720h71l-127 -720h-71zM131 783h-46c12 70 44 103 90 103c57 0 97 -53 137 -53c17 0 34 10 40 47h46c-12 -70 -44 -103 -90 -103c-57 0 -97 53 -137 53c-17 0 -34 -10 -40 -47z" />
    <glyph glyph-name="itilde" unicode="&#x129;" horiz-adv-x="241" 
d="M41 0l90 510h69l-90 -510h-69zM75 580h-46c12 73 45 105 89 105c59 0 97 -56 137 -56c17 0 34 11 41 50h46c-12 -73 -45 -105 -89 -105c-59 0 -97 56 -137 56c-17 0 -34 -11 -41 -50z" />
    <glyph glyph-name="Imacron" unicode="&#x12a;" horiz-adv-x="281" 
d="M60 0l127 720h71l-127 -720h-71zM94 789l10 56h280l-10 -56h-280z" />
    <glyph glyph-name="imacron" unicode="&#x12b;" horiz-adv-x="241" 
d="M38 585l10 57h280l-10 -57h-280zM41 0l90 510h69l-90 -510h-69z" />
    <glyph glyph-name="Ibreve" unicode="&#x12c;" horiz-adv-x="281" 
d="M60 0l127 720h71l-127 -720h-71zM240 784c-86 0 -130 35 -130 97c0 9 1 19 3 28h46c0 -46 16 -69 85 -69c68 0 94 23 109 69h46c-14 -78 -59 -125 -159 -125z" />
    <glyph glyph-name="ibreve" unicode="&#x12d;" horiz-adv-x="241" 
d="M185 580c-86 0 -129 41 -129 108c0 11 1 21 3 32h46v-9c0 -50 18 -74 83 -74c69 0 94 27 111 83h46c-15 -86 -61 -140 -160 -140zM41 0l90 510h69l-90 -510h-69z" />
    <glyph glyph-name="Iogonek" unicode="&#x12e;" horiz-adv-x="281" 
d="M23 -104c0 -26 12 -34 39 -34c10 0 21 1 36 5l4 -47c-14 -3 -34 -4 -46 -4c-57 0 -92 24 -92 73c0 44 28 86 96 115l127 716h71l-127 -720h-13c-71 -37 -95 -68 -95 -104z" />
    <glyph glyph-name="iogonek" unicode="&#x12f;" horiz-adv-x="241" 
d="M2 -104c0 -26 12 -34 39 -34c10 0 21 1 36 5l4 -47c-14 -3 -34 -4 -46 -4c-59 0 -92 25 -92 73c0 43 27 86 99 116l89 505h69l-90 -510h-13c-71 -37 -95 -68 -95 -104zM236 652c0 -27 -19 -46 -46 -46s-46 19 -46 46s19 46 46 46s46 -19 46 -46z" />
    <glyph glyph-name="Idotaccent" unicode="&#x130;" horiz-adv-x="281" 
d="M60 0l127 720h71l-127 -720h-71zM285 826c0 -27 -19 -46 -46 -46s-46 19 -46 46s19 46 46 46s46 -19 46 -46z" />
    <glyph glyph-name="dotlessi" unicode="&#x131;" horiz-adv-x="241" 
d="M41 0l90 510h69l-90 -510h-69z" />
    <glyph glyph-name="IJ" unicode="&#x132;" horiz-adv-x="686" 
d="M60 0l127 720h71l-127 -720h-71zM267 4l11 65c26 -6 59 -11 89 -11c99 0 134 54 150 147l91 515h71l-93 -528c-21 -121 -70 -198 -220 -198c-30 0 -69 3 -99 10z" />
    <glyph glyph-name="ij" unicode="&#x133;" horiz-adv-x="481" 
d="M41 0l90 510h69l-90 -510h-69zM236 652c0 -27 -19 -46 -46 -46s-46 19 -46 46s19 46 46 46s46 -19 46 -46zM440 510l-105 -596c-14 -80 -44 -130 -146 -130c-20 0 -42 2 -67 7l10 58c18 -4 34 -6 48 -6c59 0 79 31 89 88l102 579h69zM476 652c0 -27 -19 -46 -46 -46
s-46 19 -46 46s19 46 46 46s46 -19 46 -46z" />
    <glyph glyph-name="Jcircumflex" unicode="&#x134;" horiz-adv-x="405" 
d="M-13 4l11 65c26 -6 59 -11 89 -11c99 0 134 54 150 147l91 515h71l-93 -528c-21 -121 -70 -198 -220 -198c-30 0 -69 3 -99 10zM292 783h-61l144 125h56l99 -125h-51l-81 68z" />
    <glyph glyph-name="jcircumflex" unicode="&#x135;" horiz-adv-x="241" 
d="M200 510l-105 -596c-14 -80 -44 -130 -146 -130c-20 0 -42 2 -67 7l10 58c18 -4 34 -6 48 -6c59 0 79 31 89 88l102 579h69zM86 574h-60l148 146h55l96 -146h-51l-78 89z" />
    <glyph glyph-name="uni0136" unicode="&#x136;" horiz-adv-x="643" 
d="M50 0l127 720h71l-64 -363l400 363h94l-307 -272l204 -448h-74l-182 402l-151 -132l-47 -270h-71zM206 -167c40 17 61 36 70 53c-25 0 -42 17 -42 41s16 41 43 41c29 0 52 -20 52 -57c0 -39 -25 -81 -103 -116z" />
    <glyph glyph-name="uni0137" unicode="&#x137;" horiz-adv-x="524" 
d="M379 0l-143 284l-97 -80l-36 -204h-69l127 720h69l-77 -437l273 227h91l-231 -186l164 -324h-71zM136 -167c40 17 61 36 70 53c-25 0 -42 17 -42 41s16 41 43 41c29 0 52 -20 52 -57c0 -39 -25 -81 -103 -116z" />
    <glyph glyph-name="kgreenlandic" unicode="&#x138;" horiz-adv-x="524" 
d="M379 0l-143 284l-97 -80l-36 -204h-69l90 510h69l-40 -227l273 227h91l-231 -186l164 -324h-71z" />
    <glyph glyph-name="Lacute" unicode="&#x139;" horiz-adv-x="530" 
d="M51 0l127 720h71l-116 -655h332l-11 -65h-403zM220 783h-59l110 125h92z" />
    <glyph glyph-name="lacute" unicode="&#x13a;" horiz-adv-x="241" 
d="M41 0l127 720h69l-127 -720h-69zM213 774h-60l114 146h92z" />
    <glyph glyph-name="uni013B" unicode="&#x13b;" horiz-adv-x="530" 
d="M51 0l127 720h71l-116 -655h332l-11 -65h-403zM174 -167c40 17 61 36 70 53c-25 0 -42 17 -42 41s16 41 43 41c29 0 52 -20 52 -57c0 -39 -25 -81 -103 -116z" />
    <glyph glyph-name="uni013C" unicode="&#x13c;" horiz-adv-x="241" 
d="M41 0l127 720h69l-127 -720h-69zM-16 -167c40 17 61 36 70 53c-25 0 -42 17 -42 41s16 41 43 41c29 0 52 -20 52 -57c0 -39 -25 -81 -103 -116z" />
    <glyph glyph-name="Lcaron" unicode="&#x13d;" horiz-adv-x="530" 
d="M326 571h-47l52 149h70zM51 0l127 720h71l-116 -655h332l-11 -65h-403z" />
    <glyph glyph-name="lcaron" unicode="&#x13e;" horiz-adv-x="246" 
d="M297 571h-48l53 149h70zM41 0l127 720h69l-127 -720h-69z" />
    <glyph glyph-name="Ldot" unicode="&#x13f;" horiz-adv-x="530" 
d="M51 0l127 720h71l-116 -655h332l-11 -65h-403zM456 361c0 -27 -19 -46 -46 -46s-46 19 -46 46s19 46 46 46s46 -19 46 -46z" />
    <glyph glyph-name="ldot" unicode="&#x140;" horiz-adv-x="269" 
d="M41 0l127 720h69l-127 -720h-69zM318 334c0 -27 -19 -46 -46 -46s-46 19 -46 46s19 46 46 46s46 -19 46 -46z" />
    <glyph glyph-name="Lslash" unicode="&#x141;" horiz-adv-x="530" 
d="M21 304l10 59l88 21l59 336h71l-56 -317l215 53l-10 -59l-216 -53l-49 -279h332l-11 -65h-403l57 325z" />
    <glyph glyph-name="lslash" unicode="&#x142;" horiz-adv-x="298" 
d="M24 326l10 56l107 26l55 312h69l-52 -294l107 26l-10 -56l-107 -26l-65 -370h-69l62 352z" />
    <glyph glyph-name="Nacute" unicode="&#x143;" horiz-adv-x="709" 
d="M51 0l127 720h81l266 -589l104 589h67l-127 -720h-59l-282 623l-110 -623h-67zM447 783h-59l110 125h92z" />
    <glyph glyph-name="nacute" unicode="&#x144;" horiz-adv-x="567" 
d="M34 0l90 510h69l-15 -84c50 50 120 96 206 96c66 0 130 -27 130 -121c0 -12 -1 -28 -4 -44l-63 -357h-69l63 357c2 12 3 22 3 31c0 55 -37 72 -82 72c-77 0 -143 -49 -195 -99l-64 -361h-69zM343 574h-60l114 146h92z" />
    <glyph glyph-name="uni0145" unicode="&#x145;" horiz-adv-x="709" 
d="M51 0l127 720h81l266 -589l104 589h67l-127 -720h-59l-282 623l-110 -623h-67zM223 -167c40 17 61 36 70 53c-25 0 -42 17 -42 41s16 41 43 41c29 0 52 -20 52 -57c0 -39 -25 -81 -103 -116z" />
    <glyph glyph-name="uni0146" unicode="&#x146;" horiz-adv-x="567" 
d="M34 0l90 510h69l-15 -84c50 50 120 96 206 96c66 0 130 -27 130 -121c0 -12 -1 -28 -4 -44l-63 -357h-69l63 357c2 12 3 22 3 31c0 55 -37 72 -82 72c-77 0 -143 -49 -195 -99l-64 -361h-69zM143 -167c40 17 61 36 70 53c-25 0 -42 17 -42 41s16 41 43 41
c29 0 52 -20 52 -57c0 -39 -25 -81 -103 -116z" />
    <glyph glyph-name="Ncaron" unicode="&#x147;" horiz-adv-x="709" 
d="M51 0l127 720h81l266 -589l104 589h67l-127 -720h-59l-282 623l-110 -623h-67zM557 908h61l-144 -125h-56l-99 125h51l81 -68z" />
    <glyph glyph-name="ncaron" unicode="&#x148;" horiz-adv-x="567" 
d="M34 0l90 510h69l-15 -84c50 50 120 96 206 96c66 0 130 -27 130 -121c0 -12 -1 -28 -4 -44l-63 -357h-69l63 357c2 12 3 22 3 31c0 55 -37 72 -82 72c-77 0 -143 -49 -195 -99l-64 -361h-69zM457 720h60l-148 -146h-55l-96 146h51l78 -89z" />
    <glyph glyph-name="napostrophe" unicode="&#x149;" horiz-adv-x="567" 
d="M34 0l90 510h69l-15 -84c50 50 120 96 206 96c66 0 130 -27 130 -121c0 -12 -1 -28 -4 -44l-63 -357h-69l63 357c2 12 3 22 3 31c0 55 -37 72 -82 72c-77 0 -143 -49 -195 -99l-64 -361h-69zM41 597c40 17 61 36 70 53c-25 0 -42 17 -42 41s16 41 43 41
c29 0 52 -20 52 -57c0 -39 -25 -81 -103 -116z" />
    <glyph glyph-name="Eng" unicode="&#x14a;" horiz-adv-x="709" 
d="M51 0l127 720h81l266 -589l104 589h67l-135 -768c-14 -80 -44 -130 -146 -130c-20 0 -42 2 -67 7l10 58c18 -4 34 -6 48 -6c59 0 79 31 89 88l8 46l-275 608l-110 -623h-67z" />
    <glyph glyph-name="eng" unicode="&#x14b;" horiz-adv-x="567" 
d="M34 0l90 510h69l-15 -84c50 50 120 96 206 96c66 0 130 -27 130 -121c0 -12 -1 -28 -4 -44l-71 -405c-14 -80 -44 -130 -146 -130c-20 0 -42 2 -67 7l10 58c18 -4 34 -6 48 -6c59 0 79 31 89 88l68 388c2 12 3 22 3 31c0 55 -37 72 -82 72c-77 0 -143 -49 -195 -99
l-64 -361h-69z" />
    <glyph glyph-name="Omacron" unicode="&#x14c;" horiz-adv-x="716" 
d="M344 52c164 0 269 160 269 355c0 173 -83 261 -205 261c-164 0 -269 -160 -269 -355c0 -173 83 -261 205 -261zM342 -12c-160 0 -274 118 -274 325c0 231 141 419 342 419c160 0 274 -118 274 -325c0 -231 -141 -419 -342 -419zM301 789l10 56h280l-10 -56h-280z" />
    <glyph glyph-name="omacron" unicode="&#x14d;" horiz-adv-x="554" 
d="M252 46c118 0 190 117 190 246c0 116 -58 172 -140 172c-118 0 -190 -117 -190 -246c0 -116 58 -172 140 -172zM248 -12c-115 0 -205 77 -205 228c0 165 107 306 263 306c115 0 205 -77 205 -228c0 -165 -107 -306 -263 -306zM184 585l10 57h280l-10 -57h-280z" />
    <glyph glyph-name="Obreve" unicode="&#x14e;" horiz-adv-x="716" 
d="M344 52c164 0 269 160 269 355c0 173 -83 261 -205 261c-164 0 -269 -160 -269 -355c0 -173 83 -261 205 -261zM342 -12c-160 0 -274 118 -274 325c0 231 141 419 342 419c160 0 274 -118 274 -325c0 -231 -141 -419 -342 -419zM447 784c-86 0 -130 35 -130 97
c0 9 1 19 3 28h46c0 -46 16 -69 85 -69c68 0 94 23 109 69h46c-14 -78 -59 -125 -159 -125z" />
    <glyph glyph-name="obreve" unicode="&#x14f;" horiz-adv-x="554" 
d="M252 46c118 0 190 117 190 246c0 116 -58 172 -140 172c-118 0 -190 -117 -190 -246c0 -116 58 -172 140 -172zM248 -12c-115 0 -205 77 -205 228c0 165 107 306 263 306c115 0 205 -77 205 -228c0 -165 -107 -306 -263 -306zM331 580c-86 0 -129 41 -129 108
c0 11 1 21 3 32h46v-9c0 -50 18 -74 83 -74c69 0 94 27 111 83h46c-15 -86 -61 -140 -160 -140z" />
    <glyph glyph-name="Ohungarumlaut" unicode="&#x150;" horiz-adv-x="716" 
d="M344 52c164 0 269 160 269 355c0 173 -83 261 -205 261c-164 0 -269 -160 -269 -355c0 -173 83 -261 205 -261zM342 -12c-160 0 -274 118 -274 325c0 231 141 419 342 419c160 0 274 -118 274 -325c0 -231 -141 -419 -342 -419zM361 783h-59l110 125h92zM506 783h-59
l110 125h92z" />
    <glyph glyph-name="ohungarumlaut" unicode="&#x151;" horiz-adv-x="554" 
d="M252 46c118 0 190 117 190 246c0 116 -58 172 -140 172c-118 0 -190 -117 -190 -246c0 -116 58 -172 140 -172zM248 -12c-115 0 -205 77 -205 228c0 165 107 306 263 306c115 0 205 -77 205 -228c0 -165 -107 -306 -263 -306zM247 574h-60l114 146h92zM391 574h-60
l125 146h92z" />
    <glyph glyph-name="OE" unicode="&#x152;" horiz-adv-x="940" 
d="M843 0h-406c-35 -7 -71 -12 -105 -12c-155 0 -265 104 -265 311c0 229 134 433 382 433c39 0 77 -5 112 -12h407l-11 -65h-337l-44 -249h293l-11 -63h-293l-50 -279h339zM340 51c33 0 70 6 104 15l104 588c-33 9 -68 14 -103 14c-208 0 -307 -176 -307 -366
c0 -169 79 -251 202 -251z" />
    <glyph glyph-name="oe" unicode="&#x153;" horiz-adv-x="921" 
d="M719 522c115 0 169 -67 169 -139c0 -87 -78 -156 -296 -156c-27 0 -56 1 -85 5v-21c0 -105 50 -166 143 -166c52 0 111 19 163 52l11 -58c-53 -33 -120 -51 -182 -51c-92 0 -157 39 -187 114c-46 -69 -119 -114 -207 -114c-115 0 -205 77 -205 228c0 165 107 306 263 306
c84 0 155 -42 187 -123c49 75 129 123 226 123zM252 46c118 0 190 117 190 246c0 116 -58 172 -140 172c-118 0 -190 -117 -190 -246c0 -116 58 -172 140 -172zM716 466c-103 0 -178 -79 -201 -183c25 -3 49 -5 84 -5c168 0 223 46 223 104c0 47 -35 84 -106 84z" />
    <glyph glyph-name="Racute" unicode="&#x154;" horiz-adv-x="670" 
d="M415 783h-59l110 125h92zM488 0l-148 329h-161l-58 -329h-71l127 720h239c134 0 213 -60 213 -180c0 -118 -77 -195 -217 -209l151 -331h-75zM190 388h172c133 0 196 54 196 149c0 83 -49 118 -148 118h-174z" />
    <glyph glyph-name="racute" unicode="&#x155;" horiz-adv-x="366" 
d="M391 517l-11 -63c-14 2 -30 3 -41 3c-86 0 -145 -67 -173 -104l-63 -353h-69l90 510h69l-16 -87c34 46 86 99 169 99c12 0 31 -1 45 -5zM266 574h-60l114 146h92z" />
    <glyph glyph-name="uni0156" unicode="&#x156;" horiz-adv-x="670" 
d="M192 -167c40 17 61 36 70 53c-25 0 -42 17 -42 41s16 41 43 41c29 0 52 -20 52 -57c0 -39 -25 -81 -103 -116zM488 0l-148 329h-161l-58 -329h-71l127 720h239c134 0 213 -60 213 -180c0 -118 -77 -195 -217 -209l151 -331h-75zM190 388h172c133 0 196 54 196 149
c0 83 -49 118 -148 118h-174z" />
    <glyph glyph-name="uni0157" unicode="&#x157;" horiz-adv-x="366" 
d="M391 517l-11 -63c-14 2 -30 3 -41 3c-86 0 -145 -67 -173 -104l-63 -353h-69l90 510h69l-16 -87c34 46 86 99 169 99c12 0 31 -1 45 -5zM-21 -167c40 17 61 36 70 53c-25 0 -42 17 -42 41s16 41 43 41c29 0 52 -20 52 -57c0 -39 -25 -81 -103 -116z" />
    <glyph glyph-name="Rcaron" unicode="&#x158;" horiz-adv-x="670" 
d="M525 908h61l-144 -125h-56l-99 125h51l81 -68zM488 0l-148 329h-161l-58 -329h-71l127 720h239c134 0 213 -60 213 -180c0 -118 -77 -195 -217 -209l151 -331h-75zM190 388h172c133 0 196 54 196 149c0 83 -49 118 -148 118h-174z" />
    <glyph glyph-name="rcaron" unicode="&#x159;" horiz-adv-x="366" 
d="M391 517l-11 -63c-14 2 -30 3 -41 3c-86 0 -145 -67 -173 -104l-63 -353h-69l90 510h69l-16 -87c34 46 86 99 169 99c12 0 31 -1 45 -5zM380 720h60l-148 -146h-55l-96 146h51l78 -89z" />
    <glyph glyph-name="Sacute" unicode="&#x15a;" horiz-adv-x="579" 
d="M24 55l34 60c61 -40 124 -64 193 -64c113 0 191 63 191 148c0 172 -316 122 -316 329c0 118 103 204 248 204c78 0 144 -25 200 -64l-35 -61c-52 37 -104 61 -170 61c-101 0 -172 -57 -172 -132c0 -158 316 -107 316 -327c0 -129 -108 -221 -266 -221
c-83 0 -160 25 -223 67zM383 783h-59l110 125h92z" />
    <glyph glyph-name="sacute" unicode="&#x15b;" horiz-adv-x="454" 
d="M426 476l-30 -56c-41 29 -80 44 -122 44c-67 0 -117 -38 -117 -86c0 -104 230 -67 230 -227c0 -97 -84 -163 -205 -163c-63 0 -123 18 -170 48l30 55c46 -28 93 -46 145 -46c80 0 132 41 132 97c0 118 -230 80 -230 229c0 86 78 151 188 151c56 0 107 -17 149 -46z
M284 574h-60l114 146h92z" />
    <glyph glyph-name="Scircumflex" unicode="&#x15c;" horiz-adv-x="579" 
d="M24 55l34 60c61 -40 124 -64 193 -64c113 0 191 63 191 148c0 172 -316 122 -316 329c0 118 103 204 248 204c78 0 144 -25 200 -64l-35 -61c-52 37 -104 61 -170 61c-101 0 -172 -57 -172 -132c0 -158 316 -107 316 -327c0 -129 -108 -221 -266 -221
c-83 0 -160 25 -223 67zM294 783h-61l144 125h56l99 -125h-51l-81 68z" />
    <glyph glyph-name="scircumflex" unicode="&#x15d;" horiz-adv-x="454" 
d="M426 476l-30 -56c-41 29 -80 44 -122 44c-67 0 -117 -38 -117 -86c0 -104 230 -67 230 -227c0 -97 -84 -163 -205 -163c-63 0 -123 18 -170 48l30 55c46 -28 93 -46 145 -46c80 0 132 41 132 97c0 118 -230 80 -230 229c0 86 78 151 188 151c56 0 107 -17 149 -46z
M193 574h-60l148 146h55l96 -146h-51l-78 89z" />
    <glyph glyph-name="Scedilla" unicode="&#x15e;" horiz-adv-x="579" 
d="M328 -92c0 -56 -46 -92 -117 -92c-43 0 -73 13 -95 25l20 43c20 -12 44 -22 72 -22c41 0 61 22 61 47c0 22 -14 45 -63 58l12 22c-72 5 -139 29 -194 66l34 60c61 -40 124 -64 193 -64c113 0 191 63 191 148c0 172 -316 122 -316 329c0 118 103 204 248 204
c78 0 144 -25 200 -64l-35 -61c-52 37 -104 61 -170 61c-101 0 -172 -57 -172 -132c0 -158 316 -107 316 -327c0 -123 -98 -212 -243 -220c35 -16 58 -42 58 -81z" />
    <glyph glyph-name="scedilla" unicode="&#x15f;" horiz-adv-x="454" 
d="M266 -92c0 -56 -46 -92 -117 -92c-43 0 -73 13 -95 25l20 43c20 -12 44 -22 72 -22c41 0 61 22 61 47c0 22 -14 45 -63 58l12 22c-54 4 -104 21 -144 47l30 55c46 -28 93 -46 145 -46c80 0 132 41 132 97c0 118 -230 80 -230 229c0 86 78 151 188 151
c56 0 107 -17 149 -46l-30 -56c-41 29 -80 44 -122 44c-67 0 -117 -38 -117 -86c0 -104 230 -67 230 -227c0 -90 -73 -153 -180 -162c36 -15 59 -42 59 -81z" />
    <glyph glyph-name="Scaron" unicode="&#x160;" horiz-adv-x="579" 
d="M24 55l34 60c61 -40 124 -64 193 -64c113 0 191 63 191 148c0 172 -316 122 -316 329c0 118 103 204 248 204c78 0 144 -25 200 -64l-35 -61c-52 37 -104 61 -170 61c-101 0 -172 -57 -172 -132c0 -158 316 -107 316 -327c0 -129 -108 -221 -266 -221
c-83 0 -160 25 -223 67zM493 908h61l-144 -125h-56l-99 125h51l81 -68z" />
    <glyph glyph-name="scaron" unicode="&#x161;" horiz-adv-x="454" 
d="M426 476l-30 -56c-41 29 -80 44 -122 44c-67 0 -117 -38 -117 -86c0 -104 230 -67 230 -227c0 -97 -84 -163 -205 -163c-63 0 -123 18 -170 48l30 55c46 -28 93 -46 145 -46c80 0 132 41 132 97c0 118 -230 80 -230 229c0 86 78 151 188 151c56 0 107 -17 149 -46z
M398 720h60l-148 -146h-55l-96 146h51l78 -89z" />
    <glyph glyph-name="uni0162" unicode="&#x162;" horiz-adv-x="561" 
d="M200 0l116 655h-214l11 65h499l-11 -65h-214l-116 -655h-25c42 -14 73 -43 73 -91c0 -58 -46 -93 -117 -93c-43 0 -73 13 -95 25l20 43c20 -12 44 -22 72 -22c40 0 61 21 61 48c0 24 -18 45 -63 57l17 33h-14z" />
    <glyph glyph-name="uni0163" unicode="&#x163;" horiz-adv-x="375" 
d="M60 451l10 59h105l30 170h69l-30 -170h135l-10 -59h-136l-54 -310c-3 -15 -5 -30 -5 -42c0 -34 16 -46 55 -46c30 0 53 7 72 13l-11 -60c-21 -6 -44 -12 -79 -12c-9 0 -17 0 -25 1c33 -18 51 -50 51 -86c0 -58 -47 -93 -117 -93c-43 0 -73 13 -95 25l20 43
c20 -12 44 -22 72 -22c41 0 61 22 61 50c0 25 -16 51 -57 65l18 33c-22 14 -35 38 -35 80c0 20 3 37 8 66l52 295h-104z" />
    <glyph glyph-name="Tcaron" unicode="&#x164;" horiz-adv-x="561" 
d="M200 0l116 655h-214l11 65h499l-11 -65h-214l-116 -655h-71zM483 908h61l-144 -125h-56l-99 125h51l81 -68z" />
    <glyph glyph-name="tcaron" unicode="&#x165;" horiz-adv-x="375" 
d="M351 571h-48l53 149h70zM60 451l11 59h104l30 170h69l-30 -170h135l-11 -59h-135l-54 -310c-3 -15 -5 -30 -5 -42c0 -34 16 -46 55 -46c30 0 53 7 72 13l-11 -60c-21 -6 -44 -12 -79 -12c-65 0 -107 21 -107 96c0 20 3 37 8 66l52 295h-104z" />
    <glyph glyph-name="Tbar" unicode="&#x166;" horiz-adv-x="561" 
d="M115 349l10 56h147l44 250h-214l11 65h499l-11 -65h-214l-44 -250h147l-10 -56h-147l-62 -349h-71l62 349h-147z" />
    <glyph glyph-name="tbar" unicode="&#x167;" horiz-adv-x="375" 
d="M60 451l11 59h104l30 170h69l-30 -170h135l-11 -59h-135l-27 -152h112l-10 -56h-112l-17 -102c-3 -15 -5 -30 -5 -42c0 -34 16 -46 55 -46c30 0 53 7 72 13l-11 -60c-21 -6 -44 -12 -79 -12c-65 0 -107 21 -107 96c0 20 3 37 8 66l15 87h-80l10 56h80l27 152h-104z" />
    <glyph glyph-name="Utilde" unicode="&#x168;" horiz-adv-x="687" 
d="M90 265l80 455h71l-82 -466c-4 -23 -5 -44 -5 -58c0 -101 52 -144 157 -144c128 0 193 64 218 203l82 465h69l-84 -478c-31 -177 -129 -254 -287 -254c-142 0 -227 62 -227 198c0 25 3 52 8 79zM334 783h-46c12 70 44 103 90 103c57 0 97 -53 137 -53c17 0 34 10 40 47
h46c-12 -70 -44 -103 -90 -103c-57 0 -97 53 -137 53c-17 0 -34 -10 -40 -47z" />
    <glyph glyph-name="utilde" unicode="&#x169;" horiz-adv-x="567" 
d="M533 510l-90 -510h-69l15 84c-50 -50 -120 -96 -206 -96c-66 0 -130 27 -130 121c0 12 1 28 4 44l63 357h69l-63 -359c-2 -12 -3 -22 -3 -31c0 -55 37 -72 82 -72c77 0 143 49 195 99l64 363h69zM236 580h-46c12 73 45 105 89 105c59 0 97 -56 137 -56c17 0 34 11 41 50
h46c-12 -73 -45 -105 -89 -105c-59 0 -97 56 -137 56c-17 0 -34 -11 -41 -50z" />
    <glyph glyph-name="Umacron" unicode="&#x16a;" horiz-adv-x="687" 
d="M90 265l80 455h71l-82 -466c-4 -23 -5 -44 -5 -58c0 -101 52 -144 157 -144c128 0 193 64 218 203l82 465h69l-84 -478c-31 -177 -129 -254 -287 -254c-142 0 -227 62 -227 198c0 25 3 52 8 79zM297 789l10 56h280l-10 -56h-280z" />
    <glyph glyph-name="umacron" unicode="&#x16b;" horiz-adv-x="567" 
d="M533 510l-90 -510h-69l15 84c-50 -50 -120 -96 -206 -96c-66 0 -130 27 -130 121c0 12 1 28 4 44l63 357h69l-63 -359c-2 -12 -3 -22 -3 -31c0 -55 37 -72 82 -72c77 0 143 49 195 99l64 363h69zM198 585l10 57h280l-10 -57h-280z" />
    <glyph glyph-name="Ubreve" unicode="&#x16c;" horiz-adv-x="687" 
d="M89 265l80 455h71l-82 -466c-4 -23 -5 -44 -5 -58c0 -101 52 -144 157 -144c128 0 193 64 218 203l82 465h69l-84 -478c-31 -177 -129 -254 -287 -254c-142 0 -227 62 -227 198c0 25 3 52 8 79zM443 784c-86 0 -130 35 -130 97c0 9 1 19 3 28h46c0 -46 16 -69 85 -69
c68 0 94 23 109 69h46c-14 -78 -59 -125 -159 -125z" />
    <glyph glyph-name="ubreve" unicode="&#x16d;" horiz-adv-x="567" 
d="M533 510l-90 -510h-69l15 84c-50 -50 -120 -96 -206 -96c-66 0 -130 27 -130 121c0 12 1 28 4 44l63 357h69l-63 -359c-2 -12 -3 -22 -3 -31c0 -55 37 -72 82 -72c77 0 143 49 195 99l64 363h69zM346 580c-86 0 -129 41 -129 108c0 11 1 21 3 32h46v-9
c0 -50 18 -74 83 -74c69 0 94 27 111 83h46c-15 -86 -61 -140 -160 -140z" />
    <glyph glyph-name="Uring" unicode="&#x16e;" horiz-adv-x="687" 
d="M90 265l80 455h71l-82 -466c-4 -23 -5 -44 -5 -58c0 -101 52 -144 157 -144c128 0 193 64 218 203l82 465h69l-84 -478c-31 -177 -129 -254 -287 -254c-142 0 -227 62 -227 198c0 25 3 52 8 79zM386 862c0 -26 19 -47 48 -47s48 21 48 47s-19 47 -48 47s-48 -21 -48 -47z
M521 862c0 -48 -37 -86 -87 -86s-87 38 -87 86s37 86 87 86s87 -38 87 -86z" />
    <glyph glyph-name="uring" unicode="&#x16f;" horiz-adv-x="567" 
d="M533 510l-90 -510h-69l15 84c-50 -50 -120 -96 -206 -96c-66 0 -130 27 -130 121c0 12 1 28 4 44l63 357h69l-63 -359c-2 -12 -3 -22 -3 -31c0 -55 37 -72 82 -72c77 0 143 49 195 99l64 363h69zM301 655c0 -26 19 -47 48 -47s48 21 48 47s-19 47 -48 47s-48 -21 -48 -47
zM436 655c0 -48 -37 -86 -87 -86s-87 38 -87 86s37 86 87 86s87 -38 87 -86z" />
    <glyph glyph-name="Uhungarumlaut" unicode="&#x170;" horiz-adv-x="687" 
d="M90 265l80 455h71l-82 -466c-4 -23 -5 -44 -5 -58c0 -101 52 -144 157 -144c128 0 193 64 218 203l82 465h69l-84 -478c-31 -177 -129 -254 -287 -254c-142 0 -227 62 -227 198c0 25 3 52 8 79zM357 783h-59l110 125h92zM502 783h-59l110 125h92z" />
    <glyph glyph-name="uhungarumlaut" unicode="&#x171;" horiz-adv-x="567" 
d="M533 510l-90 -510h-69l15 84c-50 -50 -120 -96 -206 -96c-66 0 -130 27 -130 121c0 12 1 28 4 44l63 357h69l-63 -359c-2 -12 -3 -22 -3 -31c0 -55 37 -72 82 -72c77 0 143 49 195 99l64 363h69zM262 574h-60l114 146h92zM406 574h-60l125 146h92z" />
    <glyph glyph-name="Uogonek" unicode="&#x172;" horiz-adv-x="687" 
d="M90 265l80 455h71l-82 -466c-4 -23 -5 -44 -5 -58c0 -101 52 -144 157 -144c128 0 193 64 218 203l82 465h69l-84 -478c-27 -155 -106 -234 -231 -250c-69 -34 -92 -64 -92 -97c0 -25 13 -33 39 -33c10 0 21 1 36 5l4 -47c-14 -3 -34 -4 -46 -4c-58 0 -92 25 -92 72
c0 37 21 73 75 101c-130 5 -207 67 -207 197c0 25 3 52 8 79z" />
    <glyph glyph-name="uogonek" unicode="&#x173;" horiz-adv-x="567" 
d="M533 510l-90 -510h-11c-83 -38 -110 -69 -110 -105c0 -25 13 -33 39 -33c10 0 21 1 36 5l4 -47c-14 -3 -34 -4 -46 -4c-58 0 -92 25 -92 72c0 44 31 87 112 116l14 80c-50 -50 -120 -96 -206 -96c-66 0 -130 27 -130 121c0 12 1 28 4 44l63 357h69l-63 -359
c-2 -12 -3 -22 -3 -31c0 -55 37 -72 82 -72c77 0 143 49 195 99l64 363h69z" />
    <glyph glyph-name="Wcircumflex" unicode="&#x174;" horiz-adv-x="953" 
d="M608 0l-45 413c-6 56 -16 152 -19 211h-2c-27 -70 -59 -135 -92 -205l-198 -419h-69l-61 720h70l32 -413c7 -86 12 -140 13 -206h2c18 46 55 130 90 204l197 415h68l44 -413c10 -95 14 -128 18 -206h2c18 52 45 121 82 205l181 414h75l-320 -720h-68zM480 783h-61
l144 125h56l99 -125h-51l-81 68z" />
    <glyph glyph-name="wcircumflex" unicode="&#x175;" horiz-adv-x="751" 
d="M203 0h-68l-64 510h67l34 -289c7 -57 11 -101 11 -144h2c10 32 34 84 61 139l144 294h65l33 -291c7 -61 10 -91 11 -142h2c12 37 35 91 60 143l139 290h70l-248 -510h-67l-33 286c-9 76 -11 93 -12 143h-2c-19 -49 -41 -94 -65 -143zM342 574h-60l148 146h55l96 -146h-51
l-78 89z" />
    <glyph glyph-name="Ycircumflex" unicode="&#x176;" horiz-adv-x="603" 
d="M221 0l55 309l-168 411h72l139 -340l258 340h82l-312 -411l-55 -309h-71zM305 783h-61l144 125h56l99 -125h-51l-81 68z" />
    <glyph glyph-name="ycircumflex" unicode="&#x177;" horiz-adv-x="505" 
d="M-44 -211l11 61c13 -3 26 -6 45 -6c60 0 96 28 173 168h-24l-90 498h70l75 -446l234 446h74l-273 -508c-99 -185 -145 -218 -239 -218c-16 0 -36 1 -56 5zM218 574h-60l148 146h55l96 -146h-51l-78 89z" />
    <glyph glyph-name="Ydieresis" unicode="&#x178;" horiz-adv-x="603" 
d="M221 0l55 309l-168 411h72l139 -340l258 340h82l-312 -411l-55 -309h-71zM266 825c0 24 18 43 43 43s43 -19 43 -43s-18 -43 -43 -43s-43 19 -43 43zM452 825c0 24 18 43 43 43s43 -19 43 -43s-18 -43 -43 -43s-43 19 -43 43z" />
    <glyph glyph-name="Zacute" unicode="&#x179;" horiz-adv-x="598" 
d="M-4 0l9 54l512 601h-383l11 65h479l-9 -55l-512 -601h410l-11 -64h-506zM391 783h-59l110 125h92z" />
    <glyph glyph-name="zacute" unicode="&#x17a;" horiz-adv-x="482" 
d="M-13 0l8 50l381 401h-290l10 59h384l-8 -50l-381 -401h314l-10 -59h-408zM297 574h-60l114 146h92z" />
    <glyph glyph-name="Zdotaccent" unicode="&#x17b;" horiz-adv-x="598" 
d="M-4 0l9 54l512 601h-383l11 65h479l-9 -55l-512 -601h410l-11 -64h-506zM443 826c0 -27 -19 -46 -46 -46s-46 19 -46 46s19 46 46 46s46 -19 46 -46z" />
    <glyph glyph-name="zdotaccent" unicode="&#x17c;" horiz-adv-x="482" 
d="M-13 0l8 50l381 401h-290l10 59h384l-8 -50l-381 -401h314l-10 -59h-408zM349 625c0 -27 -19 -46 -46 -46s-46 19 -46 46s19 46 46 46s46 -19 46 -46z" />
    <glyph glyph-name="Zcaron" unicode="&#x17d;" horiz-adv-x="598" 
d="M-4 0l9 54l512 601h-383l11 65h479l-9 -55l-512 -601h410l-11 -64h-506zM501 908h61l-144 -125h-56l-99 125h51l81 -68z" />
    <glyph glyph-name="zcaron" unicode="&#x17e;" horiz-adv-x="482" 
d="M-13 0l8 50l381 401h-290l10 59h384l-8 -50l-381 -401h314l-10 -59h-408zM411 720h60l-148 -146h-55l-96 146h51l78 -89z" />
    <glyph glyph-name="longs" unicode="&#x17f;" horiz-adv-x="336" 
d="M60 451l11 59h104l15 86c14 80 44 130 146 130c20 0 42 -2 67 -7l-10 -58c-18 4 -34 6 -48 6c-59 0 -79 -31 -89 -88l-102 -579h-69l79 451h-104z" />
    <glyph glyph-name="uni018F" unicode="&#x18f;" horiz-adv-x="697" 
d="M67 276c0 53 8 91 13 120h515v18c0 164 -78 253 -202 253c-71 0 -153 -29 -215 -73l-12 66c61 42 152 72 233 72c159 0 267 -113 267 -318c0 -218 -121 -426 -344 -426c-157 0 -255 102 -255 288zM324 51c158 0 243 138 265 284h-448c-2 -19 -3 -40 -3 -58
c0 -148 66 -226 186 -226z" />
    <glyph glyph-name="florin" unicode="&#x192;" horiz-adv-x="456" 
d="M448 673c-75 0 -102 -41 -120 -104l-49 -172h179l-10 -56h-184l-96 -341h-68l96 341h-153l10 56h159l52 185c25 90 62 150 179 150c26 0 50 -3 73 -6l-11 -58c-20 3 -40 5 -57 5z" />
    <glyph glyph-name="uni01B5" unicode="&#x1b5;" horiz-adv-x="598" 
d="M132 349l10 56h162l213 250h-383l11 65h479l-9 -55l-221 -260h116l-10 -56h-154l-243 -285h410l-11 -64h-506l9 54l251 295h-124z" />
    <glyph glyph-name="uni01B6" unicode="&#x1b6;" horiz-adv-x="482" 
d="M87 243l10 56h134l145 152h-290l10 59h384l-8 -50l-153 -161h81l-10 -56h-124l-175 -184h314l-10 -59h-408l8 50l183 193h-91z" />
    <glyph glyph-name="Aringacute" unicode="&#x1fa;" horiz-adv-x="673" 
d="M432 859h-59l110 87h92zM514 759c0 -33 -18 -61 -46 -76l124 -683h-70l-36 206h-311l-109 -206h-75l374 695c-17 15 -28 38 -28 64c0 48 38 86 89 86c50 0 88 -38 88 -86zM409 647l-202 -380h268zM377 759c0 -26 19 -47 49 -47c29 0 48 21 48 47s-19 47 -48 47
c-30 0 -49 -21 -49 -47z" />
    <glyph glyph-name="aringacute" unicode="&#x1fb;" horiz-adv-x="562" 
d="M447 0h-66c-3 6 -5 14 -5 33c0 13 1 20 4 34c-43 -49 -101 -79 -166 -79c-98 0 -172 66 -172 213c0 175 104 321 253 321c57 0 107 -21 155 -75l11 63h66l-69 -391c-8 -47 -13 -80 -13 -99c0 -8 1 -14 2 -20zM231 47c55 0 110 29 160 86l46 258c-40 45 -82 70 -137 70
c-119 0 -189 -118 -189 -252c0 -113 50 -162 120 -162zM302 625c0 -26 19 -47 48 -47s48 21 48 47s-19 47 -48 47s-48 -21 -48 -47zM437 625c0 -48 -37 -86 -87 -86s-87 38 -87 86s37 86 87 86s87 -38 87 -86zM371 728h-60l114 102h92z" />
    <glyph glyph-name="AEacute" unicode="&#x1fc;" horiz-adv-x="933" 
d="M426 0l36 206h-250l-147 -206h-83l528 720h451l-11 -65h-337l-44 -249h293l-11 -63h-293l-50 -279h339l-11 -64h-410zM256 267h217l71 401zM743 783h-59l110 125h92z" />
    <glyph glyph-name="aeacute" unicode="&#x1fd;" horiz-adv-x="859" 
d="M657 522c115 0 169 -67 169 -139c0 -87 -78 -156 -296 -156c-27 0 -56 1 -85 5v-21c0 -105 50 -166 143 -166c52 0 111 19 163 52l11 -58c-53 -33 -120 -51 -182 -51c-87 0 -149 35 -181 101c-53 -55 -130 -101 -216 -101c-90 0 -157 50 -157 140c0 106 92 184 267 184
c20 0 51 -1 93 -5l7 41c3 17 4 30 4 40c0 54 -31 75 -94 75c-67 0 -126 -24 -178 -55l-10 59c50 30 120 55 196 55s132 -25 149 -86c49 53 117 86 197 86zM198 46c70 0 133 41 185 93c-5 20 -7 43 -7 67c0 17 1 34 3 50c-36 4 -65 5 -84 5c-140 0 -201 -56 -201 -126
c0 -57 41 -89 104 -89zM654 466c-103 0 -178 -79 -201 -183c25 -3 49 -5 84 -5c168 0 223 46 223 104c0 47 -35 84 -106 84zM515 574h-60l114 146h92z" />
    <glyph glyph-name="Oslashacute" unicode="&#x1fe;" horiz-adv-x="716" 
d="M441 783h-59l110 125h92zM137 312c0 -51 7 -96 21 -133l411 408c-36 55 -93 83 -161 83c-165 0 -271 -161 -271 -358zM343 50c166 0 272 161 272 356c0 53 -8 97 -22 134l-411 -408c37 -55 93 -82 161 -82zM342 -12c-86 0 -158 34 -207 97l-98 -97l-35 36l105 104
c-25 50 -39 112 -39 185c0 231 141 419 342 419c86 0 158 -34 207 -98l98 98l35 -36l-106 -105c26 -49 40 -111 40 -184c0 -231 -141 -419 -342 -419z" />
    <glyph glyph-name="oslashacute" unicode="&#x1ff;" horiz-adv-x="554" 
d="M110 217c0 -31 4 -58 12 -81l289 278c-25 35 -64 52 -109 52c-119 0 -192 -118 -192 -249zM252 44c119 0 192 118 192 248c0 31 -4 59 -12 82l-290 -278c26 -35 64 -52 110 -52zM248 -12c-61 0 -115 21 -152 63l-78 -75l-30 31l84 81c-19 34 -29 76 -29 127
c0 166 107 307 263 307c60 0 114 -21 151 -64l79 76l30 -31l-84 -81c18 -34 29 -77 29 -129c0 -164 -107 -305 -263 -305zM324 574h-60l114 146h92z" />
    <glyph glyph-name="uni0218" unicode="&#x218;" horiz-adv-x="579" 
d="M24 55l34 60c61 -40 124 -64 193 -64c113 0 191 63 191 148c0 172 -316 122 -316 329c0 118 103 204 248 204c78 0 144 -25 200 -64l-35 -61c-52 37 -104 61 -170 61c-101 0 -172 -57 -172 -132c0 -158 316 -107 316 -327c0 -129 -108 -221 -266 -221
c-83 0 -160 25 -223 67zM151 -167c40 17 61 36 70 53c-25 0 -42 17 -42 41s16 41 43 41c29 0 52 -20 52 -57c0 -39 -25 -81 -103 -116z" />
    <glyph glyph-name="uni0219" unicode="&#x219;" horiz-adv-x="454" 
d="M426 476l-30 -56c-41 29 -80 44 -122 44c-67 0 -117 -38 -117 -86c0 -104 230 -67 230 -227c0 -97 -84 -163 -205 -163c-63 0 -123 18 -170 48l30 55c46 -28 93 -46 145 -46c80 0 132 41 132 97c0 118 -230 80 -230 229c0 86 78 151 188 151c56 0 107 -17 149 -46z
M83 -167c40 17 61 36 70 53c-25 0 -42 17 -42 41s16 41 43 41c29 0 52 -20 52 -57c0 -39 -25 -81 -103 -116z" />
    <glyph glyph-name="uni021A" unicode="&#x21a;" horiz-adv-x="561" 
d="M200 0l116 655h-214l11 65h499l-11 -65h-214l-116 -655h-71zM142 -167c40 17 61 36 70 53c-25 0 -42 17 -42 41s16 41 43 41c29 0 52 -20 52 -57c0 -39 -25 -81 -103 -116z" />
    <glyph glyph-name="uni021B" unicode="&#x21b;" horiz-adv-x="375" 
d="M76 -167c40 17 61 36 70 53c-25 0 -42 17 -42 41s16 41 43 41c29 0 52 -20 52 -57c0 -39 -25 -81 -103 -116zM60 451l11 59h104l30 170h69l-30 -170h135l-11 -59h-135l-54 -310c-3 -15 -5 -30 -5 -42c0 -34 16 -46 55 -46c30 0 53 7 72 13l-11 -60
c-21 -6 -44 -12 -79 -12c-65 0 -107 21 -107 96c0 20 3 37 8 66l52 295h-104z" />
    <glyph glyph-name="uni0237" unicode="&#x237;" horiz-adv-x="241" 
d="M200 510l-105 -596c-14 -80 -44 -130 -146 -130c-20 0 -42 2 -67 7l10 58c18 -4 34 -6 48 -6c59 0 79 31 89 88l102 579h69z" />
    <glyph glyph-name="uni0259" unicode="&#x259;" horiz-adv-x="517" 
d="M195 -12c-117 0 -168 71 -168 147c0 94 79 167 298 167c26 0 53 -1 80 -5v1c0 106 -47 166 -138 166c-51 0 -108 -19 -158 -52l-11 59c52 33 119 51 177 51c125 0 199 -81 199 -221c0 -176 -116 -313 -279 -313zM200 43c106 0 183 88 201 204c-25 2 -48 4 -82 4
c-172 0 -225 -51 -225 -116c0 -51 33 -92 106 -92z" />
    <glyph glyph-name="uni02BB" unicode="&#x2bb;" horiz-adv-x="261" 
d="M170 577h3c32 0 51 -21 51 -48c0 -28 -19 -49 -48 -49c-36 0 -61 32 -61 77c0 55 38 120 147 175l31 -40c-82 -37 -113 -79 -123 -115z" />
    <glyph glyph-name="uni02BC" unicode="&#x2bc;" horiz-adv-x="261" 
d="M212 635h-3c-32 0 -51 21 -51 48c0 28 19 49 48 49c36 0 61 -32 61 -77c0 -55 -38 -120 -147 -175l-31 40c82 37 113 79 123 115z" />
    <glyph glyph-name="circumflex" unicode="&#x2c6;" horiz-adv-x="500" 
d="M217 574h-60l148 146h55l96 -146h-51l-78 89z" />
    <glyph glyph-name="caron" unicode="&#x2c7;" horiz-adv-x="500" 
d="M421 720h60l-148 -146h-55l-96 146h51l78 -89z" />
    <glyph glyph-name="breve" unicode="&#x2d8;" horiz-adv-x="500" 
d="M314 580c-86 0 -129 41 -129 108c0 11 1 21 3 32h46v-9c0 -50 18 -74 83 -74c69 0 94 27 111 83h46c-15 -86 -61 -140 -160 -140z" />
    <glyph glyph-name="dotaccent" unicode="&#x2d9;" horiz-adv-x="500" 
d="M359 619c0 -27 -19 -46 -46 -46s-46 19 -46 46s19 46 46 46s46 -19 46 -46z" />
    <glyph glyph-name="ring" unicode="&#x2da;" horiz-adv-x="500" 
d="M271 655c0 -26 19 -47 48 -47s48 21 48 47s-19 47 -48 47s-48 -21 -48 -47zM406 655c0 -48 -37 -86 -87 -86s-87 38 -87 86s37 86 87 86s87 -38 87 -86z" />
    <glyph glyph-name="ogonek" unicode="&#x2db;" horiz-adv-x="500" 
d="M169 -105c0 -25 13 -33 39 -33c10 0 21 1 36 5l4 -47c-14 -3 -34 -4 -46 -4c-58 0 -92 25 -92 72c0 42 28 84 101 112h68c-83 -38 -110 -69 -110 -105z" />
    <glyph glyph-name="tilde" unicode="&#x2dc;" horiz-adv-x="500" 
d="M205 580h-46c12 73 45 105 89 105c59 0 97 -56 137 -56c17 0 34 11 41 50h46c-12 -73 -45 -105 -89 -105c-59 0 -97 56 -137 56c-17 0 -34 -11 -41 -50z" />
    <glyph glyph-name="hungarumlaut" unicode="&#x2dd;" horiz-adv-x="500" 
d="M230 574h-60l114 146h92zM374 574h-60l125 146h92z" />
    <glyph glyph-name="gravecomb" unicode="&#x300;" horiz-adv-x="1" 
d="M-87 574h-54l-100 146h80z" />
    <glyph glyph-name="acutecomb" unicode="&#x301;" horiz-adv-x="1" 
d="M-144 574h-60l114 146h92z" />
    <glyph glyph-name="uni0302" unicode="&#x302;" horiz-adv-x="1" 
d="M-235 574h-60l148 146h55l96 -146h-51l-78 89z" />
    <glyph glyph-name="tildecomb" unicode="&#x303;" horiz-adv-x="1" 
d="M-246 580h-46c12 73 45 105 89 105c59 0 97 -56 137 -56c17 0 34 11 41 50h46c-12 -73 -45 -105 -89 -105c-59 0 -97 56 -137 56c-17 0 -34 -11 -41 -50z" />
    <glyph glyph-name="uni0304" unicode="&#x304;" horiz-adv-x="1" 
d="M-261 585l10 57h280l-10 -57h-280z" />
    <glyph glyph-name="uni0306" unicode="&#x306;" horiz-adv-x="1" 
d="M-114 580c-86 0 -129 41 -129 108c0 11 1 21 3 32h46v-9c0 -50 18 -74 83 -74c69 0 94 27 111 83h46c-15 -86 -61 -140 -160 -140z" />
    <glyph glyph-name="uni0307" unicode="&#x307;" horiz-adv-x="1" 
d="M52 651c0 -27 -19 -46 -46 -46s-46 19 -46 46s19 46 46 46s46 -19 46 -46z" />
    <glyph glyph-name="uni0308" unicode="&#x308;" horiz-adv-x="1" 
d="M-250 622c0 24 18 43 43 43s43 -19 43 -43s-18 -43 -43 -43s-43 19 -43 43zM-64 622c0 24 18 43 43 43s43 -19 43 -43s-18 -43 -43 -43s-43 19 -43 43z" />
    <glyph glyph-name="uni030A" unicode="&#x30a;" horiz-adv-x="1" 
d="M-158 655c0 -26 19 -47 48 -47s48 21 48 47s-19 47 -48 47s-48 -21 -48 -47zM-23 655c0 -48 -37 -86 -87 -86s-87 38 -87 86s37 86 87 86s87 -38 87 -86z" />
    <glyph glyph-name="uni030B" unicode="&#x30b;" horiz-adv-x="1" 
d="M-198 574h-60l114 146h92zM-54 574h-60l125 146h92z" />
    <glyph glyph-name="uni030C" unicode="&#x30c;" horiz-adv-x="1" 
d="M1 720h60l-148 -146h-55l-96 146h51l78 -89z" />
    <glyph glyph-name="uni0312" unicode="&#x312;" horiz-adv-x="1" 
d="M-9 742l20 -38c-40 -17 -61 -36 -70 -53c25 0 42 -17 42 -41s-16 -41 -43 -41c-29 0 -52 20 -52 57c0 39 25 81 103 116z" />
    <glyph glyph-name="uni0313" unicode="&#x313;" horiz-adv-x="1" 
d="M-81 601c40 17 61 36 70 53c-25 0 -42 17 -42 41s16 41 43 41c29 0 52 -20 52 -57c0 -39 -25 -81 -103 -116z" />
    <glyph glyph-name="uni0326" unicode="&#x326;" horiz-adv-x="1" 
d="M-310 -167c40 17 61 36 70 53c-25 0 -42 17 -42 41s16 41 43 41c29 0 52 -20 52 -57c0 -39 -25 -81 -103 -116z" />
    <glyph glyph-name="uni0327" unicode="&#x327;" horiz-adv-x="1" 
d="M-140 -92c0 -56 -46 -92 -117 -92c-43 0 -73 13 -95 25l20 43c20 -12 44 -22 72 -22c41 0 61 22 61 47c0 22 -14 45 -63 58l19 34c60 -9 103 -40 103 -93z" />
    <glyph glyph-name="uni0328" unicode="&#x328;" horiz-adv-x="1" 
d="M-259 -105c0 -25 13 -33 39 -33c10 0 21 1 36 5l4 -47c-14 -3 -34 -4 -46 -4c-58 0 -92 25 -92 72c0 42 28 84 101 112h68c-83 -38 -110 -69 -110 -105z" />
    <glyph glyph-name="uni0335" unicode="&#x335;" horiz-adv-x="1" 
d="M69 280l11 63h371l-11 -63h-371z" />
    <glyph glyph-name="uni0336" unicode="&#x336;" horiz-adv-x="1" 
d="M69 280l11 63h871l-11 -63h-871z" />
    <glyph glyph-name="uni037E" unicode="&#x37e;" horiz-adv-x="279" 
d="M98 -9h-3c-32 0 -51 21 -51 48c0 28 19 49 48 49c36 0 61 -32 61 -77c0 -55 -38 -120 -147 -175l-31 40c82 37 113 79 123 115zM219 440c0 -28 -20 -50 -50 -50s-50 22 -50 50s20 50 50 50s50 -22 50 -50z" />
    <glyph glyph-name="tonos" unicode="&#x384;" horiz-adv-x="500" 
d="M320 574h-56l74 146h88z" />
    <glyph glyph-name="dieresistonos" unicode="&#x385;" horiz-adv-x="500" 
d="M353 670h-56l51 105h81zM177 615c0 24 18 43 43 43s43 -19 43 -43s-18 -43 -43 -43s-43 19 -43 43zM363 615c0 24 18 43 43 43s43 -19 43 -43s-18 -43 -43 -43s-43 19 -43 43z" />
    <glyph glyph-name="Alphatonos" unicode="&#x386;" horiz-adv-x="673" 
d="M157 574h-56l74 146h88zM462 720l130 -720h-70l-36 206h-311l-109 -206h-75l388 720h83zM409 647l-202 -380h268z" />
    <glyph glyph-name="anoteleia" unicode="&#x387;" horiz-adv-x="279" 
d="M189 257c0 -28 -20 -50 -50 -50s-50 22 -50 50s20 50 50 50s50 -22 50 -50z" />
    <glyph glyph-name="Epsilontonos" unicode="&#x388;" horiz-adv-x="678" 
d="M105 574h-56l74 146h88zM140 0l127 720h438l-11 -65h-367l-44 -249h323l-11 -63h-323l-50 -279h369l-11 -64h-440z" />
    <glyph glyph-name="Etatonos" unicode="&#x389;" horiz-adv-x="793" 
d="M105 574h-56l74 146h88zM139 0l127 720h71l-55 -312h369l55 312h71l-127 -720h-71l61 343h-369l-61 -343h-71z" />
    <glyph glyph-name="Iotatonos" unicode="&#x38a;" horiz-adv-x="370" 
d="M105 574h-56l74 146h88zM149 0l127 720h71l-127 -720h-71z" />
    <glyph glyph-name="Omicrontonos" unicode="&#x38c;" horiz-adv-x="798" 
d="M105 574h-56l74 146h88zM426 52c164 0 269 160 269 355c0 173 -83 261 -205 261c-164 0 -269 -160 -269 -355c0 -173 83 -261 205 -261zM424 -12c-160 0 -274 118 -274 325c0 231 141 419 342 419c160 0 274 -118 274 -325c0 -231 -141 -419 -342 -419z" />
    <glyph glyph-name="Upsilontonos" unicode="&#x38e;" horiz-adv-x="717" 
d="M105 574h-56l74 146h88zM335 0l55 309l-168 411h72l139 -340l258 340h82l-312 -411l-55 -309h-71z" />
    <glyph glyph-name="Omegatonos" unicode="&#x38f;" horiz-adv-x="801" 
d="M105 574h-56l74 146h88zM497 668c-153 0 -266 -135 -266 -323c0 -124 49 -216 127 -290l-9 -55h-267l10 64h183c-71 69 -115 159 -115 280c0 223 149 388 339 388c159 0 274 -115 274 -305c0 -150 -72 -275 -200 -363h177l-11 -64h-266l9 55c140 96 220 214 220 370
c0 158 -83 243 -205 243z" />
    <glyph glyph-name="iotadieresistonos" unicode="&#x390;" horiz-adv-x="275" 
d="M53 83c0 18 3 33 5 47l67 380h69l-69 -395c-1 -6 -3 -17 -3 -27c0 -25 13 -36 44 -36c16 0 36 3 53 8l-11 -58c-17 -5 -40 -8 -60 -8c-65 0 -95 32 -95 89zM218 670h-56l51 105h81zM42 615c0 24 18 43 43 43s43 -19 43 -43s-18 -43 -43 -43s-43 19 -43 43zM228 615
c0 24 18 43 43 43s43 -19 43 -43s-18 -43 -43 -43s-43 19 -43 43z" />
    <glyph glyph-name="Alpha" unicode="&#x391;" horiz-adv-x="673" 
d="M462 720l130 -720h-70l-36 206h-311l-109 -206h-75l388 720h83zM409 647l-202 -380h268z" />
    <glyph glyph-name="Beta" unicode="&#x392;" horiz-adv-x="643" 
d="M51 0l127 720h214c130 0 213 -56 213 -173c0 -88 -47 -152 -142 -181c78 -25 112 -82 112 -157c0 -121 -89 -209 -274 -209h-250zM133 61h168c137 0 204 57 204 152c0 86 -55 124 -155 124h-168zM192 396h148c130 0 195 54 195 145c0 82 -53 117 -148 117h-149z" />
    <glyph glyph-name="Gamma" unicode="&#x393;" horiz-adv-x="530" 
d="M51 0l127 720h403l-11 -65h-332l-116 -655h-71z" />
    <glyph glyph-name="uni0394" unicode="&#x394;" horiz-adv-x="673" 
d="M462 720l122 -665l-10 -55h-565l9 55l361 665h83zM409 647l-309 -583h411z" />
    <glyph glyph-name="Epsilon" unicode="&#x395;" horiz-adv-x="588" 
d="M51 0l127 720h438l-11 -65h-367l-44 -249h323l-11 -63h-323l-50 -279h369l-11 -64h-440z" />
    <glyph glyph-name="Zeta" unicode="&#x396;" horiz-adv-x="598" 
d="M-4 0l9 54l512 601h-383l11 65h479l-9 -55l-512 -601h410l-11 -64h-506z" />
    <glyph glyph-name="Eta" unicode="&#x397;" horiz-adv-x="703" 
d="M50 0l127 720h71l-55 -312h369l55 312h71l-127 -720h-71l61 343h-369l-61 -343h-71z" />
    <glyph glyph-name="Theta" unicode="&#x398;" horiz-adv-x="716" 
d="M344 52c144 0 243 122 266 283h-473v-22c0 -173 84 -261 207 -261zM408 668c-141 0 -238 -116 -264 -270h471v9c0 173 -84 261 -207 261zM342 -12c-160 0 -274 118 -274 325c0 231 141 419 342 419c160 0 274 -118 274 -325c0 -231 -141 -419 -342 -419z" />
    <glyph glyph-name="Iota" unicode="&#x399;" horiz-adv-x="281" 
d="M60 0l127 720h71l-127 -720h-71z" />
    <glyph glyph-name="Kappa" unicode="&#x39a;" horiz-adv-x="643" 
d="M50 0l127 720h71l-64 -363l400 363h94l-307 -272l204 -448h-74l-182 402l-151 -132l-47 -270h-71z" />
    <glyph glyph-name="Lambda" unicode="&#x39b;" horiz-adv-x="646" 
d="M443 720l123 -720h-69l-104 628l-328 -628h-74l380 720h72z" />
    <glyph glyph-name="Mu" unicode="&#x39c;" horiz-adv-x="907" 
d="M763 720h93l-72 -720h-72l51 450c6 53 21 159 26 192h-2c-14 -40 -61 -126 -94 -186l-253 -456h-66l-84 456c-13 68 -29 150 -29 186h-2c-1 -10 -29 -127 -43 -184l-113 -458h-70l186 720h94l79 -452c17 -97 21 -123 28 -180h2c28 59 62 120 93 178z" />
    <glyph glyph-name="Nu" unicode="&#x39d;" horiz-adv-x="709" 
d="M51 0l127 720h81l266 -589l104 589h67l-127 -720h-59l-282 623l-110 -623h-67z" />
    <glyph glyph-name="Xi" unicode="&#x39e;" horiz-adv-x="523" 
d="M110 655l11 65h445l-11 -65h-445zM-9 0l11 65h450l-11 -65h-450zM98 345l11 64h359l-11 -64h-359z" />
    <glyph glyph-name="Omicron" unicode="&#x39f;" horiz-adv-x="715" 
d="M344 52c164 0 269 160 269 355c0 173 -83 261 -205 261c-164 0 -269 -160 -269 -355c0 -173 83 -261 205 -261zM342 -12c-160 0 -274 118 -274 325c0 231 141 419 342 419c160 0 274 -118 274 -325c0 -231 -141 -419 -342 -419z" />
    <glyph glyph-name="Pi" unicode="&#x3a0;" horiz-adv-x="703" 
d="M51 0l127 720h511l-127 -720h-71l116 655h-369l-116 -655h-71z" />
    <glyph glyph-name="Rho" unicode="&#x3a1;" horiz-adv-x="617" 
d="M50 0l127 720h232c133 0 216 -63 216 -190c0 -138 -98 -223 -272 -223h-178l-54 -307h-71zM237 655l-50 -284h166c136 0 201 58 201 156c0 89 -54 128 -151 128h-166z" />
    <glyph glyph-name="Sigma" unicode="&#x3a3;" horiz-adv-x="559" 
d="M5 0l9 54l311 318l-181 293l9 55h455l-11 -65h-370l180 -289l-297 -302h384l-11 -64h-478z" />
    <glyph glyph-name="Tau" unicode="&#x3a4;" horiz-adv-x="561" 
d="M200 0l116 655h-214l11 65h499l-11 -65h-214l-116 -655h-71z" />
    <glyph glyph-name="Upsilon" unicode="&#x3a5;" horiz-adv-x="603" 
d="M221 0l55 309l-168 411h72l139 -340l258 340h82l-312 -411l-55 -309h-71z" />
    <glyph glyph-name="Phi" unicode="&#x3a6;" horiz-adv-x="790" 
d="M312 -12l15 86c-151 20 -255 113 -255 262c0 172 139 311 357 314l15 82h71l-15 -86c151 -20 255 -113 255 -262c0 -173 -139 -312 -358 -314l-14 -82h-71zM685 381c0 120 -78 190 -196 206l-81 -459c173 6 277 114 277 253zM142 338c0 -120 78 -191 195 -207l82 459
c-174 -6 -277 -114 -277 -252z" />
    <glyph glyph-name="Chi" unicode="&#x3a7;" horiz-adv-x="625" 
d="M-11 0l299 371l-158 349h75l132 -298l236 298h85l-283 -349l170 -371h-75l-144 320l-252 -320h-85z" />
    <glyph glyph-name="Psi" unicode="&#x3a8;" horiz-adv-x="776" 
d="M730 720h69l-36 -204c-30 -170 -138 -260 -341 -266l-44 -250h-70l44 251c-165 12 -250 80 -250 221c0 26 3 45 7 67l32 181h70l-33 -187c-3 -19 -6 -40 -6 -61c0 -105 72 -153 191 -160l72 408h70l-72 -409c160 8 238 77 263 217z" />
    <glyph glyph-name="uni03A9" unicode="&#x3a9;" horiz-adv-x="716" 
d="M412 668c-153 0 -266 -135 -266 -323c0 -124 49 -216 127 -290l-9 -55h-267l10 64h183c-71 69 -115 159 -115 280c0 223 149 388 339 388c159 0 274 -115 274 -305c0 -150 -72 -275 -200 -363h177l-11 -64h-266l9 55c140 96 220 214 220 370c0 158 -83 243 -205 243z" />
    <glyph glyph-name="Iotadieresis" unicode="&#x3aa;" horiz-adv-x="281" 
d="M60 0l127 720h71l-127 -720h-71zM105 825c0 24 18 43 43 43s43 -19 43 -43s-18 -43 -43 -43s-43 19 -43 43zM291 825c0 24 18 43 43 43s43 -19 43 -43s-18 -43 -43 -43s-43 19 -43 43z" />
    <glyph glyph-name="Upsilondieresis" unicode="&#x3ab;" horiz-adv-x="603" 
d="M221 0l55 309l-168 411h72l139 -340l258 340h82l-312 -411l-55 -309h-71zM266 825c0 24 18 43 43 43s43 -19 43 -43s-18 -43 -43 -43s-43 19 -43 43zM452 825c0 24 18 43 43 43s43 -19 43 -43s-18 -43 -43 -43s-43 19 -43 43z" />
    <glyph glyph-name="alphatonos" unicode="&#x3ac;" horiz-adv-x="668" 
d="M585 510h76l-160 -259l61 -251h-70l-40 179c-94 -137 -159 -191 -244 -191c-102 0 -168 79 -168 212c0 169 106 322 254 322c86 0 135 -52 183 -197zM220 47c63 0 116 53 215 210c-45 167 -85 204 -144 204c-112 0 -182 -130 -182 -257c0 -103 47 -157 111 -157zM363 574
h-56l74 146h88z" />
    <glyph glyph-name="epsilontonos" unicode="&#x3ad;" horiz-adv-x="463" 
d="M85 366c0 89 84 156 207 156c67 0 121 -20 165 -46l-31 -56c-41 25 -84 44 -137 44c-78 0 -135 -40 -135 -95c0 -46 40 -78 103 -78h81l-11 -57h-71c-86 0 -161 -35 -161 -104c0 -57 50 -85 119 -85c61 0 113 21 160 50l10 -58c-47 -29 -107 -49 -176 -49
c-97 0 -182 40 -182 131c0 71 52 124 134 145c-51 19 -75 54 -75 102zM311 574h-56l74 146h88z" />
    <glyph glyph-name="etatonos" unicode="&#x3ae;" horiz-adv-x="567" 
d="M34 0l90 510h69l-15 -84c50 50 120 96 206 96c66 0 130 -27 130 -121c0 -12 -1 -28 -4 -44l-100 -567h-69l100 567c2 12 3 22 3 31c0 55 -37 72 -82 72c-77 0 -143 -49 -195 -99l-64 -361h-69zM355 574h-56l74 146h88z" />
    <glyph glyph-name="iotatonos" unicode="&#x3af;" horiz-adv-x="275" 
d="M53 83c0 18 3 33 5 47l67 380h69l-69 -395c-1 -6 -3 -17 -3 -27c0 -25 13 -36 44 -36c16 0 36 3 53 8l-11 -58c-17 -5 -40 -8 -60 -8c-65 0 -95 32 -95 89zM185 574h-56l74 146h88z" />
    <glyph glyph-name="upsilondieresistonos" unicode="&#x3b0;" horiz-adv-x="559" 
d="M409 510h73c22 -57 31 -131 31 -189c0 -210 -119 -333 -272 -333c-97 0 -180 49 -180 168c0 18 2 34 6 54l53 300h69l-55 -314c-3 -14 -4 -29 -4 -40c0 -77 50 -109 112 -109c105 0 202 91 202 276c0 57 -9 128 -35 187zM365 670h-56l51 105h81zM189 615
c0 24 18 43 43 43s43 -19 43 -43s-18 -43 -43 -43s-43 19 -43 43zM375 615c0 24 18 43 43 43s43 -19 43 -43s-18 -43 -43 -43s-43 19 -43 43z" />
    <glyph glyph-name="alpha" unicode="&#x3b1;" horiz-adv-x="668" 
d="M585 510h76l-160 -259l61 -251h-70l-40 179c-94 -137 -159 -191 -244 -191c-102 0 -168 79 -168 212c0 169 106 322 254 322c86 0 135 -52 183 -197zM220 47c63 0 116 53 215 210c-45 167 -85 204 -144 204c-112 0 -182 -130 -182 -257c0 -103 47 -157 111 -157z" />
    <glyph glyph-name="beta" unicode="&#x3b2;" horiz-adv-x="576" 
d="M112 42l-45 -252h-69l131 742c25 140 117 200 222 200c98 0 184 -52 184 -162c0 -93 -62 -153 -154 -179c89 -28 138 -92 138 -185c0 -136 -102 -218 -236 -218c-63 0 -121 18 -171 54zM450 206c0 104 -74 156 -187 156l11 59c103 0 193 44 193 143
c0 76 -53 110 -116 110c-74 0 -136 -46 -155 -153l-74 -417c45 -36 98 -57 158 -57c101 0 170 58 170 159z" />
    <glyph glyph-name="gamma" unicode="&#x3b3;" horiz-adv-x="498" 
d="M226 104v-23c92 108 196 262 211 429h72c-17 -212 -210 -450 -267 -510l-37 -211h-69l23 127c6 34 9 71 9 112c0 173 -53 383 -98 482h72c50 -110 84 -283 84 -406z" />
    <glyph glyph-name="delta" unicode="&#x3b4;" horiz-adv-x="562" 
d="M533 675l-30 -55c-42 31 -96 54 -152 54c-58 0 -99 -26 -99 -63c0 -93 256 -161 256 -380c0 -148 -117 -243 -257 -243c-121 0 -214 70 -214 206c0 163 133 235 247 271c-54 44 -100 85 -100 144c0 76 78 123 170 123c67 0 134 -25 179 -57zM440 231
c0 89 -53 147 -110 196c-91 -27 -224 -84 -224 -231c0 -101 63 -150 147 -150c101 0 187 70 187 185z" />
    <glyph glyph-name="epsilon" unicode="&#x3b5;" horiz-adv-x="463" 
d="M85 366c0 89 84 156 207 156c67 0 121 -20 165 -46l-31 -56c-41 25 -84 44 -137 44c-78 0 -135 -40 -135 -95c0 -46 40 -78 103 -78h81l-11 -57h-71c-86 0 -161 -35 -161 -104c0 -57 50 -85 119 -85c61 0 113 21 160 50l10 -58c-47 -29 -107 -49 -176 -49
c-97 0 -182 40 -182 131c0 71 52 124 134 145c-51 19 -75 54 -75 102z" />
    <glyph glyph-name="zeta" unicode="&#x3b6;" horiz-adv-x="459" 
d="M314 -51c0 94 -279 25 -279 231c0 157 160 325 351 484c-28 -2 -49 -3 -67 -3h-180l11 59h339l-9 -49c-198 -156 -376 -342 -376 -482c0 -171 269 -79 269 -224c0 -51 -32 -89 -65 -127l-48 26c27 30 54 56 54 85z" />
    <glyph glyph-name="eta" unicode="&#x3b7;" horiz-adv-x="567" 
d="M34 0l90 510h69l-15 -84c50 50 120 96 206 96c66 0 130 -27 130 -121c0 -12 -1 -28 -4 -44l-100 -567h-69l100 567c2 12 3 22 3 31c0 55 -37 72 -82 72c-77 0 -143 -49 -195 -99l-64 -361h-69z" />
    <glyph glyph-name="theta" unicode="&#x3b8;" horiz-adv-x="546" 
d="M244 -12c-118 0 -190 94 -190 282c0 224 102 462 290 462c118 0 190 -94 190 -282c0 -224 -102 -462 -290 -462zM249 46c120 0 188 148 209 300h-331c-3 -27 -4 -54 -4 -77c0 -158 46 -223 126 -223zM339 674c-110 0 -178 -123 -204 -268h329c1 15 1 31 1 47
c0 156 -46 221 -126 221z" />
    <glyph glyph-name="iota" unicode="&#x3b9;" horiz-adv-x="275" 
d="M53 83c0 18 3 33 5 47l67 380h69l-69 -395c-1 -6 -3 -17 -3 -27c0 -25 13 -36 44 -36c16 0 36 3 53 8l-11 -58c-17 -5 -40 -8 -60 -8c-65 0 -95 32 -95 89z" />
    <glyph glyph-name="kappa" unicode="&#x3ba;" horiz-adv-x="524" 
d="M379 0l-142 282l-101 -93l-33 -189h-69l90 510h69l-42 -238c200 200 245 244 364 244l-11 -59c-65 0 -99 -24 -219 -132l165 -325h-71z" />
    <glyph glyph-name="lambda" unicode="&#x3bb;" horiz-adv-x="520" 
d="M484 57l-10 -58c-7 -3 -23 -5 -38 -5c-53 0 -76 27 -89 101l-58 335l-247 -430h-75l286 486h26l-22 128c-7 42 -23 54 -57 54c-17 0 -29 -3 -42 -6l10 57c9 4 31 8 53 8c59 0 89 -28 102 -103l90 -519c7 -41 19 -52 43 -52c10 0 20 2 28 4z" />
    <glyph glyph-name="uni03BC" unicode="&#x3bc;" horiz-adv-x="572" 
d="M65 -210h-67l126 720h69l-63 -359c-2 -12 -3 -22 -3 -31c0 -55 37 -72 82 -72c77 0 143 49 195 99l64 363h69l-90 -510h-69l15 84c-50 -50 -122 -96 -203 -96c-38 0 -71 10 -93 37c-10 -90 -19 -159 -32 -235z" />
    <glyph glyph-name="nu" unicode="&#x3bd;" horiz-adv-x="505" 
d="M172 0l-101 510h68l84 -435c89 107 197 260 214 435h73c-17 -192 -172 -406 -267 -510h-71z" />
    <glyph glyph-name="xi" unicode="&#x3be;" horiz-adv-x="459" 
d="M314 -52c0 97 -281 19 -281 226c0 103 68 176 187 204c-67 22 -104 71 -104 134c0 105 104 208 347 208l-11 -59c-202 0 -267 -75 -267 -148c0 -67 56 -106 155 -106h52l-11 -59h-25c-163 0 -254 -62 -254 -163c0 -175 271 -74 271 -220c0 -50 -31 -89 -65 -127l-48 26
c31 34 54 57 54 84z" />
    <glyph glyph-name="omicron" unicode="&#x3bf;" horiz-adv-x="554" 
d="M251 46c118 0 190 117 190 246c0 116 -58 172 -140 172c-118 0 -190 -117 -190 -246c0 -116 58 -172 140 -172zM247 -12c-115 0 -205 77 -205 228c0 165 107 306 263 306c115 0 205 -77 205 -228c0 -165 -107 -306 -263 -306z" />
    <glyph glyph-name="pi" unicode="&#x3c0;" horiz-adv-x="636" 
d="M60 451l11 59h569l-11 -59h-92l-59 -336c-2 -10 -3 -18 -3 -26c0 -27 13 -37 39 -37c14 0 32 3 47 7l-11 -59c-18 -4 -37 -6 -54 -6c-59 0 -90 26 -90 87c0 11 1 20 3 34l59 336h-246c-30 -164 -62 -320 -96 -451h-71c36 131 68 287 97 451h-92z" />
    <glyph glyph-name="rho" unicode="&#x3c1;" horiz-adv-x="566" 
d="M257 -12c-55 0 -106 16 -151 48l-44 -246h-68l87 501c26 151 118 231 239 231c109 0 202 -66 202 -231c0 -182 -113 -303 -265 -303zM150 286l-34 -188c39 -31 85 -51 138 -51c117 0 199 94 199 240c0 125 -61 174 -138 174c-80 0 -143 -53 -165 -175z" />
    <glyph glyph-name="sigma1" unicode="&#x3c2;" horiz-adv-x="459" 
d="M373 -34c0 -52 -32 -90 -65 -128l-48 26c28 31 54 56 54 86c0 98 -275 4 -275 259c0 198 166 307 404 307l-11 -59c-185 0 -324 -82 -324 -242c0 -220 265 -101 265 -249z" />
    <glyph glyph-name="sigma" unicode="&#x3c3;" horiz-adv-x="567" 
d="M580 510l-11 -59h-150c53 -45 86 -109 86 -188c0 -137 -100 -275 -252 -275c-120 0 -210 85 -210 230c0 169 122 292 327 292h210zM436 266c0 77 -32 140 -91 185c-152 -6 -233 -101 -233 -232c0 -114 61 -173 144 -173c111 0 180 108 180 220z" />
    <glyph glyph-name="tau" unicode="&#x3c4;" horiz-adv-x="450" 
d="M60 451l11 59h398l-11 -59h-170l-58 -336c-1 -6 -3 -17 -3 -27c0 -25 13 -36 44 -36c16 0 36 3 53 8l-11 -58c-17 -5 -40 -8 -60 -8c-66 0 -95 32 -95 88c0 18 3 34 5 48l56 321h-159z" />
    <glyph glyph-name="upsilon" unicode="&#x3c5;" horiz-adv-x="559" 
d="M409 510h73c22 -57 31 -131 31 -189c0 -210 -119 -333 -272 -333c-97 0 -180 49 -180 168c0 18 2 34 6 54l53 300h69l-55 -314c-3 -14 -4 -29 -4 -40c0 -77 50 -109 112 -109c105 0 202 91 202 276c0 57 -9 128 -35 187z" />
    <glyph glyph-name="phi" unicode="&#x3c6;" horiz-adv-x="688" 
d="M646 300c0 -200 -136 -309 -318 -313l-35 -197h-67l35 201c-127 16 -217 93 -217 240c0 122 63 214 163 285l57 -24c-97 -69 -152 -152 -152 -258c0 -117 67 -174 159 -187l57 325c18 102 76 150 153 150c106 0 165 -91 165 -222zM394 362l-56 -318c136 8 240 95 240 258
c0 97 -37 160 -95 160c-41 0 -77 -31 -89 -100z" />
    <glyph glyph-name="chi" unicode="&#x3c7;" horiz-adv-x="532" 
d="M90 457c-10 0 -20 -2 -29 -4l10 58c9 3 23 5 38 5c48 0 74 -20 95 -93l55 -196l197 283h77l-247 -346l79 -267c12 -42 28 -54 53 -54c10 0 20 2 29 4l-10 -58c-9 -3 -23 -5 -38 -5c-49 0 -74 20 -95 93l-68 237l-226 -324h-76l275 387l-66 226c-12 42 -28 54 -53 54z" />
    <glyph glyph-name="psi" unicode="&#x3c8;" horiz-adv-x="703" 
d="M556 510h71c22 -61 29 -132 29 -183c0 -222 -132 -331 -314 -339l-35 -198h-67l35 199c-130 14 -206 73 -206 208c0 16 1 29 4 47l47 266h67l-48 -273c-3 -15 -4 -35 -4 -47c0 -93 61 -136 150 -145l119 675h67l-119 -675c134 12 237 98 237 279c0 51 -8 127 -33 186z
" />
    <glyph glyph-name="omega" unicode="&#x3c9;" horiz-adv-x="709" 
d="M529 510h73c36 -60 61 -144 61 -234c0 -179 -99 -288 -210 -288c-60 0 -104 32 -123 98c-30 -64 -76 -98 -136 -98c-81 0 -156 61 -156 210c0 126 54 234 140 312h82c-90 -75 -155 -177 -155 -311c0 -109 43 -152 94 -152c47 0 91 37 109 141l23 134h69l-23 -134
c-3 -17 -4 -33 -4 -45c0 -67 33 -96 80 -96c76 0 143 77 143 225c0 94 -27 181 -67 238z" />
    <glyph glyph-name="iotadieresis" unicode="&#x3ca;" horiz-adv-x="275" 
d="M53 83c0 18 3 33 5 47l67 380h69l-69 -395c-1 -6 -3 -17 -3 -27c0 -25 13 -36 44 -36c16 0 36 3 53 8l-11 -58c-17 -5 -40 -8 -60 -8c-65 0 -95 32 -95 89zM44 622c0 24 18 43 43 43s43 -19 43 -43s-18 -43 -43 -43s-43 19 -43 43zM230 622c0 24 18 43 43 43
s43 -19 43 -43s-18 -43 -43 -43s-43 19 -43 43z" />
    <glyph glyph-name="upsilondieresis" unicode="&#x3cb;" horiz-adv-x="559" 
d="M409 510h73c22 -57 31 -131 31 -189c0 -210 -119 -333 -272 -333c-97 0 -180 49 -180 168c0 18 2 34 6 54l53 300h69l-55 -314c-3 -14 -4 -29 -4 -40c0 -77 50 -109 112 -109c105 0 202 91 202 276c0 57 -9 128 -35 187zM191 622c0 24 18 43 43 43s43 -19 43 -43
s-18 -43 -43 -43s-43 19 -43 43zM377 622c0 24 18 43 43 43s43 -19 43 -43s-18 -43 -43 -43s-43 19 -43 43z" />
    <glyph glyph-name="omicrontonos" unicode="&#x3cc;" horiz-adv-x="554" 
d="M252 46c118 0 190 117 190 246c0 116 -58 172 -140 172c-118 0 -190 -117 -190 -246c0 -116 58 -172 140 -172zM248 -12c-115 0 -205 77 -205 228c0 165 107 306 263 306c115 0 205 -77 205 -228c0 -165 -107 -306 -263 -306zM337 574h-56l74 146h88z" />
    <glyph glyph-name="upsilontonos" unicode="&#x3cd;" horiz-adv-x="559" 
d="M409 510h73c22 -57 31 -131 31 -189c0 -210 -119 -333 -272 -333c-97 0 -180 49 -180 168c0 18 2 34 6 54l53 300h69l-55 -314c-3 -14 -4 -29 -4 -40c0 -77 50 -109 112 -109c105 0 202 91 202 276c0 57 -9 128 -35 187zM332 574h-56l74 146h88z" />
    <glyph glyph-name="omegatonos" unicode="&#x3ce;" horiz-adv-x="709" 
d="M529 510h73c36 -60 61 -144 61 -234c0 -179 -99 -288 -210 -288c-60 0 -104 32 -123 98c-30 -64 -76 -98 -136 -98c-81 0 -156 61 -156 210c0 126 54 234 140 312h82c-90 -75 -155 -177 -155 -311c0 -109 43 -152 94 -152c47 0 91 37 109 141l23 134h69l-23 -134
c-3 -17 -4 -33 -4 -45c0 -67 33 -96 80 -96c76 0 143 77 143 225c0 94 -27 181 -67 238zM426 574h-56l74 146h88z" />
    <glyph glyph-name="uni0400" unicode="&#x400;" horiz-adv-x="588" 
d="M51 0l127 720h438l-11 -65h-367l-44 -249h323l-11 -63h-323l-50 -279h369l-11 -64h-440zM467 783h-55l-103 125h80z" />
    <glyph glyph-name="uni0401" unicode="&#x401;" horiz-adv-x="588" 
d="M51 0l127 720h438l-11 -65h-367l-44 -249h323l-11 -63h-323l-50 -279h369l-11 -64h-440zM281 825c0 24 18 43 43 43s43 -19 43 -43s-18 -43 -43 -43s-43 19 -43 43zM467 825c0 24 18 43 43 43s43 -19 43 -43s-18 -43 -43 -43s-43 19 -43 43z" />
    <glyph glyph-name="uni0402" unicode="&#x402;" horiz-adv-x="778" 
d="M102 655l11 65h499l-11 -65h-226l-41 -234c74 24 135 31 177 31c134 0 207 -70 207 -203c0 -155 -100 -255 -267 -255c-17 0 -46 1 -70 5l11 64c20 -4 43 -6 63 -6c122 0 192 75 192 191c0 97 -49 139 -149 139c-41 0 -100 -7 -175 -31l-63 -356h-71l115 655h-202z" />
    <glyph glyph-name="uni0403" unicode="&#x403;" horiz-adv-x="530" 
d="M50 0l127 720h403l-11 -65h-332l-116 -655h-71zM399 783h-59l110 125h92z" />
    <glyph glyph-name="uni0404" unicode="&#x404;" horiz-adv-x="607" 
d="M510 118l12 -65c-51 -37 -120 -65 -198 -65c-148 0 -257 99 -257 305c0 228 133 439 370 439c79 0 140 -23 191 -60l-34 -62c-49 36 -98 58 -165 58c-157 0 -252 -122 -282 -270h341l-11 -63h-338c-1 -13 -1 -26 -1 -38c0 -169 79 -246 192 -246c70 0 129 29 180 67z" />
    <glyph glyph-name="uni0405" unicode="&#x405;" horiz-adv-x="579" 
d="M24 55l34 60c61 -40 124 -64 193 -64c113 0 191 63 191 148c0 172 -316 122 -316 329c0 118 103 204 248 204c78 0 144 -25 200 -64l-35 -61c-52 37 -104 61 -170 61c-101 0 -172 -57 -172 -132c0 -158 316 -107 316 -327c0 -129 -108 -221 -266 -221
c-83 0 -160 25 -223 67z" />
    <glyph glyph-name="uni0406" unicode="&#x406;" horiz-adv-x="281" 
d="M60 0l127 720h71l-127 -720h-71z" />
    <glyph glyph-name="uni0407" unicode="&#x407;" horiz-adv-x="281" 
d="M60 0l127 720h71l-127 -720h-71zM105 825c0 24 18 43 43 43s43 -19 43 -43s-18 -43 -43 -43s-43 19 -43 43zM291 825c0 24 18 43 43 43s43 -19 43 -43s-18 -43 -43 -43s-43 19 -43 43z" />
    <glyph glyph-name="uni0408" unicode="&#x408;" horiz-adv-x="405" 
d="M-13 4l11 65c26 -6 59 -11 89 -11c99 0 134 54 150 147l91 515h71l-93 -528c-21 -121 -70 -198 -220 -198c-30 0 -69 3 -99 10z" />
    <glyph glyph-name="uni0409" unicode="&#x409;" horiz-adv-x="1040" 
d="M722 0h-249l115 655h-259l-78 -325c-55 -229 -101 -336 -260 -336c-22 0 -32 2 -37 3l11 63c5 -1 13 -2 25 -2c108 0 147 89 196 292l89 370h396l-55 -314h162c136 0 215 -65 215 -188c0 -137 -98 -218 -271 -218zM555 62h167c136 0 200 58 200 156
c0 87 -50 125 -150 125h-167z" />
    <glyph glyph-name="uni040A" unicode="&#x40a;" horiz-adv-x="1037" 
d="M721 0h-249l61 343h-350l-61 -343h-71l127 720h71l-55 -313h350l55 313h71l-55 -313h162c136 0 215 -62 215 -187c0 -138 -97 -220 -271 -220zM554 62h167c136 0 200 59 200 156c0 87 -50 125 -150 125h-168z" />
    <glyph glyph-name="uni040B" unicode="&#x40b;" horiz-adv-x="778" 
d="M102 655l11 65h499l-11 -65h-225l-42 -234c68 21 129 31 185 31c112 0 200 -40 200 -163c0 -19 -2 -38 -5 -57l-41 -232h-71l42 237c3 16 4 30 4 41c0 85 -62 109 -146 109c-45 0 -105 -7 -179 -31l-63 -356h-71l116 655h-203z" />
    <glyph glyph-name="uni040C" unicode="&#x40c;" horiz-adv-x="643" 
d="M540 589l-78 -120c-30 -46 -55 -80 -106 -97c66 -22 96 -74 130 -155l90 -217h-75l-85 207c-38 92 -68 135 -158 135h-76l-60 -342h-71l127 720h71l-55 -316h73c70 0 91 23 124 74l78 120c56 87 89 128 206 128l-11 -63c-68 0 -90 -21 -124 -74zM426 783h-59l110 125h92z
" />
    <glyph glyph-name="uni040D" unicode="&#x40d;" horiz-adv-x="709" 
d="M694 720l-127 -720h-68l103 586l-487 -586h-65l127 720h68l-103 -586l487 586h65zM505 783h-55l-103 125h80z" />
    <glyph glyph-name="uni040E" unicode="&#x40e;" horiz-adv-x="603" 
d="M251 243l-143 477h71l127 -430l274 430h79l-315 -488c-123 -190 -180 -238 -291 -238c-16 0 -39 1 -60 5l11 65c17 -4 35 -6 55 -6c74 0 109 27 214 185h-22zM401 783c-87 0 -130 36 -130 98c0 9 0 18 2 27h56c-1 -7 -2 -13 -2 -21c0 -34 20 -58 75 -58
c64 0 93 33 101 79h56c-14 -78 -59 -125 -158 -125z" />
    <glyph glyph-name="uni040F" unicode="&#x40f;" horiz-adv-x="703" 
d="M688 720l-127 -720h-222l-27 -154h-68l28 154h-222l127 720h71l-116 -656h369l116 656h71z" />
    <glyph glyph-name="uni0410" unicode="&#x410;" horiz-adv-x="673" 
d="M462 720l130 -720h-70l-36 206h-311l-109 -206h-75l388 720h83zM409 647l-202 -380h268z" />
    <glyph glyph-name="uni0411" unicode="&#x411;" horiz-adv-x="617" 
d="M300 0h-249l127 720h416l-11 -65h-345l-44 -249h162c136 0 215 -65 215 -188c0 -137 -98 -218 -271 -218zM133 62h167c136 0 200 58 200 156c0 87 -50 125 -150 125h-167z" />
    <glyph glyph-name="uni0412" unicode="&#x412;" horiz-adv-x="643" 
d="M51 0l127 720h214c130 0 213 -56 213 -173c0 -88 -47 -152 -142 -181c78 -25 112 -82 112 -157c0 -121 -89 -209 -274 -209h-250zM133 61h168c137 0 204 57 204 152c0 86 -55 124 -155 124h-168zM192 396h148c130 0 195 54 195 145c0 82 -53 117 -148 117h-149z" />
    <glyph glyph-name="uni0413" unicode="&#x413;" horiz-adv-x="530" 
d="M50 0l127 720h403l-11 -65h-332l-116 -655h-71z" />
    <glyph glyph-name="uni0414" unicode="&#x414;" horiz-adv-x="724" 
d="M-37 -154l38 216h40c64 53 154 163 216 427l54 231h398l-116 -658h54l-38 -216h-68l28 154h-511l-28 -154h-67zM366 654l-45 -193c-54 -232 -130 -339 -194 -397h395l105 590h-261z" />
    <glyph glyph-name="uni0415" unicode="&#x415;" horiz-adv-x="588" 
d="M51 0l127 720h438l-11 -65h-367l-44 -249h323l-11 -63h-323l-50 -279h369l-11 -64h-440z" />
    <glyph glyph-name="uni0416" unicode="&#x416;" horiz-adv-x="972" 
d="M868 589l-78 -120c-30 -46 -55 -80 -106 -97c66 -22 96 -74 130 -155l90 -217h-75l-85 207c-38 92 -68 135 -158 135h-50l-60 -342h-71l60 342h-49c-85 0 -133 -49 -208 -148l-146 -194h-84l168 225c62 83 105 129 186 150c-45 20 -58 53 -73 99l-37 115
c-17 52 -31 74 -97 74l11 63c96 0 125 -41 155 -132l38 -116c17 -52 31 -74 97 -74h51l55 316h71l-55 -316h47c70 0 91 23 124 74l78 120c56 87 89 128 206 128l-11 -63c-68 0 -90 -21 -124 -74z" />
    <glyph glyph-name="uni0417" unicode="&#x417;" horiz-adv-x="559" 
d="M491 209c0 -124 -111 -221 -273 -221c-83 0 -159 26 -221 64l35 61c59 -37 120 -62 191 -62c119 0 197 71 197 162c0 81 -62 130 -173 130h-61l10 62h70c107 0 207 48 207 147c0 80 -65 116 -137 116c-67 0 -137 -30 -189 -70l-13 64c53 41 131 70 207 70
c109 0 203 -58 203 -171c0 -98 -70 -164 -174 -189c80 -28 121 -88 121 -163z" />
    <glyph glyph-name="uni0418" unicode="&#x418;" horiz-adv-x="709" 
d="M695 720l-127 -720h-68l103 586l-487 -586h-65l127 720h68l-103 -586l487 586h65z" />
    <glyph glyph-name="uni0419" unicode="&#x419;" horiz-adv-x="709" 
d="M694 720l-127 -720h-68l103 586l-487 -586h-65l127 720h68l-103 -586l487 586h65zM454 783c-87 0 -130 36 -130 98c0 9 0 18 2 27h56c-1 -7 -2 -13 -2 -21c0 -34 20 -58 75 -58c64 0 93 33 101 79h56c-14 -78 -59 -125 -158 -125z" />
    <glyph glyph-name="uni041A" unicode="&#x41a;" horiz-adv-x="643" 
d="M540 589l-78 -120c-30 -46 -55 -80 -106 -97c66 -22 96 -74 130 -155l90 -217h-75l-85 207c-38 92 -68 135 -158 135h-76l-60 -342h-71l127 720h71l-55 -316h73c70 0 91 23 124 74l78 120c56 87 89 128 206 128l-11 -63c-68 0 -90 -21 -124 -74z" />
    <glyph glyph-name="uni041B" unicode="&#x41b;" horiz-adv-x="706" 
d="M494 0l115 655h-280l-78 -325c-55 -229 -101 -336 -260 -336c-22 0 -32 2 -37 3l11 63c5 -1 13 -2 25 -2c108 0 147 89 196 292l89 370h417l-127 -720h-71z" />
    <glyph glyph-name="uni041C" unicode="&#x41c;" horiz-adv-x="907" 
d="M763 720h93l-72 -720h-72l51 450c6 53 21 159 26 192h-2c-14 -40 -61 -126 -94 -186l-253 -456h-66l-84 456c-13 68 -29 150 -29 186h-2c-1 -10 -29 -127 -43 -184l-113 -458h-70l186 720h94l79 -452c17 -97 21 -123 28 -180h2c28 59 62 120 93 178z" />
    <glyph glyph-name="uni041D" unicode="&#x41d;" horiz-adv-x="703" 
d="M50 0l127 720h71l-55 -312h369l55 312h71l-127 -720h-71l61 343h-369l-61 -343h-71z" />
    <glyph glyph-name="uni041E" unicode="&#x41e;" horiz-adv-x="716" 
d="M344 52c164 0 269 160 269 355c0 173 -83 261 -205 261c-164 0 -269 -160 -269 -355c0 -173 83 -261 205 -261zM342 -12c-160 0 -274 118 -274 325c0 231 141 419 342 419c160 0 274 -118 274 -325c0 -231 -141 -419 -342 -419z" />
    <glyph glyph-name="uni041F" unicode="&#x41f;" horiz-adv-x="703" 
d="M51 0l127 720h511l-127 -720h-71l116 655h-369l-116 -655h-71z" />
    <glyph glyph-name="uni0420" unicode="&#x420;" horiz-adv-x="617" 
d="M50 0l127 720h232c133 0 216 -63 216 -190c0 -138 -98 -223 -272 -223h-178l-54 -307h-71zM237 655l-50 -284h166c136 0 201 58 201 156c0 89 -54 128 -151 128h-166z" />
    <glyph glyph-name="uni0421" unicode="&#x421;" horiz-adv-x="607" 
d="M510 118l12 -65c-51 -37 -120 -65 -197 -65c-149 0 -258 99 -258 305c0 228 133 439 370 439c79 0 140 -23 191 -60l-34 -62c-49 36 -98 58 -165 58c-191 0 -291 -181 -291 -371c0 -169 79 -246 192 -246c70 0 129 29 180 67z" />
    <glyph glyph-name="uni0422" unicode="&#x422;" horiz-adv-x="561" 
d="M200 0l116 655h-214l11 65h499l-11 -65h-214l-116 -655h-71z" />
    <glyph glyph-name="uni0423" unicode="&#x423;" horiz-adv-x="603" 
d="M251 243l-143 477h71l127 -430l274 430h79l-315 -488c-123 -190 -180 -238 -291 -238c-16 0 -39 1 -60 5l11 65c17 -4 35 -6 55 -6c74 0 109 27 214 185h-22z" />
    <glyph glyph-name="uni0424" unicode="&#x424;" horiz-adv-x="790" 
d="M312 -12l15 86c-151 20 -255 113 -255 262c0 172 139 311 357 314l15 82h71l-15 -86c151 -20 255 -113 255 -262c0 -173 -139 -312 -358 -314l-14 -82h-71zM685 381c0 120 -78 190 -196 206l-81 -459c173 6 277 114 277 253zM142 338c0 -120 78 -191 195 -207l82 459
c-174 -6 -277 -114 -277 -252z" />
    <glyph glyph-name="uni0425" unicode="&#x425;" horiz-adv-x="625" 
d="M-11 0l299 371l-158 349h75l132 -298l236 298h85l-283 -349l170 -371h-75l-144 320l-252 -320h-85z" />
    <glyph glyph-name="uni0426" unicode="&#x426;" horiz-adv-x="712" 
d="M689 720l-116 -658h54l-38 -216h-68l28 154h-498l127 720h71l-116 -656h369l116 656h71z" />
    <glyph glyph-name="uni0427" unicode="&#x427;" horiz-adv-x="639" 
d="M316 360c45 0 105 7 179 31l58 329h71l-127 -720h-71l58 328c-68 -21 -128 -31 -184 -31c-112 0 -200 40 -200 163c0 19 2 38 5 57l35 203h71l-36 -208c-3 -16 -4 -30 -4 -41c0 -85 60 -111 145 -111z" />
    <glyph glyph-name="uni0428" unicode="&#x428;" horiz-adv-x="1063" 
d="M1049 720l-127 -720h-871l127 720h71l-116 -656h329l116 656h71l-116 -656h329l116 656h71z" />
    <glyph glyph-name="uni0429" unicode="&#x429;" horiz-adv-x="1074" 
d="M1049 720l-116 -658h54l-38 -216h-68l28 154h-858l127 720h71l-116 -656h329l116 656h71l-116 -656h329l116 656h71z" />
    <glyph glyph-name="uni042A" unicode="&#x42a;" horiz-adv-x="756" 
d="M102 655l11 65h274l-55 -314h162c136 0 215 -65 215 -188c0 -137 -98 -218 -271 -218h-249l116 655h-203zM271 62h167c136 0 200 58 200 156c0 87 -50 125 -150 125h-167z" />
    <glyph glyph-name="uni042B" unicode="&#x42b;" horiz-adv-x="848" 
d="M637 0l127 720h70l-127 -720h-70zM300 0h-249l127 720h71l-55 -314h162c136 0 215 -65 215 -188c0 -137 -98 -218 -271 -218zM133 62h167c136 0 200 58 200 156c0 87 -50 125 -150 125h-167z" />
    <glyph glyph-name="uni042C" unicode="&#x42c;" horiz-adv-x="617" 
d="M300 0h-249l127 720h71l-55 -314h162c136 0 215 -65 215 -188c0 -137 -98 -218 -271 -218zM133 62h167c136 0 200 58 200 156c0 87 -50 125 -150 125h-167z" />
    <glyph glyph-name="uni042D" unicode="&#x42d;" horiz-adv-x="607" 
d="M159 335l11 63h334c1 8 1 16 1 24c0 161 -72 246 -185 246c-64 0 -125 -27 -175 -66l-13 65c51 37 120 65 196 65c149 0 249 -108 249 -306c0 -228 -133 -438 -371 -438c-79 0 -141 23 -194 61l33 61c52 -37 100 -59 167 -59c163 0 260 130 286 284h-339z" />
    <glyph glyph-name="uni042E" unicode="&#x42e;" horiz-adv-x="937" 
d="M587 -12c-145 0 -250 114 -250 321c0 11 0 23 1 34h-156l-60 -343h-71l127 720h71l-55 -312h151c31 185 151 324 311 324c145 0 250 -114 250 -321c0 -232 -132 -423 -319 -423zM591 51c148 0 244 161 244 357c0 172 -73 260 -183 260c-148 0 -244 -161 -244 -357
c0 -172 73 -260 183 -260z" />
    <glyph glyph-name="uni042F" unicode="&#x42f;" horiz-adv-x="670" 
d="M517 329h-163l-255 -329h-83l262 337c-87 19 -136 75 -136 169c0 131 96 214 267 214h247l-127 -720h-70zM362 388h165l47 267h-165c-134 0 -196 -54 -196 -148c0 -84 49 -119 149 -119z" />
    <glyph glyph-name="uni0430" unicode="&#x430;" horiz-adv-x="562" 
d="M447 0h-66c-3 6 -5 14 -5 33c0 13 1 20 4 34c-43 -49 -101 -79 -166 -79c-98 0 -172 66 -172 213c0 175 104 321 253 321c57 0 107 -21 155 -75l11 63h66l-69 -391c-8 -47 -13 -80 -13 -99c0 -8 1 -14 2 -20zM231 47c55 0 110 29 160 86l46 258c-40 45 -82 70 -137 70
c-119 0 -189 -118 -189 -252c0 -113 50 -162 120 -162z" />
    <glyph glyph-name="uni0431" unicode="&#x431;" horiz-adv-x="554" 
d="M315 447c-67 0 -134 -39 -191 -102c-2 -21 -2 -41 -2 -67c0 -167 54 -233 138 -233c115 0 181 123 181 244c0 103 -48 158 -126 158zM400 660c-161 -1 -234 -111 -264 -240c53 54 120 88 191 88c108 0 183 -80 183 -216c0 -156 -98 -304 -253 -304
c-116 0 -204 82 -204 285c0 214 98 453 347 453c74 0 106 1 136 10l-11 -65c-27 -9 -55 -11 -125 -11z" />
    <glyph glyph-name="uni0432" unicode="&#x432;" horiz-adv-x="526" 
d="M483 396c0 -51 -34 -99 -126 -130c72 -21 105 -64 105 -119c0 -89 -87 -159 -217 -159c-136 0 -203 76 -203 211c0 175 114 323 281 323c107 0 160 -61 160 -126zM256 234c-42 -7 -90 -11 -146 -13v-19c0 -104 46 -158 137 -158c86 0 147 48 147 107c0 51 -46 81 -138 83
zM317 465c-97 0 -175 -80 -199 -191c227 6 297 59 297 115c0 36 -29 76 -98 76z" />
    <glyph glyph-name="uni0433" unicode="&#x433;" horiz-adv-x="454" 
d="M132 417l-10 59c42 26 97 46 153 46c83 0 154 -43 154 -129c0 -187 -335 -119 -335 -267c0 -53 44 -81 108 -81c54 0 107 20 153 47l11 -57c-46 -26 -109 -47 -171 -47c-91 0 -169 45 -169 140c0 199 335 133 335 265c0 44 -36 71 -92 71c-49 0 -95 -21 -137 -47z" />
    <glyph glyph-name="uni0434" unicode="&#x434;" horiz-adv-x="546" 
d="M295 660c-73 0 -92 1 -119 11l11 65c25 -9 43 -10 108 -10c146 0 223 -101 223 -307c0 -245 -107 -431 -278 -431c-108 0 -198 74 -198 231c0 169 105 289 249 289c67 0 114 -26 159 -70c-6 166 -67 222 -155 222zM244 46c118 0 193 132 203 322c-49 52 -97 79 -155 79
c-107 0 -181 -94 -181 -229c0 -120 59 -172 133 -172z" />
    <glyph glyph-name="uni0435" unicode="&#x435;" horiz-adv-x="525" 
d="M323 522c115 0 169 -67 169 -139c0 -87 -78 -156 -296 -156c-27 0 -56 1 -85 5v-21c0 -105 50 -166 143 -166c52 0 111 19 163 52l11 -58c-53 -33 -120 -51 -182 -51c-128 0 -204 77 -204 219c0 175 116 315 281 315zM320 466c-103 0 -178 -79 -201 -183
c25 -3 49 -5 84 -5c168 0 223 46 223 104c0 47 -35 84 -106 84z" />
    <glyph glyph-name="uni0436" unicode="&#x436;" horiz-adv-x="769" 
d="M655 414l-62 -89c-18 -26 -36 -47 -72 -58c52 -16 73 -51 98 -104l75 -163h-74l-66 149c-27 61 -50 90 -125 90h-14l-42 -239h-69l42 239h-12c-71 0 -105 -27 -157 -94l-112 -145h-81l133 170c40 51 74 85 136 100c-28 12 -40 32 -50 59l-33 85c-12 30 -24 43 -75 43
l10 59c78 0 104 -29 129 -94l32 -85c12 -31 25 -44 76 -44h13l39 217h69l-39 -217h13c52 0 70 13 91 44l62 89c43 62 68 90 165 90l-10 -59c-51 0 -69 -12 -90 -43z" />
    <glyph glyph-name="uni0437" unicode="&#x437;" horiz-adv-x="473" 
d="M404 147c0 -90 -93 -159 -225 -159c-70 0 -130 20 -177 50l29 54c46 -29 93 -47 149 -47c88 0 155 44 155 105c0 50 -45 84 -150 84h-40l11 57h49c105 0 164 35 164 95c0 54 -46 78 -103 78c-55 0 -107 -22 -149 -51l-10 59c42 29 103 50 165 50c87 0 166 -40 166 -128
c0 -65 -44 -113 -126 -134c63 -21 92 -63 92 -113z" />
    <glyph glyph-name="uni0438" unicode="&#x438;" horiz-adv-x="567" 
d="M531 510l-90 -510h-69l15 84c-50 -50 -120 -96 -206 -96c-66 0 -130 27 -130 121c0 12 1 28 4 44l63 357h69l-63 -359c-2 -12 -3 -22 -3 -31c0 -55 37 -72 82 -72c77 0 143 49 195 99l64 363h69z" />
    <glyph glyph-name="uni0439" unicode="&#x439;" horiz-adv-x="567" 
d="M533 510l-90 -510h-69l15 84c-50 -50 -120 -96 -206 -96c-66 0 -130 27 -130 121c0 12 1 28 4 44l63 357h69l-63 -359c-2 -12 -3 -22 -3 -31c0 -55 37 -72 82 -72c77 0 143 49 195 99l64 363h69zM346 627c64 0 94 39 103 93h56c-15 -86 -61 -140 -160 -140
c-86 0 -129 41 -129 108c0 10 1 20 3 32h56c-2 -9 -2 -18 -2 -26c0 -40 20 -67 73 -67z" />
    <glyph glyph-name="uni043A" unicode="&#x43a;" horiz-adv-x="524" 
d="M411 414l-62 -89c-19 -27 -36 -47 -72 -58c52 -16 73 -51 98 -104l75 -163h-74l-66 149c-27 61 -50 90 -125 90h-40l-42 -239h-69l90 510h69l-39 -217h39c52 0 70 13 91 44l62 89c43 62 68 90 165 90l-10 -59c-51 0 -69 -12 -90 -43z" />
    <glyph glyph-name="uni043B" unicode="&#x43b;" horiz-adv-x="573" 
d="M199 510h339l-90 -510h-69l79 451h-205c-71 -365 -119 -457 -262 -457c-21 0 -32 2 -37 4l10 55c3 -1 16 -2 26 -2c114 0 141 135 209 459z" />
    <glyph glyph-name="uni043C" unicode="&#x43c;" horiz-adv-x="733" 
d="M349 0h-59l-66 298c-15 67 -23 103 -26 136h-2c-7 -29 -23 -97 -35 -144l-76 -290h-65l139 510h82l67 -316c13 -59 19 -87 22 -121h2c15 35 36 69 64 117l188 320h82l-44 -510h-66l27 288c3 32 13 121 17 146h-2c-12 -28 -50 -98 -72 -135z" />
    <glyph glyph-name="uni043D" unicode="&#x43d;" horiz-adv-x="572" 
d="M378 0l42 241h-274l-43 -241h-69l90 510h69l-37 -211h274l38 211h69l-90 -510h-69z" />
    <glyph glyph-name="uni043E" unicode="&#x43e;" horiz-adv-x="554" 
d="M251 46c118 0 190 117 190 246c0 116 -58 172 -140 172c-118 0 -190 -117 -190 -246c0 -116 58 -172 140 -172zM247 -12c-115 0 -205 77 -205 228c0 165 107 306 263 306c115 0 205 -77 205 -228c0 -165 -107 -306 -263 -306z" />
    <glyph glyph-name="uni043F" unicode="&#x43f;" horiz-adv-x="567" 
d="M34 0l90 510h69l-15 -84c50 50 120 96 206 96c66 0 130 -27 130 -121c0 -12 -1 -28 -4 -44l-63 -357h-69l63 357c2 12 3 22 3 31c0 55 -37 72 -82 72c-77 0 -143 -49 -195 -99l-64 -361h-69z" />
    <glyph glyph-name="uni0440" unicode="&#x440;" horiz-adv-x="570" 
d="M124 510h69l-12 -68c45 50 102 80 167 80c100 0 178 -70 178 -220c0 -171 -102 -314 -258 -314c-57 0 -106 19 -155 71l-47 -269h-69zM332 461c-54 0 -110 -28 -163 -86l-46 -258c42 -45 86 -70 143 -70c123 0 191 118 191 250c0 116 -53 164 -125 164z" />
    <glyph glyph-name="uni0441" unicode="&#x441;" horiz-adv-x="467" 
d="M463 479l-29 -56c-37 27 -70 40 -114 40c-132 0 -208 -118 -208 -251c0 -109 51 -166 133 -166c46 0 96 18 133 47l10 -58c-39 -29 -96 -47 -153 -47c-113 0 -192 71 -192 219c0 170 104 315 282 315c57 0 101 -15 138 -43z" />
    <glyph glyph-name="uni0442" unicode="&#x442;" horiz-adv-x="884" 
d="M34 0l90 510h69l-16 -85c46 49 116 97 198 97c56 0 117 -22 123 -102c49 53 121 102 207 102c63 0 126 -26 126 -120c0 -12 -1 -28 -4 -44l-63 -358h-69l63 357c2 12 3 23 3 32c0 54 -34 71 -78 71c-73 0 -136 -48 -186 -97l-64 -363h-69l63 357c2 12 3 23 3 32
c0 54 -33 71 -77 71c-71 0 -131 -45 -186 -101l-64 -359h-69z" />
    <glyph glyph-name="uni0443" unicode="&#x443;" horiz-adv-x="505" 
d="M-44 -211l11 61c13 -3 26 -6 45 -6c60 0 96 28 173 168h-24l-90 498h70l75 -446l234 446h74l-273 -508c-99 -185 -145 -218 -239 -218c-16 0 -36 1 -56 5z" />
    <glyph glyph-name="uni0444" unicode="&#x444;" horiz-adv-x="714" 
d="M241 -210l35 202c-132 18 -233 98 -233 241c0 164 133 285 327 289l35 198h69l-36 -202c132 -19 234 -98 234 -241c0 -165 -135 -285 -327 -289l-35 -198h-69zM603 275c0 112 -74 172 -175 187l-74 -419c150 7 249 102 249 232zM112 234c0 -112 73 -173 174 -188l74 420
c-150 -7 -248 -102 -248 -232z" />
    <glyph glyph-name="uni0445" unicode="&#x445;" horiz-adv-x="504" 
d="M-15 0l227 265l-124 245h72l98 -201l165 201h82l-210 -245l134 -265h-71l-109 221l-185 -221h-79z" />
    <glyph glyph-name="uni0446" unicode="&#x446;" horiz-adv-x="586" 
d="M390 85c-48 -50 -121 -97 -208 -97c-66 0 -129 27 -129 121c0 12 1 28 4 44l63 357h69l-63 -359c-2 -12 -3 -22 -3 -31c0 -55 37 -72 82 -72c77 0 143 49 195 99l64 363h69l-71 -402c-2 -11 -2 -17 -2 -19c0 -32 9 -44 33 -44h9l-31 -175h-67l23 127
c-26 11 -39 41 -37 88z" />
    <glyph glyph-name="uni0447" unicode="&#x447;" horiz-adv-x="529" 
d="M94 510h69l-25 -142c-2 -12 -4 -23 -4 -35c0 -64 53 -76 112 -76c35 0 79 4 138 21l41 232h69l-90 -510h-69l39 222c-53 -14 -99 -22 -146 -22c-97 0 -163 33 -163 128c0 16 2 30 5 46z" />
    <glyph glyph-name="uni0448" unicode="&#x448;" horiz-adv-x="884" 
d="M850 510l-90 -510h-69l16 85c-46 -49 -116 -97 -198 -97c-56 0 -117 22 -123 102c-49 -53 -121 -102 -207 -102c-63 0 -126 26 -126 120c0 12 1 28 4 44l63 358h69l-63 -359c-2 -12 -3 -23 -3 -32c0 -54 34 -71 78 -71c73 0 136 48 186 97l64 365h69l-63 -359
c-2 -12 -3 -23 -3 -32c0 -54 33 -71 77 -71c71 0 131 45 186 101l64 361h69z" />
    <glyph glyph-name="uni0449" unicode="&#x449;" horiz-adv-x="907" 
d="M531 48c71 0 133 47 186 101l64 361h69l-71 -402c-2 -11 -2 -17 -2 -19c0 -32 9 -44 33 -44h9l-31 -175h-67l23 127c-24 10 -37 37 -37 79v9c-46 -49 -118 -97 -199 -97c-55 0 -116 22 -122 102c-49 -53 -121 -102 -207 -102c-63 0 -126 26 -126 120c0 12 1 28 4 44
l63 358h69l-63 -359c-2 -12 -3 -23 -3 -32c0 -54 34 -71 78 -71c73 0 136 48 186 97l64 365h69l-63 -359c-2 -12 -3 -23 -3 -32c0 -54 34 -71 77 -71z" />
    <glyph glyph-name="uni044A" unicode="&#x44a;" horiz-adv-x="651" 
d="M60 451l10 59h246l-38 -217c43 13 88 19 129 19c118 0 179 -48 179 -141c0 -108 -82 -177 -238 -177c-63 0 -127 11 -186 36l74 421h-176zM399 256c-44 0 -89 -8 -132 -22l-30 -167c39 -12 79 -18 118 -18c107 0 162 47 162 119c0 62 -40 88 -118 88z" />
    <glyph glyph-name="uni044B" unicode="&#x44b;" horiz-adv-x="756" 
d="M562 0l90 510h69l-90 -510h-69zM226 -6c-63 0 -127 11 -186 36l85 480h69l-38 -217c43 13 88 19 129 19c118 0 179 -48 179 -141c0 -108 -82 -177 -238 -177zM277 256c-44 0 -89 -8 -132 -22l-30 -167c39 -12 79 -18 118 -18c107 0 162 47 162 119c0 62 -40 88 -118 88z
" />
    <glyph glyph-name="uni044C" unicode="&#x44c;" horiz-adv-x="528" 
d="M226 -6c-63 0 -127 11 -186 36l85 480h69l-38 -217c43 13 88 19 129 19c118 0 179 -48 179 -141c0 -108 -82 -177 -238 -177zM277 256c-44 0 -89 -8 -132 -22l-30 -167c39 -12 79 -18 118 -18c107 0 162 47 162 119c0 62 -40 88 -118 88z" />
    <glyph glyph-name="uni044D" unicode="&#x44d;" horiz-adv-x="466" 
d="M104 235l11 55h240v8c0 108 -49 165 -127 165c-42 0 -87 -17 -130 -46l-10 58c44 30 95 47 148 47c114 0 188 -78 188 -220c0 -170 -106 -314 -278 -314c-63 0 -113 19 -146 43l29 55c31 -24 68 -40 117 -40c113 0 183 84 203 189h-245z" />
    <glyph glyph-name="uni044E" unicode="&#x44e;" horiz-adv-x="745" 
d="M459 -12c-109 0 -186 81 -186 227v26h-128l-42 -241h-69l90 510h69l-38 -211h127c27 127 116 223 235 223c109 0 186 -81 186 -227c0 -166 -100 -307 -244 -307zM463 46c107 0 171 123 171 251c0 109 -47 167 -121 167c-107 0 -171 -123 -171 -251
c0 -109 47 -167 121 -167z" />
    <glyph glyph-name="uni044F" unicode="&#x44f;" horiz-adv-x="536" 
d="M293 510h208l-90 -510h-69l37 210h-158l-158 -210h-77l174 226c-50 20 -77 60 -77 120c0 99 73 164 210 164zM264 262h124l34 191h-128c-104 0 -143 -45 -143 -107c0 -57 33 -84 113 -84z" />
    <glyph glyph-name="uni0450" unicode="&#x450;" horiz-adv-x="525" 
d="M324 522c115 0 169 -67 169 -139c0 -87 -78 -156 -296 -156c-27 0 -56 1 -85 5v-21c0 -105 50 -166 143 -166c52 0 111 19 163 52l11 -58c-53 -33 -120 -51 -182 -51c-128 0 -204 77 -204 219c0 175 116 315 281 315zM321 466c-103 0 -178 -79 -201 -183
c25 -3 49 -5 84 -5c168 0 223 46 223 104c0 47 -35 84 -106 84zM388 574h-54l-100 146h80z" />
    <glyph glyph-name="uni0451" unicode="&#x451;" horiz-adv-x="525" 
d="M324 522c115 0 169 -67 169 -139c0 -87 -78 -156 -296 -156c-27 0 -56 1 -85 5v-21c0 -105 50 -166 143 -166c52 0 111 19 163 52l11 -58c-53 -33 -120 -51 -182 -51c-128 0 -204 77 -204 219c0 175 116 315 281 315zM321 466c-103 0 -178 -79 -201 -183
c25 -3 49 -5 84 -5c168 0 223 46 223 104c0 47 -35 84 -106 84zM201 622c0 24 18 43 43 43s43 -19 43 -43s-18 -43 -43 -43s-43 19 -43 43zM387 622c0 24 18 43 43 43s43 -19 43 -43s-18 -43 -43 -43s-43 19 -43 43z" />
    <glyph glyph-name="uni0452" unicode="&#x452;" horiz-adv-x="638" 
d="M82 575l10 57h116l16 88h69l-16 -88h198l-10 -57h-198l-31 -178c47 48 125 93 210 93c68 0 134 -30 134 -121c0 -11 -1 -21 -3 -35l-67 -382c-14 -80 -44 -130 -146 -130c-20 0 -42 2 -67 7l10 58c18 -4 34 -6 48 -6c59 0 79 31 89 88l63 360c2 11 4 20 4 32
c0 50 -36 67 -83 67c-79 0 -148 -47 -203 -97l-59 -331h-69l101 575h-116z" />
    <glyph glyph-name="uni0453" unicode="&#x453;" horiz-adv-x="454" 
d="M284 574h-60l114 146h92zM132 417l-10 59c42 26 97 46 153 46c83 0 154 -43 154 -129c0 -187 -335 -119 -335 -267c0 -53 44 -81 108 -81c54 0 107 20 153 47l11 -57c-46 -26 -109 -47 -171 -47c-91 0 -169 45 -169 140c0 199 335 133 335 265c0 44 -36 71 -92 71
c-49 0 -95 -21 -137 -47z" />
    <glyph glyph-name="uni0454" unicode="&#x454;" horiz-adv-x="466" 
d="M463 479l-29 -56c-37 27 -70 40 -114 40c-105 0 -175 -75 -199 -173h243l-10 -55h-241c-1 -8 -1 -16 -1 -23c0 -109 51 -166 133 -166c46 0 96 18 133 47l10 -58c-39 -29 -96 -47 -153 -47c-113 0 -192 71 -192 219c0 170 104 315 282 315c57 0 101 -15 138 -43z" />
    <glyph glyph-name="uni0455" unicode="&#x455;" horiz-adv-x="454" 
d="M426 476l-30 -56c-41 29 -80 44 -122 44c-67 0 -117 -38 -117 -86c0 -104 230 -67 230 -227c0 -97 -84 -163 -205 -163c-63 0 -123 18 -170 48l30 55c46 -28 93 -46 145 -46c80 0 132 41 132 97c0 118 -230 80 -230 229c0 86 78 151 188 151c56 0 107 -17 149 -46z" />
    <glyph glyph-name="uni0456" unicode="&#x456;" horiz-adv-x="241" 
d="M41 0l90 510h69l-90 -510h-69zM236 652c0 -27 -19 -46 -46 -46s-46 19 -46 46s19 46 46 46s46 -19 46 -46z" />
    <glyph glyph-name="uni0457" unicode="&#x457;" horiz-adv-x="241" 
d="M49 622c0 24 18 43 43 43s43 -19 43 -43s-18 -43 -43 -43s-43 19 -43 43zM235 622c0 24 18 43 43 43s43 -19 43 -43s-18 -43 -43 -43s-43 19 -43 43zM41 0l90 510h69l-90 -510h-69z" />
    <glyph glyph-name="uni0458" unicode="&#x458;" horiz-adv-x="241" 
d="M200 510l-105 -596c-14 -80 -44 -130 -146 -130c-20 0 -42 2 -67 7l10 58c18 -4 34 -6 48 -6c59 0 79 31 89 88l102 579h69zM236 652c0 -27 -19 -46 -46 -46s-46 19 -46 46s19 46 46 46s46 -19 46 -46z" />
    <glyph glyph-name="uni0459" unicode="&#x459;" horiz-adv-x="853" 
d="M550 -6c-63 0 -127 11 -186 36l75 421h-186c-71 -365 -119 -457 -262 -457c-21 0 -32 2 -37 4l10 55c3 -1 16 -2 26 -2c114 0 141 135 209 459h319l-38 -217c43 13 88 19 129 19c118 0 179 -48 179 -141c0 -108 -82 -177 -238 -177zM601 256c-44 0 -89 -8 -132 -22
l-30 -167c39 -12 79 -18 118 -18c107 0 162 47 162 119c0 62 -40 88 -118 88z" />
    <glyph glyph-name="uni045A" unicode="&#x45a;" horiz-adv-x="852" 
d="M549 -6c-63 0 -126 11 -186 36l39 216h-255l-44 -246h-69l90 510h69l-36 -206h255l36 206h69l-39 -220c44 13 88 20 132 20c117 0 177 -49 177 -141c0 -108 -84 -175 -238 -175zM600 253c-43 0 -89 -8 -132 -22l-30 -164c39 -12 83 -18 120 -18c105 0 160 47 160 118
c0 61 -40 86 -118 86z" />
    <glyph glyph-name="uni045B" unicode="&#x45b;" horiz-adv-x="638" 
d="M82 575l10 57h116l16 88h69l-16 -88h198l-10 -57h-198l-31 -178c47 48 125 93 210 93c68 0 134 -30 134 -121c0 -11 -1 -21 -3 -35l-59 -334h-69l58 329c2 11 4 20 4 32c0 50 -36 67 -83 67c-79 0 -148 -47 -203 -97l-59 -331h-69l101 575h-116z" />
    <glyph glyph-name="uni045C" unicode="&#x45c;" horiz-adv-x="524" 
d="M317 574h-60l114 146h92zM411 414l-62 -89c-19 -27 -36 -47 -72 -58c52 -16 73 -51 98 -104l75 -163h-74l-66 149c-27 61 -50 90 -125 90h-40l-42 -239h-69l90 510h69l-39 -217h39c52 0 70 13 91 44l62 89c43 62 68 90 165 90l-10 -59c-51 0 -69 -12 -90 -43z" />
    <glyph glyph-name="uni045D" unicode="&#x45d;" horiz-adv-x="567" 
d="M533 510l-90 -510h-69l15 84c-50 -50 -120 -96 -206 -96c-66 0 -130 27 -130 121c0 12 1 28 4 44l63 357h69l-63 -359c-2 -12 -3 -22 -3 -31c0 -55 37 -72 82 -72c77 0 143 49 195 99l64 363h69zM395 574h-54l-100 146h80z" />
    <glyph glyph-name="uni045E" unicode="&#x45e;" horiz-adv-x="505" 
d="M-44 -211l11 61c13 -3 26 -6 45 -6c60 0 96 28 173 168h-24l-90 498h70l75 -446l234 446h74l-273 -508c-99 -185 -145 -218 -239 -218c-16 0 -36 1 -56 5zM317 627c64 0 94 39 103 93h56c-15 -86 -61 -140 -160 -140c-86 0 -129 41 -129 108c0 10 1 20 3 32h56
c-2 -9 -2 -18 -2 -26c0 -40 20 -67 73 -67z" />
    <glyph glyph-name="uni045F" unicode="&#x45f;" horiz-adv-x="567" 
d="M189 -64h67l-26 -146h-67zM533 510l-90 -510h-69l15 84c-50 -50 -120 -96 -206 -96c-66 0 -130 27 -130 121c0 12 1 28 4 44l63 357h69l-63 -359c-2 -12 -3 -22 -3 -31c0 -55 37 -72 82 -72c77 0 143 49 195 99l64 363h69z" />
    <glyph glyph-name="uni0462" unicode="&#x462;" horiz-adv-x="710" 
d="M85 555l10 63h156l18 102h71l-18 -102h188l-10 -63h-189l-26 -149h162c136 0 215 -65 215 -188c0 -137 -98 -218 -271 -218h-249l98 555h-155zM224 62h167c136 0 200 58 200 156c0 87 -50 125 -150 125h-167z" />
    <glyph glyph-name="uni0463" unicode="&#x463;" horiz-adv-x="591" 
d="M60 453l10 57h117l37 210h69l-37 -210h176l-10 -57h-176l-28 -160c43 13 88 19 129 19c118 0 179 -48 179 -141c0 -108 -82 -177 -238 -177c-63 0 -127 11 -186 36l75 423h-117zM339 256c-44 0 -89 -8 -132 -22l-30 -167c39 -12 79 -18 118 -18c107 0 162 47 162 119
c0 62 -40 88 -118 88z" />
    <glyph glyph-name="uni0472" unicode="&#x472;" horiz-adv-x="716" 
d="M344 52c147 0 248 127 267 294c-35 -20 -77 -37 -120 -37c-78 0 -165 54 -230 54c-39 0 -84 -19 -124 -45v-5c0 -173 84 -261 207 -261zM492 370c37 0 82 18 123 44c-3 168 -86 254 -207 254c-143 0 -242 -121 -266 -280c35 19 77 36 120 36c78 0 165 -54 230 -54z
M342 -12c-160 0 -274 118 -274 325c0 231 141 419 342 419c160 0 274 -118 274 -325c0 -231 -141 -419 -342 -419z" />
    <glyph glyph-name="uni0473" unicode="&#x473;" horiz-adv-x="554" 
d="M252 46c101 0 169 85 187 190c-25 -13 -53 -23 -79 -23c-54 0 -122 42 -167 42c-24 0 -54 -12 -83 -32v-5c0 -116 59 -172 142 -172zM362 268c23 0 53 10 82 30c-2 112 -61 166 -142 166c-97 0 -164 -78 -185 -177c24 13 52 23 78 23c53 0 122 -42 167 -42zM248 -12
c-115 0 -205 77 -205 228c0 165 107 306 263 306c115 0 205 -77 205 -228c0 -165 -107 -306 -263 -306z" />
    <glyph glyph-name="uni0474" unicode="&#x474;" horiz-adv-x="662" 
d="M118 720h69l102 -628l260 507c44 86 73 127 196 127l-10 -63c-70 0 -93 -22 -120 -74l-303 -589h-72z" />
    <glyph glyph-name="uni0475" unicode="&#x475;" horiz-adv-x="521" 
d="M70 510h68l79 -424l164 312c42 80 69 118 185 118l-10 -59c-63 0 -84 -22 -113 -77l-202 -380h-72z" />
    <glyph glyph-name="uni0490" unicode="&#x490;" horiz-adv-x="547" 
d="M51 0l127 720h354l22 122h68l-34 -187h-350l-116 -655h-71z" />
    <glyph glyph-name="uni0491" unicode="&#x491;" horiz-adv-x="423" 
d="M124 510h257l21 122h65l-31 -181h-253l-80 -451h-69z" />
    <glyph glyph-name="uni0492" unicode="&#x492;" horiz-adv-x="542" 
d="M39 348l10 57h84l56 315h403l-11 -65h-332l-45 -250h203l-10 -57h-203l-61 -348h-71l61 348h-84z" />
    <glyph glyph-name="uni0493" unicode="&#x493;" horiz-adv-x="424" 
d="M136 510h304l-11 -59h-234l-27 -152h149l-10 -57h-149l-43 -242h-69l42 242h-80l10 57h80z" />
    <glyph glyph-name="uni0496" unicode="&#x496;" horiz-adv-x="992" 
d="M868 589l-78 -120c-30 -46 -55 -80 -106 -97c66 -22 96 -74 130 -155l64 -155h57l-38 -216h-68l28 154h-28l-85 207c-38 92 -68 135 -158 135h-50l-60 -342h-71l60 342h-49c-85 0 -133 -49 -208 -148l-146 -194h-84l168 225c62 83 105 129 186 150c-45 20 -58 53 -73 99
l-37 115c-17 52 -31 74 -97 74l11 63c96 0 125 -41 155 -132l38 -116c17 -52 31 -74 97 -74h51l55 316h71l-55 -316h47c70 0 91 23 124 74l78 120c56 87 89 128 206 128l-11 -63c-68 0 -90 -21 -124 -74z" />
    <glyph glyph-name="uni0497" unicode="&#x497;" horiz-adv-x="789" 
d="M655 414l-62 -89c-18 -26 -36 -47 -72 -58c52 -16 73 -51 98 -104l49 -107h57l-33 -186h-67l24 130h-29l-66 149c-27 61 -50 90 -125 90h-14l-42 -239h-69l42 239h-12c-71 0 -105 -27 -157 -94l-112 -145h-81l133 170c40 51 74 85 136 100c-28 12 -40 32 -50 59l-33 85
c-12 30 -24 43 -75 43l10 59c78 0 104 -29 129 -94l32 -85c12 -31 25 -44 76 -44h13l39 217h69l-39 -217h13c52 0 70 13 91 44l62 89c43 62 68 90 165 90l-10 -59c-51 0 -69 -12 -90 -43z" />
    <glyph glyph-name="uni049A" unicode="&#x49a;" horiz-adv-x="664" 
d="M540 589l-78 -120c-30 -46 -55 -80 -106 -97c66 -22 96 -74 130 -155l64 -155h58l-38 -216h-68l28 154h-29l-85 207c-38 92 -68 135 -158 135h-76l-60 -342h-71l127 720h71l-55 -316h73c70 0 91 23 124 74l78 120c56 87 89 128 206 128l-11 -63c-68 0 -90 -21 -124 -74z
" />
    <glyph glyph-name="uni049B" unicode="&#x49b;" horiz-adv-x="544" 
d="M411 414l-62 -89c-19 -27 -36 -47 -72 -58c50 -15 73 -50 98 -104l49 -107h55l-33 -186h-67l24 130h-27l-66 149c-27 61 -50 90 -125 90h-40l-42 -239h-69l90 510h69l-39 -217h39c52 0 70 13 91 44l62 89c43 62 68 90 165 90l-10 -59c-51 0 -69 -12 -90 -43z" />
    <glyph glyph-name="uni049C" unicode="&#x49c;" horiz-adv-x="677" 
d="M574 589l-78 -120c-30 -46 -55 -80 -106 -97c66 -22 96 -74 130 -155l90 -217h-75l-85 207c-37 90 -67 130 -144 134l-31 -178h-53l31 179h-71l-60 -342h-71l127 720h71l-55 -316h70l29 165h53l-29 -165c56 4 77 27 108 74l78 120c56 87 89 128 206 128l-11 -63
c-68 0 -90 -21 -124 -74z" />
    <glyph glyph-name="uni049D" unicode="&#x49d;" horiz-adv-x="559" 
d="M444 414l-62 -89c-19 -27 -36 -47 -72 -58c52 -16 73 -51 98 -104l75 -163h-74l-66 149c-23 52 -43 81 -96 88l-20 -119h-51l21 121h-52l-42 -239h-69l90 510h69l-39 -217h52l20 112h51l-20 -110c29 5 44 18 60 42l62 89c43 62 68 90 165 90l-10 -59
c-51 0 -69 -12 -90 -43z" />
    <glyph glyph-name="uni04A2" unicode="&#x4a2;" horiz-adv-x="712" 
d="M51 0l127 720h71l-55 -312h369l55 312h71l-116 -658h54l-38 -216h-68l28 154h-58l61 343h-369l-61 -343h-71z" />
    <glyph glyph-name="uni04A3" unicode="&#x4a3;" horiz-adv-x="592" 
d="M378 0l42 241h-274l-43 -241h-69l90 510h69l-37 -211h274l38 211h69l-80 -454h51l-33 -186h-67l24 130h-54z" />
    <glyph glyph-name="uni04AE" unicode="&#x4ae;" horiz-adv-x="603" 
d="M221 0l55 309l-168 411h72l139 -340l258 340h82l-312 -411l-55 -309h-71z" />
    <glyph glyph-name="uni04AF" unicode="&#x4af;" horiz-adv-x="505" 
d="M133 -210l37 210l-100 510h68l79 -427l233 427h74l-285 -510l-37 -210h-69z" />
    <glyph glyph-name="uni04B0" unicode="&#x4b0;" horiz-adv-x="603" 
d="M120 252l10 57h146l-168 411h72l139 -340l258 340h82l-312 -411h146l-10 -57h-146l-45 -252h-71l45 252h-146z" />
    <glyph glyph-name="uni04B1" unicode="&#x4b1;" horiz-adv-x="505" 
d="M37 -44l10 57h125l-102 497h68l81 -419l231 419h74l-283 -497h125l-10 -57h-125l-29 -166h-69l29 166h-125z" />
    <glyph glyph-name="uni04B2" unicode="&#x4b2;" horiz-adv-x="625" 
d="M-11 0l299 371l-158 349h75l132 -298l236 298h85l-283 -349l141 -309h57l-38 -216h-68l28 154h-25l-144 320l-252 -320h-85z" />
    <glyph glyph-name="uni04B3" unicode="&#x4b3;" horiz-adv-x="508" 
d="M-15 0l227 265l-124 245h72l98 -201l165 201h82l-210 -245l105 -209h54l-33 -186h-67l24 130h-20l-109 221l-185 -221h-79z" />
    <glyph glyph-name="uni04B6" unicode="&#x4b6;" horiz-adv-x="647" 
d="M316 360c45 0 105 7 179 31l58 329h71l-116 -658h54l-38 -216h-68l28 154h-58l58 328c-68 -21 -128 -31 -184 -31c-112 0 -200 40 -200 163c0 19 2 38 5 57l35 203h71l-36 -208c-3 -16 -4 -30 -4 -41c0 -85 59 -111 145 -111z" />
    <glyph glyph-name="uni04B7" unicode="&#x4b7;" horiz-adv-x="549" 
d="M94 510h69l-25 -142c-2 -12 -4 -23 -4 -35c0 -64 53 -76 112 -76c35 0 79 4 138 21l41 232h69l-80 -454h51l-33 -186h-67l24 130h-54l39 222c-53 -14 -99 -22 -146 -22c-97 0 -163 33 -163 128c0 16 2 30 5 46z" />
    <glyph glyph-name="uni04B8" unicode="&#x4b8;" horiz-adv-x="659" 
d="M259 119l31 178c-108 5 -190 43 -190 163c0 13 1 36 5 57l35 203h71l-36 -208c-3 -15 -4 -33 -4 -44c0 -79 54 -105 130 -109l30 166h53l-30 -165c45 2 97 11 161 31l58 329h71l-127 -720h-71l58 328c-64 -20 -116 -28 -161 -31l-31 -178h-53z" />
    <glyph glyph-name="uni04B9" unicode="&#x4b9;" horiz-adv-x="549" 
d="M200 80l21 120c-90 3 -156 36 -156 126c0 16 2 31 5 48l24 136h69l-25 -142c-2 -11 -4 -23 -4 -35c0 -54 41 -72 97 -76l19 110h51l-20 -111c33 2 72 8 122 22l41 232h69l-90 -510h-69l39 222c-43 -12 -83 -19 -121 -21l-21 -121h-51z" />
    <glyph glyph-name="uni04BA" unicode="&#x4ba;" horiz-adv-x="639" 
d="M364 387c-45 0 -105 -7 -179 -31l-63 -356h-71l127 720h71l-53 -299c68 21 129 31 185 31c112 0 200 -40 200 -163c0 -19 -2 -38 -5 -57l-41 -232h-71l42 237c3 16 4 30 4 41c0 85 -62 109 -146 109z" />
    <glyph glyph-name="uni04BB" unicode="&#x4bb;" horiz-adv-x="534" 
d="M434 0h-69l26 147c2 11 3 20 3 29c0 66 -50 78 -109 78c-38 0 -82 -5 -141 -22l-41 -232h-69l90 510h69l-39 -220c52 14 100 22 148 22c89 0 160 -28 160 -129c0 -12 -1 -30 -4 -47z" />
    <glyph glyph-name="uni04C0" unicode="&#x4c0;" horiz-adv-x="281" 
d="M60 0l127 720h71l-127 -720h-71z" />
    <glyph glyph-name="uni04CF" unicode="&#x4cf;" horiz-adv-x="241" 
d="M41 0l127 720h69l-127 -720h-69z" />
    <glyph glyph-name="uni04D8" unicode="&#x4d8;" horiz-adv-x="697" 
d="M67 276c0 53 8 91 13 120h515v18c0 164 -78 253 -202 253c-71 0 -153 -29 -215 -73l-12 66c61 42 152 72 233 72c159 0 267 -113 267 -318c0 -218 -121 -426 -344 -426c-157 0 -255 102 -255 288zM324 51c158 0 243 138 265 284h-448c-2 -19 -3 -40 -3 -58
c0 -148 66 -226 186 -226z" />
    <glyph glyph-name="uni04D9" unicode="&#x4d9;" horiz-adv-x="517" 
d="M195 -12c-117 0 -168 71 -168 147c0 94 79 167 298 167c26 0 53 -1 80 -5v1c0 106 -47 166 -138 166c-51 0 -108 -19 -158 -52l-11 59c52 33 119 51 177 51c125 0 199 -81 199 -221c0 -176 -116 -313 -279 -313zM200 43c106 0 183 88 201 204c-25 2 -48 4 -82 4
c-172 0 -225 -51 -225 -116c0 -51 33 -92 106 -92z" />
    <glyph glyph-name="uni04E2" unicode="&#x4e2;" horiz-adv-x="709" 
d="M694 720l-127 -720h-68l103 586l-487 -586h-65l127 720h68l-103 -586l487 586h65zM308 789l10 56h280l-10 -56h-280z" />
    <glyph glyph-name="uni04E3" unicode="&#x4e3;" horiz-adv-x="567" 
d="M533 510l-90 -510h-69l15 84c-50 -50 -120 -96 -206 -96c-66 0 -130 27 -130 121c0 12 1 28 4 44l63 357h69l-63 -359c-2 -12 -3 -22 -3 -31c0 -55 37 -72 82 -72c77 0 143 49 195 99l64 363h69zM198 585l10 57h280l-10 -57h-280z" />
    <glyph glyph-name="uni04E8" unicode="&#x4e8;" horiz-adv-x="716" 
d="M344 52c144 0 243 122 266 283h-473v-22c0 -173 84 -261 207 -261zM408 668c-141 0 -238 -116 -264 -270h471v9c0 173 -84 261 -207 261zM342 -12c-160 0 -274 118 -274 325c0 231 141 419 342 419c160 0 274 -118 274 -325c0 -231 -141 -419 -342 -419z" />
    <glyph glyph-name="uni04E9" unicode="&#x4e9;" horiz-adv-x="554" 
d="M252 46c101 0 168 84 187 188h-329v-16c0 -116 59 -172 142 -172zM302 464c-97 0 -163 -77 -185 -175h327v3c0 116 -59 172 -142 172zM248 -12c-115 0 -205 77 -205 228c0 165 107 306 263 306c115 0 205 -77 205 -228c0 -165 -107 -306 -263 -306z" />
    <glyph glyph-name="uni04EE" unicode="&#x4ee;" horiz-adv-x="603" 
d="M251 243l-143 477h71l127 -430l274 430h79l-315 -488c-123 -190 -180 -238 -291 -238c-16 0 -39 1 -60 5l11 65c17 -4 35 -6 55 -6c74 0 109 27 214 185h-22zM255 789l10 56h280l-10 -56h-280z" />
    <glyph glyph-name="uni04EF" unicode="&#x4ef;" horiz-adv-x="505" 
d="M-44 -211l11 61c13 -3 26 -6 45 -6c60 0 96 28 173 168h-24l-90 498h70l75 -446l234 446h74l-273 -508c-99 -185 -145 -218 -239 -218c-16 0 -36 1 -56 5zM170 585l10 57h280l-10 -57h-280z" />
    <glyph glyph-name="Wgrave" unicode="&#x1e80;" horiz-adv-x="953" 
d="M608 0l-45 413c-6 56 -16 152 -19 211h-2c-27 -70 -59 -135 -92 -205l-198 -419h-69l-61 720h70l32 -413c7 -86 12 -140 13 -206h2c18 46 55 130 90 204l197 415h68l44 -413c10 -95 14 -128 18 -206h2c18 52 45 121 82 205l181 414h75l-320 -720h-68zM627 783h-55
l-103 125h80z" />
    <glyph glyph-name="wgrave" unicode="&#x1e81;" horiz-adv-x="751" 
d="M203 0h-68l-64 510h67l34 -289c7 -57 11 -101 11 -144h2c10 32 34 84 61 139l144 294h65l33 -291c7 -61 10 -91 11 -142h2c12 37 35 91 60 143l139 290h70l-248 -510h-67l-33 286c-9 76 -11 93 -12 143h-2c-19 -49 -41 -94 -65 -143zM490 574h-54l-100 146h80z" />
    <glyph glyph-name="Wacute" unicode="&#x1e82;" horiz-adv-x="953" 
d="M608 0l-45 413c-6 56 -16 152 -19 211h-2c-27 -70 -59 -135 -92 -205l-198 -419h-69l-61 720h70l32 -413c7 -86 12 -140 13 -206h2c18 46 55 130 90 204l197 415h68l44 -413c10 -95 14 -128 18 -206h2c18 52 45 121 82 205l181 414h75l-320 -720h-68zM568 783h-59
l110 125h92z" />
    <glyph glyph-name="wacute" unicode="&#x1e83;" horiz-adv-x="751" 
d="M203 0h-68l-64 510h67l34 -289c7 -57 11 -101 11 -144h2c10 32 34 84 61 139l144 294h65l33 -291c7 -61 10 -91 11 -142h2c12 37 35 91 60 143l139 290h70l-248 -510h-67l-33 286c-9 76 -11 93 -12 143h-2c-19 -49 -41 -94 -65 -143zM433 574h-60l114 146h92z" />
    <glyph glyph-name="Wdieresis" unicode="&#x1e84;" horiz-adv-x="953" 
d="M608 0l-45 413c-6 56 -16 152 -19 211h-2c-27 -70 -59 -135 -92 -205l-198 -419h-69l-61 720h70l32 -413c7 -86 12 -140 13 -206h2c18 46 55 130 90 204l197 415h68l44 -413c10 -95 14 -128 18 -206h2c18 52 45 121 82 205l181 414h75l-320 -720h-68zM441 825
c0 24 18 43 43 43s43 -19 43 -43s-18 -43 -43 -43s-43 19 -43 43zM627 825c0 24 18 43 43 43s43 -19 43 -43s-18 -43 -43 -43s-43 19 -43 43z" />
    <glyph glyph-name="wdieresis" unicode="&#x1e85;" horiz-adv-x="751" 
d="M203 0h-68l-64 510h67l34 -289c7 -57 11 -101 11 -144h2c10 32 34 84 61 139l144 294h65l33 -291c7 -61 10 -91 11 -142h2c12 37 35 91 60 143l139 290h70l-248 -510h-67l-33 286c-9 76 -11 93 -12 143h-2c-19 -49 -41 -94 -65 -143zM304 622c0 24 18 43 43 43
s43 -19 43 -43s-18 -43 -43 -43s-43 19 -43 43zM490 622c0 24 18 43 43 43s43 -19 43 -43s-18 -43 -43 -43s-43 19 -43 43z" />
    <glyph glyph-name="uni1E8A" unicode="&#x1e8a;" horiz-adv-x="625" 
d="M-11 0l299 371l-158 349h75l132 -298l236 298h85l-283 -349l170 -371h-75l-144 320l-252 -320h-85zM447 826c0 -27 -19 -46 -46 -46s-46 19 -46 46s19 46 46 46s46 -19 46 -46z" />
    <glyph glyph-name="uni1E8B" unicode="&#x1e8b;" horiz-adv-x="504" 
d="M-15 0l227 265l-124 245h72l98 -201l165 201h82l-210 -245l134 -265h-71l-109 221l-185 -221h-79zM351 620c0 -27 -19 -46 -46 -46s-46 19 -46 46s19 46 46 46s46 -19 46 -46z" />
    <glyph glyph-name="uni1E9E" unicode="&#x1e9e;" horiz-adv-x="1138" 
d="M583 55l34 60c61 -40 124 -64 193 -64c113 0 191 63 191 148c0 172 -316 122 -316 329c0 118 103 204 248 204c78 0 144 -25 200 -64l-35 -61c-52 37 -104 61 -170 61c-101 0 -172 -57 -172 -132c0 -158 316 -107 316 -327c0 -129 -108 -221 -266 -221
c-83 0 -160 25 -223 67zM24 55l34 60c61 -40 124 -64 193 -64c113 0 191 63 191 148c0 172 -316 122 -316 329c0 118 103 204 248 204c78 0 144 -25 200 -64l-35 -61c-52 37 -104 61 -170 61c-101 0 -172 -57 -172 -132c0 -158 316 -107 316 -327
c0 -129 -108 -221 -266 -221c-83 0 -160 25 -223 67z" />
    <glyph glyph-name="Ygrave" unicode="&#x1ef2;" horiz-adv-x="603" 
d="M221 0l55 309l-168 411h72l139 -340l258 340h82l-312 -411l-55 -309h-71zM452 783h-55l-103 125h80z" />
    <glyph glyph-name="ygrave" unicode="&#x1ef3;" horiz-adv-x="505" 
d="M-44 -211l11 61c13 -3 26 -6 45 -6c60 0 96 28 173 168h-24l-90 498h70l75 -446l234 446h74l-273 -508c-99 -185 -145 -218 -239 -218c-16 0 -36 1 -56 5zM366 574h-54l-100 146h80z" />
    <glyph glyph-name="uni2007" unicode="&#x2007;" horiz-adv-x="623" 
 />
    <glyph glyph-name="uni2008" unicode="&#x2008;" horiz-adv-x="279" 
 />
    <glyph glyph-name="uni200B" unicode="&#x200b;" horiz-adv-x="0" 
 />
    <glyph glyph-name="uniFEFF" unicode="&#xfeff;" horiz-adv-x="0" 
 />
    <glyph glyph-name="endash" unicode="&#x2013;" horiz-adv-x="500" 
d="M69 280l11 63h371l-11 -63h-371z" />
    <glyph glyph-name="emdash" unicode="&#x2014;" 
d="M69 280l11 63h871l-11 -63h-871z" />
    <glyph glyph-name="uni2015" unicode="&#x2015;" 
d="M69 280l11 63h871l-11 -63h-871z" />
    <glyph glyph-name="quoteleft" unicode="&#x2018;" horiz-adv-x="261" 
d="M170 577h3c32 0 51 -21 51 -48c0 -28 -19 -49 -48 -49c-36 0 -61 32 -61 77c0 55 38 120 147 175l31 -40c-82 -37 -113 -79 -123 -115z" />
    <glyph glyph-name="quoteright" unicode="&#x2019;" horiz-adv-x="261" 
d="M212 635h-3c-32 0 -51 21 -51 48c0 28 19 49 48 49c36 0 61 -32 61 -77c0 -55 -38 -120 -147 -175l-31 40c82 37 113 79 123 115z" />
    <glyph glyph-name="quotesinglbase" unicode="&#x201a;" horiz-adv-x="261" 
d="M98 -9h-3c-32 0 -51 21 -51 48c0 28 19 49 48 49c36 0 61 -32 61 -77c0 -55 -38 -120 -147 -175l-31 40c82 37 113 79 123 115z" />
    <glyph glyph-name="quotedblleft" unicode="&#x201c;" horiz-adv-x="435" 
d="M344 577h3c32 0 51 -21 51 -48c0 -28 -19 -49 -48 -49c-36 0 -61 32 -61 77c0 55 38 120 147 175l31 -40c-82 -37 -113 -79 -123 -115zM170 577h3c32 0 51 -21 51 -48c0 -28 -19 -49 -48 -49c-36 0 -61 32 -61 77c0 55 38 120 147 175l31 -40c-82 -37 -113 -79 -123 -115
z" />
    <glyph glyph-name="quotedblright" unicode="&#x201d;" horiz-adv-x="435" 
d="M386 635h-3c-32 0 -51 21 -51 48c0 28 19 49 48 49c36 0 61 -32 61 -77c0 -55 -38 -120 -147 -175l-31 40c82 37 113 79 123 115zM212 635h-3c-32 0 -51 21 -51 48c0 28 19 49 48 49c36 0 61 -32 61 -77c0 -55 -38 -120 -147 -175l-31 40c82 37 113 79 123 115z" />
    <glyph glyph-name="quotedblbase" unicode="&#x201e;" horiz-adv-x="435" 
d="M272 -9h-3c-32 0 -51 21 -51 48c0 28 19 49 48 49c36 0 61 -32 61 -77c0 -55 -38 -120 -147 -175l-31 40c82 37 113 79 123 115zM98 -9h-3c-32 0 -51 21 -51 48c0 28 19 49 48 49c36 0 61 -32 61 -77c0 -55 -38 -120 -147 -175l-31 40c82 37 113 79 123 115z" />
    <glyph glyph-name="dagger" unicode="&#x2020;" horiz-adv-x="572" 
d="M191 -83l96 499l-187 -7l11 62l185 -7l31 216h67l-45 -216l187 7l-11 -62l-185 7l-80 -499h-69z" />
    <glyph glyph-name="daggerdbl" unicode="&#x2021;" horiz-adv-x="572" 
d="M394 680l-41 -196l187 7l-11 -62l-185 7l-48 -275l187 7l-11 -62l-185 7l-27 -196h-67l41 196l-187 -7l11 62l185 -7l48 275l-187 -7l11 62l185 -7l27 196h67z" />
    <glyph glyph-name="bullet" unicode="&#x2022;" horiz-adv-x="464" 
d="M365 350c0 -69 -50 -119 -118 -119s-118 50 -118 119s50 119 118 119s118 -50 118 -119z" />
    <glyph glyph-name="onedotenleader" unicode="&#x2024;" horiz-adv-x="279" 
d="M150 38c0 -28 -20 -50 -50 -50s-50 22 -50 50s20 50 50 50s50 -22 50 -50z" />
    <glyph glyph-name="twodotenleader" unicode="&#x2025;" horiz-adv-x="505" 
d="M150 38c0 -28 -20 -50 -50 -50s-50 22 -50 50s20 50 50 50s50 -22 50 -50zM375 38c0 -28 -20 -50 -50 -50s-50 22 -50 50s20 50 50 50s50 -22 50 -50z" />
    <glyph glyph-name="ellipsis" unicode="&#x2026;" horiz-adv-x="730" 
d="M600 38c0 -28 -20 -50 -50 -50s-50 22 -50 50s20 50 50 50s50 -22 50 -50zM375 38c0 -28 -20 -50 -50 -50s-50 22 -50 50s20 50 50 50s50 -22 50 -50zM150 38c0 -28 -20 -50 -50 -50s-50 22 -50 50s20 50 50 50s50 -22 50 -50z" />
    <glyph glyph-name="perthousand" unicode="&#x2030;" horiz-adv-x="1089" 
d="M768 139c0 -57 26 -99 82 -99c73 0 108 71 108 137c0 57 -26 99 -82 99c-73 0 -108 -71 -108 -137zM1013 174c0 -91 -61 -180 -162 -180c-86 0 -138 64 -138 148c0 91 61 180 162 180c86 0 138 -64 138 -148zM707 720l-569 -720h-65l569 720h65zM163 543
c0 -57 26 -99 82 -99c73 0 108 71 108 137c0 57 -26 99 -82 99c-73 0 -108 -71 -108 -137zM408 578c0 -91 -61 -180 -162 -180c-86 0 -138 64 -138 148c0 91 61 180 162 180c86 0 138 -64 138 -148zM427 139c0 -57 26 -99 82 -99c73 0 108 71 108 137c0 57 -26 99 -82 99
c-73 0 -108 -71 -108 -137zM672 174c0 -91 -61 -180 -162 -180c-86 0 -138 64 -138 148c0 91 61 180 162 180c86 0 138 -64 138 -148z" />
    <glyph glyph-name="minute" unicode="&#x2032;" horiz-adv-x="163" 
d="M69 467l81 253h64l-91 -253h-54z" />
    <glyph glyph-name="second" unicode="&#x2033;" horiz-adv-x="321" 
d="M226 467l81 253h64l-91 -253h-54zM69 467l81 253h64l-91 -253h-54z" />
    <glyph glyph-name="guilsinglleft" unicode="&#x2039;" horiz-adv-x="316" 
d="M149 24l-101 231l175 231h70l-175 -238l93 -224h-62z" />
    <glyph glyph-name="guilsinglright" unicode="&#x203a;" horiz-adv-x="316" 
d="M165 486l101 -231l-175 -231h-70l175 238l-93 224h62z" />
    <glyph glyph-name="exclamdbl" unicode="&#x203c;" horiz-adv-x="533" 
d="M122 197l80 523h74l-104 -523h-50zM166 35c0 -27 -19 -47 -47 -47s-47 20 -47 47s19 47 47 47s47 -20 47 -47zM339 197l80 523h74l-104 -523h-50zM383 35c0 -27 -19 -47 -47 -47s-47 20 -47 47s19 47 47 47s47 -20 47 -47z" />
    <glyph glyph-name="fraction" unicode="&#x2044;" horiz-adv-x="64" 
d="M-216 0l571 720h64l-572 -720h-63z" />
    <glyph glyph-name="uni2070" unicode="&#x2070;" horiz-adv-x="397" 
d="M237 420c89 0 137 107 137 222c0 99 -35 144 -93 144c-89 0 -137 -107 -137 -222c0 -99 35 -144 93 -144zM235 372c-85 0 -144 66 -144 193c0 141 73 269 192 269c85 0 144 -66 144 -193c0 -141 -73 -269 -192 -269z" />
    <glyph glyph-name="uni2071" unicode="&#x2071;" horiz-adv-x="211" 
d="M101 380l56 316h53l-56 -316h-53zM231 784c0 -20 -14 -34 -33 -34c-20 0 -34 14 -34 34s14 34 34 34c19 0 33 -14 33 -34z" />
    <glyph glyph-name="uni2074" unicode="&#x2074;" horiz-adv-x="373" 
d="M61 473l8 46l251 307h70l-55 -306h68l-8 -47h-67l-17 -93h-51l16 93h-215zM124 520h160l45 250z" />
    <glyph glyph-name="uni2075" unicode="&#x2075;" horiz-adv-x="341" 
d="M308 525c0 62 -39 88 -107 88c-23 0 -57 -3 -100 -16l48 229h244l-8 -48h-195l-27 -125c20 4 37 5 50 5c87 0 148 -44 148 -132c0 -97 -76 -154 -177 -154c-55 0 -102 17 -133 35l25 45c29 -19 62 -34 108 -34c76 0 124 39 124 107z" />
    <glyph glyph-name="uni2076" unicode="&#x2076;" horiz-adv-x="369" 
d="M303 834c43 0 84 -13 112 -32l-26 -43c-28 19 -56 27 -87 27c-89 0 -143 -68 -156 -168c36 37 77 53 118 53c74 0 127 -51 127 -136c0 -99 -71 -163 -153 -163c-86 0 -147 69 -147 197c0 151 84 265 212 265zM253 625c-37 0 -70 -18 -110 -55c0 -106 41 -152 97 -152
c57 0 99 46 99 112c0 59 -34 95 -86 95z" />
    <glyph glyph-name="uni2077" unicode="&#x2077;" horiz-adv-x="344" 
d="M125 777l8 49h283l-8 -46c-78 -114 -154 -240 -244 -400h-61c88 158 164 283 241 397h-219z" />
    <glyph glyph-name="uni2078" unicode="&#x2078;" horiz-adv-x="365" 
d="M216 372c-90 0 -150 43 -150 115c0 74 64 106 132 129c-41 23 -72 51 -72 99c0 71 65 119 148 119c78 0 130 -43 130 -106c0 -60 -49 -91 -109 -113c48 -24 89 -53 89 -114c0 -81 -73 -129 -168 -129zM178 720c0 -40 34 -61 75 -82c54 20 99 42 99 89c0 39 -31 63 -82 63
c-54 0 -92 -28 -92 -70zM218 416c65 0 114 30 114 81c0 50 -45 73 -92 96c-63 -24 -122 -47 -122 -104c0 -47 40 -73 100 -73z" />
    <glyph glyph-name="uni2079" unicode="&#x2079;" horiz-adv-x="369" 
d="M189 372c-43 0 -84 13 -112 32l26 42c28 -19 56 -27 87 -27c89 0 144 69 156 169c-36 -38 -77 -53 -118 -53c-74 0 -127 51 -127 136c0 99 71 163 153 163c86 0 147 -69 147 -197c0 -151 -84 -265 -212 -265zM239 580c36 0 70 17 110 55c0 106 -41 152 -97 152
c-57 0 -99 -46 -99 -112c0 -59 34 -95 86 -95z" />
    <glyph glyph-name="uni207A" unicode="&#x207a;" horiz-adv-x="364" 
d="M226 380h-44l24 135h-129l8 46h129l24 135h44l-24 -135h129l-8 -46h-129z" />
    <glyph glyph-name="uni207B" unicode="&#x207b;" horiz-adv-x="364" 
d="M387 561l-8 -46h-302l8 46h302z" />
    <glyph glyph-name="uni207C" unicode="&#x207c;" horiz-adv-x="364" 
d="M376 497l-8 -44h-302l8 44h302zM398 623l-8 -44h-302l8 44h302z" />
    <glyph glyph-name="uni207D" unicode="&#x207d;" horiz-adv-x="233" 
d="M130 505c0 -104 43 -174 83 -216l-31 -25c-45 43 -104 115 -104 240c0 177 117 273 203 330l21 -33c-84 -56 -172 -147 -172 -296z" />
    <glyph glyph-name="uni207E" unicode="&#x207e;" horiz-adv-x="233" 
d="M205 593c0 104 -43 174 -83 216l31 25c45 -43 104 -115 104 -240c0 -177 -117 -273 -203 -330l-21 33c84 56 172 147 172 296z" />
    <glyph glyph-name="uni207F" unicode="&#x207f;" horiz-adv-x="361" 
d="M73 380l56 316h53l-9 -49c32 33 77 57 121 57c41 0 83 -20 83 -73c0 -8 -1 -18 -2 -25l-40 -226h-53l39 220c1 7 2 13 2 20c0 28 -20 37 -45 37c-44 0 -83 -27 -113 -57l-39 -220h-53z" />
    <glyph glyph-name="uni2080" unicode="&#x2080;" horiz-adv-x="397" 
d="M151 -66c89 0 137 107 137 222c0 99 -35 144 -93 144c-89 0 -137 -107 -137 -222c0 -99 35 -144 93 -144zM149 -114c-85 0 -144 66 -144 193c0 141 73 269 192 269c85 0 144 -66 144 -193c0 -141 -73 -269 -192 -269z" />
    <glyph glyph-name="uni2081" unicode="&#x2081;" horiz-adv-x="231" 
d="M38 239l-11 48l109 53h43l-79 -446h-53l68 383z" />
    <glyph glyph-name="uni2082" unicode="&#x2082;" horiz-adv-x="357" 
d="M250 229c0 41 -22 71 -73 71c-50 0 -93 -28 -127 -68l-11 49c33 38 83 67 143 67c78 0 121 -47 121 -116c0 -80 -57 -151 -240 -290h200l-8 -48h-283l6 42c206 153 272 222 272 293z" />
    <glyph glyph-name="uni2083" unicode="&#x2083;" horiz-adv-x="347" 
d="M171 348c70 0 125 -35 125 -105c0 -59 -41 -101 -111 -122c58 -16 82 -54 82 -102c0 -83 -73 -133 -172 -133c-55 0 -100 15 -133 36l24 44c31 -20 67 -33 111 -33c69 0 117 33 117 88c0 52 -42 75 -112 75c-15 0 -25 -1 -42 -2l8 47c108 0 176 35 176 96
c0 42 -33 63 -79 63c-37 0 -75 -13 -111 -39l-7 47c36 25 79 40 124 40z" />
    <glyph glyph-name="uni2084" unicode="&#x2084;" horiz-adv-x="373" 
d="M-25 -13l8 46l251 307h70l-55 -306h68l-8 -47h-67l-17 -93h-51l16 93h-215zM38 34h160l45 250z" />
    <glyph glyph-name="uni2085" unicode="&#x2085;" horiz-adv-x="341" 
d="M222 39c0 62 -39 88 -107 88c-23 0 -57 -3 -100 -16l48 229h244l-8 -48h-195l-27 -125c20 4 37 5 50 5c87 0 148 -44 148 -132c0 -97 -76 -154 -177 -154c-55 0 -102 17 -133 35l25 45c29 -19 62 -34 108 -34c76 0 124 39 124 107z" />
    <glyph glyph-name="uni2086" unicode="&#x2086;" horiz-adv-x="369" 
d="M217 348c43 0 84 -13 112 -32l-26 -43c-28 19 -56 27 -87 27c-89 0 -143 -68 -156 -168c36 37 77 53 118 53c74 0 127 -51 127 -136c0 -99 -71 -163 -153 -163c-86 0 -147 69 -147 197c0 151 84 265 212 265zM167 139c-37 0 -70 -18 -110 -55c0 -106 41 -152 97 -152
c57 0 99 46 99 112c0 59 -34 95 -86 95z" />
    <glyph glyph-name="uni2087" unicode="&#x2087;" horiz-adv-x="344" 
d="M39 291l8 49h283l-8 -46c-78 -114 -154 -240 -244 -400h-61c88 158 164 283 241 397h-219z" />
    <glyph glyph-name="uni2088" unicode="&#x2088;" horiz-adv-x="365" 
d="M130 -114c-90 0 -150 43 -150 115c0 74 64 106 132 129c-41 23 -72 51 -72 99c0 71 65 119 148 119c78 0 130 -43 130 -106c0 -60 -49 -91 -109 -113c48 -24 89 -53 89 -114c0 -81 -73 -129 -168 -129zM92 234c0 -40 34 -61 75 -82c54 20 99 42 99 89c0 39 -31 63 -82 63
c-54 0 -92 -28 -92 -70zM132 -70c65 0 114 30 114 81c0 50 -45 73 -92 96c-63 -24 -122 -47 -122 -104c0 -47 40 -73 100 -73z" />
    <glyph glyph-name="uni2089" unicode="&#x2089;" horiz-adv-x="369" 
d="M103 -114c-43 0 -84 13 -112 32l26 42c28 -19 56 -27 87 -27c89 0 144 69 156 169c-36 -38 -77 -53 -118 -53c-74 0 -127 51 -127 136c0 99 71 163 153 163c86 0 147 -69 147 -197c0 -151 -84 -265 -212 -265zM153 94c36 0 70 17 110 55c0 106 -41 152 -97 152
c-57 0 -99 -46 -99 -112c0 -59 34 -95 86 -95z" />
    <glyph glyph-name="uni208A" unicode="&#x208a;" horiz-adv-x="364" 
d="M140 -106h-44l24 135h-129l8 46h129l24 135h44l-24 -135h129l-8 -46h-129z" />
    <glyph glyph-name="uni208B" unicode="&#x208b;" horiz-adv-x="364" 
d="M301 75l-8 -46h-302l8 46h302z" />
    <glyph glyph-name="uni208C" unicode="&#x208c;" horiz-adv-x="364" 
d="M290 11l-8 -44h-302l8 44h302zM312 137l-8 -44h-302l8 44h302z" />
    <glyph glyph-name="uni208D" unicode="&#x208d;" horiz-adv-x="233" 
d="M44 19c0 -104 43 -174 83 -216l-31 -25c-45 43 -104 115 -104 240c0 177 117 273 203 330l21 -33c-84 -56 -172 -147 -172 -296z" />
    <glyph glyph-name="uni208E" unicode="&#x208e;" horiz-adv-x="233" 
d="M119 107c0 104 -43 174 -83 216l31 25c45 -43 104 -115 104 -240c0 -177 -117 -273 -203 -330l-21 33c84 56 172 147 172 296z" />
    <glyph glyph-name="Euro" unicode="&#x20ac;" horiz-adv-x="627" 
d="M42 399l10 56h98c46 160 162 277 328 277c74 0 127 -23 173 -61l-35 -59c-45 38 -88 58 -147 58c-125 0 -210 -90 -248 -215h259l-10 -56h-262c-5 -26 -8 -53 -9 -80h257l-10 -56h-246c8 -139 70 -214 169 -214c56 0 113 24 163 65l13 -62c-51 -38 -115 -64 -183 -64
c-133 0 -223 96 -233 275h-111l10 56h101c1 27 4 54 9 80h-96z" />
    <glyph glyph-name="uni20B1" unicode="&#x20b1;" horiz-adv-x="631" 
d="M54 472l10 56h90l34 192h212c132 0 211 -65 214 -192h66l-9 -56h-61c-21 -118 -115 -189 -271 -189h-158l-49 -283h-71l83 472h-90zM192 343h147c118 0 182 48 200 129h-324zM248 658l-23 -130h319c-3 91 -52 130 -149 130h-147z" />
    <glyph glyph-name="uni20B4" unicode="&#x20b4;" horiz-adv-x="577" 
d="M46 399l10 56h372c38 25 64 57 64 106c0 66 -46 109 -126 109c-66 0 -126 -30 -177 -68l-13 63c52 39 120 67 195 67c115 0 191 -65 191 -171c0 -45 -14 -79 -37 -106h67l-10 -56h-129c-61 -33 -148 -54 -213 -80h328l-10 -56h-403c-25 -24 -40 -54 -40 -94
c0 -75 52 -120 145 -120c75 0 142 29 199 70l13 -62c-58 -41 -134 -69 -218 -69c-127 0 -209 63 -209 180c0 38 9 69 24 95h-47l10 56h89c49 36 124 58 187 80h-262z" />
    <glyph glyph-name="uni2113" unicode="&#x2113;" horiz-adv-x="572" 
d="M42 290c35 0 69 2 101 6l45 257c21 118 83 179 169 179c79 0 142 -51 142 -170c0 -161 -116 -270 -297 -311l-11 -65c-3 -18 -5 -32 -5 -48c0 -69 38 -92 102 -92c45 0 83 12 118 34l11 -59c-35 -22 -83 -33 -135 -33c-98 0 -164 39 -164 143c0 22 3 41 7 64l8 44
c-32 -4 -66 -5 -101 -5zM254 544l-41 -233c138 38 225 125 225 252c0 82 -37 111 -78 111c-45 0 -89 -34 -106 -130z" />
    <glyph glyph-name="uni2116" unicode="&#x2116;" horiz-adv-x="1053" 
d="M798 509c0 -57 26 -99 82 -99c73 0 108 71 108 137c0 57 -26 99 -82 99c-73 0 -108 -71 -108 -137zM1043 544c0 -91 -61 -180 -162 -180c-86 0 -138 64 -138 148c0 91 61 180 162 180c86 0 138 -64 138 -148zM51 0l127 720h81l266 -589l104 589h67l-127 -720h-59
l-282 623l-110 -623h-67z" />
    <glyph glyph-name="uni2117" unicode="&#x2117;" horiz-adv-x="838" 
d="M315 541h136c84 0 135 -37 135 -110c0 -74 -52 -110 -139 -110h-75v-146h-57v366zM372 369h76c53 0 81 21 81 61s-28 61 -81 61h-76v-122zM104 360c0 -187 144 -327 327 -327s327 140 327 327s-144 327 -327 327s-327 -140 -327 -327zM803 360
c0 -213 -163 -372 -372 -372s-372 159 -372 372s163 372 372 372s372 -159 372 -372z" />
    <glyph glyph-name="uni2120" unicode="&#x2120;" horiz-adv-x="770" 
d="M567 380h-46l-38 203c-9 46 -11 61 -12 78h-2l-20 -80l-52 -201h-48l93 340h65l34 -200c6 -35 9 -54 11 -81h2c12 27 23 46 39 75l115 206h65l-32 -340h-50l22 207c2 17 7 56 11 74h-2c-6 -15 -29 -57 -42 -80zM65 403l20 42c31 -18 60 -29 95 -29c50 0 84 24 84 59
c0 73 -149 53 -149 152c0 57 48 100 127 100c40 0 74 -11 102 -29l-21 -43c-27 17 -51 27 -82 27c-44 0 -74 -20 -74 -50c0 -65 149 -46 149 -151c0 -65 -58 -108 -138 -108c-42 0 -81 12 -113 30z" />
    <glyph glyph-name="trademark" unicode="&#x2122;" horiz-adv-x="754" 
d="M550 380h-46l-38 203c-9 46 -11 61 -12 78h-2l-20 -80l-52 -201h-48l93 340h65l34 -200c6 -35 9 -54 11 -81h2c12 27 23 46 39 75l115 206h65l-32 -340h-50l22 207c2 17 7 56 11 74h-2c-6 -15 -29 -57 -42 -80zM144 380l53 295h-102l8 45h255l-8 -45h-102l-52 -295h-52z
" />
    <glyph glyph-name="Omega" unicode="&#x2126;" horiz-adv-x="716" 
d="M412 668c-153 0 -266 -135 -266 -323c0 -124 49 -216 127 -290l-9 -55h-267l10 64h183c-71 69 -115 159 -115 280c0 223 149 388 339 388c159 0 274 -115 274 -305c0 -150 -72 -275 -200 -363h177l-11 -64h-266l9 55c140 96 220 214 220 370c0 158 -83 243 -205 243z" />
    <glyph glyph-name="estimated" unicode="&#x212e;" horiz-adv-x="736" 
d="M376 15c80 0 149 31 196 82h48c-56 -65 -144 -109 -244 -109c-168 0 -308 125 -308 277s140 277 308 277s308 -125 308 -277v-14h-513v-146c49 -56 122 -90 205 -90zM376 515c-83 0 -156 -34 -205 -90v-146h410v146c-49 56 -122 90 -205 90z" />
    <glyph glyph-name="uni2150" unicode="&#x2150;" horiz-adv-x="788" 
d="M39 0l571 720h64l-572 -720h-63zM124 619l-11 48l109 53h43l-79 -446h-53l68 383zM515 397l8 49h283l-8 -46c-78 -114 -154 -240 -244 -400h-61c88 158 164 283 241 397h-219z" />
    <glyph glyph-name="uni2151" unicode="&#x2151;" horiz-adv-x="777" 
d="M42 0l571 720h64l-572 -720h-63zM541 -5c-43 0 -84 13 -112 32l26 42c28 -19 56 -27 87 -27c89 0 144 69 156 169c-36 -38 -77 -53 -118 -53c-74 0 -127 51 -127 136c0 99 71 163 153 163c86 0 147 -69 147 -197c0 -151 -84 -265 -212 -265zM591 203c36 0 70 17 110 55
c0 106 -41 152 -97 152c-57 0 -99 -46 -99 -112c0 -59 34 -95 86 -95zM124 619l-11 48l109 53h43l-79 -446h-53l68 383z" />
    <glyph glyph-name="uni2152" unicode="&#x2152;" horiz-adv-x="1066" 
d="M42 0l571 720h64l-572 -720h-63zM124 619l-11 48l109 53h43l-79 -446h-53l68 383zM557 345l-11 48l109 53h43l-79 -446h-53l68 383zM848 40c89 0 137 107 137 222c0 99 -35 144 -93 144c-89 0 -137 -107 -137 -222c0 -99 35 -144 93 -144zM846 -8c-85 0 -144 66 -144 193
c0 141 73 269 192 269c85 0 144 -66 144 -193c0 -141 -73 -269 -192 -269z" />
    <glyph glyph-name="onethird" unicode="&#x2153;" horiz-adv-x="776" 
d="M42 0l571 720h64l-572 -720h-63zM630 454c70 0 125 -35 125 -105c0 -59 -41 -101 -111 -122c58 -16 82 -54 82 -102c0 -83 -73 -133 -172 -133c-55 0 -100 15 -133 36l24 44c31 -20 67 -33 111 -33c69 0 117 33 117 88c0 52 -42 75 -112 75c-15 0 -25 -1 -42 -2l8 47
c108 0 176 35 176 96c0 42 -33 63 -79 63c-37 0 -75 -13 -111 -39l-7 47c36 25 79 40 124 40zM124 619l-11 48l109 53h43l-79 -446h-53l68 383z" />
    <glyph glyph-name="twothirds" unicode="&#x2154;" horiz-adv-x="927" 
d="M189 0l571 720h64l-572 -720h-63zM781 454c70 0 125 -35 125 -105c0 -59 -41 -101 -111 -122c58 -16 82 -54 82 -102c0 -83 -73 -133 -172 -133c-55 0 -100 15 -133 36l24 44c31 -20 67 -33 111 -33c69 0 117 33 117 88c0 52 -42 75 -112 75c-15 0 -25 -1 -42 -2l8 47
c108 0 176 35 176 96c0 42 -33 63 -79 63c-37 0 -75 -13 -111 -39l-7 47c36 25 79 40 124 40zM336 609c0 41 -22 71 -73 71c-50 0 -93 -28 -127 -68l-11 49c33 38 83 67 143 67c78 0 121 -47 121 -116c0 -80 -57 -151 -240 -290h200l-8 -48h-283l6 42
c206 153 272 222 272 293z" />
    <glyph glyph-name="uni2155" unicode="&#x2155;" horiz-adv-x="776" 
d="M39 0l571 720h64l-572 -720h-63zM682 145c0 62 -39 88 -107 88c-23 0 -57 -3 -100 -16l48 229h244l-8 -48h-195l-27 -125c20 4 37 5 50 5c87 0 148 -44 148 -132c0 -97 -76 -154 -177 -154c-55 0 -102 17 -133 35l25 45c29 -19 62 -34 108 -34c76 0 124 39 124 107z
M124 619l-11 48l109 53h43l-79 -446h-53l68 383z" />
    <glyph glyph-name="uni2156" unicode="&#x2156;" horiz-adv-x="923" 
d="M189 0l571 720h64l-572 -720h-63zM336 609c0 41 -22 71 -73 71c-50 0 -93 -28 -127 -68l-11 49c33 38 83 67 143 67c78 0 121 -47 121 -116c0 -80 -57 -151 -240 -290h200l-8 -48h-283l6 42c206 153 272 222 272 293zM832 145c0 62 -39 88 -107 88c-23 0 -57 -3 -100 -16
l48 229h244l-8 -48h-195l-27 -125c20 4 37 5 50 5c87 0 148 -44 148 -132c0 -97 -76 -154 -177 -154c-55 0 -102 17 -133 35l25 45c29 -19 62 -34 108 -34c76 0 124 39 124 107z" />
    <glyph glyph-name="uni2157" unicode="&#x2157;" horiz-adv-x="853" 
d="M122 0l571 720h64l-572 -720h-63zM762 145c0 62 -39 88 -107 88c-23 0 -57 -3 -100 -16l48 229h244l-8 -48h-195l-27 -125c20 4 37 5 50 5c87 0 148 -44 148 -132c0 -97 -76 -154 -177 -154c-55 0 -102 17 -133 35l25 45c29 -19 62 -34 108 -34c76 0 124 39 124 107z
M257 728c70 0 125 -35 125 -105c0 -59 -41 -101 -111 -122c58 -16 82 -54 82 -102c0 -83 -73 -133 -172 -133c-55 0 -100 15 -133 36l24 44c31 -20 67 -33 111 -33c69 0 117 33 117 88c0 52 -42 75 -112 75c-15 0 -25 -1 -42 -2l8 47c108 0 176 35 176 96
c0 42 -33 63 -79 63c-37 0 -75 -13 -111 -39l-7 47c36 25 79 40 124 40z" />
    <glyph glyph-name="uni2158" unicode="&#x2158;" horiz-adv-x="893" 
d="M163 0l571 720h64l-572 -720h-63zM61 367l8 46l251 307h70l-55 -306h68l-8 -47h-67l-17 -93h-51l16 93h-215zM124 414h160l45 250zM804 145c0 62 -39 88 -107 88c-23 0 -57 -3 -100 -16l48 229h244l-8 -48h-195l-27 -125c20 4 37 5 50 5c87 0 148 -44 148 -132
c0 -97 -76 -154 -177 -154c-55 0 -102 17 -133 35l25 45c29 -19 62 -34 108 -34c76 0 124 39 124 107z" />
    <glyph glyph-name="uni2159" unicode="&#x2159;" horiz-adv-x="746" 
d="M39 0l571 720h64l-572 -720h-63zM627 454c43 0 84 -13 112 -32l-26 -43c-28 19 -56 27 -87 27c-89 0 -143 -68 -156 -168c36 37 77 53 118 53c74 0 127 -51 127 -136c0 -99 -71 -163 -153 -163c-86 0 -147 69 -147 197c0 151 84 265 212 265zM577 245
c-37 0 -70 -18 -110 -55c0 -106 41 -152 97 -152c57 0 99 46 99 112c0 59 -34 95 -86 95zM124 619l-11 48l109 53h43l-79 -446h-53l68 383z" />
    <glyph glyph-name="uni215A" unicode="&#x215a;" horiz-adv-x="827" 
d="M121 0l571 720h64l-572 -720h-63zM308 419c0 62 -39 88 -107 88c-23 0 -57 -3 -100 -16l48 229h244l-8 -48h-195l-27 -125c20 4 37 5 50 5c87 0 148 -44 148 -132c0 -97 -76 -154 -177 -154c-55 0 -102 17 -133 35l25 45c29 -19 62 -34 108 -34c76 0 124 39 124 107z
M708 454c43 0 84 -13 112 -32l-26 -43c-28 19 -56 27 -87 27c-89 0 -143 -68 -156 -168c36 37 77 53 118 53c74 0 127 -51 127 -136c0 -99 -71 -163 -153 -163c-86 0 -147 69 -147 197c0 151 84 265 212 265zM658 245c-37 0 -70 -18 -110 -55c0 -106 41 -152 97 -152
c57 0 99 46 99 112c0 59 -34 95 -86 95z" />
    <glyph glyph-name="oneeighth" unicode="&#x215b;" horiz-adv-x="758" 
d="M42 0l571 720h64l-572 -720h-63zM552 -8c-90 0 -150 43 -150 115c0 74 64 106 132 129c-41 23 -72 51 -72 99c0 71 65 119 148 119c78 0 130 -43 130 -106c0 -60 -49 -91 -109 -113c48 -24 89 -53 89 -114c0 -81 -73 -129 -168 -129zM514 340c0 -40 34 -61 75 -82
c54 20 99 42 99 89c0 39 -31 63 -82 63c-54 0 -92 -28 -92 -70zM554 36c65 0 114 30 114 81c0 50 -45 73 -92 96c-63 -24 -122 -47 -122 -104c0 -47 40 -73 100 -73zM124 619l-11 48l109 53h43l-79 -446h-53l68 383z" />
    <glyph glyph-name="threeeighths" unicode="&#x215c;" horiz-adv-x="832" 
d="M115 0l571 720h64l-572 -720h-63zM626 -8c-90 0 -150 43 -150 115c0 74 64 106 132 129c-41 23 -72 51 -72 99c0 71 65 119 148 119c78 0 130 -43 130 -106c0 -60 -49 -91 -109 -113c48 -24 89 -53 89 -114c0 -81 -73 -129 -168 -129zM588 340c0 -40 34 -61 75 -82
c54 20 99 42 99 89c0 39 -31 63 -82 63c-54 0 -92 -28 -92 -70zM628 36c65 0 114 30 114 81c0 50 -45 73 -92 96c-63 -24 -122 -47 -122 -104c0 -47 40 -73 100 -73zM257 728c70 0 125 -35 125 -105c0 -59 -41 -101 -111 -122c58 -16 82 -54 82 -102
c0 -83 -73 -133 -172 -133c-55 0 -100 15 -133 36l24 44c31 -20 67 -33 111 -33c69 0 117 33 117 88c0 52 -42 75 -112 75c-15 0 -25 -1 -42 -2l8 47c108 0 176 35 176 96c0 42 -33 63 -79 63c-37 0 -75 -13 -111 -39l-7 47c36 25 79 40 124 40z" />
    <glyph glyph-name="fiveeighths" unicode="&#x215d;" horiz-adv-x="838" 
d="M119 0l571 720h64l-572 -720h-63zM632 -8c-90 0 -150 43 -150 115c0 74 64 106 132 129c-41 23 -72 51 -72 99c0 71 65 119 148 119c78 0 130 -43 130 -106c0 -60 -49 -91 -109 -113c48 -24 89 -53 89 -114c0 -81 -73 -129 -168 -129zM594 340c0 -40 34 -61 75 -82
c54 20 99 42 99 89c0 39 -31 63 -82 63c-54 0 -92 -28 -92 -70zM634 36c65 0 114 30 114 81c0 50 -45 73 -92 96c-63 -24 -122 -47 -122 -104c0 -47 40 -73 100 -73zM308 419c0 62 -39 88 -107 88c-23 0 -57 -3 -100 -16l48 229h244l-8 -48h-195l-27 -125c20 4 37 5 50 5
c87 0 148 -44 148 -132c0 -97 -76 -154 -177 -154c-55 0 -102 17 -133 35l25 45c29 -19 62 -34 108 -34c76 0 124 39 124 107z" />
    <glyph glyph-name="seveneighths" unicode="&#x215e;" horiz-adv-x="727" 
d="M11 0l571 720h64l-572 -720h-63zM521 -8c-90 0 -150 43 -150 115c0 74 64 106 132 129c-41 23 -72 51 -72 99c0 71 65 119 148 119c78 0 130 -43 130 -106c0 -60 -49 -91 -109 -113c48 -24 89 -53 89 -114c0 -81 -73 -129 -168 -129zM483 340c0 -40 34 -61 75 -82
c54 20 99 42 99 89c0 39 -31 63 -82 63c-54 0 -92 -28 -92 -70zM523 36c65 0 114 30 114 81c0 50 -45 73 -92 96c-63 -24 -122 -47 -122 -104c0 -47 40 -73 100 -73zM125 671l8 49h283l-8 -46c-78 -114 -154 -240 -244 -400h-61c88 158 164 283 241 397h-219z" />
    <glyph glyph-name="uni215F" unicode="&#x215f;" horiz-adv-x="528" 
d="M39 0l571 720h64l-572 -720h-63zM124 619l-11 48l109 53h43l-79 -446h-53l68 383z" />
    <glyph glyph-name="uni2189" unicode="&#x2189;" horiz-adv-x="892" 
d="M237 314c89 0 137 107 137 222c0 99 -35 144 -93 144c-89 0 -137 -107 -137 -222c0 -99 35 -144 93 -144zM235 266c-85 0 -144 66 -144 193c0 141 73 269 192 269c85 0 144 -66 144 -193c0 -141 -73 -269 -192 -269zM760 454c70 0 125 -35 125 -105
c0 -59 -41 -101 -111 -122c58 -16 82 -54 82 -102c0 -83 -73 -133 -172 -133c-55 0 -100 15 -133 36l24 44c31 -20 67 -33 111 -33c69 0 117 33 117 88c0 52 -42 75 -112 75c-15 0 -25 -1 -42 -2l8 47c108 0 176 35 176 96c0 42 -33 63 -79 63c-37 0 -75 -13 -111 -39l-7 47
c36 25 79 40 124 40zM149 0l571 720h64l-572 -720h-63z" />
    <glyph glyph-name="arrowleft" unicode="&#x2190;" 
d="M472 556l-99 -99c-59 -59 -99 -99 -125 -120v-2c33 4 87 4 170 4h458v-60h-458c-83 0 -137 0 -170 4v-2c26 -21 66 -61 125 -120l99 -99l-40 -42l-288 289l288 289z" />
    <glyph glyph-name="arrowup" unicode="&#x2191;" 
d="M540 0h-60v458c0 83 1 137 4 170h-2c-21 -26 -60 -66 -119 -125l-101 -101l-40 41l288 289l288 -289l-40 -41l-101 101c-59 59 -98 99 -119 125h-2c3 -33 4 -87 4 -170v-458z" />
    <glyph glyph-name="arrowright" unicode="&#x2192;" 
d="M548 62l99 99c59 59 99 99 125 120v2c-33 -4 -87 -4 -170 -4h-458v60h458c83 0 137 0 170 -4v2c-26 21 -66 61 -125 120l-99 99l40 42l288 -289l-288 -289z" />
    <glyph glyph-name="arrowdown" unicode="&#x2193;" 
d="M480 720h60v-458c0 -83 -1 -137 -4 -170h2c21 26 60 66 119 125l101 101l40 -41l-288 -289l-288 289l40 41l101 -101c59 -59 98 -99 119 -125h2c-3 33 -4 87 -4 170v458z" />
    <glyph glyph-name="uni2196" unicode="&#x2196;" 
d="M765 140l-40 -41l-325 325c-59 59 -97 97 -118 123l-1 -2c3 -33 3 -89 3 -173v-143h-57v409h408v-59h-142c-84 0 -139 0 -172 3l-2 -1c26 -21 63 -59 122 -117z" />
    <glyph glyph-name="uni2197" unicode="&#x2197;" 
d="M262 99l-40 41l324 324c11 11 100 100 122 117l-2 1c-33 -3 -88 -3 -172 -3h-142v59h408v-409h-57v143c0 84 0 140 3 173l-1 2c-21 -26 -59 -64 -118 -123z" />
    <glyph glyph-name="uni2198" unicode="&#x2198;" 
d="M222 564l40 41l325 -325c59 -59 97 -97 118 -123l1 2c-3 33 -3 89 -3 173v143h57v-409h-408v59h142c84 0 139 0 172 -3l2 1c-26 21 -63 59 -122 117z" />
    <glyph glyph-name="uni2199" unicode="&#x2199;" 
d="M725 605l40 -41l-324 -324c-11 -11 -100 -100 -122 -117l2 -1c33 3 88 3 172 3h142v-59h-408v409h57v-143c0 -84 0 -140 -3 -173l1 -2c21 26 59 64 118 123z" />
    <glyph glyph-name="partialdiff" unicode="&#x2202;" horiz-adv-x="572" 
d="M321 673c-46 0 -93 -19 -135 -51l-11 59c40 32 95 51 151 51c123 0 210 -94 210 -314c0 -268 -130 -430 -287 -430c-104 0 -201 71 -201 223c0 170 121 271 255 271c63 0 118 -22 165 -62c-1 181 -59 253 -147 253zM253 45c111 0 196 114 212 304c-48 50 -99 75 -157 75
c-103 0 -191 -78 -191 -214c0 -115 63 -165 136 -165z" />
    <glyph glyph-name="emptyset" unicode="&#x2205;" horiz-adv-x="676" 
d="M170 -73l-47 29l49 83c-69 49 -113 129 -113 226c0 160 120 277 278 277c43 0 82 -9 117 -24l50 85l47 -29l-49 -83c69 -49 113 -129 113 -226c0 -160 -120 -277 -278 -277c-43 0 -82 9 -117 24zM115 265c0 -75 33 -138 85 -178l226 383c-27 11 -58 16 -88 16
c-128 0 -223 -93 -223 -221zM559 265c0 75 -33 138 -85 178l-226 -383c27 -11 58 -16 88 -16c128 0 223 93 223 221z" />
    <glyph glyph-name="Delta" unicode="&#x2206;" horiz-adv-x="673" 
d="M462 720l122 -665l-10 -55h-565l9 55l361 665h83zM409 647l-309 -583h411z" />
    <glyph glyph-name="product" unicode="&#x220f;" horiz-adv-x="712" 
d="M26 -140l152 860h519l-152 -860h-71l141 795h-377l-141 -795h-71z" />
    <glyph glyph-name="summation" unicode="&#x2211;" horiz-adv-x="568" 
d="M-20 -140l9 54l360 392l-205 359l9 55h462l-11 -65h-381l206 -357l-345 -374h392l-11 -64h-485z" />
    <glyph glyph-name="minus" unicode="&#x2212;" horiz-adv-x="572" 
d="M535 285l-10 -60h-488l10 60h488z" />
    <glyph glyph-name="uni2215" unicode="&#x2215;" horiz-adv-x="572" 
d="M-63 0l571 720h64l-572 -720h-63z" />
    <glyph glyph-name="uni2219" unicode="&#x2219;" horiz-adv-x="572" 
d="M419 350c0 -69 -50 -119 -118 -119s-118 50 -118 119s50 119 118 119s118 -50 118 -119z" />
    <glyph glyph-name="radical" unicode="&#x221a;" horiz-adv-x="572" 
d="M156 -80l-109 510h68l88 -429l404 719h74l-454 -800h-71z" />
    <glyph glyph-name="infinity" unicode="&#x221e;" horiz-adv-x="800" 
d="M173 119c63 0 127 65 192 137c-46 71 -93 135 -158 135c-66 0 -121 -66 -121 -158c0 -75 37 -114 87 -114zM396 209c-73 -79 -146 -148 -227 -148c-72 0 -134 54 -134 167c0 130 81 221 175 221c84 0 142 -71 194 -148c73 79 146 148 227 148c72 0 134 -54 134 -167
c0 -130 -81 -221 -176 -221c-85 0 -143 74 -193 148zM627 391c-63 0 -127 -65 -192 -137c46 -71 93 -135 158 -135c66 0 121 66 121 158c0 75 -37 114 -87 114z" />
    <glyph glyph-name="integral" unicode="&#x222b;" horiz-adv-x="347" 
d="M-49 -210l10 58h31c59 0 80 27 88 74l121 681c12 70 54 117 164 117h31l-10 -58h-31c-59 0 -80 -27 -88 -74l-121 -681c-12 -70 -54 -117 -164 -117h-31z" />
    <glyph glyph-name="congruent" unicode="&#x2245;" horiz-adv-x="572" 
d="M530 253l-10 -56h-488l10 56h488zM494 49l-10 -56h-488l10 56h488zM194 425c-41 0 -79 -17 -113 -46l-20 53c29 25 78 50 135 50c80 0 173 -50 243 -50c41 0 79 17 113 46l20 -53c-29 -25 -78 -50 -135 -50c-80 0 -173 50 -243 50z" />
    <glyph glyph-name="approxequal" unicode="&#x2248;" horiz-adv-x="572" 
d="M179 345c-41 0 -79 -17 -113 -46l-20 53c29 25 78 50 135 50c80 0 173 -50 243 -50c41 0 79 17 113 46l20 -53c-29 -25 -78 -50 -135 -50c-80 0 -173 50 -243 50zM146 157c-41 0 -79 -17 -113 -46l-20 53c29 25 78 50 135 50c80 0 173 -50 243 -50c41 0 79 17 113 46
l20 -53c-29 -25 -78 -50 -135 -50c-80 0 -173 50 -243 50z" />
    <glyph glyph-name="notequal" unicode="&#x2260;" horiz-adv-x="572" 
d="M517 181l-10 -56h-285l-108 -142l-44 35l81 107h-132l10 56h165l113 148h-252l10 56h285l108 142l44 -35l-81 -107h132l-10 -56h-165l-113 -148h252z" />
    <glyph glyph-name="lessequal" unicode="&#x2264;" horiz-adv-x="572" 
d="M45 276l10 57l519 177l-11 -62l-440 -146l388 -147l-10 -55zM493 49l-10 -56h-488l10 56h488z" />
    <glyph glyph-name="greaterequal" unicode="&#x2265;" horiz-adv-x="572" 
d="M-5 -7l10 56h488l-10 -56h-488zM543 334l-10 -57l-519 -177l11 62l440 146l-388 147l10 55z" />
    <glyph glyph-name="circleplus" unicode="&#x2295;" 
d="M184 360c0 -187 144 -327 327 -327s327 140 327 327s-144 327 -327 327s-327 -140 -327 -327zM883 360c0 -213 -163 -372 -372 -372s-372 159 -372 372s163 372 372 372s372 -159 372 -372zM540 113h-58v218h-209v58h209v218h58v-218h209v-58h-209v-218z" />
    <glyph glyph-name="uni2296" unicode="&#x2296;" 
d="M184 360c0 -187 144 -327 327 -327s327 140 327 327s-144 327 -327 327s-327 -140 -327 -327zM883 360c0 -213 -163 -372 -372 -372s-372 159 -372 372s163 372 372 372s372 -159 372 -372zM749 331h-476v58h476v-58z" />
    <glyph glyph-name="circlemultiply" unicode="&#x2297;" 
d="M184 360c0 -187 144 -327 327 -327s327 140 327 327s-144 327 -327 327s-327 -140 -327 -327zM883 360c0 -213 -163 -372 -372 -372s-372 159 -372 372s163 372 372 372s372 -159 372 -372zM305 526l39 41l167 -167l167 167l39 -41l-166 -166l166 -166l-39 -41l-167 167
l-167 -167l-39 41l166 166z" />
    <glyph glyph-name="uni2298" unicode="&#x2298;" 
d="M184 360c0 -187 144 -327 327 -327s327 140 327 327s-144 327 -327 327s-327 -140 -327 -327zM883 360c0 -213 -163 -372 -372 -372s-372 159 -372 372s163 372 372 372s372 -159 372 -372zM305 194l373 373l39 -41l-373 -373z" />
    <glyph glyph-name="uni229C" unicode="&#x229c;" 
d="M184 360c0 -187 144 -327 327 -327s327 140 327 327s-144 327 -327 327s-327 -140 -327 -327zM883 360c0 -213 -163 -372 -372 -372s-372 159 -372 372s163 372 372 372s372 -159 372 -372zM749 486v-54h-476v54h476zM749 288v-54h-476v54h476z" />
    <glyph glyph-name="dotmath" unicode="&#x22c5;" horiz-adv-x="572" 
d="M335 257c0 -28 -20 -50 -50 -50s-50 22 -50 50s20 50 50 50s50 -22 50 -50z" />
    <glyph glyph-name="uni2460" unicode="&#x2460;" 
d="M440 451l-11 47l108 52h42l-78 -440h-52l67 378zM973 330c0 -269 -205 -468 -468 -468s-468 199 -468 468s205 468 468 468s468 -199 468 -468zM928 330c0 243 -185 423 -423 423s-423 -180 -423 -423s185 -423 423 -423s423 180 423 423z" />
    <glyph glyph-name="uni2461" unicode="&#x2461;" 
d="M609 441c0 40 -22 70 -72 70c-49 0 -92 -28 -126 -67l-10 48c32 38 82 66 141 66c77 0 120 -46 120 -114c0 -79 -57 -149 -238 -286h198l-8 -48h-280l6 42c204 151 269 219 269 289zM973 330c0 -269 -205 -468 -468 -468s-468 199 -468 468s205 468 468 468
s468 -199 468 -468zM928 330c0 243 -185 423 -423 423s-423 -180 -423 -423s185 -423 423 -423s423 180 423 423z" />
    <glyph glyph-name="uni2462" unicode="&#x2462;" 
d="M544 558c69 0 124 -34 124 -103c0 -59 -41 -100 -110 -121c57 -16 81 -53 81 -100c0 -82 -72 -132 -170 -132c-54 0 -99 15 -132 36l24 43c31 -20 66 -32 110 -32c68 0 116 32 116 87c0 51 -42 74 -111 74c-15 0 -25 -1 -42 -2l8 46c107 0 174 35 174 95
c0 41 -32 62 -78 62c-36 0 -74 -13 -110 -39l-6 47c35 25 78 39 122 39zM973 330c0 -269 -205 -468 -468 -468s-468 199 -468 468s205 468 468 468s468 -199 468 -468zM928 330c0 243 -185 423 -423 423s-423 -180 -423 -423s185 -423 423 -423s423 180 423 423z" />
    <glyph glyph-name="uni2463" unicode="&#x2463;" 
d="M293 202l8 45l248 303h70l-55 -302h67l-7 -46h-67l-16 -92h-51l16 92h-213zM356 248h158l44 247zM973 330c0 -269 -205 -468 -468 -468s-468 199 -468 468s205 468 468 468s468 -199 468 -468zM928 330c0 243 -185 423 -423 423s-423 -180 -423 -423s185 -423 423 -423
s423 180 423 423z" />
    <glyph glyph-name="uni2464" unicode="&#x2464;" 
d="M590 253c0 61 -39 87 -106 87c-23 0 -57 -3 -99 -16l47 226h242l-8 -47h-193l-27 -123c20 4 37 5 50 5c86 0 146 -44 146 -131c0 -95 -75 -152 -175 -152c-54 0 -101 17 -132 35l25 44c29 -19 61 -33 107 -33c75 0 123 38 123 105zM973 330c0 -269 -205 -468 -468 -468
s-468 199 -468 468s205 468 468 468s468 -199 468 -468zM928 330c0 243 -185 423 -423 423s-423 -180 -423 -423s185 -423 423 -423s423 180 423 423z" />
    <glyph glyph-name="uni2465" unicode="&#x2465;" 
d="M556 558c42 0 83 -13 110 -31l-25 -43c-28 19 -56 27 -86 27c-88 0 -142 -67 -155 -166c36 37 77 52 117 52c73 0 126 -50 126 -134c0 -98 -71 -161 -152 -161c-85 0 -145 68 -145 195c0 149 83 261 210 261zM506 352c-36 0 -69 -18 -109 -54c0 -105 41 -150 96 -150
c57 0 98 45 98 110c0 58 -33 94 -85 94zM973 330c0 -269 -205 -468 -468 -468s-468 199 -468 468s205 468 468 468s468 -199 468 -468zM928 330c0 243 -185 423 -423 423s-423 -180 -423 -423s185 -423 423 -423s423 180 423 423z" />
    <glyph glyph-name="uni2466" unicode="&#x2466;" 
d="M409 502l8 48h279l-8 -45c-77 -113 -152 -237 -241 -395h-60c87 156 162 280 238 392h-216zM973 330c0 -269 -205 -468 -468 -468s-468 199 -468 468s205 468 468 468s468 -199 468 -468zM928 330c0 243 -185 423 -423 423s-423 -180 -423 -423s185 -423 423 -423
s423 180 423 423z" />
    <glyph glyph-name="uni2467" unicode="&#x2467;" 
d="M485 102c-89 0 -149 43 -149 114c0 73 64 104 131 127c-41 23 -71 50 -71 98c0 70 64 117 146 117c77 0 128 -42 128 -104c0 -60 -48 -90 -107 -112c47 -24 88 -52 88 -112c0 -80 -72 -128 -166 -128zM447 446c0 -40 34 -60 74 -81c54 20 98 41 98 88c0 38 -31 62 -81 62
c-53 0 -91 -28 -91 -69zM487 146c64 0 112 29 112 80c0 49 -44 72 -91 94c-62 -23 -120 -46 -120 -102c0 -47 39 -72 99 -72zM973 330c0 -269 -205 -468 -468 -468s-468 199 -468 468s205 468 468 468s468 -199 468 -468zM928 330c0 243 -185 423 -423 423
s-423 -180 -423 -423s185 -423 423 -423s423 180 423 423z" />
    </font>
</defs>
</svg>
