<?xml version="1.0" standalone="no"?>
<!DOCTYPE svg PUBLIC "-//W3C//DTD SVG 1.1//EN" "http://www.w3.org/Graphics/SVG/1.1/DTD/svg11.dtd" >
<svg xmlns="http://www.w3.org/2000/svg" xmlns:xlink="http://www.w3.org/1999/xlink" version="1.1">
<metadata>
Created by FontForge 20160405 at Thu Mar 29 10:47:50 2018
 By www-data
2011 published by FontShop International GmbH
</metadata>
<defs>
<font id="SeroPro-BoldItalic" horiz-adv-x="1000" >
  <font-face 
    font-family="SeroPro-BoldItalic"
    font-weight="700"
    font-style="italic"
    font-stretch="normal"
    units-per-em="1000"
    panose-1="2 11 8 4 2 1 1 2 1 2"
    ascent="778"
    descent="-222"
    x-height="510"
    cap-height="720"
    bbox="-996 -278 2776 965"
    underline-thickness="109"
    underline-position="-101"
    slope="-10"
    stemh="116"
    stemv="161"
    unicode-range="U+000D-1F4AC"
  />
<missing-glyph horiz-adv-x="500" 
d="M-45 0l127 720h500l-127 -720h-500zM179 602l-85 -484h264l85 484h-264z" />
    <glyph glyph-name="f_b" unicode="fb" horiz-adv-x="909" 
d="M40 392l21 118h73l12 69c15 87 61 147 190 147c23 0 50 -2 75 -6l-20 -114c-12 3 -22 4 -31 4c-39 0 -51 -19 -58 -60l-7 -40h80l-21 -118h-80l-69 -392h-161l69 392h-73zM465 720h161l-47 -263c36 40 81 65 137 65c96 0 167 -74 167 -217c0 -174 -105 -317 -251 -317
c-49 0 -91 16 -131 65l-9 -53h-154zM649 390c-29 0 -58 -13 -89 -43l-36 -204c26 -23 50 -32 76 -32c76 0 122 77 122 172c0 81 -33 107 -73 107z" />
    <glyph glyph-name="f_f" unicode="ff" horiz-adv-x="652" 
d="M274 392l-69 -392h-161l69 392h-73l21 118h73l12 69c15 87 61 147 190 147c24 0 53 -2 79 -6l-20 -114c-14 3 -25 4 -34 4c-43 0 -52 -22 -59 -60l-7 -40h145l12 69c15 87 61 147 190 147c24 0 53 -2 79 -6l-20 -114c-14 3 -25 4 -34 4c-43 0 -52 -22 -59 -60l-7 -40h84
l-21 -118h-84l-69 -392h-161l69 392h-145z" />
    <glyph glyph-name="f_f_i" unicode="ffi" horiz-adv-x="924" 
d="M274 392l-69 -392h-161l69 392h-73l21 118h73l12 69c15 87 61 147 190 147c24 0 53 -2 79 -6l-20 -114c-14 3 -25 4 -34 4c-43 0 -52 -22 -59 -60l-7 -40h145l12 69c15 87 61 147 190 147c23 0 50 -2 75 -6l-20 -114c-12 3 -22 4 -31 4c-39 0 -51 -19 -58 -60l-7 -40h80
l-21 -118h-80l-69 -392h-161l69 392h-145zM650 0l90 510h161l-90 -510h-161zM934 652c0 -49 -35 -84 -90 -84s-91 35 -91 84s36 84 91 84s90 -35 90 -84z" />
    <glyph glyph-name="f_f_l" unicode="ffl" horiz-adv-x="924" 
d="M274 392l-69 -392h-161l69 392h-73l21 118h73l12 69c15 87 61 147 190 147c24 0 53 -2 79 -6l-20 -114c-14 3 -25 4 -34 4c-43 0 -52 -22 -59 -60l-7 -40h145l12 69c15 87 61 147 190 147c23 0 50 -2 75 -6l-20 -114c-12 3 -22 4 -31 4c-39 0 -51 -19 -58 -60l-7 -40h80
l-21 -118h-80l-69 -392h-161l69 392h-145zM650 0l127 720h161l-127 -720h-161z" />
    <glyph glyph-name="f_h" unicode="fh" horiz-adv-x="900" 
d="M40 392l21 118h73l12 69c15 87 61 147 190 147c23 0 50 -2 75 -6l-20 -114c-12 3 -22 4 -31 4c-39 0 -51 -19 -58 -60l-7 -40h80l-21 -118h-80l-69 -392h-161l69 392h-73zM338 0l127 720h161l-49 -278c47 50 103 80 168 80c61 0 125 -27 125 -126c0 -13 -1 -33 -4 -50
l-61 -346h-161l58 329c1 7 1 11 1 13c0 35 -17 45 -41 45c-37 0 -70 -23 -105 -57l-58 -330h-161z" />
    <glyph glyph-name="f_i" unicode="fi" horiz-adv-x="618" 
d="M40 392l21 118h73l12 69c15 87 61 147 190 147c23 0 50 -2 75 -6l-20 -114c-12 3 -22 4 -31 4c-39 0 -51 -19 -58 -60l-7 -40h80l-21 -118h-80l-69 -392h-161l69 392h-73zM344 0l90 510h161l-90 -510h-161zM628 652c0 -49 -35 -84 -90 -84s-91 35 -91 84s36 84 91 84
s90 -35 90 -84z" />
    <glyph glyph-name="f_j" unicode="fj" horiz-adv-x="618" 
d="M40 392l21 118h73l12 69c15 87 61 147 190 147c23 0 50 -2 75 -6l-20 -114c-12 3 -22 4 -31 4c-39 0 -51 -19 -58 -60l-7 -40h80l-21 -118h-80l-69 -392h-161l69 392h-73zM595 510l-102 -579c-15 -87 -61 -147 -190 -147c-24 0 -53 2 -79 6l20 114c14 -3 25 -4 34 -4
c43 0 52 22 59 60l97 550h161zM628 652c0 -49 -35 -84 -90 -84s-91 35 -91 84s36 84 91 84s90 -35 90 -84z" />
    <glyph glyph-name="f_k" unicode="fk" horiz-adv-x="883" 
d="M40 392l21 118h73l12 69c15 87 61 147 190 147c23 0 50 -2 75 -6l-20 -114c-12 3 -22 4 -31 4c-39 0 -51 -19 -58 -60l-7 -40h80l-21 -118h-80l-69 -392h-161l69 392h-73zM338 0l127 720h161l-70 -396l166 186h179l-206 -198l127 -312h-156l-80 209l-61 -59l-26 -150
h-161z" />
    <glyph glyph-name="f_l" unicode="fl" horiz-adv-x="618" 
d="M344 0l127 720h161l-127 -720h-161zM40 392l21 118h73l12 69c15 87 61 147 190 147c23 0 50 -2 75 -6l-20 -114c-12 3 -22 4 -31 4c-39 0 -51 -19 -58 -60l-7 -40h80l-21 -118h-80l-69 -392h-161l69 392h-73z" />
    <glyph glyph-name="f_t" unicode="ft" horiz-adv-x="679" 
d="M274 392l-69 -392h-161l69 392h-73l21 118h73l12 69c15 87 61 147 190 147c23 0 50 -2 75 -6l-20 -114c-12 3 -22 4 -31 4c-39 0 -51 -19 -58 -60l-7 -40h145l30 170h161l-30 -170h95l-21 -118h-95l-39 -223c-1 -6 -2 -11 -2 -18c0 -24 10 -36 40 -36c18 0 35 4 49 8
l-22 -118c-25 -6 -55 -11 -92 -11c-75 0 -140 21 -140 118c0 21 3 43 7 65l38 215h-145z" />
    <glyph glyph-name=".notdef" horiz-adv-x="500" 
d="M-45 0l127 720h500l-127 -720h-500zM179 602l-85 -484h264l85 484h-264z" />
    <glyph glyph-name=".null" horiz-adv-x="0" 
 />
    <glyph glyph-name="CR" unicode="&#xd;" horiz-adv-x="220" 
 />
    <glyph glyph-name="space" unicode=" " horiz-adv-x="220" 
 />
    <glyph glyph-name="exclam" unicode="!" horiz-adv-x="337" 
d="M100 224l58 496h185l-116 -496h-127zM230 74c0 -49 -38 -86 -92 -86s-92 37 -92 86s38 86 92 86s92 -37 92 -86z" />
    <glyph glyph-name="quotedbl" unicode="&#x22;" horiz-adv-x="450" 
d="M297 432l42 288h128l-60 -288h-110zM103 432l42 288h128l-60 -288h-110z" />
    <glyph glyph-name="numbersign" unicode="#" horiz-adv-x="572" 
d="M217 0l73 186h-97l-73 -186h-130l73 186h-71l19 110h94l35 88h-80l19 110h103l73 186h130l-73 -186h97l73 186h130l-73 -186h71l-19 -110h-94l-35 -88h80l-19 -110h-103l-73 -186h-130zM270 384l-35 -88h97l35 88h-97z" />
    <glyph glyph-name="dollar" unicode="$" horiz-adv-x="564" 
d="M173 -100l18 102c-69 6 -138 26 -194 56l60 123c55 -29 118 -52 181 -52c77 0 130 34 130 83c0 114 -281 79 -281 285c0 120 94 205 229 220l15 83h98l-15 -83c61 -8 118 -28 165 -54l-61 -127c-47 28 -104 50 -158 50c-66 0 -111 -33 -111 -74c0 -101 281 -69 281 -279
c0 -123 -96 -212 -241 -230l-18 -103h-98z" />
    <glyph glyph-name="percent" unicode="%" horiz-adv-x="823" 
d="M75 0l566 720h144l-566 -720h-144zM246 471c42 0 61 55 61 102c0 40 -14 66 -43 66c-42 0 -61 -55 -61 -102c0 -40 14 -66 43 -66zM243 386c-98 0 -157 68 -157 156c0 93 68 184 181 184c98 0 157 -68 157 -156c0 -93 -68 -184 -181 -184zM596 79c42 0 61 55 61 102
c0 40 -14 66 -43 66c-42 0 -61 -55 -61 -102c0 -40 14 -66 43 -66zM593 -6c-98 0 -157 68 -157 156c0 93 68 184 181 184c98 0 157 -68 157 -156c0 -93 -68 -184 -181 -184z" />
    <glyph glyph-name="ampersand" unicode="&#x26;" horiz-adv-x="623" 
d="M135 505c0 107 91 187 234 187c133 0 206 -69 206 -157c0 -103 -100 -151 -201 -193l69 -107c24 29 50 63 77 101l91 -75c-33 -44 -66 -85 -101 -121l68 -99l-118 -82l-60 89c-60 -39 -124 -60 -194 -60c-122 0 -209 65 -209 176c0 113 90 170 189 211
c-32 48 -51 81 -51 130zM238 102c33 0 68 12 102 36l-94 148c-51 -27 -89 -59 -89 -109c0 -43 27 -75 81 -75zM439 519c0 31 -25 60 -72 60c-49 0 -85 -32 -85 -75c0 -29 17 -51 37 -82c66 27 120 52 120 97z" />
    <glyph glyph-name="quotesingle" unicode="'" horiz-adv-x="255" 
d="M103 432l42 288h128l-60 -288h-110z" />
    <glyph glyph-name="parenleft" unicode="(" horiz-adv-x="374" 
d="M187 200c0 -150 48 -263 101 -333l-94 -60c-72 71 -168 194 -168 394c0 280 188 431 332 536l67 -88c-129 -103 -238 -223 -238 -449z" />
    <glyph glyph-name="parenright" unicode=")" horiz-adv-x="374" 
d="M195 351c0 150 -48 263 -101 333l94 60c72 -71 168 -194 168 -394c0 -280 -188 -431 -332 -536l-67 88c129 103 238 223 238 449z" />
    <glyph glyph-name="asterisk" unicode="*" horiz-adv-x="435" 
d="M450 491l-127 7l69 -105l-74 -44l-58 115l-58 -115l-74 44l69 105l-127 -7v87l127 -7l-69 105l74 44l58 -115l58 115l74 -44l-69 -105l127 7v-87z" />
    <glyph glyph-name="plus" unicode="+" horiz-adv-x="572" 
d="M305 0h-128l34 193h-180l22 124h180l34 193h128l-34 -193h180l-22 -124h-180z" />
    <glyph glyph-name="comma" unicode="," horiz-adv-x="301" 
d="M110 172c61 0 108 -44 108 -124c0 -74 -41 -154 -202 -228l-55 75c80 35 119 70 136 105c-47 5 -79 39 -79 85c0 49 36 87 92 87z" />
    <glyph glyph-name="hyphen" unicode="-" horiz-adv-x="406" 
d="M48 258l19 107h311l-19 -107h-311z" />
    <glyph glyph-name="period" unicode="." horiz-adv-x="301" 
d="M118 -12c-56 0 -96 40 -96 92s40 92 96 92s96 -40 96 -92s-40 -92 -96 -92z" />
    <glyph glyph-name="slash" unicode="/" horiz-adv-x="650" 
d="M-28 -40l561 760h175l-561 -760h-175z" />
    <glyph glyph-name="zero" unicode="0" horiz-adv-x="645" 
d="M311 118c98 0 160 141 160 298c0 120 -36 182 -101 182c-98 0 -160 -141 -160 -298c0 -120 36 -182 101 -182zM302 -12c-150 0 -254 113 -254 315c0 224 129 429 331 429c150 0 254 -113 254 -315c0 -224 -129 -429 -331 -429z" />
    <glyph glyph-name="one" unicode="1" horiz-adv-x="403" 
d="M112 500l-23 130l189 90h123l-127 -720h-158l96 545z" />
    <glyph glyph-name="two" unicode="2" horiz-adv-x="569" 
d="M398 513c0 48 -29 81 -90 81c-69 0 -135 -41 -187 -95l-23 139c51 53 137 95 237 95c139 0 224 -81 224 -205c0 -135 -99 -249 -303 -399h250l-23 -129h-497l21 116c300 205 391 313 391 397z" />
    <glyph glyph-name="three" unicode="3" horiz-adv-x="557" 
d="M331 733c134 0 229 -60 229 -175c0 -90 -59 -157 -171 -192c86 -27 127 -81 127 -160c0 -135 -117 -218 -301 -218c-94 0 -176 22 -241 56l60 125c58 -29 113 -52 180 -52c89 0 133 41 133 98c0 55 -41 85 -148 85c-20 0 -43 -1 -73 -3l22 122c189 0 251 43 251 108
c0 48 -35 72 -93 72c-54 0 -113 -21 -181 -58l-14 135c64 35 139 57 220 57z" />
    <glyph glyph-name="four" unicode="4" horiz-adv-x="632" 
d="M1 139l22 122l376 459h198l-79 -451h102l-23 -130h-102l-25 -139h-157l25 139h-337zM190 269h171l47 272z" />
    <glyph glyph-name="five" unicode="5" horiz-adv-x="549" 
d="M365 238c0 70 -49 100 -144 100c-39 0 -97 -5 -167 -24l85 406h437l-24 -134h-285l-27 -127c15 1 28 2 44 2c146 0 242 -82 242 -221c0 -156 -120 -252 -310 -252c-91 0 -173 22 -239 56l60 126c50 -26 107 -51 178 -51c97 0 150 47 150 119z" />
    <glyph glyph-name="six" unicode="6" horiz-adv-x="603" 
d="M409 732c76 0 150 -20 205 -52l-61 -127c-47 25 -89 45 -146 45c-110 0 -168 -77 -190 -180c52 50 105 64 154 64c124 0 206 -89 206 -225c0 -166 -122 -269 -266 -269c-152 0 -263 116 -263 326c0 221 122 418 361 418zM328 355c-39 0 -75 -18 -122 -59
c2 -131 48 -182 109 -182c63 0 108 53 108 132c0 71 -37 109 -95 109z" />
    <glyph glyph-name="seven" unicode="7" horiz-adv-x="501" 
d="M211 0h-190c115 220 221 408 333 581h-285l25 139h479l-23 -130c-114 -175 -222 -366 -339 -590z" />
    <glyph glyph-name="eight" unicode="8" horiz-adv-x="594" 
d="M565 204c0 -127 -117 -216 -293 -216c-164 0 -264 78 -264 196c0 111 88 158 187 194c-55 33 -96 81 -96 153c0 116 105 201 260 201c145 0 234 -74 234 -182c0 -92 -64 -143 -151 -178c68 -35 123 -82 123 -168zM255 534c0 -46 35 -74 80 -100c58 25 102 54 102 107
c0 47 -33 74 -84 74c-54 0 -98 -31 -98 -81zM403 198c0 57 -47 88 -101 118c-72 -28 -132 -59 -132 -126c0 -57 44 -89 109 -89c68 0 124 35 124 97z" />
    <glyph glyph-name="nine" unicode="9" horiz-adv-x="603" 
d="M231 -12c-76 0 -150 20 -205 52l61 122c47 -25 89 -45 146 -45c112 0 170 80 191 186c-52 -51 -106 -65 -155 -65c-124 0 -206 89 -206 225c0 166 122 269 266 269c152 0 263 -116 263 -326c0 -221 -122 -418 -361 -418zM311 360c39 0 75 18 123 58
c-3 132 -48 183 -109 183c-63 0 -108 -53 -108 -132c0 -71 37 -109 94 -109z" />
    <glyph glyph-name="colon" unicode=":" horiz-adv-x="301" 
d="M118 -12c-56 0 -96 40 -96 92s40 92 96 92s96 -40 96 -92s-40 -92 -96 -92zM174 316c-56 0 -96 40 -96 92s40 92 96 92s96 -40 96 -92s-40 -92 -96 -92z" />
    <glyph glyph-name="semicolon" unicode=";" horiz-adv-x="301" 
d="M110 172c61 0 108 -44 108 -124c0 -74 -41 -154 -202 -228l-55 75c80 35 119 70 136 105c-47 5 -79 39 -79 85c0 49 36 87 92 87zM174 316c-56 0 -96 40 -96 92s40 92 96 92s96 -40 96 -92s-40 -92 -96 -92z" />
    <glyph glyph-name="less" unicode="&#x3c;" horiz-adv-x="572" 
d="M32 200l20 110l523 200l-22 -126l-376 -134l328 -136l-20 -114z" />
    <glyph glyph-name="equal" unicode="=" horiz-adv-x="572" 
d="M558 412l-20 -111h-488l20 111h488zM522 208l-20 -111h-488l20 111h488z" />
    <glyph glyph-name="greater" unicode="&#x3e;" horiz-adv-x="572" 
d="M540 310l-20 -110l-523 -200l22 126l376 134l-328 136l20 114z" />
    <glyph glyph-name="question" unicode="?" horiz-adv-x="434" 
d="M215 224h-124c-4 16 -5 28 -5 37c0 135 203 173 203 275c0 48 -44 71 -106 71c-18 0 -45 -2 -85 -9l22 122c35 7 68 12 107 12c134 0 223 -60 223 -173c0 -183 -235 -205 -235 -324v-11zM217 74c0 -49 -37 -86 -92 -86s-92 37 -92 86s37 86 92 86s92 -37 92 -86z" />
    <glyph glyph-name="at" unicode="@" horiz-adv-x="836" 
d="M600 168c48 0 79 64 79 146c0 147 -99 243 -246 243c-170 0 -287 -129 -287 -299c0 -174 123 -261 270 -261c63 0 123 16 183 39l28 -91c-60 -23 -135 -40 -212 -40c-206 0 -370 123 -370 353c0 226 159 391 389 391c206 0 347 -133 347 -335c0 -158 -87 -233 -191 -233
c-64 0 -105 29 -118 74c-34 -41 -70 -74 -128 -74c-68 0 -122 46 -122 154c0 124 71 238 222 238c60 0 109 -18 137 -30l-20 -189c-1 -9 -2 -16 -2 -26c0 -33 10 -60 41 -60zM368 173c34 0 63 31 87 67l15 137c-12 5 -26 8 -41 8c-82 0 -102 -92 -102 -146
c0 -52 18 -66 41 -66z" />
    <glyph glyph-name="A" unicode="A" horiz-adv-x="695" 
d="M529 720l104 -720h-163l-17 146h-243l-67 -146h-171l364 720h193zM403 564l-137 -297h172z" />
    <glyph glyph-name="B" unicode="B" horiz-adv-x="672" 
d="M32 0l127 720h242c148 0 245 -56 245 -180c0 -85 -45 -148 -135 -178c74 -28 107 -82 107 -153c0 -121 -96 -209 -292 -209h-294zM214 122h112c88 0 131 36 131 100c0 57 -34 82 -99 82h-112zM266 420h95c83 0 124 35 124 95c0 55 -33 78 -94 78h-94z" />
    <glyph glyph-name="C" unicode="C" horiz-adv-x="602" 
d="M521 175l16 -132c-55 -31 -126 -55 -206 -55c-167 0 -284 104 -284 310c0 226 141 434 393 434c81 0 150 -21 205 -55l-61 -130c-49 30 -95 49 -149 49c-151 0 -225 -144 -225 -290c0 -133 62 -187 147 -187c58 0 116 25 164 56z" />
    <glyph glyph-name="D" unicode="D" horiz-adv-x="719" 
d="M159 720h228c191 0 317 -115 317 -316c0 -211 -138 -404 -397 -404h-275zM218 131h89c157 0 234 130 234 269c0 129 -67 184 -154 184h-89z" />
    <glyph glyph-name="E" unicode="E" horiz-adv-x="590" 
d="M32 0l127 720h473l-24 -136h-310l-28 -156h269l-22 -128h-269l-30 -169h313l-23 -131h-476z" />
    <glyph glyph-name="F" unicode="F" horiz-adv-x="548" 
d="M32 0l127 720h451l-24 -136h-288l-29 -166h251l-22 -128h-252l-51 -290h-163z" />
    <glyph glyph-name="G" unicode="G" horiz-adv-x="689" 
d="M372 114c25 0 48 3 71 8l27 148h-117l21 121h271l-61 -349c-67 -33 -147 -54 -232 -54c-192 0 -305 106 -305 314c0 234 142 430 409 430c97 0 174 -26 237 -67l-62 -131c-51 35 -106 62 -180 62c-164 0 -241 -130 -241 -289c0 -141 60 -193 162 -193z" />
    <glyph glyph-name="H" unicode="H" horiz-adv-x="724" 
d="M32 0l127 720h163l-50 -284h243l50 284h163l-127 -720h-163l53 300h-243l-53 -300h-163z" />
    <glyph glyph-name="I" unicode="I" horiz-adv-x="329" 
d="M38 0l127 720h163l-127 -720h-163z" />
    <glyph glyph-name="J" unicode="J" horiz-adv-x="412" 
d="M-26 1l23 132c21 -4 51 -8 76 -8c72 0 95 32 108 107l86 488h163l-91 -516c-24 -136 -73 -210 -264 -210c-39 0 -75 3 -101 7z" />
    <glyph glyph-name="K" unicode="K" horiz-adv-x="682" 
d="M32 0l127 720h163l-52 -295l264 295h198l-280 -283l171 -437h-166l-121 319l-103 -104l-38 -215h-163z" />
    <glyph glyph-name="L" unicode="L" horiz-adv-x="540" 
d="M32 0l127 720h163l-103 -584h281l-24 -136h-444z" />
    <glyph glyph-name="M" unicode="M" horiz-adv-x="963" 
d="M506 0h-146l-45 373c-7 56 -11 99 -14 152h-2c-13 -61 -24 -113 -35 -160l-83 -365h-158l188 720h209l37 -378c8 -80 10 -103 11 -151h2c19 52 49 120 68 160l177 369h205l-70 -720h-163l46 363c6 46 12 91 25 162h-2c-7 -27 -49 -119 -66 -154z" />
    <glyph glyph-name="N" unicode="N" horiz-adv-x="731" 
d="M32 0l127 720h171l178 -434l77 434h150l-127 -720h-136l-203 495l-87 -495h-150z" />
    <glyph glyph-name="O" unicode="O" horiz-adv-x="723" 
d="M353 120c118 0 195 125 195 279c0 131 -56 197 -142 197c-118 0 -195 -125 -195 -279c0 -131 56 -197 142 -197zM346 -12c-172 0 -298 117 -298 329c0 230 149 415 365 415c172 0 298 -117 298 -329c0 -230 -149 -415 -365 -415z" />
    <glyph glyph-name="P" unicode="P" horiz-adv-x="646" 
d="M32 0l127 720h246c157 0 257 -70 257 -217c0 -153 -109 -247 -304 -247h-120l-45 -256h-161zM296 587l-35 -203h97c96 0 143 41 143 112c0 63 -38 91 -108 91h-97z" />
    <glyph glyph-name="Q" unicode="Q" horiz-adv-x="729" 
d="M414 -192c-107 0 -162 41 -162 151c0 15 1 30 3 45c-124 34 -207 140 -207 313c0 230 149 415 365 415c172 0 298 -117 298 -329c0 -216 -131 -389 -326 -409c0 -46 24 -59 76 -59c35 0 66 6 97 14l-23 -128c-39 -8 -84 -13 -121 -13zM353 120c118 0 195 125 195 279
c0 131 -56 197 -142 197c-118 0 -195 -125 -195 -279c0 -131 56 -197 142 -197z" />
    <glyph glyph-name="R" unicode="R" horiz-adv-x="704" 
d="M444 0l-109 286h-93l-50 -286h-160l127 720h272c153 0 244 -66 244 -202c0 -114 -64 -192 -181 -221l118 -297h-168zM263 402h118c90 0 134 36 134 103c0 58 -33 82 -102 82h-118z" />
    <glyph glyph-name="S" unicode="S" horiz-adv-x="584" 
d="M1 49l61 124c61 -31 123 -55 187 -55c83 0 131 39 131 88c0 119 -282 80 -282 294c0 140 120 232 282 232c83 0 157 -24 219 -59l-62 -132c-49 31 -106 55 -163 55c-69 0 -113 -35 -113 -79c0 -112 282 -71 282 -290c0 -144 -121 -239 -298 -239c-84 0 -172 21 -244 61z
" />
    <glyph glyph-name="T" unicode="T" horiz-adv-x="583" 
d="M165 0l103 584h-191l24 136h545l-24 -136h-191l-103 -584h-163z" />
    <glyph glyph-name="U" unicode="U" horiz-adv-x="689" 
d="M69 289l76 431h164l-80 -454c-3 -18 -4 -34 -4 -46c0 -73 37 -96 98 -96c72 0 126 33 145 142l80 454h158l-85 -481c-30 -170 -129 -251 -311 -251c-153 0 -249 57 -249 214c0 23 2 55 8 87z" />
    <glyph glyph-name="V" unicode="V" horiz-adv-x="666" 
d="M201 0l-102 720h157l65 -515l245 515h165l-361 -720h-169z" />
    <glyph glyph-name="W" unicode="W" horiz-adv-x="960" 
d="M312 0h-159l-50 720h165l15 -319c3 -64 5 -128 1 -186h2c16 54 42 126 67 185l135 320h154l17 -324c4 -76 4 -126 1 -181h2c16 57 36 126 61 188l127 317h170l-307 -720h-159l-20 341c-4 66 -5 124 -4 183h-2c-24 -75 -56 -151 -71 -187z" />
    <glyph glyph-name="X" unicode="X" horiz-adv-x="688" 
d="M-12 0l275 371l-140 349h166l87 -239l170 239h182l-264 -348l146 -372h-167l-92 262l-181 -262h-182z" />
    <glyph glyph-name="Y" unicode="Y" horiz-adv-x="649" 
d="M198 0l51 290l-158 430h159l99 -281l198 281h175l-310 -430l-51 -290h-163z" />
    <glyph glyph-name="Z" unicode="Z" horiz-adv-x="615" 
d="M-16 0l20 111l404 473h-301l24 136h526l-20 -116l-404 -473h321l-23 -131h-547z" />
    <glyph glyph-name="bracketleft" unicode="[" horiz-adv-x="423" 
d="M341 -67l-20 -113h-331l159 900h331l-20 -113h-170l-119 -674h170z" />
    <glyph glyph-name="backslash" unicode="\" horiz-adv-x="650" 
d="M259 720l315 -760h-153l-315 760h153z" />
    <glyph glyph-name="bracketright" unicode="]" horiz-adv-x="423" 
d="M87 607l20 113h331l-159 -900h-331l20 113h170l119 674h-170z" />
    <glyph glyph-name="asciicircum" unicode="^" horiz-adv-x="572" 
d="M313 720h110l114 -488h-114l-73 352l-196 -352h-127z" />
    <glyph glyph-name="underscore" unicode="_" horiz-adv-x="492" 
d="M-77 -156l19 109h500l-19 -109h-500z" />
    <glyph glyph-name="grave" unicode="`" horiz-adv-x="500" 
d="M399 553h-122l-117 167h168z" />
    <glyph glyph-name="a" unicode="a" horiz-adv-x="579" 
d="M484 0h-155c-3 6 -8 16 -8 31c0 6 0 13 2 22c-35 -40 -80 -65 -137 -65c-93 0 -161 68 -161 210c0 178 106 324 249 324c51 0 88 -18 126 -66l10 54h154l-70 -396c-9 -49 -12 -76 -12 -94c0 -9 0 -16 2 -20zM255 111c25 0 54 10 85 42l37 205c-24 22 -45 32 -71 32
c-73 0 -120 -76 -120 -175c0 -79 30 -104 69 -104z" />
    <glyph glyph-name="b" unicode="b" horiz-adv-x="587" 
d="M143 720h161l-47 -263c36 40 81 65 137 65c96 0 167 -74 167 -217c0 -174 -105 -317 -251 -317c-49 0 -91 16 -131 65l-9 -53h-154zM327 390c-29 0 -58 -13 -89 -43l-36 -204c26 -23 50 -32 76 -32c76 0 122 77 122 172c0 81 -33 107 -73 107z" />
    <glyph glyph-name="c" unicode="c" horiz-adv-x="449" 
d="M465 486l-51 -117c-28 18 -54 30 -88 30c-89 0 -141 -82 -141 -179c0 -80 35 -114 88 -114c34 0 74 13 105 33l9 -117c-37 -20 -90 -34 -145 -34c-128 0 -217 73 -217 224c0 168 110 310 296 310c65 0 109 -17 144 -36z" />
    <glyph glyph-name="d" unicode="d" horiz-adv-x="587" 
d="M275 522c48 0 87 -16 126 -59l45 257h161l-107 -606c-9 -51 -12 -78 -12 -95c0 -9 1 -16 2 -19h-155c-3 6 -8 16 -8 31c0 6 1 13 2 22c-36 -41 -82 -65 -138 -65c-95 0 -166 69 -166 213c0 176 107 321 250 321zM260 111c25 0 53 9 86 42l36 203c-26 24 -49 34 -76 34
c-74 0 -120 -78 -120 -174c0 -82 34 -105 74 -105z" />
    <glyph glyph-name="e" unicode="e" horiz-adv-x="540" 
d="M326 522c128 0 195 -68 195 -154c0 -97 -84 -170 -285 -170c-18 0 -34 0 -49 1c6 -69 41 -97 107 -97c47 0 105 15 153 38l10 -114c-53 -23 -123 -38 -191 -38c-154 0 -241 76 -241 224c0 174 119 310 301 310zM315 412c-54 0 -103 -47 -121 -121h33c109 0 146 29 146 68
c0 28 -18 53 -58 53z" />
    <glyph glyph-name="f" unicode="f" horiz-adv-x="346" 
d="M40 392l21 118h73l12 69c15 87 61 147 190 147c24 0 53 -2 79 -6l-20 -114c-14 3 -25 4 -34 4c-43 0 -52 -22 -59 -60l-7 -40h84l-21 -118h-84l-69 -392h-161l69 392h-73z" />
    <glyph glyph-name="g" unicode="g" horiz-adv-x="587" 
d="M570 510l-88 -500c-27 -153 -142 -226 -290 -226c-70 0 -147 16 -206 45l51 116c54 -24 104 -37 148 -37c60 0 122 24 141 130l5 28c-38 -43 -83 -66 -138 -66c-96 0 -168 67 -168 208c0 171 105 314 251 314c51 0 91 -17 131 -65l9 53h154zM260 123c28 0 57 12 88 42
l34 191c-24 21 -46 34 -76 34c-73 0 -120 -74 -120 -166c0 -77 33 -101 74 -101z" />
    <glyph glyph-name="h" unicode="h" horiz-adv-x="578" 
d="M16 0l127 720h161l-49 -278c47 50 103 80 168 80c61 0 125 -27 125 -126c0 -13 -1 -33 -4 -50l-61 -346h-161l58 329c1 7 1 11 1 13c0 35 -17 45 -41 45c-37 0 -70 -23 -105 -57l-58 -330h-161z" />
    <glyph glyph-name="i" unicode="i" horiz-adv-x="296" 
d="M22 0l90 510h161l-90 -510h-161zM306 652c0 -49 -35 -84 -90 -84s-91 35 -91 84s36 84 91 84s90 -35 90 -84z" />
    <glyph glyph-name="j" unicode="j" horiz-adv-x="296" 
d="M273 510l-102 -579c-15 -87 -61 -147 -190 -147c-24 0 -53 2 -79 6l20 114c14 -3 25 -4 34 -4c43 0 52 22 59 60l97 550h161zM306 652c0 -49 -35 -84 -90 -84s-91 35 -91 84s36 84 91 84s90 -35 90 -84z" />
    <glyph glyph-name="k" unicode="k" horiz-adv-x="561" 
d="M16 0l127 720h161l-70 -396l166 186h179l-206 -198l127 -312h-156l-80 209l-61 -59l-26 -150h-161z" />
    <glyph glyph-name="l" unicode="l" horiz-adv-x="296" 
d="M22 0l127 720h161l-127 -720h-161z" />
    <glyph glyph-name="m" unicode="m" horiz-adv-x="864" 
d="M473 0h-161l58 329c1 7 2 14 2 21c0 29 -19 37 -39 37c-32 0 -61 -20 -98 -57l-58 -330h-161l90 510h161l-12 -68c48 52 103 80 164 80c57 0 107 -25 116 -93c42 50 107 93 179 93c56 0 120 -26 120 -129c0 -13 -1 -30 -4 -47l-61 -346h-161l58 329c1 7 2 14 2 21
c0 29 -19 37 -39 37c-32 0 -61 -20 -98 -57z" />
    <glyph glyph-name="n" unicode="n" horiz-adv-x="578" 
d="M16 0l90 510h161l-12 -68c47 50 103 80 168 80c61 0 125 -27 125 -126c0 -13 -1 -33 -4 -50l-61 -346h-161l58 329c1 7 1 11 1 13c0 35 -17 45 -41 45c-37 0 -70 -23 -105 -57l-58 -330h-161z" />
    <glyph glyph-name="o" unicode="o" horiz-adv-x="561" 
d="M260 101c70 0 115 85 115 187c0 80 -28 117 -74 117c-70 0 -115 -85 -115 -187c0 -80 28 -117 74 -117zM251 -12c-127 0 -226 75 -226 232c0 171 118 302 285 302c127 0 226 -75 226 -232c0 -171 -118 -302 -285 -302z" />
    <glyph glyph-name="p" unicode="p" horiz-adv-x="587" 
d="M106 510h161l-10 -53c36 40 81 65 137 65c97 0 167 -74 167 -217c0 -176 -106 -317 -250 -317c-48 0 -87 16 -126 59l-45 -257h-161zM327 390c-29 0 -58 -13 -89 -43l-36 -204c26 -23 50 -32 76 -32c76 0 122 77 122 172c0 81 -33 107 -73 107z" />
    <glyph glyph-name="q" unicode="q" horiz-adv-x="587" 
d="M443 -210h-161l47 263c-35 -40 -81 -65 -138 -65c-95 0 -166 70 -166 214c0 174 105 320 250 320c49 0 92 -16 132 -65l9 53h154zM260 111c25 0 53 9 86 42l36 203c-25 24 -49 34 -76 34c-74 0 -120 -78 -120 -174c0 -81 33 -105 74 -105z" />
    <glyph glyph-name="r" unicode="r" horiz-adv-x="399" 
d="M436 516l-24 -136c-10 1 -27 2 -38 2c-69 0 -121 -46 -142 -69l-55 -313h-161l90 510h161l-15 -87c31 57 81 99 146 99c14 0 28 -2 38 -6z" />
    <glyph glyph-name="s" unicode="s" horiz-adv-x="470" 
d="M462 479l-50 -115c-39 23 -85 39 -123 39c-37 0 -68 -16 -68 -42c0 -67 204 -32 204 -193c0 -111 -96 -180 -239 -180c-69 0 -140 16 -194 44l50 111c46 -23 99 -41 144 -41s84 18 84 49c0 70 -204 42 -204 197c0 105 92 174 223 174c64 0 125 -17 173 -43z" />
    <glyph glyph-name="t" unicode="t" horiz-adv-x="373" 
d="M40 392l21 118h73l30 170h161l-30 -170h95l-21 -118h-95l-39 -223c-1 -6 -2 -11 -2 -18c0 -24 10 -36 40 -36c18 0 35 4 49 8l-22 -118c-25 -6 -55 -11 -92 -11c-75 0 -140 21 -140 118c0 21 3 43 7 65l38 215h-73z" />
    <glyph glyph-name="u" unicode="u" horiz-adv-x="578" 
d="M561 510l-90 -510h-161l12 68c-47 -50 -103 -80 -168 -80c-61 0 -125 27 -125 126c0 13 1 33 4 50l61 346h161l-59 -334c-1 -7 -1 -11 -1 -13c0 -35 17 -45 41 -45c37 0 70 23 105 57l59 335h161z" />
    <glyph glyph-name="v" unicode="v" horiz-adv-x="509" 
d="M125 0l-82 510h156l39 -334l154 334h162l-267 -510h-162z" />
    <glyph glyph-name="w" unicode="w" horiz-adv-x="740" 
d="M403 0l-14 206c-3 44 -4 85 -2 123h-3c-12 -38 -27 -77 -45 -117l-95 -212h-152l-45 510h146l15 -207c3 -41 4 -77 2 -121h2c11 37 30 85 45 119l92 209h139l13 -206c3 -47 4 -69 2 -122h2c10 41 20 76 39 121l88 207h152l-229 -510h-152z" />
    <glyph glyph-name="x" unicode="x" horiz-adv-x="521" 
d="M-33 0l201 265l-100 245h156l50 -152l100 152h168l-186 -244l108 -266h-154l-60 173l-116 -173h-167z" />
    <glyph glyph-name="y" unicode="y" horiz-adv-x="509" 
d="M-52 -211l22 125c16 -3 35 -5 53 -5c55 0 86 18 129 103h-42l-66 498h159l32 -374l158 374h162l-252 -521c-79 -162 -131 -205 -269 -205c-30 0 -60 2 -86 5z" />
    <glyph glyph-name="z" unicode="z" horiz-adv-x="498" 
d="M-23 0l18 101l287 292h-221l21 117h427l-17 -98l-287 -292h237l-21 -120h-444z" />
    <glyph glyph-name="braceleft" unicode="{" horiz-adv-x="423" 
d="M22 214l20 112h24c60 0 80 21 90 79l26 149c19 109 76 166 265 166h28l-20 -113h-28c-59 0 -80 -22 -90 -80l-26 -149c-10 -56 -32 -101 -98 -113c41 -15 59 -49 59 -94c0 -18 -3 -29 -6 -46l-22 -126c-1 -7 -2 -14 -2 -21c0 -29 16 -45 65 -45h29l-19 -113h-29
c-133 0 -205 42 -205 153c0 13 1 30 5 50l22 125c1 7 2 14 2 21c0 29 -17 45 -65 45h-25z" />
    <glyph glyph-name="bar" unicode="|" horiz-adv-x="398" 
d="M42 -180l159 900h159l-159 -900h-159z" />
    <glyph glyph-name="braceright" unicode="}" horiz-adv-x="423" 
d="M406 326l-20 -112h-24c-60 0 -80 -21 -90 -79l-26 -149c-19 -109 -76 -166 -265 -166h-28l20 113h28c59 0 80 22 90 80l26 149c10 56 32 101 98 113c-41 15 -59 49 -59 94c0 18 3 29 6 46l22 126c1 7 2 14 2 21c0 29 -16 45 -65 45h-29l19 113h29c133 0 205 -42 205 -153
c0 -13 -1 -30 -5 -50l-22 -125c-1 -7 -2 -14 -2 -21c0 -29 17 -45 65 -45h25z" />
    <glyph glyph-name="asciitilde" unicode="~" horiz-adv-x="572" 
d="M167 213c-51 0 -90 -16 -120 -36l-19 121c27 18 85 39 145 39c84 0 152 -40 231 -40c51 0 90 16 120 36l19 -121c-27 -18 -85 -39 -145 -39c-84 0 -152 40 -231 40z" />
    <glyph glyph-name="uni00A0" unicode="&#xa0;" horiz-adv-x="220" 
 />
    <glyph glyph-name="exclamdown" unicode="&#xa1;" horiz-adv-x="337" 
d="M237 286l-58 -496h-185l116 496h127zM107 436c0 49 38 86 92 86s92 -37 92 -86s-38 -86 -92 -86s-92 37 -92 86z" />
    <glyph glyph-name="cent" unicode="&#xa2;" horiz-adv-x="474" 
d="M482 497l-51 -113c-10 5 -19 10 -29 14l-120 -284c35 0 75 11 112 33l10 -113c-40 -20 -93 -34 -150 -34h-20l-61 -143h-84l67 158c-80 29 -129 98 -129 209c0 170 114 310 304 310c16 0 30 -1 44 -3l53 126h84l-62 -145zM181 231c0 -45 11 -75 31 -93l117 277
c-95 -1 -148 -85 -148 -184z" />
    <glyph glyph-name="sterling" unicode="&#xa3;" horiz-adv-x="501" 
d="M315 311l-12 -43c-19 -68 -51 -116 -88 -146c34 -7 69 -14 101 -14c44 0 84 13 113 30l9 -121c-30 -16 -86 -29 -138 -29c-76 0 -139 27 -201 27c-45 0 -85 -14 -113 -30l-10 121c100 33 146 75 175 177l8 28h-123l17 97h133l45 159c30 105 73 165 235 165
c21 0 50 -1 68 -4l-21 -116c-14 3 -31 4 -43 4c-55 0 -75 -22 -90 -75l-38 -133h135l-17 -97h-145z" />
    <glyph glyph-name="currency" unicode="&#xa4;" horiz-adv-x="572" 
d="M196 256c0 -49 39 -88 87 -88s87 39 87 88s-39 88 -87 88s-87 -39 -87 -88zM457 256c0 -25 -5 -49 -14 -70l75 -76l-88 -88l-79 80c-21 -8 -43 -12 -68 -12s-47 4 -68 12l-79 -80l-88 88l75 76c-9 21 -14 45 -14 70s5 49 14 70l-75 76l88 88l79 -80c21 8 43 12 68 12
s47 -4 68 -12l79 80l88 -88l-75 -76c9 -21 14 -45 14 -70z" />
    <glyph glyph-name="yen" unicode="&#xa5;" horiz-adv-x="604" 
d="M71 267l17 97h123l-120 356h152l87 -285l183 285h164l-245 -356h122l-17 -97h-153l-10 -57h153l-17 -97h-153l-20 -113h-160l20 113h-153l17 97h153l10 57h-153z" />
    <glyph glyph-name="brokenbar" unicode="&#xa6;" horiz-adv-x="398" 
d="M132 330l69 390h159l-69 -390h-159zM42 -180l69 390h159l-69 -390h-159z" />
    <glyph glyph-name="section" unicode="&#xa7;" horiz-adv-x="584" 
d="M383 732c80 0 150 -22 208 -53l-57 -117c-47 28 -97 48 -157 48c-57 0 -113 -19 -146 -65c175 -18 306 -105 306 -293c0 -199 -146 -304 -330 -304c-83 0 -155 21 -216 53l56 111c52 -29 106 -47 167 -47c64 0 124 20 158 69c-173 18 -306 103 -306 295
c0 197 140 303 317 303zM403 239c0 129 -89 180 -203 197c0 -132 89 -180 203 -197z" />
    <glyph glyph-name="dieresis" unicode="&#xa8;" horiz-adv-x="500" 
d="M284 629c0 -42 -32 -74 -76 -74s-76 32 -76 74s32 74 76 74s76 -32 76 -74zM498 629c0 -42 -32 -74 -76 -74s-76 32 -76 74s32 74 76 74s76 -32 76 -74z" />
    <glyph glyph-name="copyright" unicode="&#xa9;" horiz-adv-x="838" 
d="M544 277l21 -79c-31 -19 -74 -31 -120 -31c-109 0 -182 65 -182 187c0 127 79 195 192 195c43 0 79 -10 108 -27l-22 -89c-23 16 -46 30 -78 30c-48 0 -86 -30 -86 -107c0 -75 37 -105 89 -105c30 0 53 10 78 26zM138 360c0 -173 129 -301 295 -301
c165 0 295 128 295 301s-130 301 -295 301c-166 0 -295 -128 -295 -301zM805 360c0 -213 -163 -372 -372 -372s-372 159 -372 372s163 372 372 372s372 -159 372 -372z" />
    <glyph glyph-name="ordfeminine" unicode="&#xaa;" horiz-adv-x="369" 
d="M213 455c13 0 28 5 45 23l21 120c-14 12 -27 18 -41 18c-39 0 -66 -45 -66 -100c0 -47 19 -61 41 -61zM247 400v12c-21 -26 -50 -40 -82 -40c-57 0 -100 45 -100 134c0 107 62 198 151 198c29 0 54 -10 78 -38l6 30h104l-43 -243c-6 -33 -8 -47 -8 -58c0 -8 1 -13 2 -15
h-104c-2 4 -4 10 -4 20z" />
    <glyph glyph-name="guillemotleft" unicode="&#xab;" horiz-adv-x="560" 
d="M349 24l-104 231l171 231h154l-175 -240l93 -222h-139zM129 24l-104 231l171 231h154l-175 -240l93 -222h-139z" />
    <glyph glyph-name="logicalnot" unicode="&#xac;" horiz-adv-x="572" 
d="M497 69h-128l34 194h-360l22 124h488z" />
    <glyph glyph-name="uni00AD" unicode="&#xad;" horiz-adv-x="406" 
d="M48 258l19 107h311l-19 -107h-311z" />
    <glyph glyph-name="registered" unicode="&#xae;" horiz-adv-x="838" 
d="M805 360c0 -213 -163 -372 -372 -372s-372 159 -372 372s163 372 372 372s372 -159 372 -372zM138 360c0 -173 129 -301 295 -301s295 128 295 301s-129 301 -295 301s-295 -128 -295 -301zM491 175l-67 127h-33v-127h-110v366h163c95 0 151 -40 151 -120
c0 -49 -22 -82 -62 -101l78 -145h-120zM391 376h43c35 0 51 12 51 40c0 29 -16 41 -51 41h-43v-81z" />
    <glyph glyph-name="macron" unicode="&#xaf;" horiz-adv-x="500" 
d="M128 560l18 103h351l-18 -103h-351z" />
    <glyph glyph-name="degree" unicode="&#xb0;" horiz-adv-x="430" 
d="M180 566c0 -51 36 -88 87 -88s87 37 87 88s-36 88 -87 88s-87 -37 -87 -88zM441 566c0 -95 -73 -166 -174 -166s-174 71 -174 166s73 166 174 166s174 -71 174 -166z" />
    <glyph glyph-name="plusminus" unicode="&#xb1;" horiz-adv-x="572" 
d="M325 113h-128l25 143h-180l20 111h180l25 143h128l-25 -143h180l-20 -111h-180zM499 76l-20 -111h-488l20 111h488z" />
    <glyph glyph-name="twosuperior" unicode="&#xb2;" horiz-adv-x="360" 
d="M294 695c0 27 -16 45 -51 45c-42 0 -85 -24 -117 -56l-14 93c32 31 85 57 149 57c89 0 141 -51 141 -129c0 -88 -67 -155 -179 -238h147l-15 -87h-312l13 77c183 122 238 188 238 238z" />
    <glyph glyph-name="threesuperior" unicode="&#xb3;" horiz-adv-x="353" 
d="M257 834c85 0 147 -37 147 -111c0 -55 -34 -95 -101 -118c52 -18 74 -51 74 -97c0 -84 -73 -136 -189 -136c-60 0 -112 14 -154 35l40 83c36 -18 70 -32 111 -32c52 0 79 22 79 55s-26 50 -87 50c-15 0 -29 -1 -47 -2l13 79c117 0 153 25 153 62c0 28 -20 42 -54 42
c-32 0 -72 -13 -114 -35l-8 90c41 22 87 35 137 35z" />
    <glyph glyph-name="acute" unicode="&#xb4;" horiz-adv-x="500" 
d="M338 553h-132l108 167h190z" />
    <glyph glyph-name="mu" unicode="&#xb5;" horiz-adv-x="589" 
d="M573 510l-90 -510h-161l12 68c-47 -50 -105 -80 -167 -80c-5 0 -10 0 -14 1c0 -61 -8 -120 -20 -199h-154l127 720h161l-59 -334c-1 -5 -1 -10 -1 -12c0 -36 16 -46 41 -46c39 0 72 25 105 57l59 335h161z" />
    <glyph glyph-name="paragraph" unicode="&#xb6;" horiz-adv-x="549" 
d="M427 680h133l-90 -513c-30 -169 -114 -225 -313 -262l-12 114c106 24 175 48 192 148zM374 680l-79 -452c-150 0 -235 84 -235 205c0 130 98 247 314 247z" />
    <glyph glyph-name="periodcentered" unicode="&#xb7;" horiz-adv-x="301" 
d="M149 166c-56 0 -96 40 -96 92s40 92 96 92s96 -40 96 -92s-40 -92 -96 -92z" />
    <glyph glyph-name="cedilla" unicode="&#xb8;" horiz-adv-x="500" 
d="M321 -95c0 -72 -58 -113 -152 -113c-58 0 -97 16 -129 33l31 75c26 -15 55 -26 84 -26c35 0 51 17 51 36c0 20 -17 38 -70 46l24 53c109 -3 161 -37 161 -104z" />
    <glyph glyph-name="onesuperior" unicode="&#xb9;" horiz-adv-x="260" 
d="M116 679l-13 91l118 56h86l-79 -446h-108l58 327z" />
    <glyph glyph-name="ordmasculine" unicode="&#xba;" horiz-adv-x="356" 
d="M208 372c-80 0 -141 48 -141 145c0 108 76 187 178 187c80 0 141 -48 141 -145c0 -108 -76 -187 -178 -187zM214 446c39 0 65 53 65 112c0 42 -13 68 -40 68c-39 0 -65 -53 -65 -112c0 -42 13 -68 40 -68z" />
    <glyph glyph-name="guillemotright" unicode="&#xbb;" horiz-adv-x="560" 
d="M430 486l104 -231l-171 -231h-154l175 240l-93 222h139zM210 486l104 -231l-171 -231h-154l175 240l-93 222h139z" />
    <glyph glyph-name="onequarter" unicode="&#xbc;" horiz-adv-x="781" 
d="M383 84l14 82l230 280h133l-49 -276h64l-15 -86h-64l-15 -84h-105l15 84h-208zM505 170h101l28 156zM41 0l573 720h137l-573 -720h-137zM116 573l-13 91l118 56h86l-79 -446h-108l58 327z" />
    <glyph glyph-name="onehalf" unicode="&#xbd;" horiz-adv-x="838" 
d="M50 0l573 720h137l-573 -720h-137zM731 315c0 27 -16 45 -51 45c-42 0 -85 -24 -117 -56l-14 93c32 31 85 57 149 57c89 0 141 -51 141 -129c0 -88 -67 -155 -179 -238h147l-15 -87h-312l13 77c183 122 238 188 238 238zM116 573l-13 91l118 56h86l-79 -446h-108l58 327z
" />
    <glyph glyph-name="threequarters" unicode="&#xbe;" horiz-adv-x="854" 
d="M438 84l14 82l230 280h133l-49 -276h64l-15 -86h-64l-15 -84h-105l15 84h-208zM560 170h101l28 156zM114 0l573 720h137l-573 -720h-137zM246 728c85 0 147 -37 147 -111c0 -55 -34 -95 -101 -118c52 -18 74 -51 74 -97c0 -84 -73 -136 -189 -136c-60 0 -112 14 -154 35
l40 83c36 -18 70 -32 111 -32c52 0 79 22 79 55s-26 50 -87 50c-15 0 -29 -1 -47 -2l13 79c117 0 153 25 153 62c0 28 -20 42 -54 42c-32 0 -72 -13 -114 -35l-8 90c41 22 87 35 137 35z" />
    <glyph glyph-name="questiondown" unicode="&#xbf;" horiz-adv-x="434" 
d="M219 286h124c4 -16 5 -28 5 -37c0 -135 -203 -173 -203 -275c0 -48 44 -71 106 -71c18 0 45 2 85 9l-22 -122c-35 -7 -68 -12 -107 -12c-134 0 -223 60 -223 173c0 183 235 205 235 324v11zM217 436c0 49 37 86 92 86s92 -37 92 -86s-37 -86 -92 -86s-92 37 -92 86z" />
    <glyph glyph-name="Agrave" unicode="&#xc0;" horiz-adv-x="695" 
d="M529 720l104 -720h-163l-17 146h-243l-67 -146h-171l364 720h193zM403 564l-137 -297h172zM534 762h-124l-120 147h168z" />
    <glyph glyph-name="Aacute" unicode="&#xc1;" horiz-adv-x="695" 
d="M529 720l104 -720h-163l-17 146h-243l-67 -146h-171l364 720h193zM403 564l-137 -297h172zM472 762h-133l105 147h190z" />
    <glyph glyph-name="Acircumflex" unicode="&#xc2;" horiz-adv-x="695" 
d="M529 720l104 -720h-163l-17 146h-243l-67 -146h-171l364 720h193zM403 564l-137 -297h172zM368 762h-123l156 147h126l102 -147h-109l-68 49z" />
    <glyph glyph-name="Atilde" unicode="&#xc3;" horiz-adv-x="695" 
d="M529 720l104 -720h-163l-17 146h-243l-67 -146h-171l364 720h193zM403 564l-137 -297h172zM336 762h-92c17 92 57 145 130 145c65 0 115 -43 152 -43c19 0 31 11 36 37h92c-18 -96 -60 -145 -130 -145c-65 0 -115 43 -152 43c-19 0 -31 -11 -36 -37z" />
    <glyph glyph-name="Adieresis" unicode="&#xc4;" horiz-adv-x="695" 
d="M529 720l104 -720h-163l-17 146h-243l-67 -146h-171l364 720h193zM403 564l-137 -297h172zM419 837c0 -42 -32 -74 -76 -74s-76 32 -76 74s32 74 76 74s76 -32 76 -74zM633 837c0 -42 -32 -74 -76 -74s-76 32 -76 74s32 74 76 74s76 -32 76 -74z" />
    <glyph glyph-name="Aring" unicode="&#xc5;" horiz-adv-x="695" 
d="M549 744c0 -20 -6 -39 -16 -54l100 -690h-163l-17 146h-243l-67 -146h-171l355 702c-6 13 -9 27 -9 42c0 58 48 103 115 103c68 0 116 -45 116 -103zM403 564l-137 -297h172zM389 744c0 -22 17 -41 44 -41c28 0 45 19 45 41s-17 41 -45 41c-27 0 -44 -19 -44 -41z" />
    <glyph glyph-name="AE" unicode="&#xc6;" horiz-adv-x="946" 
d="M-30 0l485 720h533l-24 -136h-278l-28 -156h237l-22 -128h-237l-30 -169h281l-23 -131h-444l26 146h-203l-91 -146h-182zM318 267h149l59 334z" />
    <glyph glyph-name="Ccedilla" unicode="&#xc7;" horiz-adv-x="602" 
d="M521 175l16 -132c-48 -27 -109 -49 -176 -54c36 -17 54 -45 54 -84c0 -72 -58 -113 -152 -113c-58 0 -97 16 -129 33l31 75c26 -15 55 -26 84 -26c35 0 51 17 51 36c0 20 -17 38 -70 46l19 42c-122 31 -202 134 -202 304c0 226 141 430 393 430c81 0 150 -21 205 -55
l-61 -130c-49 30 -95 49 -149 49c-151 0 -225 -144 -225 -290c0 -133 62 -187 147 -187c58 0 116 25 164 56z" />
    <glyph glyph-name="Egrave" unicode="&#xc8;" horiz-adv-x="590" 
d="M32 0l127 720h473l-24 -136h-310l-28 -156h269l-22 -128h-269l-30 -169h313l-23 -131h-476zM502 762h-124l-120 147h168z" />
    <glyph glyph-name="Eacute" unicode="&#xc9;" horiz-adv-x="590" 
d="M32 0l127 720h473l-24 -136h-310l-28 -156h269l-22 -128h-269l-30 -169h313l-23 -131h-476zM440 762h-133l105 147h190z" />
    <glyph glyph-name="Ecircumflex" unicode="&#xca;" horiz-adv-x="590" 
d="M32 0l127 720h473l-24 -136h-310l-28 -156h269l-22 -128h-269l-30 -169h313l-23 -131h-476zM336 762h-123l156 147h126l102 -147h-109l-68 49z" />
    <glyph glyph-name="Edieresis" unicode="&#xcb;" horiz-adv-x="590" 
d="M32 0l127 720h473l-24 -136h-310l-28 -156h269l-22 -128h-269l-30 -169h313l-23 -131h-476zM386 837c0 -42 -32 -74 -76 -74s-76 32 -76 74s32 74 76 74s76 -32 76 -74zM600 837c0 -42 -32 -74 -76 -74s-76 32 -76 74s32 74 76 74s76 -32 76 -74z" />
    <glyph glyph-name="Igrave" unicode="&#xcc;" horiz-adv-x="329" 
d="M38 0l127 720h163l-127 -720h-163zM351 762h-124l-120 147h168z" />
    <glyph glyph-name="Iacute" unicode="&#xcd;" horiz-adv-x="329" 
d="M38 0l127 720h163l-127 -720h-163zM289 762h-133l105 147h190z" />
    <glyph glyph-name="Icircumflex" unicode="&#xce;" horiz-adv-x="329" 
d="M38 0l127 720h163l-127 -720h-163zM185 762h-123l156 147h126l102 -147h-109l-68 49z" />
    <glyph glyph-name="Idieresis" unicode="&#xcf;" horiz-adv-x="329" 
d="M38 0l127 720h163l-127 -720h-163zM235 837c0 -42 -32 -74 -76 -74s-76 32 -76 74s32 74 76 74s76 -32 76 -74zM449 837c0 -42 -32 -74 -76 -74s-76 32 -76 74s32 74 76 74s76 -32 76 -74z" />
    <glyph glyph-name="Eth" unicode="&#xd0;" horiz-adv-x="719" 
d="M22 313l18 103h65l54 304h228c191 0 317 -115 317 -316c0 -211 -138 -404 -397 -404h-275l55 313h-65zM218 131h89c157 0 234 130 234 269c0 129 -67 184 -154 184h-89l-30 -168h136l-18 -103h-136z" />
    <glyph glyph-name="Ntilde" unicode="&#xd1;" horiz-adv-x="731" 
d="M32 0l127 720h171l178 -434l77 434h150l-127 -720h-136l-203 495l-87 -495h-150zM354 762h-92c17 92 57 145 130 145c65 0 115 -43 152 -43c19 0 31 11 36 37h92c-18 -96 -60 -145 -130 -145c-65 0 -115 43 -152 43c-19 0 -31 -11 -36 -37z" />
    <glyph glyph-name="Ograve" unicode="&#xd2;" horiz-adv-x="723" 
d="M353 120c118 0 195 125 195 279c0 131 -56 197 -142 197c-118 0 -195 -125 -195 -279c0 -131 56 -197 142 -197zM346 -12c-172 0 -298 117 -298 329c0 230 149 415 365 415c172 0 298 -117 298 -329c0 -230 -149 -415 -365 -415zM538 762h-124l-120 147h168z" />
    <glyph glyph-name="Oacute" unicode="&#xd3;" horiz-adv-x="723" 
d="M353 120c118 0 195 125 195 279c0 131 -56 197 -142 197c-118 0 -195 -125 -195 -279c0 -131 56 -197 142 -197zM346 -12c-172 0 -298 117 -298 329c0 230 149 415 365 415c172 0 298 -117 298 -329c0 -230 -149 -415 -365 -415zM476 762h-133l105 147h190z" />
    <glyph glyph-name="Ocircumflex" unicode="&#xd4;" horiz-adv-x="723" 
d="M353 120c118 0 195 125 195 279c0 131 -56 197 -142 197c-118 0 -195 -125 -195 -279c0 -131 56 -197 142 -197zM346 -12c-172 0 -298 117 -298 329c0 230 149 415 365 415c172 0 298 -117 298 -329c0 -230 -149 -415 -365 -415zM372 762h-123l156 147h126l102 -147h-109
l-68 49z" />
    <glyph glyph-name="Otilde" unicode="&#xd5;" horiz-adv-x="723" 
d="M353 120c118 0 195 125 195 279c0 131 -56 197 -142 197c-118 0 -195 -125 -195 -279c0 -131 56 -197 142 -197zM346 -12c-172 0 -298 117 -298 329c0 230 149 415 365 415c172 0 298 -117 298 -329c0 -230 -149 -415 -365 -415zM338 762h-92c17 92 57 145 130 145
c65 0 115 -43 152 -43c19 0 31 11 36 37h92c-18 -96 -60 -145 -130 -145c-65 0 -115 43 -152 43c-19 0 -31 -11 -36 -37z" />
    <glyph glyph-name="Odieresis" unicode="&#xd6;" horiz-adv-x="723" 
d="M353 120c118 0 195 125 195 279c0 131 -56 197 -142 197c-118 0 -195 -125 -195 -279c0 -131 56 -197 142 -197zM346 -12c-172 0 -298 117 -298 329c0 230 149 415 365 415c172 0 298 -117 298 -329c0 -230 -149 -415 -365 -415zM423 837c0 -42 -32 -74 -76 -74
s-76 32 -76 74s32 74 76 74s76 -32 76 -74zM637 837c0 -42 -32 -74 -76 -74s-76 32 -76 74s32 74 76 74s76 -32 76 -74z" />
    <glyph glyph-name="multiply" unicode="&#xd7;" horiz-adv-x="572" 
d="M77 414l98 76l119 -147l173 147l79 -95l-174 -148l123 -151l-98 -76l-119 147l-173 -147l-79 95l174 148z" />
    <glyph glyph-name="Oslash" unicode="&#xd8;" horiz-adv-x="723" 
d="M353 116c120 0 199 126 199 284c0 18 -1 35 -4 52l-305 -280c25 -37 63 -56 110 -56zM207 317c0 -18 1 -34 3 -50l304 279c-25 36 -63 54 -108 54c-120 0 -199 -127 -199 -283zM41 -12l-62 68l102 93c-21 47 -33 103 -33 168c0 230 149 415 365 415c85 0 160 -29 213 -85
l92 85l62 -68l-103 -94c22 -46 34 -102 34 -167c0 -230 -149 -415 -365 -415c-86 0 -160 29 -213 84z" />
    <glyph glyph-name="Ugrave" unicode="&#xd9;" horiz-adv-x="689" 
d="M69 289l76 431h164l-80 -454c-3 -18 -4 -34 -4 -46c0 -73 37 -96 98 -96c72 0 126 33 145 142l80 454h158l-85 -481c-30 -170 -129 -251 -311 -251c-153 0 -249 57 -249 214c0 23 2 55 8 87zM531 762h-124l-120 147h168z" />
    <glyph glyph-name="Uacute" unicode="&#xda;" horiz-adv-x="689" 
d="M69 289l76 431h164l-80 -454c-3 -18 -4 -34 -4 -46c0 -73 37 -96 98 -96c72 0 126 33 145 142l80 454h158l-85 -481c-30 -170 -129 -251 -311 -251c-153 0 -249 57 -249 214c0 23 2 55 8 87zM469 762h-133l105 147h190z" />
    <glyph glyph-name="Ucircumflex" unicode="&#xdb;" horiz-adv-x="689" 
d="M69 289l76 431h164l-80 -454c-3 -18 -4 -34 -4 -46c0 -73 37 -96 98 -96c72 0 126 33 145 142l80 454h158l-85 -481c-30 -170 -129 -251 -311 -251c-153 0 -249 57 -249 214c0 23 2 55 8 87zM365 762h-123l156 147h126l102 -147h-109l-68 49z" />
    <glyph glyph-name="Udieresis" unicode="&#xdc;" horiz-adv-x="689" 
d="M69 289l76 431h164l-80 -454c-3 -18 -4 -34 -4 -46c0 -73 37 -96 98 -96c72 0 126 33 145 142l80 454h158l-85 -481c-30 -170 -129 -251 -311 -251c-153 0 -249 57 -249 214c0 23 2 55 8 87zM416 837c0 -42 -32 -74 -76 -74s-76 32 -76 74s32 74 76 74s76 -32 76 -74z
M630 837c0 -42 -32 -74 -76 -74s-76 32 -76 74s32 74 76 74s76 -32 76 -74z" />
    <glyph glyph-name="Yacute" unicode="&#xdd;" horiz-adv-x="649" 
d="M198 0l51 290l-158 430h159l99 -281l198 281h175l-310 -430l-51 -290h-163zM452 762h-133l105 147h190z" />
    <glyph glyph-name="Thorn" unicode="&#xde;" horiz-adv-x="644" 
d="M32 0l127 720h161l-18 -100h86c157 0 257 -70 257 -217c0 -153 -109 -247 -305 -247h-119l-28 -156h-161zM279 487l-35 -203h96c97 0 144 42 144 112c0 61 -36 91 -109 91h-96z" />
    <glyph glyph-name="germandbls" unicode="&#xdf;" horiz-adv-x="632" 
d="M306 323l21 116c59 0 116 31 116 100c0 56 -37 74 -74 74c-49 0 -89 -31 -105 -120l-87 -493h-161l91 516c25 140 119 216 265 216c126 0 224 -57 224 -179c0 -81 -43 -141 -129 -171c83 -28 126 -89 126 -177c0 -131 -96 -217 -239 -217c-43 0 -90 8 -125 22l38 108
c25 -9 49 -15 71 -15c55 0 94 38 94 108c0 82 -52 112 -126 112z" />
    <glyph glyph-name="agrave" unicode="&#xe0;" horiz-adv-x="579" 
d="M484 0h-155c-3 6 -8 16 -8 31c0 6 0 13 2 22c-35 -40 -80 -65 -137 -65c-93 0 -161 68 -161 210c0 178 106 324 249 324c51 0 88 -18 126 -66l10 54h154l-70 -396c-9 -49 -12 -76 -12 -94c0 -9 0 -16 2 -20zM255 111c25 0 54 10 85 42l37 205c-24 22 -45 32 -71 32
c-73 0 -120 -76 -120 -175c0 -79 30 -104 69 -104zM444 553h-122l-117 167h168z" />
    <glyph glyph-name="aacute" unicode="&#xe1;" horiz-adv-x="579" 
d="M484 0h-155c-3 6 -8 16 -8 31c0 6 0 13 2 22c-35 -40 -80 -65 -137 -65c-93 0 -161 68 -161 210c0 178 106 324 249 324c51 0 88 -18 126 -66l10 54h154l-70 -396c-9 -49 -12 -76 -12 -94c0 -9 0 -16 2 -20zM255 111c25 0 54 10 85 42l37 205c-24 22 -45 32 -71 32
c-73 0 -120 -76 -120 -175c0 -79 30 -104 69 -104zM377 553h-132l108 167h190z" />
    <glyph glyph-name="acircumflex" unicode="&#xe2;" horiz-adv-x="579" 
d="M484 0h-155c-3 6 -8 16 -8 31c0 6 0 13 2 22c-35 -40 -80 -65 -137 -65c-93 0 -161 68 -161 210c0 178 106 324 249 324c51 0 88 -18 126 -66l10 54h154l-70 -396c-9 -49 -12 -76 -12 -94c0 -9 0 -16 2 -20zM255 111c25 0 54 10 85 42l37 205c-24 22 -45 32 -71 32
c-73 0 -120 -76 -120 -175c0 -79 30 -104 69 -104zM278 553h-122l159 167h124l100 -167h-108l-65 70z" />
    <glyph glyph-name="atilde" unicode="&#xe3;" horiz-adv-x="579" 
d="M484 0h-155c-3 6 -8 16 -8 31c0 6 0 13 2 22c-35 -40 -80 -65 -137 -65c-93 0 -161 68 -161 210c0 178 106 324 249 324c51 0 88 -18 126 -66l10 54h154l-70 -396c-9 -49 -12 -76 -12 -94c0 -9 0 -16 2 -20zM255 111c25 0 54 10 85 42l37 205c-24 22 -45 32 -71 32
c-73 0 -120 -76 -120 -175c0 -79 30 -104 69 -104zM246 559h-90c18 106 63 150 127 150c70 0 116 -53 154 -53c21 0 34 18 39 47h90c-18 -106 -63 -150 -127 -150c-70 0 -116 53 -154 53c-21 0 -34 -18 -39 -47z" />
    <glyph glyph-name="adieresis" unicode="&#xe4;" horiz-adv-x="579" 
d="M484 0h-155c-3 6 -8 16 -8 31c0 6 0 13 2 22c-35 -40 -80 -65 -137 -65c-93 0 -161 68 -161 210c0 178 106 324 249 324c51 0 88 -18 126 -66l10 54h154l-70 -396c-9 -49 -12 -76 -12 -94c0 -9 0 -16 2 -20zM255 111c25 0 54 10 85 42l37 205c-24 22 -45 32 -71 32
c-73 0 -120 -76 -120 -175c0 -79 30 -104 69 -104zM330 629c0 -42 -32 -74 -76 -74s-76 32 -76 74s32 74 76 74s76 -32 76 -74zM544 629c0 -42 -32 -74 -76 -74s-76 32 -76 74s32 74 76 74s76 -32 76 -74z" />
    <glyph glyph-name="aring" unicode="&#xe5;" horiz-adv-x="579" 
d="M484 0h-155c-3 6 -8 16 -8 31c0 6 0 13 2 22c-35 -40 -80 -65 -137 -65c-93 0 -161 68 -161 210c0 178 106 324 249 324c51 0 88 -18 126 -66l10 54h154l-70 -396c-9 -49 -12 -76 -12 -94c0 -9 0 -16 2 -20zM255 111c25 0 54 10 85 42l37 205c-24 22 -45 32 -71 32
c-73 0 -120 -76 -120 -175c0 -79 30 -104 69 -104zM323 655c0 -22 16 -41 42 -41s42 19 42 41s-16 41 -42 41s-42 -19 -42 -41zM471 655c0 -58 -45 -103 -106 -103s-106 45 -106 103s45 103 106 103s106 -45 106 -103z" />
    <glyph glyph-name="ae" unicode="&#xe6;" horiz-adv-x="838" 
d="M624 522c128 0 195 -68 195 -154c0 -97 -84 -170 -285 -170c-18 0 -34 0 -49 1c6 -69 41 -97 107 -97c47 0 105 15 153 38l10 -114c-53 -23 -123 -38 -191 -38c-89 0 -156 25 -196 75c-51 -45 -121 -75 -195 -75c-98 0 -165 52 -165 148c0 109 88 183 253 183
c27 0 49 -2 74 -5l1 7c2 11 4 22 4 32c0 33 -22 46 -69 46c-53 0 -107 -17 -165 -40l-9 120c53 22 132 43 215 43c62 0 115 -12 148 -45c45 28 101 45 164 45zM224 103c31 0 68 14 106 43c-5 20 -7 42 -7 66v13c-21 3 -39 4 -51 4c-69 0 -107 -32 -107 -74
c0 -34 24 -52 59 -52zM613 412c-54 0 -103 -47 -121 -121h33c109 0 146 29 146 68c0 28 -18 53 -58 53z" />
    <glyph glyph-name="ccedilla" unicode="&#xe7;" horiz-adv-x="449" 
d="M465 486l-51 -117c-28 18 -54 30 -88 30c-89 0 -141 -82 -141 -179c0 -80 35 -114 88 -114c34 0 74 13 105 33l9 -117c-29 -16 -68 -27 -109 -32c38 -17 56 -45 56 -85c0 -72 -58 -113 -152 -113c-58 0 -97 16 -129 33l31 75c26 -15 55 -26 84 -26c35 0 51 17 51 36
c0 20 -17 38 -70 46l19 42c-87 25 -143 98 -143 218c0 168 110 306 295 306c66 0 110 -17 145 -36z" />
    <glyph glyph-name="egrave" unicode="&#xe8;" horiz-adv-x="540" 
d="M326 522c128 0 195 -68 195 -154c0 -97 -84 -170 -285 -170c-18 0 -34 0 -49 1c6 -69 41 -97 107 -97c47 0 105 15 153 38l10 -114c-53 -23 -123 -38 -191 -38c-154 0 -241 76 -241 224c0 174 119 310 301 310zM315 412c-54 0 -103 -47 -121 -121h33c109 0 146 29 146 68
c0 28 -18 53 -58 53zM433 553h-122l-117 167h168z" />
    <glyph glyph-name="eacute" unicode="&#xe9;" horiz-adv-x="540" 
d="M326 522c128 0 195 -68 195 -154c0 -97 -84 -170 -285 -170c-18 0 -34 0 -49 1c6 -69 41 -97 107 -97c47 0 105 15 153 38l10 -114c-53 -23 -123 -38 -191 -38c-154 0 -241 76 -241 224c0 174 119 310 301 310zM315 412c-54 0 -103 -47 -121 -121h33c109 0 146 29 146 68
c0 28 -18 53 -58 53zM357 553h-132l108 167h190z" />
    <glyph glyph-name="ecircumflex" unicode="&#xea;" horiz-adv-x="540" 
d="M326 522c128 0 195 -68 195 -154c0 -97 -84 -170 -285 -170c-18 0 -34 0 -49 1c6 -69 41 -97 107 -97c47 0 105 15 153 38l10 -114c-53 -23 -123 -38 -191 -38c-154 0 -241 76 -241 224c0 174 119 310 301 310zM315 412c-54 0 -103 -47 -121 -121h33c109 0 146 29 146 68
c0 28 -18 53 -58 53zM259 553h-122l159 167h124l100 -167h-108l-65 70z" />
    <glyph glyph-name="edieresis" unicode="&#xeb;" horiz-adv-x="540" 
d="M326 522c128 0 195 -68 195 -154c0 -97 -84 -170 -285 -170c-18 0 -34 0 -49 1c6 -69 41 -97 107 -97c47 0 105 15 153 38l10 -114c-53 -23 -123 -38 -191 -38c-154 0 -241 76 -241 224c0 174 119 310 301 310zM315 412c-54 0 -103 -47 -121 -121h33c109 0 146 29 146 68
c0 28 -18 53 -58 53zM311 629c0 -42 -32 -74 -76 -74s-76 32 -76 74s32 74 76 74s76 -32 76 -74zM525 629c0 -42 -32 -74 -76 -74s-76 32 -76 74s32 74 76 74s76 -32 76 -74z" />
    <glyph glyph-name="igrave" unicode="&#xec;" horiz-adv-x="296" 
d="M22 0l90 510h161l-90 -510h-161zM296 553h-122l-117 167h168z" />
    <glyph glyph-name="iacute" unicode="&#xed;" horiz-adv-x="296" 
d="M22 0l90 510h161l-90 -510h-161zM235 553h-132l108 167h190z" />
    <glyph glyph-name="icircumflex" unicode="&#xee;" horiz-adv-x="296" 
d="M130 553h-122l159 167h124l100 -167h-108l-65 70zM22 0l90 510h161l-90 -510h-161z" />
    <glyph glyph-name="idieresis" unicode="&#xef;" horiz-adv-x="296" 
d="M182 629c0 -42 -32 -74 -76 -74s-76 32 -76 74s32 74 76 74s76 -32 76 -74zM396 629c0 -42 -32 -74 -76 -74s-76 32 -76 74s32 74 76 74s76 -32 76 -74zM22 0l90 510h161l-90 -510h-161z" />
    <glyph glyph-name="eth" unicode="&#xf0;" horiz-adv-x="561" 
d="M274 529l-28 80l59 20c-10 17 -21 34 -33 52l104 67c20 -22 39 -47 57 -74l71 25l29 -80l-59 -21c35 -79 58 -173 58 -269c0 -222 -124 -341 -285 -341c-122 0 -224 69 -224 224c0 158 105 278 244 278c58 0 85 -21 106 -41c-7 37 -16 71 -30 104zM371 265
c0 78 -32 106 -75 106c-67 0 -112 -70 -112 -163c0 -78 32 -105 75 -105c68 0 112 70 112 162z" />
    <glyph glyph-name="ntilde" unicode="&#xf1;" horiz-adv-x="578" 
d="M16 0l90 510h161l-12 -68c47 50 103 80 168 80c61 0 125 -27 125 -126c0 -13 -1 -33 -4 -50l-61 -346h-161l58 329c1 7 1 11 1 13c0 35 -17 45 -41 45c-37 0 -70 -23 -105 -57l-58 -330h-161zM245 559h-90c18 106 63 150 127 150c70 0 116 -53 154 -53c21 0 34 18 39 47
h90c-18 -106 -63 -150 -127 -150c-70 0 -116 53 -154 53c-21 0 -34 -18 -39 -47z" />
    <glyph glyph-name="ograve" unicode="&#xf2;" horiz-adv-x="561" 
d="M260 101c70 0 115 85 115 187c0 80 -28 117 -74 117c-70 0 -115 -85 -115 -187c0 -80 28 -117 74 -117zM251 -12c-127 0 -226 75 -226 232c0 171 118 302 285 302c127 0 226 -75 226 -232c0 -171 -118 -302 -285 -302zM419 553h-122l-117 167h168z" />
    <glyph glyph-name="oacute" unicode="&#xf3;" horiz-adv-x="561" 
d="M260 101c70 0 115 85 115 187c0 80 -28 117 -74 117c-70 0 -115 -85 -115 -187c0 -80 28 -117 74 -117zM251 -12c-127 0 -226 75 -226 232c0 171 118 302 285 302c127 0 226 -75 226 -232c0 -171 -118 -302 -285 -302zM358 553h-132l108 167h190z" />
    <glyph glyph-name="ocircumflex" unicode="&#xf4;" horiz-adv-x="561" 
d="M260 101c70 0 115 85 115 187c0 80 -28 117 -74 117c-70 0 -115 -85 -115 -187c0 -80 28 -117 74 -117zM251 -12c-127 0 -226 75 -226 232c0 171 118 302 285 302c127 0 226 -75 226 -232c0 -171 -118 -302 -285 -302zM253 553h-122l159 167h124l100 -167h-108l-65 70z
" />
    <glyph glyph-name="otilde" unicode="&#xf5;" horiz-adv-x="561" 
d="M260 101c70 0 115 85 115 187c0 80 -28 117 -74 117c-70 0 -115 -85 -115 -187c0 -80 28 -117 74 -117zM251 -12c-127 0 -226 75 -226 232c0 171 118 302 285 302c127 0 226 -75 226 -232c0 -171 -118 -302 -285 -302zM221 559h-90c18 106 63 150 127 150
c70 0 116 -53 154 -53c21 0 34 18 39 47h90c-18 -106 -63 -150 -127 -150c-70 0 -116 53 -154 53c-21 0 -34 -18 -39 -47z" />
    <glyph glyph-name="odieresis" unicode="&#xf6;" horiz-adv-x="561" 
d="M260 101c70 0 115 85 115 187c0 80 -28 117 -74 117c-70 0 -115 -85 -115 -187c0 -80 28 -117 74 -117zM251 -12c-127 0 -226 75 -226 232c0 171 118 302 285 302c127 0 226 -75 226 -232c0 -171 -118 -302 -285 -302zM305 629c0 -42 -32 -74 -76 -74s-76 32 -76 74
s32 74 76 74s76 -32 76 -74zM519 629c0 -42 -32 -74 -76 -74s-76 32 -76 74s32 74 76 74s76 -32 76 -74z" />
    <glyph glyph-name="divide" unicode="&#xf7;" horiz-adv-x="572" 
d="M541 317l-22 -124h-488l22 124h488zM337 70c0 -47 -31 -78 -84 -78c-52 0 -84 31 -84 78c0 46 32 77 84 77c53 0 84 -31 84 -77zM235 440c0 47 31 78 84 78c52 0 84 -31 84 -78c0 -46 -32 -77 -84 -77c-53 0 -84 31 -84 77z" />
    <glyph glyph-name="oslash" unicode="&#xf8;" horiz-adv-x="561" 
d="M259 92c76 0 125 87 125 196v11l-187 -174c15 -23 36 -33 62 -33zM177 218v-8l185 173c-14 21 -35 31 -61 31c-75 0 -124 -88 -124 -196zM251 -12c-58 0 -110 15 -150 47l-70 -66l-53 55l75 70c-18 34 -28 76 -28 126c0 171 118 302 285 302c58 0 110 -16 149 -47l71 66
l53 -55l-75 -71c18 -33 28 -75 28 -125c0 -171 -118 -302 -285 -302z" />
    <glyph glyph-name="ugrave" unicode="&#xf9;" horiz-adv-x="578" 
d="M561 510l-90 -510h-161l12 68c-47 -50 -103 -80 -168 -80c-61 0 -125 27 -125 126c0 13 1 33 4 50l61 346h161l-59 -334c-1 -7 -1 -11 -1 -13c0 -35 17 -45 41 -45c37 0 70 23 105 57l59 335h161zM431 553h-122l-117 167h168z" />
    <glyph glyph-name="uacute" unicode="&#xfa;" horiz-adv-x="578" 
d="M561 510l-90 -510h-161l12 68c-47 -50 -103 -80 -168 -80c-61 0 -125 27 -125 126c0 13 1 33 4 50l61 346h161l-59 -334c-1 -7 -1 -11 -1 -13c0 -35 17 -45 41 -45c37 0 70 23 105 57l59 335h161zM370 553h-132l108 167h190z" />
    <glyph glyph-name="ucircumflex" unicode="&#xfb;" horiz-adv-x="578" 
d="M561 510l-90 -510h-161l12 68c-47 -50 -103 -80 -168 -80c-61 0 -125 27 -125 126c0 13 1 33 4 50l61 346h161l-59 -334c-1 -7 -1 -11 -1 -13c0 -35 17 -45 41 -45c37 0 70 23 105 57l59 335h161zM265 553h-122l159 167h124l100 -167h-108l-65 70z" />
    <glyph glyph-name="udieresis" unicode="&#xfc;" horiz-adv-x="578" 
d="M561 510l-90 -510h-161l12 68c-47 -50 -103 -80 -168 -80c-61 0 -125 27 -125 126c0 13 1 33 4 50l61 346h161l-59 -334c-1 -7 -1 -11 -1 -13c0 -35 17 -45 41 -45c37 0 70 23 105 57l59 335h161zM317 629c0 -42 -32 -74 -76 -74s-76 32 -76 74s32 74 76 74
s76 -32 76 -74zM531 629c0 -42 -32 -74 -76 -74s-76 32 -76 74s32 74 76 74s76 -32 76 -74z" />
    <glyph glyph-name="yacute" unicode="&#xfd;" horiz-adv-x="509" 
d="M-52 -211l22 125c16 -3 35 -5 53 -5c55 0 86 18 129 103h-42l-66 498h159l32 -374l158 374h162l-252 -521c-79 -162 -131 -205 -269 -205c-30 0 -60 2 -86 5zM345 553h-132l108 167h190z" />
    <glyph glyph-name="thorn" unicode="&#xfe;" horiz-adv-x="587" 
d="M143 720h161l-47 -263c36 40 81 65 137 65c97 0 167 -74 167 -217c0 -176 -106 -317 -250 -317c-48 0 -87 16 -126 59l-45 -257h-161zM327 390c-29 0 -58 -13 -89 -43l-36 -204c26 -23 50 -32 76 -32c76 0 122 77 122 172c0 81 -33 107 -73 107z" />
    <glyph glyph-name="ydieresis" unicode="&#xff;" horiz-adv-x="509" 
d="M-52 -211l22 125c16 -3 35 -5 53 -5c55 0 86 18 129 103h-42l-66 498h159l32 -374l158 374h162l-252 -521c-79 -162 -131 -205 -269 -205c-30 0 -60 2 -86 5zM288 629c0 -42 -32 -74 -76 -74s-76 32 -76 74s32 74 76 74s76 -32 76 -74zM502 629c0 -42 -32 -74 -76 -74
s-76 32 -76 74s32 74 76 74s76 -32 76 -74z" />
    <glyph glyph-name="Amacron" unicode="&#x100;" horiz-adv-x="695" 
d="M529 720l104 -720h-163l-17 146h-243l-67 -146h-171l364 720h193zM403 564l-137 -297h172zM261 768l18 103h353l-18 -103h-353z" />
    <glyph glyph-name="amacron" unicode="&#x101;" horiz-adv-x="579" 
d="M484 0h-155c-3 6 -8 16 -8 31c0 6 0 13 2 22c-35 -40 -80 -65 -137 -65c-93 0 -161 68 -161 210c0 178 106 324 249 324c51 0 88 -18 126 -66l10 54h154l-70 -396c-9 -49 -12 -76 -12 -94c0 -9 0 -16 2 -20zM255 111c25 0 54 10 85 42l37 205c-24 22 -45 32 -71 32
c-73 0 -120 -76 -120 -175c0 -79 30 -104 69 -104zM174 560l18 103h351l-18 -103h-351z" />
    <glyph glyph-name="Abreve" unicode="&#x102;" horiz-adv-x="695" 
d="M529 720l104 -720h-163l-17 146h-243l-67 -146h-171l364 720h193zM403 564l-137 -297h172zM451 763c-115 0 -173 44 -173 115c0 9 1 18 4 32h88c2 -31 20 -50 84 -50s91 19 102 50h88c-16 -92 -64 -147 -193 -147z" />
    <glyph glyph-name="abreve" unicode="&#x103;" horiz-adv-x="579" 
d="M484 0h-155c-3 6 -8 16 -8 31c0 6 0 13 2 22c-35 -40 -80 -65 -137 -65c-93 0 -161 68 -161 210c0 178 106 324 249 324c51 0 88 -18 126 -66l10 54h154l-70 -396c-9 -49 -12 -76 -12 -94c0 -9 0 -16 2 -20zM255 111c25 0 54 10 85 42l37 205c-24 22 -45 32 -71 32
c-73 0 -120 -76 -120 -175c0 -79 30 -104 69 -104zM363 559c-114 0 -169 48 -169 127c0 11 0 22 2 34h87c-1 -41 18 -64 83 -64s91 23 105 64h87c-17 -99 -67 -161 -195 -161z" />
    <glyph glyph-name="Aogonek" unicode="&#x104;" horiz-adv-x="695" 
d="M488 -96c0 -22 13 -28 37 -28c9 0 20 1 32 4l5 -82c-19 -5 -47 -6 -61 -6c-82 0 -127 33 -127 92c0 44 25 83 96 116l-17 146h-243l-67 -146h-171l364 720h193l104 -720h-37c-83 -36 -108 -65 -108 -96zM403 564l-137 -297h172z" />
    <glyph glyph-name="aogonek" unicode="&#x105;" horiz-adv-x="579" 
d="M347 -96c0 -22 13 -28 37 -28c9 0 20 1 32 4l5 -82c-19 -5 -47 -6 -61 -6c-82 0 -127 33 -127 92c0 44 25 83 96 116c-3 6 -8 16 -8 31c0 6 0 13 2 22c-35 -40 -80 -65 -137 -65c-93 0 -161 68 -161 210c0 178 106 324 249 324c51 0 88 -18 126 -66l10 54h154l-70 -396
c-9 -49 -12 -76 -12 -94c0 -9 0 -16 2 -20h-29c-83 -36 -108 -65 -108 -96zM255 111c25 0 54 10 85 42l37 205c-24 22 -45 32 -71 32c-73 0 -120 -76 -120 -175c0 -79 30 -104 69 -104z" />
    <glyph glyph-name="Cacute" unicode="&#x106;" horiz-adv-x="602" 
d="M521 175l16 -132c-55 -31 -126 -55 -206 -55c-167 0 -284 104 -284 310c0 226 141 434 393 434c81 0 150 -21 205 -55l-61 -130c-49 30 -95 49 -149 49c-151 0 -225 -144 -225 -290c0 -133 62 -187 147 -187c58 0 116 25 164 56zM470 762h-133l105 147h190z" />
    <glyph glyph-name="cacute" unicode="&#x107;" horiz-adv-x="449" 
d="M465 486l-51 -117c-28 18 -54 30 -88 30c-89 0 -141 -82 -141 -179c0 -80 35 -114 88 -114c34 0 74 13 105 33l9 -117c-37 -20 -90 -34 -145 -34c-128 0 -217 73 -217 224c0 168 110 310 296 310c65 0 109 -17 144 -36zM347 553h-132l108 167h190z" />
    <glyph glyph-name="Ccircumflex" unicode="&#x108;" horiz-adv-x="602" 
d="M521 175l16 -132c-55 -31 -126 -55 -206 -55c-167 0 -284 104 -284 310c0 226 141 434 393 434c81 0 150 -21 205 -55l-61 -130c-49 30 -95 49 -149 49c-151 0 -225 -144 -225 -290c0 -133 62 -187 147 -187c58 0 116 25 164 56zM366 762h-123l156 147h126l102 -147h-109
l-68 49z" />
    <glyph glyph-name="ccircumflex" unicode="&#x109;" horiz-adv-x="449" 
d="M465 486l-51 -117c-28 18 -54 30 -88 30c-89 0 -141 -82 -141 -179c0 -80 35 -114 88 -114c34 0 74 13 105 33l9 -117c-37 -20 -90 -34 -145 -34c-128 0 -217 73 -217 224c0 168 110 310 296 310c65 0 109 -17 144 -36zM242 553h-122l159 167h124l100 -167h-108l-65 70z
" />
    <glyph glyph-name="Cdotaccent" unicode="&#x10a;" horiz-adv-x="602" 
d="M521 175l16 -132c-55 -31 -126 -55 -206 -55c-167 0 -284 104 -284 310c0 226 141 434 393 434c81 0 150 -21 205 -55l-61 -130c-49 30 -95 49 -149 49c-151 0 -225 -144 -225 -290c0 -133 62 -187 147 -187c58 0 116 25 164 56zM538 842c0 -49 -36 -84 -91 -84
s-91 35 -91 84s36 84 91 84s91 -35 91 -84z" />
    <glyph glyph-name="cdotaccent" unicode="&#x10b;" horiz-adv-x="449" 
d="M465 486l-51 -117c-28 18 -54 30 -88 30c-89 0 -141 -82 -141 -179c0 -80 35 -114 88 -114c34 0 74 13 105 33l9 -117c-37 -20 -90 -34 -145 -34c-128 0 -217 73 -217 224c0 168 110 310 296 310c65 0 109 -17 144 -36zM418 627c0 -49 -36 -84 -91 -84s-91 35 -91 84
s36 84 91 84s91 -35 91 -84z" />
    <glyph glyph-name="Ccaron" unicode="&#x10c;" horiz-adv-x="602" 
d="M521 175l16 -132c-55 -31 -126 -55 -206 -55c-167 0 -284 104 -284 310c0 226 141 434 393 434c81 0 150 -21 205 -55l-61 -130c-49 30 -95 49 -149 49c-151 0 -225 -144 -225 -290c0 -133 62 -187 147 -187c58 0 116 25 164 56zM531 909h123l-156 -147h-126l-102 147
h109l68 -49z" />
    <glyph glyph-name="ccaron" unicode="&#x10d;" horiz-adv-x="449" 
d="M465 486l-51 -117c-28 18 -54 30 -88 30c-89 0 -141 -82 -141 -179c0 -80 35 -114 88 -114c34 0 74 13 105 33l9 -117c-37 -20 -90 -34 -145 -34c-128 0 -217 73 -217 224c0 168 110 310 296 310c65 0 109 -17 144 -36zM411 720h122l-159 -167h-124l-100 167h108l65 -70z
" />
    <glyph glyph-name="Dcaron" unicode="&#x10e;" horiz-adv-x="719" 
d="M159 720h228c191 0 317 -115 317 -316c0 -211 -138 -404 -397 -404h-275zM218 131h89c157 0 234 130 234 269c0 129 -67 184 -154 184h-89zM531 909h123l-156 -147h-126l-102 147h109l68 -49z" />
    <glyph glyph-name="dcaron" unicode="&#x10f;" horiz-adv-x="617" 
d="M708 541h-110l54 179h153zM273 522c48 0 87 -16 126 -59l45 257h161l-107 -606c-9 -51 -12 -78 -12 -95c0 -9 1 -16 2 -19h-155c-3 6 -8 16 -8 31c0 6 1 13 2 22c-36 -41 -82 -65 -138 -65c-95 0 -166 69 -166 213c0 176 107 321 250 321zM258 111c25 0 53 9 86 42
l36 203c-26 24 -49 34 -76 34c-74 0 -120 -78 -120 -174c0 -82 34 -105 74 -105z" />
    <glyph glyph-name="Dcroat" unicode="&#x110;" horiz-adv-x="719" 
d="M22 313l18 103h65l54 304h228c191 0 317 -115 317 -316c0 -211 -138 -404 -397 -404h-275l55 313h-65zM218 131h89c157 0 234 130 234 269c0 129 -67 184 -154 184h-89l-30 -168h136l-18 -103h-136z" />
    <glyph glyph-name="dcroat" unicode="&#x111;" horiz-adv-x="587" 
d="M289 560l18 103h129l10 57h161l-10 -57h67l-18 -103h-68l-78 -446c-9 -51 -12 -78 -12 -95c0 -9 1 -16 2 -19h-155c-3 6 -8 16 -8 31c0 6 1 13 2 22c-36 -41 -82 -65 -138 -65c-95 0 -166 69 -166 213c0 176 107 321 250 321c48 0 87 -16 126 -59l17 97h-129zM260 111
c25 0 53 9 86 42l36 203c-26 24 -49 34 -76 34c-74 0 -120 -78 -120 -174c0 -82 34 -105 74 -105z" />
    <glyph glyph-name="Emacron" unicode="&#x112;" horiz-adv-x="590" 
d="M32 0l127 720h473l-24 -136h-310l-28 -156h269l-22 -128h-269l-30 -169h313l-23 -131h-476zM229 768l18 103h353l-18 -103h-353z" />
    <glyph glyph-name="emacron" unicode="&#x113;" horiz-adv-x="540" 
d="M326 522c128 0 195 -68 195 -154c0 -97 -84 -170 -285 -170c-18 0 -34 0 -49 1c6 -69 41 -97 107 -97c47 0 105 15 153 38l10 -114c-53 -23 -123 -38 -191 -38c-154 0 -241 76 -241 224c0 174 119 310 301 310zM315 412c-54 0 -103 -47 -121 -121h33c109 0 146 29 146 68
c0 28 -18 53 -58 53zM155 560l18 103h351l-18 -103h-351z" />
    <glyph glyph-name="Ebreve" unicode="&#x114;" horiz-adv-x="590" 
d="M32 0l127 720h473l-24 -136h-310l-28 -156h269l-22 -128h-269l-30 -169h313l-23 -131h-476zM418 763c-115 0 -173 44 -173 115c0 9 1 18 4 32h88c2 -31 20 -50 84 -50s91 19 102 50h88c-16 -92 -64 -147 -193 -147z" />
    <glyph glyph-name="ebreve" unicode="&#x115;" horiz-adv-x="540" 
d="M326 522c128 0 195 -68 195 -154c0 -97 -84 -170 -285 -170c-18 0 -34 0 -49 1c6 -69 41 -97 107 -97c47 0 105 15 153 38l10 -114c-53 -23 -123 -38 -191 -38c-154 0 -241 76 -241 224c0 174 119 310 301 310zM315 412c-54 0 -103 -47 -121 -121h33c109 0 146 29 146 68
c0 28 -18 53 -58 53zM344 559c-114 0 -169 48 -169 127c0 11 0 22 2 34h87c-1 -41 18 -64 83 -64s91 23 105 64h87c-17 -99 -67 -161 -195 -161z" />
    <glyph glyph-name="Edotaccent" unicode="&#x116;" horiz-adv-x="590" 
d="M32 0l127 720h473l-24 -136h-310l-28 -156h269l-22 -128h-269l-30 -169h313l-23 -131h-476zM507 842c0 -49 -36 -84 -91 -84s-91 35 -91 84s36 84 91 84s91 -35 91 -84z" />
    <glyph glyph-name="edotaccent" unicode="&#x117;" horiz-adv-x="540" 
d="M326 522c128 0 195 -68 195 -154c0 -97 -84 -170 -285 -170c-18 0 -34 0 -49 1c6 -69 41 -97 107 -97c47 0 105 15 153 38l10 -114c-53 -23 -123 -38 -191 -38c-154 0 -241 76 -241 224c0 174 119 310 301 310zM315 412c-54 0 -103 -47 -121 -121h33c109 0 146 29 146 68
c0 28 -18 53 -58 53zM434 629c0 -49 -36 -84 -91 -84s-91 35 -91 84s36 84 91 84s91 -35 91 -84z" />
    <glyph glyph-name="Eogonek" unicode="&#x118;" horiz-adv-x="590" 
d="M32 0l127 720h473l-24 -136h-310l-28 -156h269l-22 -128h-269l-30 -169h313l-23 -129c-88 -38 -113 -67 -113 -98c0 -22 13 -28 37 -28c9 0 20 1 32 4l5 -82c-19 -5 -47 -6 -61 -6c-82 0 -127 33 -127 92c0 44 25 83 96 116h-345z" />
    <glyph glyph-name="eogonek" unicode="&#x119;" horiz-adv-x="540" 
d="M326 522c128 0 195 -68 195 -154c0 -97 -84 -170 -285 -170c-18 0 -34 0 -49 1c6 -69 41 -97 107 -97c47 0 105 15 153 38l10 -114c-114 -51 -159 -84 -159 -122c0 -22 14 -28 41 -28c15 0 34 2 59 10l5 -82c-20 -5 -48 -12 -89 -12c-93 0 -130 35 -130 87
c0 38 20 75 73 109c-149 3 -232 79 -232 224c0 174 119 310 301 310zM315 412c-54 0 -103 -47 -121 -121h33c109 0 146 29 146 68c0 28 -18 53 -58 53z" />
    <glyph glyph-name="Ecaron" unicode="&#x11a;" horiz-adv-x="590" 
d="M32 0l127 720h473l-24 -136h-310l-28 -156h269l-22 -128h-269l-30 -169h313l-23 -131h-476zM499 909h123l-156 -147h-126l-102 147h109l68 -49z" />
    <glyph glyph-name="ecaron" unicode="&#x11b;" horiz-adv-x="540" 
d="M326 522c128 0 195 -68 195 -154c0 -97 -84 -170 -285 -170c-18 0 -34 0 -49 1c6 -69 41 -97 107 -97c47 0 105 15 153 38l10 -114c-53 -23 -123 -38 -191 -38c-154 0 -241 76 -241 224c0 174 119 310 301 310zM315 412c-54 0 -103 -47 -121 -121h33c109 0 146 29 146 68
c0 28 -18 53 -58 53zM429 720h122l-159 -167h-124l-100 167h108l65 -70z" />
    <glyph glyph-name="Gcircumflex" unicode="&#x11c;" horiz-adv-x="689" 
d="M372 114c25 0 48 3 71 8l27 148h-117l21 121h271l-61 -349c-67 -33 -147 -54 -232 -54c-192 0 -305 106 -305 314c0 234 142 430 409 430c97 0 174 -26 237 -67l-62 -131c-51 35 -106 62 -180 62c-164 0 -241 -130 -241 -289c0 -141 60 -193 162 -193zM390 762h-123
l156 147h126l102 -147h-109l-68 49z" />
    <glyph glyph-name="gcircumflex" unicode="&#x11d;" horiz-adv-x="587" 
d="M570 510l-88 -500c-27 -153 -142 -226 -290 -226c-70 0 -147 16 -206 45l51 116c54 -24 104 -37 148 -37c60 0 122 24 141 130l5 28c-38 -43 -83 -66 -138 -66c-96 0 -168 67 -168 208c0 171 105 314 251 314c51 0 91 -17 131 -65l9 53h154zM260 123c28 0 57 12 88 42
l34 191c-24 21 -46 34 -76 34c-73 0 -120 -74 -120 -166c0 -77 33 -101 74 -101zM275 553h-122l159 167h124l100 -167h-108l-65 70z" />
    <glyph glyph-name="Gbreve" unicode="&#x11e;" horiz-adv-x="689" 
d="M372 114c25 0 48 3 71 8l27 148h-117l21 121h271l-61 -349c-67 -33 -147 -54 -232 -54c-192 0 -305 106 -305 314c0 234 142 430 409 430c97 0 174 -26 237 -67l-62 -131c-51 35 -106 62 -180 62c-164 0 -241 -130 -241 -289c0 -141 60 -193 162 -193zM473 763
c-115 0 -173 44 -173 115c0 9 1 18 4 32h88c2 -31 20 -50 84 -50s91 19 102 50h88c-16 -92 -64 -147 -193 -147z" />
    <glyph glyph-name="gbreve" unicode="&#x11f;" horiz-adv-x="587" 
d="M570 510l-88 -500c-27 -153 -142 -226 -290 -226c-70 0 -147 16 -206 45l51 116c54 -24 104 -37 148 -37c60 0 122 24 141 130l5 28c-38 -43 -83 -66 -138 -66c-96 0 -168 67 -168 208c0 171 105 314 251 314c51 0 91 -17 131 -65l9 53h154zM260 123c28 0 57 12 88 42
l34 191c-24 21 -46 34 -76 34c-73 0 -120 -74 -120 -166c0 -77 33 -101 74 -101zM360 559c-114 0 -169 48 -169 127c0 11 0 22 2 34h87c-1 -41 18 -64 83 -64s91 23 105 64h87c-17 -99 -67 -161 -195 -161z" />
    <glyph glyph-name="Gdotaccent" unicode="&#x120;" horiz-adv-x="689" 
d="M372 114c25 0 48 3 71 8l27 148h-117l21 121h271l-61 -349c-67 -33 -147 -54 -232 -54c-192 0 -305 106 -305 314c0 234 142 430 409 430c97 0 174 -26 237 -67l-62 -131c-51 35 -106 62 -180 62c-164 0 -241 -130 -241 -289c0 -141 60 -193 162 -193zM562 842
c0 -49 -36 -84 -91 -84s-91 35 -91 84s36 84 91 84s91 -35 91 -84z" />
    <glyph glyph-name="gdotaccent" unicode="&#x121;" horiz-adv-x="587" 
d="M570 510l-88 -500c-27 -153 -142 -226 -290 -226c-70 0 -147 16 -206 45l51 116c54 -24 104 -37 148 -37c60 0 122 24 141 130l5 28c-38 -43 -83 -66 -138 -66c-96 0 -168 67 -168 208c0 171 105 314 251 314c51 0 91 -17 131 -65l9 53h154zM260 123c28 0 57 12 88 42
l34 191c-24 21 -46 34 -76 34c-73 0 -120 -74 -120 -166c0 -77 33 -101 74 -101zM450 629c0 -49 -36 -84 -91 -84s-91 35 -91 84s36 84 91 84s91 -35 91 -84z" />
    <glyph glyph-name="uni0122" unicode="&#x122;" horiz-adv-x="689" 
d="M372 114c25 0 48 3 71 8l27 148h-117l21 121h271l-61 -349c-67 -33 -147 -54 -232 -54c-192 0 -305 106 -305 314c0 234 142 430 409 430c97 0 174 -26 237 -67l-62 -131c-51 35 -106 62 -180 62c-164 0 -241 -130 -241 -289c0 -141 60 -193 162 -193zM193 -210
c45 14 71 30 86 46c-35 6 -55 31 -55 64c0 43 34 68 80 68c51 0 87 -31 87 -87c0 -50 -29 -113 -166 -159z" />
    <glyph glyph-name="uni0123" unicode="&#x123;" horiz-adv-x="587" 
d="M570 510l-88 -500c-27 -153 -142 -226 -290 -226c-70 0 -147 16 -206 45l51 116c54 -24 104 -37 148 -37c60 0 122 24 141 130l5 28c-38 -43 -83 -66 -138 -66c-96 0 -168 67 -168 208c0 171 105 314 251 314c51 0 91 -17 131 -65l9 53h154zM260 123c28 0 57 12 88 42
l34 191c-24 21 -46 34 -76 34c-73 0 -120 -74 -120 -166c0 -77 33 -101 74 -101zM435 797l32 -68c-45 -14 -71 -30 -86 -46c35 -6 55 -31 55 -64c0 -43 -34 -68 -80 -68c-51 0 -87 31 -87 87c0 50 29 113 166 159z" />
    <glyph glyph-name="Hcircumflex" unicode="&#x124;" horiz-adv-x="724" 
d="M32 0l127 720h163l-50 -284h243l50 284h163l-127 -720h-163l53 300h-243l-53 -300h-163zM383 762h-123l156 147h126l102 -147h-109l-68 49z" />
    <glyph glyph-name="hcircumflex" unicode="&#x125;" horiz-adv-x="578" 
d="M16 0l127 720h161l-49 -278c47 50 103 80 168 80c61 0 125 -27 125 -126c0 -13 -1 -33 -4 -50l-61 -346h-161l58 329c1 7 1 11 1 13c0 35 -17 45 -41 45c-37 0 -70 -23 -105 -57l-58 -330h-161zM312 753h-122l159 167h124l100 -167h-108l-65 70z" />
    <glyph glyph-name="Hbar" unicode="&#x126;" horiz-adv-x="724" 
d="M58 517l18 103h65l18 100h163l-18 -100h243l18 100h163l-18 -100h65l-18 -103h-65l-91 -517h-163l53 300h-243l-53 -300h-163l91 517h-65zM272 436h243l14 81h-243z" />
    <glyph glyph-name="hbar" unicode="&#x127;" horiz-adv-x="578" 
d="M49 560l18 103h66l10 57h161l-10 -57h130l-18 -103h-130l-21 -118c47 50 103 80 168 80c61 0 125 -27 125 -126c0 -13 -1 -33 -4 -50l-61 -346h-161l58 329c1 7 1 11 1 13c0 35 -17 45 -41 45c-37 0 -70 -23 -105 -57l-58 -330h-161l99 560h-66z" />
    <glyph glyph-name="Itilde" unicode="&#x128;" horiz-adv-x="329" 
d="M38 0l127 720h163l-127 -720h-163zM153 762h-92c17 92 57 145 130 145c65 0 115 -43 152 -43c19 0 31 11 36 37h92c-18 -96 -60 -145 -130 -145c-65 0 -115 43 -152 43c-19 0 -31 -11 -36 -37z" />
    <glyph glyph-name="itilde" unicode="&#x129;" horiz-adv-x="296" 
d="M22 0l90 510h161l-90 -510h-161zM98 559h-90c18 106 63 150 127 150c70 0 116 -53 154 -53c21 0 34 18 39 47h90c-18 -106 -63 -150 -127 -150c-70 0 -116 53 -154 53c-21 0 -34 -18 -39 -47z" />
    <glyph glyph-name="Imacron" unicode="&#x12a;" horiz-adv-x="329" 
d="M38 0l127 720h163l-127 -720h-163zM78 768l18 103h353l-18 -103h-353z" />
    <glyph glyph-name="imacron" unicode="&#x12b;" horiz-adv-x="296" 
d="M26 560l18 103h351l-18 -103h-351zM22 0l90 510h161l-90 -510h-161z" />
    <glyph glyph-name="Ibreve" unicode="&#x12c;" horiz-adv-x="329" 
d="M38 0l127 720h163l-127 -720h-163zM267 763c-115 0 -173 44 -173 115c0 9 1 18 4 32h88c2 -31 20 -50 84 -50s91 19 102 50h88c-16 -92 -64 -147 -193 -147z" />
    <glyph glyph-name="ibreve" unicode="&#x12d;" horiz-adv-x="296" 
d="M215 559c-114 0 -169 48 -169 127c0 11 0 22 2 34h87c-1 -41 18 -64 83 -64s91 23 105 64h87c-17 -99 -67 -161 -195 -161zM22 0l90 510h161l-90 -510h-161z" />
    <glyph glyph-name="Iogonek" unicode="&#x12e;" horiz-adv-x="329" 
d="M38 0l127 720h163l-127 -720h-37c-83 -36 -108 -65 -108 -96c0 -22 13 -28 37 -28c9 0 20 1 32 4l5 -82c-19 -5 -47 -6 -61 -6c-82 0 -127 33 -127 92c0 44 25 83 96 116z" />
    <glyph glyph-name="iogonek" unicode="&#x12f;" horiz-adv-x="296" 
d="M306 652c0 -49 -35 -84 -90 -84s-91 35 -91 84s36 84 91 84s90 -35 90 -84zM183 0h-35c-83 -36 -108 -65 -108 -96c0 -22 13 -28 37 -28c9 0 20 1 32 4l5 -82c-19 -5 -47 -6 -61 -6c-82 0 -127 33 -127 92c0 44 25 83 96 116l90 510h161z" />
    <glyph glyph-name="Idotaccent" unicode="&#x130;" horiz-adv-x="329" 
d="M38 0l127 720h163l-127 -720h-163zM356 842c0 -49 -36 -84 -91 -84s-91 35 -91 84s36 84 91 84s91 -35 91 -84z" />
    <glyph glyph-name="dotlessi" unicode="&#x131;" horiz-adv-x="296" 
d="M22 0l90 510h161l-90 -510h-161z" />
    <glyph glyph-name="IJ" unicode="&#x132;" horiz-adv-x="740" 
d="M38 0l127 720h163l-127 -720h-163zM302 1l23 132c21 -4 51 -8 76 -8c72 0 95 32 108 107l86 488h163l-91 -516c-24 -136 -73 -210 -264 -210c-39 0 -75 3 -101 7z" />
    <glyph glyph-name="ij" unicode="&#x133;" horiz-adv-x="591" 
d="M22 0l90 510h161l-90 -510h-161zM306 652c0 -49 -35 -84 -90 -84s-91 35 -91 84s36 84 91 84s90 -35 90 -84zM568 510l-102 -579c-15 -87 -61 -147 -190 -147c-24 0 -53 2 -79 6l20 114c14 -3 25 -4 34 -4c43 0 52 22 59 60l97 550h161zM601 652c0 -49 -35 -84 -90 -84
s-91 35 -91 84s36 84 91 84s90 -35 90 -84z" />
    <glyph glyph-name="Jcircumflex" unicode="&#x134;" horiz-adv-x="412" 
d="M-26 1l23 132c21 -4 51 -8 76 -8c72 0 95 32 108 107l86 488h163l-91 -516c-24 -136 -73 -210 -264 -210c-39 0 -75 3 -101 7zM289 762h-123l156 147h126l102 -147h-109l-68 49z" />
    <glyph glyph-name="jcircumflex" unicode="&#x135;" horiz-adv-x="296" 
d="M273 510l-102 -579c-15 -87 -61 -147 -190 -147c-24 0 -53 2 -79 6l20 114c14 -3 25 -4 34 -4c43 0 52 22 59 60l97 550h161zM130 553h-122l159 167h124l100 -167h-108l-65 70z" />
    <glyph glyph-name="uni0136" unicode="&#x136;" horiz-adv-x="682" 
d="M32 0l127 720h163l-52 -295l264 295h198l-280 -283l171 -437h-166l-121 319l-103 -104l-38 -215h-163zM177 -210c45 14 71 30 86 46c-35 6 -55 31 -55 64c0 43 34 68 80 68c51 0 87 -31 87 -87c0 -50 -29 -113 -166 -159z" />
    <glyph glyph-name="uni0137" unicode="&#x137;" horiz-adv-x="561" 
d="M16 0l127 720h161l-70 -396l166 186h179l-206 -198l127 -312h-156l-80 209l-61 -59l-26 -150h-161zM107 -210c45 14 71 30 86 46c-35 6 -55 31 -55 64c0 43 34 68 80 68c51 0 87 -31 87 -87c0 -50 -29 -113 -166 -159z" />
    <glyph glyph-name="kgreenlandic" unicode="&#x138;" horiz-adv-x="561" 
d="M16 0l90 510h161l-33 -186l166 186h179l-206 -198l127 -312h-156l-80 209l-61 -59l-26 -150h-161z" />
    <glyph glyph-name="Lacute" unicode="&#x139;" horiz-adv-x="540" 
d="M32 0l127 720h163l-103 -584h281l-24 -136h-444zM279 762h-133l105 147h190z" />
    <glyph glyph-name="lacute" unicode="&#x13a;" horiz-adv-x="296" 
d="M22 0l127 720h161l-127 -720h-161zM271 753h-132l108 167h190z" />
    <glyph glyph-name="uni013B" unicode="&#x13b;" horiz-adv-x="540" 
d="M32 0l127 720h163l-103 -584h281l-24 -136h-444zM125 -210c45 14 71 30 86 46c-35 6 -55 31 -55 64c0 43 34 68 80 68c51 0 87 -31 87 -87c0 -50 -29 -113 -166 -159z" />
    <glyph glyph-name="uni013C" unicode="&#x13c;" horiz-adv-x="296" 
d="M22 0l127 720h161l-127 -720h-161zM-41 -210c45 14 71 30 86 46c-35 6 -55 31 -55 64c0 43 34 68 80 68c51 0 87 -31 87 -87c0 -50 -29 -113 -166 -159z" />
    <glyph glyph-name="Lcaron" unicode="&#x13d;" horiz-adv-x="540" 
d="M438 541h-110l54 179h153zM32 0l127 720h163l-103 -584h281l-24 -136h-444z" />
    <glyph glyph-name="lcaron" unicode="&#x13e;" horiz-adv-x="326" 
d="M413 541h-110l54 179h153zM22 0l127 720h161l-127 -720h-161z" />
    <glyph glyph-name="Ldot" unicode="&#x13f;" horiz-adv-x="540" 
d="M32 0l127 720h163l-103 -584h281l-24 -136h-444zM530 361c0 -49 -36 -84 -91 -84s-91 35 -91 84s36 84 91 84s91 -35 91 -84z" />
    <glyph glyph-name="ldot" unicode="&#x140;" horiz-adv-x="429" 
d="M22 0l127 720h161l-127 -720h-161zM467 340c0 -49 -36 -84 -91 -84s-91 35 -91 84s36 84 91 84s91 -35 91 -84z" />
    <glyph glyph-name="Lslash" unicode="&#x141;" horiz-adv-x="540" 
d="M15 273l19 110l68 16l57 321h163l-50 -279l188 46l-19 -110l-188 -46l-34 -195h281l-24 -136h-444l51 289z" />
    <glyph glyph-name="lslash" unicode="&#x142;" horiz-adv-x="340" 
d="M26 297l19 107l74 18l53 298h161l-45 -257l74 18l-19 -107l-74 -18l-63 -356h-161l55 315z" />
    <glyph glyph-name="Nacute" unicode="&#x143;" horiz-adv-x="731" 
d="M32 0l127 720h171l178 -434l77 434h150l-127 -720h-136l-203 495l-87 -495h-150zM490 762h-133l105 147h190z" />
    <glyph glyph-name="nacute" unicode="&#x144;" horiz-adv-x="578" 
d="M16 0l90 510h161l-12 -68c47 50 103 80 168 80c61 0 125 -27 125 -126c0 -13 -1 -33 -4 -50l-61 -346h-161l58 329c1 7 1 11 1 13c0 35 -17 45 -41 45c-37 0 -70 -23 -105 -57l-58 -330h-161zM382 553h-132l108 167h190z" />
    <glyph glyph-name="uni0145" unicode="&#x145;" horiz-adv-x="731" 
d="M32 0l127 720h171l178 -434l77 434h150l-127 -720h-136l-203 495l-87 -495h-150zM189 -210c45 14 71 30 86 46c-35 6 -55 31 -55 64c0 43 34 68 80 68c51 0 87 -31 87 -87c0 -50 -29 -113 -166 -159z" />
    <glyph glyph-name="uni0146" unicode="&#x146;" horiz-adv-x="578" 
d="M16 0l90 510h161l-12 -68c47 50 103 80 168 80c61 0 125 -27 125 -126c0 -13 -1 -33 -4 -50l-61 -346h-161l58 329c1 7 1 11 1 13c0 35 -17 45 -41 45c-37 0 -70 -23 -105 -57l-58 -330h-161zM114 -210c45 14 71 30 86 46c-35 6 -55 31 -55 64c0 43 34 68 80 68
c51 0 87 -31 87 -87c0 -50 -29 -113 -166 -159z" />
    <glyph glyph-name="Ncaron" unicode="&#x147;" horiz-adv-x="731" 
d="M32 0l127 720h171l178 -434l77 434h150l-127 -720h-136l-203 495l-87 -495h-150zM549 909h123l-156 -147h-126l-102 147h109l68 -49z" />
    <glyph glyph-name="ncaron" unicode="&#x148;" horiz-adv-x="578" 
d="M16 0l90 510h161l-12 -68c47 50 103 80 168 80c61 0 125 -27 125 -126c0 -13 -1 -33 -4 -50l-61 -346h-161l58 329c1 7 1 11 1 13c0 35 -17 45 -41 45c-37 0 -70 -23 -105 -57l-58 -330h-161zM446 720h122l-159 -167h-124l-100 167h108l65 -70z" />
    <glyph glyph-name="napostrophe" unicode="&#x149;" horiz-adv-x="578" 
d="M16 0l90 510h161l-12 -68c47 50 103 80 168 80c61 0 125 -27 125 -126c0 -13 -1 -33 -4 -50l-61 -346h-161l58 329c1 7 1 11 1 13c0 35 -17 45 -41 45c-37 0 -70 -23 -105 -57l-58 -330h-161zM-50 554c45 14 71 30 86 46c-35 6 -55 31 -55 64c0 43 34 68 80 68
c51 0 87 -31 87 -87c0 -50 -29 -113 -166 -159z" />
    <glyph glyph-name="Eng" unicode="&#x14a;" horiz-adv-x="731" 
d="M32 0l127 720h171l178 -434l77 434h150l-132 -749c-16 -89 -62 -149 -191 -149c-24 0 -53 2 -79 6l20 114c14 -3 25 -4 34 -4c43 0 52 22 59 60l8 45l-185 452l-87 -495h-150z" />
    <glyph glyph-name="eng" unicode="&#x14b;" horiz-adv-x="578" 
d="M544 346l-66 -374c-16 -90 -61 -150 -190 -150c-24 0 -53 2 -79 6l20 114c14 -3 25 -4 34 -4c43 0 52 22 59 62l58 329c1 7 1 11 1 13c0 35 -17 45 -41 45c-37 0 -70 -23 -105 -57l-58 -330h-161l90 510h161l-12 -68c47 50 103 80 168 80c61 0 125 -27 125 -126
c0 -13 -1 -33 -4 -50z" />
    <glyph glyph-name="Omacron" unicode="&#x14c;" horiz-adv-x="723" 
d="M353 120c118 0 195 125 195 279c0 131 -56 197 -142 197c-118 0 -195 -125 -195 -279c0 -131 56 -197 142 -197zM346 -12c-172 0 -298 117 -298 329c0 230 149 415 365 415c172 0 298 -117 298 -329c0 -230 -149 -415 -365 -415zM266 768l18 103h353l-18 -103h-353z" />
    <glyph glyph-name="omacron" unicode="&#x14d;" horiz-adv-x="561" 
d="M260 101c70 0 115 85 115 187c0 80 -28 117 -74 117c-70 0 -115 -85 -115 -187c0 -80 28 -117 74 -117zM251 -12c-127 0 -226 75 -226 232c0 171 118 302 285 302c127 0 226 -75 226 -232c0 -171 -118 -302 -285 -302zM149 560l18 103h351l-18 -103h-351z" />
    <glyph glyph-name="Obreve" unicode="&#x14e;" horiz-adv-x="723" 
d="M353 120c118 0 195 125 195 279c0 131 -56 197 -142 197c-118 0 -195 -125 -195 -279c0 -131 56 -197 142 -197zM346 -12c-172 0 -298 117 -298 329c0 230 149 415 365 415c172 0 298 -117 298 -329c0 -230 -149 -415 -365 -415zM455 763c-115 0 -173 44 -173 115
c0 9 1 18 4 32h88c2 -31 20 -50 84 -50s91 19 102 50h88c-16 -92 -64 -147 -193 -147z" />
    <glyph glyph-name="obreve" unicode="&#x14f;" horiz-adv-x="561" 
d="M260 101c70 0 115 85 115 187c0 80 -28 117 -74 117c-70 0 -115 -85 -115 -187c0 -80 28 -117 74 -117zM251 -12c-127 0 -226 75 -226 232c0 171 118 302 285 302c127 0 226 -75 226 -232c0 -171 -118 -302 -285 -302zM338 559c-114 0 -169 48 -169 127c0 11 0 22 2 34
h87c-1 -41 18 -64 83 -64s91 23 105 64h87c-17 -99 -67 -161 -195 -161z" />
    <glyph glyph-name="Ohungarumlaut" unicode="&#x150;" horiz-adv-x="723" 
d="M353 120c118 0 195 125 195 279c0 131 -56 197 -142 197c-118 0 -195 -125 -195 -279c0 -131 56 -197 142 -197zM346 -12c-172 0 -298 117 -298 329c0 230 149 415 365 415c172 0 298 -117 298 -329c0 -230 -149 -415 -365 -415zM364 762h-133l105 147h190zM571 762h-133
l123 147h190z" />
    <glyph glyph-name="ohungarumlaut" unicode="&#x151;" horiz-adv-x="561" 
d="M260 101c70 0 115 85 115 187c0 80 -28 117 -74 117c-70 0 -115 -85 -115 -187c0 -80 28 -117 74 -117zM251 -12c-127 0 -226 75 -226 232c0 171 118 302 285 302c127 0 226 -75 226 -232c0 -171 -118 -302 -285 -302zM249 553h-133l109 167h189zM454 553h-133l127 167
h189z" />
    <glyph glyph-name="OE" unicode="&#x152;" horiz-adv-x="935" 
d="M853 0h-415c-33 -7 -68 -12 -104 -12c-170 0 -287 108 -287 314c0 227 141 430 398 430c36 0 72 -4 106 -12h426l-24 -136h-278l-28 -156h237l-22 -128h-237l-30 -169h281zM360 119c23 0 48 4 72 10l80 456c-24 7 -48 11 -73 11c-155 0 -229 -143 -229 -288
c0 -134 62 -189 150 -189z" />
    <glyph glyph-name="oe" unicode="&#x153;" horiz-adv-x="887" 
d="M260 101c70 0 115 85 115 187c0 80 -28 117 -74 117c-70 0 -115 -85 -115 -187c0 -80 28 -117 74 -117zM662 412c-54 0 -103 -47 -121 -121h33c109 0 146 29 146 68c0 28 -18 53 -58 53zM613 -12c-81 0 -143 21 -184 62c-47 -39 -108 -62 -178 -62
c-127 0 -226 75 -226 232c0 171 118 302 285 302c68 0 128 -22 169 -66c51 41 116 66 194 66c128 0 195 -68 195 -154c0 -97 -84 -170 -285 -170c-18 0 -34 0 -49 1c6 -69 41 -97 107 -97c47 0 105 15 153 38l10 -114c-53 -23 -123 -38 -191 -38z" />
    <glyph glyph-name="Racute" unicode="&#x154;" horiz-adv-x="704" 
d="M462 762h-133l105 147h190zM444 0l-109 286h-93l-50 -286h-160l127 720h272c153 0 244 -66 244 -202c0 -114 -64 -192 -181 -221l118 -297h-168zM263 402h118c90 0 134 36 134 103c0 58 -33 82 -102 82h-118z" />
    <glyph glyph-name="racute" unicode="&#x155;" horiz-adv-x="399" 
d="M436 516l-24 -136c-10 1 -27 2 -38 2c-69 0 -121 -46 -142 -69l-55 -313h-161l90 510h161l-15 -87c31 57 81 99 146 99c14 0 28 -2 38 -6zM311 553h-132l108 167h190z" />
    <glyph glyph-name="uni0156" unicode="&#x156;" horiz-adv-x="704" 
d="M167 -210c45 14 71 30 86 46c-35 6 -55 31 -55 64c0 43 34 68 80 68c51 0 87 -31 87 -87c0 -50 -29 -113 -166 -159zM444 0l-109 286h-93l-50 -286h-160l127 720h272c153 0 244 -66 244 -202c0 -114 -64 -192 -181 -221l118 -297h-168zM263 402h118c90 0 134 36 134 103
c0 58 -33 82 -102 82h-118z" />
    <glyph glyph-name="uni0157" unicode="&#x157;" horiz-adv-x="399" 
d="M436 516l-24 -136c-10 1 -27 2 -38 2c-69 0 -121 -46 -142 -69l-55 -313h-161l90 510h161l-15 -87c31 57 81 99 146 99c14 0 28 -2 38 -6zM-41 -210c45 14 71 30 86 46c-35 6 -55 31 -55 64c0 43 34 68 80 68c51 0 87 -31 87 -87c0 -50 -29 -113 -166 -159z" />
    <glyph glyph-name="Rcaron" unicode="&#x158;" horiz-adv-x="704" 
d="M521 909h123l-156 -147h-126l-102 147h109l68 -49zM444 0l-109 286h-93l-50 -286h-160l127 720h272c153 0 244 -66 244 -202c0 -114 -64 -192 -181 -221l118 -297h-168zM263 402h118c90 0 134 36 134 103c0 58 -33 82 -102 82h-118z" />
    <glyph glyph-name="rcaron" unicode="&#x159;" horiz-adv-x="399" 
d="M436 516l-24 -136c-10 1 -27 2 -38 2c-69 0 -121 -46 -142 -69l-55 -313h-161l90 510h161l-15 -87c31 57 81 99 146 99c14 0 28 -2 38 -6zM375 720h122l-159 -167h-124l-100 167h108l65 -70z" />
    <glyph glyph-name="Sacute" unicode="&#x15a;" horiz-adv-x="584" 
d="M1 49l61 124c61 -31 123 -55 187 -55c83 0 131 39 131 88c0 119 -282 80 -282 294c0 140 120 232 282 232c83 0 157 -24 219 -59l-62 -132c-49 31 -106 55 -163 55c-69 0 -113 -35 -113 -79c0 -112 282 -71 282 -290c0 -144 -121 -239 -298 -239c-84 0 -172 21 -244 61z
M421 762h-133l105 147h190z" />
    <glyph glyph-name="sacute" unicode="&#x15b;" horiz-adv-x="470" 
d="M462 479l-50 -115c-39 23 -85 39 -123 39c-37 0 -68 -16 -68 -42c0 -67 204 -32 204 -193c0 -111 -96 -180 -239 -180c-69 0 -140 16 -194 44l50 111c46 -23 99 -41 144 -41s84 18 84 49c0 70 -204 42 -204 197c0 105 92 174 223 174c64 0 125 -17 173 -43zM325 553h-132
l108 167h190z" />
    <glyph glyph-name="Scircumflex" unicode="&#x15c;" horiz-adv-x="584" 
d="M1 49l61 124c61 -31 123 -55 187 -55c83 0 131 39 131 88c0 119 -282 80 -282 294c0 140 120 232 282 232c83 0 157 -24 219 -59l-62 -132c-49 31 -106 55 -163 55c-69 0 -113 -35 -113 -79c0 -112 282 -71 282 -290c0 -144 -121 -239 -298 -239c-84 0 -172 21 -244 61z
M317 762h-123l156 147h126l102 -147h-109l-68 49z" />
    <glyph glyph-name="scircumflex" unicode="&#x15d;" horiz-adv-x="470" 
d="M462 479l-50 -115c-39 23 -85 39 -123 39c-37 0 -68 -16 -68 -42c0 -67 204 -32 204 -193c0 -111 -96 -180 -239 -180c-69 0 -140 16 -194 44l50 111c46 -23 99 -41 144 -41s84 18 84 49c0 70 -204 42 -204 197c0 105 92 174 223 174c64 0 125 -17 173 -43zM220 553h-122
l159 167h124l100 -167h-108l-65 70z" />
    <glyph glyph-name="Scedilla" unicode="&#x15e;" horiz-adv-x="584" 
d="M365 -95c0 -72 -58 -113 -152 -113c-58 0 -97 16 -129 33l31 75c26 -15 55 -26 84 -26c35 0 51 17 51 36c0 20 -17 38 -70 46l15 35c-68 6 -136 26 -194 58l61 124c61 -31 123 -55 187 -55c83 0 131 39 131 88c0 119 -282 80 -282 294c0 140 120 232 282 232
c83 0 157 -24 219 -59l-62 -132c-49 31 -106 55 -163 55c-69 0 -113 -35 -113 -79c0 -112 282 -71 282 -290c0 -127 -95 -216 -239 -235c41 -16 61 -45 61 -87z" />
    <glyph glyph-name="scedilla" unicode="&#x15f;" horiz-adv-x="470" 
d="M306 -95c0 -72 -58 -113 -152 -113c-58 0 -97 16 -129 33l31 75c26 -15 55 -26 84 -26c35 0 51 17 51 36c0 20 -17 38 -70 46l15 35c-52 5 -103 19 -144 41l50 111c46 -23 99 -41 144 -41s84 18 84 49c0 70 -204 42 -204 197c0 105 92 174 223 174c64 0 125 -17 173 -43
l-50 -115c-39 23 -85 39 -123 39c-37 0 -68 -16 -68 -42c0 -67 204 -32 204 -193c0 -95 -70 -160 -180 -176c41 -16 61 -45 61 -87z" />
    <glyph glyph-name="Scaron" unicode="&#x160;" horiz-adv-x="584" 
d="M1 49l61 124c61 -31 123 -55 187 -55c83 0 131 39 131 88c0 119 -282 80 -282 294c0 140 120 232 282 232c83 0 157 -24 219 -59l-62 -132c-49 31 -106 55 -163 55c-69 0 -113 -35 -113 -79c0 -112 282 -71 282 -290c0 -144 -121 -239 -298 -239c-84 0 -172 21 -244 61z
M480 909h123l-156 -147h-126l-102 147h109l68 -49z" />
    <glyph glyph-name="scaron" unicode="&#x161;" horiz-adv-x="470" 
d="M462 479l-50 -115c-39 23 -85 39 -123 39c-37 0 -68 -16 -68 -42c0 -67 204 -32 204 -193c0 -111 -96 -180 -239 -180c-69 0 -140 16 -194 44l50 111c46 -23 99 -41 144 -41s84 18 84 49c0 70 -204 42 -204 197c0 105 92 174 223 174c64 0 125 -17 173 -43zM389 720h122
l-159 -167h-124l-100 167h108l65 -70z" />
    <glyph glyph-name="uni0162" unicode="&#x162;" horiz-adv-x="583" 
d="M179 -44l20 44h-34l103 584h-191l24 136h545l-24 -136h-191l-103 -584h-52c59 -15 88 -44 88 -95c0 -72 -58 -113 -152 -113c-58 0 -97 16 -129 33l31 75c26 -15 55 -26 84 -26c35 0 51 17 51 36c0 20 -17 38 -70 46z" />
    <glyph glyph-name="uni0163" unicode="&#x163;" horiz-adv-x="373" 
d="M40 392l21 118h73l30 170h161l-30 -170h95l-21 -118h-95l-39 -223c-1 -6 -2 -11 -2 -18c0 -24 10 -36 40 -36c18 0 35 4 49 8l-22 -118c-23 -5 -50 -10 -82 -11c33 -19 49 -45 49 -85c0 -76 -58 -117 -152 -117c-58 0 -97 16 -129 33l31 75c26 -15 55 -26 84 -26
c35 0 51 17 51 41c0 20 -11 39 -65 51l23 50c-26 18 -42 47 -42 96c0 21 3 43 7 65l38 215h-73z" />
    <glyph glyph-name="Tcaron" unicode="&#x164;" horiz-adv-x="583" 
d="M165 0l103 584h-191l24 136h545l-24 -136h-191l-103 -584h-163zM475 909h123l-156 -147h-126l-102 147h109l68 -49z" />
    <glyph glyph-name="tcaron" unicode="&#x165;" horiz-adv-x="373" 
d="M434 541h-110l54 179h153zM40 392l21 118h73l30 170h161l-30 -170h95l-21 -118h-95l-39 -223c-1 -6 -2 -11 -2 -18c0 -24 10 -36 40 -36c18 0 35 4 49 8l-22 -118c-25 -6 -55 -11 -92 -11c-75 0 -140 21 -140 118c0 21 3 43 7 65l38 215h-73z" />
    <glyph glyph-name="Tbar" unicode="&#x166;" horiz-adv-x="583" 
d="M82 313l18 103h138l30 168h-191l24 136h545l-24 -136h-191l-30 -168h138l-18 -103h-138l-55 -313h-163l55 313h-138z" />
    <glyph glyph-name="tbar" unicode="&#x167;" horiz-adv-x="373" 
d="M40 392l21 118h73l30 170h161l-30 -170h95l-21 -118h-95l-14 -80h88l-19 -103h-87l-7 -40c-1 -6 -2 -11 -2 -18c0 -24 10 -36 40 -36c18 0 35 4 49 8l-22 -118c-25 -6 -55 -11 -92 -11c-76 0 -140 21 -140 120c0 21 3 39 7 63l5 32h-66l19 103h66l14 80h-73z" />
    <glyph glyph-name="Utilde" unicode="&#x168;" horiz-adv-x="689" 
d="M69 289l76 431h164l-80 -454c-3 -18 -4 -34 -4 -46c0 -73 37 -96 98 -96c72 0 126 33 145 142l80 454h158l-85 -481c-30 -170 -129 -251 -311 -251c-153 0 -249 57 -249 214c0 23 2 55 8 87zM333 762h-92c17 92 57 145 130 145c65 0 115 -43 152 -43c19 0 31 11 36 37h92
c-18 -96 -60 -145 -130 -145c-65 0 -115 43 -152 43c-19 0 -31 -11 -36 -37z" />
    <glyph glyph-name="utilde" unicode="&#x169;" horiz-adv-x="578" 
d="M561 510l-90 -510h-161l12 68c-47 -50 -103 -80 -168 -80c-61 0 -125 27 -125 126c0 13 1 33 4 50l61 346h161l-59 -334c-1 -7 -1 -11 -1 -13c0 -35 17 -45 41 -45c37 0 70 23 105 57l59 335h161zM233 559h-90c18 106 63 150 127 150c70 0 116 -53 154 -53
c21 0 34 18 39 47h90c-18 -106 -63 -150 -127 -150c-70 0 -116 53 -154 53c-21 0 -34 -18 -39 -47z" />
    <glyph glyph-name="Umacron" unicode="&#x16a;" horiz-adv-x="689" 
d="M69 289l76 431h164l-80 -454c-3 -18 -4 -34 -4 -46c0 -73 37 -96 98 -96c72 0 126 33 145 142l80 454h158l-85 -481c-30 -170 -129 -251 -311 -251c-153 0 -249 57 -249 214c0 23 2 55 8 87zM259 768l18 103h353l-18 -103h-353z" />
    <glyph glyph-name="umacron" unicode="&#x16b;" horiz-adv-x="578" 
d="M561 510l-90 -510h-161l12 68c-47 -50 -103 -80 -168 -80c-61 0 -125 27 -125 126c0 13 1 33 4 50l61 346h161l-59 -334c-1 -7 -1 -11 -1 -13c0 -35 17 -45 41 -45c37 0 70 23 105 57l59 335h161zM161 560l18 103h351l-18 -103h-351z" />
    <glyph glyph-name="Ubreve" unicode="&#x16c;" horiz-adv-x="689" 
d="M69 289l76 431h164l-80 -454c-3 -18 -4 -34 -4 -46c0 -73 37 -96 98 -96c72 0 126 33 145 142l80 454h158l-85 -481c-30 -170 -129 -251 -311 -251c-153 0 -249 57 -249 214c0 23 2 55 8 87zM454 763c-115 0 -173 44 -173 115c0 9 1 18 4 32h88c2 -31 20 -50 84 -50
s91 19 102 50h88c-16 -92 -64 -147 -193 -147z" />
    <glyph glyph-name="ubreve" unicode="&#x16d;" horiz-adv-x="578" 
d="M561 510l-90 -510h-161l12 68c-47 -50 -103 -80 -168 -80c-61 0 -125 27 -125 126c0 13 1 33 4 50l61 346h161l-59 -334c-1 -7 -1 -11 -1 -13c0 -35 17 -45 41 -45c37 0 70 23 105 57l59 335h161zM350 559c-114 0 -169 48 -169 127c0 11 0 22 2 34h87
c-1 -41 18 -64 83 -64s91 23 105 64h87c-17 -99 -67 -161 -195 -161z" />
    <glyph glyph-name="Uring" unicode="&#x16e;" horiz-adv-x="689" 
d="M69 289l76 431h164l-80 -454c-3 -18 -4 -34 -4 -46c0 -73 37 -96 98 -96c72 0 126 33 145 142l80 454h158l-85 -481c-30 -170 -129 -251 -311 -251c-153 0 -249 57 -249 214c0 23 2 55 8 87zM404 859c0 -22 16 -41 41 -41s41 19 41 41s-16 41 -41 41s-41 -19 -41 -41z
M551 859c0 -58 -44 -103 -106 -103s-106 45 -106 103s44 103 106 103s106 -45 106 -103z" />
    <glyph glyph-name="uring" unicode="&#x16f;" horiz-adv-x="578" 
d="M561 510l-90 -510h-161l12 68c-47 -50 -103 -80 -168 -80c-61 0 -125 27 -125 126c0 13 1 33 4 50l61 346h161l-59 -334c-1 -7 -1 -11 -1 -13c0 -35 17 -45 41 -45c37 0 70 23 105 57l59 335h161zM310 655c0 -22 16 -41 42 -41s42 19 42 41s-16 41 -42 41
s-42 -19 -42 -41zM458 655c0 -58 -45 -103 -106 -103s-106 45 -106 103s45 103 106 103s106 -45 106 -103z" />
    <glyph glyph-name="Uhungarumlaut" unicode="&#x170;" horiz-adv-x="689" 
d="M69 289l76 431h164l-80 -454c-3 -18 -4 -34 -4 -46c0 -73 37 -96 98 -96c72 0 126 33 145 142l80 454h158l-85 -481c-30 -170 -129 -251 -311 -251c-153 0 -249 57 -249 214c0 23 2 55 8 87zM357 762h-133l105 147h190zM564 762h-133l123 147h190z" />
    <glyph glyph-name="uhungarumlaut" unicode="&#x171;" horiz-adv-x="578" 
d="M561 510l-90 -510h-161l12 68c-47 -50 -103 -80 -168 -80c-61 0 -125 27 -125 126c0 13 1 33 4 50l61 346h161l-59 -334c-1 -7 -1 -11 -1 -13c0 -35 17 -45 41 -45c37 0 70 23 105 57l59 335h161zM264 553h-133l109 167h189zM469 553h-133l127 167h189z" />
    <glyph glyph-name="Uogonek" unicode="&#x172;" horiz-adv-x="689" 
d="M302 -96c0 -22 13 -28 37 -28c9 0 20 1 32 4l5 -82c-19 -5 -47 -6 -61 -6c-82 0 -127 33 -127 92c0 40 20 75 76 106c-126 11 -203 70 -203 211c0 23 2 56 8 88l76 431h164l-80 -454c-3 -18 -4 -34 -4 -46c0 -73 37 -96 98 -96c72 0 126 33 145 142l80 454h158l-85 -481
c-25 -140 -97 -219 -220 -243c-76 -34 -99 -62 -99 -92z" />
    <glyph glyph-name="uogonek" unicode="&#x173;" horiz-adv-x="578" 
d="M328 -96c0 -22 13 -28 37 -28c9 0 20 1 32 4l5 -82c-19 -5 -47 -6 -61 -6c-82 0 -127 33 -127 92c0 44 25 83 96 116l12 68c-47 -50 -103 -80 -168 -80c-61 0 -125 27 -125 126c0 13 1 33 4 50l61 346h161l-59 -334c-1 -7 -1 -11 -1 -13c0 -35 17 -45 41 -45
c37 0 70 23 105 57l59 335h161l-90 -510h-35c-83 -36 -108 -65 -108 -96z" />
    <glyph glyph-name="Wcircumflex" unicode="&#x174;" horiz-adv-x="960" 
d="M312 0h-159l-50 720h165l15 -319c3 -64 5 -128 1 -186h2c16 54 42 126 67 185l135 320h154l17 -324c4 -76 4 -126 1 -181h2c16 57 36 126 61 188l127 317h170l-307 -720h-159l-20 341c-4 66 -5 124 -4 183h-2c-24 -75 -56 -151 -71 -187zM500 762h-123l156 147h126
l102 -147h-109l-68 49z" />
    <glyph glyph-name="wcircumflex" unicode="&#x175;" horiz-adv-x="740" 
d="M403 0l-14 206c-3 44 -4 85 -2 123h-3c-12 -38 -27 -77 -45 -117l-95 -212h-152l-45 510h146l15 -207c3 -41 4 -77 2 -121h2c11 37 30 85 45 119l92 209h139l13 -206c3 -47 4 -69 2 -122h2c10 41 20 76 39 121l88 207h152l-229 -510h-152zM353 553h-122l159 167h124
l100 -167h-108l-65 70z" />
    <glyph glyph-name="Ycircumflex" unicode="&#x176;" horiz-adv-x="649" 
d="M198 0l51 290l-158 430h159l99 -281l198 281h175l-310 -430l-51 -290h-163zM345 762h-123l156 147h126l102 -147h-109l-68 49z" />
    <glyph glyph-name="ycircumflex" unicode="&#x177;" horiz-adv-x="509" 
d="M-52 -211l22 125c16 -3 35 -5 53 -5c55 0 86 18 129 103h-42l-66 498h159l32 -374l158 374h162l-252 -521c-79 -162 -131 -205 -269 -205c-30 0 -60 2 -86 5zM237 553h-122l159 167h124l100 -167h-108l-65 70z" />
    <glyph glyph-name="Ydieresis" unicode="&#x178;" horiz-adv-x="649" 
d="M198 0l51 290l-158 430h159l99 -281l198 281h175l-310 -430l-51 -290h-163zM396 837c0 -42 -32 -74 -76 -74s-76 32 -76 74s32 74 76 74s76 -32 76 -74zM610 837c0 -42 -32 -74 -76 -74s-76 32 -76 74s32 74 76 74s76 -32 76 -74z" />
    <glyph glyph-name="Zacute" unicode="&#x179;" horiz-adv-x="615" 
d="M-16 0l20 111l404 473h-301l24 136h526l-20 -116l-404 -473h321l-23 -131h-547zM431 762h-133l105 147h190z" />
    <glyph glyph-name="zacute" unicode="&#x17a;" horiz-adv-x="498" 
d="M-23 0l18 101l287 292h-221l21 117h427l-17 -98l-287 -292h237l-21 -120h-444zM335 553h-132l108 167h190z" />
    <glyph glyph-name="Zdotaccent" unicode="&#x17b;" horiz-adv-x="615" 
d="M-16 0l20 111l404 473h-301l24 136h526l-20 -116l-404 -473h321l-23 -131h-547zM499 842c0 -49 -36 -84 -91 -84s-91 35 -91 84s36 84 91 84s91 -35 91 -84z" />
    <glyph glyph-name="zdotaccent" unicode="&#x17c;" horiz-adv-x="498" 
d="M-23 0l18 101l287 292h-221l21 117h427l-17 -98l-287 -292h237l-21 -120h-444zM405 629c0 -49 -36 -84 -91 -84s-91 35 -91 84s36 84 91 84s91 -35 91 -84z" />
    <glyph glyph-name="Zcaron" unicode="&#x17d;" horiz-adv-x="615" 
d="M-16 0l20 111l404 473h-301l24 136h526l-20 -116l-404 -473h321l-23 -131h-547zM490 909h123l-156 -147h-126l-102 147h109l68 -49z" />
    <glyph glyph-name="zcaron" unicode="&#x17e;" horiz-adv-x="498" 
d="M-23 0l18 101l287 292h-221l21 117h427l-17 -98l-287 -292h237l-21 -120h-444zM400 720h122l-159 -167h-124l-100 167h108l65 -70z" />
    <glyph glyph-name="longs" unicode="&#x17f;" horiz-adv-x="346" 
d="M40 392l21 118h73l12 69c15 87 61 147 190 147c24 0 53 -2 79 -6l-20 -114c-14 3 -25 4 -34 4c-43 0 -52 -22 -59 -60l-97 -550h-161l69 392h-73z" />
    <glyph glyph-name="uni018F" unicode="&#x18f;" horiz-adv-x="701" 
d="M65 420h460c-5 129 -63 176 -156 176c-67 0 -142 -24 -208 -61l-16 137c66 36 158 60 243 60c185 0 301 -115 301 -329c0 -232 -136 -415 -365 -415c-171 0 -279 102 -279 295c0 52 8 97 20 137zM332 117c96 0 159 77 183 183h-307v-14c0 -112 42 -169 124 -169z" />
    <glyph glyph-name="florin" unicode="&#x192;" horiz-adv-x="472" 
d="M471 616c-55 0 -75 -22 -90 -75l-38 -133h135l-17 -97h-145l-87 -311h-157l88 311h-123l17 97h133l45 159c30 105 73 165 235 165c21 0 50 -1 68 -4l-21 -116c-14 3 -31 4 -43 4z" />
    <glyph glyph-name="uni01B5" unicode="&#x1b5;" horiz-adv-x="615" 
d="M95 313l18 103h151l144 168h-301l24 136h526l-20 -116l-161 -188h91l-18 -103h-161l-155 -182h321l-23 -131h-547l20 111l172 202h-81z" />
    <glyph glyph-name="uni01B6" unicode="&#x1b6;" horiz-adv-x="498" 
d="M51 209l18 103h133l80 81h-221l21 117h427l-17 -98l-99 -100h55l-18 -103h-138l-87 -89h237l-21 -120h-444l18 101l106 108h-50z" />
    <glyph glyph-name="Aringacute" unicode="&#x1fa;" horiz-adv-x="695" 
d="M487 863h-133l105 102h190zM549 744c0 -20 -6 -39 -16 -54l100 -690h-163l-17 146h-243l-67 -146h-171l355 702c-6 13 -9 27 -9 42c0 58 48 103 115 103c68 0 116 -45 116 -103zM403 564l-137 -297h172zM389 744c0 -22 17 -41 44 -41c28 0 45 19 45 41s-17 41 -45 41
c-27 0 -44 -19 -44 -41z" />
    <glyph glyph-name="aringacute" unicode="&#x1fb;" horiz-adv-x="579" 
d="M484 0h-155c-3 6 -8 16 -8 31c0 6 0 13 2 22c-35 -40 -80 -65 -137 -65c-93 0 -161 68 -161 210c0 178 106 324 249 324c51 0 88 -18 126 -66l10 54h154l-70 -396c-9 -49 -12 -76 -12 -94c0 -9 0 -16 2 -20zM255 111c25 0 54 10 85 42l37 205c-24 22 -45 32 -71 32
c-73 0 -120 -76 -120 -175c0 -79 30 -104 69 -104zM319 638c0 -22 16 -41 42 -41s42 19 42 41s-16 41 -42 41s-42 -19 -42 -41zM467 638c0 -58 -45 -103 -106 -103s-106 45 -106 103s45 103 106 103s106 -45 106 -103zM419 757h-132l108 117h190z" />
    <glyph glyph-name="AEacute" unicode="&#x1fc;" horiz-adv-x="946" 
d="M-30 0l485 720h533l-24 -136h-278l-28 -156h237l-22 -128h-237l-30 -169h281l-23 -131h-444l26 146h-203l-91 -146h-182zM318 267h149l59 334zM765 762h-133l105 147h190z" />
    <glyph glyph-name="aeacute" unicode="&#x1fd;" horiz-adv-x="838" 
d="M512 553h-132l108 167h190zM624 522c128 0 195 -68 195 -154c0 -97 -84 -170 -285 -170c-18 0 -34 0 -49 1c6 -69 41 -97 107 -97c47 0 105 15 153 38l10 -114c-53 -23 -123 -38 -191 -38c-89 0 -156 25 -196 75c-51 -45 -121 -75 -195 -75c-98 0 -165 52 -165 148
c0 109 88 183 253 183c27 0 49 -2 74 -5l1 7c2 11 4 22 4 32c0 33 -22 46 -69 46c-53 0 -107 -17 -165 -40l-9 120c53 22 132 43 215 43c62 0 115 -12 148 -45c45 28 101 45 164 45zM224 103c31 0 68 14 106 43c-5 20 -7 42 -7 66v13c-21 3 -39 4 -51 4
c-69 0 -107 -32 -107 -74c0 -34 24 -52 59 -52zM613 412c-54 0 -103 -47 -121 -121h33c109 0 146 29 146 68c0 28 -18 53 -58 53z" />
    <glyph glyph-name="Oslashacute" unicode="&#x1fe;" horiz-adv-x="723" 
d="M476 762h-133l105 147h190zM353 116c120 0 199 126 199 284c0 18 -1 35 -4 52l-305 -280c25 -37 63 -56 110 -56zM207 317c0 -18 1 -34 3 -50l304 279c-25 36 -63 54 -108 54c-120 0 -199 -127 -199 -283zM41 -12l-62 68l102 93c-21 47 -33 103 -33 168
c0 230 149 415 365 415c85 0 160 -29 213 -85l92 85l62 -68l-103 -94c22 -46 34 -102 34 -167c0 -230 -149 -415 -365 -415c-86 0 -160 29 -213 84z" />
    <glyph glyph-name="oslashacute" unicode="&#x1ff;" horiz-adv-x="561" 
d="M358 553h-132l108 167h190zM259 92c76 0 125 87 125 196v11l-187 -174c15 -23 36 -33 62 -33zM177 218v-8l185 173c-14 21 -35 31 -61 31c-75 0 -124 -88 -124 -196zM251 -12c-58 0 -110 15 -150 47l-70 -66l-53 55l75 70c-18 34 -28 76 -28 126c0 171 118 302 285 302
c58 0 110 -16 149 -47l71 66l53 -55l-75 -71c18 -33 28 -75 28 -125c0 -171 -118 -302 -285 -302z" />
    <glyph glyph-name="uni0218" unicode="&#x218;" horiz-adv-x="584" 
d="M1 49l61 124c61 -31 123 -55 187 -55c83 0 131 39 131 88c0 119 -282 80 -282 294c0 140 120 232 282 232c83 0 157 -24 219 -59l-62 -132c-49 31 -106 55 -163 55c-69 0 -113 -35 -113 -79c0 -112 282 -71 282 -290c0 -144 -121 -239 -298 -239c-84 0 -172 21 -244 61z
M114 -210c45 14 71 30 86 46c-35 6 -55 31 -55 64c0 43 34 68 80 68c51 0 87 -31 87 -87c0 -50 -29 -113 -166 -159z" />
    <glyph glyph-name="uni0219" unicode="&#x219;" horiz-adv-x="470" 
d="M462 479l-50 -115c-39 23 -85 39 -123 39c-37 0 -68 -16 -68 -42c0 -67 204 -32 204 -193c0 -111 -96 -180 -239 -180c-69 0 -140 16 -194 44l50 111c46 -23 99 -41 144 -41s84 18 84 49c0 70 -204 42 -204 197c0 105 92 174 223 174c64 0 125 -17 173 -43zM55 -210
c45 14 71 30 86 46c-35 6 -55 31 -55 64c0 43 34 68 80 68c51 0 87 -31 87 -87c0 -50 -29 -113 -166 -159z" />
    <glyph glyph-name="uni021A" unicode="&#x21a;" horiz-adv-x="583" 
d="M165 0l103 584h-191l24 136h545l-24 -136h-191l-103 -584h-163zM113 -210c45 14 71 30 86 46c-35 6 -55 31 -55 64c0 43 34 68 80 68c51 0 87 -31 87 -87c0 -50 -29 -113 -166 -159z" />
    <glyph glyph-name="uni021B" unicode="&#x21b;" horiz-adv-x="373" 
d="M32 -210c45 14 71 30 86 46c-35 6 -55 31 -55 64c0 43 34 68 80 68c51 0 87 -31 87 -87c0 -50 -29 -113 -166 -159zM40 392l21 118h73l30 170h161l-30 -170h95l-21 -118h-95l-39 -223c-1 -6 -2 -11 -2 -18c0 -24 10 -36 40 -36c18 0 35 4 49 8l-22 -118
c-25 -6 -55 -11 -92 -11c-75 0 -140 21 -140 118c0 21 3 43 7 65l38 215h-73z" />
    <glyph glyph-name="uni0237" unicode="&#x237;" horiz-adv-x="296" 
d="M273 510l-102 -579c-15 -87 -61 -147 -190 -147c-24 0 -53 2 -79 6l20 114c14 -3 25 -4 34 -4c43 0 52 22 59 60l97 550h161z" />
    <glyph glyph-name="uni0259" unicode="&#x259;" horiz-adv-x="528" 
d="M205 -12c-129 0 -197 68 -197 155c0 96 84 170 279 170c23 0 38 -1 53 -2c-7 63 -38 92 -102 92c-46 0 -100 -15 -145 -38l-11 119c52 23 120 38 185 38c149 0 236 -79 236 -228c0 -173 -118 -306 -298 -306zM217 95c55 0 102 48 119 126c-13 0 -17 1 -36 1
c-103 0 -143 -31 -143 -72c0 -30 20 -55 60 -55z" />
    <glyph glyph-name="uni02BB" unicode="&#x2bb;" horiz-adv-x="285" 
d="M181 379c-61 0 -108 44 -108 124c0 74 41 154 202 228l55 -75c-80 -35 -119 -70 -136 -105c47 -5 79 -39 79 -85c0 -49 -36 -87 -92 -87z" />
    <glyph glyph-name="uni02BC" unicode="&#x2bc;" horiz-adv-x="285" 
d="M208 732c61 0 108 -44 108 -124c0 -74 -41 -154 -202 -228l-55 75c80 35 119 70 136 105c-47 5 -79 39 -79 85c0 49 36 87 92 87z" />
    <glyph glyph-name="circumflex" unicode="&#x2c6;" horiz-adv-x="500" 
d="M233 553h-122l159 167h124l100 -167h-108l-65 70z" />
    <glyph glyph-name="caron" unicode="&#x2c7;" horiz-adv-x="500" 
d="M402 720h122l-159 -167h-124l-100 167h108l65 -70z" />
    <glyph glyph-name="breve" unicode="&#x2d8;" horiz-adv-x="500" 
d="M317 559c-114 0 -169 48 -169 127c0 11 0 22 2 34h87c-1 -41 18 -64 83 -64s91 23 105 64h87c-17 -99 -67 -161 -195 -161z" />
    <glyph glyph-name="dotaccent" unicode="&#x2d9;" horiz-adv-x="500" 
d="M407 636c0 -49 -36 -84 -91 -84s-91 35 -91 84s36 84 91 84s91 -35 91 -84z" />
    <glyph glyph-name="ring" unicode="&#x2da;" horiz-adv-x="500" 
d="M277 655c0 -22 16 -41 42 -41s42 19 42 41s-16 41 -42 41s-42 -19 -42 -41zM425 655c0 -58 -45 -103 -106 -103s-106 45 -106 103s45 103 106 103s106 -45 106 -103z" />
    <glyph glyph-name="ogonek" unicode="&#x2db;" horiz-adv-x="500" 
d="M196 -96c0 -22 13 -28 37 -28c9 0 20 1 32 4l5 -82c-19 -5 -47 -6 -61 -6c-82 0 -127 33 -127 92c0 44 25 83 96 116h126c-83 -36 -108 -65 -108 -96z" />
    <glyph glyph-name="tilde" unicode="&#x2dc;" horiz-adv-x="500" 
d="M201 559h-90c18 106 63 150 127 150c70 0 116 -53 154 -53c21 0 34 18 39 47h90c-18 -106 -63 -150 -127 -150c-70 0 -116 53 -154 53c-21 0 -34 -18 -39 -47z" />
    <glyph glyph-name="hungarumlaut" unicode="&#x2dd;" horiz-adv-x="500" 
d="M228 553h-133l109 167h189zM433 553h-133l127 167h189z" />
    <glyph glyph-name="gravecomb" unicode="&#x300;" horiz-adv-x="1" 
d="M-142 553h-122l-117 167h168z" />
    <glyph glyph-name="acutecomb" unicode="&#x301;" horiz-adv-x="1" 
d="M-203 553h-132l108 167h190z" />
    <glyph glyph-name="uni0302" unicode="&#x302;" horiz-adv-x="1" 
d="M-308 553h-122l159 167h124l100 -167h-108l-65 70z" />
    <glyph glyph-name="tildecomb" unicode="&#x303;" horiz-adv-x="1" 
d="M-340 559h-90c18 106 63 150 127 150c70 0 116 -53 154 -53c21 0 34 18 39 47h90c-18 -106 -63 -150 -127 -150c-70 0 -116 53 -154 53c-21 0 -34 -18 -39 -47z" />
    <glyph glyph-name="uni0304" unicode="&#x304;" horiz-adv-x="1" 
d="M-412 560l18 103h351l-18 -103h-351z" />
    <glyph glyph-name="uni0306" unicode="&#x306;" horiz-adv-x="1" 
d="M-223 559c-114 0 -169 48 -169 127c0 11 0 22 2 34h87c-1 -41 18 -64 83 -64s91 23 105 64h87c-17 -99 -67 -161 -195 -161z" />
    <glyph glyph-name="uni0307" unicode="&#x307;" horiz-adv-x="1" 
d="M-133 636c0 -49 -36 -84 -91 -84s-91 35 -91 84s36 84 91 84s91 -35 91 -84z" />
    <glyph glyph-name="uni0308" unicode="&#x308;" horiz-adv-x="1" 
d="M-256 629c0 -42 -32 -74 -76 -74s-76 32 -76 74s32 74 76 74s76 -32 76 -74zM-42 629c0 -42 -32 -74 -76 -74s-76 32 -76 74s32 74 76 74s76 -32 76 -74z" />
    <glyph glyph-name="uni030A" unicode="&#x30a;" horiz-adv-x="1" 
d="M-264 655c0 -22 16 -41 42 -41s42 19 42 41s-16 41 -42 41s-42 -19 -42 -41zM-116 655c0 -58 -45 -103 -106 -103s-106 45 -106 103s45 103 106 103s106 -45 106 -103z" />
    <glyph glyph-name="uni030B" unicode="&#x30b;" horiz-adv-x="1" 
d="M-312 553h-133l109 167h189zM-107 553h-133l127 167h189z" />
    <glyph glyph-name="uni030C" unicode="&#x30c;" horiz-adv-x="1" 
d="M-119 720h122l-159 -167h-124l-100 167h108l65 -70z" />
    <glyph glyph-name="uni0312" unicode="&#x312;" horiz-adv-x="1" 
d="M-151 797l32 -68c-45 -14 -71 -30 -86 -46c35 -6 55 -31 55 -64c0 -43 -34 -68 -80 -68c-51 0 -87 31 -87 87c0 50 29 113 166 159z" />
    <glyph glyph-name="uni0313" unicode="&#x313;" horiz-adv-x="1" 
d="M-317 617c45 14 71 30 86 46c-35 6 -55 31 -55 64c0 43 34 68 80 68c51 0 87 -31 87 -87c0 -50 -29 -113 -166 -159z" />
    <glyph glyph-name="uni0326" unicode="&#x326;" horiz-adv-x="1" 
d="M-443 -210c45 14 71 30 86 46c-35 6 -55 31 -55 64c0 43 34 68 80 68c51 0 87 -31 87 -87c0 -50 -29 -113 -166 -159z" />
    <glyph glyph-name="uni0327" unicode="&#x327;" horiz-adv-x="1" 
d="M-196 -95c0 -72 -58 -113 -152 -113c-58 0 -97 16 -129 33l31 75c26 -15 55 -26 84 -26c35 0 51 17 51 36c0 20 -17 38 -70 46l24 53c109 -3 161 -37 161 -104z" />
    <glyph glyph-name="uni0328" unicode="&#x328;" horiz-adv-x="1" 
d="M-319 -96c0 -22 13 -28 37 -28c9 0 20 1 32 4l5 -82c-19 -5 -47 -6 -61 -6c-82 0 -127 33 -127 92c0 44 25 83 96 116h126c-83 -36 -108 -65 -108 -96z" />
    <glyph glyph-name="uni0335" unicode="&#x335;" horiz-adv-x="1" 
d="M-496 231l23 133h420l-23 -133h-420z" />
    <glyph glyph-name="uni0336" unicode="&#x336;" horiz-adv-x="1" 
d="M-996 231l23 133h920l-23 -133h-920z" />
    <glyph glyph-name="uni037E" unicode="&#x37e;" horiz-adv-x="301" 
d="M110 172c61 0 108 -44 108 -124c0 -74 -41 -154 -202 -228l-55 75c80 35 119 70 136 105c-47 5 -79 39 -79 85c0 49 36 87 92 87zM174 316c-56 0 -96 40 -96 92s40 92 96 92s96 -40 96 -92s-40 -92 -96 -92z" />
    <glyph glyph-name="tonos" unicode="&#x384;" horiz-adv-x="500" 
d="M353 553h-127l71 167h183z" />
    <glyph glyph-name="dieresistonos" unicode="&#x385;" horiz-adv-x="500" 
d="M398 705h-131l48 127h175zM282 620c0 -42 -32 -74 -76 -74s-76 32 -76 74s32 74 76 74s76 -32 76 -74zM496 620c0 -42 -32 -74 -76 -74s-76 32 -76 74s32 74 76 74s76 -32 76 -74z" />
    <glyph glyph-name="Alphatonos" unicode="&#x386;" horiz-adv-x="695" 
d="M154 553h-127l71 167h183zM529 720l104 -720h-163l-17 146h-243l-67 -146h-171l364 720h193zM403 564l-137 -297h172z" />
    <glyph glyph-name="anoteleia" unicode="&#x387;" horiz-adv-x="301" 
d="M149 165c-56 0 -96 40 -96 92s40 92 96 92s96 -40 96 -92s-40 -92 -96 -92z" />
    <glyph glyph-name="Epsilontonos" unicode="&#x388;" horiz-adv-x="722" 
d="M140 553h-127l71 167h183zM164 0l127 720h473l-24 -136h-310l-28 -156h269l-22 -128h-269l-30 -169h313l-23 -131h-476z" />
    <glyph glyph-name="Etatonos" unicode="&#x389;" horiz-adv-x="856" 
d="M140 553h-127l71 167h183zM164 0l127 720h163l-50 -284h243l50 284h163l-127 -720h-163l53 300h-243l-53 -300h-163z" />
    <glyph glyph-name="Iotatonos" unicode="&#x38a;" horiz-adv-x="458" 
d="M140 553h-127l71 167h183zM167 0l127 720h163l-127 -720h-163z" />
    <glyph glyph-name="Omicrontonos" unicode="&#x38c;" horiz-adv-x="818" 
d="M140 553h-127l71 167h183zM448 120c118 0 195 125 195 279c0 131 -56 197 -142 197c-118 0 -195 -125 -195 -279c0 -131 56 -197 142 -197zM441 -12c-172 0 -298 117 -298 329c0 230 149 415 365 415c172 0 298 -117 298 -329c0 -230 -149 -415 -365 -415z" />
    <glyph glyph-name="Upsilontonos" unicode="&#x38e;" horiz-adv-x="829" 
d="M140 553h-127l71 167h183zM377 0l51 290l-158 430h159l99 -281l198 281h175l-310 -430l-51 -290h-163z" />
    <glyph glyph-name="Omegatonos" unicode="&#x38f;" horiz-adv-x="819" 
d="M140 553h-127l71 167h183zM505 596c-106 0 -189 -84 -189 -244c0 -94 29 -162 78 -240l-20 -112h-306l23 131h147c-53 60 -85 138 -85 235c0 211 152 366 356 366c175 0 303 -113 303 -297c0 -119 -54 -229 -154 -304h139l-23 -131h-301l20 112c99 98 156 180 156 304
c0 128 -60 180 -144 180z" />
    <glyph glyph-name="iotadieresistonos" unicode="&#x390;" horiz-adv-x="321" 
d="M46 121c0 27 4 47 8 72l56 317h161l-57 -323c-2 -10 -5 -29 -5 -43c0 -25 9 -35 33 -35c14 0 32 3 47 7l-20 -113c-22 -5 -49 -9 -82 -9c-95 0 -141 35 -141 127zM293 705h-131l48 127h175zM177 620c0 -42 -32 -74 -76 -74s-76 32 -76 74s32 74 76 74s76 -32 76 -74z
M391 620c0 -42 -32 -74 -76 -74s-76 32 -76 74s32 74 76 74s76 -32 76 -74z" />
    <glyph glyph-name="Alpha" unicode="&#x391;" horiz-adv-x="695" 
d="M529 720l104 -720h-163l-17 146h-243l-67 -146h-171l364 720h193zM403 564l-137 -297h172z" />
    <glyph glyph-name="Beta" unicode="&#x392;" horiz-adv-x="672" 
d="M32 0l127 720h242c148 0 245 -56 245 -180c0 -85 -45 -148 -135 -178c74 -28 107 -82 107 -153c0 -121 -96 -209 -292 -209h-294zM214 122h112c88 0 131 36 131 100c0 57 -34 82 -99 82h-112zM266 420h95c83 0 124 35 124 95c0 55 -33 78 -94 78h-94z" />
    <glyph glyph-name="Gamma" unicode="&#x393;" horiz-adv-x="540" 
d="M32 0l127 720h444l-24 -136h-281l-103 -584h-163z" />
    <glyph glyph-name="uni0394" unicode="&#x394;" horiz-adv-x="695" 
d="M529 720l88 -608l-19 -112h-590l20 112l308 608h193zM403 564l-200 -433h251z" />
    <glyph glyph-name="Epsilon" unicode="&#x395;" horiz-adv-x="590" 
d="M32 0l127 720h473l-24 -136h-310l-28 -156h269l-22 -128h-269l-30 -169h313l-23 -131h-476z" />
    <glyph glyph-name="Zeta" unicode="&#x396;" horiz-adv-x="615" 
d="M-16 0l20 111l404 473h-301l24 136h526l-20 -116l-404 -473h321l-23 -131h-547z" />
    <glyph glyph-name="Eta" unicode="&#x397;" horiz-adv-x="724" 
d="M32 0l127 720h163l-50 -284h243l50 284h163l-127 -720h-163l53 300h-243l-53 -300h-163z" />
    <glyph glyph-name="Theta" unicode="&#x398;" horiz-adv-x="723" 
d="M352 120c93 0 161 74 188 178h-333c6 -119 62 -178 145 -178zM406 596c-90 0 -157 -70 -185 -170h330c-8 113 -64 170 -145 170zM346 -12c-172 0 -298 117 -298 329c0 230 149 415 365 415c172 0 298 -117 298 -329c0 -230 -149 -415 -365 -415z" />
    <glyph glyph-name="Iota" unicode="&#x399;" horiz-adv-x="329" 
d="M38 0l127 720h163l-127 -720h-163z" />
    <glyph glyph-name="Kappa" unicode="&#x39a;" horiz-adv-x="682" 
d="M32 0l127 720h163l-52 -295l264 295h198l-280 -283l171 -437h-166l-121 319l-103 -104l-38 -215h-163z" />
    <glyph glyph-name="Lambda" unicode="&#x39b;" horiz-adv-x="666" 
d="M502 720l102 -720h-157l-65 515l-245 -515h-165l361 720h169z" />
    <glyph glyph-name="Mu" unicode="&#x39c;" horiz-adv-x="963" 
d="M506 0h-146l-45 373c-7 56 -11 99 -14 152h-2c-13 -61 -24 -113 -35 -160l-83 -365h-158l188 720h209l37 -378c8 -80 10 -103 11 -151h2c19 52 49 120 68 160l177 369h205l-70 -720h-163l46 363c6 46 12 91 25 162h-2c-7 -27 -49 -119 -66 -154z" />
    <glyph glyph-name="Nu" unicode="&#x39d;" horiz-adv-x="731" 
d="M32 0l127 720h171l178 -434l77 434h150l-127 -720h-136l-203 495l-87 -495h-150z" />
    <glyph glyph-name="Xi" unicode="&#x39e;" horiz-adv-x="527" 
d="M81 584l24 136h480l-24 -136h-480zM-25 0l24 136h486l-24 -136h-486zM72 298l23 131h398l-23 -131h-398z" />
    <glyph glyph-name="Omicron" unicode="&#x39f;" horiz-adv-x="717" 
d="M353 120c118 0 195 125 195 279c0 131 -56 197 -142 197c-118 0 -195 -125 -195 -279c0 -131 56 -197 142 -197zM346 -12c-172 0 -298 117 -298 329c0 230 149 415 365 415c172 0 298 -117 298 -329c0 -230 -149 -415 -365 -415z" />
    <glyph glyph-name="Pi" unicode="&#x3a0;" horiz-adv-x="724" 
d="M32 0l127 720h569l-127 -720h-163l103 584h-243l-103 -584h-163z" />
    <glyph glyph-name="Rho" unicode="&#x3a1;" horiz-adv-x="646" 
d="M32 0l127 720h246c157 0 257 -70 257 -217c0 -153 -109 -247 -304 -247h-120l-45 -256h-161zM296 587l-35 -203h97c96 0 143 41 143 112c0 63 -38 91 -108 91h-97z" />
    <glyph glyph-name="Sigma" unicode="&#x3a3;" horiz-adv-x="570" 
d="M-14 0l20 111l256 263l-149 230l20 116h496l-24 -136h-289l145 -220l-230 -233h297l-23 -131h-519z" />
    <glyph glyph-name="Tau" unicode="&#x3a4;" horiz-adv-x="583" 
d="M165 0l103 584h-191l24 136h545l-24 -136h-191l-103 -584h-163z" />
    <glyph glyph-name="Upsilon" unicode="&#x3a5;" horiz-adv-x="649" 
d="M198 0l51 290l-158 430h159l99 -281l198 281h175l-310 -430l-51 -290h-163z" />
    <glyph glyph-name="Phi" unicode="&#x3a6;" horiz-adv-x="836" 
d="M292 -12l16 91c-152 27 -256 117 -256 259c0 159 131 292 356 310l15 84h157l-16 -91c152 -28 256 -118 256 -260c0 -162 -135 -292 -356 -309l-15 -84h-157zM664 374c0 82 -49 131 -121 150l-60 -341c111 20 181 92 181 191zM209 340c0 -82 47 -130 118 -151l60 340
c-110 -21 -178 -91 -178 -189z" />
    <glyph glyph-name="Chi" unicode="&#x3a7;" horiz-adv-x="688" 
d="M-12 0l275 371l-140 349h166l87 -239l170 239h182l-264 -348l146 -372h-167l-92 262l-181 -262h-182z" />
    <glyph glyph-name="Psi" unicode="&#x3a8;" horiz-adv-x="822" 
d="M287 0l42 241c-150 19 -245 90 -245 241c0 27 3 49 8 74l29 164h157l-33 -187c-3 -15 -4 -30 -4 -42c0 -74 40 -108 110 -124l63 353h157l-63 -355c93 15 153 64 171 168l33 187h153l-38 -213c-30 -167 -144 -255 -341 -269l-42 -238h-157z" />
    <glyph glyph-name="uni03A9" unicode="&#x3a9;" horiz-adv-x="723" 
d="M410 596c-106 0 -189 -84 -189 -244c0 -94 29 -162 78 -240l-20 -112h-306l23 131h147c-53 60 -85 138 -85 235c0 211 152 366 356 366c175 0 303 -113 303 -297c0 -119 -54 -229 -154 -304h139l-23 -131h-301l20 112c99 98 156 180 156 304c0 128 -60 180 -144 180z" />
    <glyph glyph-name="Iotadieresis" unicode="&#x3aa;" horiz-adv-x="329" 
d="M38 0l127 720h163l-127 -720h-163zM235 837c0 -42 -32 -74 -76 -74s-76 32 -76 74s32 74 76 74s76 -32 76 -74zM449 837c0 -42 -32 -74 -76 -74s-76 32 -76 74s32 74 76 74s76 -32 76 -74z" />
    <glyph glyph-name="Upsilondieresis" unicode="&#x3ab;" horiz-adv-x="649" 
d="M198 0l51 290l-158 430h159l99 -281l198 281h175l-310 -430l-51 -290h-163zM396 837c0 -42 -32 -74 -76 -74s-76 32 -76 74s32 74 76 74s76 -32 76 -74zM610 837c0 -42 -32 -74 -76 -74s-76 32 -76 74s32 74 76 74s76 -32 76 -74z" />
    <glyph glyph-name="alphatonos" unicode="&#x3ac;" horiz-adv-x="677" 
d="M535 510h158c-64 -103 -121 -190 -167 -258l66 -252h-148l-25 121c-78 -100 -140 -133 -211 -133c-111 0 -184 78 -184 213c0 169 115 321 276 321c77 0 126 -35 168 -136c19 34 42 77 67 124zM244 109c37 0 72 33 144 146c-29 113 -51 137 -86 137
c-69 0 -117 -93 -117 -186c0 -66 24 -97 59 -97zM415 553h-127l71 167h183z" />
    <glyph glyph-name="epsilontonos" unicode="&#x3ad;" horiz-adv-x="474" 
d="M65 353c0 97 92 169 237 169c71 0 135 -17 186 -39l-51 -115c-38 20 -86 35 -130 35c-48 0 -81 -18 -81 -52c0 -29 25 -43 62 -43h83l-19 -106h-76c-58 0 -108 -16 -108 -55c0 -32 34 -45 83 -45c55 0 103 16 152 38l10 -114c-50 -22 -114 -38 -191 -38
c-124 0 -215 41 -215 130c0 61 43 111 124 134c-46 22 -66 56 -66 101zM367 553h-127l71 167h183z" />
    <glyph glyph-name="etatonos" unicode="&#x3ae;" horiz-adv-x="578" 
d="M16 0l90 510h161l-12 -68c47 50 103 80 168 80c61 0 125 -27 125 -126c0 -13 -1 -33 -4 -50l-98 -556h-161l95 539c1 7 1 11 1 13c0 35 -17 45 -41 45c-37 0 -70 -23 -105 -57l-58 -330h-161zM397 553h-127l71 167h183z" />
    <glyph glyph-name="iotatonos" unicode="&#x3af;" horiz-adv-x="321" 
d="M46 121c0 27 4 47 8 72l56 317h161l-57 -323c-2 -10 -5 -29 -5 -43c0 -25 9 -35 33 -35c14 0 32 3 47 7l-20 -113c-22 -5 -49 -9 -82 -9c-95 0 -141 35 -141 127zM248 553h-127l71 167h183z" />
    <glyph glyph-name="upsilondieresistonos" unicode="&#x3b0;" horiz-adv-x="570" 
d="M364 510h161c18 -51 25 -114 25 -170c0 -167 -64 -352 -292 -352c-110 0 -212 43 -212 181c0 24 3 43 8 68l48 273h161l-53 -300c-2 -12 -5 -24 -5 -38c0 -45 30 -63 61 -63c71 0 123 91 123 235c0 53 -7 115 -25 166zM421 705h-131l48 127h175zM305 620
c0 -42 -32 -74 -76 -74s-76 32 -76 74s32 74 76 74s76 -32 76 -74zM519 620c0 -42 -32 -74 -76 -74s-76 32 -76 74s32 74 76 74s76 -32 76 -74z" />
    <glyph glyph-name="alpha" unicode="&#x3b1;" horiz-adv-x="677" 
d="M535 510h158c-64 -103 -121 -190 -167 -258l66 -252h-148l-25 121c-78 -100 -140 -133 -211 -133c-111 0 -184 78 -184 213c0 169 115 321 276 321c77 0 126 -35 168 -136c19 34 42 77 67 124zM244 109c37 0 72 33 144 146c-29 113 -51 137 -86 137
c-69 0 -117 -93 -117 -186c0 -66 24 -97 59 -97z" />
    <glyph glyph-name="beta" unicode="&#x3b2;" horiz-adv-x="622" 
d="M183 36l-43 -246h-161l128 726c25 140 121 216 264 216c122 0 225 -55 225 -179c0 -83 -46 -143 -137 -173c82 -28 124 -88 124 -174c0 -136 -106 -218 -243 -218c-59 0 -112 15 -157 48zM422 219c0 75 -54 104 -129 104l21 116c68 0 129 29 129 100c0 55 -37 74 -75 74
c-50 0 -88 -32 -104 -120l-61 -345c37 -27 72 -37 106 -37c65 0 113 37 113 108z" />
    <glyph glyph-name="gamma" unicode="&#x3b3;" horiz-adv-x="507" 
d="M252 238c0 -20 -1 -41 -3 -60c42 56 112 176 125 332h165c-12 -214 -215 -472 -250 -510l-37 -210h-160l20 114c6 35 9 78 9 123c0 178 -47 403 -78 483h161c30 -77 48 -184 48 -272z" />
    <glyph glyph-name="delta" unicode="&#x3b4;" horiz-adv-x="569" 
d="M560 673l-50 -112c-52 32 -100 54 -149 54c-38 0 -60 -14 -60 -36c0 -71 234 -138 234 -346c0 -150 -122 -245 -278 -245c-135 0 -238 71 -238 207c0 132 97 201 209 237c-46 42 -81 85 -81 146c0 96 88 154 208 154c81 0 151 -26 205 -59zM382 223c0 60 -33 103 -74 141
c-67 -30 -128 -77 -128 -164c0 -69 39 -97 87 -97c58 0 115 41 115 120z" />
    <glyph glyph-name="epsilon" unicode="&#x3b5;" horiz-adv-x="474" 
d="M65 353c0 97 92 169 237 169c71 0 135 -17 186 -39l-51 -115c-38 20 -86 35 -130 35c-48 0 -81 -18 -81 -52c0 -29 25 -43 62 -43h83l-19 -106h-76c-58 0 -108 -16 -108 -55c0 -32 34 -45 83 -45c55 0 103 16 152 38l10 -114c-50 -22 -114 -38 -191 -38
c-124 0 -215 41 -215 130c0 61 43 111 124 134c-46 22 -66 56 -66 101z" />
    <glyph glyph-name="zeta" unicode="&#x3b6;" horiz-adv-x="444" 
d="M249 -45c0 81 -233 30 -233 221c0 136 119 279 274 429c-29 -2 -54 -2 -78 -2h-102l21 117h362l-17 -98c-147 -138 -299 -323 -299 -425c0 -120 206 -55 206 -202c0 -56 -30 -108 -71 -157l-108 39c29 31 45 57 45 78z" />
    <glyph glyph-name="eta" unicode="&#x3b7;" horiz-adv-x="578" 
d="M16 0l90 510h161l-12 -68c47 50 103 80 168 80c61 0 125 -27 125 -126c0 -13 -1 -33 -4 -50l-98 -556h-161l95 539c1 7 1 11 1 13c0 35 -17 45 -41 45c-37 0 -70 -23 -105 -57l-58 -330h-161z" />
    <glyph glyph-name="theta" unicode="&#x3b8;" horiz-adv-x="553" 
d="M559 434c0 -215 -104 -446 -305 -446c-134 0 -217 97 -217 297c0 215 104 447 305 447c133 0 217 -97 217 -298zM193 258c0 -114 23 -158 69 -158c68 0 110 93 129 206h-197c-1 -16 -1 -32 -1 -48zM333 615c-64 0 -106 -85 -126 -191h195c1 10 1 21 1 32
c0 113 -23 159 -70 159z" />
    <glyph glyph-name="iota" unicode="&#x3b9;" horiz-adv-x="321" 
d="M46 121c0 27 4 47 8 72l56 317h161l-57 -323c-2 -10 -5 -29 -5 -43c0 -25 9 -35 33 -35c14 0 32 3 47 7l-20 -113c-22 -5 -49 -9 -82 -9c-95 0 -141 35 -141 127z" />
    <glyph glyph-name="kappa" unicode="&#x3ba;" horiz-adv-x="561" 
d="M344 0l-76 199l-68 -67l-23 -132h-161l90 510h161l-37 -206c154 192 193 212 341 212l-21 -116c-58 0 -91 -19 -173 -97l123 -303h-156z" />
    <glyph glyph-name="lambda" unicode="&#x3bb;" horiz-adv-x="537" 
d="M513 114l-20 -113c-13 -3 -40 -7 -66 -7c-67 0 -115 28 -129 147l-23 196l-162 -337h-166l259 486h46l-7 74c-4 42 -21 53 -57 53c-11 0 -24 -1 -36 -3l20 113c14 3 45 7 72 7c73 0 135 -30 151 -155l54 -418c5 -36 13 -46 37 -46c7 0 19 1 27 3z" />
    <glyph glyph-name="uni03BC" unicode="&#x3bc;" horiz-adv-x="589" 
d="M573 510l-90 -510h-161l12 68c-47 -50 -105 -80 -167 -80c-5 0 -10 0 -14 1c0 -61 -8 -120 -20 -199h-154l127 720h161l-59 -334c-1 -5 -1 -10 -1 -12c0 -36 16 -46 41 -46c39 0 72 25 105 57l59 335h161z" />
    <glyph glyph-name="nu" unicode="&#x3bd;" horiz-adv-x="509" 
d="M127 0l-83 510h158l41 -344c43 60 120 189 130 344h166c-11 -198 -207 -460 -249 -510h-163z" />
    <glyph glyph-name="xi" unicode="&#x3be;" horiz-adv-x="444" 
d="M249 -45c0 83 -234 23 -234 215c0 97 60 168 174 198c-57 23 -95 68 -95 135c0 121 124 217 373 217l-21 -117c-147 0 -191 -47 -191 -103c0 -54 40 -76 110 -76h34l-21 -118h-27c-121 0 -175 -41 -175 -107c0 -127 207 -54 207 -204c0 -55 -28 -105 -72 -157l-107 39
c29 32 45 57 45 78z" />
    <glyph glyph-name="omicron" unicode="&#x3bf;" horiz-adv-x="561" 
d="M260 101c70 0 115 85 115 187c0 80 -28 117 -74 117c-70 0 -115 -85 -115 -187c0 -80 28 -117 74 -117zM251 -12c-127 0 -226 75 -226 232c0 171 118 302 285 302c127 0 226 -75 226 -232c0 -171 -118 -302 -285 -302z" />
    <glyph glyph-name="pi" unicode="&#x3c0;" horiz-adv-x="617" 
d="M40 392l21 118h577l-21 -118h-68l-40 -231c-1 -7 -3 -16 -3 -26c0 -16 6 -26 28 -26c10 0 23 2 34 4l-18 -111c-20 -5 -48 -8 -75 -8c-84 0 -132 30 -132 117c0 18 2 34 6 57l39 224h-121c-25 -143 -54 -278 -85 -392h-164c34 114 63 249 89 392h-67z" />
    <glyph glyph-name="rho" unicode="&#x3c1;" horiz-adv-x="582" 
d="M302 -12c-48 0 -91 12 -126 35l-42 -233h-160l84 485c26 151 121 247 270 247c129 0 228 -73 228 -243c0 -172 -102 -291 -254 -291zM219 266l-24 -133c20 -14 45 -22 72 -22c70 0 128 58 128 166c0 84 -35 114 -77 114c-44 0 -82 -32 -99 -125z" />
    <glyph glyph-name="sigma1" unicode="&#x3c2;" horiz-adv-x="444" 
d="M383 -2c0 -60 -30 -111 -72 -160l-107 39c27 30 45 56 45 80c0 84 -228 20 -228 256c0 194 153 303 426 303l-21 -117c-132 0 -244 -42 -244 -168c0 -168 201 -80 201 -233z" />
    <glyph glyph-name="sigma" unicode="&#x3c3;" horiz-adv-x="579" 
d="M605 510l-21 -117h-113c36 -36 58 -81 58 -143c0 -137 -108 -262 -274 -262c-138 0 -230 87 -230 232c0 174 131 290 357 290h223zM368 257c0 53 -17 99 -42 134c-101 -13 -140 -81 -140 -170c0 -80 31 -121 78 -121c62 0 104 72 104 157z" />
    <glyph glyph-name="tau" unicode="&#x3c4;" horiz-adv-x="474" 
d="M40 392l21 118h442l-21 -118h-146l-36 -205c-2 -10 -5 -29 -5 -43c0 -25 9 -35 33 -35c14 0 32 3 47 7l-20 -113c-22 -5 -49 -9 -82 -9c-95 0 -141 35 -141 127c0 27 4 47 8 72l35 199h-135z" />
    <glyph glyph-name="upsilon" unicode="&#x3c5;" horiz-adv-x="570" 
d="M364 510h161c18 -51 25 -114 25 -170c0 -167 -64 -352 -292 -352c-110 0 -212 43 -212 181c0 24 3 43 8 68l48 273h161l-53 -300c-2 -12 -5 -24 -5 -38c0 -45 30 -63 61 -63c71 0 123 91 123 235c0 53 -7 115 -25 166z" />
    <glyph glyph-name="phi" unicode="&#x3c6;" horiz-adv-x="729" 
d="M704 297c0 -153 -97 -296 -314 -312l-34 -195h-153l36 204c-129 26 -214 105 -214 241c0 114 59 210 156 281l126 -38c-82 -63 -130 -148 -130 -238c0 -75 33 -114 82 -132l43 239c19 106 91 175 202 175c131 0 200 -97 200 -225zM450 327l-39 -223
c104 27 141 111 141 193c0 61 -20 100 -51 100c-22 0 -43 -21 -51 -70z" />
    <glyph glyph-name="chi" unicode="&#x3c7;" horiz-adv-x="565" 
d="M278 -95l-37 150l-163 -265h-165l262 389l-50 172c-11 38 -20 48 -50 48c-10 0 -23 -1 -33 -4l20 114c12 3 37 7 67 7c72 0 113 -24 137 -132l22 -98l138 224h163l-234 -348l60 -214c11 -38 22 -47 51 -47c10 0 23 1 33 4l-20 -114c-12 -3 -36 -7 -66 -7
c-79 0 -112 29 -135 121z" />
    <glyph glyph-name="psi" unicode="&#x3c8;" horiz-adv-x="741" 
d="M217 -210l35 199c-117 18 -199 76 -199 216c0 15 1 41 6 67l42 238h152l-47 -266c-2 -12 -5 -33 -5 -49c0 -47 27 -80 71 -92l109 617h152l-108 -611c106 35 139 136 139 248c0 34 -3 102 -15 153h153c10 -53 14 -93 14 -140c0 -187 -65 -359 -313 -384l-34 -196h-152z
" />
    <glyph glyph-name="omega" unicode="&#x3c9;" horiz-adv-x="750" 
d="M505 510h156c38 -58 62 -137 62 -224c0 -177 -99 -298 -232 -298c-60 0 -107 24 -135 82c-31 -53 -78 -82 -144 -82c-106 0 -190 72 -190 223c0 121 54 225 135 299h168c-86 -71 -151 -171 -151 -300c0 -76 23 -101 49 -101c27 0 55 27 70 113l17 100h153l-18 -100
c-3 -19 -4 -36 -4 -48c0 -46 16 -65 43 -65c47 0 87 59 87 172c0 91 -26 173 -66 229z" />
    <glyph glyph-name="iotadieresis" unicode="&#x3ca;" horiz-adv-x="321" 
d="M46 121c0 27 4 47 8 72l56 317h161l-57 -323c-2 -10 -5 -29 -5 -43c0 -25 9 -35 33 -35c14 0 32 3 47 7l-20 -113c-22 -5 -49 -9 -82 -9c-95 0 -141 35 -141 127zM179 629c0 -42 -32 -74 -76 -74s-76 32 -76 74s32 74 76 74s76 -32 76 -74zM393 629
c0 -42 -32 -74 -76 -74s-76 32 -76 74s32 74 76 74s76 -32 76 -74z" />
    <glyph glyph-name="upsilondieresis" unicode="&#x3cb;" horiz-adv-x="570" 
d="M364 510h161c18 -51 25 -114 25 -170c0 -167 -64 -352 -292 -352c-110 0 -212 43 -212 181c0 24 3 43 8 68l48 273h161l-53 -300c-2 -12 -5 -24 -5 -38c0 -45 30 -63 61 -63c71 0 123 91 123 235c0 53 -7 115 -25 166zM308 629c0 -42 -32 -74 -76 -74s-76 32 -76 74
s32 74 76 74s76 -32 76 -74zM522 629c0 -42 -32 -74 -76 -74s-76 32 -76 74s32 74 76 74s76 -32 76 -74z" />
    <glyph glyph-name="omicrontonos" unicode="&#x3cc;" horiz-adv-x="561" 
d="M260 101c70 0 115 85 115 187c0 80 -28 117 -74 117c-70 0 -115 -85 -115 -187c0 -80 28 -117 74 -117zM251 -12c-127 0 -226 75 -226 232c0 171 118 302 285 302c127 0 226 -75 226 -232c0 -171 -118 -302 -285 -302zM373 553h-127l71 167h183z" />
    <glyph glyph-name="upsilontonos" unicode="&#x3cd;" horiz-adv-x="570" 
d="M376 553h-127l71 167h183zM364 510h161c18 -51 25 -114 25 -170c0 -167 -64 -352 -292 -352c-110 0 -212 43 -212 181c0 24 3 43 8 68l48 273h161l-53 -300c-2 -12 -5 -24 -5 -38c0 -45 30 -63 61 -63c71 0 123 91 123 235c0 53 -7 115 -25 166z" />
    <glyph glyph-name="omegatonos" unicode="&#x3ce;" horiz-adv-x="750" 
d="M505 510h156c38 -58 62 -137 62 -224c0 -177 -99 -298 -232 -298c-60 0 -107 24 -135 82c-31 -53 -78 -82 -144 -82c-106 0 -190 72 -190 223c0 121 54 225 135 299h168c-86 -71 -151 -171 -151 -300c0 -76 23 -101 49 -101c27 0 55 27 70 113l17 100h153l-18 -100
c-3 -19 -4 -36 -4 -48c0 -46 16 -65 43 -65c47 0 87 59 87 172c0 91 -26 173 -66 229zM471 553h-127l71 167h183z" />
    <glyph glyph-name="uni0400" unicode="&#x400;" horiz-adv-x="590" 
d="M32 0l127 720h473l-24 -136h-310l-28 -156h269l-22 -128h-269l-30 -169h313l-23 -131h-476zM502 762h-124l-120 147h168z" />
    <glyph glyph-name="uni0401" unicode="&#x401;" horiz-adv-x="590" 
d="M32 0l127 720h473l-24 -136h-310l-28 -156h269l-22 -128h-269l-30 -169h313l-23 -131h-476zM386 837c0 -42 -32 -74 -76 -74s-76 32 -76 74s32 74 76 74s76 -32 76 -74zM600 837c0 -42 -32 -74 -76 -74s-76 32 -76 74s32 74 76 74s76 -32 76 -74z" />
    <glyph glyph-name="uni0402" unicode="&#x402;" horiz-adv-x="799" 
d="M77 584l24 136h545l-24 -136h-201l-25 -143c49 15 99 22 142 22c137 0 224 -70 224 -215c0 -163 -109 -254 -283 -254c-25 0 -55 2 -79 4l21 125c12 -2 27 -4 44 -4c80 0 134 44 134 119c0 62 -36 92 -111 92c-31 0 -68 -5 -115 -20l-55 -310h-163l103 584h-181z" />
    <glyph glyph-name="uni0403" unicode="&#x403;" horiz-adv-x="540" 
d="M32 0l127 720h444l-24 -136h-281l-103 -584h-163zM426 762h-133l105 147h190z" />
    <glyph glyph-name="uni0404" unicode="&#x404;" horiz-adv-x="602" 
d="M521 175l16 -132c-55 -31 -127 -55 -207 -55c-166 0 -283 104 -283 310c0 226 141 434 393 434c81 0 150 -21 205 -55l-61 -130c-49 30 -95 49 -150 49c-108 0 -176 -74 -206 -170h281l-23 -128h-276c2 -128 63 -179 147 -179c58 0 116 25 164 56z" />
    <glyph glyph-name="uni0405" unicode="&#x405;" horiz-adv-x="584" 
d="M1 49l61 124c61 -31 123 -55 187 -55c83 0 131 39 131 88c0 119 -282 80 -282 294c0 140 120 232 282 232c83 0 157 -24 219 -59l-62 -132c-49 31 -106 55 -163 55c-69 0 -113 -35 -113 -79c0 -112 282 -71 282 -290c0 -144 -121 -239 -298 -239c-84 0 -172 21 -244 61z
" />
    <glyph glyph-name="uni0406" unicode="&#x406;" horiz-adv-x="329" 
d="M38 0l127 720h163l-127 -720h-163z" />
    <glyph glyph-name="uni0407" unicode="&#x407;" horiz-adv-x="329" 
d="M38 0l127 720h163l-127 -720h-163zM235 837c0 -42 -32 -74 -76 -74s-76 32 -76 74s32 74 76 74s76 -32 76 -74zM449 837c0 -42 -32 -74 -76 -74s-76 32 -76 74s32 74 76 74s76 -32 76 -74z" />
    <glyph glyph-name="uni0408" unicode="&#x408;" horiz-adv-x="412" 
d="M-26 1l23 132c21 -4 51 -8 76 -8c72 0 95 32 108 107l86 488h163l-91 -516c-24 -136 -73 -210 -264 -210c-39 0 -75 3 -101 7z" />
    <glyph glyph-name="uni0409" unicode="&#x409;" horiz-adv-x="1050" 
d="M724 0h-289l103 584h-157l-58 -245c-55 -234 -102 -345 -314 -345c-29 0 -46 2 -55 4l23 129c6 -1 16 -2 27 -2c96 0 130 81 173 262l79 333h466l-49 -280h95c155 0 250 -69 250 -208c0 -147 -106 -232 -294 -232zM617 124h107c93 0 133 39 133 103c0 59 -33 83 -101 83
h-106z" />
    <glyph glyph-name="uni040A" unicode="&#x40a;" horiz-adv-x="1035" 
d="M712 0h-291l53 300h-229l-53 -300h-160l127 720h160l-50 -284h229l50 284h160l-50 -284h98c151 0 248 -65 248 -205c0 -147 -105 -231 -292 -231zM603 124h109c91 0 131 39 131 102c0 56 -33 80 -99 80h-110z" />
    <glyph glyph-name="uni040B" unicode="&#x40b;" horiz-adv-x="799" 
d="M77 584l24 136h545l-24 -136h-202l-25 -144c49 15 99 23 150 23c115 0 216 -40 216 -178c0 -19 -2 -41 -6 -64l-39 -221h-163l38 215c2 12 5 27 5 41c0 56 -44 74 -104 74c-35 0 -73 -6 -120 -21l-54 -309h-163l103 584h-181z" />
    <glyph glyph-name="uni040C" unicode="&#x40c;" horiz-adv-x="682" 
d="M588 537l-38 -70c-30 -55 -61 -90 -126 -106c64 -23 92 -72 120 -146l80 -215h-169l-75 207c-23 64 -40 93 -110 93h-22l-53 -300h-163l127 720h163l-52 -292h23c72 0 88 19 111 62l38 70c62 114 103 166 280 166l-23 -127c-75 0 -88 -20 -111 -62zM490 762h-133l105 147
h190z" />
    <glyph glyph-name="uni040D" unicode="&#x40d;" horiz-adv-x="731" 
d="M735 720l-127 -720h-156l78 443l-348 -443h-150l127 720h156l-78 -443l348 443h150zM552 762h-124l-120 147h168z" />
    <glyph glyph-name="uni040E" unicode="&#x40e;" horiz-adv-x="649" 
d="M218 239l-127 481h154l92 -368l219 368h166l-306 -501c-102 -167 -173 -225 -333 -225c-36 0 -68 3 -88 6l23 131c19 -3 42 -6 70 -6c78 0 118 23 174 114h-44zM423 762c-114 0 -168 43 -168 116c0 10 1 21 3 31h107c-1 -6 -2 -12 -2 -19c0 -29 17 -49 64 -49
c56 0 79 27 86 68h107c-16 -92 -68 -147 -197 -147z" />
    <glyph glyph-name="uni040F" unicode="&#x40f;" horiz-adv-x="724" 
d="M728 720l-127 -720h-206l-27 -154h-156l27 154h-207l127 720h163l-104 -589h243l104 589h163z" />
    <glyph glyph-name="uni0410" unicode="&#x410;" horiz-adv-x="695" 
d="M529 720l104 -720h-163l-17 146h-243l-67 -146h-171l364 720h193zM403 564l-137 -297h172z" />
    <glyph glyph-name="uni0411" unicode="&#x411;" horiz-adv-x="646" 
d="M321 0h-289l127 720h474l-24 -136h-314l-25 -144h95c155 0 250 -69 250 -208c0 -147 -106 -232 -294 -232zM214 124h107c93 0 133 39 133 103c0 59 -33 83 -101 83h-106z" />
    <glyph glyph-name="uni0412" unicode="&#x412;" horiz-adv-x="672" 
d="M32 0l127 720h242c148 0 245 -56 245 -180c0 -85 -45 -148 -135 -178c74 -28 107 -82 107 -153c0 -121 -96 -209 -292 -209h-294zM214 122h112c88 0 131 36 131 100c0 57 -34 82 -99 82h-112zM266 420h95c83 0 124 35 124 95c0 55 -33 78 -94 78h-94z" />
    <glyph glyph-name="uni0413" unicode="&#x413;" horiz-adv-x="540" 
d="M32 0l127 720h444l-24 -136h-281l-103 -584h-163z" />
    <glyph glyph-name="uni0414" unicode="&#x414;" horiz-adv-x="787" 
d="M-52 -154l49 276h54c46 45 126 139 181 392l45 206h474l-105 -598h84l-49 -276h-152l27 154h-429l-27 -154h-152zM404 584l-15 -71c-46 -215 -103 -325 -153 -382h248l80 453h-160z" />
    <glyph glyph-name="uni0415" unicode="&#x415;" horiz-adv-x="590" 
d="M32 0l127 720h473l-24 -136h-310l-28 -156h269l-22 -128h-269l-30 -169h313l-23 -131h-476z" />
    <glyph glyph-name="uni0416" unicode="&#x416;" horiz-adv-x="1032" 
d="M937 537l-38 -70c-30 -55 -61 -90 -126 -106c64 -23 92 -72 120 -146l80 -215h-169l-75 207c-23 64 -40 93 -110 93h-14l-53 -300h-163l53 300h-8c-67 0 -98 -28 -143 -95l-137 -205h-183l160 233c46 67 86 113 167 133c-50 17 -71 51 -84 102l-18 69
c-11 43 -26 62 -89 62l22 127c140 0 186 -52 216 -167l18 -69c11 -44 25 -62 89 -62h12l52 292h163l-52 -292h15c72 0 88 19 111 62l38 70c62 114 103 166 280 166l-23 -127c-75 0 -88 -20 -111 -62z" />
    <glyph glyph-name="uni0417" unicode="&#x417;" horiz-adv-x="570" 
d="M523 204c0 -127 -113 -216 -294 -216c-94 0 -178 24 -247 58l61 127c54 -28 120 -54 189 -54c86 0 128 42 128 96c0 55 -43 86 -130 86h-64l23 128h66c86 0 157 28 157 95c0 51 -42 72 -97 72c-65 0 -125 -28 -177 -59l-15 137c55 34 131 58 216 58
c139 0 236 -64 236 -181c0 -92 -60 -158 -164 -188c75 -30 112 -87 112 -159z" />
    <glyph glyph-name="uni0418" unicode="&#x418;" horiz-adv-x="731" 
d="M735 720l-127 -720h-156l78 443l-348 -443h-150l127 720h156l-78 -443l348 443h150z" />
    <glyph glyph-name="uni0419" unicode="&#x419;" horiz-adv-x="731" 
d="M735 720l-127 -720h-156l78 443l-348 -443h-150l127 720h156l-78 -443l348 443h150zM464 762c-114 0 -168 43 -168 116c0 10 1 21 3 31h107c-1 -6 -2 -12 -2 -19c0 -29 17 -49 64 -49c56 0 79 27 86 68h107c-16 -92 -68 -147 -197 -147z" />
    <glyph glyph-name="uni041A" unicode="&#x41a;" horiz-adv-x="682" 
d="M588 537l-38 -70c-30 -55 -61 -90 -126 -106c64 -23 92 -72 120 -146l80 -215h-169l-75 207c-23 64 -40 93 -110 93h-22l-53 -300h-163l127 720h163l-52 -292h23c72 0 88 19 111 62l38 70c62 114 103 166 280 166l-23 -127c-75 0 -88 -20 -111 -62z" />
    <glyph glyph-name="uni041B" unicode="&#x41b;" horiz-adv-x="739" 
d="M9 -6c-29 0 -46 2 -55 4l23 129c6 -1 16 -2 27 -2c96 0 130 81 173 262l79 333h487l-127 -720h-163l103 584h-175l-58 -245c-55 -234 -102 -345 -314 -345z" />
    <glyph glyph-name="uni041C" unicode="&#x41c;" horiz-adv-x="963" 
d="M506 0h-146l-45 373c-7 56 -11 99 -14 152h-2c-13 -61 -24 -113 -35 -160l-83 -365h-158l188 720h209l37 -378c8 -80 10 -103 11 -151h2c19 52 49 120 68 160l177 369h205l-70 -720h-163l46 363c6 46 12 91 25 162h-2c-7 -27 -49 -119 -66 -154z" />
    <glyph glyph-name="uni041D" unicode="&#x41d;" horiz-adv-x="724" 
d="M32 0l127 720h163l-50 -284h243l50 284h163l-127 -720h-163l53 300h-243l-53 -300h-163z" />
    <glyph glyph-name="uni041E" unicode="&#x41e;" horiz-adv-x="723" 
d="M353 120c118 0 195 125 195 279c0 131 -56 197 -142 197c-118 0 -195 -125 -195 -279c0 -131 56 -197 142 -197zM346 -12c-172 0 -298 117 -298 329c0 230 149 415 365 415c172 0 298 -117 298 -329c0 -230 -149 -415 -365 -415z" />
    <glyph glyph-name="uni041F" unicode="&#x41f;" horiz-adv-x="724" 
d="M32 0l127 720h569l-127 -720h-163l103 584h-243l-103 -584h-163z" />
    <glyph glyph-name="uni0420" unicode="&#x420;" horiz-adv-x="646" 
d="M32 0l127 720h246c157 0 257 -70 257 -217c0 -153 -109 -247 -304 -247h-120l-45 -256h-161zM296 587l-35 -203h97c96 0 143 41 143 112c0 63 -38 91 -108 91h-97z" />
    <glyph glyph-name="uni0421" unicode="&#x421;" horiz-adv-x="602" 
d="M521 175l16 -132c-55 -31 -126 -55 -206 -55c-167 0 -284 104 -284 310c0 226 141 434 393 434c81 0 150 -21 205 -55l-61 -130c-49 30 -95 49 -149 49c-151 0 -225 -144 -225 -290c0 -133 62 -187 147 -187c58 0 116 25 164 56z" />
    <glyph glyph-name="uni0422" unicode="&#x422;" horiz-adv-x="583" 
d="M165 0l103 584h-191l24 136h545l-24 -136h-191l-103 -584h-163z" />
    <glyph glyph-name="uni0423" unicode="&#x423;" horiz-adv-x="649" 
d="M218 239l-127 481h154l92 -368l219 368h166l-306 -501c-102 -167 -173 -225 -333 -225c-36 0 -68 3 -88 6l23 131c19 -3 42 -6 70 -6c78 0 118 23 174 114h-44z" />
    <glyph glyph-name="uni0424" unicode="&#x424;" horiz-adv-x="836" 
d="M292 -12l16 91c-152 27 -256 117 -256 259c0 159 131 292 356 310l15 84h157l-16 -91c152 -28 256 -118 256 -260c0 -162 -135 -292 -356 -309l-15 -84h-157zM664 374c0 82 -49 131 -121 150l-60 -341c111 20 181 92 181 191zM209 340c0 -82 47 -130 118 -151l60 340
c-110 -21 -178 -91 -178 -189z" />
    <glyph glyph-name="uni0425" unicode="&#x425;" horiz-adv-x="688" 
d="M-12 0l275 371l-140 349h166l87 -239l170 239h182l-264 -348l146 -372h-167l-92 262l-181 -262h-182z" />
    <glyph glyph-name="uni0426" unicode="&#x426;" horiz-adv-x="766" 
d="M728 720l-105 -598h84l-49 -276h-152l27 154h-501l127 720h163l-104 -589h243l104 589h163z" />
    <glyph glyph-name="uni0427" unicode="&#x427;" horiz-adv-x="677" 
d="M344 393c35 0 73 6 120 21l54 306h163l-127 -720h-163l51 288c-49 -15 -99 -23 -150 -23c-115 0 -216 40 -216 178c0 19 2 39 6 62l38 215h163l-38 -215c-2 -12 -5 -24 -5 -38c0 -56 44 -74 104 -74z" />
    <glyph glyph-name="uni0428" unicode="&#x428;" horiz-adv-x="1049" 
d="M1054 720l-127 -720h-895l127 720h163l-104 -589h203l104 589h163l-104 -589h203l104 589h163z" />
    <glyph glyph-name="uni0429" unicode="&#x429;" horiz-adv-x="1098" 
d="M1054 720l-105 -598h84l-49 -276h-152l27 154h-827l127 720h163l-104 -589h203l104 589h163l-104 -589h203l104 589h163z" />
    <glyph glyph-name="uni042A" unicode="&#x42a;" horiz-adv-x="769" 
d="M77 584l24 136h341l-50 -280h95c155 0 250 -69 250 -208c0 -147 -106 -232 -294 -232h-289l103 584h-180zM336 124h107c93 0 133 39 133 103c0 59 -33 83 -101 83h-106z" />
    <glyph glyph-name="uni042B" unicode="&#x42b;" horiz-adv-x="926" 
d="M644 0l127 720h160l-127 -720h-160zM321 0h-289l127 720h160l-49 -280h95c155 0 250 -69 250 -208c0 -147 -106 -232 -294 -232zM214 124h107c93 0 133 39 133 103c0 59 -33 83 -101 83h-106z" />
    <glyph glyph-name="uni042C" unicode="&#x42c;" horiz-adv-x="646" 
d="M321 0h-289l127 720h160l-49 -280h95c155 0 250 -69 250 -208c0 -147 -106 -232 -294 -232zM214 124h107c93 0 133 39 133 103c0 59 -33 83 -101 83h-106z" />
    <glyph glyph-name="uni042D" unicode="&#x42d;" horiz-adv-x="602" 
d="M131 298l23 128h274c-4 121 -62 170 -142 170c-56 0 -113 -24 -159 -56l-15 137c54 31 125 55 202 55c165 0 278 -109 278 -312c0 -228 -142 -432 -395 -432c-82 0 -151 21 -207 55l60 127c52 -30 96 -51 153 -51c112 0 182 78 211 179h-283z" />
    <glyph glyph-name="uni042E" unicode="&#x42e;" horiz-adv-x="980" 
d="M626 -12c-153 0 -270 108 -274 312h-104l-53 -300h-163l127 720h163l-50 -284h94c41 169 162 296 328 296c156 0 274 -112 274 -323c0 -229 -138 -421 -342 -421zM635 117c102 0 170 129 170 285c0 131 -48 196 -120 196c-102 0 -170 -129 -170 -285
c0 -131 48 -196 120 -196z" />
    <glyph glyph-name="uni042F" unicode="&#x42f;" horiz-adv-x="704" 
d="M472 286h-97l-190 -286h-183l216 315c-63 32 -95 89 -95 168c0 144 107 237 293 237h293l-127 -720h-160zM383 402h110l32 185h-109c-93 0 -133 -39 -133 -103c0 -59 34 -82 100 -82z" />
    <glyph glyph-name="uni0430" unicode="&#x430;" horiz-adv-x="579" 
d="M484 0h-155c-3 6 -8 16 -8 31c0 6 0 13 2 22c-35 -40 -80 -65 -137 -65c-93 0 -161 68 -161 210c0 178 106 324 249 324c51 0 88 -18 126 -66l10 54h154l-70 -396c-9 -49 -12 -76 -12 -94c0 -9 0 -16 2 -20zM255 111c25 0 54 10 85 42l37 205c-24 22 -45 32 -71 32
c-73 0 -120 -76 -120 -175c0 -79 30 -104 69 -104z" />
    <glyph glyph-name="uni0431" unicode="&#x431;" horiz-adv-x="561" 
d="M303 372c-35 0 -72 -19 -106 -51v-12c0 -164 31 -207 79 -207c64 0 99 79 99 163c0 75 -28 107 -72 107zM400 590c-120 -1 -182 -70 -203 -166c41 46 93 80 160 80c106 0 179 -87 179 -221c0 -163 -109 -295 -267 -295c-134 0 -233 96 -233 310c0 245 130 428 364 428
c77 0 126 1 162 10l-24 -134c-29 -10 -77 -12 -138 -12z" />
    <glyph glyph-name="uni0432" unicode="&#x432;" horiz-adv-x="537" 
d="M518 387c0 -51 -30 -95 -105 -128c58 -22 83 -64 83 -111c0 -93 -97 -160 -239 -160c-150 0 -233 75 -233 219c0 178 126 315 308 315c119 0 186 -59 186 -135zM258 209c-24 -4 -50 -6 -78 -8c3 -74 35 -104 83 -104c46 0 77 27 77 61c0 32 -27 50 -82 51zM309 409
c-49 0 -97 -41 -118 -112c113 7 171 27 171 68c0 23 -18 44 -53 44z" />
    <glyph glyph-name="uni0433" unicode="&#x433;" horiz-adv-x="470" 
d="M116 366l-9 119c46 21 105 37 167 37c110 0 186 -52 186 -152c0 -196 -295 -137 -295 -227c0 -27 26 -41 72 -41c50 0 102 16 151 37l11 -114c-50 -21 -119 -37 -186 -37c-120 0 -203 51 -203 156c0 197 295 141 295 225c0 22 -20 34 -58 34c-44 0 -88 -16 -131 -37z" />
    <glyph glyph-name="uni0434" unicode="&#x434;" horiz-adv-x="557" 
d="M280 590c-79 0 -105 1 -134 12l24 134c28 -9 52 -10 110 -10c157 0 263 -81 263 -310c0 -226 -102 -428 -301 -428c-120 0 -217 74 -217 233c0 167 106 283 241 283c49 0 88 -15 125 -51c-7 100 -43 137 -111 137zM257 102c71 0 111 96 122 232c-27 24 -54 38 -85 38
c-64 0 -108 -60 -108 -157c0 -82 31 -113 71 -113z" />
    <glyph glyph-name="uni0435" unicode="&#x435;" horiz-adv-x="540" 
d="M326 522c128 0 195 -68 195 -154c0 -97 -84 -170 -285 -170c-18 0 -34 0 -49 1c6 -69 41 -97 107 -97c47 0 105 15 153 38l10 -114c-53 -23 -123 -38 -191 -38c-154 0 -241 76 -241 224c0 174 119 310 301 310zM315 412c-54 0 -103 -47 -121 -121h33c109 0 146 29 146 68
c0 28 -18 53 -58 53z" />
    <glyph glyph-name="uni0436" unicode="&#x436;" horiz-adv-x="824" 
d="M726 357l-29 -49c-16 -27 -37 -48 -81 -56c47 -16 67 -49 87 -99l60 -153h-160l-51 142c-15 42 -26 60 -69 62l-36 -204h-161l36 204c-40 -3 -61 -22 -88 -63l-94 -141h-170l117 169c29 42 58 73 117 86c-35 9 -48 28 -56 54l-15 48c-9 30 -19 43 -62 43l20 116
c107 0 148 -37 174 -119l15 -48c9 -30 18 -43 59 -43l37 204h161l-36 -204c40 0 57 14 74 43l29 49c46 77 72 118 220 118l-21 -116c-43 0 -60 -14 -77 -43z" />
    <glyph glyph-name="uni0437" unicode="&#x437;" horiz-adv-x="484" 
d="M434 146c0 -93 -93 -158 -246 -158c-77 0 -149 16 -206 42l50 109c48 -21 98 -37 148 -37c58 0 93 21 93 54c0 29 -27 46 -113 46h-39l20 106h48c80 0 116 17 116 53c0 30 -26 42 -66 42c-49 0 -95 -18 -139 -40l-9 119c46 23 103 40 175 40c116 0 200 -44 200 -134
c0 -61 -39 -107 -116 -130c57 -23 84 -63 84 -112z" />
    <glyph glyph-name="uni0438" unicode="&#x438;" horiz-adv-x="578" 
d="M561 510l-90 -510h-161l12 68c-47 -50 -103 -80 -168 -80c-61 0 -125 27 -125 126c0 13 1 33 4 50l61 346h161l-59 -334c-1 -7 -1 -11 -1 -13c0 -35 17 -45 41 -45c37 0 70 23 105 57l59 335h161z" />
    <glyph glyph-name="uni0439" unicode="&#x439;" horiz-adv-x="578" 
d="M561 510l-90 -510h-161l12 68c-47 -50 -103 -80 -168 -80c-61 0 -125 27 -125 126c0 13 1 33 4 50l61 346h161l-59 -334c-1 -7 -1 -11 -1 -13c0 -35 17 -45 41 -45c37 0 70 23 105 57l59 335h161zM350 636c55 0 81 36 90 84h105c-17 -99 -70 -161 -199 -161
c-113 0 -166 48 -166 124c0 11 1 20 4 37h106c-2 -8 -2 -17 -2 -24c0 -36 17 -60 62 -60z" />
    <glyph glyph-name="uni043A" unicode="&#x43a;" horiz-adv-x="561" 
d="M464 357l-29 -49c-16 -27 -37 -48 -81 -56c47 -16 67 -49 87 -99l60 -153h-160l-51 142c-16 44 -27 62 -75 62h-2l-36 -204h-161l90 510h161l-36 -204h5c43 0 60 14 77 43l29 49c46 77 72 118 220 118l-21 -116c-43 0 -60 -14 -77 -43z" />
    <glyph glyph-name="uni043B" unicode="&#x43b;" horiz-adv-x="595" 
d="M167 510h411l-90 -510h-161l69 392h-109c-64 -311 -114 -398 -282 -398c-25 0 -41 2 -51 4l19 110c6 -1 20 -2 27 -2c77 0 107 112 167 404z" />
    <glyph glyph-name="uni043C" unicode="&#x43c;" horiz-adv-x="774" 
d="M538 0l26 249c2 19 10 73 15 98h-2c-8 -23 -28 -67 -42 -94l-131 -253h-132l-35 251c-5 36 -9 76 -10 96h-2c-5 -29 -10 -50 -23 -103l-60 -244h-140l142 510h187l26 -252c3 -31 7 -73 7 -108h2c10 28 27 64 49 109l123 251h184l-41 -510h-143z" />
    <glyph glyph-name="uni043D" unicode="&#x43d;" horiz-adv-x="589" 
d="M321 0l36 204h-144l-36 -204h-161l90 510h161l-34 -189h144l34 189h161l-90 -510h-161z" />
    <glyph glyph-name="uni043E" unicode="&#x43e;" horiz-adv-x="561" 
d="M260 101c70 0 115 85 115 187c0 80 -28 117 -74 117c-70 0 -115 -85 -115 -187c0 -80 28 -117 74 -117zM251 -12c-127 0 -226 75 -226 232c0 171 118 302 285 302c127 0 226 -75 226 -232c0 -171 -118 -302 -285 -302z" />
    <glyph glyph-name="uni043F" unicode="&#x43f;" horiz-adv-x="578" 
d="M16 0l90 510h161l-12 -68c47 50 103 80 168 80c61 0 125 -27 125 -126c0 -13 -1 -33 -4 -50l-61 -346h-161l58 329c1 7 1 11 1 13c0 35 -17 45 -41 45c-37 0 -70 -23 -105 -57l-58 -330h-161z" />
    <glyph glyph-name="uni0440" unicode="&#x440;" horiz-adv-x="587" 
d="M108 510h161l-10 -53c36 40 81 65 137 65c97 0 167 -74 167 -217c0 -176 -106 -317 -250 -317c-48 0 -87 16 -126 59l-45 -257h-161zM329 390c-29 0 -58 -13 -89 -43l-36 -204c26 -23 50 -32 76 -32c76 0 122 77 122 172c0 81 -33 107 -73 107z" />
    <glyph glyph-name="uni0441" unicode="&#x441;" horiz-adv-x="456" 
d="M465 486l-51 -117c-28 18 -54 30 -88 30c-89 0 -141 -82 -141 -179c0 -80 35 -114 88 -114c34 0 74 13 105 33l9 -117c-37 -20 -90 -34 -145 -34c-128 0 -217 73 -217 224c0 168 110 310 296 310c65 0 109 -17 144 -36z" />
    <glyph glyph-name="uni0442" unicode="&#x442;" horiz-adv-x="864" 
d="M473 0h-161l58 329c1 7 2 14 2 21c0 29 -19 37 -39 37c-32 0 -61 -20 -98 -57l-58 -330h-161l90 510h161l-12 -68c48 52 103 80 164 80c57 0 107 -25 116 -93c42 50 107 93 179 93c56 0 120 -26 120 -129c0 -13 -1 -30 -4 -47l-61 -346h-161l58 329c1 7 2 14 2 21
c0 29 -19 37 -39 37c-32 0 -61 -20 -98 -57z" />
    <glyph glyph-name="uni0443" unicode="&#x443;" horiz-adv-x="509" 
d="M-52 -211l22 125c16 -3 35 -5 53 -5c55 0 86 18 129 103h-42l-66 498h159l32 -374l158 374h162l-252 -521c-79 -162 -131 -205 -269 -205c-30 0 -60 2 -86 5z" />
    <glyph glyph-name="uni0444" unicode="&#x444;" horiz-adv-x="755" 
d="M219 -210l36 208c-131 25 -230 102 -230 237c0 148 119 268 322 285l35 200h155l-37 -208c131 -26 231 -103 231 -238c0 -151 -125 -268 -322 -284l-35 -200h-155zM576 269c0 70 -39 110 -96 129l-52 -296c92 20 148 83 148 167zM180 236c0 -70 38 -111 94 -129l52 296
c-91 -21 -146 -83 -146 -167z" />
    <glyph glyph-name="uni0445" unicode="&#x445;" horiz-adv-x="521" 
d="M-33 0l201 265l-100 245h156l50 -152l100 152h168l-186 -244l108 -266h-154l-60 173l-116 -173h-167z" />
    <glyph glyph-name="uni0446" unicode="&#x446;" horiz-adv-x="613" 
d="M236 118c39 0 72 25 105 57l59 335h161l-59 -333c-3 -17 -5 -27 -5 -41c0 -21 5 -33 28 -33h30l-41 -233h-150l22 124c-24 9 -48 41 -51 82c-49 -54 -113 -88 -181 -88c-61 0 -125 27 -125 126c0 13 1 33 4 50l61 346h161l-59 -334c-1 -7 -1 -11 -1 -13
c0 -35 17 -45 41 -45z" />
    <glyph glyph-name="uni0447" unicode="&#x447;" horiz-adv-x="561" 
d="M76 510h161l-27 -155c-2 -11 -3 -18 -3 -26c0 -39 27 -49 66 -49c18 0 42 2 72 12l38 218h161l-90 -510h-161l33 189c-35 -11 -72 -19 -116 -19c-87 0 -165 32 -165 140c0 17 2 36 5 54z" />
    <glyph glyph-name="uni0448" unicode="&#x448;" horiz-adv-x="864" 
d="M390 510h161l-59 -334c-1 -7 -2 -14 -2 -21c0 -29 19 -37 39 -37c32 0 61 20 98 57l59 335h161l-90 -510h-161l12 68c-48 -52 -103 -80 -164 -80c-57 0 -107 25 -116 93c-42 -50 -107 -93 -179 -93c-56 0 -120 26 -120 129c0 13 1 30 4 47l61 346h161l-59 -334
c-1 -7 -2 -14 -2 -21c0 -29 19 -37 39 -37c32 0 61 20 98 57z" />
    <glyph glyph-name="uni0449" unicode="&#x449;" horiz-adv-x="899" 
d="M444 -12c-57 0 -107 25 -116 93c-42 -50 -107 -93 -179 -93c-56 0 -120 26 -120 129c0 13 1 30 4 47l61 346h161l-59 -334c-1 -7 -2 -14 -2 -21c0 -29 19 -37 39 -37c32 0 61 20 98 57l59 335h161l-59 -334c-1 -7 -2 -14 -2 -21c0 -29 19 -37 39 -37c32 0 61 20 98 57
l59 335h161l-59 -333c-3 -17 -5 -27 -5 -41c0 -21 5 -33 28 -33h30l-41 -233h-150l22 124c-24 9 -48 41 -51 82c-49 -54 -112 -88 -177 -88z" />
    <glyph glyph-name="uni044A" unicode="&#x44a;" horiz-adv-x="663" 
d="M40 392l21 118h310l-32 -184c29 7 55 10 85 10c127 0 195 -52 195 -154c0 -116 -88 -188 -276 -188c-70 0 -142 10 -215 37l64 361h-152zM386 230c-22 0 -45 -4 -66 -11l-21 -118c18 -5 39 -7 57 -7c67 0 105 29 105 77c0 39 -25 59 -75 59z" />
    <glyph glyph-name="uni044B" unicode="&#x44b;" horiz-adv-x="811" 
d="M547 0l90 510h158l-90 -510h-158zM236 -6c-70 0 -142 10 -215 37l85 479h158l-32 -184c29 7 55 10 85 10c127 0 195 -52 195 -154c0 -116 -88 -188 -276 -188zM279 230c-22 0 -45 -4 -66 -11l-21 -118c18 -5 39 -7 57 -7c67 0 105 29 105 77c0 39 -25 59 -75 59z" />
    <glyph glyph-name="uni044C" unicode="&#x44c;" horiz-adv-x="555" 
d="M236 -6c-70 0 -142 10 -215 37l85 479h158l-32 -184c29 7 55 10 85 10c127 0 195 -52 195 -154c0 -116 -88 -188 -276 -188zM279 230c-22 0 -45 -4 -66 -11l-21 -118c18 -5 39 -7 57 -7c67 0 105 29 105 77c0 39 -25 59 -75 59z" />
    <glyph glyph-name="uni044D" unicode="&#x44d;" horiz-adv-x="449" 
d="M80 205l18 100h165c-4 67 -34 97 -82 97c-31 0 -69 -12 -100 -32l-9 118c39 20 90 34 143 34c125 0 210 -76 210 -224c0 -170 -111 -310 -298 -310c-65 0 -113 17 -146 35l49 109c27 -16 55 -29 91 -29c66 0 110 42 130 102h-171z" />
    <glyph glyph-name="uni044E" unicode="&#x44e;" horiz-adv-x="784" 
d="M495 -12c-114 0 -203 71 -209 216h-73l-36 -204h-161l90 510h161l-34 -189h67c34 120 128 201 250 201c118 0 209 -76 209 -232c0 -173 -111 -302 -264 -302zM503 99c60 0 95 104 95 200c0 68 -18 106 -55 106c-60 0 -95 -104 -95 -200c0 -68 18 -106 55 -106z" />
    <glyph glyph-name="uni044F" unicode="&#x44f;" horiz-adv-x="570" 
d="M301 510h252l-90 -510h-158l32 179h-82l-110 -179h-164l145 213c-36 24 -56 63 -56 118c0 110 83 179 231 179zM301 277h53l23 128h-42c-74 0 -107 -22 -107 -72c0 -41 23 -56 73 -56z" />
    <glyph glyph-name="uni0450" unicode="&#x450;" horiz-adv-x="540" 
d="M326 522c128 0 195 -68 195 -154c0 -97 -84 -170 -285 -170c-18 0 -34 0 -49 1c6 -69 41 -97 107 -97c47 0 105 15 153 38l10 -114c-53 -23 -123 -38 -191 -38c-154 0 -241 76 -241 224c0 174 119 310 301 310zM315 412c-54 0 -103 -47 -121 -121h33c109 0 146 29 146 68
c0 28 -18 53 -58 53zM433 553h-122l-117 167h168z" />
    <glyph glyph-name="uni0451" unicode="&#x451;" horiz-adv-x="540" 
d="M326 522c128 0 195 -68 195 -154c0 -97 -84 -170 -285 -170c-18 0 -34 0 -49 1c6 -69 41 -97 107 -97c47 0 105 15 153 38l10 -114c-53 -23 -123 -38 -191 -38c-154 0 -241 76 -241 224c0 174 119 310 301 310zM315 412c-54 0 -103 -47 -121 -121h33c109 0 146 29 146 68
c0 28 -18 53 -58 53zM311 629c0 -42 -32 -74 -76 -74s-76 32 -76 74s32 74 76 74s76 -32 76 -74zM525 629c0 -42 -32 -74 -76 -74s-76 32 -76 74s32 74 76 74s76 -32 76 -74z" />
    <glyph glyph-name="uni0452" unicode="&#x452;" horiz-adv-x="629" 
d="M61 547l19 103h87l13 70h161l-13 -70h161l-19 -103h-160l-24 -137c45 47 108 80 176 80c60 0 126 -26 126 -125c0 -13 -1 -31 -4 -48l-61 -345c-16 -89 -62 -150 -191 -150c-24 0 -53 2 -79 6l20 114c14 -3 25 -4 34 -4c43 0 53 22 60 62l52 295c1 6 2 14 2 21
c0 29 -17 39 -43 39c-38 0 -75 -21 -111 -53l-53 -302h-161l96 547h-88z" />
    <glyph glyph-name="uni0453" unicode="&#x453;" horiz-adv-x="470" 
d="M325 553h-132l108 167h190zM116 366l-9 119c46 21 105 37 167 37c110 0 186 -52 186 -152c0 -196 -295 -137 -295 -227c0 -27 26 -41 72 -41c50 0 102 16 151 37l11 -114c-50 -21 -119 -37 -186 -37c-120 0 -203 51 -203 156c0 197 295 141 295 225c0 22 -20 34 -58 34
c-44 0 -88 -16 -131 -37z" />
    <glyph glyph-name="uni0454" unicode="&#x454;" horiz-adv-x="449" 
d="M465 485l-51 -113c-28 18 -54 30 -88 30c-62 0 -106 -40 -127 -97h170l-18 -100h-166c4 -72 38 -102 88 -102c34 0 74 13 105 33l9 -114c-37 -20 -90 -34 -145 -34c-128 0 -217 73 -217 224c0 168 110 310 295 310c66 0 110 -18 145 -37z" />
    <glyph glyph-name="uni0455" unicode="&#x455;" horiz-adv-x="470" 
d="M462 479l-50 -115c-39 23 -85 39 -123 39c-37 0 -68 -16 -68 -42c0 -67 204 -32 204 -193c0 -111 -96 -180 -239 -180c-69 0 -140 16 -194 44l50 111c46 -23 99 -41 144 -41s84 18 84 49c0 70 -204 42 -204 197c0 105 92 174 223 174c64 0 125 -17 173 -43z" />
    <glyph glyph-name="uni0456" unicode="&#x456;" horiz-adv-x="296" 
d="M22 0l90 510h161l-90 -510h-161zM306 652c0 -49 -35 -84 -90 -84s-91 35 -91 84s36 84 91 84s90 -35 90 -84z" />
    <glyph glyph-name="uni0457" unicode="&#x457;" horiz-adv-x="296" 
d="M182 629c0 -42 -32 -74 -76 -74s-76 32 -76 74s32 74 76 74s76 -32 76 -74zM396 629c0 -42 -32 -74 -76 -74s-76 32 -76 74s32 74 76 74s76 -32 76 -74zM22 0l90 510h161l-90 -510h-161z" />
    <glyph glyph-name="uni0458" unicode="&#x458;" horiz-adv-x="296" 
d="M273 510l-102 -579c-15 -87 -61 -147 -190 -147c-24 0 -53 2 -79 6l20 114c14 -3 25 -4 34 -4c43 0 52 22 59 60l97 550h161zM306 652c0 -49 -35 -84 -90 -84s-91 35 -91 84s36 84 91 84s90 -35 90 -84z" />
    <glyph glyph-name="uni0459" unicode="&#x459;" horiz-adv-x="846" 
d="M527 -6c-70 0 -142 10 -215 37l64 361h-89c-64 -311 -114 -398 -282 -398c-25 0 -41 2 -51 4l19 110c6 -1 20 -2 27 -2c77 0 107 112 167 404h388l-32 -184c29 7 55 10 85 10c127 0 195 -52 195 -154c0 -116 -88 -188 -276 -188zM570 230c-22 0 -45 -4 -66 -11l-21 -118
c18 -5 39 -7 57 -7c67 0 105 29 105 77c0 39 -25 59 -75 59z" />
    <glyph glyph-name="uni045A" unicode="&#x45a;" horiz-adv-x="843" 
d="M522 -6c-71 0 -140 11 -213 37l32 178h-130l-37 -209h-158l90 510h158l-33 -184h130l33 184h158l-33 -188c29 7 55 10 85 10c128 0 196 -52 196 -150c0 -118 -98 -188 -278 -188zM568 227c-23 0 -47 -4 -68 -11l-20 -115c18 -5 39 -7 57 -7c67 0 105 28 105 76
c0 39 -25 57 -74 57z" />
    <glyph glyph-name="uni045B" unicode="&#x45b;" horiz-adv-x="618" 
d="M61 547l19 103h87l13 70h161l-13 -70h161l-19 -103h-160l-24 -137c45 47 108 80 176 80c60 0 126 -26 126 -125c0 -13 -1 -31 -4 -48l-56 -317h-161l52 295c1 6 2 14 2 21c0 29 -17 39 -43 39c-38 0 -75 -21 -111 -53l-53 -302h-161l96 547h-88z" />
    <glyph glyph-name="uni045C" unicode="&#x45c;" horiz-adv-x="561" 
d="M376 553h-132l108 167h190zM464 357l-29 -49c-16 -27 -37 -48 -81 -56c47 -16 67 -49 87 -99l60 -153h-160l-51 142c-16 44 -27 62 -75 62h-2l-36 -204h-161l90 510h161l-36 -204h5c43 0 60 14 77 43l29 49c46 77 72 118 220 118l-21 -116c-43 0 -60 -14 -77 -43z" />
    <glyph glyph-name="uni045D" unicode="&#x45d;" horiz-adv-x="578" 
d="M561 510l-90 -510h-161l12 68c-47 -50 -103 -80 -168 -80c-61 0 -125 27 -125 126c0 13 1 33 4 50l61 346h161l-59 -334c-1 -7 -1 -11 -1 -13c0 -35 17 -45 41 -45c37 0 70 23 105 57l59 335h161zM431 553h-122l-117 167h168z" />
    <glyph glyph-name="uni045E" unicode="&#x45e;" horiz-adv-x="509" 
d="M-52 -211l22 125c16 -3 35 -5 53 -5c55 0 86 18 129 103h-42l-66 498h159l32 -374l158 374h162l-252 -521c-79 -162 -131 -205 -269 -205c-30 0 -60 2 -86 5zM321 636c55 0 81 36 90 84h105c-17 -99 -70 -161 -199 -161c-113 0 -166 48 -166 124c0 11 1 20 4 37h106
c-2 -8 -2 -17 -2 -24c0 -36 17 -60 62 -60z" />
    <glyph glyph-name="uni045F" unicode="&#x45f;" horiz-adv-x="578" 
d="M155 -43h150l-30 -167h-150zM561 510l-90 -510h-161l12 68c-47 -50 -103 -80 -168 -80c-61 0 -125 27 -125 126c0 13 1 33 4 50l61 346h161l-59 -334c-1 -7 -1 -11 -1 -13c0 -35 17 -45 41 -45c37 0 70 23 105 57l59 335h161z" />
    <glyph glyph-name="uni0462" unicode="&#x462;" horiz-adv-x="734" 
d="M66 519l22 128h145l13 73h160l-12 -73h179l-22 -128h-180l-14 -79h95c155 0 250 -69 250 -208c0 -147 -106 -232 -294 -232h-289l91 519h-144zM301 124h107c93 0 133 39 133 103c0 59 -33 83 -101 83h-106z" />
    <glyph glyph-name="uni0463" unicode="&#x463;" horiz-adv-x="595" 
d="M37 407l19 103h87l37 210h159l-37 -210h150l-19 -103h-150l-14 -81c29 7 55 10 85 10c127 0 195 -52 195 -154c0 -116 -88 -188 -276 -188c-70 0 -142 10 -215 37l66 376h-87zM316 230c-22 0 -45 -4 -66 -11l-21 -118c18 -5 39 -7 57 -7c67 0 105 29 105 77
c0 39 -25 59 -75 59z" />
    <glyph glyph-name="uni0472" unicode="&#x472;" horiz-adv-x="723" 
d="M293 315c-27 0 -56 -9 -85 -22c7 -115 62 -173 145 -173c93 0 162 75 188 181c-25 -12 -53 -20 -81 -20c-56 0 -115 34 -167 34zM406 596c-91 0 -158 -72 -186 -173c24 11 51 20 79 20c55 0 114 -34 168 -34c26 0 55 8 84 21c-9 110 -65 166 -145 166zM346 -12
c-172 0 -298 117 -298 329c0 230 149 415 365 415c172 0 298 -117 298 -329c0 -230 -149 -415 -365 -415z" />
    <glyph glyph-name="uni0473" unicode="&#x473;" horiz-adv-x="561" 
d="M259 101c55 0 96 44 114 108c-17 -8 -35 -14 -50 -14c-30 0 -63 22 -91 22c-17 0 -36 -8 -54 -19c5 -66 34 -97 81 -97zM328 297c17 0 36 7 54 18c-6 61 -36 90 -80 90c-53 0 -92 -40 -112 -99c16 8 33 13 47 13c30 0 62 -22 91 -22zM251 -12c-127 0 -226 75 -226 232
c0 171 118 302 285 302c127 0 226 -75 226 -232c0 -171 -118 -302 -285 -302z" />
    <glyph glyph-name="uni0474" unicode="&#x474;" horiz-adv-x="682" 
d="M99 720h157l63 -514l162 352c53 117 92 168 284 168l-22 -127c-71 0 -92 -19 -113 -62l-259 -537h-170z" />
    <glyph glyph-name="uni0475" unicode="&#x475;" horiz-adv-x="525" 
d="M43 510h156l36 -323l73 163c50 112 81 166 262 166l-21 -116c-55 0 -73 -19 -95 -63l-165 -337h-164z" />
    <glyph glyph-name="uni0490" unicode="&#x490;" horiz-adv-x="545" 
d="M32 0l127 720h303l21 122h146l-45 -258h-286l-103 -584h-163z" />
    <glyph glyph-name="uni0491" unicode="&#x491;" horiz-adv-x="438" 
d="M106 510h225l21 122h138l-42 -240h-202l-69 -392h-161z" />
    <glyph glyph-name="uni0492" unicode="&#x492;" horiz-adv-x="552" 
d="M34 313l18 103h65l54 304h444l-24 -136h-281l-30 -168h162l-18 -103h-162l-55 -313h-163l55 313h-65z" />
    <glyph glyph-name="uni0493" unicode="&#x493;" horiz-adv-x="441" 
d="M118 510h352l-21 -118h-191l-14 -80h130l-18 -103h-130l-37 -209h-161l37 209h-66l18 103h66z" />
    <glyph glyph-name="uni0496" unicode="&#x496;" horiz-adv-x="1052" 
d="M937 537l-38 -70c-30 -55 -61 -90 -126 -106c64 -23 92 -72 120 -146l34 -93h88l-49 -276h-152l27 154h-37l-75 207c-23 64 -40 93 -110 93h-14l-53 -300h-163l53 300h-8c-67 0 -98 -28 -143 -95l-137 -205h-183l160 233c46 67 86 113 167 133c-50 17 -71 51 -84 102
l-18 69c-11 43 -26 62 -89 62l22 127c140 0 186 -52 216 -167l18 -69c11 -44 25 -62 89 -62h12l52 292h163l-52 -292h15c72 0 88 19 111 62l38 70c62 114 103 166 280 166l-23 -127c-75 0 -88 -20 -111 -62z" />
    <glyph glyph-name="uni0497" unicode="&#x497;" horiz-adv-x="844" 
d="M726 357l-29 -49c-16 -27 -37 -48 -81 -56c47 -16 67 -49 87 -99l19 -50h79l-41 -233h-150l22 130h-29l-51 142c-15 42 -26 60 -69 62l-36 -204h-161l36 204c-40 -3 -61 -22 -88 -63l-94 -141h-170l117 169c29 42 58 73 117 86c-35 9 -48 28 -56 54l-15 48
c-9 30 -19 43 -62 43l20 116c107 0 148 -37 174 -119l15 -48c9 -30 18 -43 59 -43l37 204h161l-36 -204c40 0 57 14 74 43l29 49c46 77 72 118 220 118l-21 -116c-43 0 -60 -14 -77 -43z" />
    <glyph glyph-name="uni049A" unicode="&#x49a;" horiz-adv-x="707" 
d="M588 537l-38 -70c-30 -55 -61 -90 -126 -106c64 -23 92 -72 120 -146l34 -93h91l-49 -276h-152l27 154h-40l-75 207c-23 64 -40 93 -110 93h-22l-53 -300h-163l127 720h163l-52 -292h23c72 0 88 19 111 62l38 70c62 114 103 166 280 166l-23 -127c-75 0 -88 -20 -111 -62
z" />
    <glyph glyph-name="uni049B" unicode="&#x49b;" horiz-adv-x="577" 
d="M464 357l-29 -49c-16 -27 -37 -48 -81 -56c47 -16 67 -49 87 -99l19 -50h74l-41 -233h-150l23 130h-25l-51 142c-16 44 -27 62 -75 62h-2l-36 -204h-161l90 510h161l-36 -204h5c43 0 60 14 77 43l29 49c46 77 72 118 220 118l-21 -116c-43 0 -60 -14 -77 -43z" />
    <glyph glyph-name="uni049C" unicode="&#x49c;" horiz-adv-x="735" 
d="M640 537l-38 -70c-30 -55 -61 -90 -126 -106c64 -23 92 -72 120 -146l80 -215h-164l-75 207c-17 47 -31 75 -65 87l-28 -161h-86l29 167h-44l-53 -300h-158l127 720h158l-52 -292h45l26 147h86l-25 -143c34 7 47 26 64 58l38 70c62 114 103 166 275 166l-23 -127
c-75 0 -88 -20 -111 -62z" />
    <glyph glyph-name="uni049D" unicode="&#x49d;" horiz-adv-x="614" 
d="M516 357l-29 -49c-16 -27 -37 -48 -81 -56c47 -16 67 -49 87 -99l60 -153h-155l-51 142c-11 30 -20 44 -33 53l-18 -103h-78l19 112h-29l-36 -204h-156l90 510h156l-36 -204h29l18 99h78l-16 -92c15 7 25 19 35 36l29 49c46 77 72 118 215 118l-21 -116
c-43 0 -60 -14 -77 -43z" />
    <glyph glyph-name="uni04A2" unicode="&#x4a2;" horiz-adv-x="766" 
d="M32 0l127 720h163l-50 -284h243l50 284h163l-105 -598h84l-49 -276h-152l27 154h-95l53 300h-243l-53 -300h-163z" />
    <glyph glyph-name="uni04A3" unicode="&#x4a3;" horiz-adv-x="625" 
d="M321 0l36 204h-144l-36 -204h-161l90 510h161l-33 -189h144l33 189h161l-72 -407h66l-41 -233h-150l23 130h-77z" />
    <glyph glyph-name="uni04AE" unicode="&#x4ae;" horiz-adv-x="649" 
d="M198 0l51 290l-158 430h159l99 -281l198 281h175l-310 -430l-51 -290h-163z" />
    <glyph glyph-name="uni04AF" unicode="&#x4af;" horiz-adv-x="509" 
d="M88 -210l37 210l-82 510h155l40 -327l154 327h162l-268 -510l-37 -210h-161z" />
    <glyph glyph-name="uni04B0" unicode="&#x4b0;" horiz-adv-x="649" 
d="M96 187l18 103h135l-158 430h159l99 -281l198 281h175l-310 -430h135l-18 -103h-135l-33 -187h-163l33 187h-135z" />
    <glyph glyph-name="uni04B1" unicode="&#x4b1;" horiz-adv-x="509" 
d="M8 -79l19 103h103v1l-87 485h155l40 -327l154 327h162l-263 -485v-1h104l-19 -103h-104l-23 -131h-161l23 131h-103z" />
    <glyph glyph-name="uni04B2" unicode="&#x4b2;" horiz-adv-x="688" 
d="M-12 0l275 371l-140 349h166l87 -239l170 239h182l-264 -348l98 -250h91l-49 -276h-152l27 154h-36l-92 262l-181 -262h-182z" />
    <glyph glyph-name="uni04B3" unicode="&#x4b3;" horiz-adv-x="542" 
d="M-33 0l201 265l-100 245h156l50 -152l100 152h168l-186 -244l66 -163h81l-41 -233h-150l23 130h-25l-60 173l-116 -173h-167z" />
    <glyph glyph-name="uni04B6" unicode="&#x4b6;" horiz-adv-x="713" 
d="M344 393c35 0 73 6 120 21l54 306h163l-105 -598h84l-49 -276h-152l27 154h-95l51 288c-49 -15 -99 -23 -150 -23c-115 0 -216 40 -216 178c0 19 2 39 6 62l38 215h163l-38 -215c-2 -12 -5 -24 -5 -38c0 -56 44 -74 104 -74z" />
    <glyph glyph-name="uni04B7" unicode="&#x4b7;" horiz-adv-x="597" 
d="M76 510h161l-27 -155c-2 -11 -3 -18 -3 -26c0 -39 27 -49 66 -49c18 0 42 2 72 12l38 218h161l-72 -407h66l-41 -233h-150l23 130h-77l33 189c-35 -11 -72 -19 -116 -19c-87 0 -165 32 -165 140c0 17 2 36 5 54z" />
    <glyph glyph-name="uni04B8" unicode="&#x4b8;" horiz-adv-x="697" 
d="M258 98l29 167c-119 5 -211 48 -211 180c0 19 2 37 6 60l38 215h158l-39 -219c-2 -12 -3 -18 -3 -27c0 -50 28 -72 73 -79l26 145h86l-26 -146c29 3 59 10 95 20l54 306h157l-127 -720h-157l51 288c-32 -10 -63 -16 -95 -20l-29 -170h-86z" />
    <glyph glyph-name="uni04B9" unicode="&#x4b9;" horiz-adv-x="581" 
d="M280 61h-78l19 109c-90 0 -176 28 -176 140c0 17 2 36 5 54l26 146h156l-27 -155c-1 -6 -2 -16 -2 -23c0 -28 15 -43 38 -50l16 92h78l-17 -94c16 2 32 6 52 12l38 218h156l-90 -510h-156l33 189c-17 -5 -34 -9 -51 -12z" />
    <glyph glyph-name="uni04BA" unicode="&#x4ba;" horiz-adv-x="677" 
d="M369 330c-35 0 -73 -6 -120 -21l-54 -309h-163l127 720h163l-50 -280c49 15 99 23 150 23c115 0 216 -40 216 -178c0 -19 -2 -41 -6 -64l-39 -221h-163l38 215c2 12 5 27 5 41c0 56 -44 74 -104 74z" />
    <glyph glyph-name="uni04BB" unicode="&#x4bb;" horiz-adv-x="563" 
d="M484 0h-161l26 147c2 11 3 18 3 26c0 39 -27 49 -66 49c-18 0 -42 -2 -72 -12l-37 -210h-161l90 510h161l-34 -193c35 11 72 19 116 19c88 0 165 -32 165 -140c0 -17 -2 -36 -5 -54z" />
    <glyph glyph-name="uni04C0" unicode="&#x4c0;" horiz-adv-x="329" 
d="M38 0l127 720h163l-127 -720h-163z" />
    <glyph glyph-name="uni04CF" unicode="&#x4cf;" horiz-adv-x="296" 
d="M22 0l127 720h161l-127 -720h-161z" />
    <glyph glyph-name="uni04D8" unicode="&#x4d8;" horiz-adv-x="701" 
d="M65 420h460c-5 129 -63 176 -156 176c-67 0 -142 -24 -208 -61l-16 137c66 36 158 60 243 60c185 0 301 -115 301 -329c0 -232 -136 -415 -365 -415c-171 0 -279 102 -279 295c0 52 8 97 20 137zM332 117c96 0 159 77 183 183h-307v-14c0 -112 42 -169 124 -169z" />
    <glyph glyph-name="uni04D9" unicode="&#x4d9;" horiz-adv-x="528" 
d="M205 -12c-129 0 -197 68 -197 155c0 96 84 170 279 170c23 0 38 -1 53 -2c-7 63 -38 92 -102 92c-46 0 -100 -15 -145 -38l-11 119c52 23 120 38 185 38c149 0 236 -79 236 -228c0 -173 -118 -306 -298 -306zM217 95c55 0 102 48 119 126c-13 0 -17 1 -36 1
c-103 0 -143 -31 -143 -72c0 -30 20 -55 60 -55z" />
    <glyph glyph-name="uni04E2" unicode="&#x4e2;" horiz-adv-x="731" 
d="M735 720l-127 -720h-156l78 443l-348 -443h-150l127 720h156l-78 -443l348 443h150zM280 768l18 103h353l-18 -103h-353z" />
    <glyph glyph-name="uni04E3" unicode="&#x4e3;" horiz-adv-x="578" 
d="M561 510l-90 -510h-161l12 68c-47 -50 -103 -80 -168 -80c-61 0 -125 27 -125 126c0 13 1 33 4 50l61 346h161l-59 -334c-1 -7 -1 -11 -1 -13c0 -35 17 -45 41 -45c37 0 70 23 105 57l59 335h161zM161 560l18 103h351l-18 -103h-351z" />
    <glyph glyph-name="uni04E8" unicode="&#x4e8;" horiz-adv-x="723" 
d="M352 120c93 0 161 74 188 178h-333c6 -119 62 -178 145 -178zM406 596c-90 0 -157 -70 -185 -170h330c-8 113 -64 170 -145 170zM346 -12c-172 0 -298 117 -298 329c0 230 149 415 365 415c172 0 298 -117 298 -329c0 -230 -149 -415 -365 -415z" />
    <glyph glyph-name="uni04E9" unicode="&#x4e9;" horiz-adv-x="561" 
d="M259 101c55 0 96 44 114 107h-196c2 -74 33 -107 82 -107zM302 405c-53 0 -93 -41 -112 -100h193c-4 68 -34 100 -81 100zM251 -12c-127 0 -226 75 -226 232c0 171 118 302 285 302c127 0 226 -75 226 -232c0 -171 -118 -302 -285 -302z" />
    <glyph glyph-name="uni04EE" unicode="&#x4ee;" horiz-adv-x="649" 
d="M218 239l-127 481h154l92 -368l219 368h166l-306 -501c-102 -167 -173 -225 -333 -225c-36 0 -68 3 -88 6l23 131c19 -3 42 -6 70 -6c78 0 118 23 174 114h-44zM239 768l18 103h353l-18 -103h-353z" />
    <glyph glyph-name="uni04EF" unicode="&#x4ef;" horiz-adv-x="509" 
d="M-52 -211l22 125c16 -3 35 -5 53 -5c55 0 86 18 129 103h-42l-66 498h159l32 -374l158 374h162l-252 -521c-79 -162 -131 -205 -269 -205c-30 0 -60 2 -86 5zM132 560l18 103h351l-18 -103h-351z" />
    <glyph glyph-name="Wgrave" unicode="&#x1e80;" horiz-adv-x="960" 
d="M312 0h-159l-50 720h165l15 -319c3 -64 5 -128 1 -186h2c16 54 42 126 67 185l135 320h154l17 -324c4 -76 4 -126 1 -181h2c16 57 36 126 61 188l127 317h170l-307 -720h-159l-20 341c-4 66 -5 124 -4 183h-2c-24 -75 -56 -151 -71 -187zM666 762h-124l-120 147h168z" />
    <glyph glyph-name="wgrave" unicode="&#x1e81;" horiz-adv-x="740" 
d="M403 0l-14 206c-3 44 -4 85 -2 123h-3c-12 -38 -27 -77 -45 -117l-95 -212h-152l-45 510h146l15 -207c3 -41 4 -77 2 -121h2c11 37 30 85 45 119l92 209h139l13 -206c3 -47 4 -69 2 -122h2c10 41 20 76 39 121l88 207h152l-229 -510h-152zM519 553h-122l-117 167h168z
" />
    <glyph glyph-name="Wacute" unicode="&#x1e82;" horiz-adv-x="960" 
d="M312 0h-159l-50 720h165l15 -319c3 -64 5 -128 1 -186h2c16 54 42 126 67 185l135 320h154l17 -324c4 -76 4 -126 1 -181h2c16 57 36 126 61 188l127 317h170l-307 -720h-159l-20 341c-4 66 -5 124 -4 183h-2c-24 -75 -56 -151 -71 -187zM597 762h-133l105 147h190z" />
    <glyph glyph-name="wacute" unicode="&#x1e83;" horiz-adv-x="740" 
d="M403 0l-14 206c-3 44 -4 85 -2 123h-3c-12 -38 -27 -77 -45 -117l-95 -212h-152l-45 510h146l15 -207c3 -41 4 -77 2 -121h2c11 37 30 85 45 119l92 209h139l13 -206c3 -47 4 -69 2 -122h2c10 41 20 76 39 121l88 207h152l-229 -510h-152zM458 553h-132l108 167h190z" />
    <glyph glyph-name="Wdieresis" unicode="&#x1e84;" horiz-adv-x="960" 
d="M312 0h-159l-50 720h165l15 -319c3 -64 5 -128 1 -186h2c16 54 42 126 67 185l135 320h154l17 -324c4 -76 4 -126 1 -181h2c16 57 36 126 61 188l127 317h170l-307 -720h-159l-20 341c-4 66 -5 124 -4 183h-2c-24 -75 -56 -151 -71 -187zM551 837c0 -42 -32 -74 -76 -74
s-76 32 -76 74s32 74 76 74s76 -32 76 -74zM765 837c0 -42 -32 -74 -76 -74s-76 32 -76 74s32 74 76 74s76 -32 76 -74z" />
    <glyph glyph-name="wdieresis" unicode="&#x1e85;" horiz-adv-x="740" 
d="M403 0l-14 206c-3 44 -4 85 -2 123h-3c-12 -38 -27 -77 -45 -117l-95 -212h-152l-45 510h146l15 -207c3 -41 4 -77 2 -121h2c11 37 30 85 45 119l92 209h139l13 -206c3 -47 4 -69 2 -122h2c10 41 20 76 39 121l88 207h152l-229 -510h-152zM404 629c0 -42 -32 -74 -76 -74
s-76 32 -76 74s32 74 76 74s76 -32 76 -74zM618 629c0 -42 -32 -74 -76 -74s-76 32 -76 74s32 74 76 74s76 -32 76 -74z" />
    <glyph glyph-name="uni1E8A" unicode="&#x1e8a;" horiz-adv-x="688" 
d="M-12 0l275 371l-140 349h166l87 -239l170 239h182l-264 -348l146 -372h-167l-92 262l-181 -262h-182zM523 842c0 -49 -36 -84 -91 -84s-91 35 -91 84s36 84 91 84s91 -35 91 -84z" />
    <glyph glyph-name="uni1E8B" unicode="&#x1e8b;" horiz-adv-x="521" 
d="M-33 0l201 265l-100 245h156l50 -152l100 152h168l-186 -244l108 -266h-154l-60 173l-116 -173h-167zM408 627c0 -49 -36 -84 -91 -84s-91 35 -91 84s36 84 91 84s91 -35 91 -84z" />
    <glyph glyph-name="uni1E9E" unicode="&#x1e9e;" horiz-adv-x="1148" 
d="M565 49l61 124c61 -31 123 -55 187 -55c83 0 131 39 131 88c0 119 -282 80 -282 294c0 140 120 232 282 232c83 0 157 -24 219 -59l-62 -132c-49 31 -106 55 -163 55c-69 0 -113 -35 -113 -79c0 -112 282 -71 282 -290c0 -144 -121 -239 -298 -239c-84 0 -172 21 -244 61
zM1 49l61 124c61 -31 123 -55 187 -55c83 0 131 39 131 88c0 119 -282 80 -282 294c0 140 120 232 282 232c83 0 157 -24 219 -59l-62 -132c-49 31 -106 55 -163 55c-69 0 -113 -35 -113 -79c0 -112 282 -71 282 -290c0 -144 -121 -239 -298 -239c-84 0 -172 21 -244 61z
" />
    <glyph glyph-name="Ygrave" unicode="&#x1ef2;" horiz-adv-x="649" 
d="M198 0l51 290l-158 430h159l99 -281l198 281h175l-310 -430l-51 -290h-163zM511 762h-124l-120 147h168z" />
    <glyph glyph-name="ygrave" unicode="&#x1ef3;" horiz-adv-x="509" 
d="M-52 -211l22 125c16 -3 35 -5 53 -5c55 0 86 18 129 103h-42l-66 498h159l32 -374l158 374h162l-252 -521c-79 -162 -131 -205 -269 -205c-30 0 -60 2 -86 5zM403 553h-122l-117 167h168z" />
    <glyph glyph-name="uni2007" unicode="&#x2007;" horiz-adv-x="645" 
 />
    <glyph glyph-name="uni2008" unicode="&#x2008;" horiz-adv-x="301" 
 />
    <glyph glyph-name="uni200B" unicode="&#x200b;" horiz-adv-x="0" 
 />
    <glyph glyph-name="uniFEFF" unicode="&#xfeff;" horiz-adv-x="0" 
 />
    <glyph glyph-name="endash" unicode="&#x2013;" horiz-adv-x="500" 
d="M38 245l23 133h420l-23 -133h-420z" />
    <glyph glyph-name="emdash" unicode="&#x2014;" 
d="M38 245l23 133h920l-23 -133h-920z" />
    <glyph glyph-name="uni2015" unicode="&#x2015;" 
d="M38 245l23 133h920l-23 -133h-920z" />
    <glyph glyph-name="quoteleft" unicode="&#x2018;" horiz-adv-x="285" 
d="M181 379c-61 0 -108 44 -108 124c0 74 41 154 202 228l55 -75c-80 -35 -119 -70 -136 -105c47 -5 79 -39 79 -85c0 -49 -36 -87 -92 -87z" />
    <glyph glyph-name="quoteright" unicode="&#x2019;" horiz-adv-x="285" 
d="M208 732c61 0 108 -44 108 -124c0 -74 -41 -154 -202 -228l-55 75c80 35 119 70 136 105c-47 5 -79 39 -79 85c0 49 36 87 92 87z" />
    <glyph glyph-name="quotesinglbase" unicode="&#x201a;" horiz-adv-x="285" 
d="M110 172c61 0 108 -44 108 -124c0 -74 -41 -154 -202 -228l-55 75c80 35 119 70 136 105c-47 5 -79 39 -79 85c0 49 36 87 92 87z" />
    <glyph glyph-name="quotedblleft" unicode="&#x201c;" horiz-adv-x="520" 
d="M416 379c-61 0 -108 44 -108 124c0 74 41 154 202 228l55 -75c-80 -35 -119 -70 -136 -105c47 -5 79 -39 79 -85c0 -49 -36 -87 -92 -87zM181 379c-61 0 -108 44 -108 124c0 74 41 154 202 228l55 -75c-80 -35 -119 -70 -136 -105c47 -5 79 -39 79 -85
c0 -49 -36 -87 -92 -87z" />
    <glyph glyph-name="quotedblright" unicode="&#x201d;" horiz-adv-x="520" 
d="M443 732c61 0 108 -44 108 -124c0 -74 -41 -154 -202 -228l-55 75c80 35 119 70 136 105c-47 5 -79 39 -79 85c0 49 36 87 92 87zM208 732c61 0 108 -44 108 -124c0 -74 -41 -154 -202 -228l-55 75c80 35 119 70 136 105c-47 5 -79 39 -79 85c0 49 36 87 92 87z" />
    <glyph glyph-name="quotedblbase" unicode="&#x201e;" horiz-adv-x="520" 
d="M345 172c61 0 108 -44 108 -124c0 -74 -41 -154 -202 -228l-55 75c80 35 119 70 136 105c-47 5 -79 39 -79 85c0 49 36 87 92 87zM110 172c61 0 108 -44 108 -124c0 -74 -41 -154 -202 -228l-55 75c80 35 119 70 136 105c-47 5 -79 39 -79 85c0 49 36 87 92 87z" />
    <glyph glyph-name="dagger" unicode="&#x2020;" horiz-adv-x="572" 
d="M148 -83l104 466l-168 -15l24 135l158 -15l17 192h156l-51 -192l164 15l-24 -135l-162 15l-62 -466h-156z" />
    <glyph glyph-name="daggerdbl" unicode="&#x2021;" horiz-adv-x="572" 
d="M439 680l-47 -172l163 15l-24 -135l-162 15l-37 -209l168 15l-24 -135l-159 15l-13 -172h-156l47 172l-163 -15l24 135l162 -15l37 209l-168 -15l24 135l159 -15l13 172h156z" />
    <glyph glyph-name="bullet" unicode="&#x2022;" horiz-adv-x="462" 
d="M382 351c0 -78 -58 -135 -136 -135s-136 57 -136 135s58 135 136 135s136 -57 136 -135z" />
    <glyph glyph-name="onedotenleader" unicode="&#x2024;" horiz-adv-x="301" 
d="M118 -12c-56 0 -96 40 -96 92s40 92 96 92s96 -40 96 -92s-40 -92 -96 -92z" />
    <glyph glyph-name="twodotenleader" unicode="&#x2025;" horiz-adv-x="551" 
d="M118 -12c-56 0 -96 40 -96 92s40 92 96 92s96 -40 96 -92s-40 -92 -96 -92zM368 -12c-56 0 -96 40 -96 92s40 92 96 92s96 -40 96 -92s-40 -92 -96 -92z" />
    <glyph glyph-name="ellipsis" unicode="&#x2026;" horiz-adv-x="801" 
d="M118 -12c-56 0 -96 40 -96 92s40 92 96 92s96 -40 96 -92s-40 -92 -96 -92zM368 -12c-56 0 -96 40 -96 92s40 92 96 92s96 -40 96 -92s-40 -92 -96 -92zM618 -12c-56 0 -96 40 -96 92s40 92 96 92s96 -40 96 -92s-40 -92 -96 -92z" />
    <glyph glyph-name="perthousand" unicode="&#x2030;" horiz-adv-x="1188" 
d="M954 79c42 0 61 55 61 102c0 40 -14 66 -43 66c-42 0 -61 -55 -61 -102c0 -40 14 -66 43 -66zM951 -6c-98 0 -157 68 -157 156c0 93 68 184 181 184c98 0 157 -68 157 -156c0 -93 -68 -184 -181 -184zM75 0l566 720h144l-566 -720h-144zM246 471c42 0 61 55 61 102
c0 40 -14 66 -43 66c-42 0 -61 -55 -61 -102c0 -40 14 -66 43 -66zM243 386c-98 0 -157 68 -157 156c0 93 68 184 181 184c98 0 157 -68 157 -156c0 -93 -68 -184 -181 -184zM596 79c42 0 61 55 61 102c0 40 -14 66 -43 66c-42 0 -61 -55 -61 -102c0 -40 14 -66 43 -66z
M593 -6c-98 0 -157 68 -157 156c0 93 68 184 181 184c98 0 157 -68 157 -156c0 -93 -68 -184 -181 -184z" />
    <glyph glyph-name="minute" unicode="&#x2032;" horiz-adv-x="211" 
d="M63 432l71 288h129l-89 -288h-111z" />
    <glyph glyph-name="second" unicode="&#x2033;" horiz-adv-x="403" 
d="M255 432l71 288h129l-89 -288h-111zM63 432l71 288h129l-89 -288h-111z" />
    <glyph glyph-name="guilsinglleft" unicode="&#x2039;" horiz-adv-x="340" 
d="M129 24l-104 231l171 231h154l-175 -240l93 -222h-139z" />
    <glyph glyph-name="guilsinglright" unicode="&#x203a;" horiz-adv-x="340" 
d="M210 486l104 -231l-171 -231h-154l175 240l-93 222h139z" />
    <glyph glyph-name="exclamdbl" unicode="&#x203c;" horiz-adv-x="589" 
d="M100 224l58 496h185l-116 -496h-127zM230 74c0 -49 -38 -86 -92 -86s-92 37 -92 86s38 86 92 86s92 -37 92 -86zM352 224l58 496h185l-116 -496h-127zM482 74c0 -49 -38 -86 -92 -86s-92 37 -92 86s38 86 92 86s92 -37 92 -86z" />
    <glyph glyph-name="fraction" unicode="&#x2044;" horiz-adv-x="112" 
d="M-220 0l573 720h137l-573 -720h-137z" />
    <glyph glyph-name="uni2070" unicode="&#x2070;" horiz-adv-x="408" 
d="M248 458c59 0 93 85 93 178c0 72 -20 108 -59 108c-59 0 -93 -85 -93 -178c0 -72 20 -108 59 -108zM241 372c-94 0 -160 68 -160 196c0 141 80 266 208 266c94 0 160 -68 160 -196c0 -141 -80 -266 -208 -266z" />
    <glyph glyph-name="uni2071" unicode="&#x2071;" horiz-adv-x="204" 
d="M70 380l56 316h108l-56 -316h-108zM253 784c0 -32 -23 -56 -59 -56s-59 24 -59 56s23 56 59 56s59 -24 59 -56z" />
    <glyph glyph-name="uni2074" unicode="&#x2074;" horiz-adv-x="401" 
d="M52 464l14 82l230 280h133l-49 -276h64l-15 -86h-64l-15 -84h-105l15 84h-208zM174 550h101l28 156z" />
    <glyph glyph-name="uni2075" unicode="&#x2075;" horiz-adv-x="348" 
d="M274 527c0 41 -29 58 -86 58c-24 0 -60 -3 -104 -15l54 256h276l-16 -90h-175l-15 -70c8 1 15 1 22 1c94 0 153 -50 153 -137c0 -99 -76 -158 -192 -158c-61 0 -114 16 -155 35l40 84c34 -17 67 -32 110 -32c59 0 88 27 88 68z" />
    <glyph glyph-name="uni2076" unicode="&#x2076;" horiz-adv-x="381" 
d="M308 834c46 0 95 -11 129 -33l-40 -86c-30 16 -58 28 -92 28c-63 0 -98 -41 -112 -100c32 30 64 37 93 37c78 0 128 -54 128 -139c0 -105 -75 -169 -167 -169c-97 0 -166 72 -166 203c0 140 78 259 227 259zM256 595c-22 0 -42 -9 -70 -33c2 -79 29 -106 63 -106
c36 0 62 31 62 76c0 41 -21 63 -55 63z" />
    <glyph glyph-name="uni2077" unicode="&#x2077;" horiz-adv-x="312" 
d="M89 733l17 93h302l-16 -88c-72 -108 -137 -223 -208 -358h-124c69 132 133 247 204 353h-175z" />
    <glyph glyph-name="uni2078" unicode="&#x2078;" horiz-adv-x="374" 
d="M221 372c-101 0 -166 46 -166 122c0 66 51 97 108 119c-31 19 -52 48 -52 91c0 78 66 130 164 130c92 0 149 -45 149 -115c0 -55 -37 -87 -87 -107c38 -22 69 -50 69 -103c0 -83 -75 -137 -185 -137zM216 710c0 -27 20 -42 48 -57c32 14 55 31 55 61c0 26 -17 41 -48 41
s-55 -16 -55 -45zM226 447c39 0 72 19 72 56c0 35 -29 53 -62 69c-41 -16 -72 -35 -72 -74c0 -33 23 -51 62 -51z" />
    <glyph glyph-name="uni2079" unicode="&#x2079;" horiz-adv-x="381" 
d="M196 372c-46 0 -95 11 -129 33l40 82c30 -16 58 -28 92 -28c64 0 99 43 112 105c-32 -31 -64 -38 -93 -38c-78 0 -128 54 -128 139c0 105 75 169 167 169c97 0 166 -72 166 -203c0 -140 -78 -259 -227 -259zM248 607c21 0 42 9 70 33c-2 79 -30 106 -63 106
c-36 0 -62 -31 -62 -76c0 -41 21 -63 55 -63z" />
    <glyph glyph-name="uni207A" unicode="&#x207a;" horiz-adv-x="364" 
d="M247 380h-86l20 116h-108l15 84h108l20 116h86l-20 -116h108l-15 -84h-108z" />
    <glyph glyph-name="uni207B" unicode="&#x207b;" horiz-adv-x="364" 
d="M390 580l-15 -84h-302l15 84h302z" />
    <glyph glyph-name="uni207C" unicode="&#x207c;" horiz-adv-x="364" 
d="M378 512l-13 -75h-302l13 75h302zM400 638l-13 -75h-302l13 75h302z" />
    <glyph glyph-name="uni207D" unicode="&#x207d;" horiz-adv-x="237" 
d="M174 509c0 -91 28 -160 59 -204l-63 -40c-46 46 -103 119 -103 245c0 175 111 271 196 332l55 -50c-84 -66 -144 -151 -144 -283z" />
    <glyph glyph-name="uni207E" unicode="&#x207e;" horiz-adv-x="237" 
d="M168 598c0 91 -28 160 -59 204l63 40c46 -46 103 -119 103 -245c0 -175 -111 -271 -196 -332l-55 50c84 66 144 151 144 283z" />
    <glyph glyph-name="uni207F" unicode="&#x207f;" horiz-adv-x="368" 
d="M62 380l56 316h107l-7 -41c28 31 65 49 102 49c36 0 78 -18 78 -78c0 -9 -1 -21 -3 -32l-38 -214h-108l36 197c1 7 1 8 1 10c0 22 -11 26 -23 26c-21 0 -41 -13 -58 -30l-36 -203h-107z" />
    <glyph glyph-name="uni2080" unicode="&#x2080;" horiz-adv-x="408" 
d="M162 -28c59 0 93 85 93 178c0 72 -20 108 -59 108c-59 0 -93 -85 -93 -178c0 -72 20 -108 59 -108zM155 -114c-94 0 -160 68 -160 196c0 141 80 266 208 266c94 0 160 -68 160 -196c0 -141 -80 -266 -208 -266z" />
    <glyph glyph-name="uni2081" unicode="&#x2081;" horiz-adv-x="260" 
d="M30 193l-13 91l118 56h86l-79 -446h-108l58 327z" />
    <glyph glyph-name="uni2082" unicode="&#x2082;" horiz-adv-x="360" 
d="M208 209c0 27 -16 45 -51 45c-42 0 -85 -24 -117 -56l-14 93c32 31 85 57 149 57c89 0 141 -51 141 -129c0 -88 -67 -155 -179 -238h147l-15 -87h-312l13 77c183 122 238 188 238 238z" />
    <glyph glyph-name="uni2083" unicode="&#x2083;" horiz-adv-x="353" 
d="M171 348c85 0 147 -37 147 -111c0 -55 -34 -95 -101 -118c52 -18 74 -51 74 -97c0 -84 -73 -136 -189 -136c-60 0 -112 14 -154 35l40 83c36 -18 70 -32 111 -32c52 0 79 22 79 55s-26 50 -87 50c-15 0 -29 -1 -47 -2l13 79c117 0 153 25 153 62c0 28 -20 42 -54 42
c-32 0 -72 -13 -114 -35l-8 90c41 22 87 35 137 35z" />
    <glyph glyph-name="uni2084" unicode="&#x2084;" horiz-adv-x="401" 
d="M-34 -22l14 82l230 280h133l-49 -276h64l-15 -86h-64l-15 -84h-105l15 84h-208zM88 64h101l28 156z" />
    <glyph glyph-name="uni2085" unicode="&#x2085;" horiz-adv-x="348" 
d="M188 41c0 41 -29 58 -86 58c-24 0 -60 -3 -104 -15l54 256h276l-16 -90h-175l-15 -70c8 1 15 1 22 1c94 0 153 -50 153 -137c0 -99 -76 -158 -192 -158c-61 0 -114 16 -155 35l40 84c34 -17 67 -32 110 -32c59 0 88 27 88 68z" />
    <glyph glyph-name="uni2086" unicode="&#x2086;" horiz-adv-x="381" 
d="M222 348c46 0 95 -11 129 -33l-40 -86c-30 16 -58 28 -92 28c-63 0 -98 -41 -112 -100c32 30 64 37 93 37c78 0 128 -54 128 -139c0 -105 -75 -169 -167 -169c-97 0 -166 72 -166 203c0 140 78 259 227 259zM170 109c-22 0 -42 -9 -70 -33c2 -79 29 -106 63 -106
c36 0 62 31 62 76c0 41 -21 63 -55 63z" />
    <glyph glyph-name="uni2087" unicode="&#x2087;" horiz-adv-x="312" 
d="M3 247l17 93h302l-16 -88c-72 -108 -137 -223 -208 -358h-124c69 132 133 247 204 353h-175z" />
    <glyph glyph-name="uni2088" unicode="&#x2088;" horiz-adv-x="374" 
d="M135 -114c-101 0 -166 46 -166 122c0 66 51 97 108 119c-31 19 -52 48 -52 91c0 78 66 130 164 130c92 0 149 -45 149 -115c0 -55 -37 -87 -87 -107c38 -22 69 -50 69 -103c0 -83 -75 -137 -185 -137zM130 224c0 -27 20 -42 48 -57c32 14 55 31 55 61c0 26 -17 41 -48 41
s-55 -16 -55 -45zM140 -39c39 0 72 19 72 56c0 35 -29 53 -62 69c-41 -16 -72 -35 -72 -74c0 -33 23 -51 62 -51z" />
    <glyph glyph-name="uni2089" unicode="&#x2089;" horiz-adv-x="381" 
d="M110 -114c-46 0 -95 11 -129 33l40 82c30 -16 58 -28 92 -28c64 0 99 43 112 105c-32 -31 -64 -38 -93 -38c-78 0 -128 54 -128 139c0 105 75 169 167 169c97 0 166 -72 166 -203c0 -140 -78 -259 -227 -259zM162 121c21 0 42 9 70 33c-2 79 -30 106 -63 106
c-36 0 -62 -31 -62 -76c0 -41 21 -63 55 -63z" />
    <glyph glyph-name="uni208A" unicode="&#x208a;" horiz-adv-x="364" 
d="M161 -106h-86l20 116h-108l15 84h108l20 116h86l-20 -116h108l-15 -84h-108z" />
    <glyph glyph-name="uni208B" unicode="&#x208b;" horiz-adv-x="364" 
d="M304 94l-15 -84h-302l15 84h302z" />
    <glyph glyph-name="uni208C" unicode="&#x208c;" horiz-adv-x="364" 
d="M292 26l-13 -75h-302l13 75h302zM314 152l-13 -75h-302l13 75h302z" />
    <glyph glyph-name="uni208D" unicode="&#x208d;" horiz-adv-x="237" 
d="M88 23c0 -91 28 -160 59 -204l-63 -40c-46 46 -103 119 -103 245c0 175 111 271 196 332l55 -50c-84 -66 -144 -151 -144 -283z" />
    <glyph glyph-name="uni208E" unicode="&#x208e;" horiz-adv-x="237" 
d="M82 112c0 91 -28 160 -59 204l63 40c46 -46 103 -119 103 -245c0 -175 -111 -271 -196 -332l-55 50c84 66 144 151 144 283z" />
    <glyph glyph-name="Euro" unicode="&#x20ac;" horiz-adv-x="623" 
d="M42 385l18 97h89c53 146 171 250 337 250c77 0 133 -22 175 -51l-59 -124c-41 28 -78 45 -125 45c-78 0 -134 -48 -167 -120h197l-17 -97h-208c-3 -19 -6 -38 -7 -57h204l-17 -97h-182c14 -86 58 -120 118 -120c44 0 94 18 139 49l15 -124c-48 -28 -111 -48 -178 -48
c-136 0 -232 83 -252 243h-108l18 97h87c1 19 2 38 5 57h-82z" />
    <glyph glyph-name="uni20B1" unicode="&#x20b1;" horiz-adv-x="645" 
d="M28 430l17 97h83l34 193h222c147 0 242 -62 253 -193h63l-17 -97h-54c-29 -117 -132 -187 -300 -187h-90l-42 -243h-162l76 430h-83zM260 356h72c75 0 118 28 136 74h-195zM303 602l-13 -75h188c-9 53 -43 75 -103 75h-72z" />
    <glyph glyph-name="uni20B4" unicode="&#x20b4;" horiz-adv-x="616" 
d="M43 385l18 97h363c13 14 21 31 21 52c0 46 -35 68 -87 68c-56 0 -116 -25 -168 -55l-16 131c61 33 131 54 207 54c136 0 226 -68 226 -189c0 -25 -4 -44 -9 -61h38l-17 -97h-96c-35 -26 -88 -42 -131 -57h216l-17 -97h-375c-7 -12 -11 -26 -11 -42c0 -52 43 -78 108 -78
c63 0 126 24 188 56l16 -125c-65 -34 -143 -54 -227 -54c-149 0 -247 63 -247 198c0 14 1 31 4 45h-32l18 97h74c27 25 71 42 108 57h-172z" />
    <glyph glyph-name="uni2113" unicode="&#x2113;" horiz-adv-x="572" 
d="M24 312c36 0 69 2 100 5l40 227c21 119 92 188 201 188c106 0 182 -66 182 -189c0 -126 -79 -254 -285 -311l-2 -10c-3 -16 -4 -31 -4 -42c0 -58 30 -77 83 -77c39 0 70 10 105 28l11 -113c-36 -18 -81 -30 -145 -30c-117 0 -206 41 -206 184c0 9 0 20 1 34
c-31 -3 -65 -4 -100 -4zM314 530l-31 -175c103 46 139 120 139 188c0 54 -22 69 -45 69c-28 0 -52 -21 -63 -82z" />
    <glyph glyph-name="uni2116" unicode="&#x2116;" horiz-adv-x="1091" 
d="M920 437c42 0 61 55 61 102c0 40 -14 66 -43 66c-42 0 -61 -55 -61 -102c0 -40 14 -66 43 -66zM917 352c-98 0 -157 68 -157 156c0 93 68 184 181 184c98 0 157 -68 157 -156c0 -93 -68 -184 -181 -184zM32 0l127 720h171l178 -434l77 434h150l-127 -720h-136l-203 495
l-87 -495h-150z" />
    <glyph glyph-name="uni2117" unicode="&#x2117;" horiz-adv-x="838" 
d="M298 541h154c97 0 155 -41 155 -124s-61 -125 -163 -125h-33v-117h-113v366zM138 360c0 -173 129 -301 295 -301s295 128 295 301s-129 301 -295 301s-295 -128 -295 -301zM805 360c0 -213 -163 -372 -372 -372s-372 159 -372 372s163 372 372 372s372 -159 372 -372z
M411 372h31c35 0 52 14 52 42s-17 42 -52 42h-31v-84z" />
    <glyph glyph-name="uni2120" unicode="&#x2120;" horiz-adv-x="810" 
d="M688 380l19 153c2 16 9 62 13 82h-2c-7 -22 -11 -33 -31 -74l-79 -161h-90l-18 157c-3 23 -6 62 -6 78h-2c-1 -8 -4 -25 -18 -85l-35 -150h-95l93 340h128l14 -161c2 -25 3 -46 3 -66h2c7 19 17 41 28 64l80 163h125l-29 -340h-100zM51 400l32 74c30 -13 63 -24 93 -24
c28 0 51 10 51 30c0 47 -128 34 -128 134c0 66 55 113 145 113c42 0 81 -10 113 -26l-33 -78c-27 14 -51 24 -77 24c-25 0 -44 -9 -44 -25c0 -42 128 -28 128 -131c0 -71 -62 -118 -157 -118c-44 0 -88 10 -123 27z" />
    <glyph glyph-name="trademark" unicode="&#x2122;" horiz-adv-x="799" 
d="M678 380l19 153c2 16 9 62 13 82h-2c-7 -22 -11 -33 -31 -74l-79 -161h-90l-18 157c-3 23 -6 62 -6 78h-2c-1 -8 -4 -25 -18 -85l-35 -150h-95l93 340h128l14 -161c2 -25 3 -46 3 -66h2c7 19 17 41 28 64l80 163h125l-29 -340h-100zM124 380l46 260h-90l14 80h284
l-14 -80h-90l-46 -260h-104z" />
    <glyph glyph-name="Omega" unicode="&#x2126;" horiz-adv-x="723" 
d="M410 596c-106 0 -189 -84 -189 -244c0 -94 29 -162 78 -240l-20 -112h-306l23 131h147c-53 60 -85 138 -85 235c0 211 152 366 356 366c175 0 303 -113 303 -297c0 -119 -54 -229 -154 -304h139l-23 -131h-301l20 112c99 98 156 180 156 304c0 128 -60 180 -144 180z" />
    <glyph glyph-name="estimated" unicode="&#x212e;" horiz-adv-x="736" 
d="M368 24c64 0 124 28 163 72h81c-56 -65 -144 -108 -244 -108c-168 0 -308 125 -308 277s140 277 308 277s308 -125 308 -277v-18h-435v-183c36 -25 80 -40 127 -40zM241 283h254v183c-36 25 -80 40 -127 40s-91 -15 -127 -40v-183z" />
    <glyph glyph-name="uni2150" unicode="&#x2150;" horiz-adv-x="844" 
d="M41 0l573 720h137l-573 -720h-137zM90 573l-13 91l118 56h86l-79 -446h-108l58 327zM560 353l17 93h302l-16 -88c-72 -108 -137 -223 -208 -358h-124c69 132 133 247 204 353h-175z" />
    <glyph glyph-name="uni2151" unicode="&#x2151;" horiz-adv-x="854" 
d="M41 0l573 720h137l-573 -720h-137zM609 -5c-46 0 -95 11 -129 33l40 82c30 -16 58 -28 92 -28c64 0 99 43 112 105c-32 -31 -64 -38 -93 -38c-78 0 -128 54 -128 139c0 105 75 169 167 169c97 0 166 -72 166 -203c0 -140 -78 -259 -227 -259zM661 230c21 0 42 9 70 33
c-2 79 -30 106 -63 106c-36 0 -62 -31 -62 -76c0 -41 21 -63 55 -63zM116 573l-13 91l118 56h86l-79 -446h-108l58 327z" />
    <glyph glyph-name="uni2152" unicode="&#x2152;" horiz-adv-x="1138" 
d="M41 0l573 720h137l-573 -720h-137zM116 573l-13 91l118 56h86l-79 -446h-108l58 327zM549 299l-13 91l118 56h86l-79 -446h-108l58 327zM917 78c59 0 93 85 93 178c0 72 -20 108 -59 108c-59 0 -93 -85 -93 -178c0 -72 20 -108 59 -108zM910 -8c-94 0 -160 68 -160 196
c0 141 80 266 208 266c94 0 160 -68 160 -196c0 -141 -80 -266 -208 -266z" />
    <glyph glyph-name="onethird" unicode="&#x2153;" horiz-adv-x="851" 
d="M41 0l573 720h137l-573 -720h-137zM692 454c85 0 147 -37 147 -111c0 -55 -34 -95 -101 -118c52 -18 74 -51 74 -97c0 -84 -73 -136 -189 -136c-60 0 -112 14 -154 35l40 83c36 -18 70 -32 111 -32c52 0 79 22 79 55s-26 50 -87 50c-15 0 -29 -1 -47 -2l13 79
c117 0 153 25 153 62c0 28 -20 42 -54 42c-32 0 -72 -13 -114 -35l-8 90c41 22 87 35 137 35zM116 573l-13 91l118 56h86l-79 -446h-108l58 327z" />
    <glyph glyph-name="twothirds" unicode="&#x2154;" horiz-adv-x="990" 
d="M191 0l573 720h137l-573 -720h-137zM831 454c85 0 147 -37 147 -111c0 -55 -34 -95 -101 -118c52 -18 74 -51 74 -97c0 -84 -73 -136 -189 -136c-60 0 -112 14 -154 35l40 83c36 -18 70 -32 111 -32c52 0 79 22 79 55s-26 50 -87 50c-15 0 -29 -1 -47 -2l13 79
c117 0 153 25 153 62c0 28 -20 42 -54 42c-32 0 -72 -13 -114 -35l-8 90c41 22 87 35 137 35zM294 589c0 27 -16 45 -51 45c-42 0 -85 -24 -117 -56l-14 93c32 31 85 57 149 57c89 0 141 -51 141 -129c0 -88 -67 -155 -179 -238h147l-15 -87h-312l13 77
c183 122 238 188 238 238z" />
    <glyph glyph-name="uni2155" unicode="&#x2155;" horiz-adv-x="859" 
d="M41 0l573 720h137l-573 -720h-137zM714 147c0 41 -29 58 -86 58c-24 0 -60 -3 -104 -15l54 256h276l-16 -90h-175l-15 -70c8 1 15 1 22 1c94 0 153 -50 153 -137c0 -99 -76 -158 -192 -158c-61 0 -114 16 -155 35l40 84c34 -17 67 -32 110 -32c59 0 88 27 88 68zM116 573
l-13 91l118 56h86l-79 -446h-108l58 327z" />
    <glyph glyph-name="uni2156" unicode="&#x2156;" horiz-adv-x="995" 
d="M181 0l573 720h137l-573 -720h-137zM294 589c0 27 -16 45 -51 45c-42 0 -85 -24 -117 -56l-14 93c32 31 85 57 149 57c89 0 141 -51 141 -129c0 -88 -67 -155 -179 -238h147l-15 -87h-312l13 77c183 122 238 188 238 238zM850 147c0 41 -29 58 -86 58
c-24 0 -60 -3 -104 -15l54 256h276l-16 -90h-175l-15 -70c8 1 15 1 22 1c94 0 153 -50 153 -137c0 -99 -76 -158 -192 -158c-61 0 -114 16 -155 35l40 84c34 -17 67 -32 110 -32c59 0 88 27 88 68z" />
    <glyph glyph-name="uni2157" unicode="&#x2157;" horiz-adv-x="940" 
d="M125 0l573 720h137l-573 -720h-137zM795 147c0 41 -29 58 -86 58c-24 0 -60 -3 -104 -15l54 256h276l-16 -90h-175l-15 -70c8 1 15 1 22 1c94 0 153 -50 153 -137c0 -99 -76 -158 -192 -158c-61 0 -114 16 -155 35l40 84c34 -17 67 -32 110 -32c59 0 88 27 88 68z
M239 728c85 0 147 -37 147 -111c0 -55 -34 -95 -101 -118c52 -18 74 -51 74 -97c0 -84 -73 -136 -189 -136c-60 0 -112 14 -154 35l40 83c36 -18 70 -32 111 -32c52 0 79 22 79 55s-26 50 -87 50c-15 0 -29 -1 -47 -2l13 79c117 0 153 25 153 62c0 28 -20 42 -54 42
c-32 0 -72 -13 -114 -35l-8 90c41 22 87 35 137 35z" />
    <glyph glyph-name="uni2158" unicode="&#x2158;" horiz-adv-x="986" 
d="M171 0l573 720h137l-573 -720h-137zM52 358l14 82l230 280h133l-49 -276h64l-15 -86h-64l-15 -84h-105l15 84h-208zM174 444h101l28 156zM841 147c0 41 -29 58 -86 58c-24 0 -60 -3 -104 -15l54 256h276l-16 -90h-175l-15 -70c8 1 15 1 22 1c94 0 153 -50 153 -137
c0 -99 -76 -158 -192 -158c-61 0 -114 16 -155 35l40 84c34 -17 67 -32 110 -32c59 0 88 27 88 68z" />
    <glyph glyph-name="uni2159" unicode="&#x2159;" horiz-adv-x="833" 
d="M41 0l573 720h137l-573 -720h-137zM698 454c46 0 95 -11 129 -33l-40 -86c-30 16 -58 28 -92 28c-63 0 -98 -41 -112 -100c32 30 64 37 93 37c78 0 128 -54 128 -139c0 -105 -75 -169 -167 -169c-97 0 -166 72 -166 203c0 140 78 259 227 259zM646 215
c-22 0 -42 -9 -70 -33c2 -79 29 -106 63 -106c36 0 62 31 62 76c0 41 -21 63 -55 63zM116 573l-13 91l118 56h86l-79 -446h-108l58 327z" />
    <glyph glyph-name="uni215A" unicode="&#x215a;" horiz-adv-x="900" 
d="M109 0l573 720h137l-573 -720h-137zM245 421c0 41 -29 58 -86 58c-24 0 -60 -3 -104 -15l54 256h276l-16 -90h-175l-15 -70c8 1 15 1 22 1c94 0 153 -50 153 -137c0 -99 -76 -158 -192 -158c-61 0 -114 16 -155 35l40 84c34 -17 67 -32 110 -32c59 0 88 27 88 68z
M765 454c46 0 95 -11 129 -33l-40 -86c-30 16 -58 28 -92 28c-63 0 -98 -41 -112 -100c32 30 64 37 93 37c78 0 128 -54 128 -139c0 -105 -75 -169 -167 -169c-97 0 -166 72 -166 203c0 140 78 259 227 259zM713 215c-22 0 -42 -9 -70 -33c2 -79 29 -106 63 -106
c36 0 62 31 62 76c0 41 -21 63 -55 63z" />
    <glyph glyph-name="oneeighth" unicode="&#x215b;" horiz-adv-x="835" 
d="M41 0l573 720h137l-573 -720h-137zM626 -8c-101 0 -166 46 -166 122c0 66 51 97 108 119c-31 19 -52 48 -52 91c0 78 66 130 164 130c92 0 149 -45 149 -115c0 -55 -37 -87 -87 -107c38 -22 69 -50 69 -103c0 -83 -75 -137 -185 -137zM621 330c0 -27 20 -42 48 -57
c32 14 55 31 55 61c0 26 -17 41 -48 41s-55 -16 -55 -45zM631 67c39 0 72 19 72 56c0 35 -29 53 -62 69c-41 -16 -72 -35 -72 -74c0 -33 23 -51 62 -51zM116 573l-13 91l118 56h86l-79 -446h-108l58 327z" />
    <glyph glyph-name="threeeighths" unicode="&#x215c;" horiz-adv-x="899" 
d="M108 0l573 720h137l-573 -720h-137zM690 -8c-101 0 -166 46 -166 122c0 66 51 97 108 119c-31 19 -52 48 -52 91c0 78 66 130 164 130c92 0 149 -45 149 -115c0 -55 -37 -87 -87 -107c38 -22 69 -50 69 -103c0 -83 -75 -137 -185 -137zM685 330c0 -27 20 -42 48 -57
c32 14 55 31 55 61c0 26 -17 41 -48 41s-55 -16 -55 -45zM695 67c39 0 72 19 72 56c0 35 -29 53 -62 69c-41 -16 -72 -35 -72 -74c0 -33 23 -51 62 -51zM239 728c85 0 147 -37 147 -111c0 -55 -34 -95 -101 -118c52 -18 74 -51 74 -97c0 -84 -73 -136 -189 -136
c-60 0 -112 14 -154 35l40 83c36 -18 70 -32 111 -32c52 0 79 22 79 55s-26 50 -87 50c-15 0 -29 -1 -47 -2l13 79c117 0 153 25 153 62c0 28 -20 42 -54 42c-32 0 -72 -13 -114 -35l-8 90c41 22 87 35 137 35z" />
    <glyph glyph-name="fiveeighths" unicode="&#x215d;" horiz-adv-x="899" 
d="M108 0l573 720h137l-573 -720h-137zM690 -8c-101 0 -166 46 -166 122c0 66 51 97 108 119c-31 19 -52 48 -52 91c0 78 66 130 164 130c92 0 149 -45 149 -115c0 -55 -37 -87 -87 -107c38 -22 69 -50 69 -103c0 -83 -75 -137 -185 -137zM685 330c0 -27 20 -42 48 -57
c32 14 55 31 55 61c0 26 -17 41 -48 41s-55 -16 -55 -45zM695 67c39 0 72 19 72 56c0 35 -29 53 -62 69c-41 -16 -72 -35 -72 -74c0 -33 23 -51 62 -51zM256 421c0 41 -29 58 -86 58c-24 0 -60 -3 -104 -15l54 256h276l-16 -90h-175l-15 -70c8 1 15 1 22 1
c94 0 153 -50 153 -137c0 -99 -76 -158 -192 -158c-61 0 -114 16 -155 35l40 84c34 -17 67 -32 110 -32c59 0 88 27 88 68z" />
    <glyph glyph-name="seveneighths" unicode="&#x215e;" horiz-adv-x="788" 
d="M-4 0l573 720h137l-573 -720h-137zM579 -8c-101 0 -166 46 -166 122c0 66 51 97 108 119c-31 19 -52 48 -52 91c0 78 66 130 164 130c92 0 149 -45 149 -115c0 -55 -37 -87 -87 -107c38 -22 69 -50 69 -103c0 -83 -75 -137 -185 -137zM574 330c0 -27 20 -42 48 -57
c32 14 55 31 55 61c0 26 -17 41 -48 41s-55 -16 -55 -45zM584 67c39 0 72 19 72 56c0 35 -29 53 -62 69c-41 -16 -72 -35 -72 -74c0 -33 23 -51 62 -51zM67 627l17 93h302l-16 -88c-72 -108 -137 -223 -208 -358h-124c69 132 133 247 204 353h-175z" />
    <glyph glyph-name="uni215F" unicode="&#x215f;" horiz-adv-x="694" 
d="M41 0l573 720h137l-573 -720h-137zM116 573l-13 91l118 56h86l-79 -446h-108l58 327z" />
    <glyph glyph-name="uni2189" unicode="&#x2189;" horiz-adv-x="967" 
d="M248 352c59 0 93 85 93 178c0 72 -20 108 -59 108c-59 0 -93 -85 -93 -178c0 -72 20 -108 59 -108zM241 266c-94 0 -160 68 -160 196c0 141 80 266 208 266c94 0 160 -68 160 -196c0 -141 -80 -266 -208 -266zM808 454c85 0 147 -37 147 -111c0 -55 -34 -95 -101 -118
c52 -18 74 -51 74 -97c0 -84 -73 -136 -189 -136c-60 0 -112 14 -154 35l40 83c36 -18 70 -32 111 -32c52 0 79 22 79 55s-26 50 -87 50c-15 0 -29 -1 -47 -2l13 79c117 0 153 25 153 62c0 28 -20 42 -54 42c-32 0 -72 -13 -114 -35l-8 90c41 22 87 35 137 35zM144 0
l573 720h137l-573 -720h-137z" />
    <glyph glyph-name="arrowleft" unicode="&#x2190;" 
d="M876 371v-124h-387c-57 0 -93 1 -116 4v-2c15 -12 40 -34 73 -68l91 -92l-87 -87l-306 307l306 307l87 -87l-91 -92c-39 -40 -58 -56 -73 -68v-2c23 3 59 4 116 4h387z" />
    <glyph glyph-name="arrowup" unicode="&#x2191;" 
d="M574 0h-128v387c0 57 1 93 4 116h-2c-12 -15 -32 -40 -66 -73l-92 -91l-87 87l307 306l307 -306l-87 -87l-92 91c-34 33 -54 58 -66 73h-2c3 -23 4 -59 4 -116v-387z" />
    <glyph glyph-name="arrowright" unicode="&#x2192;" 
d="M144 245v128h376c61 0 100 -1 126 -4c-15 12 -39 35 -72 68l-91 92l87 87l306 -307l-306 -307l-87 87l91 92c38 39 57 55 72 67c-26 -2 -65 -3 -126 -3h-376z" />
    <glyph glyph-name="arrowdown" unicode="&#x2193;" 
d="M446 720h128v-387c0 -57 -1 -93 -4 -116h2c12 15 32 40 66 73l92 91l87 -87l-307 -306l-307 306l87 87l92 -91c34 -33 54 -58 66 -73h2c-3 23 -4 59 -4 116v387z" />
    <glyph glyph-name="uni2196" unicode="&#x2196;" 
d="M789 164l-88 -88l-274 274c-40 40 -63 66 -77 85l-1 -2c2 -19 3 -52 3 -99v-129h-125v433h434v-124h-130c-47 0 -80 2 -99 4l-2 -1c19 -14 45 -39 85 -79z" />
    <glyph glyph-name="uni2197" unicode="&#x2197;" 
d="M286 76l-88 88l274 274c40 40 66 65 85 79l-2 1c-19 -2 -52 -4 -99 -4h-130v124h434v-433h-125v129c0 47 1 80 3 99l-1 2c-14 -19 -37 -45 -77 -85z" />
    <glyph glyph-name="uni2198" unicode="&#x2198;" 
d="M198 540l88 88l274 -274c40 -40 63 -66 77 -85l1 2c-2 19 -3 52 -3 99v129h125v-433h-434v124h130c47 0 80 -2 99 -4l2 1c-19 14 -45 39 -85 79z" />
    <glyph glyph-name="uni2199" unicode="&#x2199;" 
d="M701 628l88 -88l-274 -274c-40 -40 -66 -65 -85 -79l2 -1c19 2 52 4 99 4h130v-124h-434v433h125v-129c0 -47 -1 -80 -3 -99l1 -2c14 19 37 45 77 85z" />
    <glyph glyph-name="partialdiff" unicode="&#x2202;" horiz-adv-x="572" 
d="M289 611c-40 0 -87 -16 -127 -41l-11 119c42 26 98 43 161 43c147 0 252 -92 252 -313c0 -271 -157 -431 -325 -431c-112 0 -217 71 -217 226c0 170 126 268 252 268c40 0 84 -10 128 -42c-5 124 -45 171 -113 171zM258 103c65 0 121 80 139 214c-32 32 -61 46 -92 46
c-63 0 -122 -54 -122 -153c0 -76 35 -107 75 -107z" />
    <glyph glyph-name="emptyset" unicode="&#x2205;" horiz-adv-x="676" 
d="M198 -73l-94 54l45 75c-57 51 -92 122 -92 209c0 160 120 277 278 277c33 0 64 -5 92 -15l45 76l94 -54l-45 -75c57 -51 92 -122 92 -209c0 -160 -120 -277 -278 -277c-33 0 -64 5 -92 15zM167 265c0 -44 13 -81 39 -111l163 275c-11 2 -23 3 -34 3
c-97 0 -168 -71 -168 -167zM503 265c0 44 -13 81 -39 111l-163 -275c11 -2 23 -3 34 -3c97 0 168 71 168 167z" />
    <glyph glyph-name="Delta" unicode="&#x2206;" horiz-adv-x="695" 
d="M529 720l88 -608l-19 -112h-590l20 112l308 608h193zM403 564l-200 -433h251z" />
    <glyph glyph-name="product" unicode="&#x220f;" horiz-adv-x="741" 
d="M7 -140l152 860h577l-152 -860h-163l128 724h-251l-128 -724h-163z" />
    <glyph glyph-name="summation" unicode="&#x2211;" horiz-adv-x="587" 
d="M-39 -140l20 111l310 340l-178 293l20 116h504l-24 -136h-303l173 -287l-282 -306h311l-23 -131h-528z" />
    <glyph glyph-name="minus" unicode="&#x2212;" horiz-adv-x="572" 
d="M541 317l-22 -124h-488l22 124h488z" />
    <glyph glyph-name="uni2215" unicode="&#x2215;" horiz-adv-x="572" 
d="M-61 0l573 720h137l-573 -720h-137z" />
    <glyph glyph-name="uni2219" unicode="&#x2219;" horiz-adv-x="572" 
d="M436 351c0 -78 -58 -135 -136 -135s-136 57 -136 135s58 135 136 135s136 -57 136 -135z" />
    <glyph glyph-name="radical" unicode="&#x221a;" horiz-adv-x="572" 
d="M114 -80l-93 510h156l45 -334l316 624h166l-429 -800h-161z" />
    <glyph glyph-name="infinity" unicode="&#x221e;" horiz-adv-x="800" 
d="M198 161c42 0 85 42 130 94c-33 52 -65 94 -105 94c-41 0 -82 -41 -82 -110c0 -52 23 -78 57 -78zM410 349c59 62 123 115 201 115c84 0 154 -61 154 -184c0 -140 -91 -234 -195 -234c-80 0 -134 54 -180 115c-59 -62 -123 -115 -201 -115c-84 0 -154 61 -154 184
c0 140 91 234 195 234c80 0 134 -54 180 -115zM602 349c-42 0 -85 -42 -130 -94c33 -52 65 -94 105 -94c41 0 82 41 82 110c0 52 -23 78 -57 78z" />
    <glyph glyph-name="integral" unicode="&#x222b;" horiz-adv-x="423" 
d="M-53 -210l20 113h27c60 0 79 22 89 80l101 572c19 109 78 165 265 165h27l-20 -113h-27c-60 0 -79 -22 -89 -80l-101 -572c-19 -109 -76 -165 -265 -165h-27z" />
    <glyph glyph-name="congruent" unicode="&#x2245;" horiz-adv-x="572" 
d="M499 76l-20 -111h-488l20 111h488zM535 280l-20 -111h-488l20 111h488zM198 392c-51 0 -90 -16 -120 -36l-19 109c27 18 85 39 145 39c84 0 152 -40 231 -40c51 0 90 16 120 36l19 -109c-27 -18 -85 -39 -145 -39c-84 0 -152 40 -231 40z" />
    <glyph glyph-name="approxequal" unicode="&#x2248;" horiz-adv-x="572" 
d="M184 318c-51 0 -90 -16 -120 -36l-19 109c27 18 85 39 145 39c84 0 152 -40 231 -40c51 0 90 16 120 36l19 -109c-27 -18 -85 -39 -145 -39c-84 0 -152 40 -231 40zM148 119c-51 0 -90 -16 -120 -36l-19 109c27 18 85 39 145 39c84 0 152 -40 231 -40c51 0 90 16 120 36
l19 -109c-27 -18 -85 -39 -145 -39c-84 0 -152 40 -231 40z" />
    <glyph glyph-name="notequal" unicode="&#x2260;" horiz-adv-x="572" 
d="M441 543l89 -69l-49 -62h77l-20 -111h-144l-73 -93h201l-20 -111h-268l-103 -131l-89 69l49 62h-77l20 111h144l73 93h-201l20 111h268z" />
    <glyph glyph-name="lessequal" unicode="&#x2264;" horiz-adv-x="572" 
d="M41 247l20 115l513 148l-19 -109l-377 -99l341 -103l-17 -99zM498 76l-20 -110h-487l19 110h488z" />
    <glyph glyph-name="greaterequal" unicode="&#x2265;" horiz-adv-x="572" 
d="M548 363l-20 -115l-513 -148l19 109l377 99l-341 103l17 99zM498 76l-20 -110h-487l19 110h488z" />
    <glyph glyph-name="circleplus" unicode="&#x2295;" 
d="M883 360c0 -213 -163 -372 -372 -372s-372 159 -372 372s163 372 372 372s372 -159 372 -372zM216 360c0 -173 129 -301 295 -301s295 128 295 301s-129 301 -295 301s-295 -128 -295 -301zM566 140h-110v167h-156v106h156v167h110v-167h156v-106h-156v-167z" />
    <glyph glyph-name="uni2296" unicode="&#x2296;" 
d="M883 360c0 -213 -163 -372 -372 -372s-372 159 -372 372s163 372 372 372s372 -159 372 -372zM216 360c0 -173 129 -301 295 -301s295 128 295 301s-129 301 -295 301s-295 -128 -295 -301zM722 413v-106h-422v106h422z" />
    <glyph glyph-name="circlemultiply" unicode="&#x2297;" 
d="M883 360c0 -213 -163 -372 -372 -372s-372 159 -372 372s163 372 372 372s372 -159 372 -372zM216 360c0 -173 129 -301 295 -301s295 128 295 301s-129 301 -295 301s-295 -128 -295 -301zM308 487l76 76l127 -127l127 127l76 -76l-126 -127l126 -127l-76 -76l-127 127
l-127 -127l-76 76l126 127z" />
    <glyph glyph-name="uni2298" unicode="&#x2298;" 
d="M883 360c0 -213 -163 -372 -372 -372s-372 159 -372 372s163 372 372 372s372 -159 372 -372zM216 360c0 -173 129 -301 295 -301s295 128 295 301s-129 301 -295 301s-295 -128 -295 -301zM308 233l330 330l76 -76l-330 -330z" />
    <glyph glyph-name="uni229C" unicode="&#x229c;" 
d="M883 360c0 -213 -163 -372 -372 -372s-372 159 -372 372s163 372 372 372s372 -159 372 -372zM216 360c0 -173 129 -301 295 -301s295 128 295 301s-129 301 -295 301s-295 -128 -295 -301zM722 496v-96h-422v96h422zM722 320v-96h-422v96h422z" />
    <glyph glyph-name="dotmath" unicode="&#x22c5;" horiz-adv-x="572" 
d="M285 166c-56 0 -96 40 -96 92s40 92 96 92s96 -40 96 -92s-40 -92 -96 -92z" />
    <glyph glyph-name="uni2460" unicode="&#x2460;" 
d="M973 330c0 -269 -205 -468 -468 -468s-468 199 -468 468s205 468 468 468s468 -199 468 -468zM896 330c0 228 -172 397 -391 397s-391 -169 -391 -397s172 -397 391 -397s391 169 391 397zM419 402l-12 86l111 52h81l-75 -419h-101l54 308z" />
    <glyph glyph-name="uni2461" unicode="&#x2461;" 
d="M973 330c0 -269 -205 -468 -468 -468s-468 199 -468 468s205 468 468 468s468 -199 468 -468zM896 330c0 228 -172 397 -391 397s-391 -169 -391 -397s172 -397 391 -397s391 169 391 397zM560 417c0 26 -15 43 -48 43c-39 0 -80 -23 -110 -53l-13 87c30 30 80 54 140 54
c84 0 133 -48 133 -121c0 -83 -63 -146 -168 -224h138l-14 -82h-294l13 73c172 114 223 176 223 223z" />
    <glyph glyph-name="uni2462" unicode="&#x2462;" 
d="M973 330c0 -269 -205 -468 -468 -468s-468 199 -468 468s205 468 468 468s468 -199 468 -468zM896 330c0 228 -172 397 -391 397s-391 -169 -391 -397s172 -397 391 -397s391 169 391 397zM537 548c79 0 138 -35 138 -104c0 -52 -32 -90 -95 -111c49 -17 69 -48 69 -91
c0 -79 -68 -128 -177 -128c-57 0 -106 13 -145 33l38 78c33 -17 65 -30 104 -30c49 0 74 20 74 51s-24 47 -82 47c-14 0 -27 -1 -44 -2l12 75c110 0 144 23 144 58c0 26 -19 39 -51 39c-30 0 -67 -12 -107 -33l-7 85c38 21 82 33 129 33z" />
    <glyph glyph-name="uni2463" unicode="&#x2463;" 
d="M973 330c0 -269 -205 -468 -468 -468s-468 199 -468 468s205 468 468 468s468 -199 468 -468zM896 330c0 228 -172 397 -391 397s-391 -169 -391 -397s172 -397 391 -397s391 169 391 397zM283 200l13 77l216 263h125l-46 -259h60l-14 -81h-60l-14 -79h-99l14 79h-195z
M398 281h94l27 147z" />
    <glyph glyph-name="uni2464" unicode="&#x2464;" 
d="M973 330c0 -269 -205 -468 -468 -468s-468 199 -468 468s205 468 468 468s468 -199 468 -468zM896 330c0 228 -172 397 -391 397s-391 -169 -391 -397s172 -397 391 -397s391 169 391 397zM547 259c0 39 -28 55 -81 55c-23 0 -57 -3 -98 -14l51 240h259l-15 -84h-164
l-15 -66c8 1 15 1 21 1c88 0 144 -47 144 -129c0 -93 -71 -148 -180 -148c-58 0 -108 15 -146 33l37 79c32 -16 63 -31 104 -31c55 0 83 26 83 64z" />
    <glyph glyph-name="uni2465" unicode="&#x2465;" 
d="M973 330c0 -269 -205 -468 -468 -468s-468 199 -468 468s205 468 468 468s468 -199 468 -468zM896 330c0 228 -172 397 -391 397s-391 -169 -391 -397s172 -397 391 -397s391 169 391 397zM548 548c44 0 90 -10 122 -31l-38 -81c-28 15 -54 26 -86 26
c-60 0 -92 -38 -106 -94c30 29 61 35 88 35c73 0 120 -51 120 -130c0 -99 -70 -159 -157 -159c-91 0 -156 67 -156 190c0 132 73 244 213 244zM500 323c-21 0 -40 -8 -66 -31c2 -74 27 -99 59 -99c34 0 58 29 58 71c0 39 -19 59 -51 59z" />
    <glyph glyph-name="uni2466" unicode="&#x2466;" 
d="M973 330c0 -269 -205 -468 -468 -468s-468 199 -468 468s205 468 468 468s468 -199 468 -468zM896 330c0 228 -172 397 -391 397s-391 -169 -391 -397s172 -397 391 -397s391 169 391 397zM392 453l16 87h283l-15 -82c-67 -102 -128 -210 -195 -337h-117
c65 124 125 232 192 332h-164z" />
    <glyph glyph-name="uni2467" unicode="&#x2467;" 
d="M973 330c0 -269 -205 -468 -468 -468s-468 199 -468 468s205 468 468 468s468 -199 468 -468zM896 330c0 228 -172 397 -391 397s-391 -169 -391 -397s172 -397 391 -397s391 169 391 397zM482 114c-95 0 -156 43 -156 114c0 62 48 92 101 112c-29 18 -49 45 -49 86
c0 73 62 122 155 122c86 0 139 -42 139 -108c0 -52 -34 -82 -81 -101c35 -20 65 -47 65 -97c0 -78 -71 -128 -174 -128zM476 431c0 -25 20 -39 46 -53c30 13 52 29 52 57c0 25 -16 39 -45 39s-53 -15 -53 -43zM486 184c37 0 68 18 68 53c0 33 -27 50 -58 65
c-39 -15 -68 -33 -68 -70c0 -31 22 -48 58 -48z" />
    <glyph glyph-name="uni2468" unicode="&#x2468;" 
d="M973 330c0 -269 -205 -468 -468 -468s-468 199 -468 468s205 468 468 468s468 -199 468 -468zM896 330c0 228 -172 397 -391 397s-391 -169 -391 -397s172 -397 391 -397s391 169 391 397zM465 114c-43 0 -89 10 -121 31l38 77c28 -15 54 -27 86 -27c60 0 93 41 105 99
c-30 -29 -60 -36 -87 -36c-73 0 -120 51 -120 131c0 99 70 159 157 159c91 0 156 -68 156 -191c0 -131 -74 -243 -214 -243zM514 335c20 0 40 8 66 31c-2 74 -28 99 -59 99c-34 0 -59 -29 -59 -71c0 -39 20 -59 52 -59z" />
    </font>
</defs>
</svg>
